<svg width="335" height="220" viewBox="0 0 335 220" fill="none" xmlns="http://www.w3.org/2000/svg">
<g clip-path="url(#clip0_3660_110248)">
<path d="M267.155 259.904L238.917 164.955L234.103 166.242L251.038 246.306C225.891 239.676 214.059 256.265 218.516 273L267.155 259.904Z" fill="white" stroke="#242427" stroke-width="1.98246" stroke-linecap="round" stroke-linejoin="round"/>
<path d="M272.055 258.135L249.312 162.274L254.131 160.994L279.244 238.43C297.746 220.149 316.258 228.529 320.681 245.165L272.055 258.135Z" fill="white" stroke="#242427" stroke-width="1.98246" stroke-linecap="round" stroke-linejoin="round"/>
<path fill-rule="evenodd" clip-rule="evenodd" d="M249.108 184.704C258.939 182.081 267.95 177.028 275.307 170.012C282.664 162.996 288.131 154.243 291.201 144.562C301.645 135.902 305.02 119.545 298.559 105.902C295.379 98.8536 289.539 93.3422 282.31 90.5644C275.165 80.8363 265.267 73.4618 253.89 69.3882C242.512 65.3146 230.174 64.7281 218.459 67.7039C206.745 70.6796 196.19 77.0819 188.15 86.0881C180.11 95.0944 174.952 106.293 173.339 118.246C167.64 123.788 164.4 132.169 165.171 141.55C166.521 157.503 178.913 170.531 193.378 171.657C200.868 178.25 209.876 182.891 219.6 185.167C229.324 187.444 239.461 187.285 249.108 184.704Z" fill="#242427" stroke="#242427" stroke-width="1.98246" stroke-miterlimit="10"/>
<path d="M221.785 119.669C226.596 118.38 228.956 111.585 227.056 104.494C225.156 97.4023 219.715 92.6986 214.904 93.9878C210.092 95.2771 207.732 102.071 209.632 109.163C211.532 116.254 216.973 120.958 221.785 119.669Z" fill="white"/>
<path d="M239.207 114.997C244.018 113.708 246.378 106.914 244.478 99.822C242.578 92.7304 237.137 88.0267 232.325 89.316C227.514 90.6052 225.154 97.3993 227.054 104.491C228.954 111.582 234.395 116.286 239.207 114.997Z" fill="white"/>
<path d="M220.635 111.711C223.926 110.829 225.604 106.418 224.382 101.858C223.16 97.2976 219.501 94.316 216.21 95.198C212.918 96.0799 211.24 100.492 212.462 105.052C213.684 109.611 217.343 112.593 220.635 111.711Z" fill="#242427"/>
<path d="M217.535 105.495C219.065 105.085 219.846 103.038 219.279 100.922C218.712 98.8064 217.012 97.4237 215.482 97.8337C213.951 98.2438 213.17 100.291 213.737 102.407C214.304 104.523 216.004 105.905 217.535 105.495Z" fill="white"/>
<path d="M222.037 107.706C222.736 107.519 223.092 106.585 222.833 105.619C222.575 104.654 221.799 104.023 221.1 104.21C220.402 104.397 220.046 105.331 220.304 106.297C220.563 107.262 221.339 107.893 222.037 107.706Z" fill="white"/>
<path d="M236.236 107.531C239.528 106.649 241.206 102.238 239.984 97.6779C238.762 93.1179 235.103 90.1363 231.812 91.0183C228.52 91.9002 226.842 96.3118 228.064 100.872C229.286 105.432 232.945 108.413 236.236 107.531Z" fill="#242427"/>
<path d="M233.121 101.316C234.651 100.906 235.432 98.8581 234.865 96.7424C234.298 94.6267 232.598 93.244 231.068 93.6541C229.537 94.0641 228.756 96.1116 229.323 98.2272C229.89 100.343 231.59 101.726 233.121 101.316Z" fill="white"/>
<path d="M237.623 103.534C238.322 103.347 238.678 102.413 238.419 101.447C238.161 100.482 237.385 99.851 236.686 100.038C235.988 100.225 235.632 101.16 235.89 102.125C236.149 103.09 236.925 103.721 237.623 103.534Z" fill="white"/>
<path d="M236.315 139.607C244.015 137.492 248.828 130.031 246.903 122.954C244.978 115.878 237.277 111.855 229.576 113.98C221.876 116.105 217.12 123.557 218.988 130.633C220.855 137.71 228.604 141.732 236.315 139.607Z" fill="white" stroke="#242427" stroke-width="1.98246" stroke-miterlimit="10"/>
<path d="M218.582 128.059C223.107 129.602 225.667 122.726 231.151 121.202C236.635 119.678 240.573 124.761 246.336 120.354" stroke="#242427" stroke-width="1.98246"/>
<path d="M230.785 129.375L225.523 125.284L237.418 122.334L235.062 128.31C234.249 130.478 232.695 130.855 230.785 129.375Z" fill="#242427" stroke="#242427" stroke-width="1.98246" stroke-linecap="round" stroke-linejoin="round"/>
<path d="M77.8211 242.277L86.7498 187.684L82.4454 186.768L69.3675 230.637C51.287 219.406 36.2022 223.588 34.2148 233.045L77.8211 242.277Z" fill="white" stroke="#242427" stroke-width="1.98246" stroke-linecap="round" stroke-linejoin="round"/>
<path d="M82.7852 243.003L96.5543 189.736L100.838 190.637L95.1552 235.778C116.113 232.873 128.174 242.78 126.186 252.184L82.7852 243.003Z" fill="white" stroke="#242427" stroke-width="1.98246" stroke-linecap="round" stroke-linejoin="round"/>
<path fill-rule="evenodd" clip-rule="evenodd" d="M166.092 175.055C169.922 165.077 161.821 152.306 147.593 144.714C157.8 137.324 162.597 126.94 158.556 118.535C154.65 110.421 143.658 106.48 131.258 107.813C129.793 98.7521 124.7 91.2077 116.839 88.1069C107.503 84.4169 96.8753 87.962 89.1867 96.2116C81.4407 90.9952 72.4499 89.2275 64.7709 92.2607C55.4068 95.9507 50.5045 105.784 51.1364 117.048C42.1074 118.748 34.7252 123.916 31.69 131.789C27.3813 142.946 33.04 156.074 44.683 164.381C38.9381 170.399 36.6306 177.18 39.2924 182.735C42.5957 189.622 52.6492 192.714 64.3784 191.351C65.6327 202.113 72.0861 211.589 82.1492 215.578C94.2326 220.408 107.819 215.791 115.967 205.223C122.488 210.826 129.592 213.289 135.165 211.077C142.471 208.179 145.132 198.133 142.624 186.29C153.826 186.744 163.085 182.735 166.053 175.046L166.092 175.055Z" fill="#242427" stroke="#242427" stroke-width="1.98246" stroke-miterlimit="10" stroke-linecap="round"/>
<path d="M102.109 130.218C103.61 123.118 100.923 116.537 96.1066 115.519C91.2903 114.5 86.1689 119.43 84.6676 126.53C83.1663 133.629 85.8536 140.21 90.6699 141.229C95.4862 142.247 100.608 137.318 102.109 130.218Z" fill="white"/>
<path d="M119.543 133.901C121.044 126.802 118.357 120.221 113.54 119.202C108.724 118.184 103.602 123.114 102.101 130.213C100.6 137.313 103.287 143.894 108.104 144.912C112.92 145.931 118.041 141.001 119.543 133.901Z" fill="white"/>
<path d="M100.274 129.83C101.239 125.269 99.3473 121.006 96.0497 120.308C92.7522 119.611 89.297 122.744 88.3325 127.305C87.3679 131.867 89.2591 136.13 92.5567 136.827C95.8543 137.524 99.3094 134.392 100.274 129.83Z" fill="#242427"/>
<path d="M98.4039 127.101C98.8296 125.089 97.994 123.207 96.5377 122.899C95.0814 122.591 93.5557 123.973 93.1301 125.986C92.7044 127.999 93.54 129.881 94.9963 130.188C96.4526 130.496 97.9783 129.114 98.4039 127.101Z" fill="white"/>
<path d="M93.1345 132.107C93.3347 131.16 92.9446 130.276 92.2633 130.132C91.5819 129.988 90.8673 130.638 90.6671 131.585C90.467 132.531 90.857 133.416 91.5384 133.56C92.2198 133.704 92.9344 133.053 93.1345 132.107Z" fill="white"/>
<path d="M115.879 133.127C116.844 128.566 114.953 124.303 111.655 123.605C108.358 122.908 104.903 126.04 103.938 130.602C102.973 135.163 104.865 139.427 108.162 140.124C111.46 140.821 114.915 137.689 115.879 133.127Z" fill="#242427"/>
<path d="M114.021 130.398C114.447 128.385 113.611 126.504 112.155 126.196C110.699 125.888 109.173 127.27 108.747 129.283C108.322 131.296 109.157 133.177 110.613 133.485C112.07 133.793 113.595 132.411 114.021 130.398Z" fill="white"/>
<path d="M108.744 135.415C108.944 134.469 108.554 133.584 107.873 133.44C107.191 133.296 106.477 133.947 106.277 134.893C106.076 135.84 106.466 136.724 107.148 136.868C107.829 137.012 108.544 136.362 108.744 135.415Z" fill="white"/>
<path d="M95.5206 160.562C103.074 162.233 110.184 158.892 111.364 153.115C112.544 147.339 107.361 141.326 99.7884 139.626C92.216 137.927 85.1251 141.297 83.9448 147.073C82.7646 152.85 87.9482 158.922 95.5206 160.562Z" fill="white" stroke="#242427" stroke-width="1.98246" stroke-miterlimit="10"/>
<path d="M83.7773 147.533C87.2068 151.152 92.6207 146.061 98.2946 147.321C103.969 148.581 105.298 155.154 112.523 153.894" stroke="#242427" stroke-width="1.98246"/>
<path d="M95.4926 150.327L91.707 148.104L103.602 150.441L99.1869 151.025C97.9057 151.195 96.6006 150.948 95.4926 150.327Z" fill="#242427" stroke="#242427" stroke-width="1.98246" stroke-linecap="round" stroke-linejoin="round"/>
<path d="M267.155 259.904L238.917 164.955L234.103 166.242L251.038 246.306C225.891 239.676 214.059 256.265 218.516 273L267.155 259.904Z" fill="white" stroke="#242427" stroke-width="1.98246" stroke-linecap="round" stroke-linejoin="round"/>
<path d="M272.055 258.135L249.312 162.274L254.131 160.994L279.244 238.43C297.746 220.149 316.258 228.529 320.681 245.165L272.055 258.135Z" fill="white" stroke="#242427" stroke-width="1.98246" stroke-linecap="round" stroke-linejoin="round"/>
<path fill-rule="evenodd" clip-rule="evenodd" d="M249.108 184.704C258.939 182.081 267.95 177.028 275.307 170.012C282.664 162.996 288.131 154.243 291.201 144.562C301.645 135.902 305.02 119.545 298.559 105.902C295.379 98.8536 289.539 93.3422 282.31 90.5644C275.165 80.8363 265.267 73.4618 253.89 69.3882C242.512 65.3146 230.174 64.7281 218.459 67.7039C206.745 70.6796 196.19 77.0819 188.15 86.0881C180.11 95.0944 174.952 106.293 173.339 118.246C167.64 123.788 164.4 132.169 165.171 141.55C166.521 157.503 178.913 170.531 193.378 171.657C200.868 178.25 209.876 182.891 219.6 185.167C229.324 187.444 239.461 187.285 249.108 184.704Z" fill="#242427" stroke="#242427" stroke-width="1.98246" stroke-miterlimit="10"/>
<path d="M221.785 119.669C226.596 118.38 228.956 111.585 227.056 104.494C225.156 97.4023 219.715 92.6986 214.904 93.9878C210.092 95.2771 207.732 102.071 209.632 109.163C211.532 116.254 216.973 120.958 221.785 119.669Z" fill="white"/>
<path d="M239.207 114.997C244.018 113.708 246.378 106.914 244.478 99.822C242.578 92.7304 237.137 88.0267 232.325 89.316C227.514 90.6052 225.154 97.3993 227.054 104.491C228.954 111.582 234.395 116.286 239.207 114.997Z" fill="white"/>
<path d="M220.635 111.711C223.926 110.829 225.604 106.418 224.382 101.858C223.16 97.2976 219.501 94.316 216.21 95.198C212.918 96.0799 211.24 100.492 212.462 105.052C213.684 109.611 217.343 112.593 220.635 111.711Z" fill="#242427"/>
<path d="M217.535 105.495C219.065 105.085 219.846 103.038 219.279 100.922C218.712 98.8064 217.012 97.4237 215.482 97.8337C213.951 98.2438 213.17 100.291 213.737 102.407C214.304 104.523 216.004 105.905 217.535 105.495Z" fill="white"/>
<path d="M222.037 107.706C222.736 107.519 223.092 106.585 222.833 105.619C222.575 104.654 221.799 104.023 221.1 104.21C220.402 104.397 220.046 105.331 220.304 106.297C220.563 107.262 221.339 107.893 222.037 107.706Z" fill="white"/>
<path d="M236.236 107.531C239.528 106.649 241.206 102.238 239.984 97.6779C238.762 93.1179 235.103 90.1363 231.812 91.0183C228.52 91.9002 226.842 96.3118 228.064 100.872C229.286 105.432 232.945 108.413 236.236 107.531Z" fill="#242427"/>
<path d="M233.121 101.316C234.651 100.906 235.432 98.8581 234.865 96.7424C234.298 94.6267 232.598 93.244 231.068 93.6541C229.537 94.0641 228.756 96.1116 229.323 98.2272C229.89 100.343 231.59 101.726 233.121 101.316Z" fill="white"/>
<path d="M237.623 103.534C238.322 103.347 238.678 102.413 238.419 101.447C238.161 100.482 237.385 99.851 236.686 100.038C235.988 100.225 235.632 101.16 235.89 102.125C236.149 103.09 236.925 103.721 237.623 103.534Z" fill="white"/>
<path d="M236.315 139.607C244.015 137.492 248.828 130.031 246.903 122.954C244.978 115.878 237.277 111.855 229.576 113.98C221.876 116.105 217.12 123.557 218.988 130.633C220.855 137.71 228.604 141.732 236.315 139.607Z" fill="white" stroke="#242427" stroke-width="1.98246" stroke-miterlimit="10"/>
<path d="M218.582 128.059C223.107 129.602 225.667 122.726 231.151 121.202C236.635 119.678 240.573 124.761 246.336 120.354" stroke="#242427" stroke-width="1.98246"/>
<path d="M230 129.5L225.523 125.284L230.785 121.5L237.418 122.334L236 128C235.187 130.168 231.91 130.98 230 129.5Z" fill="#242427" stroke="#242427" stroke-width="1.98246" stroke-linecap="round" stroke-linejoin="round"/>
<path d="M210.352 205.229L204.844 207.885L204.752 200.655L210.26 198L210.352 205.229Z" fill="#EFEFEF" stroke="#242427" stroke-width="2" stroke-linecap="round" stroke-linejoin="round"/>
<path d="M45.9946 80.8418L45.2188 86.9072L39.108 83.0433L39.8839 76.9779L45.9946 80.8418Z" fill="white" stroke="#242427" stroke-width="2" stroke-linecap="round" stroke-linejoin="round"/>
<path d="M297.308 176.6L301.162 174.162M301.162 174.162L302.41 178.719M301.162 174.162L306.134 174.432M301.162 174.162L303.037 170.006M301.162 174.162L297.865 171.298" stroke="#242427" stroke-width="2" stroke-linecap="round" stroke-linejoin="round"/>
<path d="M275.308 60.5999L279.162 58.1622M279.162 58.1622L280.41 62.7186M279.162 58.1622L284.134 58.4324M279.162 58.1622L281.037 54.0057M279.162 58.1622L275.865 55.2976" stroke="#242427" stroke-width="2" stroke-linecap="round" stroke-linejoin="round"/>
<path d="M18.308 106.6L22.1617 104.162M22.1617 104.162L23.4104 108.719M22.1617 104.162L27.1344 104.432M22.1617 104.162L24.0372 100.006M22.1617 104.162L18.8646 101.298" stroke="#242427" stroke-width="2" stroke-linecap="round" stroke-linejoin="round"/>
</g>
<defs>
<clipPath id="clip0_3660_110248">
<rect width="335" height="220" fill="white"/>
</clipPath>
</defs>
</svg>
