<svg width="182" height="70" viewBox="0 0 182 70" fill="none" xmlns="http://www.w3.org/2000/svg">
<path d="M181.269 12.6605H171.484V2.87598H181.269V12.6605ZM181.269 69.0219H171.484V20.0324H181.269V69.0219Z" fill="white"/>
<path d="M128.765 69.0211H118.98V0.395508H128.765V24.9238H133.657V20.0315H153.293V24.9238H158.186V29.8161H163.078V59.2366H158.186V64.1288H153.293V69.0211H133.657V64.1288H128.765V69.0211ZM133.657 59.2366H148.368V54.3443H153.293V34.7083H148.368V29.8161H133.657V34.7083H128.765V54.3443H133.657V59.2366Z" fill="white"/>
<path d="M89.7454 69.0211H79.9609V0.395508H89.7454V24.9238H94.6377V20.0315H114.274V24.9238H119.166V29.8161H124.058V59.2366H119.166V64.1288H114.274V69.0211H94.6377V64.1288H89.7454V69.0211ZM94.6377 59.2366H109.348V54.3443H114.274V34.7083H109.348V29.8161H94.6377V34.7083H89.7454V54.3443H94.6377V59.2366Z" fill="white"/>
<path d="M71.5462 12.6605H61.7617V2.87598H71.5462V12.6605ZM71.5462 69.0219H61.7617V20.0324H71.5462V69.0219Z" fill="white"/>
<path d="M44.9411 69.0211H0.84375V0.395508H40.0488V5.32127H44.9411V10.2135H49.8333V29.8161H44.9411V34.7083H49.8333V39.6341H54.7591V59.2366H49.8333V64.1288H44.9411V69.0211ZM10.6283 29.8161H35.1565V24.9238H40.0488V15.1058H35.1565V10.2135H10.6283V29.8161ZM10.6283 59.2366H40.0488V54.3443H44.9411V44.5263H40.0488V39.6341H10.6283V59.2366Z" fill="white"/>
</svg>
