<svg width="263" height="100" viewBox="0 0 263 100" fill="none" xmlns="http://www.w3.org/2000/svg">
<g clip-path="url(#clip0_2655_58932)">
<path d="M262.908 17.8737H248.65V3.61621H262.908V17.8737ZM262.908 100.001H248.65V28.6157H262.908V100.001Z" fill="white"/>
<path d="M186.402 99.998H172.145V0H186.402V35.7415H193.531V28.6127H222.144V35.7415H229.272V42.8703H236.401V85.7405H229.272V92.8693H222.144V99.998H193.531V92.8693H186.402V99.998ZM193.531 85.7405H214.966V78.6117H222.144V49.999H214.966V42.8703H193.531V49.999H186.402V78.6117H193.531V85.7405Z" fill="white"/>
<path d="M129.545 99.998H115.287V0H129.545V35.7415H136.673V28.6127H165.286V35.7415H172.415V42.8703H179.544V85.7405H172.415V92.8693H165.286V99.998H136.673V92.8693H129.545V99.998ZM136.673 85.7405H158.109V78.6117H165.286V49.999H158.109V42.8703H136.673V49.999H129.545V78.6117H136.673V85.7405Z" fill="white"/>
<path d="M103.023 17.8737H88.7656V3.61621H103.023V17.8737ZM103.023 100.001H88.7656V28.6157H103.023V100.001Z" fill="white"/>
<path d="M64.2566 99.998H0V0H57.1278V7.17759H64.2566V14.3064H71.3853V42.8703H64.2566V49.999H71.3853V57.1766H78.5629V85.7405H71.3853V92.8693H64.2566V99.998ZM14.2575 42.8703H49.999V35.7415H57.1278V21.4351H49.999V14.3064H14.2575V42.8703ZM14.2575 85.7405H57.1278V78.6117H64.2566V64.3054H57.1278V57.1766H14.2575V85.7405Z" fill="white"/>
</g>
<defs>
<clipPath id="clip0_2655_58932">
<rect width="262.909" height="100.001" fill="white"/>
</clipPath>
</defs>
</svg>
