<svg width="48" height="48" viewBox="0 0 48 48" fill="none" xmlns="http://www.w3.org/2000/svg">
<rect width="48" height="48" rx="24" fill="#353538"/>
<path fill-rule="evenodd" clip-rule="evenodd" d="M17.0819 25.5034C16.9622 25.3957 16.9023 25.258 16.9023 25.0904C16.9023 24.9228 16.9861 24.7313 17.1537 24.5158L26.8497 12.342C27.0412 12.1026 27.2507 11.9889 27.4781 12.0009C27.7056 12.0009 27.8791 12.0966 27.9988 12.2881C28.1185 12.4677 28.1245 12.7011 28.0168 12.9884L24.7669 21.7148H30.764C30.9555 21.7148 31.1051 21.7686 31.2129 21.8764C31.3326 21.9721 31.3924 22.1098 31.3924 22.2894C31.3924 22.4569 31.3086 22.6425 31.1411 22.846L21.4451 35.0378C21.2536 35.2652 21.0441 35.3789 20.8166 35.3789C20.5892 35.3789 20.4156 35.2891 20.2959 35.1096C20.1762 34.9181 20.1702 34.6727 20.278 34.3734L23.5279 25.647H17.5128C17.3452 25.647 17.2016 25.5992 17.0819 25.5034Z" fill="white"/>
</svg>
