<svg width="24" height="24" viewBox="0 0 24 24" fill="none" xmlns="http://www.w3.org/2000/svg">
<path fill-rule="evenodd" clip-rule="evenodd" d="M6.1487 13.5518C6.04957 13.4596 6 13.3418 6 13.1985C6 13.0551 6.06939 12.8913 6.20818 12.7069L14.2379 2.29258C14.3965 2.08777 14.57 1.99049 14.7584 2.00073C14.9467 2.00073 15.0905 2.08265 15.1896 2.2465C15.2887 2.4001 15.2937 2.59979 15.2045 2.84555L12.513 10.3107H17.4796C17.6382 10.3107 17.7621 10.3568 17.8513 10.449C17.9504 10.5309 18 10.6486 18 10.8023C18 10.9456 17.9306 11.1043 17.7918 11.2784L9.76208 21.7082C9.60347 21.9027 9.42999 22 9.24164 22C9.05328 22 8.90954 21.9232 8.81041 21.7696C8.71128 21.6058 8.70632 21.3958 8.79554 21.1398L11.487 13.6747H6.50558C6.36679 13.6747 6.24783 13.6337 6.1487 13.5518Z" fill="#B2B2B4"/>
</svg>
