<svg width="124" height="86" viewBox="0 0 124 86" fill="none" xmlns="http://www.w3.org/2000/svg">
<g clip-path="url(#clip0_2811_25591)">
<path d="M120.251 13.7173H118.064C117.871 13.7173 117.68 13.6792 117.501 13.6053C117.323 13.5314 117.161 13.4231 117.024 13.2865C116.888 13.1499 116.779 12.9878 116.705 12.8094C116.631 12.6309 116.593 12.4396 116.593 12.2465V10.0593C116.593 9.21046 116.256 8.39634 115.656 7.79609C115.056 7.19584 114.242 6.85866 113.393 6.85866H111.206C110.815 6.85866 110.441 6.70369 110.166 6.42786C109.89 6.15203 109.735 5.7779 109.735 5.38782V3.20067C109.735 2.35179 109.398 1.53768 108.797 0.937429C108.197 0.337179 107.383 0 106.534 0H99.2181C98.3692 0 97.5551 0.337179 96.9549 0.937429C96.3546 1.53768 96.0174 2.35179 96.0174 3.20067V5.38782C96.0174 5.7779 95.8624 6.15203 95.5866 6.42786C95.3108 6.70369 94.9367 6.85866 94.5466 6.85866H92.3594C91.5106 6.85866 90.6964 7.19584 90.0962 7.79609C89.4959 8.39634 89.1587 9.21046 89.1587 10.0593V12.2465C89.1587 12.6366 89.0038 13.0107 88.728 13.2865C88.4521 13.5624 88.078 13.7173 87.6879 13.7173H76.9122C76.5221 13.7173 76.148 13.5624 75.8722 13.2865C75.5964 13.0107 75.4414 12.6366 75.4414 12.2465V10.0593C75.4414 9.21046 75.1042 8.39634 74.5039 7.79609C73.9037 7.19584 73.0896 6.85866 72.2407 6.85866H70.0535C69.6635 6.85866 69.2894 6.70369 69.0135 6.42786C68.7377 6.15203 68.5827 5.7779 68.5827 5.38782V3.20067C68.5827 2.35179 68.2455 1.53768 67.6453 0.937429C67.045 0.337179 66.2309 0 65.382 0H58.0661C57.2172 0 56.4031 0.337179 55.8029 0.937429C55.2026 1.53768 54.8654 2.35179 54.8654 3.20067V5.38782C54.8654 5.7779 54.7105 6.15203 54.4346 6.42786C54.1588 6.70369 53.7847 6.85866 53.3946 6.85866H51.2074C50.3586 6.85866 49.5445 7.19584 48.9442 7.79609C48.344 8.39634 48.0068 9.21046 48.0068 10.0593V12.2465C48.0068 12.6366 47.8518 13.0107 47.5759 13.2865C47.3001 13.5624 46.926 13.7173 46.5359 13.7173H35.7602C35.3701 13.7173 34.996 13.5624 34.7202 13.2865C34.4444 13.0107 34.2894 12.6366 34.2894 12.2465V10.0593C34.2894 9.21046 33.9522 8.39634 33.3519 7.79609C32.7517 7.19584 31.9376 6.85866 31.0887 6.85866H28.9016C28.5115 6.85866 28.1374 6.70369 27.8615 6.42786C27.5857 6.15203 27.4308 5.7779 27.4308 5.38782V3.20067C27.4308 2.35179 27.0935 1.53768 26.4933 0.937429C25.893 0.337179 25.0789 0 24.23 0H16.9141C16.0652 0 15.2511 0.337179 14.6509 0.937429C14.0506 1.53768 13.7134 2.35179 13.7134 3.20067V5.38782C13.7134 5.7779 13.5584 6.15203 13.2826 6.42786C13.0068 6.70369 12.6327 6.85866 12.2426 6.85866H10.0555C9.20657 6.85866 8.39246 7.19584 7.79221 7.79609C7.19196 8.39634 6.85476 9.21046 6.85476 10.0593V12.2465C6.85476 12.6366 6.69978 13.0107 6.42395 13.2865C6.14812 13.5624 5.77402 13.7173 5.38394 13.7173H3.19679C2.34791 13.7173 1.5338 14.0545 0.933546 14.6548C0.333296 15.255 -0.00390625 16.0691 -0.00390625 16.918V17.3752C-0.00390625 18.2241 0.333296 19.0382 0.933546 19.6385C1.5338 20.2387 2.34791 20.576 3.19679 20.576H3.65404C4.50292 20.576 5.31703 20.2387 5.91728 19.6385C6.51753 19.0382 6.85476 18.2241 6.85476 17.3752V15.1881C6.85476 14.798 7.00971 14.424 7.28554 14.1481C7.56137 13.8723 7.93548 13.7173 8.32556 13.7173H10.5127C11.3616 13.7173 12.1757 13.3801 12.7759 12.7798C13.3762 12.1796 13.7134 11.3654 13.7134 10.5166V8.32941C13.7134 7.93933 13.8684 7.5653 14.1442 7.28947C14.42 7.01364 14.7941 6.85866 15.1842 6.85866H25.9599C26.35 6.85866 26.7241 7.01364 26.9999 7.28947C27.2758 7.5653 27.4308 7.93933 27.4308 8.32941V10.5147C27.4308 11.3636 27.768 12.1777 28.3682 12.7779C28.9685 13.3782 29.7826 13.7154 30.6315 13.7154H32.8186C33.2087 13.7154 33.5828 13.8704 33.8586 14.1462C34.1344 14.422 34.2894 14.7961 34.2894 15.1862V17.3734C34.2894 18.2222 34.6266 19.0364 35.2269 19.6366C35.8271 20.2369 36.6412 20.574 37.4901 20.574H44.806C45.6549 20.574 46.469 20.2369 47.0693 19.6366C47.6695 19.0364 48.0068 18.2222 48.0068 17.3734V15.1862C48.0068 14.7961 48.1617 14.422 48.4375 14.1462C48.7134 13.8704 49.0875 13.7154 49.4776 13.7154H51.6647C52.5136 13.7154 53.3277 13.3782 53.9279 12.7779C54.5282 12.1777 54.8654 11.3636 54.8654 10.5147V8.32755C54.8654 7.93747 55.0204 7.56335 55.2962 7.28752C55.572 7.01169 55.9461 6.85671 56.3362 6.85671H67.1119C67.502 6.85671 67.8761 7.01169 68.152 7.28752C68.4278 7.56335 68.5827 7.93747 68.5827 8.32755V10.5147C68.5827 11.3636 68.92 12.1777 69.5202 12.7779C70.1205 13.3782 70.9346 13.7154 71.7834 13.7154H73.9706C74.3607 13.7154 74.7348 13.8704 75.0106 14.1462C75.2864 14.422 75.4414 14.7961 75.4414 15.1862V17.3734C75.4414 18.2222 75.7786 19.0364 76.3789 19.6366C76.9791 20.2369 77.7932 20.574 78.6421 20.574H85.958C86.8069 20.574 87.621 20.2369 88.2213 19.6366C88.8215 19.0364 89.1587 18.2222 89.1587 17.3734V15.1862C89.1587 14.7961 89.3137 14.422 89.5895 14.1462C89.8654 13.8704 90.2395 13.7154 90.6295 13.7154H92.8167C93.6656 13.7154 94.4797 13.3782 95.0799 12.7779C95.6802 12.1777 96.0174 11.3636 96.0174 10.5147V8.32755C96.0174 7.93747 96.1724 7.56335 96.4482 7.28752C96.724 7.01169 97.0981 6.85671 97.4882 6.85671H108.264C108.654 6.85671 109.028 7.01169 109.304 7.28752C109.58 7.56335 109.735 7.93747 109.735 8.32755V10.5147C109.735 11.3636 110.072 12.1777 110.672 12.7779C111.272 13.3782 112.087 13.7154 112.935 13.7154H115.123C115.513 13.7154 115.887 13.8704 116.163 14.1462C116.438 14.422 116.593 14.7961 116.593 15.1862V17.3734C116.593 18.2222 116.931 19.0364 117.531 19.6366C118.131 20.2369 118.945 20.574 119.794 20.574H120.251C121.1 20.574 121.914 20.2369 122.515 19.6366C123.115 19.0364 123.452 18.2222 123.452 17.3734V16.9161C123.452 16.0676 123.114 15.2539 122.514 14.6541C121.914 14.0543 121.1 13.7173 120.251 13.7173Z" fill="white"/>
<path d="M120.349 46.1998H118.154C117.764 46.1998 117.39 46.0448 117.114 45.7689C116.838 45.4931 116.683 45.119 116.683 44.7289V42.5418C116.683 41.6929 116.346 40.8788 115.746 40.2785C115.146 39.6783 114.331 39.3411 113.483 39.3411H111.295C110.905 39.3411 110.531 39.1861 110.255 38.9103C109.98 38.6345 109.825 38.2603 109.825 37.8702V35.6831C109.825 34.8342 109.487 34.0201 108.887 33.4199C108.287 32.8196 107.473 32.4824 106.624 32.4824H99.308C98.4591 32.4824 97.645 32.8196 97.0447 33.4199C96.4445 34.0201 96.1072 34.8342 96.1072 35.6831V37.8702C96.1072 38.2603 95.9523 38.6345 95.6765 38.9103C95.4006 39.1861 95.0265 39.3411 94.6364 39.3411H92.4493C91.6004 39.3411 90.7863 39.6783 90.186 40.2785C89.5858 40.8788 89.2486 41.6929 89.2486 42.5418V44.7289C89.2486 45.119 89.0936 45.4931 88.8178 45.7689C88.542 46.0448 88.1679 46.1998 87.7778 46.1998H77.002C76.8089 46.1998 76.6176 46.1617 76.4392 46.0877C76.2607 46.0138 76.0986 45.9055 75.962 45.7689C75.8255 45.6324 75.7171 45.4703 75.6432 45.2918C75.5693 45.1134 75.5312 44.9221 75.5312 44.7289V42.5418C75.5312 41.6929 75.194 40.8788 74.5938 40.2785C73.9935 39.6783 73.1794 39.3411 72.3305 39.3411H70.1434C69.9502 39.3411 69.759 39.303 69.5805 39.2291C69.4021 39.1552 69.2399 39.0469 69.1034 38.9103C68.9668 38.7737 68.8585 38.6116 68.7845 38.4331C68.7106 38.2547 68.6726 38.0634 68.6726 37.8702V35.6831C68.6726 34.8342 68.3354 34.0201 67.7351 33.4199C67.1349 32.8196 66.3207 32.4824 65.4719 32.4824H58.156C57.3071 32.4824 56.493 32.8196 55.8927 33.4199C55.2925 34.0201 54.9553 34.8342 54.9553 35.6831V37.8702C54.9553 38.2603 54.8003 38.6345 54.5245 38.9103C54.2486 39.1861 53.8745 39.3411 53.4844 39.3411H51.2973C50.877 39.3411 50.4608 39.4239 50.0724 39.5847C49.6841 39.7456 49.3313 39.9813 49.0341 40.2785C48.7368 40.5757 48.5011 40.9286 48.3402 41.317C48.1794 41.7053 48.0966 42.1214 48.0966 42.5418V44.7289C48.0966 45.119 47.9416 45.4931 47.6658 45.7689C47.39 46.0448 47.0159 46.1998 46.6258 46.1998H35.8501C35.46 46.1998 35.0859 46.0448 34.81 45.7689C34.5342 45.4931 34.3793 45.119 34.3793 44.7289V42.5418C34.3793 41.6929 34.042 40.8788 33.4418 40.2785C32.8415 39.6783 32.0274 39.3411 31.1785 39.3411H28.9914C28.6013 39.3411 28.2272 39.1861 27.9514 38.9103C27.6756 38.6345 27.5206 38.2603 27.5206 37.8702V35.6831C27.5206 34.8342 27.1834 34.0201 26.5831 33.4199C25.9829 32.8196 25.1688 32.4824 24.3199 32.4824H17.004C16.1551 32.4824 15.341 32.8196 14.7407 33.4199C14.1405 34.0201 13.8033 34.8342 13.8033 35.6831V37.8702C13.8033 38.2603 13.6483 38.6345 13.3725 38.9103C13.0967 39.1861 12.7226 39.3411 12.3325 39.3411H10.1453C9.29642 39.3411 8.4823 39.6783 7.88205 40.2785C7.28181 40.8788 6.9446 41.6929 6.9446 42.5418V44.7289C6.9446 45.119 6.78965 45.4931 6.51382 45.7689C6.23799 46.0448 5.86389 46.1998 5.47381 46.1998H3.28663C2.43775 46.1998 1.62364 46.5369 1.02339 47.1372C0.42314 47.7374 0.0859375 48.5515 0.0859375 49.4004V49.8576C0.0859375 50.7065 0.42314 51.5206 1.02339 52.1209C1.62364 52.7211 2.43775 53.0584 3.28663 53.0584H3.74388C4.59276 53.0584 5.40688 52.7211 6.00713 52.1209C6.60738 51.5206 6.9446 50.7065 6.9446 49.8576V47.6648C6.9446 47.2747 7.09956 46.9006 7.37539 46.6248C7.65121 46.349 8.02532 46.194 8.4154 46.194H10.6025C11.0229 46.194 11.4391 46.1112 11.8274 45.9503C12.2157 45.7895 12.5686 45.5538 12.8658 45.2566C13.163 44.9593 13.3988 44.6065 13.5596 44.2182C13.7205 43.8299 13.8033 43.4136 13.8033 42.9933V40.8062C13.8033 40.4161 13.9582 40.042 14.234 39.7661C14.5099 39.4903 14.884 39.3353 15.2741 39.3353H26.0498C26.2429 39.3353 26.4342 39.3734 26.6126 39.4473C26.7911 39.5212 26.9532 39.6295 27.0898 39.7661C27.2264 39.9027 27.3347 40.0649 27.4086 40.2434C27.4826 40.4218 27.5206 40.613 27.5206 40.8062V42.9933C27.5206 43.4136 27.6034 43.8299 27.7642 44.2182C27.9251 44.6065 28.1608 44.9593 28.458 45.2566C28.7553 45.5538 29.1081 45.7895 29.4964 45.9503C29.8848 46.1112 30.301 46.194 30.7213 46.194H32.9085C33.1016 46.194 33.2929 46.2321 33.4713 46.306C33.6497 46.3799 33.8119 46.4882 33.9485 46.6248C34.0851 46.7614 34.1934 46.9236 34.2673 47.102C34.3412 47.2805 34.3793 47.4717 34.3793 47.6648V49.852C34.3793 50.7009 34.7165 51.515 35.3167 52.1152C35.917 52.7155 36.7311 53.0526 37.58 53.0526H44.8959C45.7448 53.0526 46.5589 52.7155 47.1591 52.1152C47.7594 51.515 48.0966 50.7009 48.0966 49.852V47.6648C48.0966 47.2747 48.2515 46.9006 48.5274 46.6248C48.8032 46.349 49.1773 46.194 49.5674 46.194H51.7545C52.1749 46.194 52.5911 46.1112 52.9794 45.9503C53.3677 45.7895 53.7206 45.5538 54.0178 45.2566C54.315 44.9593 54.5508 44.6065 54.7116 44.2182C54.8725 43.8299 54.9553 43.4136 54.9553 42.9933V40.8062C54.9553 40.613 54.9933 40.4218 55.0672 40.2434C55.1411 40.0649 55.2495 39.9027 55.386 39.7661C55.5226 39.6295 55.6847 39.5212 55.8632 39.4473C56.0416 39.3734 56.2329 39.3353 56.4261 39.3353H67.2018C67.5919 39.3353 67.966 39.4903 68.2418 39.7661C68.5176 40.042 68.6726 40.4161 68.6726 40.8062V42.9933C68.6726 43.4136 68.7554 43.8299 68.9162 44.2182C69.0771 44.6065 69.3128 44.9593 69.61 45.2566C69.9073 45.5538 70.2601 45.7895 70.6484 45.9503C71.0368 46.1112 71.453 46.194 71.8733 46.194H74.0604C74.4505 46.194 74.8246 46.349 75.1005 46.6248C75.3763 46.9006 75.5312 47.2747 75.5312 47.6648V49.852C75.5312 50.7009 75.8685 51.515 76.4687 52.1152C77.069 52.7155 77.8831 53.0526 78.732 53.0526H86.0479C86.8967 53.0526 87.7109 52.7155 88.3111 52.1152C88.9114 51.515 89.2486 50.7009 89.2486 49.852V47.6648C89.2486 47.2747 89.4035 46.9006 89.6794 46.6248C89.9552 46.349 90.3293 46.194 90.7194 46.194H92.9065C93.3269 46.194 93.7431 46.1112 94.1314 45.9503C94.5197 45.7895 94.8726 45.5538 95.1698 45.2566C95.467 44.9593 95.7027 44.6065 95.8636 44.2182C96.0244 43.8299 96.1072 43.4136 96.1072 42.9933V40.8062C96.1072 40.4161 96.2622 40.042 96.538 39.7661C96.8139 39.4903 97.188 39.3353 97.578 39.3353H108.354C108.547 39.3353 108.738 39.3734 108.917 39.4473C109.095 39.5212 109.257 39.6295 109.394 39.7661C109.53 39.9027 109.639 40.0649 109.713 40.2434C109.787 40.4218 109.825 40.613 109.825 40.8062V42.9933C109.825 43.4136 109.907 43.8299 110.068 44.2182C110.229 44.6065 110.465 44.9593 110.762 45.2566C111.059 45.5538 111.412 45.7895 111.8 45.9503C112.189 46.1112 112.605 46.194 113.025 46.194H115.212C115.406 46.194 115.597 46.2321 115.775 46.306C115.954 46.3799 116.116 46.4882 116.252 46.6248C116.389 46.7614 116.497 46.9236 116.571 47.102C116.645 47.2805 116.683 47.4717 116.683 47.6648V49.852C116.683 50.7009 117.02 51.515 117.621 52.1152C118.221 52.7155 119.035 53.0526 119.884 53.0526H120.341C121.19 53.0526 122.004 52.7155 122.604 52.1152C123.205 51.515 123.542 50.7009 123.542 49.852V49.3947C123.54 48.5482 123.204 47.7366 122.605 47.1378C122.007 46.539 121.195 46.2018 120.349 46.1998Z" fill="white"/>
<path d="M120.443 78.6841H118.256C118.062 78.6841 117.871 78.646 117.693 78.5721C117.514 78.4982 117.352 78.3899 117.216 78.2533C117.079 78.1167 116.971 77.9546 116.897 77.7762C116.823 77.5977 116.785 77.4064 116.785 77.2133V75.0261C116.785 74.1773 116.448 73.3631 115.847 72.7629C115.247 72.1626 114.433 71.8255 113.584 71.8255H111.397C111.204 71.8255 111.013 71.7874 110.834 71.7135C110.656 71.6395 110.494 71.5312 110.357 71.3947C110.22 71.2581 110.112 71.096 110.038 70.9175C109.964 70.7391 109.926 70.5478 109.926 70.3546V68.1675C109.926 67.3186 109.589 66.5045 108.989 65.9042C108.388 65.304 107.574 64.9668 106.725 64.9668H99.4095C98.5606 64.9668 97.7465 65.304 97.1463 65.9042C96.546 66.5045 96.2088 67.3186 96.2088 68.1675V70.3546C96.2088 70.5478 96.1708 70.7391 96.0968 70.9175C96.0229 71.096 95.9146 71.2581 95.778 71.3947C95.6414 71.5312 95.4793 71.6395 95.3008 71.7135C95.1224 71.7874 94.9312 71.8255 94.738 71.8255H92.5508C91.702 71.8255 90.8879 72.1626 90.2876 72.7629C89.6874 73.3631 89.3501 74.1773 89.3501 75.0261V77.2133C89.3501 77.4064 89.3121 77.5977 89.2382 77.7762C89.1643 77.9546 89.0559 78.1167 88.9194 78.2533C88.7828 78.3899 88.6206 78.4982 88.4422 78.5721C88.2637 78.646 88.0725 78.6841 87.8793 78.6841H77.1036C76.9105 78.6841 76.7192 78.646 76.5408 78.5721C76.3623 78.4982 76.2002 78.3899 76.0636 78.2533C75.927 78.1167 75.8187 77.9546 75.7448 77.7762C75.6709 77.5977 75.6328 77.4064 75.6328 77.2133V75.0261C75.6328 74.1773 75.2956 73.3631 74.6953 72.7629C74.0951 72.1626 73.281 71.8255 72.4321 71.8255H70.2449C70.0518 71.8255 69.8605 71.7874 69.6821 71.7135C69.5036 71.6395 69.3415 71.5312 69.2049 71.3947C69.0684 71.2581 68.96 71.096 68.8861 70.9175C68.8122 70.7391 68.7741 70.5478 68.7741 70.3546V68.1675C68.7741 67.3186 68.4369 66.5045 67.8367 65.9042C67.2364 65.304 66.4223 64.9668 65.5734 64.9668H58.2575C57.4086 64.9668 56.5945 65.304 55.9943 65.9042C55.394 66.5045 55.0568 67.3186 55.0568 68.1675V70.3546C55.0568 70.5478 55.0188 70.7391 54.9449 70.9175C54.8709 71.096 54.7626 71.2581 54.626 71.3947C54.4895 71.5312 54.3273 71.6395 54.1489 71.7135C53.9704 71.7874 53.7792 71.8255 53.586 71.8255H51.3989C50.55 71.8255 49.7359 72.1626 49.1356 72.7629C48.5354 73.3631 48.1982 74.1773 48.1982 75.0261V77.2133C48.1982 77.4064 48.1601 77.5977 48.0862 77.7762C48.0123 77.9546 47.9039 78.1167 47.7674 78.2533C47.6308 78.3899 47.4686 78.4982 47.2902 78.5721C47.1117 78.646 46.9205 78.6841 46.7273 78.6841H35.9516C35.7585 78.6841 35.5672 78.646 35.3888 78.5721C35.2103 78.4982 35.0482 78.3899 34.9116 78.2533C34.775 78.1167 34.6667 77.9546 34.5928 77.7762C34.5189 77.5977 34.4808 77.4064 34.4808 77.2133V75.0261C34.4808 74.1773 34.1436 73.3631 33.5434 72.7629C32.9431 72.1626 32.129 71.8255 31.2801 71.8255H29.093C28.8998 71.8255 28.7085 71.7874 28.5301 71.7135C28.3517 71.6395 28.1895 71.5312 28.0529 71.3947C27.9164 71.2581 27.808 71.096 27.7341 70.9175C27.6602 70.7391 27.6222 70.5478 27.6222 70.3546V68.1675C27.6222 67.3186 27.2849 66.5045 26.6847 65.9042C26.0844 65.304 25.2703 64.9668 24.4214 64.9668H17.1055C16.2566 64.9668 15.4425 65.304 14.8423 65.9042C14.242 66.5045 13.9048 67.3186 13.9048 68.1675V70.3546C13.9048 70.5478 13.8668 70.7391 13.7929 70.9175C13.719 71.096 13.6106 71.2581 13.474 71.3947C13.3374 71.5312 13.1753 71.6395 12.9969 71.7135C12.8184 71.7874 12.6272 71.8255 12.434 71.8255H10.2469C9.39798 71.8255 8.58387 72.1626 7.98362 72.7629C7.38337 73.3631 7.04617 74.1773 7.04617 75.0261V77.2133C7.04617 77.4064 7.00812 77.5977 6.93421 77.7762C6.86029 77.9546 6.75194 78.1167 6.61536 78.2533C6.47878 78.3899 6.31665 78.4982 6.1382 78.5721C5.95976 78.646 5.76849 78.6841 5.57535 78.6841H3.3882C2.53932 78.6841 1.7252 79.0213 1.12495 79.6216C0.524703 80.2218 0.1875 81.0359 0.1875 81.8848V82.342C0.1875 83.1909 0.524703 84.005 1.12495 84.6053C1.7252 85.2055 2.53932 85.5428 3.3882 85.5428H3.84545C4.69433 85.5428 5.50844 85.2055 6.10869 84.6053C6.70894 84.005 7.04617 83.1909 7.04617 82.342V80.1549C7.04617 79.7648 7.20112 79.3908 7.47695 79.1149C7.75278 78.8391 8.12688 78.6841 8.51696 78.6841H10.7041C11.553 78.6841 12.3671 78.3469 12.9674 77.7466C13.5676 77.1464 13.9048 76.3322 13.9048 75.4834V73.2962C13.9048 72.9061 14.0598 72.5321 14.3356 72.2563C14.6114 71.9804 14.9855 71.8255 15.3756 71.8255H26.1513C26.5414 71.8255 26.9155 71.9804 27.1914 72.2563C27.4672 72.5321 27.6222 72.9061 27.6222 73.2962V75.4815C27.6222 76.3304 27.9594 77.1445 28.5596 77.7447C29.1599 78.345 29.974 78.6822 30.8229 78.6822H33.01C33.4001 78.6822 33.7742 78.8371 34.05 79.113C34.3259 79.3888 34.4808 79.7629 34.4808 80.153V82.3402C34.4808 83.189 34.818 84.0032 35.4183 84.6034C36.0185 85.2037 36.8326 85.5408 37.6815 85.5408H44.9974C45.8463 85.5408 46.6604 85.2037 47.2607 84.6034C47.8609 84.0032 48.1982 83.189 48.1982 82.3402V80.153C48.1982 79.7629 48.3531 79.3888 48.6289 79.113C48.9048 78.8371 49.2789 78.6822 49.669 78.6822H51.8561C52.705 78.6822 53.5191 78.345 54.1193 77.7447C54.7196 77.1445 55.0568 76.3304 55.0568 75.4815V73.2944C55.0568 72.9043 55.2118 72.5301 55.4876 72.2543C55.7634 71.9785 56.1375 71.8235 56.5276 71.8235H67.3033C67.4965 71.8235 67.6877 71.8616 67.8662 71.9355C68.0446 72.0094 68.2068 72.1177 68.3434 72.2543C68.4799 72.3909 68.5883 72.5531 68.6622 72.7315C68.7361 72.91 68.7741 73.1012 68.7741 73.2944V75.4815C68.7741 76.3304 69.1114 77.1445 69.7116 77.7447C70.3119 78.345 71.126 78.6822 71.9749 78.6822H74.162C74.5521 78.6822 74.9262 78.8371 75.202 79.113C75.4779 79.3888 75.6328 79.7629 75.6328 80.153V82.3402C75.6328 83.189 75.97 84.0032 76.5703 84.6034C77.1705 85.2037 77.9846 85.5408 78.8335 85.5408H86.1494C86.9983 85.5408 87.8124 85.2037 88.4127 84.6034C89.0129 84.0032 89.3501 83.189 89.3501 82.3402V80.153C89.3501 79.7629 89.5051 79.3888 89.7809 79.113C90.0568 78.8371 90.4309 78.6822 90.8209 78.6822H93.0081C93.857 78.6822 94.6711 78.345 95.2713 77.7447C95.8716 77.1445 96.2088 76.3304 96.2088 75.4815V73.2944C96.2088 72.9043 96.3638 72.5301 96.6396 72.2543C96.9154 71.9785 97.2895 71.8235 97.6796 71.8235H108.455C108.845 71.8235 109.22 71.9785 109.495 72.2543C109.771 72.5301 109.926 72.9043 109.926 73.2944V75.4815C109.926 76.3304 110.263 77.1445 110.864 77.7447C111.464 78.345 112.278 78.6822 113.127 78.6822H115.314C115.704 78.6822 116.078 78.8371 116.354 79.113C116.63 79.3888 116.785 79.7629 116.785 80.153V82.3402C116.785 83.189 117.122 84.0032 117.722 84.6034C118.323 85.2037 119.137 85.5408 119.986 85.5408H120.443C121.292 85.5408 122.106 85.2037 122.706 84.6034C123.306 84.0032 123.643 83.189 123.643 82.3402V81.8829C123.643 81.0344 123.306 80.2207 122.705 79.6209C122.105 79.0211 121.291 78.6841 120.443 78.6841Z" fill="white"/>
</g>
<defs>
<clipPath id="clip0_2811_25591">
<rect width="123.646" height="85.5428" fill="white"/>
</clipPath>
</defs>
</svg>
