<svg width="20" height="20" viewBox="0 0 20 20" fill="none" xmlns="http://www.w3.org/2000/svg">
<rect x="4" y="4" width="11" height="11" fill="#42A4DC"/>
<path fill-rule="evenodd" clip-rule="evenodd" d="M13.3358 8.89C13.1373 8.89464 12.9397 8.85953 12.7549 8.78673C12.5701 8.71393 12.4017 8.60491 12.2597 8.46609C12.1176 8.32726 12.0047 8.16143 11.9277 7.97835C11.8506 7.79527 11.811 7.59862 11.811 7.39999C11.8111 7.20135 11.8508 7.00474 11.928 6.8217C12.0051 6.63866 12.1181 6.47289 12.2603 6.33414C12.4024 6.1954 12.5709 6.08647 12.7557 6.01378C12.9406 5.94108 13.1381 5.90608 13.3367 5.91083C13.7256 5.92014 14.0955 6.08122 14.3673 6.35965C14.639 6.63807 14.7911 7.01175 14.791 7.40082C14.7909 7.78989 14.6386 8.16349 14.3667 8.44176C14.0948 8.72004 13.7248 8.88091 13.3358 8.89ZM11.8992 13.9833H6.87917C6.70218 13.9836 6.52839 13.9361 6.37608 13.846C6.22377 13.7558 6.09857 13.6263 6.01364 13.471C5.92871 13.3157 5.88718 13.1404 5.89344 12.9635C5.89969 12.7867 5.95348 12.6147 6.04917 12.4658L8.56 8.55333C8.6491 8.41415 8.77178 8.29962 8.91675 8.22029C9.06172 8.14096 9.22433 8.09939 9.38958 8.09939C9.55484 8.09939 9.71744 8.14096 9.86241 8.22029C10.0074 8.29962 10.1301 8.41415 10.2192 8.55333L12.7283 12.4658C12.824 12.6147 12.8778 12.7865 12.8841 12.9633C12.8903 13.1401 12.8489 13.3154 12.7641 13.4706C12.6792 13.6259 12.5541 13.7554 12.402 13.8456C12.2498 13.9359 12.0761 13.9834 11.8992 13.9833ZM16.0725 1.875H3.9275C3.38314 1.875 2.86108 2.09124 2.47616 2.47616C2.09124 2.86108 1.875 3.38314 1.875 3.9275V16.0725C1.875 16.6169 2.09124 17.1389 2.47616 17.5238C2.86108 17.9088 3.38314 18.125 3.9275 18.125H16.0725C16.6169 18.125 17.1389 17.9088 17.5238 17.5238C17.9088 17.1389 18.125 16.6169 18.125 16.0725V3.9275C18.125 3.38314 17.9088 2.86108 17.5238 2.47616C17.1389 2.09124 16.6169 1.875 16.0725 1.875Z" fill="#8CD5FE"/>
</svg>
