<svg width="25" height="24" viewBox="0 0 25 24" fill="none" xmlns="http://www.w3.org/2000/svg">
<path d="M12.7227 6.88461C13.5547 6.88461 14.5977 6.30483 15.2188 5.53179C15.7812 4.83121 16.1914 3.85283 16.1914 2.87444C16.1914 2.74158 16.1797 2.60871 16.1562 2.5C15.2305 2.53624 14.1172 3.14018 13.4492 3.94946C12.9219 4.56548 12.4414 5.53179 12.4414 6.52225C12.4414 6.6672 12.4648 6.81214 12.4766 6.86046C12.5352 6.87254 12.6289 6.88461 12.7227 6.88461ZM9.79297 21.5C10.9297 21.5 11.4336 20.7149 12.8516 20.7149C14.293 20.7149 14.6094 21.4758 15.875 21.4758C17.1172 21.4758 17.9492 20.2921 18.7344 19.1325C19.6133 17.8039 19.9766 16.4994 20 16.439C19.918 16.4148 17.5391 15.4123 17.5391 12.5979C17.5391 10.158 19.4141 9.0588 19.5195 8.97425C18.2773 7.13827 16.3906 7.08996 15.875 7.08996C14.4805 7.08996 13.3438 7.95963 12.6289 7.95963C11.8555 7.95963 10.8359 7.13827 9.62891 7.13827C7.33203 7.13827 5 9.09504 5 12.7912C5 15.0861 5.86719 17.514 6.93359 19.0842C7.84766 20.4129 8.64453 21.5 9.79297 21.5Z" fill="black"/>
</svg>
