<svg width="280" height="151" viewBox="0 0 280 151" fill="none" xmlns="http://www.w3.org/2000/svg">
<g clip-path="url(#clip0_6375_46817)">
<path d="M211.984 88.6408L210.063 88.0347C207.664 87.2727 206.191 84.8717 206.603 82.3914C207.072 79.5192 205.369 76.7462 202.592 75.8696L188.177 71.3208C185.4 70.4442 182.413 71.7383 181.152 74.3664C180.062 76.6296 177.478 77.7499 175.075 76.997L167.478 74.5978C164.128 73.5366 160.564 75.4002 159.502 78.7505L151.426 104.351C150.365 107.701 152.228 111.265 155.579 112.327L200.093 126.373C203.444 127.435 207.008 125.571 208.065 122.23L216.142 96.6292C217.203 93.2789 215.339 89.7149 211.989 88.6536L211.984 88.6408Z" fill="#D9D9D9" stroke="#242427" stroke-width="2" stroke-linecap="round" stroke-linejoin="round"/>
<path d="M188.602 113.349C196.362 112.625 202.067 105.747 201.343 97.9867C200.62 90.2261 193.742 84.5215 185.981 85.2451C178.221 85.9686 172.516 92.8464 173.24 100.607C173.963 108.367 180.841 114.072 188.602 113.349Z" fill="#08005C" stroke="#242427" stroke-width="2" stroke-linecap="round" stroke-linejoin="round"/>
<path d="M188.602 113.349C196.362 112.625 202.067 105.747 201.343 97.9867C200.62 90.2261 193.742 84.5215 185.981 85.2451C178.221 85.9686 172.516 92.8464 173.24 100.607C173.963 108.367 180.841 114.072 188.602 113.349Z" fill="#EFEFEF" stroke="#242427" stroke-width="2" stroke-linecap="round" stroke-linejoin="round"/>
<path d="M188.166 108.794C193.434 108.313 197.315 103.653 196.834 98.3843C196.353 93.1159 191.692 89.235 186.424 89.716C181.156 90.197 177.275 94.8578 177.756 100.126C178.237 105.395 182.897 109.275 188.166 108.794Z" fill="#242427"/>
<path d="M208.612 98.0608C209.951 98.617 211.488 97.9822 212.044 96.6429C212.6 95.3036 211.966 93.767 210.626 93.2108C209.287 92.6545 207.75 93.2893 207.194 94.6286C206.638 95.9679 207.273 97.5046 208.612 98.0608Z" fill="#D9D9D9" stroke="#242427" stroke-width="2" stroke-linecap="round" stroke-linejoin="round"/>
<path d="M171.248 80.7749L162.212 109.406" stroke="#242427" stroke-width="2" stroke-linecap="round" stroke-linejoin="round"/>
<path d="M167.472 74.585L172.68 76.2259L173.257 74.3997C173.574 73.3811 173.016 72.2871 171.989 71.9668L169.766 71.2673C168.747 70.9507 167.653 71.508 167.333 72.5357L166.746 74.4111C166.983 74.4562 167.225 74.5142 167.459 74.5903L167.472 74.585Z" fill="#EFEFEF" stroke="#242427" stroke-width="2" stroke-linecap="round" stroke-linejoin="round"/>
<path d="M221.592 71.7014C221.607 71.4112 221.985 71.31 222.143 71.5537L224.242 74.7854C224.313 74.8944 224.446 74.9454 224.571 74.9118L228.293 73.9145C228.574 73.8392 228.787 74.1672 228.604 74.393L226.179 77.3877C226.097 77.4887 226.09 77.6308 226.161 77.7398L228.259 80.9716C228.417 81.2153 228.171 81.5192 227.9 81.415L224.303 80.0341C224.181 79.9875 224.044 80.0244 223.962 80.1254L221.537 83.12C221.354 83.3459 220.989 83.2057 221.004 82.9155L221.206 79.0674C221.213 78.9376 221.135 78.8182 221.014 78.7716L217.416 77.3907C217.145 77.2866 217.166 76.8961 217.446 76.8209L221.168 75.8235C221.294 75.7899 221.383 75.6793 221.39 75.5495L221.592 71.7014Z" fill="#D9D9D9"/>
<path d="M160 125.947L164 127.211M164 127.211L161.6 131M164 127.211L166.8 131M164 127.211L168 125.947M164 127.211V123" stroke="#EFEFEF" stroke-width="1.46" stroke-linecap="round" stroke-linejoin="round"/>
<path d="M142 78.9474L146 80.2105M146 80.2105L143.6 84M146 80.2105L148.8 84M146 80.2105L150 78.9474M146 80.2105V76" stroke="#EFEFEF" stroke-width="1.46" stroke-linecap="round" stroke-linejoin="round"/>
<path fill-rule="evenodd" clip-rule="evenodd" d="M72.0004 32.3851C72.8976 31.8638 73.9617 31.7102 74.9697 31.9565C75.4573 32.0765 75.9156 32.2937 76.3174 32.5949C76.7191 32.8962 77.0559 33.2754 77.3076 33.7099L129 123.235C129.25 123.671 129.41 124.154 129.468 124.653C129.527 125.153 129.485 125.659 129.343 126.142C129.203 126.635 128.968 127.096 128.65 127.497C128.329 127.902 127.935 128.244 127.488 128.503C127.042 128.762 126.55 128.931 126.039 129.002C125.532 129.077 125.015 129.051 124.519 128.924C124.028 128.806 123.566 128.588 123.163 128.285C122.762 127.986 122.426 127.609 122.173 127.178L70.4963 37.6453C70.2439 37.2129 70.0846 36.7324 70.0287 36.2348C69.9662 35.7333 70.006 35.2243 70.1456 34.7386C70.4411 33.7502 71.1052 32.9133 72.0004 32.4007V32.3851Z" fill="white" stroke="#242427" stroke-width="2" stroke-linecap="round" stroke-linejoin="round"/>
<path d="M84.7129 35.5134C81.1403 36.1084 77.6937 37.3121 74.52 39.073C74.2407 39.2454 73.9986 39.4728 73.808 39.7417C73.6174 40.0105 73.4823 40.3154 73.4107 40.6381C73.3391 40.9607 73.3324 41.2947 73.3912 41.62C73.4499 41.9454 73.5727 42.2554 73.7525 42.5318L98.6283 86.1003C98.9145 86.5797 99.3735 86.9284 99.9088 87.073C100.444 87.2176 101.014 87.1469 101.499 86.8758C109.788 82.2693 113.419 84.2546 122.783 78.7872C132.807 72.9398 140.144 59.5777 149.838 53.9164C156.408 50.0854 164.943 48.3715 170.032 47.8519C170.28 47.823 170.517 47.7335 170.723 47.5911C170.929 47.4486 171.098 47.2576 171.214 47.0346C171.33 46.8115 171.391 46.5631 171.391 46.311C171.391 46.0588 171.33 45.8104 171.214 45.5874L146.047 1.51479C145.761 1.01332 145.341 0.604394 144.834 0.336007C144.314 0.0638701 143.727 -0.0467675 143.145 0.018046C120.372 2.15847 114.746 12.9149 105.475 22.508C99.5723 28.6268 93.8388 33.2334 84.7129 35.5134Z" fill="#D9D9D9" stroke="#242427" stroke-width="2" stroke-linecap="round" stroke-linejoin="round"/>
<path d="M119.616 23.0348C114.982 24.3479 110.704 26.7292 107.109 29.9961L106.344 30.8643C104.38 32.9312 103.129 35.5964 102.78 38.4561C102.43 41.3158 103.002 44.2139 104.409 46.7112L107.469 52.0691C108.866 54.5444 111.006 56.4936 113.572 57.6277C116.137 58.7618 118.992 59.0206 121.712 58.3656L123.043 60.7121C123.201 61.0079 123.416 61.2678 123.675 61.476C123.934 61.6842 124.232 61.8365 124.55 61.9235C124.869 62.0106 125.201 62.0306 125.527 61.9824C125.853 61.9341 126.166 61.8186 126.448 61.6429L127.977 60.7356L125.973 56.4492L126.738 55.9956L129.362 59.9065L132.751 57.9041L130.747 53.6256L131.512 53.1719L134.128 57.0828L135.52 56.3006C135.809 56.1392 136.063 55.9194 136.267 55.6546C136.471 55.3897 136.62 55.0853 136.705 54.7598C136.79 54.4343 136.809 54.0945 136.762 53.7611C136.715 53.4276 136.602 53.1074 136.43 52.82L135.183 50.6142C137.097 48.5318 138.304 45.8742 138.625 43.0354C138.946 40.1966 138.364 37.3275 136.966 34.8534L133.852 29.3782C132.513 26.8469 130.384 24.8469 127.804 23.6972C125.224 22.5475 122.341 22.3143 119.616 23.0348Z" fill="white" stroke="#242427" stroke-width="2" stroke-linecap="round" stroke-linejoin="round"/>
<path d="M128.535 42.1251L128.064 42.3983C127.225 42.8775 126.229 43.007 125.293 42.7583C124.358 42.5097 123.56 41.9032 123.073 41.0712L121.503 38.3936C121.022 37.5588 120.894 36.5685 121.145 35.6395C121.397 34.7105 122.008 33.9184 122.845 33.4366L123.316 33.1634C124.156 32.6842 125.152 32.5547 126.087 32.8033C127.022 33.052 127.82 33.6585 128.307 34.4905L129.767 37.0119C130.028 37.4269 130.203 37.8894 130.283 38.3725C130.362 38.8556 130.344 39.3496 130.229 39.8256C130.115 40.3016 129.906 40.7501 129.615 41.1449C129.324 41.5397 128.957 41.8729 128.535 42.1251ZM118.576 47.8471L118.097 48.1203C117.259 48.5971 116.264 48.7252 115.331 48.4766C114.398 48.2281 113.601 47.6231 113.114 46.7932L111.544 44.1157C111.063 43.2818 110.933 42.2922 111.183 41.3633C111.433 40.4344 112.043 39.6417 112.879 39.1587L113.357 38.8854C114.196 38.4065 115.19 38.2773 116.124 38.526C117.058 38.7747 117.855 39.381 118.341 40.2125L119.808 42.7261C120.068 43.142 120.243 43.6051 120.322 44.0886C120.401 44.5721 120.382 45.0663 120.268 45.5427C120.153 46.0191 119.945 46.468 119.654 46.8636C119.364 47.2592 118.997 47.5935 118.576 47.8471Z" fill="white" stroke="#242427" stroke-width="2" stroke-linecap="round" stroke-linejoin="round"/>
<path d="M118.798 46.3996L118.515 46.566C118.221 46.741 117.896 46.855 117.558 46.9014C117.221 46.9479 116.877 46.9258 116.548 46.8365C116.219 46.7472 115.91 46.5924 115.641 46.3813C115.372 46.1702 115.148 45.907 114.981 45.6071L113.928 43.7447C113.755 43.4485 113.642 43.1204 113.596 42.7795C113.55 42.4387 113.572 42.092 113.66 41.7598C113.749 41.4277 113.902 41.1167 114.111 40.8451C114.32 40.5735 114.581 40.3468 114.878 40.1783L115.161 40.0198C115.454 39.8435 115.779 39.7281 116.116 39.6805C116.454 39.6329 116.798 39.6541 117.127 39.7427C117.457 39.8314 117.765 39.9857 118.035 40.1966C118.304 40.4076 118.529 40.6708 118.695 40.9708L119.826 42.9521C120.612 44.022 120.054 45.6626 118.798 46.3996ZM126.495 41.9139L126.22 42.0804C125.926 42.2553 125.601 42.3693 125.263 42.4158C124.925 42.4622 124.582 42.4401 124.253 42.3508C123.923 42.2615 123.615 42.1067 123.346 41.8956C123.077 41.6845 122.852 41.4213 122.685 41.1214L121.633 39.2828C121.458 38.9869 121.345 38.6587 121.298 38.3176C121.251 37.9766 121.273 37.6295 121.362 37.2971C121.45 36.9646 121.604 36.6534 121.814 36.3819C122.024 36.1104 122.285 35.8841 122.583 35.7164L122.858 35.5579C123.151 35.3816 123.476 35.2662 123.813 35.2186C124.151 35.171 124.495 35.1922 124.824 35.2808C125.154 35.3695 125.462 35.5238 125.731 35.7347C126.001 35.9457 126.226 36.2089 126.392 36.509L127.523 38.4903C127.835 39.0823 127.902 39.7748 127.709 40.4164C127.516 41.0579 127.08 41.5964 126.495 41.9139Z" fill="#242427"/>
<path d="M125.968 44.9195L124.142 44.4697C123.972 44.418 123.792 44.4002 123.615 44.4176C123.437 44.435 123.265 44.4871 123.111 44.5706C122.956 44.6541 122.822 44.7671 122.718 44.9021C122.613 45.0371 122.54 45.1912 122.504 45.3541L122.013 47.0467C121.959 47.2054 121.941 47.373 121.961 47.5385C121.981 47.704 122.038 47.8638 122.128 48.0075C122.218 48.1513 122.34 48.2758 122.485 48.3729C122.63 48.4701 122.796 48.5378 122.971 48.5716C123.316 48.6385 123.676 48.5899 123.986 48.4343L126.295 47.1916C126.623 47.0162 126.696 46.7722 126.926 46.4292C126.977 46.2714 126.993 46.1054 126.972 45.9417C126.951 45.778 126.893 45.6201 126.803 45.4782C126.713 45.3362 126.592 45.2132 126.448 45.1171C126.305 45.0209 126.141 44.9536 125.968 44.9195Z" fill="white" stroke="#242427" stroke-width="2" stroke-linecap="round" stroke-linejoin="round"/>
<path d="M90.4277 96.1008L89.9844 101.833L84.0643 98.4919L84.5076 92.7597L90.4277 96.1008Z" fill="#D9D9D9"/>
<path d="M59.3995 85.5027C59.2598 84.8941 59.9803 84.4623 60.4511 84.8724L62.4059 86.5756C62.6164 86.759 62.9211 86.786 63.1606 86.6425L65.3844 85.3097C65.92 84.9887 66.5533 85.5406 66.3087 86.115L65.293 88.5004C65.1836 88.7573 65.2521 89.0554 65.4626 89.2388L67.4174 90.942C67.8881 91.3521 67.559 92.125 66.9371 92.0699L64.3546 91.841C64.0765 91.8164 63.8141 91.9736 63.7047 92.2305L62.689 94.6159C62.4444 95.1904 61.6076 95.1162 61.4678 94.5077L60.8875 91.9809C60.8249 91.7087 60.5943 91.5078 60.3162 91.4831L57.7337 91.2543C57.1117 91.1991 56.9237 90.3804 57.4592 90.0594L59.6831 88.7266C59.9226 88.5831 60.0424 88.3017 59.9799 88.0295L59.3995 85.5027Z" fill="white"/>
<path d="M63.9117 115.971L66.8438 112.843M66.8438 112.843L69.0556 116.695M66.8438 112.843L71.4333 111.915M66.8438 112.843L67.5697 108.617M66.8438 112.843L63.1669 111.014" stroke="#EFEFEF" stroke-width="1.46" stroke-linecap="round" stroke-linejoin="round"/>
<path d="M77.0254 104.647C78.3223 106.65 82.495 111.298 88.8107 113.872" stroke="#EFEFEF" stroke-width="1.46" stroke-linecap="round" stroke-linejoin="round"/>
</g>
<defs>
<clipPath id="clip0_6375_46817">
<rect width="280" height="151" fill="white"/>
</clipPath>
</defs>
</svg>
