<svg width="335" height="260" viewBox="0 0 335 260" fill="none" xmlns="http://www.w3.org/2000/svg">
<path d="M147.579 80.395L139.945 80.8869C111.218 128.108 126.496 188.895 126.496 188.895L135.006 195.349L156.167 180.956L146.811 176.096C146.811 176.096 128.12 129.141 147.274 83.0807L142.965 76.5977L139.945 80.8869" fill="#EFEFEF"/>
<path d="M147.579 80.395L139.945 80.8869M139.945 80.8869C111.218 128.108 126.496 188.895 126.496 188.895L135.006 195.349L156.167 180.956L146.811 176.096C146.811 176.096 128.12 129.141 147.274 83.0807L142.965 76.5977L139.945 80.8869Z" stroke="#242427" stroke-width="1.57404" stroke-miterlimit="10"/>
<path d="M227.252 203.806C228.252 193.296 206.772 182.656 179.252 180.026C151.732 177.396 128.642 183.776 127.632 194.286C126.622 204.796 148.112 215.426 175.632 218.056C203.152 220.686 226.252 214.306 227.252 203.806Z" fill="white"/>
<path d="M229.001 245.616C228.561 245.616 228.081 245.466 227.661 245.736L226.461 246.546C227.341 247.676 228.731 247.796 229.951 247.956C231.621 248.186 233.241 248.606 234.891 248.956L236.091 250.026C235.151 251.376 233.591 251.026 232.341 251.176C215.341 252.576 198.251 252.826 181.191 252.556C172.381 252.416 163.591 251.946 154.791 251.776C148.791 251.666 140.721 252.716 135.851 248.296C135.091 247.606 135.071 246.936 135.851 246.296C136.686 245.716 137.577 245.22 138.511 244.816L135.711 243.086C113.381 245.796 90.7109 244.266 68.2809 244.156C66.9309 244.156 64.9209 244.266 63.9609 243.156C66.8209 240.306 72.4009 240.426 76.1709 239.726C79.2709 239.146 96.8409 237.366 97.0809 234.296C97.3573 231.553 97.7948 228.828 98.3909 226.136C102.391 205.956 113.881 190.916 132.391 182.026C164.771 166.436 207.391 173.136 230.221 201.976C236.008 209.306 240.21 217.758 242.561 226.796C243.46 229.946 244.079 233.168 244.411 236.426C244.471 237.236 244.691 237.806 245.731 237.936C247.521 238.156 249.311 238.196 251.091 238.446C253.261 238.746 255.461 238.896 257.651 239.166C262.881 239.816 269.351 239.806 274.001 242.526C272.251 244.956 267.001 244.526 264.181 244.846C259.691 245.296 255.181 245.276 250.681 245.506L146.001 242.936" fill="white"/>
<path d="M229.001 245.616C228.561 245.616 228.081 245.466 227.661 245.736L226.461 246.546C227.341 247.676 228.731 247.796 229.951 247.956C231.621 248.186 233.241 248.606 234.891 248.956L236.091 250.026C235.151 251.376 233.591 251.026 232.341 251.176C215.341 252.576 198.251 252.826 181.191 252.556C172.381 252.416 163.591 251.946 154.791 251.776C148.791 251.666 140.721 252.716 135.851 248.296C135.091 247.606 135.071 246.936 135.851 246.296C136.686 245.716 137.577 245.22 138.511 244.816L135.711 243.086C113.381 245.796 90.7109 244.266 68.2809 244.156C66.9309 244.156 64.9209 244.266 63.9609 243.156C66.8209 240.306 72.4009 240.426 76.1709 239.726C79.2709 239.146 96.8409 237.366 97.0809 234.296C97.3573 231.553 97.7948 228.828 98.3909 226.136C102.391 205.956 113.881 190.916 132.391 182.026C164.771 166.436 207.391 173.136 230.221 201.976C236.008 209.306 240.21 217.758 242.561 226.796C243.46 229.946 244.079 233.168 244.411 236.426C244.471 237.236 244.691 237.806 245.731 237.936C247.521 238.156 249.311 238.196 251.091 238.446C253.261 238.746 255.461 238.896 257.651 239.166C262.881 239.816 269.351 239.806 274.001 242.526C272.251 244.956 267.001 244.526 264.181 244.846C259.691 245.296 255.181 245.276 250.681 245.506L146.001 242.936" stroke="#242427" stroke-width="1.6" stroke-linecap="round" stroke-linejoin="round"/>
<ellipse cx="186.323" cy="199.768" rx="41.0472" ry="20" transform="rotate(3.93783 186.323 199.768)" fill="#D9D9D9"/>
<path d="M142.089 159.471L134.415 149.85C134.175 149.549 133.864 149.313 133.509 149.163C133.155 149.013 132.769 148.954 132.386 148.991C132.003 149.028 131.635 149.161 131.316 149.376C130.997 149.591 130.737 149.882 130.559 150.223C130.559 150.223 122.797 157.208 122.797 160.415" stroke="#242427" stroke-width="1.57404" stroke-miterlimit="10"/>
<path d="M138.666 126.199C138.666 126.199 135.282 118.634 135.282 118.614C133.973 115.663 124.047 123.809 124.047 126.199" stroke="#242427" stroke-width="1.57404" stroke-miterlimit="10"/>
<path d="M141.476 101.212C140.758 99.6578 139.715 95.5555 137.875 95.2013C136.036 94.8471 130.359 99.3725 130.359 101.212" stroke="#242427" stroke-width="1.57404" stroke-miterlimit="10"/>
<path d="M158.604 78.1871C153.351 77.3975 143.47 82.9933 140.36 85.3265L139.113 85.7721C139.435 86.5463 139.99 87.201 140.701 87.645C142.711 88.9823 161.123 101.954 161.826 100.373C162.911 98.0581 164.012 95.7783 165.072 93.4095C165.148 93.1747 165.275 92.9598 165.445 92.7804C165.614 92.601 165.822 92.4616 166.052 92.3722L166.744 93.2205C167.235 96.1103 167.302 99.0252 167.593 101.954C167.597 102.307 167.703 102.65 167.897 102.944C168.092 103.239 168.366 103.471 168.689 103.613C171.319 104.781 173.882 106.094 176.367 107.545C177.459 108.249 178.014 107.673 178.451 106.706C179.091 105.317 179.776 103.908 180.365 102.456C180.586 101.844 181.022 101.334 181.592 101.02L182.265 102.15C182.634 104.574 182.624 107.025 182.777 109.454C182.757 109.76 182.828 110.066 182.98 110.333C183.133 110.599 183.361 110.815 183.635 110.953C186.974 112.85 190.295 114.777 193.615 116.705L197.945 110.449C198.212 110.658 198.432 110.921 198.592 111.22C198.751 111.52 198.847 111.849 198.872 112.187C199.062 114.577 199.583 116.909 199.89 119.319C199.876 119.559 199.937 119.797 200.066 120C200.194 120.203 200.384 120.36 200.607 120.449C203.371 121.707 206.003 123.236 208.464 125.015C211.319 127.121 213.809 129.681 215.835 132.593C216.242 133.43 216.738 134.221 217.315 134.952L218.748 134.277C216.333 117.593 209.613 99.8698 196.429 88.7211C186.85 80.6744 174.834 76.0962 162.329 75.7277L167.449 73.2532C167.93 73.0768 168.345 72.7562 168.637 72.3353C168.835 71.876 168.884 71.3662 168.777 70.8775C168.476 68.004 168.176 65.1407 167.877 62.2877L173.649 69.933C173.777 70.1983 173.959 70.4341 174.183 70.6251C174.407 70.8162 174.668 70.9584 174.95 71.0426C175.233 71.1268 175.529 71.1511 175.821 71.114C176.114 71.0769 176.395 70.9793 176.647 70.8273L187.566 67.2762C188.641 67.0328 189.621 66.4774 190.381 65.6797C192.402 63.0433 188.748 58.6963 190.735 56.0107C192.642 58.5382 194.883 64.4094 197.734 65.5467C200.585 66.684 207.628 64.5765 210.742 64.2634C211.16 62.425 210.8 60.5285 210.85 58.6461C210.806 57.2743 210.846 55.9011 210.97 54.5342C211.016 54.2624 210.997 53.9231 211.34 53.7729L212.208 54.0928C214.535 56.5422 216.858 58.9608 219.145 61.4401C219.363 61.7366 219.662 61.9633 220.007 62.0926C220.352 62.2219 220.726 62.2482 221.086 62.1684C225.294 61.7396 229.546 62.1399 233.6 63.3466C234.011 63.4576 234.458 63.5298 234.879 63.6147L240.951 65.1059C240.968 64.7666 240.913 64.4276 240.79 64.1108C240.667 63.7941 240.479 63.5066 240.238 63.267C239.736 62.7313 239.23 62.1868 238.763 61.6344C238.297 61.082 237.706 60.4034 237.148 59.796C224.368 45.7392 207.469 37.6002 188.26 40.747C179.606 42.2358 171.354 45.5007 164.025 50.3358C160.272 52.7764 156.764 55.5742 153.55 58.69C151.227 60.8703 147.955 66.8787 145.4 68.1029L144.056 68.7354C143.501 66.7022 144.866 65.3969 145.873 63.9554L145.392 64.1816C144.485 63.4559 143.75 62.5626 142.766 61.9055C142.569 61.788 142.411 61.6142 142.313 61.4064C142.216 61.1986 142.182 60.9663 142.218 60.7394C142.378 60.1095 142.909 60.1749 143.401 60.1823L148.46 60.1179C151.278 55.4101 154.349 50.8228 156.996 46.1197C156.305 44.8358 155.054 44.3044 154.335 43.2619L153.894 42.0235C154.374 41.8046 154.913 41.7539 155.425 41.8795C156.58 42.1623 157.754 42.3707 158.867 42.7493C159.225 42.914 159.63 42.9493 160.011 42.8492C160.392 42.7491 160.727 42.5199 160.958 42.2005C162.361 40.5616 163.959 39.0594 165.366 37.4294C166.774 35.7994 168.781 34.2893 169.926 32.2394C169.515 31.7367 169.028 31.3247 168.599 30.8743C167.619 29.8564 166.236 29.181 165.761 27.7086L166.659 27.1447C169.149 27.1468 171.571 27.6709 174.028 27.7646C175.932 24.6659 178.773 22.2547 182.14 20.8813L182.821 19.8325C182.106 19.2873 181.21 19.0361 180.316 19.1303C168.3 19.0115 156.107 25.2167 147.603 33.4374C142.054 38.783 138.332 45.743 136.968 53.3267C135.677 60.6297 135.541 68.0902 136.565 75.4355C136.774 77.0116 137.453 78.6164 136.855 80.2569L135.637 79.8186C133.292 76.1608 130.731 72.6464 127.967 69.2941C119.666 59.6963 108.542 53.7544 95.4693 55.6875C82.1979 57.66 72.3441 67.6572 66.6723 79.2635L66.3105 84.6635C69.0919 83.1806 71.7429 81.4438 74.6432 80.1442C77.3032 78.85 80.1764 78.0506 83.1225 77.7849L83.9744 76.1989L87.5523 71.7644C87.9849 73.1394 88.2857 74.5523 88.4508 75.9842C88.8126 77.7927 88.977 77.9111 90.7793 77.8132C93.0706 77.6917 95.3724 77.6849 97.7281 77.631C98.4449 75.0647 98.5873 72.4101 99.0586 69.8072C99.1128 69.0968 99.4336 68.4332 99.9566 67.9494L100.906 69.2747C101.678 71.2602 101.71 73.4086 102.274 75.4376C102.407 75.9292 102.8 76.4403 102.544 77.1911C105.698 77.2618 108.7 76.6864 111.723 76.5251L118.389 77.1283C117.505 76.1523 117.748 74.8202 117.384 73.6762C116.912 72.2347 116.83 70.6748 116.288 69.2449L127.1 82.0314C118.348 81.3086 109.549 82.6627 101.42 85.9836C95.9818 88.1293 90.8714 91.5019 87.5004 96.3065C80.7652 106 82.1899 118.985 85.1205 129.718C86.1322 133.439 87.3302 137.094 88.546 140.74C89.0801 142.337 89.5204 145.468 91.2913 146.135L91.9814 144.505C92.75 139.207 93.0679 133.806 96.6279 129.38C96.7782 129.172 96.8518 128.918 96.8363 128.662C96.8207 128.406 96.7169 128.163 96.5426 127.974C94.9767 125.631 93.5433 123.202 92.249 120.699L92.1594 119.284C93.6732 119.289 94.7047 120.326 95.8807 121.023C97.0567 121.72 98.1317 122.41 99.368 123.166C101.59 120.032 103.944 117.087 105.857 113.85L106.138 113.5C105.755 113.843 105.695 113.436 105.585 113.249C105.408 112.804 105.204 112.37 104.973 111.949C103.678 110.105 102.489 108.189 101.413 106.21L101.321 105.09C102.121 105.06 102.906 105.304 103.549 105.781C105.707 107.201 107.977 108.513 110.237 109.896C112.451 107.278 114.571 104.758 116.678 102.212C116.999 101.832 116.869 101.393 116.669 100.922C115.929 99.0958 118.676 90.7469 118.676 90.7469L139.132 85.6977" fill="#242427"/>
<path d="M158.604 78.1871C153.351 77.3975 143.47 82.9933 140.36 85.3265L139.113 85.7721C139.435 86.5463 139.99 87.201 140.701 87.645C142.711 88.9823 161.123 101.954 161.826 100.373C162.911 98.0581 164.012 95.7783 165.072 93.4095C165.148 93.1747 165.275 92.9598 165.445 92.7804C165.614 92.601 165.822 92.4616 166.052 92.3722L166.744 93.2205C167.235 96.1103 167.302 99.0252 167.593 101.954C167.597 102.307 167.703 102.65 167.897 102.944C168.092 103.239 168.366 103.471 168.689 103.613C171.319 104.781 173.882 106.094 176.367 107.545C177.459 108.249 178.014 107.673 178.451 106.706C179.091 105.317 179.776 103.908 180.365 102.456C180.586 101.844 181.022 101.334 181.592 101.02L182.265 102.15C182.634 104.574 182.624 107.025 182.777 109.454C182.757 109.76 182.828 110.066 182.98 110.333C183.133 110.599 183.361 110.815 183.635 110.953C186.974 112.85 190.295 114.777 193.615 116.705L197.945 110.449C198.212 110.658 198.432 110.921 198.592 111.22C198.751 111.52 198.847 111.849 198.872 112.187C199.062 114.577 199.583 116.909 199.89 119.319C199.876 119.559 199.937 119.797 200.066 120C200.194 120.203 200.384 120.36 200.607 120.449C203.371 121.707 206.003 123.236 208.464 125.015C211.319 127.121 213.809 129.681 215.835 132.593C216.242 133.43 216.738 134.221 217.315 134.952L218.748 134.277C216.333 117.593 209.613 99.8698 196.429 88.7211C186.85 80.6744 174.834 76.0962 162.329 75.7277L167.449 73.2532C167.93 73.0768 168.345 72.7562 168.637 72.3353C168.835 71.876 168.884 71.3662 168.777 70.8775C168.476 68.004 168.176 65.1407 167.877 62.2877L173.649 69.933C173.777 70.1983 173.959 70.4341 174.183 70.6251C174.407 70.8162 174.668 70.9584 174.95 71.0426C175.233 71.1268 175.529 71.1511 175.821 71.114C176.114 71.0769 176.395 70.9793 176.647 70.8273L187.566 67.2762C188.641 67.0328 189.621 66.4774 190.381 65.6797C192.402 63.0433 188.748 58.6963 190.735 56.0107C192.642 58.5382 194.883 64.4094 197.734 65.5467C200.585 66.684 207.628 64.5765 210.742 64.2634C211.16 62.425 210.8 60.5285 210.85 58.6461C210.806 57.2743 210.846 55.9011 210.97 54.5342C211.016 54.2624 210.997 53.9231 211.34 53.7729L212.208 54.0928C214.535 56.5422 216.858 58.9608 219.145 61.4401C219.363 61.7366 219.662 61.9633 220.007 62.0926C220.352 62.2219 220.726 62.2482 221.086 62.1684C225.294 61.7396 229.546 62.1399 233.6 63.3466C234.011 63.4576 234.458 63.5298 234.879 63.6147L240.951 65.1059C240.968 64.7666 240.913 64.4276 240.79 64.1108C240.667 63.7941 240.479 63.5066 240.238 63.267C239.736 62.7313 239.23 62.1868 238.763 61.6344C238.297 61.082 237.706 60.4034 237.148 59.796C224.368 45.7392 207.469 37.6002 188.26 40.747C179.606 42.2358 171.354 45.5007 164.025 50.3358C160.272 52.7764 156.764 55.5742 153.55 58.69C151.227 60.8703 147.955 66.8787 145.4 68.1029L144.056 68.7354C143.501 66.7022 144.866 65.3969 145.873 63.9554L145.392 64.1816C144.485 63.4559 143.75 62.5626 142.766 61.9055C142.569 61.788 142.411 61.6142 142.313 61.4064C142.216 61.1986 142.182 60.9663 142.218 60.7394C142.378 60.1095 142.909 60.1749 143.401 60.1823L148.46 60.1179C151.278 55.4101 154.349 50.8228 156.996 46.1197C156.305 44.8358 155.054 44.3044 154.335 43.2619L153.894 42.0235C154.374 41.8046 154.913 41.7539 155.425 41.8795C156.58 42.1623 157.754 42.3707 158.867 42.7493C159.225 42.914 159.63 42.9493 160.011 42.8492C160.392 42.7491 160.727 42.5199 160.958 42.2005C162.361 40.5616 163.959 39.0594 165.366 37.4294C166.774 35.7994 168.781 34.2893 169.926 32.2394C169.515 31.7367 169.028 31.3247 168.599 30.8743C167.619 29.8564 166.236 29.181 165.761 27.7086L166.659 27.1447C169.149 27.1468 171.571 27.6709 174.028 27.7646C175.932 24.6659 178.773 22.2547 182.14 20.8813L182.821 19.8325C182.106 19.2873 181.21 19.0361 180.316 19.1303C168.3 19.0115 156.107 25.2167 147.603 33.4374C142.054 38.783 138.332 45.743 136.968 53.3267C135.677 60.6297 135.541 68.0902 136.565 75.4355C136.774 77.0116 137.453 78.6164 136.855 80.2569L135.637 79.8186C133.292 76.1608 130.731 72.6464 127.967 69.2941C119.666 59.6963 108.542 53.7544 95.4693 55.6875C82.1979 57.66 72.3441 67.6572 66.6723 79.2635L66.3105 84.6635C69.0919 83.1806 71.7429 81.4438 74.6432 80.1442C77.3032 78.85 80.1764 78.0506 83.1225 77.7849L83.9744 76.1989L87.5523 71.7644C87.9849 73.1394 88.2857 74.5523 88.4508 75.9842C88.8126 77.7927 88.977 77.9111 90.7793 77.8132C93.0706 77.6917 95.3724 77.6849 97.7281 77.631C98.4449 75.0647 98.5873 72.4101 99.0586 69.8072C99.1128 69.0968 99.4336 68.4332 99.9566 67.9494L100.906 69.2747C101.678 71.2602 101.71 73.4086 102.274 75.4376C102.407 75.9292 102.8 76.4403 102.544 77.1911C105.698 77.2618 108.7 76.6864 111.723 76.5251L118.389 77.1283C117.505 76.1523 117.748 74.8202 117.384 73.6762C116.912 72.2347 116.83 70.6748 116.288 69.2449L127.1 82.0314C118.348 81.3086 109.549 82.6627 101.42 85.9836C95.9818 88.1293 90.8714 91.5019 87.5004 96.3065C80.7652 106 82.1899 118.985 85.1205 129.718C86.1322 133.439 87.3302 137.094 88.546 140.74C89.0801 142.337 89.5204 145.468 91.2913 146.135L91.9814 144.505C92.75 139.207 93.0679 133.806 96.6279 129.38C96.7782 129.172 96.8518 128.918 96.8363 128.662C96.8207 128.406 96.7169 128.163 96.5426 127.974C94.9767 125.631 93.5433 123.202 92.249 120.699L92.1594 119.284C93.6732 119.289 94.7047 120.326 95.8807 121.023C97.0567 121.72 98.1317 122.41 99.368 123.166C101.59 120.032 103.944 117.087 105.857 113.85L106.138 113.5C105.755 113.843 105.695 113.436 105.585 113.249C105.408 112.804 105.204 112.37 104.973 111.949C103.678 110.105 102.489 108.189 101.413 106.21L101.321 105.09C102.121 105.06 102.906 105.304 103.549 105.781C105.707 107.201 107.977 108.513 110.237 109.896C112.451 107.278 114.571 104.758 116.678 102.212C116.999 101.832 116.869 101.393 116.669 100.922C115.929 99.0958 118.676 90.7469 118.676 90.7469L139.132 85.6977" fill="#F5F378"/>
<path d="M158.604 78.1871C153.351 77.3975 143.47 82.9933 140.36 85.3265L139.113 85.7721C139.435 86.5463 139.99 87.2009 140.701 87.645C142.711 88.9823 161.123 101.954 161.826 100.373C162.911 98.0581 164.012 95.7783 165.072 93.4095C165.148 93.1747 165.275 92.9598 165.445 92.7804C165.614 92.601 165.822 92.4616 166.052 92.3722L166.744 93.2205C167.235 96.1103 167.302 99.0252 167.593 101.954C167.597 102.307 167.703 102.65 167.897 102.944C168.092 103.239 168.366 103.471 168.689 103.613C171.319 104.781 173.882 106.094 176.367 107.545C177.459 108.249 178.014 107.673 178.451 106.706C179.091 105.317 179.776 103.908 180.365 102.456C180.586 101.844 181.022 101.334 181.592 101.02L182.265 102.15C182.634 104.574 182.624 107.025 182.777 109.454C182.757 109.76 182.828 110.066 182.98 110.333C183.133 110.599 183.361 110.815 183.635 110.953C186.974 112.85 190.295 114.777 193.615 116.705L197.945 110.449C198.212 110.658 198.432 110.921 198.592 111.22C198.751 111.52 198.847 111.849 198.872 112.187C199.062 114.577 199.583 116.909 199.89 119.319C199.876 119.559 199.937 119.797 200.066 120C200.194 120.203 200.384 120.36 200.607 120.449C203.371 121.707 206.003 123.236 208.464 125.015C211.319 127.121 213.809 129.681 215.835 132.593C216.242 133.43 216.738 134.221 217.315 134.952L218.748 134.277C216.333 117.593 209.613 99.8698 196.429 88.7211C186.85 80.6744 174.834 76.0962 162.329 75.7277L167.449 73.2532C167.93 73.0768 168.345 72.7562 168.637 72.3353C168.835 71.876 168.884 71.3662 168.777 70.8775C168.476 68.004 168.176 65.1407 167.877 62.2877L173.649 69.933C173.777 70.1983 173.959 70.4341 174.183 70.6251C174.407 70.8162 174.668 70.9584 174.95 71.0426C175.233 71.1268 175.529 71.1511 175.821 71.114C176.114 71.0769 176.395 70.9793 176.647 70.8273L187.566 67.2762C188.641 67.0328 189.621 66.4774 190.381 65.6797C192.402 63.0433 188.748 58.6963 190.735 56.0107C192.642 58.5382 194.883 64.4094 197.734 65.5467C200.585 66.684 207.628 64.5765 210.742 64.2634C211.16 62.425 210.8 60.5285 210.85 58.6461C210.806 57.2743 210.846 55.9011 210.97 54.5342C211.016 54.2624 210.997 53.9231 211.34 53.7729L212.208 54.0928C214.535 56.5422 216.858 58.9608 219.145 61.4401C219.363 61.7366 219.662 61.9633 220.007 62.0926C220.352 62.2219 220.726 62.2482 221.086 62.1684C225.294 61.7396 229.546 62.1399 233.6 63.3466C234.011 63.4576 234.458 63.5298 234.879 63.6147L240.951 65.1059C240.968 64.7666 240.913 64.4276 240.79 64.1108C240.667 63.7941 240.479 63.5066 240.238 63.267C239.736 62.7313 239.23 62.1868 238.763 61.6344C238.297 61.082 237.706 60.4034 237.148 59.796C224.368 45.7392 207.469 37.6002 188.26 40.747C179.606 42.2358 171.354 45.5007 164.025 50.3358C160.272 52.7764 156.764 55.5742 153.55 58.69C151.227 60.8703 147.955 66.8787 145.4 68.1029L144.056 68.7354C143.501 66.7023 144.866 65.3969 145.873 63.9554L145.392 64.1816C144.485 63.4559 143.75 62.5626 142.766 61.9055C142.569 61.788 142.411 61.6142 142.313 61.4064C142.216 61.1986 142.182 60.9663 142.218 60.7394C142.378 60.1095 142.909 60.1749 143.401 60.1823L148.46 60.1179C151.278 55.4101 154.349 50.8228 156.996 46.1197C156.305 44.8358 155.054 44.3044 154.335 43.2619L153.894 42.0235C154.374 41.8046 154.913 41.7539 155.425 41.8795C156.58 42.1623 157.754 42.3707 158.867 42.7493C159.225 42.914 159.63 42.9493 160.011 42.8492C160.392 42.7491 160.727 42.5199 160.958 42.2005C162.361 40.5616 163.959 39.0594 165.366 37.4294C166.774 35.7994 168.781 34.2893 169.926 32.2394C169.515 31.7367 169.028 31.3247 168.599 30.8743C167.619 29.8565 166.236 29.181 165.761 27.7086L166.659 27.1447C169.149 27.1468 171.571 27.6709 174.028 27.7646C175.932 24.666 178.773 22.2547 182.14 20.8813L182.821 19.8325C182.106 19.2873 181.21 19.0361 180.316 19.1303C168.3 19.0115 156.107 25.2167 147.603 33.4374C142.054 38.783 138.332 45.743 136.968 53.3267C135.677 60.6297 135.541 68.0902 136.565 75.4355C136.774 77.0116 137.453 78.6164 136.855 80.2569L135.637 79.8186C133.292 76.1608 130.731 72.6464 127.967 69.2941C119.666 59.6963 108.542 53.7544 95.4693 55.6875C82.1979 57.66 72.3441 67.6572 66.6723 79.2635L66.3105 84.6635C69.0919 83.1806 71.7429 81.4438 74.6432 80.1442C77.3032 78.85 80.1764 78.0506 83.1225 77.7849L83.9744 76.1989L87.5523 71.7644C87.9849 73.1394 88.2857 74.5523 88.4508 75.9842C88.8126 77.7927 88.977 77.9111 90.7793 77.8132C93.0706 77.6917 95.3724 77.6849 97.7281 77.631C98.4449 75.0647 98.5873 72.4101 99.0586 69.8072C99.1128 69.0968 99.4336 68.4332 99.9566 67.9494L100.906 69.2747C101.678 71.2602 101.71 73.4086 102.274 75.4376C102.407 75.9292 102.8 76.4403 102.544 77.1911C105.698 77.2618 108.7 76.6864 111.723 76.5251L118.389 77.1283C117.505 76.1523 117.748 74.8202 117.384 73.6762C116.912 72.2347 116.83 70.6748 116.288 69.2449L127.1 82.0314C118.348 81.3086 109.549 82.6627 101.42 85.9836C95.9818 88.1293 90.8714 91.5019 87.5004 96.3065C80.7652 106 82.1899 118.985 85.1205 129.718C86.1322 133.439 87.3302 137.094 88.546 140.74C89.0801 142.337 89.5204 145.468 91.2913 146.135L91.9814 144.505C92.75 139.207 93.0679 133.806 96.6279 129.38C96.7782 129.172 96.8518 128.918 96.8363 128.662C96.8207 128.406 96.7169 128.163 96.5426 127.974C94.9767 125.631 93.5433 123.202 92.249 120.699L92.1594 119.284C93.6732 119.289 94.7047 120.326 95.8807 121.023C97.0567 121.72 98.1317 122.41 99.368 123.166C101.59 120.032 103.944 117.087 105.857 113.85L106.138 113.5C105.755 113.843 105.695 113.436 105.585 113.249C105.408 112.804 105.204 112.37 104.973 111.949C103.678 110.105 102.489 108.189 101.413 106.21L101.321 105.09C102.121 105.06 102.906 105.304 103.549 105.781C105.707 107.201 107.977 108.513 110.237 109.896C112.451 107.278 114.571 104.758 116.678 102.212C116.999 101.832 116.869 101.393 116.669 100.922C115.929 99.0958 118.676 90.7469 118.676 90.7469L139.132 85.6977" stroke="#F5F378" stroke-width="1.57404" stroke-linecap="round" stroke-linejoin="round"/>
<path d="M133.813 89.7614C135.469 89.7614 137.088 89.2704 138.464 88.3505C139.841 87.4305 140.914 86.123 141.548 84.5933C142.182 83.0635 142.347 81.3802 142.024 79.7562C141.701 78.1322 140.904 76.6405 139.733 75.4697C138.562 74.2988 137.071 73.5015 135.447 73.1784C133.823 72.8554 132.139 73.0212 130.61 73.6549C129.08 74.2885 127.772 75.3616 126.852 76.7383C125.932 78.1151 125.441 79.7337 125.441 81.3895C125.441 83.6098 126.323 85.7393 127.893 87.3093C129.464 88.8793 131.593 89.7614 133.813 89.7614Z" fill="white" stroke="#242427" stroke-width="1.57404" stroke-miterlimit="1"/>
<path d="M148.668 93.2434C150.293 93.2434 151.881 92.7614 153.232 91.8584C154.583 90.9553 155.636 89.6718 156.258 88.1702C156.879 86.6687 157.041 85.0165 156.724 83.4228C156.406 81.829 155.622 80.3654 154.473 79.2169C153.323 78.0685 151.858 77.2869 150.264 76.9711C148.67 76.6553 147.018 76.8193 145.517 77.4426C144.016 78.0658 142.734 79.1202 141.833 80.4724C140.931 81.8245 140.451 83.4137 140.453 85.0388C140.456 87.2157 141.322 89.3026 142.863 90.841C144.403 92.3793 146.491 93.2435 148.668 93.2434Z" fill="white" stroke="#242427" stroke-width="1.57404" stroke-miterlimit="1"/>
<path fill-rule="evenodd" clip-rule="evenodd" d="M220 166.996C221.11 160.276 214.33 153.416 204.4 150.576C209.83 144.576 211.48 137.576 207.84 132.836C204.32 128.316 196.9 127.326 189.3 129.836C187.18 124.396 182.99 120.376 177.65 119.496C171.31 118.436 165.1 122.056 161.37 128.206C155.8 125.996 149.93 126.046 145.5 128.996C140.11 132.536 138.33 139.306 140.21 146.226C134.77 148.476 130.82 152.666 129.94 157.976C128.71 165.486 133.94 172.906 142.38 176.526C139.58 181.036 139.01 185.526 141.38 188.656C144.38 192.496 151.07 193.086 158.26 190.656C159.267 193.878 161.133 196.766 163.658 199.007C166.183 201.248 169.271 202.759 172.59 203.376C180.81 204.756 188.73 200.106 192.46 192.446C197.29 195.066 202.07 195.646 205.27 193.536C209.48 190.766 209.82 184.166 206.69 177.126C213.78 175.926 219.07 172.196 219.92 167.026L220 166.996Z" fill="#353538"/>
<path d="M191.4 158.116C194.54 157.976 196.91 154.116 196.7 149.486C196.49 144.856 193.79 141.226 190.7 141.366C187.61 141.506 185.19 145.366 185.39 149.996C185.59 154.626 188.26 158.256 191.4 158.116Z" fill="white"/>
<path d="M179.999 158.626C183.129 158.486 185.509 154.626 185.299 149.996C185.089 145.366 182.379 141.726 179.299 141.866C176.219 142.006 173.779 145.866 173.989 150.496C174.199 155.126 176.899 158.766 179.999 158.626Z" fill="white"/>
<path d="M189.891 155.047C192.041 154.957 193.681 152.467 193.541 149.487C193.401 146.507 191.541 144.177 189.411 144.277C187.281 144.377 185.631 146.857 185.761 149.837C185.891 152.817 187.751 155.147 189.891 155.047Z" fill="#242427"/>
<path d="M179.162 155.556C181.162 155.466 182.642 152.986 182.512 150.016C182.382 147.046 180.662 144.696 178.682 144.786C176.702 144.876 175.202 147.356 175.332 150.336C175.462 153.316 177.182 155.646 179.162 155.556Z" fill="#242427"/>
<path d="M178.624 151.52C179.521 151.519 180.25 150.505 180.252 149.255C180.254 148.006 179.529 146.994 178.632 146.996C177.735 146.998 177.006 148.012 177.004 149.261C177.001 150.511 177.727 151.522 178.624 151.52Z" fill="white"/>
<path d="M180.765 153.401C181.175 153.4 181.508 152.936 181.509 152.364C181.51 151.793 181.179 151.33 180.769 151.331C180.359 151.331 180.026 151.795 180.025 152.367C180.024 152.939 180.355 153.401 180.765 153.401Z" fill="white"/>
<path d="M188.624 151.52C189.521 151.519 190.25 150.505 190.252 149.255C190.254 148.006 189.529 146.994 188.632 146.996C187.735 146.998 187.006 148.012 187.004 149.261C187.001 150.511 187.727 151.522 188.624 151.52Z" fill="white"/>
<path d="M190.765 153.401C191.175 153.4 191.508 152.936 191.509 152.364C191.51 151.793 191.179 151.33 190.769 151.331C190.359 151.331 190.026 151.795 190.025 152.367C190.024 152.939 190.355 153.401 190.765 153.401Z" fill="white"/>
<path d="M187.543 169.566C182.543 170.066 178.173 167.476 177.813 163.806C177.453 160.136 181.223 156.746 186.223 156.246C191.223 155.746 195.593 158.336 195.953 162.006C196.313 165.676 192.553 169.066 187.543 169.566Z" fill="white" stroke="#242427" stroke-width="1.6" stroke-miterlimit="10"/>
<path d="M196.002 162.156C193.592 164.156 190.492 160.646 186.812 161.016C183.132 161.386 181.812 165.276 177.352 164.016" stroke="#242427" stroke-width="1.6"/>
<path d="M188.132 163.046L190.562 161.876L183.242 162.606L185.862 163.276C186.622 163.467 187.426 163.386 188.132 163.046Z" fill="#242427" stroke="#242427" stroke-width="1.6" stroke-linecap="round" stroke-linejoin="round"/>
<path d="M195.63 189.776L200.18 185.036L209.39 202.186C209.795 203.202 210.419 204.116 211.217 204.862C212.016 205.609 212.97 206.17 214.01 206.506C219.01 207.916 224.87 202.696 227.07 194.856C229.27 187.016 227 179.476 222 178.086C217 176.696 211.14 181.896 208.94 189.726L203 181.276C202.7 180.847 202.305 180.494 201.845 180.244C201.385 179.995 200.873 179.856 200.35 179.838C199.827 179.821 199.307 179.925 198.831 180.144C198.356 180.362 197.938 180.688 197.61 181.096L192 187.996" fill="white"/>
<path d="M195.63 189.776L200.18 185.036L209.39 202.186C209.795 203.202 210.419 204.116 211.217 204.862C212.016 205.609 212.97 206.17 214.01 206.506C219.01 207.916 224.87 202.696 227.07 194.856C229.27 187.016 227 179.476 222 178.086C217 176.696 211.14 181.896 208.94 189.726L203 181.276C202.7 180.847 202.305 180.494 201.845 180.244C201.385 179.995 200.873 179.856 200.35 179.838C199.827 179.821 199.307 179.925 198.831 180.144C198.356 180.362 197.938 180.688 197.61 181.096L192 187.996" stroke="#242427" stroke-width="1.6" stroke-linecap="round" stroke-linejoin="round"/>
<path d="M212.202 200.616C210.642 194.316 213.762 182.836 220.762 180.796" stroke="#242427" stroke-width="1.6" stroke-linecap="round" stroke-linejoin="round"/>
<path d="M199.449 183.727L201.059 186.727" stroke="#242427" stroke-width="1.6" stroke-linecap="round" stroke-linejoin="round"/>
<path fill-rule="evenodd" clip-rule="evenodd" d="M208.622 194.786C208.622 194.786 208.162 193.786 208.622 190.636V194.786Z" fill="#F5F794"/>
<path d="M208.622 194.786C208.622 194.786 208.162 193.786 208.622 190.636" stroke="#242427" stroke-width="1.6" stroke-linecap="round" stroke-linejoin="round"/>
<path d="M177.75 191.266L181.75 186.346C182.078 185.938 182.498 185.612 182.974 185.394C183.45 185.175 183.971 185.071 184.495 185.088C185.018 185.106 185.531 185.245 185.992 185.494C186.453 185.744 186.849 186.097 187.15 186.526L193 194.996C195.19 187.156 201 181.936 206.06 183.346C211.12 184.756 213.37 192.246 211.18 200.086C208.99 207.926 203.18 213.146 198.11 211.736C197.069 211.398 196.115 210.835 195.317 210.086C194.518 209.338 193.895 208.423 193.49 207.406L184.28 190.266L180.77 193.916C180.416 194.314 179.918 194.555 179.386 194.586C178.855 194.617 178.333 194.435 177.935 194.081C177.537 193.727 177.296 193.23 177.265 192.698C177.234 192.166 177.416 191.644 177.77 191.246L177.75 191.266Z" fill="white" stroke="#242427" stroke-width="1.6" stroke-linecap="round" stroke-linejoin="round"/>
<path d="M196.331 205.846C194.771 199.546 197.901 188.076 204.901 186.036" stroke="#242427" stroke-width="1.6" stroke-linecap="round" stroke-linejoin="round"/>
<path d="M183.59 188.996L185.2 191.996" stroke="#242427" stroke-width="1.6" stroke-linecap="round" stroke-linejoin="round"/>
<path fill-rule="evenodd" clip-rule="evenodd" d="M192.771 199.996C192.771 199.996 192.301 198.996 192.771 195.846V199.996Z" fill="#F5F794"/>
<path d="M192.771 199.996C192.771 199.996 192.301 198.996 192.771 195.846" stroke="#242427" stroke-width="1.6" stroke-linecap="round" stroke-linejoin="round"/>
<path fill-rule="evenodd" clip-rule="evenodd" d="M151.168 151.126L146.238 142.126C145.941 142.023 145.626 141.98 145.312 142.001C144.998 142.023 144.692 142.107 144.411 142.25C144.131 142.393 143.883 142.592 143.681 142.833C143.479 143.075 143.329 143.355 143.238 143.656L147.518 152.426L151.168 151.126Z" fill="#EFEFEF" stroke="#242427" stroke-width="1.6" stroke-linecap="round" stroke-linejoin="round"/>
<path fill-rule="evenodd" clip-rule="evenodd" d="M151.82 181.297C152.024 181.42 152.268 181.46 152.5 181.407C153.304 181.447 154.11 181.423 154.91 181.337C156.55 181.2 158.078 180.45 159.19 179.237C161.28 176.907 163.27 173.117 163.54 171.007C163.91 168.007 153.67 151.687 151.9 150.097C150.9 149.237 146.32 149.957 146.32 149.957L151.82 181.297Z" fill="#D9D9D9" stroke="#242427" stroke-width="1.6" stroke-miterlimit="10" stroke-linecap="round"/>
<path fill-rule="evenodd" clip-rule="evenodd" d="M141.087 159.916C140.844 157.961 141.113 155.977 141.867 154.156C142.087 153.596 142.376 153.066 142.727 152.576C143.727 151.166 146.457 148.786 148.237 150.386C150.017 151.986 160.237 168.326 159.877 171.296C159.517 174.266 153.747 182.556 151.817 181.296C151.006 180.589 150.346 179.725 149.877 178.756C146.833 173.979 144.223 168.939 142.077 163.696C141.578 162.487 141.245 161.215 141.087 159.916Z" fill="#D9D9D9" stroke="#242427" stroke-width="1.6" stroke-miterlimit="10" stroke-linecap="round"/>
<path d="M254.24 131.614L257.895 131.944M257.895 131.944L256.554 135.633M257.895 131.944L260.998 134.658M257.895 131.944L261.077 130.115M257.895 131.944L257.106 128.345" stroke="white" stroke-width="1.8" stroke-linecap="round" stroke-linejoin="round"/>
<path d="M266.267 135.119L269.923 135.449M269.923 135.449L268.581 139.137M269.923 135.449L273.026 138.163M269.923 135.449L273.105 133.62M269.923 135.449L269.134 131.85" stroke="white" stroke-width="1.8" stroke-linecap="round" stroke-linejoin="round"/>
<path d="M258.312 117.519L264.023 117.883M264.023 117.883L261.814 123.217M264.023 117.883L268.798 121.686M264.023 117.883L269.057 115.163M264.023 117.883L262.896 112.742" stroke="white" stroke-width="1.8" stroke-linecap="round" stroke-linejoin="round"/>
<path d="M243.925 122.535L257.559 95.9996" stroke="white" stroke-width="1.8" stroke-linecap="round" stroke-linejoin="round"/>
<path d="M258.868 147.637L288.063 143.692" stroke="white" stroke-width="1.8" stroke-linecap="round" stroke-linejoin="round"/>
</svg>
