<svg width="223" height="262" viewBox="0 0 223 262" fill="none" xmlns="http://www.w3.org/2000/svg">
<g filter="url(#filter0_d_4052_966)">
<path d="M91.5767 80.395L83.9426 80.8869C55.2165 128.108 70.4945 188.895 70.4945 188.895L79.0041 195.349L100.165 180.956L90.8094 176.096C90.8094 176.096 72.1177 129.141 91.2717 83.0807L86.9628 76.5977L83.9426 80.8869" fill="#EFEFEF"/>
<path d="M91.5767 80.395L83.9426 80.8869M83.9426 80.8869C55.2165 128.108 70.4945 188.895 70.4945 188.895L79.0041 195.349L100.165 180.956L90.8094 176.096C90.8094 176.096 72.1177 129.141 91.2717 83.0807L86.9628 76.5977L83.9426 80.8869Z" stroke="#242427" stroke-width="1.57404" stroke-miterlimit="10"/>
<path d="M171.251 203.806C172.251 193.296 150.771 182.656 123.251 180.026C95.7314 177.396 72.6414 183.776 71.6314 194.286C70.6214 204.796 92.1114 215.426 119.631 218.056C147.151 220.686 170.251 214.306 171.251 203.806Z" fill="white"/>
<path d="M173.002 245.616C172.562 245.616 172.082 245.466 171.662 245.736L170.462 246.546C171.342 247.676 172.732 247.796 173.952 247.956C175.622 248.186 177.242 248.606 178.892 248.956L180.092 250.026C179.152 251.376 177.592 251.026 176.342 251.176C159.342 252.576 142.252 252.826 125.192 252.556C116.382 252.416 107.592 251.946 98.7924 251.776C92.7924 251.666 84.7224 252.716 79.8524 248.296C79.0924 247.606 79.0724 246.936 79.8524 246.296C80.6878 245.716 81.5788 245.22 82.5124 244.816L79.7124 243.086C57.3824 245.796 34.7124 244.266 12.2824 244.156C10.9324 244.156 8.9224 244.266 7.9624 243.156C10.8224 240.306 16.4024 240.426 20.1724 239.726C23.2724 239.146 40.8424 237.366 41.0824 234.296C41.3588 231.553 41.7962 228.828 42.3924 226.136C46.3924 205.956 57.8824 190.916 76.3924 182.026C108.772 166.436 151.392 173.136 174.222 201.976C180.009 209.306 184.211 217.758 186.562 226.796C187.461 229.946 188.08 233.168 188.412 236.426C188.472 237.236 188.692 237.806 189.732 237.936C191.522 238.156 193.312 238.196 195.092 238.446C197.262 238.746 199.462 238.896 201.652 239.166C206.882 239.816 213.352 239.806 218.002 242.526C216.252 244.956 211.002 244.526 208.182 244.846C203.692 245.296 199.182 245.276 194.682 245.506L90.0024 242.936" fill="white"/>
<path d="M173.002 245.616C172.562 245.616 172.082 245.466 171.662 245.736L170.462 246.546C171.342 247.676 172.732 247.796 173.952 247.956C175.622 248.186 177.242 248.606 178.892 248.956L180.092 250.026C179.152 251.376 177.592 251.026 176.342 251.176C159.342 252.576 142.252 252.826 125.192 252.556C116.382 252.416 107.592 251.946 98.7924 251.776C92.7924 251.666 84.7224 252.716 79.8524 248.296C79.0924 247.606 79.0724 246.936 79.8524 246.296C80.6878 245.716 81.5788 245.22 82.5124 244.816L79.7124 243.086C57.3824 245.796 34.7124 244.266 12.2824 244.156C10.9324 244.156 8.9224 244.266 7.9624 243.156C10.8224 240.306 16.4024 240.426 20.1724 239.726C23.2724 239.146 40.8424 237.366 41.0824 234.296C41.3588 231.553 41.7962 228.828 42.3924 226.136C46.3924 205.956 57.8824 190.916 76.3924 182.026C108.772 166.436 151.392 173.136 174.222 201.976C180.009 209.306 184.211 217.758 186.562 226.796C187.461 229.946 188.08 233.168 188.412 236.426C188.472 237.236 188.692 237.806 189.732 237.936C191.522 238.156 193.312 238.196 195.092 238.446C197.262 238.746 199.462 238.896 201.652 239.166C206.882 239.816 213.352 239.806 218.002 242.526C216.252 244.956 211.002 244.526 208.182 244.846C203.692 245.296 199.182 245.276 194.682 245.506L90.0024 242.936" stroke="#242427" stroke-width="1.6" stroke-linecap="round" stroke-linejoin="round"/>
<ellipse cx="130.324" cy="199.768" rx="41.0472" ry="20" transform="rotate(3.93783 130.324 199.768)" fill="#D9D9D9"/>
<path d="M86.0886 159.471L78.4152 149.85C78.1751 149.549 77.8637 149.313 77.5093 149.163C77.1549 149.013 76.7687 148.954 76.3857 148.991C76.0027 149.028 75.635 149.161 75.316 149.376C74.997 149.591 74.7367 149.882 74.5588 150.223C74.5588 150.223 66.7969 157.208 66.7969 160.415" stroke="#242427" stroke-width="1.57404" stroke-miterlimit="10"/>
<path d="M82.6638 126.199C82.6638 126.199 79.2796 118.634 79.2796 118.614C77.9712 115.663 68.0449 123.809 68.0449 126.199" stroke="#242427" stroke-width="1.57404" stroke-miterlimit="10"/>
<path d="M85.478 101.212C84.7598 99.6578 83.717 95.5555 81.8773 95.2013C80.0377 94.8471 74.3613 99.3725 74.3613 101.212" stroke="#242427" stroke-width="1.57404" stroke-miterlimit="10"/>
<path d="M102.604 78.1871C97.3511 77.3975 87.47 82.9933 84.3603 85.3265L83.1131 85.7721C83.4349 86.5463 83.99 87.201 84.7012 87.645C86.7113 88.9823 105.123 101.954 105.826 100.373C106.911 98.0581 108.012 95.7783 109.072 93.4095C109.148 93.1747 109.275 92.9598 109.445 92.7804C109.614 92.601 109.822 92.4616 110.052 92.3722L110.744 93.2205C111.235 96.1103 111.302 99.0252 111.593 101.954C111.597 102.307 111.703 102.65 111.897 102.944C112.092 103.239 112.366 103.471 112.689 103.613C115.319 104.781 117.882 106.094 120.367 107.545C121.459 108.249 122.014 107.673 122.451 106.706C123.091 105.317 123.776 103.908 124.365 102.456C124.586 101.844 125.022 101.334 125.592 101.02L126.265 102.15C126.634 104.574 126.624 107.025 126.777 109.454C126.757 109.76 126.828 110.066 126.98 110.333C127.133 110.599 127.361 110.815 127.635 110.953C130.974 112.85 134.295 114.777 137.615 116.705L141.945 110.449C142.212 110.658 142.432 110.921 142.592 111.22C142.751 111.52 142.847 111.849 142.872 112.187C143.062 114.577 143.583 116.909 143.89 119.319C143.876 119.559 143.937 119.797 144.066 120C144.194 120.203 144.384 120.36 144.607 120.449C147.371 121.707 150.003 123.236 152.464 125.015C155.319 127.121 157.809 129.681 159.835 132.593C160.242 133.43 160.738 134.221 161.315 134.952L162.748 134.277C160.333 117.593 153.613 99.8698 140.429 88.7211C130.85 80.6744 118.834 76.0962 106.329 75.7277L111.449 73.2532C111.93 73.0768 112.345 72.7562 112.637 72.3353C112.835 71.876 112.884 71.3662 112.777 70.8775C112.476 68.004 112.176 65.1407 111.877 62.2877L117.649 69.933C117.777 70.1983 117.959 70.4341 118.183 70.6251C118.407 70.8162 118.668 70.9584 118.95 71.0426C119.233 71.1268 119.529 71.1511 119.821 71.114C120.114 71.0769 120.395 70.9793 120.647 70.8273L131.566 67.2762C132.641 67.0328 133.621 66.4774 134.381 65.6797C136.402 63.0433 132.748 58.6963 134.735 56.0107C136.642 58.5382 138.883 64.4094 141.734 65.5467C144.585 66.684 151.628 64.5765 154.742 64.2634C155.16 62.425 154.8 60.5285 154.85 58.6461C154.806 57.2743 154.846 55.9011 154.97 54.5342C155.016 54.2624 154.997 53.9231 155.34 53.7729L156.208 54.0928C158.535 56.5422 160.858 58.9608 163.145 61.4401C163.363 61.7366 163.662 61.9633 164.007 62.0926C164.352 62.2219 164.726 62.2482 165.086 62.1684C169.294 61.7396 173.546 62.1399 177.6 63.3466C178.011 63.4576 178.458 63.5298 178.879 63.6147L184.951 65.1059C184.968 64.7666 184.913 64.4276 184.79 64.1108C184.667 63.7941 184.479 63.5066 184.238 63.267C183.736 62.7313 183.23 62.1868 182.763 61.6344C182.297 61.082 181.706 60.4034 181.148 59.796C168.368 45.7392 151.469 37.6002 132.26 40.747C123.606 42.2358 115.354 45.5007 108.025 50.3358C104.272 52.7764 100.764 55.5742 97.5501 58.69C95.2273 60.8703 91.9553 66.8787 89.4001 68.1029L88.056 68.7354C87.5015 66.7022 88.866 65.3969 89.8729 63.9554L89.3922 64.1816C88.4853 63.4559 87.7497 62.5626 86.7663 61.9055C86.569 61.788 86.4112 61.6142 86.3135 61.4064C86.2157 61.1986 86.1823 60.9663 86.2176 60.7394C86.3778 60.1095 86.9087 60.1749 87.4015 60.1823L92.4595 60.1179C95.2781 55.4101 98.3491 50.8228 100.996 46.1197C100.305 44.8358 99.0544 44.3044 98.3355 43.2619L97.8941 42.0235C98.3735 41.8046 98.9128 41.7539 99.4246 41.8795C100.58 42.1623 101.754 42.3707 102.867 42.7493C103.225 42.914 103.63 42.9493 104.011 42.8492C104.392 42.7491 104.727 42.5199 104.958 42.2005C106.361 40.5616 107.959 39.0594 109.366 37.4294C110.774 35.7994 112.781 34.2893 113.926 32.2394C113.515 31.7367 113.028 31.3247 112.599 30.8743C111.619 29.8564 110.236 29.181 109.761 27.7086L110.659 27.1447C113.149 27.1468 115.571 27.6709 118.028 27.7646C119.932 24.6659 122.773 22.2547 126.14 20.8813L126.821 19.8325C126.106 19.2873 125.21 19.0361 124.316 19.1303C112.3 19.0115 100.107 25.2167 91.6029 33.4374C86.0535 38.783 82.3319 45.743 80.9679 53.3267C79.6769 60.6297 79.5408 68.0902 80.5647 75.4355C80.7736 77.0116 81.4527 78.6164 80.8548 80.2569L79.6374 79.8186C77.2923 76.1608 74.7308 72.6464 71.9665 69.2941C63.6663 59.6963 52.5417 53.7544 39.4693 55.6875C26.1979 57.66 16.3441 67.6572 10.6723 79.2635L10.3105 84.6635C13.0919 83.1806 15.7429 81.4438 18.6432 80.1442C21.3032 78.85 24.1764 78.0506 27.1225 77.7849L27.9744 76.1989L31.5523 71.7644C31.9849 73.1394 32.2857 74.5523 32.4508 75.9842C32.8126 77.7927 32.977 77.9111 34.7793 77.8132C37.0706 77.6917 39.3724 77.6849 41.7281 77.631C42.4449 75.0647 42.5873 72.4101 43.0586 69.8072C43.1128 69.0968 43.4336 68.4332 43.9566 67.9494L44.9064 69.2747C45.6777 71.2602 45.7101 73.4086 46.2735 75.4376C46.407 75.9292 46.7998 76.4403 46.5442 77.1911C49.6979 77.2618 52.6998 76.6864 55.7226 76.5251L62.3886 77.1283C61.5053 76.1523 61.7483 74.8202 61.3838 73.6762C60.9121 72.2347 60.8304 70.6748 60.2879 69.2449L71.0999 82.0314C62.348 81.3086 53.5491 82.6627 45.4195 85.9836C39.9818 88.1293 34.8714 91.5019 31.5004 96.3065C24.7652 106 26.1899 118.985 29.1205 129.718C30.1322 133.439 31.3302 137.094 32.546 140.74C33.0801 142.337 33.5204 145.468 35.2913 146.135L35.9814 144.505C36.75 139.207 37.0679 133.806 40.6279 129.38C40.7782 129.172 40.8518 128.918 40.8363 128.662C40.8207 128.406 40.7169 128.163 40.5426 127.974C38.9767 125.631 37.5433 123.202 36.249 120.699L36.1594 119.284C37.6732 119.289 38.7047 120.326 39.8807 121.023C41.0567 121.72 42.1317 122.41 43.368 123.166C45.5902 120.032 47.9443 117.087 49.8565 113.85L50.1377 113.5C49.7555 113.843 49.6947 113.436 49.5848 113.249C49.4079 112.804 49.2037 112.37 48.9732 111.949C47.6781 110.105 46.4895 108.189 45.4132 106.21L45.321 105.09C46.1206 105.06 46.9064 105.304 47.549 105.781C49.7068 107.201 51.9772 108.513 54.237 109.896C56.4514 107.278 58.571 104.758 60.678 102.212C60.9995 101.832 60.8691 101.393 60.6691 100.922C59.9292 99.0958 62.6761 90.7469 62.6761 90.7469L83.1324 85.6977" fill="#242427"/>
<path d="M102.604 78.1871C97.3511 77.3975 87.47 82.9933 84.3603 85.3265L83.1131 85.7721C83.4349 86.5463 83.99 87.201 84.7012 87.645C86.7113 88.9823 105.123 101.954 105.826 100.373C106.911 98.0581 108.012 95.7783 109.072 93.4095C109.148 93.1747 109.275 92.9598 109.445 92.7804C109.614 92.601 109.822 92.4616 110.052 92.3722L110.744 93.2205C111.235 96.1103 111.302 99.0252 111.593 101.954C111.597 102.307 111.703 102.65 111.897 102.944C112.092 103.239 112.366 103.471 112.689 103.613C115.319 104.781 117.882 106.094 120.367 107.545C121.459 108.249 122.014 107.673 122.451 106.706C123.091 105.317 123.776 103.908 124.365 102.456C124.586 101.844 125.022 101.334 125.592 101.02L126.265 102.15C126.634 104.574 126.624 107.025 126.777 109.454C126.757 109.76 126.828 110.066 126.98 110.333C127.133 110.599 127.361 110.815 127.635 110.953C130.974 112.85 134.295 114.777 137.615 116.705L141.945 110.449C142.212 110.658 142.432 110.921 142.592 111.22C142.751 111.52 142.847 111.849 142.872 112.187C143.062 114.577 143.583 116.909 143.89 119.319C143.876 119.559 143.937 119.797 144.066 120C144.194 120.203 144.384 120.36 144.607 120.449C147.371 121.707 150.003 123.236 152.464 125.015C155.319 127.121 157.809 129.681 159.835 132.593C160.242 133.43 160.738 134.221 161.315 134.952L162.748 134.277C160.333 117.593 153.613 99.8698 140.429 88.7211C130.85 80.6744 118.834 76.0962 106.329 75.7277L111.449 73.2532C111.93 73.0768 112.345 72.7562 112.637 72.3353C112.835 71.876 112.884 71.3662 112.777 70.8775C112.476 68.004 112.176 65.1407 111.877 62.2877L117.649 69.933C117.777 70.1983 117.959 70.4341 118.183 70.6251C118.407 70.8162 118.668 70.9584 118.95 71.0426C119.233 71.1268 119.529 71.1511 119.821 71.114C120.114 71.0769 120.395 70.9793 120.647 70.8273L131.566 67.2762C132.641 67.0328 133.621 66.4774 134.381 65.6797C136.402 63.0433 132.748 58.6963 134.735 56.0107C136.642 58.5382 138.883 64.4094 141.734 65.5467C144.585 66.684 151.628 64.5765 154.742 64.2634C155.16 62.425 154.8 60.5285 154.85 58.6461C154.806 57.2743 154.846 55.9011 154.97 54.5342C155.016 54.2624 154.997 53.9231 155.34 53.7729L156.208 54.0928C158.535 56.5422 160.858 58.9608 163.145 61.4401C163.363 61.7366 163.662 61.9633 164.007 62.0926C164.352 62.2219 164.726 62.2482 165.086 62.1684C169.294 61.7396 173.546 62.1399 177.6 63.3466C178.011 63.4576 178.458 63.5298 178.879 63.6147L184.951 65.1059C184.968 64.7666 184.913 64.4276 184.79 64.1108C184.667 63.7941 184.479 63.5066 184.238 63.267C183.736 62.7313 183.23 62.1868 182.763 61.6344C182.297 61.082 181.706 60.4034 181.148 59.796C168.368 45.7392 151.469 37.6002 132.26 40.747C123.606 42.2358 115.354 45.5007 108.025 50.3358C104.272 52.7764 100.764 55.5742 97.5501 58.69C95.2273 60.8703 91.9553 66.8787 89.4001 68.1029L88.056 68.7354C87.5015 66.7022 88.866 65.3969 89.8729 63.9554L89.3922 64.1816C88.4853 63.4559 87.7497 62.5626 86.7663 61.9055C86.569 61.788 86.4112 61.6142 86.3135 61.4064C86.2157 61.1986 86.1823 60.9663 86.2176 60.7394C86.3778 60.1095 86.9087 60.1749 87.4015 60.1823L92.4595 60.1179C95.2781 55.4101 98.3491 50.8228 100.996 46.1197C100.305 44.8358 99.0544 44.3044 98.3355 43.2619L97.8941 42.0235C98.3735 41.8046 98.9128 41.7539 99.4246 41.8795C100.58 42.1623 101.754 42.3707 102.867 42.7493C103.225 42.914 103.63 42.9493 104.011 42.8492C104.392 42.7491 104.727 42.5199 104.958 42.2005C106.361 40.5616 107.959 39.0594 109.366 37.4294C110.774 35.7994 112.781 34.2893 113.926 32.2394C113.515 31.7367 113.028 31.3247 112.599 30.8743C111.619 29.8564 110.236 29.181 109.761 27.7086L110.659 27.1447C113.149 27.1468 115.571 27.6709 118.028 27.7646C119.932 24.6659 122.773 22.2547 126.14 20.8813L126.821 19.8325C126.106 19.2873 125.21 19.0361 124.316 19.1303C112.3 19.0115 100.107 25.2167 91.6029 33.4374C86.0535 38.783 82.3319 45.743 80.9679 53.3267C79.6769 60.6297 79.5408 68.0902 80.5647 75.4355C80.7736 77.0116 81.4527 78.6164 80.8548 80.2569L79.6374 79.8186C77.2923 76.1608 74.7308 72.6464 71.9665 69.2941C63.6663 59.6963 52.5417 53.7544 39.4693 55.6875C26.1979 57.66 16.3441 67.6572 10.6723 79.2635L10.3105 84.6635C13.0919 83.1806 15.7429 81.4438 18.6432 80.1442C21.3032 78.85 24.1764 78.0506 27.1225 77.7849L27.9744 76.1989L31.5523 71.7644C31.9849 73.1394 32.2857 74.5523 32.4508 75.9842C32.8126 77.7927 32.977 77.9111 34.7793 77.8132C37.0706 77.6917 39.3724 77.6849 41.7281 77.631C42.4449 75.0647 42.5873 72.4101 43.0586 69.8072C43.1128 69.0968 43.4336 68.4332 43.9566 67.9494L44.9064 69.2747C45.6777 71.2602 45.7101 73.4086 46.2735 75.4376C46.407 75.9292 46.7998 76.4403 46.5442 77.1911C49.6979 77.2618 52.6998 76.6864 55.7226 76.5251L62.3886 77.1283C61.5053 76.1523 61.7483 74.8202 61.3838 73.6762C60.9121 72.2347 60.8304 70.6748 60.2879 69.2449L71.0999 82.0314C62.348 81.3086 53.5491 82.6627 45.4195 85.9836C39.9818 88.1293 34.8714 91.5019 31.5004 96.3065C24.7652 106 26.1899 118.985 29.1205 129.718C30.1322 133.439 31.3302 137.094 32.546 140.74C33.0801 142.337 33.5204 145.468 35.2913 146.135L35.9814 144.505C36.75 139.207 37.0679 133.806 40.6279 129.38C40.7782 129.172 40.8518 128.918 40.8363 128.662C40.8207 128.406 40.7169 128.163 40.5426 127.974C38.9767 125.631 37.5433 123.202 36.249 120.699L36.1594 119.284C37.6732 119.289 38.7047 120.326 39.8807 121.023C41.0567 121.72 42.1317 122.41 43.368 123.166C45.5902 120.032 47.9443 117.087 49.8565 113.85L50.1377 113.5C49.7555 113.843 49.6947 113.436 49.5848 113.249C49.4079 112.804 49.2037 112.37 48.9732 111.949C47.6781 110.105 46.4895 108.189 45.4132 106.21L45.321 105.09C46.1206 105.06 46.9064 105.304 47.549 105.781C49.7068 107.201 51.9772 108.513 54.237 109.896C56.4514 107.278 58.571 104.758 60.678 102.212C60.9995 101.832 60.8691 101.393 60.6691 100.922C59.9292 99.0958 62.6761 90.7469 62.6761 90.7469L83.1324 85.6977" fill="#F5F378"/>
<path d="M102.604 78.1871C97.3511 77.3975 87.47 82.9933 84.3603 85.3265L83.1131 85.7721C83.4349 86.5463 83.99 87.2009 84.7012 87.645C86.7113 88.9823 105.123 101.954 105.826 100.373C106.911 98.0581 108.012 95.7783 109.072 93.4095C109.148 93.1747 109.275 92.9598 109.445 92.7804C109.614 92.601 109.822 92.4616 110.052 92.3722L110.744 93.2205C111.235 96.1103 111.302 99.0252 111.593 101.954C111.597 102.307 111.703 102.65 111.897 102.944C112.092 103.239 112.366 103.471 112.689 103.613C115.319 104.781 117.882 106.094 120.367 107.545C121.459 108.249 122.014 107.673 122.451 106.706C123.091 105.317 123.776 103.908 124.365 102.456C124.586 101.844 125.022 101.334 125.592 101.02L126.265 102.15C126.634 104.574 126.624 107.025 126.777 109.454C126.757 109.76 126.828 110.066 126.98 110.333C127.133 110.599 127.361 110.815 127.635 110.953C130.974 112.85 134.295 114.777 137.615 116.705L141.945 110.449C142.212 110.658 142.432 110.921 142.592 111.22C142.751 111.52 142.847 111.849 142.872 112.187C143.062 114.577 143.583 116.909 143.89 119.319C143.876 119.559 143.937 119.797 144.066 120C144.194 120.203 144.384 120.36 144.607 120.449C147.371 121.707 150.003 123.236 152.464 125.015C155.319 127.121 157.809 129.681 159.835 132.593C160.242 133.43 160.738 134.221 161.315 134.952L162.748 134.277C160.333 117.593 153.613 99.8698 140.429 88.7211C130.85 80.6744 118.834 76.0962 106.329 75.7277L111.449 73.2532C111.93 73.0768 112.345 72.7562 112.637 72.3353C112.835 71.876 112.884 71.3662 112.777 70.8775C112.476 68.004 112.176 65.1407 111.877 62.2877L117.649 69.933C117.777 70.1983 117.959 70.4341 118.183 70.6251C118.407 70.8162 118.668 70.9584 118.95 71.0426C119.233 71.1268 119.529 71.1511 119.821 71.114C120.114 71.0769 120.395 70.9793 120.647 70.8273L131.566 67.2762C132.641 67.0328 133.621 66.4774 134.381 65.6797C136.402 63.0433 132.748 58.6963 134.735 56.0107C136.642 58.5382 138.883 64.4094 141.734 65.5467C144.585 66.684 151.628 64.5765 154.742 64.2634C155.16 62.425 154.8 60.5285 154.85 58.6461C154.806 57.2743 154.846 55.9011 154.97 54.5342C155.016 54.2624 154.997 53.9231 155.34 53.7729L156.208 54.0928C158.535 56.5422 160.858 58.9608 163.145 61.4401C163.363 61.7366 163.662 61.9633 164.007 62.0926C164.352 62.2219 164.726 62.2482 165.086 62.1684C169.294 61.7396 173.546 62.1399 177.6 63.3466C178.011 63.4576 178.458 63.5298 178.879 63.6147L184.951 65.1059C184.968 64.7666 184.913 64.4276 184.79 64.1108C184.667 63.7941 184.479 63.5066 184.238 63.267C183.736 62.7313 183.23 62.1868 182.763 61.6344C182.297 61.082 181.706 60.4034 181.148 59.796C168.368 45.7392 151.469 37.6002 132.26 40.747C123.606 42.2358 115.354 45.5007 108.025 50.3358C104.272 52.7764 100.764 55.5742 97.5501 58.69C95.2273 60.8703 91.9553 66.8787 89.4001 68.1029L88.056 68.7354C87.5015 66.7023 88.866 65.3969 89.8729 63.9554L89.3922 64.1816C88.4853 63.4559 87.7497 62.5626 86.7663 61.9055C86.569 61.788 86.4112 61.6142 86.3135 61.4064C86.2157 61.1986 86.1823 60.9663 86.2176 60.7394C86.3778 60.1095 86.9087 60.1749 87.4015 60.1823L92.4595 60.1179C95.2781 55.4101 98.3491 50.8228 100.996 46.1197C100.305 44.8358 99.0544 44.3044 98.3355 43.2619L97.8941 42.0235C98.3735 41.8046 98.9128 41.7539 99.4246 41.8795C100.58 42.1623 101.754 42.3707 102.867 42.7493C103.225 42.914 103.63 42.9493 104.011 42.8492C104.392 42.7491 104.727 42.5199 104.958 42.2005C106.361 40.5616 107.959 39.0594 109.366 37.4294C110.774 35.7994 112.781 34.2893 113.926 32.2394C113.515 31.7367 113.028 31.3247 112.599 30.8743C111.619 29.8565 110.236 29.181 109.761 27.7086L110.659 27.1447C113.149 27.1468 115.571 27.6709 118.028 27.7646C119.932 24.666 122.773 22.2547 126.14 20.8813L126.821 19.8325C126.106 19.2873 125.21 19.0361 124.316 19.1303C112.3 19.0115 100.107 25.2167 91.6029 33.4374C86.0535 38.783 82.3319 45.743 80.9679 53.3267C79.6769 60.6297 79.5408 68.0902 80.5647 75.4355C80.7736 77.0116 81.4527 78.6164 80.8548 80.2569L79.6374 79.8186C77.2923 76.1608 74.7308 72.6464 71.9665 69.2941C63.6663 59.6963 52.5417 53.7544 39.4693 55.6875C26.1979 57.66 16.3441 67.6572 10.6723 79.2635L10.3105 84.6635C13.0919 83.1806 15.7429 81.4438 18.6432 80.1442C21.3032 78.85 24.1764 78.0506 27.1225 77.7849L27.9744 76.1989L31.5523 71.7644C31.9849 73.1394 32.2857 74.5523 32.4508 75.9842C32.8126 77.7927 32.977 77.9111 34.7793 77.8132C37.0706 77.6917 39.3724 77.6849 41.7281 77.631C42.4449 75.0647 42.5873 72.4101 43.0586 69.8072C43.1128 69.0968 43.4336 68.4332 43.9566 67.9494L44.9064 69.2747C45.6777 71.2602 45.7101 73.4086 46.2735 75.4376C46.407 75.9292 46.7998 76.4403 46.5442 77.1911C49.6979 77.2618 52.6998 76.6864 55.7226 76.5251L62.3886 77.1283C61.5053 76.1523 61.7483 74.8202 61.3838 73.6762C60.9121 72.2347 60.8304 70.6748 60.2879 69.2449L71.0999 82.0314C62.348 81.3086 53.5491 82.6627 45.4195 85.9836C39.9818 88.1293 34.8714 91.5019 31.5004 96.3065C24.7652 106 26.1899 118.985 29.1205 129.718C30.1322 133.439 31.3302 137.094 32.546 140.74C33.0801 142.337 33.5204 145.468 35.2913 146.135L35.9814 144.505C36.75 139.207 37.0679 133.806 40.6279 129.38C40.7782 129.172 40.8518 128.918 40.8363 128.662C40.8207 128.406 40.7169 128.163 40.5426 127.974C38.9767 125.631 37.5433 123.202 36.249 120.699L36.1594 119.284C37.6732 119.289 38.7047 120.326 39.8807 121.023C41.0567 121.72 42.1317 122.41 43.368 123.166C45.5902 120.032 47.9443 117.087 49.8565 113.85L50.1377 113.5C49.7555 113.843 49.6947 113.436 49.5848 113.249C49.4079 112.804 49.2037 112.37 48.9732 111.949C47.6781 110.105 46.4895 108.189 45.4132 106.21L45.321 105.09C46.1206 105.06 46.9064 105.304 47.549 105.781C49.7068 107.201 51.9772 108.513 54.237 109.896C56.4514 107.278 58.571 104.758 60.678 102.212C60.9995 101.832 60.8691 101.393 60.6691 100.922C59.9292 99.0958 62.6761 90.7469 62.6761 90.7469L83.1324 85.6977" stroke="#F5F378" stroke-width="1.57404" stroke-linecap="round" stroke-linejoin="round"/>
<path d="M77.8133 89.7614C79.4691 89.7614 81.0877 89.2704 82.4645 88.3505C83.8412 87.4305 84.9143 86.123 85.5479 84.5933C86.1816 83.0635 86.3474 81.3802 86.0243 79.7562C85.7013 78.1322 84.904 76.6405 83.7331 75.4697C82.5623 74.2988 81.0706 73.5015 79.4466 73.1784C77.8226 72.8554 76.1393 73.0212 74.6095 73.6549C73.0798 74.2885 71.7722 75.3616 70.8523 76.7383C69.9324 78.1151 69.4414 79.7337 69.4414 81.3895C69.4414 83.6098 70.3234 85.7393 71.8935 87.3093C73.4635 88.8793 75.5929 89.7614 77.8133 89.7614Z" fill="white" stroke="#242427" stroke-width="1.57404" stroke-miterlimit="1"/>
<path d="M92.6676 93.2434C94.2927 93.2434 95.8813 92.7614 97.2324 91.8584C98.5835 90.9553 99.6363 89.6718 100.258 88.1702C100.879 86.6687 101.041 85.0165 100.724 83.4228C100.406 81.829 99.6225 80.3654 98.4727 79.2169C97.3229 78.0685 95.8583 77.2869 94.2642 76.9711C92.6701 76.6553 91.0181 76.8193 89.5173 77.4426C88.0164 78.0658 86.7342 79.1202 85.8327 80.4724C84.9313 81.8245 84.4512 83.4137 84.4531 85.0388C84.4557 87.2157 85.3223 89.3026 86.8626 90.841C88.4028 92.3793 90.4907 93.2435 92.6676 93.2434Z" fill="white" stroke="#242427" stroke-width="1.57404" stroke-miterlimit="1"/>
<path fill-rule="evenodd" clip-rule="evenodd" d="M164.002 166.996C165.112 160.276 158.332 153.416 148.402 150.576C153.832 144.576 155.482 137.576 151.842 132.836C148.322 128.316 140.902 127.326 133.302 129.836C131.182 124.396 126.992 120.376 121.652 119.496C115.312 118.436 109.102 122.056 105.372 128.206C99.8017 125.996 93.9317 126.046 89.5017 128.996C84.1117 132.536 82.3317 139.306 84.2117 146.226C78.7717 148.476 74.8217 152.666 73.9417 157.976C72.7117 165.486 77.9417 172.906 86.3817 176.526C83.5817 181.036 83.0117 185.526 85.3817 188.656C88.3817 192.496 95.0717 193.086 102.262 190.656C103.268 193.878 105.135 196.766 107.659 199.007C110.184 201.248 113.273 202.759 116.592 203.376C124.812 204.756 132.732 200.106 136.462 192.446C141.292 195.066 146.072 195.646 149.272 193.536C153.482 190.766 153.822 184.166 150.692 177.126C157.782 175.926 163.072 172.196 163.922 167.026L164.002 166.996Z" fill="#353538"/>
<path d="M135.402 158.116C138.542 157.976 140.912 154.116 140.702 149.486C140.492 144.856 137.792 141.226 134.702 141.366C131.612 141.506 129.192 145.366 129.392 149.996C129.592 154.626 132.262 158.256 135.402 158.116Z" fill="white"/>
<path d="M124.001 158.626C127.131 158.486 129.511 154.626 129.301 149.996C129.091 145.366 126.381 141.726 123.301 141.866C120.221 142.006 117.781 145.866 117.991 150.496C118.201 155.126 120.901 158.766 124.001 158.626Z" fill="white"/>
<path d="M133.891 155.047C136.041 154.957 137.681 152.467 137.541 149.487C137.401 146.507 135.541 144.177 133.411 144.277C131.281 144.377 129.631 146.857 129.761 149.837C129.891 152.817 131.751 155.147 133.891 155.047Z" fill="#242427"/>
<path d="M123.162 155.556C125.162 155.466 126.642 152.986 126.512 150.016C126.382 147.046 124.662 144.696 122.682 144.786C120.702 144.876 119.202 147.356 119.332 150.336C119.462 153.316 121.182 155.646 123.162 155.556Z" fill="#242427"/>
<path d="M122.624 151.527C123.521 151.526 124.25 150.511 124.252 149.262C124.254 148.013 123.529 147.001 122.632 147.003C121.735 147.004 121.006 148.019 121.004 149.268C121.001 150.518 121.727 151.529 122.624 151.527Z" fill="white"/>
<path d="M124.763 153.407C125.173 153.407 125.506 152.943 125.507 152.371C125.508 151.799 125.177 151.337 124.767 151.337C124.357 151.338 124.025 151.802 124.023 152.374C124.022 152.945 124.354 153.408 124.763 153.407Z" fill="white"/>
<path d="M132.624 151.527C133.521 151.526 134.25 150.511 134.252 149.262C134.254 148.013 133.529 147.001 132.632 147.003C131.735 147.004 131.006 148.019 131.004 149.268C131.001 150.518 131.727 151.529 132.624 151.527Z" fill="white"/>
<path d="M134.763 153.407C135.173 153.407 135.506 152.943 135.507 152.371C135.508 151.799 135.177 151.337 134.767 151.337C134.357 151.338 134.025 151.802 134.023 152.374C134.022 152.945 134.354 153.408 134.763 153.407Z" fill="white"/>
<path d="M131.542 169.566C126.542 170.066 122.172 167.476 121.812 163.806C121.452 160.136 125.222 156.746 130.222 156.246C135.222 155.746 139.592 158.336 139.952 162.006C140.312 165.676 136.552 169.066 131.542 169.566Z" fill="white" stroke="#242427" stroke-width="1.6" stroke-miterlimit="10"/>
<path d="M140.001 162.156C137.591 164.156 134.491 160.646 130.811 161.016C127.131 161.386 125.811 165.276 121.351 164.016" stroke="#242427" stroke-width="1.6"/>
<path d="M132.132 163.046L134.562 161.876L127.242 162.606L129.862 163.276C130.622 163.467 131.425 163.386 132.132 163.046Z" fill="#242427" stroke="#242427" stroke-width="1.6" stroke-linecap="round" stroke-linejoin="round"/>
<path d="M139.631 189.776L144.181 185.036L153.391 202.186C153.796 203.202 154.42 204.116 155.219 204.862C156.017 205.609 156.971 206.17 158.011 206.506C163.011 207.916 168.871 202.696 171.071 194.856C173.271 187.016 171.001 179.476 166.001 178.086C161.001 176.696 155.141 181.896 152.941 189.726L147.001 181.276C146.702 180.847 146.306 180.494 145.846 180.244C145.386 179.995 144.875 179.856 144.351 179.838C143.828 179.821 143.309 179.925 142.833 180.144C142.357 180.362 141.939 180.688 141.611 181.096L136.001 187.996" fill="white"/>
<path d="M139.631 189.776L144.181 185.036L153.391 202.186C153.796 203.202 154.42 204.116 155.219 204.862C156.017 205.609 156.971 206.17 158.011 206.506C163.011 207.916 168.871 202.696 171.071 194.856C173.271 187.016 171.001 179.476 166.001 178.086C161.001 176.696 155.141 181.896 152.941 189.726L147.001 181.276C146.702 180.847 146.306 180.494 145.846 180.244C145.386 179.995 144.875 179.856 144.351 179.838C143.828 179.821 143.309 179.925 142.833 180.144C142.357 180.362 141.939 180.688 141.611 181.096L136.001 187.996" stroke="#242427" stroke-width="1.6" stroke-linecap="round" stroke-linejoin="round"/>
<path d="M156.202 200.616C154.642 194.316 157.762 182.836 164.762 180.796" stroke="#242427" stroke-width="1.6" stroke-linecap="round" stroke-linejoin="round"/>
<path d="M143.451 183.727L145.061 186.727" stroke="#242427" stroke-width="1.6" stroke-linecap="round" stroke-linejoin="round"/>
<path fill-rule="evenodd" clip-rule="evenodd" d="M152.622 194.786C152.622 194.786 152.162 193.786 152.622 190.636V194.786Z" fill="#F5F794"/>
<path d="M152.622 194.786C152.622 194.786 152.162 193.786 152.622 190.636" stroke="#242427" stroke-width="1.6" stroke-linecap="round" stroke-linejoin="round"/>
<path d="M121.751 191.266L125.751 186.346C126.08 185.938 126.499 185.612 126.975 185.394C127.452 185.175 127.972 185.071 128.496 185.088C129.02 185.106 129.532 185.245 129.993 185.494C130.454 185.744 130.85 186.097 131.151 186.526L137.001 194.996C139.191 187.156 145.001 181.936 150.061 183.346C155.121 184.756 157.371 192.246 155.181 200.086C152.991 207.926 147.181 213.146 142.111 211.736C141.07 211.398 140.117 210.835 139.318 210.086C138.52 209.338 137.896 208.423 137.491 207.406L128.281 190.266L124.771 193.916C124.417 194.314 123.92 194.555 123.388 194.586C122.856 194.617 122.334 194.435 121.936 194.081C121.538 193.727 121.298 193.23 121.267 192.698C121.236 192.166 121.417 191.644 121.771 191.246L121.751 191.266Z" fill="white" stroke="#242427" stroke-width="1.6" stroke-linecap="round" stroke-linejoin="round"/>
<path d="M140.332 205.846C138.772 199.546 141.902 188.076 148.902 186.036" stroke="#242427" stroke-width="1.6" stroke-linecap="round" stroke-linejoin="round"/>
<path d="M127.591 188.996L129.201 191.996" stroke="#242427" stroke-width="1.6" stroke-linecap="round" stroke-linejoin="round"/>
<path fill-rule="evenodd" clip-rule="evenodd" d="M136.771 199.996C136.771 199.996 136.301 198.996 136.771 195.846V199.996Z" fill="#F5F794"/>
<path d="M136.771 199.996C136.771 199.996 136.301 198.996 136.771 195.846" stroke="#242427" stroke-width="1.6" stroke-linecap="round" stroke-linejoin="round"/>
<path fill-rule="evenodd" clip-rule="evenodd" d="M95.1697 151.126L90.2397 142.126C89.9426 142.023 89.6276 141.98 89.3136 142.001C88.9996 142.023 88.6932 142.107 88.4128 142.25C88.1325 142.393 87.884 142.592 87.6824 142.833C87.4808 143.075 87.3302 143.355 87.2397 143.656L91.5197 152.426L95.1697 151.126Z" fill="#EFEFEF" stroke="#242427" stroke-width="1.6" stroke-linecap="round" stroke-linejoin="round"/>
<path fill-rule="evenodd" clip-rule="evenodd" d="M95.8198 181.297C96.0237 181.42 96.2675 181.46 96.4998 181.407C97.3038 181.447 98.1095 181.423 98.9098 181.337C100.55 181.2 102.078 180.45 103.19 179.237C105.28 176.907 107.27 173.117 107.54 171.007C107.91 168.007 97.6698 151.687 95.8998 150.097C94.8998 149.237 90.3198 149.957 90.3198 149.957L95.8198 181.297Z" fill="#D9D9D9" stroke="#242427" stroke-width="1.6" stroke-miterlimit="10" stroke-linecap="round"/>
<path fill-rule="evenodd" clip-rule="evenodd" d="M85.0881 159.916C84.8456 157.961 85.1143 155.977 85.8681 154.156C86.0888 153.596 86.3777 153.066 86.7281 152.576C87.7281 151.166 90.4581 148.786 92.2381 150.386C94.0181 151.986 104.238 168.326 103.878 171.296C103.518 174.266 97.7481 182.556 95.8181 181.296C95.0072 180.589 94.3473 179.725 93.8781 178.756C90.8345 173.979 88.2241 168.939 86.0781 163.696C85.5793 162.487 85.2463 161.215 85.0881 159.916Z" fill="#D9D9D9" stroke="#242427" stroke-width="1.6" stroke-miterlimit="10" stroke-linecap="round"/>
</g>
<defs>
<filter id="filter0_d_4052_966" x="3.1626" y="18.3242" width="219.64" height="243.128" filterUnits="userSpaceOnUse" color-interpolation-filters="sRGB">
<feFlood flood-opacity="0" result="BackgroundImageFix"/>
<feColorMatrix in="SourceAlpha" type="matrix" values="0 0 0 0 0 0 0 0 0 0 0 0 0 0 0 0 0 0 127 0" result="hardAlpha"/>
<feOffset dy="4"/>
<feGaussianBlur stdDeviation="2"/>
<feComposite in2="hardAlpha" operator="out"/>
<feColorMatrix type="matrix" values="0 0 0 0 0 0 0 0 0 0 0 0 0 0 0 0 0 0 0.25 0"/>
<feBlend mode="normal" in2="BackgroundImageFix" result="effect1_dropShadow_4052_966"/>
<feBlend mode="normal" in="SourceGraphic" in2="effect1_dropShadow_4052_966" result="shape"/>
</filter>
</defs>
</svg>
