<svg width="24" height="24" viewBox="0 0 24 24" fill="none" xmlns="http://www.w3.org/2000/svg">
<path fill-rule="evenodd" clip-rule="evenodd" d="M8.64653 3.87842C8.8238 3.87833 8.99933 3.91326 9.16305 3.98122C9.32677 4.04918 9.47544 4.14882 9.60053 4.27442L16.3505 11.0244C16.4759 11.1498 16.5754 11.2986 16.6433 11.4624C16.7112 11.6263 16.7461 11.8018 16.7461 11.9792C16.7461 12.1565 16.7112 12.3321 16.6433 12.4959C16.5754 12.6597 16.4759 12.8086 16.3505 12.9339L9.60053 19.6839C9.47615 19.8136 9.32712 19.9172 9.16218 19.9886C8.99724 20.06 8.81971 20.0977 8.64001 20.0995C8.4603 20.1014 8.28203 20.0673 8.11565 19.9994C7.94927 19.9314 7.79813 19.831 7.6711 19.7038C7.54408 19.5767 7.44371 19.4255 7.37589 19.2591C7.30807 19.0926 7.27416 18.9143 7.27616 18.7346C7.27815 18.5549 7.31601 18.3774 7.38751 18.2125C7.45901 18.0476 7.56271 17.8987 7.69253 17.7744L13.487 11.9784L7.69253 6.18392C7.50346 5.9952 7.37462 5.75463 7.32233 5.49265C7.27005 5.23068 7.29666 4.95908 7.3988 4.71224C7.50094 4.4654 7.67402 4.25441 7.89613 4.10598C8.11824 3.95755 8.37939 3.87835 8.64653 3.87842Z" fill="#B2B2B4"/>
</svg>
