<svg width="33" height="18" viewBox="0 0 33 18" fill="none" xmlns="http://www.w3.org/2000/svg">
<rect x="1" y="1" width="31" height="16" rx="4" fill="#F5F378"/>
<rect x="1" y="1" width="31" height="16" rx="4" stroke="#242427" stroke-width="2"/>
<path d="M6.39218 12.1578C6.11993 12.1578 5.91265 12.0742 5.77034 11.9072C5.62803 11.7401 5.55687 11.5019 5.55687 11.1925V6.78398C5.55687 6.35086 5.68681 6.00436 5.94668 5.74449C6.21274 5.47843 6.55305 5.3454 6.96761 5.3454C7.30792 5.3454 7.59564 5.43512 7.83076 5.61455C8.06588 5.79399 8.27316 6.07242 8.4526 6.44986C8.45878 6.46842 8.46497 6.4808 8.47116 6.48698C8.47735 6.49317 8.48353 6.50554 8.48972 6.52411L10.049 9.65186C10.0242 9.39199 10.0118 9.07952 10.0118 8.71446L9.99327 6.31064C9.99327 6.00127 10.0644 5.76305 10.2067 5.59599C10.3552 5.42893 10.5625 5.3454 10.8286 5.3454C11.0946 5.3454 11.3019 5.42893 11.4504 5.59599C11.5989 5.76305 11.6732 6.00127 11.6732 6.31064L11.6824 10.9141C11.6824 11.2915 11.568 11.5947 11.339 11.8237C11.1101 12.0464 10.8193 12.1578 10.4666 12.1578C10.1634 12.1578 9.91283 12.0804 9.71484 11.9258C9.51684 11.7711 9.3374 11.5298 9.17653 11.2018L9.14868 11.1369L7.18108 7.20163C7.19964 7.32538 7.20892 7.43985 7.20892 7.54504C7.22129 7.66879 7.22748 7.86369 7.22748 8.12975L7.23676 11.1925C7.24295 11.5019 7.17179 11.7401 7.0233 11.9072C6.8748 12.0742 6.66442 12.1578 6.39218 12.1578ZM13.6712 12C13.3927 12 13.1793 11.9165 13.0308 11.7494C12.8823 11.5823 12.808 11.3441 12.808 11.0348V6.46842C12.808 6.15905 12.8823 5.92083 13.0308 5.75377C13.1793 5.58671 13.3927 5.50318 13.6712 5.50318H16.901C17.1671 5.50318 17.3743 5.56815 17.5228 5.69808C17.6713 5.82183 17.7456 5.99817 17.7456 6.22711C17.7456 6.45605 17.6713 6.63548 17.5228 6.76542C17.3743 6.88917 17.1671 6.95104 16.901 6.95104H14.5343V8.01838H16.7711C17.0309 8.01838 17.232 8.08025 17.3743 8.204C17.5167 8.32775 17.5878 8.4979 17.5878 8.71446C17.5878 8.9434 17.5136 9.11974 17.3651 9.24349C17.2228 9.36105 17.0155 9.41983 16.7432 9.41983H14.5343V10.5521H17.0495C17.3156 10.5521 17.5228 10.614 17.6713 10.7378C17.8198 10.8615 17.8941 11.0409 17.8941 11.2761C17.8941 11.505 17.8198 11.6844 17.6713 11.8144C17.5228 11.9381 17.3156 12 17.0495 12H13.6712ZM20.7885 12.1578C20.4668 12.1578 20.1883 12.0681 19.9532 11.8886C19.7181 11.703 19.5634 11.4493 19.4891 11.1276L18.394 6.57051C18.3321 6.31683 18.3321 6.09717 18.394 5.91155C18.4558 5.72593 18.5579 5.58671 18.7002 5.4939C18.8487 5.3949 19.0096 5.3454 19.1829 5.3454C19.4366 5.3454 19.6376 5.41965 19.7861 5.56815C19.9408 5.71665 20.0491 5.94249 20.111 6.24567L20.7143 9.13212C20.739 9.27443 20.7607 9.39818 20.7792 9.50336C20.804 9.60236 20.8256 9.71374 20.8442 9.83749C20.8689 9.9798 20.8906 10.1221 20.9092 10.2644C20.9587 9.91174 21.0298 9.5343 21.1226 9.13212L21.7538 6.38489C21.8218 6.05695 21.9734 5.80327 22.2085 5.62383C22.4437 5.43821 22.7221 5.3454 23.0438 5.3454C23.3718 5.3454 23.6533 5.43821 23.8884 5.62383C24.1235 5.80327 24.272 6.05695 24.3339 6.38489L24.9094 9.13212C24.9403 9.24968 24.965 9.36724 24.9836 9.4848C25.0083 9.60855 25.03 9.73539 25.0486 9.86533C25.0671 9.98908 25.0888 10.1221 25.1135 10.2644C25.1754 9.83749 25.2373 9.46005 25.2992 9.13212L25.9117 6.24567C25.9674 5.9363 26.0695 5.71046 26.218 5.56815C26.3665 5.41965 26.5645 5.3454 26.812 5.3454C26.9852 5.3454 27.1399 5.3918 27.276 5.48462C27.4184 5.57124 27.5174 5.70427 27.573 5.88371C27.6287 6.06314 27.6287 6.2797 27.573 6.53339L26.45 11.109C26.3696 11.4369 26.2087 11.6937 25.9674 11.8793C25.7323 12.065 25.4477 12.1578 25.1135 12.1578C24.7856 12.1578 24.501 12.065 24.2597 11.8793C24.0184 11.6875 23.8668 11.4308 23.8049 11.109L23.1738 8.03694C23.1552 7.9565 23.1397 7.87606 23.1274 7.79563C23.1088 7.69663 23.0902 7.59144 23.0717 7.48007C23.0593 7.36251 23.0438 7.23566 23.0253 7.09954C22.9943 7.32229 22.9572 7.53266 22.9139 7.73066C22.9015 7.80491 22.8799 7.907 22.8489 8.03694L22.0879 11.1276C22.0136 11.4555 21.8589 11.7092 21.6238 11.8886C21.3949 12.0681 21.1164 12.1578 20.7885 12.1578Z" fill="#242427"/>
</svg>
