<svg width="142" height="195" viewBox="0 0 142 195" fill="none" xmlns="http://www.w3.org/2000/svg">
<path d="M136.871 25.1524L134.017 25.4594C133.508 25.5141 132.998 25.3655 132.6 25.0463C132.202 24.727 131.947 24.2632 131.893 23.757L130.63 12.0175C130.511 10.9159 129.958 9.90667 129.091 9.21193C128.224 8.51719 127.115 8.19387 126.007 8.31301L123.154 8.61998C122.645 8.67473 122.135 8.52611 121.737 8.20686C121.338 7.88761 121.084 7.42383 121.029 6.91759L120.724 4.07916C120.606 2.9775 120.052 1.96829 119.185 1.27355C118.318 0.578802 117.209 0.255482 116.101 0.374625L97.608 2.36408C96.5005 2.48322 95.4854 3.03507 94.7861 3.89831C94.0867 4.76155 93.7604 5.86541 93.8789 6.96707L94.1843 9.80551C94.2387 10.3117 94.0888 10.819 93.7674 11.2157C93.446 11.6124 92.9796 11.866 92.4707 11.9208L89.6172 12.2277C88.5096 12.3469 87.4946 12.8987 86.7952 13.762C86.0959 14.6252 85.7696 15.7291 85.8881 16.8307L86.1934 19.6692C86.2479 20.1754 86.0979 20.6827 85.7766 21.0794C85.4552 21.4761 84.9888 21.7297 84.4799 21.7844L79.3693 22.3342C78.8604 22.389 78.3507 22.2403 77.9523 21.9211C77.554 21.6018 77.2995 21.138 77.2451 20.6318L76.9397 17.7934C76.8212 16.6917 76.2676 15.6825 75.4006 14.9878C74.5337 14.293 73.4245 13.9697 72.317 14.0888L69.4634 14.3958C68.9545 14.4506 68.4448 14.3019 68.0464 13.9827C67.648 13.6634 67.3936 13.1997 67.3392 12.6934L67.0338 9.85499C66.9153 8.75333 66.3617 7.74413 65.4947 7.04938C64.6278 6.35464 63.5186 6.03132 62.411 6.15046L26.021 10.0652C24.9135 10.1843 23.8984 10.7362 23.1991 11.5994C22.4998 12.4627 22.1734 13.5665 22.292 14.6682L22.5973 17.5066C22.6518 18.0129 22.5018 18.5201 22.1804 18.9168C21.8591 19.3135 21.3927 19.5671 20.8837 19.6219L18.0302 19.9289C17.4818 19.9879 16.9503 20.1537 16.4661 20.417C15.982 20.6802 15.5545 21.0357 15.2083 21.4631C14.862 21.8905 14.6037 22.3816 14.448 22.9082C14.2924 23.4347 14.2425 23.9864 14.3011 24.5319L14.6065 27.3703C14.6609 27.8765 14.511 28.3838 14.1896 28.7805C13.8683 29.1772 13.4018 29.4308 12.8929 29.4855L10.0394 29.7925C8.93186 29.9117 7.91678 30.4635 7.21744 31.3268C6.51811 32.19 6.1918 33.2939 6.31031 34.3955L6.37416 34.989C6.49267 36.0907 7.0463 37.0999 7.91324 37.7946C8.78018 38.4894 9.88941 38.8127 10.9969 38.6935L13.8505 38.3866C14.3594 38.3318 14.8691 38.4804 15.2675 38.7997C15.6658 39.1189 15.9203 39.5827 15.9747 40.089L16.5216 45.1723C16.576 45.6786 16.4261 46.1859 16.1047 46.5825C15.7834 46.9792 15.3169 47.2328 14.808 47.2876L11.9545 47.5946C10.847 47.7137 9.83187 48.2656 9.13254 49.1288C8.4332 49.992 8.10689 51.0959 8.2254 52.1976L8.53075 55.036C8.58521 55.5422 8.43525 56.0495 8.11389 56.4462C7.79253 56.8429 7.32611 57.0965 6.81718 57.1513L3.96365 57.4582C2.85613 57.5774 1.84105 58.1292 1.14171 58.9925C0.44238 59.8557 0.116067 60.9596 0.23458 62.0612L2.21352 80.4568C2.33203 81.5584 2.88566 82.5676 3.7526 83.2624C4.61954 83.9571 5.72877 84.2805 6.83629 84.1613L7.43282 84.0971C8.54034 83.978 9.55542 83.4261 10.2548 82.5629C10.9541 81.6997 11.2804 80.5958 11.1619 79.4941L10.8565 76.6557C10.8021 76.1495 10.952 75.6422 11.2734 75.2455C11.5948 74.8488 12.0612 74.5952 12.5701 74.5404L15.4236 74.2335C16.5312 74.1143 17.5462 73.5625 18.2456 72.6992C18.9449 71.836 19.2712 70.7321 19.1527 69.6305L18.8474 66.792C18.7929 66.2858 18.9429 65.7785 19.2642 65.3818C19.5856 64.9852 20.052 64.7315 20.5609 64.6768L23.4145 64.3698C24.522 64.2507 25.5371 63.6988 26.2364 62.8356C26.9357 61.9723 27.2621 60.8685 27.1435 59.7668L26.8382 56.9284C26.7837 56.4221 26.9337 55.9149 27.2551 55.5182C27.5764 55.1215 28.0428 54.8679 28.5518 54.8131L31.4053 54.5061C31.9537 54.4471 32.4852 54.2813 32.9694 54.018C33.4535 53.7548 33.881 53.3993 34.2272 52.9719C34.5735 52.5445 34.8318 52.0534 34.9875 51.5268C35.1431 51.0003 35.193 50.4486 35.1344 49.9031L34.829 47.0647C34.7746 46.5585 34.9245 46.0512 35.2459 45.6545C35.5672 45.2578 36.0337 45.0042 36.5426 44.9495L50.6015 43.437C51.1104 43.3823 51.6201 43.5309 52.0185 43.8502C52.4169 44.1694 52.6713 44.6332 52.7258 45.1394L53.2726 50.2228C53.3271 50.729 53.1771 51.2363 52.8557 51.633C52.5344 52.0297 52.068 52.2833 51.559 52.3381L48.7055 52.645C47.598 52.7642 46.5829 53.316 45.8836 54.1793C45.1842 55.0425 44.8579 56.1464 44.9764 57.248L45.2818 60.0865C45.3362 60.5927 45.1863 61.1 44.8649 61.4967C44.5436 61.8933 44.0771 62.147 43.5682 62.2017L40.7147 62.5087C39.6072 62.6278 38.5921 63.1797 37.8927 64.0429C37.1934 64.9062 36.8671 66.01 36.9856 67.1117L38.2485 78.8511C38.303 79.3574 38.153 79.8647 37.8316 80.2614C37.5103 80.658 37.0439 80.9117 36.5349 80.9664L33.6814 81.2734C32.5739 81.3925 31.5588 81.9444 30.8595 82.8076C30.1601 83.6709 29.8338 84.7747 29.9523 85.8764L31.9313 104.272C31.9899 104.817 32.1561 105.346 32.4201 105.827C32.6842 106.309 33.0411 106.734 33.4703 107.078C33.8996 107.422 34.3928 107.678 34.9219 107.832C35.451 107.986 36.0056 108.035 36.554 107.976L37.1506 107.912C37.699 107.853 38.2304 107.687 38.7146 107.424C39.1988 107.161 39.6262 106.805 39.9725 106.378C40.3188 105.951 40.5771 105.46 40.7328 104.933C40.8884 104.406 40.9383 103.855 40.8796 103.309L39.6167 91.5698C39.5623 91.0636 39.7122 90.5563 40.0336 90.1596C40.355 89.7629 40.8214 89.5093 41.3303 89.4546L44.1838 89.1476C45.2914 89.0285 46.3065 88.4766 47.0058 87.6134C47.7051 86.7501 48.0314 85.6463 47.9129 84.5446L47.6076 81.7062C47.5531 81.1999 47.7031 80.6926 48.0244 80.296C48.3458 79.8993 48.8122 79.6457 49.3211 79.5909L52.1747 79.2839C52.7231 79.2249 53.2545 79.0591 53.7387 78.7958C54.2229 78.5326 54.6503 78.1771 54.9966 77.7497C55.3429 77.3223 55.6012 76.8312 55.7569 76.3046C55.9125 75.7781 55.9624 75.2264 55.9037 74.6809L54.6408 62.9415C54.5864 62.4352 54.7363 61.928 55.0577 61.5313C55.3791 61.1346 55.8455 60.881 56.3544 60.8262L70.4133 59.3138C70.9222 59.2591 71.4319 59.4077 71.8303 59.7269C72.2287 60.0462 72.4831 60.51 72.5376 61.0162L74.042 75.0006C74.0964 75.5068 73.9465 76.0141 73.6251 76.4108C73.3038 76.8075 72.8373 77.0611 72.3284 77.1159L69.4749 77.4228C68.3674 77.542 67.3523 78.0938 66.6529 78.9571C65.9536 79.8203 65.6273 80.9242 65.7458 82.0258L67.0087 93.7653C67.0632 94.2715 66.9132 94.7788 66.5918 95.1755C66.2705 95.5722 65.8041 95.8258 65.2951 95.8805L62.4416 96.1875C61.3341 96.3067 60.319 96.8585 59.6197 97.7217C58.9203 98.585 58.594 99.6889 58.7125 100.791L60.933 121.431C60.9874 121.937 60.8375 122.445 60.5161 122.841C60.1948 123.238 59.7283 123.492 59.2194 123.546L56.3659 123.853C55.2583 123.972 54.2433 124.524 53.5439 125.387C52.8446 126.251 52.5183 127.355 52.6368 128.456L58.4459 182.456C58.5644 183.558 59.1181 184.567 59.985 185.261C60.8519 185.956 61.9612 186.28 63.0687 186.16L65.9222 185.853C66.4312 185.799 66.9408 185.947 67.3392 186.267C67.7376 186.586 67.992 187.05 68.0465 187.556L68.3518 190.394C68.4704 191.496 69.024 192.505 69.8909 193.2C70.7579 193.895 71.8671 194.218 72.9746 194.099L82.5195 193.072C83.627 192.953 84.6421 192.401 85.3414 191.538C86.0408 190.675 86.3671 189.571 86.2486 188.469L85.9432 185.631C85.8888 185.124 86.0387 184.617 86.3601 184.22C86.6815 183.824 87.1479 183.57 87.6568 183.515L90.5103 183.208C91.6179 183.089 92.6329 182.537 93.3323 181.674C94.0316 180.811 94.3579 179.707 94.2394 178.605L86.2737 104.559C86.2192 104.052 86.3692 103.545 86.6905 103.148C87.0119 102.752 87.4783 102.498 87.9873 102.443L90.8408 102.136C91.9483 102.017 92.9634 101.465 93.6627 100.602C94.3621 99.739 94.6884 98.6351 94.5699 97.5335L92.3494 76.893C92.295 76.3867 92.4449 75.8794 92.7663 75.4828C93.0876 75.0861 93.5541 74.8325 94.063 74.7777L96.9165 74.4707C97.4649 74.4117 97.9964 74.2459 98.4806 73.9826C98.9648 73.7194 99.3922 73.3639 99.7385 72.9365C100.085 72.5091 100.343 72.018 100.499 71.4914C100.654 70.9649 100.704 70.4132 100.646 69.8677L100.34 67.0293C100.286 66.5231 100.436 66.0158 100.757 65.6191C101.078 65.2224 101.545 64.9688 102.054 64.914L107.164 64.3643C107.673 64.3095 108.183 64.4581 108.581 64.7774C108.98 65.0966 109.234 65.5604 109.289 66.0667L109.594 68.9051C109.712 70.0068 110.266 71.016 111.133 71.7107C112 72.4055 113.109 72.7288 114.217 72.6096L117.07 72.3027C117.579 72.2479 118.089 72.3965 118.487 72.7158C118.886 73.035 119.14 73.4988 119.195 74.0051L120.457 85.7445C120.576 86.8462 121.13 87.8554 121.997 88.5501C122.863 89.2449 123.973 89.5682 125.08 89.449L125.677 89.3849C126.784 89.2657 127.799 88.7139 128.499 87.8506C129.198 86.9874 129.524 85.8835 129.406 84.7819L128.143 73.0424C128.088 72.5362 128.238 72.0289 128.56 71.6322C128.881 71.2355 129.348 70.9819 129.856 70.9272L132.71 70.6202C133.818 70.501 134.833 69.9492 135.532 69.086C136.231 68.2227 136.558 67.1188 136.439 66.0172L134.46 47.6216C134.342 46.52 133.788 45.5108 132.921 44.816C132.054 44.1213 130.945 43.798 129.837 43.9171L118.035 45.1867C117.527 45.2415 117.017 45.0928 116.618 44.7736C116.22 44.4543 115.966 43.9906 115.911 43.4843L115.606 40.6459C115.547 40.1004 115.381 39.572 115.117 39.0906C114.853 38.6092 114.496 38.1843 114.067 37.8403C113.638 37.4963 113.144 37.2399 112.615 37.0856C112.086 36.9314 111.531 36.8824 110.983 36.9414L108.13 37.2483C107.621 37.3031 107.111 37.1545 106.713 36.8352C106.314 36.516 106.06 36.0522 106.005 35.5459L105.458 30.4626C105.404 29.9563 105.554 29.449 105.875 29.0524C106.197 28.6557 106.663 28.4021 107.172 28.3473L130.179 25.8723C130.688 25.8175 131.198 25.9661 131.596 26.2854C131.995 26.6046 132.249 27.0684 132.304 27.5747L132.609 30.4131C132.668 30.9586 132.834 31.487 133.098 31.9684C133.362 32.4498 133.719 32.8747 134.148 33.2187C134.577 33.5627 135.07 33.8191 135.6 33.9733C136.129 34.1276 136.683 34.1766 137.232 34.1176L137.828 34.0534C138.377 33.9945 138.908 33.8286 139.392 33.5653C139.876 33.3021 140.304 32.9466 140.65 32.5192C140.996 32.0918 141.255 31.6007 141.41 31.0741C141.566 30.5476 141.616 29.9959 141.557 29.4504L141.493 28.8569C141.435 28.3115 141.269 27.783 141.005 27.3016C140.74 26.8203 140.384 26.3953 139.954 26.0513C139.525 25.7073 139.032 25.4509 138.503 25.2967C137.974 25.1424 137.419 25.0934 136.871 25.1524ZM91.6972 70.8304L91.9387 73.0753C91.9932 73.5816 91.8432 74.0888 91.5219 74.4855C91.2005 74.8822 90.7341 75.1358 90.2251 75.1906L85.1146 75.7404C84.6057 75.7951 84.096 75.6465 83.6976 75.3272C83.2992 75.008 83.0448 74.5442 82.9904 74.038L80.5284 51.1525C80.4739 50.6463 80.6239 50.139 80.9453 49.7423C81.2666 49.3457 81.7331 49.092 82.242 49.0373L87.3525 48.4875C87.8614 48.4328 88.3711 48.5814 88.7695 48.9006C89.1679 49.2199 89.4223 49.6837 89.4768 50.1899L91.6972 70.8304ZM94.3858 29.7228C94.8947 29.6681 95.4044 29.8167 95.8028 30.1359C96.2012 30.4552 96.4556 30.919 96.5101 31.4252L97.0569 36.5086C97.1114 37.0148 96.9614 37.5221 96.64 37.9188C96.3187 38.3155 95.8523 38.5691 95.3433 38.6238L90.2328 39.1736C89.7239 39.2284 89.2142 39.0797 88.8158 38.7605C88.4174 38.4412 88.163 37.9775 88.1085 37.4712L87.5617 32.3879C87.5072 31.8816 87.6572 31.3743 87.9785 30.9776C88.2999 30.581 88.7663 30.3273 89.2753 30.2726L94.3858 29.7228ZM57.6348 24.6723C58.1437 24.6176 58.6534 24.7662 59.0518 25.0855C59.4501 25.4047 59.7046 25.8685 59.759 26.3747L60.3059 31.4581C60.3603 31.9644 60.2104 32.4716 59.889 32.8683C59.5677 33.265 59.1012 33.5186 58.5923 33.5734L53.4818 34.1231C52.9728 34.1779 52.4632 34.0293 52.0648 33.71C51.6664 33.3908 51.412 32.927 51.3575 32.4208L50.8107 27.3374C50.7562 26.8311 50.9062 26.3239 51.2275 25.9272C51.5489 25.5305 52.0153 25.2769 52.5242 25.2221L57.6348 24.6723ZM63.3877 42.0615C62.8788 42.1163 62.3691 41.9677 61.9707 41.6484C61.5723 41.3292 61.3179 40.8654 61.2634 40.3591L60.7166 35.2758C60.6621 34.7695 60.8121 34.2622 61.1334 33.8656C61.4548 33.4689 61.9212 33.2153 62.4302 33.1605L67.5407 32.6107C68.0496 32.556 68.5593 32.7046 68.9577 33.0239C69.3561 33.3431 69.6105 33.8069 69.6649 34.3131L70.2118 39.3965C70.2663 39.9027 70.1163 40.41 69.7949 40.8067C69.4736 41.2034 69.0072 41.457 68.4982 41.5118L63.3877 42.0615ZM73.2745 22.9899L75.5315 22.7471C76.0404 22.6923 76.5501 22.8409 76.9485 23.1602C77.3469 23.4794 77.6013 23.9432 77.6558 24.4495L78.2026 29.5328C78.2571 30.0391 78.1071 30.5464 77.7858 30.943C77.4644 31.3397 76.998 31.5933 76.489 31.6481L71.3785 32.1979C70.8696 32.2526 70.3599 32.104 69.9615 31.7847C69.5631 31.4655 69.3087 31.0017 69.2543 30.4955L68.7074 25.4121C68.6529 24.9059 68.8029 24.3986 69.1243 24.0019C69.4456 23.6052 69.912 23.3516 70.421 23.2968L73.2745 22.9899ZM37.842 35.8056L17.6883 37.9737C17.1794 38.0285 16.6697 37.8798 16.2713 37.5606C15.8729 37.2413 15.6185 36.7775 15.564 36.2713L15.0172 31.1879C14.9627 30.6817 15.1127 30.1744 15.434 29.7777C15.7554 29.3811 16.2218 29.1274 16.7308 29.0727L39.738 26.5976C40.247 26.5429 40.7566 26.6915 41.155 27.0108C41.5534 27.33 41.8078 27.7938 41.8623 28.3L42.4091 33.3834C42.4636 33.8896 42.3136 34.3969 41.9923 34.7936C41.6709 35.1903 41.2045 35.4439 40.6956 35.4987L37.842 35.8056ZM80.9654 184.235L69.7601 185.441C69.2511 185.495 68.7414 185.347 68.3431 185.027C67.9447 184.708 67.6903 184.244 67.6358 183.738L67.0889 178.655C67.0345 178.149 67.1844 177.641 67.5058 177.245C67.8272 176.848 68.2936 176.594 68.8025 176.54L71.656 176.233C72.7636 176.113 73.7787 175.562 74.478 174.698C75.1773 173.835 75.5036 172.731 75.3851 171.63L75.3213 171.036C75.2028 169.934 74.6491 168.925 73.7822 168.23C72.9153 167.536 71.806 167.212 70.6985 167.332L67.845 167.639C67.593 167.666 67.3381 167.643 67.095 167.572C66.8518 167.501 66.6252 167.383 66.428 167.225C66.2307 167.067 66.0667 166.872 65.9454 166.651C65.824 166.43 65.7477 166.187 65.7207 165.936L65.1739 160.853C65.1194 160.347 65.2694 159.839 65.5907 159.443C65.9121 159.046 66.3785 158.792 66.8874 158.737L69.741 158.431C70.8485 158.311 71.8636 157.76 72.5629 156.896C73.2622 156.033 73.5885 154.929 73.47 153.828L73.4062 153.234C73.2877 152.132 72.734 151.123 71.8671 150.428C71.0002 149.734 69.8909 149.41 68.7834 149.529L65.9299 149.836C65.4209 149.891 64.9113 149.743 64.5129 149.423C64.1145 149.104 63.8601 148.64 63.8056 148.134L63.2588 143.051C63.2043 142.544 63.3543 142.037 63.6756 141.641C63.997 141.244 64.4634 140.99 64.9723 140.935L67.8259 140.628C68.9334 140.509 69.9485 139.957 70.6478 139.094C71.3471 138.231 71.6734 137.127 71.5549 136.025L71.4911 135.432C71.3726 134.33 70.8189 133.321 69.952 132.626C69.0851 131.932 67.9758 131.608 66.8683 131.727L64.0148 132.034C63.7628 132.062 63.5079 132.039 63.2648 131.968C63.0217 131.897 62.795 131.779 62.5978 131.621C62.4005 131.463 62.2365 131.268 62.1152 131.047C61.9938 130.826 61.9175 130.583 61.8905 130.332L61.3437 125.249C61.2892 124.742 61.4392 124.235 61.7605 123.838C62.0819 123.442 62.5483 123.188 63.0572 123.133L65.9108 122.826C67.0183 122.707 68.0334 122.155 68.7327 121.292C69.432 120.429 69.7584 119.325 69.6398 118.223L67.4194 97.5829C67.3649 97.0767 67.5149 96.5694 67.8363 96.1727C68.1576 95.7761 68.624 95.5224 69.133 95.4677L71.9865 95.1607C73.094 95.0416 74.1091 94.4897 74.8084 93.6265C75.5078 92.7632 75.8341 91.6594 75.7156 90.5577L74.4527 78.8183C74.3982 78.312 74.5482 77.8047 74.8695 77.4081C75.1909 77.0114 75.6573 76.7577 76.1663 76.703L81.2768 76.1532C81.7857 76.0985 82.2954 76.2471 82.6938 76.5663C83.0922 76.8856 83.3466 77.3494 83.401 77.8556L85.863 100.741C85.89 100.992 85.867 101.245 85.7955 101.487C85.724 101.729 85.6052 101.955 85.4461 102.151C85.287 102.348 85.0906 102.511 84.8681 102.632C84.6456 102.753 84.4014 102.829 84.1494 102.856L81.2959 103.163C80.1884 103.282 79.1733 103.834 78.4739 104.697C77.7746 105.561 77.4483 106.665 77.5668 107.766L85.5325 181.813C85.5595 182.064 85.5366 182.317 85.4651 182.559C85.3935 182.801 85.2748 183.027 85.1157 183.223C84.9566 183.42 84.7602 183.583 84.5377 183.704C84.3152 183.825 84.071 183.901 83.819 183.928L80.9654 184.235ZM111.941 45.8424L114.198 45.5996C114.707 45.5448 115.216 45.6935 115.615 46.0127C116.013 46.332 116.267 46.7957 116.322 47.302L117.826 61.2864C117.881 61.7926 117.731 62.2999 117.409 62.6966C117.088 63.0933 116.622 63.3469 116.113 63.4016L111.002 63.9514C110.493 64.0062 109.984 63.8575 109.585 63.5383C109.187 63.219 108.932 62.7553 108.878 62.249L108.573 59.4106C108.454 58.3089 107.9 57.2997 107.033 56.605C106.167 55.9102 105.057 55.5869 103.95 55.7061L101.096 56.013C100.587 56.0678 100.078 55.9192 99.6793 55.5999C99.2809 55.2806 99.0265 54.8169 98.972 54.3106L98.4251 49.2273C98.3707 48.721 98.5207 48.2137 98.842 47.8171C99.1634 47.4204 99.6298 47.1668 100.139 47.112L111.941 45.8424Z" fill="#E8E8E8"/>
</svg>
