<svg width="20" height="24" viewBox="0 0 20 24" fill="none" xmlns="http://www.w3.org/2000/svg">
<path d="M1.75195 21.5404L4.69889 15.6758L9.9097 17.5396L6.66026 23.9994L5.09897 21.1598L1.74219 21.5306L1.75195 21.5404Z" fill="#F5F378"/>
<path d="M1.75195 21.5404L4.69889 15.6758L9.9097 17.5396L6.66026 23.9994L5.09897 21.1598L1.74219 21.5306L1.75195 21.5404Z" fill="#A2A141"/>
<path d="M18.2124 21.5404L15.2655 15.6758L10.0547 17.5396L13.3041 23.9994L14.8654 21.1598L18.2222 21.5306H18.2124V21.5404Z" fill="#F5F378"/>
<path d="M18.2124 21.5404L15.2655 15.6758L10.0547 17.5396L13.3041 23.9994L14.8654 21.1598L18.2222 21.5306H18.2124V21.5404Z" fill="#A2A141"/>
<path d="M8.24894 0.717219C9.03934 -0.239073 10.5128 -0.239073 11.3032 0.717219C11.8204 1.34174 12.6596 1.58569 13.4305 1.34174C14.621 0.970929 15.8505 1.76133 16.0066 2.99085C16.1042 3.79101 16.6799 4.45456 17.4606 4.66924C18.6608 4.99126 19.2756 6.32812 18.7291 7.45029C18.3778 8.18215 18.5047 9.05062 19.0414 9.64586C19.8708 10.5729 19.6659 12.0171 18.6023 12.6709C17.9094 13.0905 17.5484 13.8906 17.685 14.6908C17.8899 15.9203 16.9239 17.023 15.6846 17.0035C14.8747 16.9839 14.1428 17.4621 13.8208 18.2037C13.3231 19.3454 11.918 19.7552 10.8836 19.0624C10.2103 18.6135 9.33208 18.6135 8.66853 19.0624C7.63418 19.7552 6.22901 19.3454 5.73135 18.2037C5.40933 17.4621 4.67748 16.9839 3.86756 17.0035C2.62828 17.0327 1.66223 15.9203 1.86715 14.6908C1.99401 13.8906 1.63296 13.1002 0.949892 12.6709C-0.113739 12.0171 -0.318659 10.5631 0.510778 9.64586C1.05723 9.05062 1.17433 8.18215 0.823036 7.45029C0.286342 6.32812 0.891343 4.99126 2.09159 4.66924C2.87223 4.45456 3.44796 3.79101 3.54554 2.99085C3.69191 1.75158 4.93119 0.961171 6.12167 1.34174C6.89256 1.58569 7.73176 1.34174 8.24894 0.717219Z" fill="#F5F378"/>
<path d="M9.72059 13.4512C9.23269 13.4512 8.8326 13.0511 8.8326 12.5632V8.08428L8.1593 8.50388C8.05196 8.57218 7.91534 8.61121 7.77873 8.61121C7.37865 8.61121 7.04688 8.2892 7.04688 7.88912C7.04688 7.63541 7.19325 7.40121 7.38841 7.27436L9.29123 6.07411C9.41809 5.99605 9.58398 5.9375 9.74986 5.9375C10.228 5.9375 10.6086 6.32782 10.6086 6.79621V12.5632C10.6086 13.0511 10.2085 13.4512 9.72059 13.4512Z" fill="#848326"/>
</svg>
