<svg width="20" height="20" viewBox="0 0 20 20" fill="none" xmlns="http://www.w3.org/2000/svg">
<path d="M15 5L1.55712 8.6608C0.524175 8.94464 -0.152334 9.95627 0.029523 11.0116C0.596917 14.3449 5.65982 19.4103 8.98417 19.9707C10.0389 20.1526 11.0501 19.4685 11.3338 18.4423L15 5Z" fill="#FF99B1"/>
<path d="M14.6336 1.2638L13.9296 1.60771C13.8541 1.63868 13.7697 1.64181 13.692 1.61651C13.6143 1.5912 13.5486 1.53919 13.5072 1.47015L13.1553 0.782334C13.1235 0.708556 13.1203 0.62604 13.1462 0.55013C13.1721 0.474221 13.2254 0.410083 13.296 0.369646L14 0.0257391C14.0755 -0.0052349 14.16 -0.00836096 14.2377 0.0169423C14.3154 0.0422455 14.381 0.0942559 14.4224 0.163302L14.7744 0.851115C14.8112 0.924169 14.8171 1.00845 14.7907 1.0857C14.7644 1.16295 14.7079 1.22694 14.6336 1.2638Z" fill="#8CD5FE"/>
<path d="M19.7742 11.9248L19.9854 11.1682C19.9982 11.1321 20.0028 11.0936 19.9988 11.0556C19.9947 11.0176 19.9822 10.9808 19.9621 10.948C19.9419 10.9152 19.9147 10.8872 19.8822 10.8658C19.8498 10.8444 19.8129 10.8302 19.7742 10.8243L18.9998 10.618C18.9629 10.6054 18.9235 10.601 18.8846 10.6049C18.8456 10.6088 18.8081 10.6211 18.7745 10.6408C18.7409 10.6604 18.7122 10.6871 18.6903 10.7188C18.6684 10.7505 18.6539 10.7865 18.6479 10.8243L18.4367 11.5121C18.4238 11.5483 18.4193 11.5867 18.4233 11.6247C18.4273 11.6628 18.4399 11.6995 18.46 11.7323C18.4801 11.7651 18.5074 11.7932 18.5399 11.8146C18.5723 11.8359 18.6092 11.8501 18.6479 11.856L19.4222 12.0624C19.563 12.1999 19.7038 12.1312 19.7742 11.9248Z" fill="#FFC98D"/>
<path d="M18.1492 4.15213C18.2745 4.15213 18.397 4.11582 18.5012 4.0478C18.6054 3.97978 18.6866 3.8831 18.7346 3.76999C18.7825 3.65687 18.7951 3.53241 18.7706 3.41233C18.7462 3.29225 18.6858 3.18195 18.5972 3.09537C18.5086 3.0088 18.3957 2.94984 18.2728 2.92596C18.1499 2.90207 18.0225 2.91433 17.9067 2.96118C17.791 3.00804 17.692 3.08738 17.6224 3.18918C17.5528 3.29098 17.5156 3.41066 17.5156 3.53309C17.5156 3.69727 17.5824 3.85473 17.7012 3.97082C17.82 4.08691 17.9812 4.15213 18.1492 4.15213Z" fill="#7FEC93"/>
<path d="M5.48514 6.83572C5.61045 6.83572 5.73295 6.79941 5.83714 6.73139C5.94133 6.66337 6.02254 6.56669 6.07049 6.45358C6.11844 6.34047 6.13099 6.216 6.10654 6.09592C6.0821 5.97584 6.02175 5.86554 5.93315 5.77897C5.84454 5.69239 5.73165 5.63344 5.60874 5.60955C5.48584 5.58567 5.35845 5.59792 5.24268 5.64478C5.12691 5.69163 5.02796 5.77097 4.95834 5.87277C4.88872 5.97457 4.85156 6.09426 4.85156 6.21669C4.85156 6.38087 4.91831 6.53832 5.03713 6.65441C5.15595 6.7705 5.3171 6.83572 5.48514 6.83572Z" fill="#FFC98D"/>
<path d="M14.3486 14.9507C14.5017 14.9507 14.6515 14.9063 14.7788 14.8232C14.9062 14.74 15.0054 14.6219 15.064 14.4836C15.1226 14.3454 15.138 14.1933 15.1081 14.0465C15.0782 13.8997 15.0045 13.7649 14.8962 13.6591C14.7879 13.5533 14.6499 13.4812 14.4997 13.452C14.3494 13.4228 14.1937 13.4378 14.0523 13.4951C13.9108 13.5524 13.7898 13.6493 13.7047 13.7738C13.6196 13.8982 13.5742 14.0445 13.5742 14.1941C13.5742 14.2935 13.5942 14.3918 13.6332 14.4836C13.6721 14.5754 13.7291 14.6588 13.801 14.7291C13.8729 14.7993 13.9583 14.8551 14.0523 14.8931C14.1462 14.9311 14.2469 14.9507 14.3486 14.9507Z" fill="#FF99B1"/>
</svg>
