<svg width="96" height="59" viewBox="0 0 96 59" fill="none" xmlns="http://www.w3.org/2000/svg">
<path fill-rule="evenodd" clip-rule="evenodd" d="M95.0687 51.0192C96.226 44.0329 89.1716 36.8934 78.841 33.9406C84.4914 27.7541 86.2018 20.3678 82.415 15.4918C78.7559 10.786 71.0377 9.75639 63.1324 12.3263C60.9284 6.66742 56.5715 2.48922 51.0147 1.57019C44.4198 0.472458 37.9611 4.23368 34.0807 10.6329C28.3112 8.32678 22.2014 8.4289 17.5977 11.4413C11.9899 15.1259 10.1348 22.1633 12.092 29.3624C6.43314 31.7025 2.32302 36.068 1.4125 41.5821C0.127556 49.3939 5.61622 57.1121 14.3555 60.8818C11.4368 65.5706 10.8496 70.2764 13.3429 73.493C16.4489 77.4925 23.4267 78.1052 30.8981 75.6034C33.1872 82.394 38.7014 87.6359 45.8069 88.8272C54.359 90.2654 62.5963 85.4234 66.4681 77.4585C71.4973 80.1815 76.4668 80.7942 79.8026 78.5987C84.1765 75.714 84.5339 68.8468 81.2747 61.5286C88.6525 60.2777 94.1497 56.3973 95.0347 51.0192H95.0602H95.0687Z" fill="#242427" stroke="#242427" stroke-width="1.34238" stroke-miterlimit="10" stroke-linecap="round"/>
<path d="M41.254 39.6497C44.5203 39.6497 47.1681 35.7446 47.1681 30.9274C47.1681 26.1102 44.5203 22.2051 41.254 22.2051C37.9877 22.2051 35.3398 26.1102 35.3398 30.9274C35.3398 35.7446 37.9877 39.6497 41.254 39.6497Z" fill="white"/>
<path d="M53.0899 39.6497C56.3562 39.6497 59.0041 35.7446 59.0041 30.9274C59.0041 26.1102 56.3562 22.2051 53.0899 22.2051C49.8236 22.2051 47.1758 26.1102 47.1758 30.9274C47.1758 35.7446 49.8236 39.6497 53.0899 39.6497Z" fill="white"/>
<path d="M41.8748 36.5359C44.1118 36.5359 45.9253 34.0252 45.9253 30.9281C45.9253 27.831 44.1118 25.3203 41.8748 25.3203C39.6377 25.3203 37.8242 27.831 37.8242 30.9281C37.8242 34.0252 39.6377 36.5359 41.8748 36.5359Z" fill="#242427"/>
<path d="M52.1537 36.5359C54.2168 36.5359 55.8894 34.0252 55.8894 30.9281C55.8894 27.831 54.2168 25.3203 52.1537 25.3203C50.0905 25.3203 48.418 27.831 48.418 30.9281C48.418 34.0252 50.0905 36.5359 52.1537 36.5359Z" fill="#242427"/>
<path d="M46.9015 51.4451C52.1349 51.4451 56.3812 48.3306 56.3812 44.4843C56.3812 40.6379 52.1349 37.5234 46.9015 37.5234C41.6681 37.5234 37.4219 40.6379 37.4219 44.4843C37.4219 48.3306 41.6681 51.4451 46.9015 51.4451Z" fill="white" stroke="#242427" stroke-width="1.34238" stroke-miterlimit="10"/>
<path d="M37.4219 44.6372C40.1194 46.4071 42.9701 42.5098 46.8164 42.5098C50.6628 42.5098 52.3817 46.4071 56.9088 44.6372" stroke="#242427" stroke-width="1.34238"/>
<path d="M45.638 44.7487L43 43.7871H50.6586L48.0206 44.7487C47.2548 45.0295 46.4123 45.0295 45.638 44.7487Z" fill="#242427" stroke="#242427" stroke-width="1.34238" stroke-linecap="round" stroke-linejoin="round"/>
</svg>
