<svg width="20" height="20" viewBox="0 0 20 20" fill="none" xmlns="http://www.w3.org/2000/svg">
<circle cx="10" cy="10" r="10" fill="#353538"/>
<path d="M10.7263 14.7883C10.5147 14.9263 10.257 15 9.99933 15C9.74166 15 9.49318 14.9263 9.27232 14.7883C8.01155 13.9505 5.60043 12.275 4.53292 10.3141C3.07889 7.70873 4.8274 5.00213 7.04526 5.00213C7.533 5.00213 8.01155 5.1126 8.45328 5.32434C8.88581 5.53609 9.27232 5.83989 9.56681 6.21734C9.62202 6.28178 9.68644 6.33702 9.76006 6.37384C9.83368 6.41067 9.91651 6.42908 9.99933 6.42908C10.0822 6.42908 10.165 6.41067 10.2478 6.37384C10.3214 6.33702 10.3858 6.28178 10.4411 6.21734C10.7171 5.83068 11.0945 5.50847 11.5362 5.29672C11.9779 5.08498 12.4657 4.98372 12.9534 5.00213C15.1805 5.00213 16.9198 7.60747 15.4657 10.3141C14.3982 12.275 11.9871 13.9505 10.7263 14.7883Z" fill="#FF5E5E"/>
</svg>
