<svg width="20" height="20" viewBox="0 0 20 20" fill="none" xmlns="http://www.w3.org/2000/svg">
<path d="M19.1534 4.5H19.0262V4.49611H18.5211C18.4278 4.48379 18.3423 4.4394 18.2803 4.37113C18.2184 4.30287 18.1843 4.21534 18.1842 4.12472V3.56667C18.1841 3.35411 18.0979 3.14995 17.9439 2.99762C17.7898 2.84529 17.5801 2.7568 17.3593 2.75097V2.74611H16.7027C16.6094 2.73379 16.5239 2.6894 16.462 2.62113C16.4001 2.55287 16.3659 2.46534 16.3658 2.37472V1.81667C16.3658 1.60008 16.2764 1.39235 16.1173 1.2392C15.9581 1.08604 15.7423 1 15.5172 1H13.5776C13.3526 1 13.1367 1.08604 12.9776 1.2392C12.8185 1.39235 12.7291 1.60008 12.7291 1.81667V2.37472C12.7291 2.46537 12.6949 2.55295 12.633 2.62123C12.571 2.68952 12.4855 2.73389 12.3922 2.74611H11.7527V2.75049C11.5287 2.7519 11.3145 2.83851 11.1566 2.99142C10.9988 3.14433 10.9102 3.35113 10.9102 3.56667V4.12472C10.9102 4.21537 10.8761 4.30295 10.8141 4.37123C10.7522 4.43952 10.6666 4.48389 10.5733 4.49611H9.42923C9.33595 4.48379 9.25045 4.4394 9.18853 4.37113C9.1266 4.30287 9.09243 4.21534 9.09233 4.12472V3.56667C9.09228 3.35411 9.00607 3.14995 8.85203 2.99762C8.698 2.84529 8.48828 2.7568 8.2675 2.75097V2.74611H7.61087C7.51759 2.73379 7.43209 2.6894 7.37016 2.62113C7.30824 2.55287 7.27407 2.46534 7.27397 2.37472V1.81667C7.27397 1.60008 7.18457 1.39235 7.02543 1.2392C6.86629 1.08604 6.65045 1 6.4254 1H4.48581C4.26075 1 4.04492 1.08604 3.88578 1.2392C3.72664 1.39235 3.63724 1.60008 3.63724 1.81667V2.37472C3.63724 2.46537 3.60311 2.55295 3.54117 2.62123C3.47922 2.68952 3.39366 2.73389 3.30034 2.74611H2.86292V2.75H2.66694C2.44188 2.75 2.22605 2.83604 2.06691 2.9892C1.90777 3.14235 1.81836 3.35008 1.81836 3.56667V4.12472C1.81837 4.21537 1.78424 4.30295 1.7223 4.37123C1.66035 4.43952 1.57479 4.48389 1.48147 4.49611H0.994042V4.5H0.848573C0.623518 4.5 0.407681 4.58604 0.248543 4.7392C0.0894051 4.89235 0 5.10008 0 5.31667V8.93334C0 9.14993 0.0894051 9.35765 0.248543 9.51081C0.407681 9.66396 0.623518 9.75 0.848573 9.75H1.42843C1.47961 9.74994 1.53031 9.75959 1.57762 9.77839C1.62492 9.7972 1.66791 9.8248 1.70413 9.85961C1.74034 9.89442 1.76907 9.93575 1.78868 9.98125C1.80828 10.0268 1.81836 10.0755 1.81836 10.1248V10.6833C1.81836 10.8999 1.90777 11.1077 2.06691 11.2608C2.22605 11.414 2.44188 11.5 2.66694 11.5H3.24679C3.29798 11.4999 3.34867 11.5096 3.39598 11.5284C3.44329 11.5472 3.48627 11.5748 3.52249 11.6096C3.55871 11.6444 3.58744 11.6857 3.60704 11.7313C3.62664 11.7768 3.63673 11.8255 3.63673 11.8748V12.4333C3.63673 12.6499 3.72613 12.8577 3.88527 13.0108C4.04441 13.164 4.26025 13.25 4.4853 13.25H5.06516C5.11634 13.2499 5.16704 13.2596 5.21434 13.2784C5.26165 13.2972 5.30464 13.3248 5.34085 13.3596C5.37707 13.3944 5.4058 13.4357 5.42541 13.4813C5.44501 13.5268 5.45509 13.5755 5.45509 13.6248V14.1833C5.45509 14.3999 5.5445 14.6077 5.70364 14.7608C5.86278 14.914 6.07861 15 6.30367 15H6.88352C6.93471 14.9999 6.9854 15.0096 7.03271 15.0284C7.08002 15.0472 7.12301 15.0748 7.15922 15.1096C7.19544 15.1444 7.22417 15.1857 7.24377 15.2313C7.26337 15.2768 7.27346 15.3255 7.27346 15.3748V15.9333C7.27346 16.1499 7.36286 16.3577 7.522 16.5108C7.68114 16.664 7.89698 16.75 8.12203 16.75H8.70189C8.75307 16.7499 8.80377 16.7596 8.85108 16.7784C8.89838 16.7972 8.94137 16.8248 8.97759 16.8596C9.0138 16.8944 9.04253 16.9358 9.06214 16.9813C9.08174 17.0268 9.09183 17.0755 9.09183 17.1248V17.6833C9.09183 17.8999 9.18123 18.1077 9.34037 18.2608C9.49951 18.414 9.71534 18.5 9.9404 18.5H10.0616C10.2867 18.5 10.5025 18.414 10.6617 18.2608C10.8208 18.1077 10.9102 17.8999 10.9102 17.6833V17.1248C10.9103 17.0254 10.9515 16.93 11.0246 16.8597C11.0977 16.7895 11.1968 16.75 11.3001 16.75H11.88C12.105 16.75 12.3209 16.664 12.48 16.5108C12.6392 16.3577 12.7286 16.1499 12.7286 15.9333V15.3748C12.7287 15.2754 12.7698 15.18 12.8429 15.1097C12.9161 15.0395 13.0152 15 13.1185 15H13.6984C13.9234 15 14.1392 14.914 14.2984 14.7608C14.4575 14.6077 14.5469 14.3999 14.5469 14.1833V13.6248C14.5471 13.5254 14.5882 13.43 14.6613 13.3597C14.7344 13.2895 14.8335 13.25 14.9369 13.25H15.5167C15.7418 13.25 15.9576 13.164 16.1167 13.0108C16.2759 12.8577 16.3653 12.6499 16.3653 12.4333V11.8748C16.3654 11.7754 16.4066 11.68 16.4797 11.6097C16.5528 11.5395 16.6519 11.5 16.7552 11.5H17.3351C17.5601 11.5 17.776 11.414 17.9351 11.2608C18.0942 11.1077 18.1837 10.8999 18.1837 10.6833V10.1248C18.1839 10.0713 18.1962 10.0185 18.2195 9.9699C18.2429 9.92133 18.2768 9.87817 18.319 9.84334C18.3891 9.78473 18.4787 9.7523 18.5716 9.75195H19.1514C19.3765 9.75195 19.5923 9.6659 19.7515 9.51275C19.9106 9.35959 20 9.15187 20 8.93528V5.31862C20.0003 5.21137 19.9786 5.10512 19.9362 5.00594C19.8938 4.90676 19.8315 4.81659 19.7529 4.74058C19.6743 4.66456 19.5809 4.60419 19.478 4.56291C19.3752 4.52163 19.2649 4.50026 19.1534 4.5ZM15.7935 11.5V11.4961H16.0284C16.0117 11.4985 15.9948 11.4998 15.9779 11.5H15.7935Z" fill="#EE92EE"/>
</svg>
