<svg width="32" height="32" viewBox="0 0 32 32" fill="none" xmlns="http://www.w3.org/2000/svg">
<path d="M24 8L2.4914 13.8573C0.838679 14.3114 -0.243735 15.93 0.0472368 17.6185C0.955067 22.9518 9.05571 31.0565 14.3747 31.9531C16.0623 32.2442 17.6801 31.1496 18.134 29.5077L24 8Z" fill="#FF99B1"/>
<path d="M23.4153 2.02208L22.289 2.57234C22.1681 2.62189 22.033 2.6269 21.9087 2.58641C21.7844 2.54592 21.6794 2.46271 21.6131 2.35224L21.05 1.25173C20.9992 1.13369 20.9941 1.00166 21.0356 0.880208C21.077 0.758753 21.1622 0.656134 21.2752 0.591433L22.4016 0.0411826C22.5224 -0.00837585 22.6575 -0.0133775 22.7818 0.0271077C22.9062 0.0675928 23.0112 0.150809 23.0774 0.261283L23.6406 1.36178C23.6995 1.47867 23.7089 1.61352 23.6667 1.73712C23.6245 1.86072 23.5342 1.9631 23.4153 2.02208Z" fill="#8CD5FE"/>
<path d="M31.6403 19.0789L31.9782 17.8684C31.9988 17.8106 32.0061 17.749 31.9996 17.6882C31.9932 17.6273 31.9731 17.5686 31.9409 17.5161C31.9087 17.4636 31.865 17.4187 31.8131 17.3845C31.7612 17.3503 31.7022 17.3276 31.6403 17.3181L30.4013 16.988C30.3421 16.9679 30.2792 16.9608 30.2169 16.9671C30.1546 16.9734 30.0945 16.993 30.0408 17.0244C29.987 17.0559 29.9411 17.0985 29.9061 17.1493C29.871 17.2 29.8479 17.2577 29.8381 17.3181L29.5002 18.4186C29.4797 18.4764 29.4724 18.5379 29.4788 18.5988C29.4853 18.6597 29.5053 18.7184 29.5376 18.7709C29.5698 18.8234 29.6134 18.8683 29.6653 18.9025C29.7173 18.9367 29.7763 18.9594 29.8381 18.9689L31.0771 19.299C31.3024 19.5191 31.5277 19.4091 31.6403 19.0789Z" fill="#FFC98D"/>
<path d="M29.045 6.64497C29.2455 6.64497 29.4415 6.58688 29.6082 6.47804C29.7749 6.36921 29.9048 6.21452 29.9815 6.03354C30.0583 5.85256 30.0783 5.65342 30.0392 5.46129C30.0001 5.26916 29.9036 5.09268 29.7618 4.95416C29.62 4.81564 29.4394 4.72131 29.2427 4.68309C29.0461 4.64488 28.8423 4.66449 28.657 4.73946C28.4718 4.81442 28.3135 4.94137 28.2021 5.10425C28.0907 5.26713 28.0313 5.45862 28.0312 5.65451C28.0313 5.9172 28.1381 6.16912 28.3282 6.35487C28.5183 6.54061 28.7761 6.64497 29.045 6.64497Z" fill="#7FEC93"/>
<path d="M8.77935 10.9379C8.97984 10.9379 9.17584 10.8798 9.34254 10.771C9.50925 10.6622 9.63918 10.5075 9.71591 10.3265C9.79263 10.1455 9.81271 9.94638 9.77359 9.75425C9.73448 9.56213 9.63793 9.38564 9.49616 9.24713C9.35439 9.10861 9.17376 9.01428 8.97712 8.97606C8.78047 8.93785 8.57665 8.95746 8.39141 9.03243C8.20618 9.10739 8.04786 9.23434 7.93647 9.39722C7.82508 9.5601 7.76562 9.75159 7.76562 9.94748C7.76562 10.2102 7.87243 10.4621 8.06254 10.6478C8.25265 10.8336 8.51049 10.9379 8.77935 10.9379Z" fill="#FFC98D"/>
<path d="M22.9617 23.9211C23.2067 23.9211 23.4462 23.8501 23.65 23.7171C23.8538 23.5841 24.0126 23.395 24.1063 23.1738C24.2001 22.9526 24.2246 22.7092 24.1768 22.4744C24.129 22.2396 24.011 22.0239 23.8378 21.8546C23.6645 21.6853 23.4437 21.57 23.2034 21.5233C22.963 21.4766 22.7139 21.5005 22.4875 21.5921C22.2611 21.6838 22.0676 21.8389 21.9315 22.038C21.7953 22.2371 21.7227 22.4711 21.7227 22.7106C21.7227 22.8695 21.7547 23.0269 21.817 23.1738C21.8792 23.3207 21.9705 23.4541 22.0855 23.5665C22.2006 23.679 22.3372 23.7681 22.4875 23.829C22.6378 23.8898 22.7989 23.9211 22.9617 23.9211Z" fill="#FF99B1"/>
</svg>
