<svg width="24" height="24" viewBox="0 0 24 24" fill="none" xmlns="http://www.w3.org/2000/svg">
<path d="M18 4H19C19.7542 3.99738 20.4817 4.2789 21.0376 4.78852C21.5936 5.29813 21.9372 5.99845 22 6.75H2C2.06284 5.99845 2.40645 5.29813 2.96239 4.78852C3.51834 4.2789 4.24583 3.99738 5 4H6V3C6 2.73478 6.10536 2.48043 6.29289 2.29289C6.48043 2.10536 6.73478 2 7 2C7.26522 2 7.51957 2.10536 7.70711 2.29289C7.89464 2.48043 8 2.73478 8 3V4H16V3C16 2.73478 16.1054 2.48043 16.2929 2.29289C16.4804 2.10536 16.7348 2 17 2C17.2652 2 17.5196 2.10536 17.7071 2.29289C17.8946 2.48043 18 2.73478 18 3V4Z" fill="#B2B2B4"/>
<path fill-rule="evenodd" clip-rule="evenodd" d="M2.87868 21.1213C2.31607 20.5587 2 19.7956 2 19V8.25H22V19C22 19.7956 21.6839 20.5587 21.1213 21.1213C20.5587 21.6839 19.7956 22 19 22H5C4.20435 22 3.44129 21.6839 2.87868 21.1213ZM7.33091 10.969C7.04762 11.266 6.82634 11.6165 6.68 12C6.5244 12.4124 6.44314 12.8492 6.44 13.29C6.45446 14.0973 6.67106 14.888 7.07 15.59C7.54729 16.4158 8.15132 17.1616 8.86 17.8C9.70847 18.566 10.6257 19.2522 11.6 19.85C11.6613 19.8931 11.7287 19.9268 11.8 19.95C11.8631 19.9785 11.9309 19.9954 12 20C12.0673 20.0039 12.1348 19.9972 12.2 19.98L12.41 19.88C13.3807 19.2815 14.2945 18.5953 15.14 17.83C15.8464 17.1895 16.4502 16.4441 16.93 15.62C17.3289 14.918 17.5455 14.1273 17.56 13.32C17.5654 12.8687 17.4839 12.4205 17.32 12C17.1757 11.6063 16.9586 11.2433 16.68 10.93C16.395 10.6393 16.0551 10.4081 15.68 10.25C15.2866 10.0889 14.8651 10.0074 14.44 10.01C13.9309 9.99714 13.4295 10.1364 13 10.41C12.6122 10.6645 12.2901 11.0072 12.06 11.41C12.0538 11.4204 12.045 11.4289 12.0345 11.4349C12.024 11.4408 12.0121 11.4439 12 11.4439C11.9879 11.4439 11.976 11.4408 11.9655 11.4349C11.955 11.4289 11.9462 11.4204 11.94 11.41C11.711 11.0096 11.3928 10.6674 11.01 10.41C10.5793 10.1298 10.0737 9.98685 9.56 10C9.13653 10.0107 8.71902 10.1024 8.33 10.27C7.95385 10.4343 7.61421 10.6719 7.33091 10.969Z" fill="#B2B2B4"/>
</svg>
