<svg width="17" height="16" viewBox="0 0 17 16" fill="none" xmlns="http://www.w3.org/2000/svg">
<g clip-path="url(#clip0_6571_16418)">
<path d="M11.8841 7.11843H5.11133V4.43523C5.11133 2.56803 6.63053 1.04883 8.49773 1.04883C10.3649 1.04883 11.8841 2.56803 11.8841 4.43523V7.11843ZM6.31133 5.91843H10.6841V4.43523C10.6841 3.22963 9.70333 2.24883 8.49773 2.24883C7.29213 2.24883 6.31133 3.22963 6.31133 4.43523V5.91843Z" fill="#8C8C8E"/>
<path d="M12.8961 5.23438H4.09609C3.21244 5.23438 2.49609 5.95072 2.49609 6.83437V12.8344C2.49609 13.718 3.21244 14.4344 4.09609 14.4344H12.8961C13.7797 14.4344 14.4961 13.718 14.4961 12.8344V6.83437C14.4961 5.95072 13.7797 5.23438 12.8961 5.23438Z" fill="#B2B2B4"/>
<path d="M8.49688 10.0523C9.15962 10.0523 9.69688 9.51509 9.69688 8.85234C9.69688 8.1896 9.15962 7.65234 8.49688 7.65234C7.83413 7.65234 7.29688 8.1896 7.29688 8.85234C7.29688 9.51509 7.83413 10.0523 8.49688 10.0523Z" fill="#2F2F32"/>
<path d="M8.49844 11.9518C8.16684 11.9518 7.89844 11.683 7.89844 11.3518V9.18496C7.89844 8.85376 8.16684 8.58496 8.49844 8.58496C8.83004 8.58496 9.09844 8.85376 9.09844 9.18496V11.3518C9.09844 11.683 8.83004 11.9518 8.49844 11.9518Z" fill="#2F2F32"/>
</g>
<defs>
<clipPath id="clip0_6571_16418">
<rect width="16" height="16" fill="white" transform="translate(0.5)"/>
</clipPath>
</defs>
</svg>
