<svg width="21" height="22" viewBox="0 0 21 22" fill="none" xmlns="http://www.w3.org/2000/svg">
<g id="fluent:emoji-add-16-filled">
<path id="Vector" d="M9.18701 17.5625C9.29857 17.5625 9.41013 17.5599 9.52038 17.5559C9.14933 16.5032 9.0847 15.3667 9.33401 14.2786C8.6633 14.3006 7.99596 14.175 7.3791 13.9108C6.76223 13.6466 6.21089 13.2502 5.76401 12.7496C5.65892 12.6186 5.60803 12.4523 5.62183 12.285C5.63562 12.1176 5.71304 11.9619 5.83816 11.8499C5.96328 11.7379 6.12656 11.6781 6.29442 11.6829C6.46227 11.6876 6.62192 11.7565 6.74051 11.8754C7.12094 12.3024 7.60665 12.6223 8.14921 12.803C8.69177 12.9838 9.27224 13.0192 9.83276 12.9058C10.4832 11.6318 11.5739 10.6372 12.9022 10.1067C14.2306 9.57609 15.7063 9.54561 17.0554 10.0209C17.122 8.45058 16.7171 6.89629 15.8929 5.55801C15.0688 4.21972 13.863 3.15867 12.4308 2.51137C10.9985 1.86407 9.40537 1.66015 7.85628 1.92584C6.30719 2.19153 4.87304 2.91467 3.73836 4.00222C2.60368 5.08978 1.82038 6.49198 1.48925 8.02841C1.15813 9.56485 1.29432 11.1652 1.88032 12.6236C2.46631 14.082 3.47529 15.3317 4.77743 16.2118C6.07957 17.092 7.6153 17.5624 9.18701 17.5625ZM6.89013 9.35938C6.62906 9.35938 6.37868 9.25567 6.19407 9.07106C6.00947 8.88646 5.90576 8.63608 5.90576 8.37501C5.90576 8.11393 6.00947 7.86355 6.19407 7.67895C6.37868 7.49434 6.62906 7.39063 6.89013 7.39063C7.1512 7.39063 7.40158 7.49434 7.58619 7.67895C7.77079 7.86355 7.87451 8.11393 7.87451 8.37501C7.87451 8.63608 7.77079 8.88646 7.58619 9.07106C7.40158 9.25567 7.1512 9.35938 6.89013 9.35938ZM11.4839 9.35938C11.2228 9.35938 10.9724 9.25567 10.7878 9.07106C10.6032 8.88646 10.4995 8.63608 10.4995 8.37501C10.4995 8.11393 10.6032 7.86355 10.7878 7.67895C10.9724 7.49434 11.2228 7.39063 11.4839 7.39063C11.745 7.39063 11.9953 7.49434 12.1799 7.67895C12.3645 7.86355 12.4683 8.11393 12.4683 8.37501C12.4683 8.63608 12.3645 8.88646 12.1799 9.07106C11.9953 9.25567 11.745 9.35938 11.4839 9.35938ZM19.687 15.5938C19.687 16.8121 19.203 17.9805 18.3415 18.842C17.48 19.7035 16.3116 20.1875 15.0933 20.1875C13.8749 20.1875 12.7065 19.7035 11.845 18.842C10.9835 17.9805 10.4995 16.8121 10.4995 15.5938C10.4995 14.3754 10.9835 13.207 11.845 12.3455C12.7065 11.484 13.8749 11 15.0933 11C16.3116 11 17.48 11.484 18.3415 12.3455C19.203 13.207 19.687 14.3754 19.687 15.5938ZM15.7495 12.9688C15.7495 12.7947 15.6804 12.6278 15.5573 12.5047C15.4342 12.3816 15.2673 12.3125 15.0933 12.3125C14.9192 12.3125 14.7523 12.3816 14.6292 12.5047C14.5061 12.6278 14.437 12.7947 14.437 12.9688V14.9375H12.4683C12.2942 14.9375 12.1273 15.0066 12.0042 15.1297C11.8811 15.2528 11.812 15.4197 11.812 15.5938C11.812 15.7678 11.8811 15.9347 12.0042 16.0578C12.1273 16.1809 12.2942 16.25 12.4683 16.25H14.437V18.2188C14.437 18.3928 14.5061 18.5597 14.6292 18.6828C14.7523 18.8059 14.9192 18.875 15.0933 18.875C15.2673 18.875 15.4342 18.8059 15.5573 18.6828C15.6804 18.5597 15.7495 18.3928 15.7495 18.2188V16.25H17.7183C17.8923 16.25 18.0592 16.1809 18.1823 16.0578C18.3054 15.9347 18.3745 15.7678 18.3745 15.5938C18.3745 15.4197 18.3054 15.2528 18.1823 15.1297C18.0592 15.0066 17.8923 14.9375 17.7183 14.9375H15.7495V12.9688Z" fill="#D3D3D3"/>
</g>
</svg>
