<svg width="335" height="147" viewBox="0 0 335 147" fill="none" xmlns="http://www.w3.org/2000/svg">
<path d="M175.016 146.661C205.905 146.661 230.946 140.384 230.946 132.641C230.946 124.898 205.905 118.621 175.016 118.621C144.127 118.621 119.086 124.898 119.086 132.641C119.086 140.384 144.127 146.661 175.016 146.661Z" fill="#8C8C8E"/>
<path d="M202.569 111.626C202.829 108.228 202.1 104.322 200.484 100.322C208.623 98.6311 214.986 94.1487 216.192 87.6276L216.225 87.5839L216.265 87.3428C217.013 82.8306 215.088 78.3784 211.527 74.6738C208.252 71.2668 203.534 68.42 197.974 66.6042C203.939 59.4191 205.845 50.7998 201.198 44.816C196.657 38.9658 187.482 37.7609 178.326 40.4824C175.539 34.0168 170.336 29.1854 163.673 28.0829C155.666 26.7404 147.952 31.1393 143.197 38.4824C136.419 36.0061 129.192 36.1967 123.686 39.8757C116.865 44.3597 114.572 52.7228 116.589 61.1899C110.107 64.1138 105.327 69.333 104.232 75.9664L104.232 75.9672C102.675 85.439 109.056 94.5602 118.997 99.2596C115.96 104.617 115.328 110.174 118.445 114.238L118.449 114.243C120.491 116.872 123.743 118.309 127.519 118.728C131.037 119.119 135.086 118.639 139.253 117.357C142.225 125.212 148.796 131.223 157.233 132.636C167.392 134.342 177.205 128.804 182.101 119.642C187.842 122.513 193.731 123.207 197.888 120.465C200.789 118.555 202.284 115.361 202.569 111.626Z" fill="#353538" stroke="#242427" stroke-width="2" stroke-miterlimit="10" stroke-linecap="round"/>
<path d="M180.355 76.3097C184.189 76.1383 187.093 71.4148 186.84 65.7596C186.587 60.1043 183.274 55.6588 179.439 55.8302C175.605 56.0016 172.701 60.7251 172.954 66.3804C173.207 72.0357 176.52 76.4812 180.355 76.3097Z" fill="#8C8C8E"/>
<path d="M175.63 90.3506C169.51 90.9606 164.18 87.8006 163.74 83.3506C163.3 78.9006 167.89 74.7206 174.02 74.1106C180.15 73.5006 185.47 76.6606 185.91 81.1105C186.35 85.5605 181.76 89.7206 175.63 90.3506Z" fill="#515155" stroke="#242427" stroke-width="2" stroke-miterlimit="10"/>
<path d="M185.931 81.2783C182.931 83.6583 179.201 79.4283 174.701 79.8683C170.201 80.3083 168.641 85.0783 163.141 83.5283" stroke="#242427" stroke-width="2"/>
<path d="M176.348 82.3519L179.348 80.9219L170.398 81.8119L173.598 82.6319C174.52 82.8588 175.492 82.7599 176.348 82.3519Z" fill="#242427" stroke="#242427" stroke-width="2" stroke-linecap="round" stroke-linejoin="round"/>
<path d="M185.559 115.039L191.119 109.239L202.379 130.239C202.879 131.479 203.644 132.595 204.619 133.509C205.595 134.422 206.759 135.112 208.029 135.529C214.159 137.239 221.309 130.869 224.029 121.279C226.749 111.689 223.919 102.539 217.789 100.819C211.659 99.0992 204.499 105.479 201.789 115.059L194.549 104.739C194.183 104.215 193.699 103.783 193.137 103.477C192.574 103.172 191.949 103.002 191.309 102.981C190.67 102.96 190.034 103.088 189.453 103.354C188.871 103.621 188.36 104.02 187.959 104.519L181.199 112.909" fill="#515155"/>
<path d="M185.559 115.039L191.119 109.239L202.379 130.239C202.879 131.479 203.644 132.595 204.619 133.509C205.595 134.422 206.759 135.112 208.029 135.529C214.159 137.239 221.309 130.869 224.029 121.279C226.749 111.689 223.919 102.539 217.789 100.819C211.659 99.0992 204.499 105.479 201.789 115.059L194.549 104.739C194.183 104.215 193.699 103.783 193.137 103.477C192.574 103.172 191.949 103.002 191.309 102.981C190.67 102.96 190.034 103.088 189.453 103.354C188.871 103.621 188.36 104.02 187.959 104.519L181.199 112.909" stroke="#242427" stroke-width="2" stroke-linecap="round" stroke-linejoin="round"/>
<path d="M205.771 128.282C203.861 120.582 207.681 106.553 216.241 104.062" stroke="#242427" stroke-width="2" stroke-linecap="round" stroke-linejoin="round"/>
<path d="M190.188 107.641L192.158 111.271" stroke="#242427" stroke-width="2" stroke-linecap="round" stroke-linejoin="round"/>
<path fill-rule="evenodd" clip-rule="evenodd" d="M201.399 121.162C201.399 121.162 200.829 119.892 201.449 116.082L201.399 121.162Z" fill="#515155"/>
<path d="M201.399 121.162C201.399 121.162 200.829 119.892 201.449 116.082" stroke="#242427" stroke-width="2" stroke-linecap="round" stroke-linejoin="round"/>
<path d="M163.666 116.841L168.506 110.841C168.908 110.342 169.42 109.943 170.002 109.676C170.585 109.409 171.221 109.281 171.861 109.303C172.501 109.324 173.128 109.494 173.691 109.799C174.254 110.104 174.739 110.536 175.106 111.061L182.336 121.351C185.026 111.771 192.166 105.351 198.336 107.111C204.506 108.871 207.266 117.991 204.586 127.571C201.906 137.151 194.746 143.571 188.586 141.821C187.316 141.404 186.152 140.714 185.176 139.8C184.2 138.887 183.436 137.771 182.936 136.531L171.676 115.531L167.386 120.001C167.02 120.384 166.541 120.64 166.019 120.73C165.497 120.82 164.959 120.74 164.486 120.501C164.173 120.333 163.899 120.099 163.684 119.815C163.469 119.532 163.317 119.206 163.24 118.858C163.162 118.511 163.16 118.151 163.233 117.803C163.307 117.455 163.455 117.127 163.666 116.841Z" fill="#515155" stroke="#242427" stroke-width="2" stroke-linecap="round" stroke-linejoin="round"/>
<path d="M186.381 134.681C184.471 126.981 188.291 112.951 196.851 110.461" stroke="#242427" stroke-width="2" stroke-linecap="round" stroke-linejoin="round"/>
<path d="M170.797 114.039L172.767 117.669" stroke="#242427" stroke-width="2" stroke-linecap="round" stroke-linejoin="round"/>
<path fill-rule="evenodd" clip-rule="evenodd" d="M182.019 127.56C182.019 127.56 181.439 126.29 182.019 122.48V127.56Z" fill="#515155"/>
<path d="M182.019 127.56C182.019 127.56 181.439 126.29 182.019 122.48" stroke="#242427" stroke-width="2" stroke-linecap="round" stroke-linejoin="round"/>
<path d="M188.427 68.0305C182.74 71.8238 177.197 71.3905 171.797 66.7305" stroke="#353538" stroke-width="2" stroke-miterlimit="10"/>
<path d="M166.456 76.9308C170.291 76.7594 173.194 72.0359 172.942 66.3806C172.689 60.7254 169.375 56.2798 165.541 56.4513C161.706 56.6227 158.803 61.3462 159.055 67.0015C159.308 72.6568 162.622 77.1023 166.456 76.9308Z" fill="#8C8C8E"/>
<path d="M157.367 69.0195C163.214 72.5729 168.731 71.9062 173.917 67.0195" stroke="#353538" stroke-width="2" stroke-miterlimit="10"/>
<path d="M174.825 90.7424C181.19 90.5546 186.24 86.6745 186.104 82.076C185.969 77.4775 180.699 73.9018 174.334 74.0896C167.969 74.2774 162.919 78.1575 163.054 82.7561C163.19 87.3546 168.46 90.9302 174.825 90.7424Z" fill="#8C8C8E" stroke="#353538" stroke-width="2" stroke-miterlimit="10"/>
<path d="M164.359 86.4528C165.809 85.0736 167.386 83.8348 169.069 82.7528C170.854 81.3969 172.946 80.5037 175.159 80.1528C178.349 79.8528 181.459 81.4928 184.159 83.3528C184.691 83.7038 185.193 84.0985 185.659 84.5328" stroke="#353538" stroke-width="2" stroke-miterlimit="10"/>
</svg>
