<svg width="230" height="254" viewBox="0 0 230 254" fill="none" xmlns="http://www.w3.org/2000/svg">
<path d="M91.5767 80.395L83.9426 80.8869C55.2165 128.108 70.4945 188.895 70.4945 188.895L79.0041 195.349L100.165 180.956L90.8094 176.096C90.8094 176.096 72.1177 129.141 91.2717 83.0807L86.9628 76.5977L83.9426 80.8869" fill="#EFEFEF"/>
<path d="M91.5767 80.395L83.9426 80.8869M83.9426 80.8869C55.2165 128.108 70.4945 188.895 70.4945 188.895L79.0041 195.349L100.165 180.956L90.8094 176.096C90.8094 176.096 72.1177 129.141 91.2717 83.0807L86.9628 76.5977L83.9426 80.8869Z" stroke="#242427" stroke-width="1.57404" stroke-miterlimit="10"/>
<path d="M171.252 203.806C172.252 193.296 150.772 182.656 123.252 180.026C95.7318 177.396 72.6418 183.776 71.6318 194.286C70.6218 204.796 92.1118 215.426 119.632 218.056C147.152 220.686 170.252 214.306 171.252 203.806Z" fill="white"/>
<path d="M173.003 245.614C172.563 245.614 172.083 245.464 171.663 245.734L170.463 246.544C171.343 247.674 172.733 247.794 173.953 247.954C175.623 248.184 177.243 248.604 178.893 248.954L180.093 250.024C179.153 251.374 177.593 251.024 176.343 251.174C159.343 252.574 142.253 252.824 125.193 252.554C116.383 252.414 107.593 251.944 98.7929 251.774C92.7929 251.664 84.7229 252.714 79.8529 248.294C79.0929 247.604 79.0729 246.934 79.8529 246.294C80.6883 245.714 81.5793 245.218 82.5129 244.814L79.7129 243.084C57.3829 245.794 34.7129 244.264 12.2829 244.154C10.9329 244.154 8.92289 244.264 7.96289 243.154C10.8229 240.304 16.4029 240.424 20.1729 239.724C23.2729 239.144 40.8429 237.364 41.0829 234.294C41.3593 231.551 41.7967 228.826 42.3929 226.134C46.3929 205.954 57.8829 190.914 76.3929 182.024C108.773 166.434 151.393 173.134 174.223 201.974C180.01 209.304 184.212 217.756 186.563 226.794C187.462 229.944 188.081 233.166 188.413 236.424C188.473 237.234 188.693 237.804 189.733 237.934C191.523 238.154 193.313 238.194 195.093 238.444C197.263 238.744 199.463 238.894 201.653 239.164C206.883 239.814 213.353 239.804 218.003 242.524C216.253 244.954 211.003 244.524 208.183 244.844C203.693 245.294 199.183 245.274 194.683 245.504L90.0029 242.934" fill="white"/>
<path d="M173.003 245.614C172.563 245.614 172.083 245.464 171.663 245.734L170.463 246.544C171.343 247.674 172.733 247.794 173.953 247.954C175.623 248.184 177.243 248.604 178.893 248.954L180.093 250.024C179.153 251.374 177.593 251.024 176.343 251.174C159.343 252.574 142.253 252.824 125.193 252.554C116.383 252.414 107.593 251.944 98.7929 251.774C92.7929 251.664 84.7229 252.714 79.8529 248.294C79.0929 247.604 79.0729 246.934 79.8529 246.294C80.6883 245.714 81.5793 245.218 82.5129 244.814L79.7129 243.084C57.3829 245.794 34.7129 244.264 12.2829 244.154C10.9329 244.154 8.92289 244.264 7.96289 243.154C10.8229 240.304 16.4029 240.424 20.1729 239.724C23.2729 239.144 40.8429 237.364 41.0829 234.294C41.3593 231.551 41.7967 228.826 42.3929 226.134C46.3929 205.954 57.8829 190.914 76.3929 182.024C108.773 166.434 151.393 173.134 174.223 201.974C180.01 209.304 184.212 217.756 186.563 226.794C187.462 229.944 188.081 233.166 188.413 236.424C188.473 237.234 188.693 237.804 189.733 237.934C191.523 238.154 193.313 238.194 195.093 238.444C197.263 238.744 199.463 238.894 201.653 239.164C206.883 239.814 213.353 239.804 218.003 242.524C216.253 244.954 211.003 244.524 208.183 244.844C203.693 245.294 199.183 245.274 194.683 245.504L90.0029 242.934" stroke="#242427" stroke-width="1.6" stroke-linecap="round" stroke-linejoin="round"/>
<ellipse cx="130.325" cy="199.768" rx="41.0472" ry="20" transform="rotate(3.93783 130.325 199.768)" fill="#D9D9D9"/>
<path d="M86.0886 159.471L78.4152 149.85C78.1751 149.549 77.8637 149.313 77.5093 149.163C77.1549 149.013 76.7687 148.954 76.3857 148.991C76.0027 149.028 75.635 149.161 75.316 149.376C74.997 149.591 74.7367 149.882 74.5588 150.223C74.5588 150.223 66.7969 157.208 66.7969 160.415" stroke="#242427" stroke-width="1.57404" stroke-miterlimit="10"/>
<path d="M82.6638 126.197C82.6638 126.197 79.2796 118.632 79.2796 118.612C77.9712 115.661 68.0449 123.807 68.0449 126.197" stroke="#242427" stroke-width="1.57404" stroke-miterlimit="10"/>
<path d="M85.478 101.21C84.7598 99.6558 83.717 95.5535 81.8773 95.1993C80.0377 94.8452 74.3613 99.3705 74.3613 101.21" stroke="#242427" stroke-width="1.57404" stroke-miterlimit="10"/>
<path d="M102.604 78.1871C97.3511 77.3975 87.47 82.9933 84.3603 85.3265L83.1131 85.7721C83.4349 86.5463 83.99 87.201 84.7012 87.645C86.7113 88.9823 105.123 101.954 105.826 100.373C106.911 98.0581 108.012 95.7783 109.072 93.4095C109.148 93.1747 109.275 92.9598 109.445 92.7804C109.614 92.601 109.822 92.4616 110.052 92.3722L110.744 93.2205C111.235 96.1103 111.302 99.0252 111.593 101.954C111.597 102.307 111.703 102.65 111.897 102.944C112.092 103.239 112.366 103.471 112.689 103.613C115.319 104.781 117.882 106.094 120.367 107.545C121.459 108.249 122.014 107.673 122.451 106.706C123.091 105.317 123.776 103.908 124.365 102.456C124.586 101.844 125.022 101.334 125.592 101.02L126.265 102.15C126.634 104.574 126.624 107.025 126.777 109.454C126.757 109.76 126.828 110.066 126.98 110.333C127.133 110.599 127.361 110.815 127.635 110.953C130.974 112.85 134.295 114.777 137.615 116.705L141.945 110.449C142.212 110.658 142.432 110.921 142.592 111.22C142.751 111.52 142.847 111.849 142.872 112.187C143.062 114.577 143.583 116.909 143.89 119.319C143.876 119.559 143.937 119.797 144.066 120C144.194 120.203 144.384 120.36 144.607 120.449C147.371 121.707 150.003 123.236 152.464 125.015C155.319 127.121 157.809 129.681 159.835 132.593C160.242 133.43 160.738 134.221 161.315 134.952L162.748 134.277C160.333 117.593 153.613 99.8698 140.429 88.7211C130.85 80.6744 118.834 76.0962 106.329 75.7277L111.449 73.2532C111.93 73.0768 112.345 72.7562 112.637 72.3353C112.835 71.876 112.884 71.3662 112.777 70.8775C112.476 68.004 112.176 65.1407 111.877 62.2877L117.649 69.933C117.777 70.1983 117.959 70.4341 118.183 70.6251C118.407 70.8162 118.668 70.9584 118.95 71.0426C119.233 71.1268 119.529 71.1511 119.821 71.114C120.114 71.0769 120.395 70.9793 120.647 70.8273L131.566 67.2762C132.641 67.0328 133.621 66.4774 134.381 65.6797C136.402 63.0433 132.748 58.6963 134.735 56.0107C136.642 58.5382 138.883 64.4094 141.734 65.5467C144.585 66.684 151.628 64.5765 154.742 64.2634C155.16 62.425 154.8 60.5285 154.85 58.6461C154.806 57.2743 154.846 55.9011 154.97 54.5342C155.016 54.2624 154.997 53.9231 155.34 53.7729L156.208 54.0928C158.535 56.5422 160.858 58.9608 163.145 61.4401C163.363 61.7366 163.662 61.9633 164.007 62.0926C164.352 62.2219 164.726 62.2482 165.086 62.1684C169.294 61.7396 173.546 62.1399 177.6 63.3466C178.011 63.4576 178.458 63.5298 178.879 63.6147L184.951 65.1059C184.968 64.7666 184.913 64.4276 184.79 64.1108C184.667 63.7941 184.479 63.5066 184.238 63.267C183.736 62.7313 183.23 62.1868 182.763 61.6344C182.297 61.082 181.706 60.4034 181.148 59.796C168.368 45.7392 151.469 37.6002 132.26 40.747C123.606 42.2358 115.354 45.5007 108.025 50.3358C104.272 52.7764 100.764 55.5742 97.5501 58.69C95.2273 60.8703 91.9553 66.8787 89.4001 68.1029L88.056 68.7354C87.5015 66.7022 88.866 65.3969 89.8729 63.9554L89.3922 64.1816C88.4853 63.4559 87.7497 62.5626 86.7663 61.9055C86.569 61.788 86.4112 61.6142 86.3135 61.4064C86.2157 61.1986 86.1823 60.9663 86.2176 60.7394C86.3778 60.1095 86.9087 60.1749 87.4015 60.1823L92.4595 60.1179C95.2781 55.4101 98.3491 50.8228 100.996 46.1197C100.305 44.8358 99.0544 44.3044 98.3355 43.2619L97.8941 42.0235C98.3735 41.8046 98.9128 41.7539 99.4246 41.8795C100.58 42.1623 101.754 42.3707 102.867 42.7493C103.225 42.914 103.63 42.9493 104.011 42.8492C104.392 42.7491 104.727 42.5199 104.958 42.2005C106.361 40.5616 107.959 39.0594 109.366 37.4294C110.774 35.7994 112.781 34.2893 113.926 32.2394C113.515 31.7367 113.028 31.3247 112.599 30.8743C111.619 29.8564 110.236 29.181 109.761 27.7086L110.659 27.1447C113.149 27.1468 115.571 27.6709 118.028 27.7646C119.932 24.6659 122.773 22.2547 126.14 20.8813L126.821 19.8325C126.106 19.2873 125.21 19.0361 124.316 19.1303C112.3 19.0115 100.107 25.2167 91.6029 33.4374C86.0535 38.783 82.3319 45.743 80.9679 53.3267C79.6769 60.6297 79.5408 68.0902 80.5647 75.4355C80.7736 77.0116 81.4527 78.6164 80.8548 80.2569L79.6374 79.8186C77.2923 76.1608 74.7308 72.6464 71.9665 69.2941C63.6663 59.6963 52.5417 53.7544 39.4693 55.6875C26.1979 57.66 16.3441 67.6572 10.6723 79.2635L10.3105 84.6635C13.0919 83.1806 15.7429 81.4438 18.6432 80.1442C21.3032 78.85 24.1764 78.0506 27.1225 77.7849L27.9744 76.1989L31.5523 71.7644C31.9849 73.1394 32.2857 74.5523 32.4508 75.9842C32.8126 77.7927 32.977 77.9111 34.7793 77.8132C37.0706 77.6917 39.3724 77.6849 41.7281 77.631C42.4449 75.0647 42.5873 72.4101 43.0586 69.8072C43.1128 69.0968 43.4336 68.4332 43.9566 67.9494L44.9064 69.2747C45.6777 71.2602 45.7101 73.4086 46.2735 75.4376C46.407 75.9292 46.7998 76.4403 46.5442 77.1911C49.6979 77.2618 52.6998 76.6864 55.7226 76.5251L62.3886 77.1283C61.5053 76.1523 61.7483 74.8202 61.3838 73.6762C60.9121 72.2347 60.8304 70.6748 60.2879 69.2449L71.0999 82.0314C62.348 81.3086 53.5491 82.6627 45.4195 85.9836C39.9818 88.1293 34.8714 91.5019 31.5004 96.3065C24.7652 106 26.1899 118.985 29.1205 129.718C30.1322 133.439 31.3302 137.094 32.546 140.74C33.0801 142.337 33.5204 145.468 35.2913 146.135L35.9814 144.505C36.75 139.207 37.0679 133.806 40.6279 129.38C40.7782 129.172 40.8518 128.918 40.8363 128.662C40.8207 128.406 40.7169 128.163 40.5426 127.974C38.9767 125.631 37.5433 123.202 36.249 120.699L36.1594 119.284C37.6732 119.289 38.7047 120.326 39.8807 121.023C41.0567 121.72 42.1317 122.41 43.368 123.166C45.5902 120.032 47.9443 117.087 49.8565 113.85L50.1377 113.5C49.7555 113.843 49.6947 113.436 49.5848 113.249C49.4079 112.804 49.2037 112.37 48.9732 111.949C47.6781 110.105 46.4895 108.189 45.4132 106.21L45.321 105.09C46.1206 105.06 46.9064 105.304 47.549 105.781C49.7068 107.201 51.9772 108.513 54.237 109.896C56.4514 107.278 58.571 104.758 60.678 102.212C60.9995 101.832 60.8691 101.393 60.6691 100.922C59.9292 99.0958 62.6761 90.7469 62.6761 90.7469L83.1324 85.6977" fill="#242427"/>
<path d="M102.604 78.1871C97.3511 77.3975 87.47 82.9933 84.3603 85.3265L83.1131 85.7721C83.4349 86.5463 83.99 87.2009 84.7012 87.645C86.7113 88.9823 105.123 101.954 105.826 100.373C106.911 98.0581 108.012 95.7783 109.072 93.4095C109.148 93.1747 109.275 92.9598 109.445 92.7804C109.614 92.601 109.822 92.4616 110.052 92.3722L110.744 93.2205C111.235 96.1103 111.302 99.0252 111.593 101.954C111.597 102.307 111.703 102.65 111.897 102.944C112.092 103.239 112.366 103.471 112.689 103.613C115.319 104.781 117.882 106.094 120.367 107.545C121.459 108.249 122.014 107.673 122.451 106.706C123.091 105.317 123.776 103.908 124.365 102.456C124.586 101.844 125.022 101.334 125.592 101.02L126.265 102.15C126.634 104.574 126.624 107.025 126.777 109.454C126.757 109.76 126.828 110.066 126.98 110.333C127.133 110.599 127.361 110.815 127.635 110.953C130.974 112.85 134.295 114.777 137.615 116.705L141.945 110.449C142.212 110.658 142.432 110.921 142.592 111.22C142.751 111.52 142.847 111.849 142.872 112.187C143.062 114.577 143.583 116.909 143.89 119.319C143.876 119.559 143.937 119.797 144.066 120C144.194 120.203 144.384 120.36 144.607 120.449C147.371 121.707 150.003 123.236 152.464 125.015C155.319 127.121 157.809 129.681 159.835 132.593C160.242 133.43 160.738 134.221 161.315 134.952L162.748 134.277C160.333 117.593 153.613 99.8698 140.429 88.7211C130.85 80.6744 118.834 76.0962 106.329 75.7277L111.449 73.2532C111.93 73.0768 112.345 72.7562 112.637 72.3353C112.835 71.876 112.884 71.3662 112.777 70.8775C112.476 68.004 112.176 65.1407 111.877 62.2877L117.649 69.933C117.777 70.1983 117.959 70.4341 118.183 70.6251C118.407 70.8162 118.668 70.9584 118.95 71.0426C119.233 71.1268 119.529 71.1511 119.821 71.114C120.114 71.0769 120.395 70.9793 120.647 70.8273L131.566 67.2762C132.641 67.0328 133.621 66.4774 134.381 65.6797C136.402 63.0433 132.748 58.6963 134.735 56.0107C136.642 58.5382 138.883 64.4094 141.734 65.5467C144.585 66.684 151.628 64.5765 154.742 64.2634C155.16 62.425 154.8 60.5285 154.85 58.6461C154.806 57.2743 154.846 55.9011 154.97 54.5342C155.016 54.2624 154.997 53.9231 155.34 53.7729L156.208 54.0928C158.535 56.5422 160.858 58.9608 163.145 61.4401C163.363 61.7366 163.662 61.9633 164.007 62.0926C164.352 62.2219 164.726 62.2482 165.086 62.1684C169.294 61.7396 173.546 62.1399 177.6 63.3466C178.011 63.4576 178.458 63.5298 178.879 63.6147L184.951 65.1059C184.968 64.7666 184.913 64.4276 184.79 64.1108C184.667 63.7941 184.479 63.5066 184.238 63.267C183.736 62.7313 183.23 62.1868 182.763 61.6344C182.297 61.082 181.706 60.4034 181.148 59.796C168.368 45.7392 151.469 37.6002 132.26 40.747C123.606 42.2358 115.354 45.5007 108.025 50.3358C104.272 52.7764 100.764 55.5742 97.5501 58.69C95.2273 60.8703 91.9553 66.8787 89.4001 68.1029L88.056 68.7354C87.5015 66.7023 88.866 65.3969 89.8729 63.9554L89.3922 64.1816C88.4853 63.4559 87.7497 62.5626 86.7663 61.9055C86.569 61.788 86.4112 61.6142 86.3135 61.4064C86.2157 61.1986 86.1823 60.9663 86.2176 60.7394C86.3778 60.1095 86.9087 60.1749 87.4015 60.1823L92.4595 60.1179C95.2781 55.4101 98.3491 50.8228 100.996 46.1197C100.305 44.8358 99.0544 44.3044 98.3355 43.2619L97.8941 42.0235C98.3735 41.8046 98.9128 41.7539 99.4246 41.8795C100.58 42.1623 101.754 42.3707 102.867 42.7493C103.225 42.914 103.63 42.9493 104.011 42.8492C104.392 42.7491 104.727 42.5199 104.958 42.2005C106.361 40.5616 107.959 39.0594 109.366 37.4294C110.774 35.7994 112.781 34.2893 113.926 32.2394C113.515 31.7367 113.028 31.3247 112.599 30.8743C111.619 29.8565 110.236 29.181 109.761 27.7086L110.659 27.1447C113.149 27.1468 115.571 27.6709 118.028 27.7646C119.932 24.666 122.773 22.2547 126.14 20.8813L126.821 19.8325C126.106 19.2873 125.21 19.0361 124.316 19.1303C112.3 19.0115 100.107 25.2167 91.6029 33.4374C86.0535 38.783 82.3319 45.743 80.9679 53.3267C79.6769 60.6297 79.5408 68.0902 80.5647 75.4355C80.7736 77.0116 81.4527 78.6164 80.8548 80.2569L79.6374 79.8186C77.2923 76.1608 74.7308 72.6464 71.9665 69.2941C63.6663 59.6963 52.5417 53.7544 39.4693 55.6875C26.1979 57.66 16.3441 67.6572 10.6723 79.2635L10.3105 84.6635C13.0919 83.1806 15.7429 81.4438 18.6432 80.1442C21.3032 78.85 24.1764 78.0506 27.1225 77.7849L27.9744 76.1989L31.5523 71.7644C31.9849 73.1394 32.2857 74.5523 32.4508 75.9842C32.8126 77.7927 32.977 77.9111 34.7793 77.8132C37.0706 77.6917 39.3724 77.6849 41.7281 77.631C42.4449 75.0647 42.5873 72.4101 43.0586 69.8072C43.1128 69.0968 43.4336 68.4332 43.9566 67.9494L44.9064 69.2747C45.6777 71.2602 45.7101 73.4086 46.2735 75.4376C46.407 75.9292 46.7998 76.4403 46.5442 77.1911C49.6979 77.2618 52.6998 76.6864 55.7226 76.5251L62.3886 77.1283C61.5053 76.1523 61.7483 74.8202 61.3838 73.6762C60.9121 72.2347 60.8304 70.6748 60.2879 69.2449L71.0999 82.0314C62.348 81.3086 53.5491 82.6627 45.4195 85.9836C39.9818 88.1293 34.8714 91.5019 31.5004 96.3065C24.7652 106 26.1899 118.985 29.1205 129.718C30.1322 133.439 31.3302 137.094 32.546 140.74C33.0801 142.337 33.5204 145.468 35.2913 146.135L35.9814 144.505C36.75 139.207 37.0679 133.806 40.6279 129.38C40.7782 129.172 40.8518 128.918 40.8363 128.662C40.8207 128.406 40.7169 128.163 40.5426 127.974C38.9767 125.631 37.5433 123.202 36.249 120.699L36.1594 119.284C37.6732 119.289 38.7047 120.326 39.8807 121.023C41.0567 121.72 42.1317 122.41 43.368 123.166C45.5902 120.032 47.9443 117.087 49.8565 113.85L50.1377 113.5C49.7555 113.843 49.6947 113.436 49.5848 113.249C49.4079 112.804 49.2037 112.37 48.9732 111.949C47.6781 110.105 46.4895 108.189 45.4132 106.21L45.321 105.09C46.1206 105.06 46.9064 105.304 47.549 105.781C49.7068 107.201 51.9772 108.513 54.237 109.896C56.4514 107.278 58.571 104.758 60.678 102.212C60.9995 101.832 60.8691 101.393 60.6691 100.922C59.9292 99.0958 62.6761 90.7469 62.6761 90.7469L83.1324 85.6977" stroke="#242427" stroke-width="1.57404" stroke-linecap="round" stroke-linejoin="round"/>
<path d="M77.8133 89.7594C79.4691 89.7594 81.0877 89.2684 82.4645 88.3485C83.8412 87.4286 84.9143 86.1211 85.5479 84.5913C86.1816 83.0615 86.3474 81.3782 86.0243 79.7543C85.7013 78.1303 84.904 76.6385 83.7331 75.4677C82.5623 74.2969 81.0706 73.4995 79.4466 73.1765C77.8226 72.8535 76.1393 73.0193 74.6095 73.6529C73.0798 74.2866 71.7722 75.3596 70.8523 76.7363C69.9324 78.1131 69.4414 79.7317 69.4414 81.3875C69.4414 83.6079 70.3234 85.7373 71.8935 87.3074C73.4635 88.8774 75.5929 89.7594 77.8133 89.7594Z" fill="white" stroke="#242427" stroke-width="1.57404" stroke-miterlimit="1"/>
<path d="M92.6676 93.2415C94.2927 93.2415 95.8813 92.7595 97.2324 91.8564C98.5835 90.9534 99.6363 89.6699 100.258 88.1683C100.879 86.6667 101.041 85.0145 100.724 83.4208C100.406 81.8271 99.6225 80.3634 98.4727 79.215C97.3229 78.0666 95.8583 77.285 94.2642 76.9691C92.6701 76.6533 91.0181 76.8174 89.5173 77.4406C88.0164 78.0639 86.7342 79.1183 85.8327 80.4704C84.9313 81.8226 84.4512 83.4117 84.4531 85.0368C84.4557 87.2138 85.3223 89.3006 86.8626 90.839C88.4028 92.3774 90.4907 93.2415 92.6676 93.2415Z" fill="white" stroke="#242427" stroke-width="1.57404" stroke-miterlimit="1"/>
<path d="M143.451 183.727L145.061 186.727" stroke="#242427" stroke-width="1.6" stroke-linecap="round" stroke-linejoin="round"/>
<path fill-rule="evenodd" clip-rule="evenodd" d="M152.622 194.787C152.622 194.787 152.162 193.787 152.622 190.637V194.787Z" fill="#F5F794"/>
<path d="M152.622 194.787C152.622 194.787 152.162 193.787 152.622 190.637" stroke="#242427" stroke-width="1.6" stroke-linecap="round" stroke-linejoin="round"/>
<path d="M127.592 188.996L129.202 191.996" stroke="#242427" stroke-width="1.6" stroke-linecap="round" stroke-linejoin="round"/>
<path fill-rule="evenodd" clip-rule="evenodd" d="M136.771 199.994C136.771 199.994 136.301 198.994 136.771 195.844V199.994Z" fill="#F5F794"/>
<path fill-rule="evenodd" clip-rule="evenodd" d="M164.002 166.996C165.112 160.276 158.332 153.416 148.402 150.576C153.832 144.576 155.482 137.576 151.842 132.836C148.322 128.316 140.902 127.326 133.302 129.836C131.182 124.396 126.992 120.376 121.652 119.496C115.312 118.436 109.102 122.056 105.372 128.206C99.8022 125.996 93.9322 126.046 89.5022 128.996C84.1122 132.536 82.3322 139.306 84.2122 146.226C78.7722 148.476 74.8222 152.666 73.9422 157.976C72.7122 165.486 77.9422 172.906 86.3822 176.526C83.5822 181.036 83.0122 185.526 85.3822 188.656C88.3822 192.496 95.0722 193.086 102.262 190.656C103.269 193.878 105.135 196.766 107.66 199.007C110.185 201.248 113.273 202.759 116.592 203.376C124.812 204.756 132.732 200.106 136.462 192.446C141.292 195.066 146.072 195.646 149.272 193.536C153.482 190.766 153.822 184.166 150.692 177.126C157.782 175.926 163.072 172.196 163.922 167.026L164.002 166.996Z" fill="#242427"/>
<path d="M135.402 158.117C138.542 157.977 140.912 154.117 140.702 149.487C140.492 144.857 137.792 141.227 134.702 141.367C131.612 141.507 129.192 145.367 129.392 149.997C129.592 154.627 132.262 158.257 135.402 158.117Z" fill="white"/>
<path d="M124.001 158.627C127.131 158.487 129.511 154.627 129.301 149.997C129.091 145.367 126.381 141.727 123.301 141.867C120.221 142.007 117.781 145.867 117.991 150.497C118.201 155.127 120.901 158.767 124.001 158.627Z" fill="white"/>
<path d="M133.891 155.047C136.041 154.957 137.681 152.467 137.541 149.487C137.401 146.507 135.541 144.177 133.411 144.277C131.281 144.377 129.631 146.857 129.761 149.837C129.891 152.817 131.751 155.147 133.891 155.047Z" fill="#242427"/>
<path d="M123.162 155.554C125.162 155.464 126.642 152.984 126.512 150.014C126.382 147.044 124.662 144.694 122.682 144.784C120.702 144.874 119.202 147.354 119.332 150.334C119.462 153.314 121.182 155.644 123.162 155.554Z" fill="#242427"/>
<path d="M122.624 151.529C123.521 151.528 124.25 150.513 124.252 149.264C124.254 148.015 123.529 147.003 122.632 147.005C121.735 147.006 121.006 148.021 121.004 149.27C121.001 150.519 121.727 151.531 122.624 151.529Z" fill="white"/>
<path d="M124.763 153.408C125.173 153.408 125.506 152.944 125.507 152.372C125.508 151.8 125.177 151.338 124.767 151.338C124.357 151.339 124.025 151.803 124.023 152.375C124.022 152.946 124.354 153.409 124.763 153.408Z" fill="white"/>
<path d="M132.624 151.529C133.521 151.528 134.25 150.513 134.252 149.264C134.254 148.015 133.529 147.003 132.632 147.005C131.735 147.006 131.006 148.021 131.004 149.27C131.001 150.519 131.727 151.531 132.624 151.529Z" fill="white"/>
<path d="M134.763 153.408C135.173 153.408 135.506 152.944 135.507 152.372C135.508 151.8 135.177 151.338 134.767 151.338C134.357 151.339 134.025 151.803 134.023 152.375C134.022 152.946 134.354 153.409 134.763 153.408Z" fill="white"/>
<path d="M131.543 169.565C126.543 170.065 122.173 167.475 121.813 163.805C121.453 160.135 125.223 156.745 130.223 156.245C135.223 155.745 139.593 158.335 139.953 162.005C140.313 165.675 136.553 169.065 131.543 169.565Z" fill="white" stroke="#242427" stroke-width="1.6" stroke-miterlimit="10"/>
<path d="M140.002 162.156C137.592 164.156 134.492 160.646 130.812 161.016C127.132 161.386 125.812 165.276 121.352 164.016" stroke="#242427" stroke-width="1.6"/>
<path d="M132.132 163.045L134.562 161.875L127.242 162.605L129.862 163.275C130.622 163.466 131.426 163.385 132.132 163.045Z" fill="#242427" stroke="#242427" stroke-width="1.6" stroke-linecap="round" stroke-linejoin="round"/>
<path d="M139.632 189.774L144.182 185.034L153.392 202.184C153.797 203.2 154.421 204.114 155.219 204.86C156.018 205.607 156.971 206.168 158.012 206.504C163.012 207.914 168.872 202.694 171.072 194.854C173.272 187.014 171.002 179.474 166.002 178.084C161.002 176.694 155.142 181.894 152.942 189.724L147.002 181.274C146.702 180.845 146.307 180.492 145.847 180.242C145.387 179.993 144.875 179.854 144.352 179.836C143.829 179.819 143.309 179.923 142.833 180.142C142.358 180.36 141.94 180.686 141.612 181.094L136.002 187.994" fill="white"/>
<path d="M139.632 189.774L144.182 185.034L153.392 202.184C153.797 203.2 154.421 204.114 155.219 204.86C156.018 205.607 156.971 206.168 158.012 206.504C163.012 207.914 168.872 202.694 171.072 194.854C173.272 187.014 171.002 179.474 166.002 178.084C161.002 176.694 155.142 181.894 152.942 189.724L147.002 181.274C146.702 180.845 146.307 180.492 145.847 180.242C145.387 179.993 144.875 179.854 144.352 179.836C143.829 179.819 143.309 179.923 142.833 180.142C142.358 180.36 141.94 180.686 141.612 181.094L136.002 187.994" stroke="#242427" stroke-width="1.6" stroke-linecap="round" stroke-linejoin="round"/>
<path d="M156.202 200.617C154.642 194.317 157.762 182.837 164.762 180.797" stroke="#242427" stroke-width="1.6" stroke-linecap="round" stroke-linejoin="round"/>
<path d="M121.752 191.267L125.752 186.347C126.08 185.939 126.5 185.613 126.976 185.395C127.452 185.176 127.973 185.072 128.497 185.089C129.02 185.107 129.533 185.246 129.994 185.495C130.454 185.745 130.851 186.098 131.152 186.527L137.002 194.997C139.192 187.157 145.002 181.937 150.062 183.347C155.122 184.757 157.372 192.247 155.182 200.087C152.992 207.927 147.182 213.147 142.112 211.737C141.071 211.399 140.117 210.836 139.319 210.087C138.52 209.339 137.897 208.424 137.492 207.407L128.282 190.267L124.772 193.917C124.418 194.315 123.92 194.556 123.388 194.587C122.857 194.618 122.335 194.436 121.937 194.082C121.539 193.728 121.298 193.23 121.267 192.699C121.236 192.167 121.418 191.645 121.772 191.247L121.752 191.267Z" fill="white" stroke="#242427" stroke-width="1.6" stroke-linecap="round" stroke-linejoin="round"/>
<path d="M140.332 205.845C138.772 199.545 141.902 188.075 148.902 186.035" stroke="#242427" stroke-width="1.6" stroke-linecap="round" stroke-linejoin="round"/>
<path d="M136.771 199.994C136.771 199.994 136.301 198.994 136.771 195.844" stroke="#242427" stroke-width="1.6" stroke-linecap="round" stroke-linejoin="round"/>
<path fill-rule="evenodd" clip-rule="evenodd" d="M95.1702 151.126L90.2402 142.126C89.9431 142.023 89.6281 141.98 89.3141 142.001C89.0001 142.023 88.6937 142.107 88.4133 142.25C88.133 142.393 87.8845 142.592 87.6829 142.833C87.4813 143.075 87.3307 143.355 87.2402 143.656L91.5202 152.426L95.1702 151.126Z" fill="#EFEFEF" stroke="#242427" stroke-width="1.6" stroke-linecap="round" stroke-linejoin="round"/>
<path fill-rule="evenodd" clip-rule="evenodd" d="M95.8203 181.298C96.0242 181.421 96.268 181.461 96.5003 181.408C97.3042 181.448 98.11 181.424 98.9103 181.338C100.55 181.201 102.078 180.451 103.19 179.238C105.28 176.908 107.27 173.118 107.54 171.008C107.91 168.008 97.6703 151.688 95.9003 150.098C94.9003 149.238 90.3203 149.958 90.3203 149.958L95.8203 181.298Z" fill="#D9D9D9" stroke="#242427" stroke-width="1.6" stroke-miterlimit="10" stroke-linecap="round"/>
<path fill-rule="evenodd" clip-rule="evenodd" d="M85.0886 159.914C84.8461 157.959 85.1148 155.975 85.8686 154.154C86.0893 153.594 86.3781 153.064 86.7286 152.574C87.7286 151.164 90.4586 148.784 92.2386 150.384C94.0186 151.984 104.239 168.324 103.879 171.294C103.519 174.264 97.7486 182.554 95.8186 181.294C95.0077 180.587 94.3478 179.723 93.8786 178.754C90.835 173.977 88.2246 168.937 86.0786 163.694C85.5798 162.485 85.2468 161.213 85.0886 159.914Z" fill="#D9D9D9" stroke="#242427" stroke-width="1.6" stroke-miterlimit="10" stroke-linecap="round"/>
<path d="M195.238 150.613L198.893 150.943M198.893 150.943L197.552 154.632M198.893 150.943L201.997 153.657M198.893 150.943L202.075 149.114M198.893 150.943L198.104 147.344" stroke="#242427" stroke-width="1.8" stroke-linecap="round" stroke-linejoin="round"/>
<path d="M207.267 154.121L210.923 154.451M210.923 154.451L209.581 158.139M210.923 154.451L214.026 157.165M210.923 154.451L214.105 152.622M210.923 154.451L210.134 150.852" stroke="#242427" stroke-width="1.8" stroke-linecap="round" stroke-linejoin="round"/>
<path d="M199.314 136.521L205.025 136.885M205.025 136.885L202.816 142.219M205.025 136.885L209.8 140.688M205.025 136.885L210.059 134.165M205.025 136.885L203.898 131.744" stroke="#242427" stroke-width="1.8" stroke-linecap="round" stroke-linejoin="round"/>
<path d="M184.925 141.537L198.559 115.002" stroke="#242427" stroke-width="1.8" stroke-linecap="round" stroke-linejoin="round"/>
<path d="M199.87 166.637L229.065 162.692" stroke="#242427" stroke-width="1.8" stroke-linecap="round" stroke-linejoin="round"/>
</svg>
