<svg width="40" height="40" viewBox="0 0 40 40" fill="none" xmlns="http://www.w3.org/2000/svg">
<path d="M20 40C31.0457 40 40 31.0457 40 20C40 8.95431 31.0457 0 20 0C8.9543 0 0 8.95431 0 20C0 31.0457 8.9543 40 20 40Z" fill="#242427"/>
<path d="M31.2486 22.3782L32.0321 21.9227C31.8595 21.6829 31.5673 21.5391 31.2486 21.5391C30.9299 21.5391 30.6377 21.6829 30.4651 21.9227L31.2486 22.3782ZM31.2486 22.3782C31.771 22.0745 32.0321 21.9227 32.0321 21.9227L32.0587 21.9586C32.0587 21.9586 32.1118 22.0305 32.1384 22.0785C32.2048 22.1744 32.311 22.3182 32.4306 22.498C32.6696 22.8457 32.9883 23.3371 33.3071 23.8646C33.6258 24.392 33.9578 24.9674 34.2101 25.5188C34.4492 26.0343 34.6749 26.6336 34.6749 27.1371C34.6749 27.5566 34.5952 27.9642 34.4226 28.3478C34.25 28.7314 34.0109 29.091 33.6922 29.3907C33.3735 29.6903 33.0016 29.9301 32.5766 30.0979C32.1649 30.2657 31.7134 30.3496 31.2486 30.3496C30.7838 30.3496 30.3455 30.2657 29.9206 30.0979C29.5089 29.9301 29.1237 29.6903 28.805 29.3907C28.4863 29.091 28.2472 28.7314 28.0746 28.3478C27.902 27.9642 27.8223 27.5446 27.8223 27.1371C27.8223 26.6336 28.048 26.0343 28.2871 25.5188C28.5394 24.9674 28.8714 24.392 29.1901 23.8646C29.5089 23.3371 29.8276 22.8457 30.0666 22.498C30.1862 22.3182 30.2791 22.1744 30.3588 22.0785C30.3987 22.0305 30.4252 21.9946 30.4385 21.9586L30.4651 21.9227C30.4651 21.9227 30.4651 21.9227 31.2486 22.3782Z" fill="#4FB4EC"/>
<path d="M15.1659 22.8195C17.799 22.8195 19.9334 19.6725 19.9334 15.7906C19.9334 11.9087 17.799 8.76172 15.1659 8.76172C12.5329 8.76172 10.3984 11.9087 10.3984 15.7906C10.3984 19.6725 12.5329 22.8195 15.1659 22.8195Z" fill="white"/>
<path d="M24.7089 22.8195C27.3419 22.8195 29.4764 19.6725 29.4764 15.7906C29.4764 11.9087 27.3419 8.76172 24.7089 8.76172C22.0759 8.76172 19.9414 11.9087 19.9414 15.7906C19.9414 19.6725 22.0759 22.8195 24.7089 22.8195Z" fill="white"/>
<path d="M27.3027 15.8826V15.8826C26.1796 17.7077 23.5266 17.7077 22.4035 15.8826V15.8826" stroke="#1A1A1A" stroke-width="1.8" stroke-linecap="round"/>
<path d="M17.5078 15.6639V15.6639C16.3847 17.489 13.7317 17.489 12.6085 15.6639V15.6639" stroke="#1A1A1A" stroke-width="1.8" stroke-linecap="round"/>
<path d="M20.019 27.1564C20.019 27.1564 20.0288 27.1564 20.0386 27.1564H20.0092C20.0092 27.1564 20.019 27.1564 20.0288 27.1564C16.5829 27.1466 15.0655 24.0335 13.0489 25.2181C13.0489 25.3159 13.0293 25.4041 13.0293 25.502C13.0293 28.5563 16.1522 31.033 20.0092 31.033C23.8663 31.033 26.9892 28.5563 26.9892 25.502C26.9892 25.4041 26.9794 25.3062 26.9696 25.2083C24.9725 24.0727 23.4551 27.1564 20.0288 27.1662L20.019 27.1564Z" fill="#F5F378"/>
<path d="M20.019 27.1564C20.019 27.1564 20.0288 27.1564 20.0386 27.1564H20.0092C20.0092 27.1564 20.019 27.1564 20.0288 27.1564C16.5829 27.1466 15.0655 24.0335 13.0489 25.2181C13.0489 25.3159 13.0293 25.4041 13.0293 25.502C13.0293 28.5563 16.1522 31.033 20.0092 31.033C23.8663 31.033 26.9892 28.5563 26.9892 25.502C26.9892 25.4041 26.9794 25.3062 26.9696 25.2083C24.9725 24.0727 23.4551 27.1564 20.0288 27.1662L20.019 27.1564Z" fill="black" fill-opacity="0.2"/>
<path d="M17.1308 26.3925C17.0916 26.5002 17.072 26.6177 17.1112 26.7352C17.4538 27.9197 18.6286 28.7224 20.0383 28.7224C21.448 28.7224 22.6227 27.9295 22.9653 26.7352C23.0045 26.6079 22.9849 26.4904 22.936 26.373C22.1332 25.952 21.2032 25.6094 20.0578 25.6094C18.8929 25.6094 17.9531 25.9716 17.1406 26.3925H17.1308Z" fill="#4F4E17"/>
<path d="M20.019 27.1562C23.4453 27.1562 24.9627 24.0627 26.9598 25.1983C26.764 22.2811 23.7292 19.9609 19.9994 19.9609C16.2696 19.9609 13.2251 22.2908 13.0391 25.2179C15.0557 24.0236 16.5633 27.1464 20.019 27.1562Z" fill="#F5F378"/>
</svg>
