<svg width="42" height="42" viewBox="0 0 42 42" fill="none" xmlns="http://www.w3.org/2000/svg">
<path d="M39.031 9.77586H38.7414V9.48621C38.7414 7.84875 37.4099 6.51724 35.7724 6.51724H35.4828V6.22759C35.4828 4.59013 34.1512 3.25862 32.5138 3.25862H32.2241V2.96897C32.2241 1.33151 30.8926 0 29.2552 0H12.7448C11.1074 0 9.77586 1.33151 9.77586 2.96897V3.25862H9.48621C7.84875 3.25862 6.51724 4.59013 6.51724 6.22759V6.51724H6.22759C4.59013 6.51724 3.25862 7.84875 3.25862 9.48621V9.77586H2.96897C1.33151 9.77586 0 11.1074 0 12.7448V29.2552C0 30.8926 1.33151 32.2241 2.96897 32.2241H3.25862V32.5138C3.25862 34.1512 4.59013 35.4828 6.22759 35.4828H6.51724V35.7724C6.51724 37.4099 7.84875 38.7414 9.48621 38.7414H9.77586V39.031C9.77586 40.6685 11.1074 42 12.7448 42H29.2552C30.8926 42 32.2241 40.6685 32.2241 39.031V38.7414H32.5138C34.1512 38.7414 35.4828 37.4099 35.4828 35.7724V35.4828H35.7724C37.4099 35.4828 38.7414 34.1512 38.7414 32.5138V32.2241H39.031C40.6685 32.2241 42 30.8926 42 29.2552V12.7448C42 11.1074 40.6685 9.77586 39.031 9.77586Z" fill="#CAED64"/>
<path d="M39.0339 11.229H37.9948C37.6092 11.229 37.296 10.9158 37.296 10.5302V9.49106C37.296 8.65106 36.6153 7.97037 35.7753 7.97037H34.7362C34.3506 7.97037 34.0374 7.65718 34.0374 7.27157V6.23244C34.0374 5.39244 33.3567 4.71175 32.5167 4.71175H31.4776C31.0919 4.71175 30.7788 4.39856 30.7788 4.01295V2.97381C30.7788 2.13381 30.0981 1.45312 29.2581 1.45312H12.7477C11.9077 1.45312 11.227 2.13381 11.227 2.97381V4.01295C11.227 4.39856 10.9138 4.71175 10.5282 4.71175H9.4891C8.6491 4.71175 7.96841 5.39244 7.96841 6.23244V7.27157C7.96841 7.65718 7.65522 7.97037 7.26962 7.97037H6.23048C5.39048 7.97037 4.70979 8.65106 4.70979 9.49106V10.5302C4.70979 10.9158 4.3966 11.229 4.011 11.229H2.97186C2.13186 11.229 1.45117 11.9097 1.45117 12.7497V29.26C1.45117 30.1 2.13186 30.7807 2.97186 30.7807H4.011C4.3966 30.7807 4.70979 31.0939 4.70979 31.4795V32.5186C4.70979 33.3586 5.39048 34.0393 6.23048 34.0393H7.26962C7.65522 34.0393 7.96841 34.3525 7.96841 34.7381V35.7773C7.96841 36.6173 8.6491 37.298 9.4891 37.298H10.5282C10.9138 37.298 11.227 37.6111 11.227 37.9967V39.0359C11.227 39.8759 11.9077 40.5566 12.7477 40.5566H29.2581C30.0981 40.5566 30.7788 39.8759 30.7788 39.0359V37.9967C30.7788 37.6111 31.0919 37.298 31.4776 37.298H32.5167C33.3567 37.298 34.0374 36.6173 34.0374 35.7773V34.7381C34.0374 34.3525 34.3506 34.0393 34.7362 34.0393H35.7753C36.6153 34.0393 37.296 33.3586 37.296 32.5186V31.4795C37.296 31.0939 37.6092 30.7807 37.9948 30.7807H39.0339C39.8739 30.7807 40.5546 30.1 40.5546 29.26V12.7497C40.5546 11.9097 39.8739 11.229 39.0339 11.229ZM35.5581 30.7807C34.7181 30.7807 34.0374 31.4614 34.0374 32.3014V33.3405C34.0374 33.7261 33.7242 34.0393 33.3386 34.0393H32.2994C31.4594 34.0393 30.7788 34.72 30.7788 35.56V36.5992C30.7788 36.9848 30.4656 37.298 30.08 37.298H11.9258C11.5402 37.298 11.227 36.9848 11.227 36.5992V35.56C11.227 34.72 10.5463 34.0393 9.70634 34.0393H8.66721C8.2816 34.0393 7.96841 33.7261 7.96841 33.3405V32.3014C7.96841 31.4614 7.28772 30.7807 6.44772 30.7807H5.40859C5.02298 30.7807 4.70979 30.4675 4.70979 30.0819V11.9278C4.70979 11.5422 5.02298 11.229 5.40859 11.229H6.44772C7.28772 11.229 7.96841 10.5483 7.96841 9.7083V8.66916C7.96841 8.28356 8.2816 7.97037 8.66721 7.97037H9.70634C10.5463 7.97037 11.227 7.28968 11.227 6.44968V5.41054C11.227 5.02494 11.5402 4.71175 11.9258 4.71175H30.08C30.4656 4.71175 30.7788 5.02494 30.7788 5.41054V6.44968C30.7788 7.28968 31.4594 7.97037 32.2994 7.97037H33.3386C33.7242 7.97037 34.0374 8.28356 34.0374 8.66916V9.7083C34.0374 10.5483 34.7181 11.229 35.5581 11.229H36.5972C36.9828 11.229 37.296 11.5422 37.296 11.9278V30.0819C37.296 30.4675 36.9828 30.7807 36.5972 30.7807H35.5581Z" fill="#242427"/>
<path d="M32.519 14.4844H9.49139C8.65139 14.4844 7.9707 15.1651 7.9707 16.0051V16.2223C7.9707 17.0623 8.65139 17.743 9.49139 17.743H10.5305C10.9161 17.743 11.2293 18.0562 11.2293 18.4418V19.4809C11.2293 20.3209 11.91 21.0016 12.75 21.0016H16.2259C17.0659 21.0016 17.7466 20.3209 17.7466 19.4809V18.4418C17.7466 18.0562 18.0598 17.743 18.4454 17.743H23.565C23.9506 17.743 24.2638 18.0562 24.2638 18.4418V19.4809C24.2638 20.3209 24.9445 21.0016 25.7845 21.0016H29.2604C30.1004 21.0016 30.7811 20.3209 30.7811 19.4809V18.4418C30.7811 18.0562 31.0942 17.743 31.4798 17.743H32.519C33.359 17.743 34.0397 17.0623 34.0397 16.2223V16.0051C34.0397 15.1651 33.359 14.4844 32.519 14.4844Z" fill="#242427"/>
<path d="M25.9982 24.2578H25.7809C24.9409 24.2578 24.2602 24.9385 24.2602 25.7785V26.8176C24.2602 27.2032 23.947 27.5164 23.5614 27.5164H16.0051C15.1651 27.5164 14.4844 28.1971 14.4844 29.0371V29.2544C14.4844 30.0944 15.1651 30.7751 16.0051 30.7751H22.7395C23.5795 30.7751 24.2602 30.0944 24.2602 29.2544V28.2152C24.2602 27.8296 24.5734 27.5164 24.959 27.5164H25.9982C26.8382 27.5164 27.5189 26.8357 27.5189 25.9957V25.7785C27.5189 24.9385 26.8382 24.2578 25.9982 24.2578Z" fill="#242427"/>
</svg>
