<svg width="335" height="56" viewBox="0 0 335 56" fill="none" xmlns="http://www.w3.org/2000/svg">
<rect width="335" height="56" rx="8" fill="#FEFEFE"/>
<g clip-path="url(#clip0_1268_66849)">
<path d="M100.223 22.3846C101.055 22.3846 102.098 21.8048 102.719 21.0318C103.281 20.3312 103.691 19.3528 103.691 18.3744C103.691 18.2416 103.68 18.1087 103.656 18C102.73 18.0362 101.617 18.6402 100.949 19.4495C100.422 20.0655 99.9414 21.0318 99.9414 22.0223C99.9414 22.1672 99.9648 22.3121 99.9766 22.3605C100.035 22.3725 100.129 22.3846 100.223 22.3846ZM97.293 37C98.4297 37 98.9336 36.2149 100.352 36.2149C101.793 36.2149 102.109 36.9758 103.375 36.9758C104.617 36.9758 105.449 35.7921 106.234 34.6325C107.113 33.3039 107.477 31.9994 107.5 31.939C107.418 31.9148 105.039 30.9123 105.039 28.0979C105.039 25.658 106.914 24.5588 107.02 24.4743C105.777 22.6383 103.891 22.59 103.375 22.59C101.98 22.59 100.844 23.4596 100.129 23.4596C99.3555 23.4596 98.3359 22.6383 97.1289 22.6383C94.832 22.6383 92.5 24.595 92.5 28.2912C92.5 30.5861 93.3672 33.014 94.4336 34.5842C95.3477 35.9129 96.1445 37 97.293 37Z" fill="black"/>
</g>
<path d="M117.448 34.5H115.005L119.487 21.7734H122.3L126.8 34.5H124.356L123.302 31.3535H118.503L117.448 34.5ZM119.118 29.5078H122.687L120.946 24.375H120.841L119.118 29.5078ZM127.906 38.0859V24.9551H130.103V26.5195H130.244C130.596 25.834 131.299 24.832 132.986 24.832C135.183 24.832 136.924 26.5547 136.924 29.7363C136.924 32.8828 135.236 34.6758 132.986 34.6758C131.334 34.6758 130.596 33.6914 130.244 32.9883H130.156V38.0859H127.906ZM130.103 29.7188C130.103 31.582 130.912 32.8301 132.371 32.8301C133.847 32.8301 134.638 31.5293 134.638 29.7188C134.638 27.9434 133.865 26.6602 132.371 26.6602C130.912 26.6602 130.103 27.873 130.103 29.7188ZM138.381 38.0859V24.9551H140.579V26.5195H140.719C141.071 25.834 141.774 24.832 143.462 24.832C145.659 24.832 147.399 26.5547 147.399 29.7363C147.399 32.8828 145.712 34.6758 143.462 34.6758C141.809 34.6758 141.071 33.6914 140.719 32.9883H140.631V38.0859H138.381ZM140.579 29.7188C140.579 31.582 141.387 32.8301 142.846 32.8301C144.323 32.8301 145.114 31.5293 145.114 29.7188C145.114 27.9434 144.34 26.6602 142.846 26.6602C141.387 26.6602 140.579 27.873 140.579 29.7188ZM151.107 21.7734V34.5H148.857V21.7734H151.107ZM157.188 34.6934C154.305 34.6934 152.547 32.7773 152.547 29.7891C152.547 26.8359 154.34 24.832 157.065 24.832C159.403 24.832 161.424 26.291 161.424 29.6484V30.3516H154.762C154.788 31.9775 155.746 32.9355 157.205 32.9355C158.19 32.9355 158.858 32.5137 159.139 31.9512H161.336C160.932 33.6035 159.403 34.6934 157.188 34.6934ZM154.779 28.8223H159.279C159.262 27.5215 158.401 26.5723 157.1 26.5723C155.746 26.5723 154.85 27.6006 154.779 28.8223ZM176.839 32.6016V34.2188H162.319V32.6016H168.577V30.0176H164.042V24.8145H173.183V22.8457H164.007V21.2637H175.116V26.3613H165.993V28.418H175.485V30.0176H170.511V32.6016H176.839ZM195.258 20.1738V36.0645H193.395V20.1738H195.258ZM191.971 20.5605V35.3086H190.108V30H187.629V28.4004H190.108V26.0449H187.911C187.164 28.6816 185.503 30.9492 182.532 32.707L181.389 31.3184C184.685 29.376 186.197 26.8887 186.487 23.6895H182.233V22.1074H188.421C188.421 22.9072 188.368 23.6895 188.262 24.4453H190.108V20.5605H191.971ZM211.288 27.9785V29.5605H196.804V27.9785H203.062V25.7637H204.996V27.9785H211.288ZM205.013 21.0352C205.013 22.9688 207.14 24.7266 210.462 25.1484L209.706 26.6777C207.096 26.2734 205.022 25.0957 204.011 23.4258C202.992 25.0957 200.917 26.2734 198.298 26.6777L197.595 25.1484C200.865 24.7266 203.027 22.9336 203.027 21.0352V20.4375H205.013V21.0352ZM209.513 30.8262V36.0645H207.562V32.3555H198.404V30.8262H209.513ZM224.506 20.1738V26.502H226.949V28.1191H224.506V36.0645H222.572V20.1738H224.506ZM221.342 22.6172V24.1816H211.973V22.6172H215.735V20.4023H217.686V22.6172H221.342ZM216.719 25.2188C219.004 25.2188 220.709 26.7656 220.709 28.9629C220.709 31.1602 219.004 32.6895 216.719 32.6895C214.399 32.6895 212.694 31.1602 212.711 28.9629C212.694 26.7656 214.399 25.2188 216.719 25.2188ZM216.719 26.8184C215.471 26.8184 214.574 27.6621 214.574 28.9629C214.574 30.2637 215.471 31.0898 216.719 31.0723C217.932 31.0898 218.828 30.2637 218.846 28.9629C218.828 27.6621 217.932 26.8184 216.719 26.8184ZM240.589 20.1738V36.0645H238.62V20.1738H240.589ZM235.843 21.8613C235.843 26.5898 234.015 30.6152 228.442 33.252L227.423 31.6875C231.58 29.71 233.514 27.0205 233.856 23.4082H228.231V21.8613H235.843Z" fill="#242427"/>
<defs>
<clipPath id="clip0_1268_66849">
<rect width="16" height="20" fill="white" transform="translate(92.5 18)"/>
</clipPath>
</defs>
</svg>
