<svg width="24" height="24" viewBox="0 0 24 24" fill="none" xmlns="http://www.w3.org/2000/svg">
<path d="M12 22C17.53 22 22 17.53 22 12C22 6.47 17.53 2 12 2C6.47 2 2 6.47 2 12C2 17.53 6.48 22 12 22ZM15 8C15.55 8 16 8.45 16 9C16 9.55 15.55 10 15 10C14.45 10 14 9.55 14 9C14 8.45 14.45 8 15 8ZM9 8C9.55 8 10 8.45 10 9C10 9.55 9.55 10 9 10C8.45 10 8 9.55 8 9C8 8.45 8.45 8 9 8ZM8.75 12C8.75 13.79 10.21 15.25 12 15.25C13.79 15.25 15.25 13.79 15.25 12H16.75C16.75 14.62 14.62 16.75 12 16.75C9.38 16.75 7.25 14.62 7.25 12H8.75Z" fill="#B2B2B4"/>
</svg>
