<svg width="28" height="19" viewBox="0 0 28 19" fill="none" xmlns="http://www.w3.org/2000/svg">
<path fill-rule="evenodd" clip-rule="evenodd" d="M8.7487 9.08789C9.32323 9.08789 9.89214 8.97473 10.4229 8.75486C10.9537 8.535 11.436 8.21274 11.8423 7.80648C12.2485 7.40023 12.5708 6.91793 12.7907 6.38713C13.0105 5.85633 13.1237 5.28742 13.1237 4.71289C13.1237 4.13836 13.0105 3.56945 12.7907 3.03865C12.5708 2.50785 12.2485 2.02555 11.8423 1.6193C11.436 1.21304 10.9537 0.890782 10.4229 0.670918C9.89214 0.451054 9.32323 0.337891 8.7487 0.337891C7.58838 0.337891 6.47558 0.798827 5.65511 1.6193C4.83463 2.43977 4.3737 3.55257 4.3737 4.71289C4.3737 5.87321 4.83463 6.98601 5.65511 7.80648C6.47558 8.62696 7.58838 9.08789 8.7487 9.08789ZM9.33203 16.2991C9.33203 14.8244 10.2315 12.6416 12.2254 10.9884C11.2419 10.6419 10.0927 10.4249 8.7487 10.4249C2.8687 10.4249 0.582031 14.4359 0.582031 16.2991C0.582031 18.1657 5.45053 18.6604 8.7487 18.6604C9.2982 18.6604 9.89203 18.6452 10.4999 18.6137C9.7287 17.9989 9.33203 17.2289 9.33203 16.2991Z" fill="#B2B2B4" fill-opacity="0.72"/>
<path fill-rule="evenodd" clip-rule="evenodd" d="M19.2487 10.4261C13.3687 10.4261 11.082 14.4359 11.082 16.3002C11.082 18.1646 15.9505 18.6616 19.2487 18.6616C22.5469 18.6616 27.4154 18.1646 27.4154 16.3002C27.4154 14.4359 25.1287 10.4261 19.2487 10.4261ZM19.2487 9.08789C19.8232 9.08789 20.3921 8.97473 20.9229 8.75486C21.4537 8.535 21.936 8.21274 22.3423 7.80648C22.7485 7.40023 23.0708 6.91793 23.2907 6.38713C23.5105 5.85633 23.6237 5.28742 23.6237 4.71289C23.6237 4.13836 23.5105 3.56945 23.2907 3.03865C23.0708 2.50785 22.7485 2.02555 22.3423 1.6193C21.936 1.21304 21.4537 0.890782 20.9229 0.670918C20.3921 0.451054 19.8232 0.337891 19.2487 0.337891C18.0884 0.337891 16.9756 0.798827 16.1551 1.6193C15.3346 2.43977 14.8737 3.55257 14.8737 4.71289C14.8737 5.87321 15.3346 6.98601 16.1551 7.80648C16.9756 8.62696 18.0884 9.08789 19.2487 9.08789Z" fill="#B2B2B4"/>
</svg>
