<svg width="24" height="24" viewBox="0 0 24 24" fill="none" xmlns="http://www.w3.org/2000/svg">
<path d="M17.07 15.97C15.37 14.74 13.28 14 11 14C6.06 14 1.94 17.43 1 22H15.42C15.15 21.39 15 20.71 15 20C15 18.34 15.82 16.88 17.07 15.97Z" fill="#B2B2B4"/>
<path d="M11 12C13.7614 12 16 9.76142 16 7C16 4.23858 13.7614 2 11 2C8.23858 2 6 4.23858 6 7C6 9.76142 8.23858 12 11 12Z" fill="#B2B2B4"/>
<path d="M20 16C17.79 16 16 17.79 16 20C16 22.21 17.79 24 20 24C22.21 24 24 22.21 24 20C24 17.79 22.21 16 20 16ZM22.5 20.5H21C20.72 20.5 20.5 20.72 20.5 21V22.5H19.5V21C19.5 20.72 19.28 20.5 19 20.5H17.5V19.5H19C19.28 19.5 19.5 19.28 19.5 19V17.5H20.5V19C20.5 19.28 20.72 19.5 21 19.5H22.5V20.5Z" fill="#B2B2B4"/>
</svg>
