<svg width="27" height="32" viewBox="0 0 27 32" fill="none" xmlns="http://www.w3.org/2000/svg">
<path d="M2.33528 28.7218L6.26453 20.9023L13.2123 23.3874L8.8797 32.0005L6.79797 28.2144L2.32227 28.7088L2.33528 28.7218Z" fill="#F5F378"/>
<path d="M2.33528 28.7218L6.26453 20.9023L13.2123 23.3874L8.8797 32.0005L6.79797 28.2144L2.32227 28.7088L2.33528 28.7218Z" fill="#515155"/>
<path d="M24.2833 28.7218L20.354 20.9023L13.4062 23.3874L17.7388 32.0005L19.8206 28.2144L24.2963 28.7088H24.2833V28.7218Z" fill="#F5F378"/>
<path d="M24.2833 28.7218L20.354 20.9023L13.4062 23.3874L17.7388 32.0005L19.8206 28.2144L24.2963 28.7088H24.2833V28.7218Z" fill="#515155"/>
<path d="M10.9986 0.956292C12.0525 -0.318764 14.0171 -0.318764 15.071 0.956292C15.7605 1.78898 16.8794 2.11425 17.9073 1.78898C19.4946 1.29457 21.134 2.34844 21.3421 3.9878C21.4723 5.05469 22.2399 5.93942 23.2808 6.22566C24.8811 6.65501 25.7008 8.43749 24.9722 9.93373C24.5038 10.9095 24.6729 12.0675 25.3885 12.8611C26.4944 14.0972 26.2212 16.0228 24.803 16.8945C23.8792 17.454 23.3978 18.5208 23.58 19.5877C23.8532 21.2271 22.5652 22.6973 20.9128 22.6713C19.8329 22.6453 18.8571 23.2828 18.4277 24.2716C17.7642 25.7939 15.8906 26.3403 14.5115 25.4165C13.6137 24.8181 12.4428 24.8181 11.558 25.4165C10.1789 26.3403 8.30535 25.7939 7.6418 24.2716C7.21245 23.2828 6.23664 22.6453 5.15674 22.6713C3.50437 22.7103 2.21631 21.2271 2.48953 19.5877C2.65867 18.5208 2.17728 17.467 1.26652 16.8945C-0.151653 16.0228 -0.424879 14.0842 0.681037 12.8611C1.40964 12.0675 1.56577 10.9095 1.09738 9.93373C0.381789 8.43749 1.18846 6.65501 2.78878 6.22566C3.82964 5.93942 4.59728 5.05469 4.72739 3.9878C4.92255 2.33543 6.57492 1.28156 8.16223 1.78898C9.19008 2.11425 10.309 1.78898 10.9986 0.956292Z" fill="#7B7B7E"/>
<path d="M12.9614 17.9348C12.3109 17.9348 11.7775 17.4014 11.7775 16.7508V10.7789L10.8797 11.3383C10.7366 11.4294 10.5544 11.4815 10.3723 11.4815C9.83885 11.4815 9.39648 11.0521 9.39648 10.5187C9.39648 10.1804 9.59165 9.86812 9.85186 9.69898L12.389 8.09865C12.5581 7.99457 12.7793 7.9165 13.0005 7.9165C13.638 7.9165 14.1454 8.43694 14.1454 9.06145V16.7508C14.1454 17.4014 13.612 17.9348 12.9614 17.9348Z" fill="#D3D3D3"/>
</svg>
