<svg width="280" height="151" viewBox="0 0 280 151" fill="none" xmlns="http://www.w3.org/2000/svg">
<g clip-path="url(#clip0_6327_38057)">
<path fill-rule="evenodd" clip-rule="evenodd" d="M101.168 6.46074C100.726 6.58541 100.344 6.87515 100.104 7.26916C99.9874 7.46003 99.9102 7.67131 99.8767 7.89034C99.8432 8.10938 99.854 8.33168 99.9085 8.54392L111.202 52.2215C111.258 52.4339 111.356 52.6315 111.491 52.8026C111.627 52.9737 111.796 53.1147 111.988 53.2172C112.184 53.3236 112.4 53.3897 112.623 53.4117C112.848 53.434 113.077 53.4134 113.297 53.3513C113.517 53.2892 113.723 53.1852 113.905 53.045C114.088 52.9078 114.242 52.7362 114.359 52.5405C114.477 52.3492 114.555 52.1368 114.588 51.9165C114.622 51.6985 114.612 51.4771 114.559 51.2656L103.257 7.59054C103.204 7.37868 103.106 7.18165 102.971 7.01209C102.836 6.83923 102.667 6.69645 102.474 6.59237C102.077 6.38417 101.611 6.33875 101.173 6.4655L101.168 6.46074Z" fill="white" stroke="#242427" stroke-width="1.46" stroke-linecap="round" stroke-linejoin="round"/>
<path d="M98.1388 11.4347C99.4436 10.4862 100.896 9.76336 102.434 9.29693C102.575 9.26119 102.721 9.254 102.863 9.27578C103.006 9.29756 103.142 9.34787 103.264 9.42372C103.385 9.49956 103.49 9.59939 103.572 9.71727C103.653 9.83515 103.71 9.96866 103.739 10.1099L109.323 31.2773C109.381 31.5141 109.344 31.7657 109.22 31.9792C109.096 32.1927 108.896 32.3514 108.66 32.422C104.641 33.6381 104.111 35.3925 99.4896 36.6857C94.5439 38.0718 88.1312 36.3143 83.3464 37.6528C80.1053 38.5617 76.8982 40.7384 75.1405 42.1895C75.0537 42.2592 74.9517 42.3069 74.8432 42.3286C74.7348 42.3502 74.6231 42.3452 74.518 42.314C74.4128 42.2827 74.3174 42.2262 74.2398 42.1492C74.1623 42.0722 74.105 41.9771 74.073 41.8722L68.425 20.4587C68.3604 20.2155 68.3667 19.9576 68.4434 19.7153C68.5229 19.4679 68.6733 19.2483 68.8759 19.0841C76.6852 12.5338 81.7592 14.0373 87.6203 14.0325C91.3552 14.0331 94.572 13.6256 98.1388 11.4347Z" fill="#D9D9D9" stroke="#242427" stroke-width="1.46" stroke-linecap="round" stroke-linejoin="round"/>
<path d="M138 128C174.451 128 204 118.822 204 107.5C204 96.1782 174.451 87 138 87C101.549 87 72 96.1782 72 107.5C72 118.822 101.549 128 138 128Z" fill="#EFEFEF"/>
<path d="M95.4705 108.043C92.5626 110.81 86.2177 109.04 81.3015 104.106C76.3854 99.1717 74.7576 92.9005 77.6659 90.1268C80.5743 87.3531 86.9248 89.1295 91.841 94.0638C93.0745 95.2998 94.1442 96.6827 95.0248 98.1798C95.2239 98.4454 95.429 98.7115 95.6275 98.9831L118.044 91.0819C118.583 91.7213 118.845 92.5418 118.772 93.366C118.699 94.1903 118.298 94.9523 117.655 95.4874L95.4705 108.043Z" fill="white" stroke="#242427" stroke-width="1.46" stroke-linecap="round" stroke-linejoin="round"/>
<path d="M106.272 118.665C103.346 121.425 96.9568 119.654 92.0036 114.724C87.0504 109.795 85.4067 103.533 88.3327 100.766C91.2587 97.9998 97.6537 99.778 102.607 104.707C103.85 105.942 104.928 107.324 105.816 108.819C106.016 109.084 106.223 109.35 106.423 109.621L127.29 95.7645C127.833 96.4033 128.097 97.2225 128.024 98.0453C127.951 98.8681 127.548 99.6284 126.901 100.162L106.272 118.665Z" fill="white" stroke="#242427" stroke-width="1.46" stroke-linecap="round" stroke-linejoin="round"/>
<path fill-rule="evenodd" clip-rule="evenodd" d="M107.926 112.209C107.536 111.047 106.883 109.958 106 109L107.926 112.209Z" fill="white"/>
<path d="M107.926 112.209C107.536 111.047 106.883 109.958 106 109" stroke="#242427" stroke-width="1.46" stroke-linecap="round" stroke-linejoin="round"/>
<path fill-rule="evenodd" clip-rule="evenodd" d="M133.868 111.129C142.614 113.815 153.364 108.61 159.441 99.3022C166.169 106.146 175.309 109.456 182.424 106.896C189.292 104.422 192.316 97.2034 190.744 88.9956C198.519 88.1395 204.86 84.8728 207.267 79.7158C210.131 73.5968 206.706 66.5177 199.315 61.3347C203.555 56.284 204.767 50.3636 201.899 45.2433C198.385 39.0028 189.726 35.6312 180.02 35.9031C178.25 29.9153 173.529 24.9674 166.625 22.8498C156.843 19.8546 145.692 23.4184 138.913 31.0069C133.514 27.1363 127.58 25.5124 122.888 27.1963C117.051 29.2958 114.727 35.8933 116.307 43.6669C107.055 44.3509 99.0886 48.4957 95.991 55.0864C92.2572 63.018 96.6838 72.0566 106.094 77.5831C101.48 81.8256 99.5973 86.4847 101.692 90.1977C104.447 95.0676 113.216 96.9553 123.362 95.4535C123.351 102.856 127.141 109.034 133.875 111.096L133.87 111.121L133.868 111.129Z" fill="#242427" stroke="#EFEFEF" stroke-width="1.46" stroke-miterlimit="10" stroke-linecap="round"/>
<path d="M147.912 53.5842C150.247 56.1403 155.192 55.424 158.958 51.9842C162.724 48.5445 163.884 43.6838 161.55 41.1277C159.215 38.5716 154.269 39.288 150.503 42.7277C146.738 46.1675 145.577 51.0281 147.912 53.5842Z" fill="white"/>
<path d="M156.367 62.8401C158.702 65.3962 163.647 64.6798 167.413 61.2401C171.179 57.8003 172.339 52.9397 170.005 50.3836C167.67 47.8275 162.724 48.5438 158.959 51.9836C155.193 55.4234 154.032 60.284 156.367 62.8401Z" fill="white"/>
<path d="M150.797 51.8467C152.394 53.5951 155.65 53.2208 158.07 51.0107C160.489 48.8006 161.156 45.5917 159.559 43.8434C157.963 42.095 154.706 42.4693 152.287 44.6794C149.867 46.8895 149.2 50.0984 150.797 51.8467Z" fill="#242427"/>
<path d="M158.134 59.8798C159.61 61.4953 162.768 61.0133 165.187 58.8033C167.607 56.5932 168.372 53.4919 166.896 51.8764C165.421 50.2608 162.263 50.7428 159.843 52.9529C157.424 55.1629 156.659 58.2642 158.134 59.8798Z" fill="#242427"/>
<path d="M142.723 66.4365C146.462 70.5304 151.938 71.6298 154.943 68.8848C157.949 66.1397 157.355 60.5939 153.615 56.4999C149.876 52.406 144.406 51.3133 141.395 54.0517C138.39 56.7968 138.984 62.3425 142.723 66.4365Z" fill="white" stroke="#242427" stroke-width="1.46" stroke-miterlimit="10"/>
<path d="M141.275 54.161C141.813 57.5403 146.896 56.9765 149.648 59.9885C152.399 63.0005 150.573 67.1307 155.195 69.4015" stroke="#242427" stroke-width="1.46"/>
<path d="M146.974 60.4535L145.918 57.9023L151.39 63.893L148.944 62.6107C148.056 62.1479 147.361 61.3866 146.974 60.4535Z" stroke="#242427" stroke-width="1.46" stroke-linecap="round" stroke-linejoin="round"/>
<path fill-rule="evenodd" clip-rule="evenodd" d="M161.702 50.0408L169.584 58.6694C171.525 55.6713 171.791 52.3413 169.997 50.3778C168.204 48.4143 164.857 48.3845 161.702 50.0408Z" fill="white"/>
<path fill-rule="evenodd" clip-rule="evenodd" d="M153.253 40.7888L161.134 49.4175C163.076 46.4194 163.342 43.0894 161.548 41.1259C159.755 39.1624 156.408 39.1325 153.253 40.7888Z" fill="white"/>
<path d="M220.592 69.7014C220.607 69.4112 220.985 69.31 221.143 69.5537L223.242 72.7854C223.313 72.8944 223.446 72.9454 223.571 72.9118L227.293 71.9145C227.574 71.8392 227.787 72.1672 227.604 72.393L225.179 75.3877C225.097 75.4887 225.09 75.6308 225.161 75.7398L227.259 78.9716C227.417 79.2153 227.171 79.5192 226.9 79.415L223.303 78.0341C223.181 77.9875 223.044 78.0244 222.962 78.1254L220.537 81.12C220.354 81.3459 219.989 81.2057 220.004 80.9155L220.206 77.0674C220.213 76.9376 220.135 76.8182 220.014 76.7716L216.416 75.3907C216.145 75.2866 216.166 74.8961 216.446 74.8209L220.168 73.8235C220.294 73.7899 220.383 73.6793 220.39 73.5495L220.592 69.7014Z" fill="#D9D9D9"/>
<path d="M214 93.7867L218 95.0499M218 95.0499L215.6 98.8394M218 95.0499L220.8 98.8394M218 95.0499L222 93.7867M218 95.0499V90.8394" stroke="#EFEFEF" stroke-width="1.46" stroke-linecap="round" stroke-linejoin="round"/>
<path d="M50.5738 57.044L53.5059 53.9158M53.5059 53.9158L55.7177 57.768M53.5059 53.9158L58.0954 52.988M53.5059 53.9158L54.2318 49.6902M53.5059 53.9158L49.829 52.0868" stroke="#EFEFEF" stroke-width="1.46" stroke-linecap="round" stroke-linejoin="round"/>
<path d="M63.6875 45.7207C64.9844 47.7229 69.1571 52.3709 75.4729 54.9453" stroke="#EFEFEF" stroke-width="1.46" stroke-linecap="round" stroke-linejoin="round"/>
<path d="M77 65.9474L81 67.2105M81 67.2105L78.6 71M81 67.2105L83.8 71M81 67.2105L85 65.9474M81 67.2105V63" stroke="#EFEFEF" stroke-width="1.46" stroke-linecap="round" stroke-linejoin="round"/>
</g>
<defs>
<clipPath id="clip0_6327_38057">
<rect width="280" height="151" fill="white"/>
</clipPath>
</defs>
</svg>
