<svg width="40" height="19" viewBox="0 0 40 19" fill="none" xmlns="http://www.w3.org/2000/svg">
<rect y="0.5" width="40" height="18" rx="4" fill="#E8E8E8"/>
<g clip-path="url(#clip0_6276_140305)">
<path d="M12.498 8.16242H16.0136L13.9433 4.49512H13.943L12.498 8.16242Z" fill="#6EC2F1"/>
<path d="M6.05853 4.49512L3.98828 8.16242H7.50381L6.05853 4.49512Z" fill="#6EC2F1"/>
<path d="M12.4959 8.16162H7.50195L9.99893 14.4991L12.4959 8.16162Z" fill="#6EC2F1"/>
<path d="M7.50195 8.16242H12.4959L9.99893 4.49512L7.50195 8.16242Z" fill="#46A5DA"/>
<path d="M3.98828 8.16162L10.0008 14.4991L7.50381 8.16162H3.98828Z" fill="#8CD5FE"/>
<path d="M12.4989 8.16162L10.002 14.4991L16.0145 8.16162H12.4989Z" fill="#8CD5FE"/>
<path d="M10.0028 4.49512H6.06055L7.50582 8.16242L10.0028 4.49512Z" fill="#8CD5FE"/>
<path d="M12.4989 8.16242L13.9439 4.49512H10.002L12.4989 8.16242Z" fill="#8CD5FE"/>
</g>
<path d="M22.4985 12.1572H17.772V5.59912H22.4985V12.1572ZM19.1362 11.0723H21.1611V6.66797H19.1362V11.0723ZM25.4688 14.5151H24.0776V4.70215H25.4688V14.5151ZM33.9819 7.09229H31.9893V5.99121H33.9819V7.09229ZM33.9819 8.98828H31.9893V7.88721H33.9819V8.98828ZM30.1738 6.39941C30.1738 7.08691 30.0754 7.72428 29.8784 8.31152C29.6815 8.89876 29.3807 9.4126 28.9761 9.85303C28.575 10.2899 28.0791 10.6229 27.4883 10.8521L26.7417 9.77783C27.2645 9.59163 27.6995 9.32666 28.0469 8.98291C28.3942 8.63558 28.6502 8.2417 28.8149 7.80127C28.9832 7.36084 29.0674 6.89355 29.0674 6.39941V5.27148H30.1738V6.39941ZM30.4478 6.39941C30.4478 6.86849 30.5265 7.31608 30.6841 7.74219C30.8452 8.16829 31.0923 8.54964 31.4253 8.88623C31.7583 9.21924 32.1719 9.47884 32.666 9.66504L31.9033 10.7285C31.3447 10.5065 30.8757 10.1807 30.4961 9.75098C30.1165 9.31771 29.8319 8.81641 29.6421 8.24707C29.4523 7.67415 29.3574 7.05827 29.3574 6.39941V5.27148H30.4478V6.39941ZM35.0293 11.9692H33.665V4.72363H35.0293V11.9692ZM35.2388 14.3218H28.5195V13.2153H35.2388V14.3218ZM29.9053 13.8975H28.5195V11.2764H29.9053V13.8975Z" fill="#8C8C8E"/>
<defs>
<clipPath id="clip0_6276_140305">
<rect width="13" height="13" fill="white" transform="translate(3.5 3)"/>
</clipPath>
</defs>
</svg>
