<svg width="28" height="28" viewBox="0 0 28 28" fill="none" xmlns="http://www.w3.org/2000/svg">
<path d="M22.9832 14.3295V13.1512C22.9832 9.89615 20.3349 7.24782 17.0799 7.24782L8.22487 7.24782L8.8782 7.90115C9.14121 8.16416 9.28896 8.52087 9.28896 8.89282C9.28896 9.26477 9.14121 9.62148 8.8782 9.88449C8.6152 10.1475 8.25848 10.2952 7.88654 10.2952C7.51459 10.2952 7.15788 10.1475 6.89487 9.88449L3.84987 6.83949C3.5932 6.57115 3.44154 6.22115 3.44154 5.84782C3.44154 5.47449 3.5932 5.12449 3.84987 4.85615L6.89487 1.81115C7.02509 1.68092 7.1797 1.57762 7.34985 1.50714C7.52 1.43667 7.70237 1.40039 7.88654 1.40039C8.07071 1.40039 8.25307 1.43667 8.42322 1.50714C8.59337 1.57762 8.74797 1.68092 8.8782 1.81115C9.14121 2.07416 9.28896 2.43087 9.28896 2.80282C9.28896 3.17477 9.14121 3.53148 8.8782 3.79449L8.22487 4.44782L17.0799 4.44782C21.8749 4.44782 25.7832 8.35615 25.7832 13.1512V14.3295C25.7832 15.0995 25.1532 15.7295 24.3832 15.7295C23.6132 15.7295 22.9832 15.1112 22.9832 14.3295ZM3.61654 12.0662C4.38654 12.0662 5.01653 12.6962 5.01653 13.4662V14.6445C5.01653 17.8995 7.66487 20.5478 10.9199 20.5478L19.7749 20.5478L19.1215 19.8945C18.8585 19.6315 18.7108 19.2748 18.7108 18.9028C18.7108 18.5309 18.8585 18.1742 19.1215 17.9112C19.3845 17.6481 19.7413 17.5004 20.1132 17.5004C20.4851 17.5004 20.8419 17.6481 21.1049 17.9112L24.1499 20.9562C24.4182 21.2128 24.5582 21.5745 24.5582 21.9478C24.5582 22.3212 24.4065 22.6712 24.1499 22.9395L21.1049 25.9845C20.8416 26.2469 20.485 26.3943 20.1132 26.3943C19.7414 26.3943 19.3848 26.2469 19.1215 25.9845C18.5732 25.4362 18.5732 24.5495 19.1215 24.0012L19.7749 23.3478L10.9199 23.3478C6.12487 23.3478 2.21653 19.4395 2.21653 14.6445V13.4662C2.21653 12.6845 2.84653 12.0662 3.61654 12.0662Z" fill="#8C8C8E"/>
</svg>
