<svg width="26" height="22" viewBox="0 0 26 22" fill="none" xmlns="http://www.w3.org/2000/svg">
<path d="M8.94531 11.964L9.32964 7.73633L10.7554 8.54131L11.8278 10.811L8.94531 11.964Z" fill="white" stroke="#242427" stroke-width="0.811595" stroke-linecap="round" stroke-linejoin="round"/>
<path d="M24.7008 0.625L5.48438 5.23695L10.6728 8.31159L13.3631 14.0765L24.7008 0.625Z" fill="white" stroke="#242427" stroke-width="0.811595" stroke-linecap="round" stroke-linejoin="round"/>
<path d="M10.6719 8.31207C11.6327 7.60747 13.7093 6.30305 14.6818 5.81641" stroke="#242427" stroke-width="0.811595" stroke-linecap="round" stroke-linejoin="round"/>
<path d="M16.0724 4.90299C17.9448 3.95619 21.9611 1.66129 24.5087 0.625568" stroke="#242427" stroke-width="0.811595" stroke-linecap="round" stroke-linejoin="round"/>
<path d="M23.7575 11.1936C23.5932 10.6958 22.888 10.6991 22.7284 11.1984L22.5587 11.729L22.0016 11.7316C21.4774 11.7341 21.2626 12.4058 21.6881 12.7119L22.1404 13.0373L21.9707 13.5679C21.8111 14.0672 22.3835 14.479 22.8061 14.169L23.2553 13.8394L23.7076 14.1647C24.133 14.4708 24.7016 14.0537 24.5373 13.5559L24.3627 13.0269L24.8119 12.6973C25.2345 12.3872 25.0134 11.7176 24.4893 11.72L23.9322 11.7226L23.7575 11.1936Z" fill="#D9D9D9" stroke="#242427" stroke-width="0.811595"/>
<path d="M17.3047 16.6989L18.725 17.1474M18.725 17.1474L17.8728 18.4929M18.725 17.1474L19.7192 18.4929M18.725 17.1474L20.1453 16.6989M18.725 17.1474V15.6523" stroke="#242427" stroke-width="0.811595" stroke-linecap="round" stroke-linejoin="round"/>
<path d="M1.92579 21.0436C2.19986 18.6466 4.10917 13.515 6.54145 14.2974C7.57002 14.6283 7.12256 15.9615 5.95773 15.9615C4.60508 15.9615 4.57255 13.1869 7.77748 12.3093" stroke="#242427" stroke-width="0.811595" stroke-linecap="round" stroke-linejoin="round"/>
</svg>
