<svg width="335" height="220" viewBox="0 0 335 220" fill="none" xmlns="http://www.w3.org/2000/svg">
<path fill-rule="evenodd" clip-rule="evenodd" d="M175.387 90.6484C176.458 90.0263 177.728 89.843 178.931 90.1369C179.513 90.2801 180.06 90.5392 180.539 90.8988C181.019 91.2583 181.42 91.7109 181.721 92.2294L243.411 199.068C243.709 199.589 243.899 200.164 243.969 200.76C244.04 201.357 243.989 201.961 243.82 202.537C243.653 203.125 243.372 203.675 242.992 204.155C242.609 204.638 242.139 205.045 241.606 205.355C241.074 205.664 240.486 205.866 239.876 205.95C239.272 206.04 238.655 206.008 238.063 205.857C237.477 205.716 236.926 205.457 236.445 205.094C235.966 204.738 235.564 204.289 235.263 203.774L173.592 96.9259C173.291 96.4098 173.101 95.8365 173.034 95.2426C172.96 94.6441 173.007 94.0367 173.174 93.457C173.526 92.2775 174.319 91.2787 175.387 90.667V90.6484Z" fill="white" stroke="#242427" stroke-width="2" stroke-linecap="round" stroke-linejoin="round"/>
<path d="M190.559 94.3815C186.295 95.0916 182.182 96.528 178.394 98.6295C178.061 98.8352 177.772 99.1066 177.545 99.4275C177.317 99.7483 177.156 100.112 177.071 100.497C176.985 100.882 176.977 101.281 177.047 101.669C177.117 102.057 177.264 102.427 177.478 102.757L207.165 154.752C207.507 155.324 208.054 155.74 208.693 155.912C209.332 156.085 210.012 156.001 210.591 155.677C220.483 150.18 224.816 152.549 235.991 146.024C247.953 139.046 256.71 123.1 268.279 116.344C276.119 111.772 286.305 109.726 292.378 109.106C292.674 109.072 292.957 108.965 293.203 108.795C293.448 108.625 293.65 108.397 293.788 108.131C293.927 107.865 294 107.568 294 107.267C294 106.966 293.927 106.67 293.788 106.404L263.754 53.8077C263.414 53.2093 262.912 52.7213 262.306 52.401C261.687 52.0762 260.985 51.9442 260.291 52.0215C233.114 54.5759 226.4 67.4125 215.336 78.8609C208.292 86.1631 201.449 91.6605 190.559 94.3815Z" fill="#242427" stroke="#242427" stroke-width="2" stroke-linecap="round" stroke-linejoin="round"/>
<path d="M232.212 79.4896C226.682 81.0566 221.576 83.8986 217.286 87.7972L216.374 88.8333C214.03 91.2999 212.536 94.4806 212.119 97.8933C211.702 101.306 212.385 104.765 214.064 107.745L217.715 114.139C219.383 117.093 221.937 119.419 224.998 120.773C228.06 122.126 231.467 122.435 234.714 121.653L236.302 124.453C236.49 124.806 236.747 125.117 237.056 125.365C237.365 125.614 237.72 125.795 238.1 125.899C238.48 126.003 238.877 126.027 239.266 125.969C239.655 125.912 240.029 125.774 240.364 125.564L242.19 124.481L239.798 119.366L240.711 118.825L243.843 123.492L247.887 121.102L245.495 115.997L246.408 115.455L249.53 120.122L251.191 119.189C251.536 118.996 251.84 118.734 252.083 118.418C252.326 118.102 252.504 117.738 252.605 117.35C252.707 116.962 252.73 116.556 252.674 116.158C252.618 115.76 252.483 115.378 252.278 115.035L250.79 112.403C253.074 109.918 254.514 106.746 254.897 103.358C255.28 99.9704 254.586 96.5465 252.917 93.5939L249.201 87.0598C247.603 84.039 245.062 81.6522 241.983 80.2801C238.904 78.9081 235.464 78.6298 232.212 79.4896Z" fill="white" stroke="#242427" stroke-width="2" stroke-linecap="round" stroke-linejoin="round"/>
<path d="M242.856 102.272L242.294 102.598C241.292 103.17 240.104 103.325 238.988 103.028C237.872 102.731 236.919 102.007 236.338 101.014L234.465 97.819C233.891 96.8227 233.737 95.6409 234.037 94.5322C234.338 93.4236 235.067 92.4783 236.066 91.9033L236.628 91.5773C237.63 91.0053 238.819 90.8509 239.935 91.1476C241.051 91.4443 242.003 92.1681 242.585 93.161L244.327 96.1701C244.638 96.6652 244.847 97.2172 244.942 97.7937C245.037 98.3703 245.015 98.9598 244.878 99.5279C244.741 100.096 244.492 100.631 244.145 101.102C243.798 101.574 243.36 101.971 242.856 102.272ZM230.971 109.101L230.4 109.427C229.399 109.996 228.213 110.149 227.099 109.852C225.985 109.555 225.034 108.833 224.453 107.843L222.58 104.648C222.005 103.652 221.85 102.472 222.148 101.363C222.447 100.254 223.174 99.3085 224.172 98.732L224.743 98.4059C225.744 97.8344 226.931 97.6802 228.045 97.977C229.16 98.2737 230.111 98.9974 230.69 99.9896L232.442 102.989C232.752 103.486 232.961 104.038 233.055 104.615C233.149 105.192 233.127 105.782 232.99 106.351C232.853 106.919 232.605 107.455 232.258 107.927C231.911 108.399 231.474 108.798 230.971 109.101Z" fill="white" stroke="#242427" stroke-width="2" stroke-linecap="round" stroke-linejoin="round"/>
<path d="M231.236 107.373L230.898 107.571C230.548 107.78 230.16 107.916 229.757 107.972C229.354 108.027 228.944 108.001 228.551 107.894C228.158 107.788 227.79 107.603 227.469 107.351C227.148 107.099 226.88 106.785 226.681 106.427L225.425 104.204C225.218 103.851 225.083 103.459 225.028 103.053C224.973 102.646 224.999 102.232 225.105 101.836C225.21 101.439 225.393 101.068 225.643 100.744C225.893 100.42 226.204 100.15 226.559 99.9484L226.896 99.7593C227.246 99.5488 227.633 99.4111 228.036 99.3543C228.439 99.2976 228.849 99.3228 229.242 99.4286C229.636 99.5344 230.004 99.7186 230.325 99.9703C230.647 100.222 230.915 100.536 231.114 100.894L232.464 103.259C233.401 104.536 232.736 106.493 231.236 107.373ZM240.421 102.02L240.093 102.218C239.743 102.427 239.355 102.563 238.952 102.619C238.549 102.674 238.139 102.648 237.746 102.541C237.353 102.434 236.985 102.25 236.664 101.998C236.343 101.746 236.075 101.432 235.875 101.074L234.619 98.8797C234.411 98.5266 234.275 98.1349 234.22 97.7279C234.164 97.3209 234.19 96.9067 234.296 96.51C234.401 96.1132 234.585 95.7418 234.835 95.4178C235.086 95.0938 235.398 94.8238 235.754 94.6237L236.082 94.4345C236.431 94.224 236.819 94.0864 237.222 94.0296C237.625 93.9728 238.035 93.998 238.428 94.1038C238.821 94.2096 239.189 94.3938 239.511 94.6455C239.832 94.8972 240.1 95.2114 240.299 95.5694L241.649 97.9339C242.021 98.6404 242.101 99.4669 241.871 100.233C241.641 100.998 241.12 101.641 240.421 102.02Z" fill="#242427"/>
<path d="M239.791 105.607L237.612 105.07C237.409 105.008 237.195 104.987 236.983 105.008C236.771 105.028 236.566 105.091 236.381 105.19C236.197 105.29 236.037 105.425 235.912 105.586C235.788 105.747 235.701 105.931 235.658 106.125L235.072 108.145C235.007 108.335 234.986 108.535 235.009 108.732C235.033 108.93 235.101 109.12 235.209 109.292C235.316 109.463 235.462 109.612 235.635 109.728C235.808 109.844 236.006 109.925 236.215 109.965C236.627 110.045 237.056 109.987 237.426 109.801L240.182 108.318C240.573 108.109 240.661 107.818 240.934 107.408C240.996 107.22 241.014 107.022 240.989 106.827C240.964 106.631 240.896 106.443 240.788 106.273C240.681 106.104 240.536 105.957 240.365 105.842C240.193 105.728 239.998 105.647 239.791 105.607Z" fill="white" stroke="#242427" stroke-width="2" stroke-linecap="round" stroke-linejoin="round"/>
<path d="M269.867 197.875C268.848 198.468 266.197 201.752 264.769 200.842C264.445 200.577 264.196 200.237 264.045 199.853L262.097 195.897C262.018 195.769 261.986 195.619 262.006 195.471C262.053 195.364 262.131 195.272 262.23 195.204L266.309 192.237C266.449 192.115 266.622 192.033 266.808 192C267.165 192 267.481 192.307 267.665 192.633C268.583 194.324 269.99 195.778 270 197.776" fill="#EFEFEF"/>
<path d="M269.867 197.875C268.848 198.468 266.197 201.752 264.769 200.842C264.445 200.577 264.196 200.237 264.045 199.853L262.097 195.897C262.018 195.769 261.986 195.619 262.006 195.471C262.053 195.364 262.131 195.272 262.23 195.204L266.309 192.237C266.449 192.115 266.622 192.033 266.808 192C267.165 192 267.481 192.307 267.665 192.633C268.583 194.324 269.99 195.778 270 197.776" stroke="#242427" stroke-width="2" stroke-miterlimit="10" stroke-linecap="round"/>
<path d="M307 170.128C301.211 169.038 293.772 175.105 295.183 181.396C296.003 185.069 301.967 184.262 299.958 180.538C299.574 179.945 299.052 179.441 298.429 179.063C297.806 178.686 297.1 178.444 296.363 178.358C292.565 177.688 287.089 177.603 283.642 178.967C278.673 180.941 276.636 183.644 274 187" stroke="#242427" stroke-width="2" stroke-linecap="round" stroke-linejoin="round"/>
<path d="M269.783 151C268.662 155.128 268.747 159.495 270.027 163.575C271.307 167.655 273.729 171.275 277 174" stroke="#242427" stroke-width="2" stroke-linecap="round" stroke-linejoin="round"/>
<path d="M268 178C267.425 180.116 266.15 184.674 264 185" stroke="#242427" stroke-width="2" stroke-linecap="round" stroke-linejoin="round"/>
<path d="M261.73 157.052L262.113 163.154L255.383 160.514L254.999 154.411L261.73 157.052Z" fill="white" stroke="#242427" stroke-width="2" stroke-linecap="round" stroke-linejoin="round"/>
<path d="M171.567 158.289L172.489 158.24L171.567 158.289L171.761 161.931L168.358 163.241C167.163 163.701 167.254 165.422 168.492 165.752L172.015 166.693L172.21 170.335C172.278 171.614 173.943 172.058 174.64 170.983L176.623 167.923L180.147 168.863C181.384 169.193 182.321 167.747 181.514 166.752L179.217 163.921L181.2 160.86C181.896 159.785 180.811 158.447 179.615 158.907L176.212 160.217L173.914 157.385C173.107 156.391 171.499 157.01 171.567 158.289ZM178.906 163.538C178.907 163.538 178.907 163.539 178.907 163.539L178.906 163.538Z" fill="white" stroke="#242427" stroke-width="2"/>
<path d="M284.463 154.849L288.106 152.107M288.106 152.107L289.721 156.547M288.106 152.107L293.084 151.972M288.106 152.107L289.638 147.812M288.106 152.107L284.587 149.519" stroke="#242427" stroke-width="2" stroke-linecap="round" stroke-linejoin="round"/>
<path d="M173.463 192.849L177.106 190.107M177.106 190.107L178.721 194.547M177.106 190.107L182.084 189.972M177.106 190.107L178.638 185.812M177.106 190.107L173.587 187.519" stroke="#242427" stroke-width="2" stroke-linecap="round" stroke-linejoin="round"/>
<path d="M206.737 201.93C200.652 196.286 190.321 180.536 197.446 175.389C200.459 173.213 202.646 179.585 200.288 180.324C198.451 182.533 190.356 178.583 194.455 167.912" stroke="#242427" stroke-width="2" stroke-linecap="round" stroke-linejoin="round"/>
<path d="M166.359 199.488C168.526 200.72 174.258 203.344 179.855 203.99" stroke="#242427" stroke-width="2" stroke-linecap="round" stroke-linejoin="round"/>
</svg>
