<svg width="20" height="20" viewBox="0 0 20 20" fill="none" xmlns="http://www.w3.org/2000/svg">
<circle cx="10" cy="10" r="10" fill="#353538"/>
<path d="M10 5.14286L11.1434 4.52245C10.8915 4.19592 10.4651 4 10 4C9.53488 4 9.10854 4.19592 8.8566 4.52245L10 5.14286ZM10 5.14286C10.7623 4.72925 11.1434 4.52245 11.1434 4.52245L11.1822 4.57143C11.1822 4.57143 11.2597 4.66939 11.2984 4.73469C11.3953 4.86531 11.5504 5.06123 11.7248 5.30612C12.0736 5.77959 12.5388 6.44898 13.0039 7.16735C13.469 7.88571 13.9535 8.66939 14.3217 9.42041C14.6705 10.1225 15 10.9388 15 11.6245C15 12.1959 14.8837 12.751 14.6318 13.2735C14.3798 13.7959 14.031 14.2857 13.5659 14.6939C13.1008 15.102 12.5581 15.4286 11.938 15.6571C11.3372 15.8857 10.6783 16 10 16C9.32171 16 8.68217 15.8857 8.06202 15.6571C7.46124 15.4286 6.89923 15.102 6.43412 14.6939C5.969 14.2857 5.62016 13.7959 5.36822 13.2735C5.11628 12.751 5 12.1796 5 11.6245C5 10.9388 5.32947 10.1225 5.67831 9.42041C6.04652 8.66939 6.531 7.88571 6.99612 7.16735C7.46124 6.44898 7.92636 5.77959 8.2752 5.30612C8.44962 5.06123 8.58528 4.86531 8.70156 4.73469C8.75969 4.66939 8.79845 4.62041 8.81783 4.57143L8.8566 4.52245C8.8566 4.52245 8.85659 4.52245 10 5.14286Z" fill="#4FB4EC"/>
</svg>
