<svg width="50" height="50" viewBox="0 0 50 50" fill="none" xmlns="http://www.w3.org/2000/svg">
<rect width="50" height="50" rx="25" fill="#3FD960"/>
<g clip-path="url(#clip0_2312_814)">
<path d="M37.9111 20.5H37.7556C37.4668 20.5 37.1898 20.6106 36.9856 20.8075C36.7814 21.0045 36.6667 21.2715 36.6667 21.55V22.2675C36.6667 22.3955 36.614 22.5182 36.5201 22.6087C36.4263 22.6992 36.299 22.75 36.1663 22.75H35.4222C35.1334 22.75 34.8565 22.8606 34.6523 23.0575C34.4481 23.2545 34.3333 23.5215 34.3333 23.8V24.5175C34.3333 24.6455 34.2806 24.7682 34.1868 24.8587C34.0929 24.9492 33.9657 25 33.833 25H33.0889C32.8001 25 32.5231 25.1106 32.3189 25.3075C32.1147 25.5045 32 25.7715 32 26.05V26.7675C32 26.8955 31.9473 27.0182 31.8534 27.1087C31.7596 27.1992 31.6323 27.25 31.4996 27.25H30.167C30.0343 27.25 29.9071 27.3008 29.8132 27.3913C29.7194 27.4818 29.6667 27.6045 29.6667 27.7325V28.45C29.6667 28.7285 29.5519 28.9956 29.3477 29.1925C29.1435 29.3894 28.8666 29.5 28.5778 29.5H21.4222C21.1334 29.5 20.8565 29.3894 20.6523 29.1925C20.4481 28.9956 20.3333 28.7285 20.3333 28.45V27.7325C20.3333 27.6045 20.2806 27.4818 20.1868 27.3913C20.0929 27.3008 19.9657 27.25 19.833 27.25H18.5004C18.3677 27.25 18.2404 27.1992 18.1466 27.1087C18.0527 27.0182 18 26.8955 18 26.7675V26.05C18 25.7715 17.8853 25.5045 17.6811 25.3075C17.4769 25.1106 17.1999 25 16.9111 25H16.167C16.0343 25 15.9071 24.9492 15.8132 24.8587C15.7194 24.7682 15.6667 24.6455 15.6667 24.5175V23.8C15.6667 23.5215 15.5519 23.2545 15.3477 23.0575C15.1435 22.8606 14.8666 22.75 14.5778 22.75H13.8337C13.701 22.75 13.5737 22.6992 13.4799 22.6087C13.386 22.5182 13.3333 22.3955 13.3333 22.2675V21.55C13.3333 21.2715 13.2186 21.0045 13.0144 20.8075C12.8102 20.6106 12.5332 20.5 12.2444 20.5H12.0889C11.8001 20.5 11.5231 20.6106 11.3189 20.8075C11.1147 21.0045 11 21.2715 11 21.55V32.95C11 33.2285 11.1147 33.4956 11.3189 33.6925C11.5231 33.8894 11.8001 34 12.0889 34H37.9111C38.1999 34 38.4769 33.8894 38.6811 33.6925C38.8853 33.4956 39 33.2285 39 32.95V21.55C39 21.2715 38.8853 21.0045 38.6811 20.8075C38.4769 20.6106 38.1999 20.5 37.9111 20.5ZM15.6667 29.9825C15.6667 29.9191 15.6537 29.8564 15.6286 29.7979C15.6034 29.7393 15.5666 29.6861 15.5201 29.6413C15.4736 29.5965 15.4185 29.561 15.3578 29.5367C15.2971 29.5125 15.232 29.5 15.1663 29.5H15.6667V29.9825Z" fill="#F1F1F4"/>
<path d="M37.9111 16H12.0889C11.8001 16 11.5231 16.1106 11.3189 16.3075C11.1147 16.5045 11 16.7715 11 17.05V17.2C11 17.4785 11.1147 17.7455 11.3189 17.9425C11.5231 18.1394 11.8001 18.25 12.0889 18.25H12.833C12.9657 18.25 13.0929 18.3008 13.1868 18.3913C13.2806 18.4818 13.3333 18.6045 13.3333 18.7325V19.45C13.3333 19.7285 13.4481 19.9955 13.6523 20.1925C13.8565 20.3894 14.1334 20.5 14.4222 20.5H15.1663C15.299 20.5 15.4263 20.5508 15.5201 20.6413C15.614 20.7318 15.6667 20.8545 15.6667 20.9825V21.7C15.6667 21.9785 15.7814 22.2455 15.9856 22.4425C16.1898 22.6394 16.4668 22.75 16.7556 22.75H17.4996C17.5653 22.75 17.6304 22.7625 17.6911 22.7867C17.7518 22.811 17.807 22.8465 17.8534 22.8913C17.8999 22.9361 17.9368 22.9893 17.9619 23.0479C17.9871 23.1064 18 23.1691 18 23.2325V23.95C18 24.2285 18.1147 24.4956 18.3189 24.6925C18.5231 24.8894 18.8001 25 19.0889 25H19.833C19.9657 25 20.0929 25.0508 20.1868 25.1413C20.2806 25.2318 20.3333 25.3545 20.3333 25.4825V26.2C20.3333 26.4785 20.4481 26.7456 20.6523 26.9425C20.8565 27.1394 21.1334 27.25 21.4222 27.25H28.5778C28.8666 27.25 29.1435 27.1394 29.3477 26.9425C29.5519 26.7456 29.6667 26.4785 29.6667 26.2V25.4825C29.6667 25.3545 29.7194 25.2318 29.8132 25.1413C29.9071 25.0508 30.0343 25 30.167 25H30.9111C31.1999 25 31.4769 24.8894 31.6811 24.6925C31.8853 24.4956 32 24.2285 32 23.95V23.2325C32 23.1691 32.0129 23.1064 32.0381 23.0479C32.0632 22.9893 32.1001 22.9361 32.1466 22.8913C32.193 22.8465 32.2482 22.811 32.3089 22.7867C32.3696 22.7625 32.4347 22.75 32.5004 22.75H33.2444C33.5332 22.75 33.8102 22.6394 34.0144 22.4425C34.2186 22.2455 34.3333 21.9785 34.3333 21.7V20.9825C34.3333 20.8545 34.386 20.7318 34.4799 20.6413C34.5737 20.5508 34.701 20.5 34.8337 20.5H35.5778C35.8666 20.5 36.1435 20.3894 36.3477 20.1925C36.5519 19.9955 36.6667 19.7285 36.6667 19.45V18.7325C36.6667 18.6045 36.7194 18.4818 36.8132 18.3913C36.9071 18.3008 37.0343 18.25 37.167 18.25H37.9111C38.1999 18.25 38.4769 18.1394 38.6811 17.9425C38.8853 17.7455 39 17.4785 39 17.2V17.05C39 16.7715 38.8853 16.5045 38.6811 16.3075C38.4769 16.1106 38.1999 16 37.9111 16ZM22.6667 18.25V18.7325C22.6667 18.6045 22.614 18.4818 22.5201 18.3913C22.4263 18.3008 22.299 18.25 22.1663 18.25H22.6667Z" fill="#F1F1F4"/>
</g>
<g clip-path="url(#clip1_2312_814)">
<path d="M37.9111 20.5H37.7556C37.4668 20.5 37.1898 20.6106 36.9856 20.8075C36.7814 21.0045 36.6667 21.2715 36.6667 21.55V22.2675C36.6667 22.3955 36.614 22.5182 36.5201 22.6087C36.4263 22.6992 36.299 22.75 36.1663 22.75H35.4222C35.1334 22.75 34.8565 22.8606 34.6523 23.0575C34.4481 23.2545 34.3333 23.5215 34.3333 23.8V24.5175C34.3333 24.6455 34.2806 24.7682 34.1868 24.8587C34.0929 24.9492 33.9657 25 33.833 25H33.0889C32.8001 25 32.5231 25.1106 32.3189 25.3075C32.1147 25.5045 32 25.7715 32 26.05V26.7675C32 26.8955 31.9473 27.0182 31.8534 27.1087C31.7596 27.1992 31.6323 27.25 31.4996 27.25H30.167C30.0343 27.25 29.9071 27.3008 29.8132 27.3913C29.7194 27.4818 29.6667 27.6045 29.6667 27.7325V28.45C29.6667 28.7285 29.5519 28.9956 29.3477 29.1925C29.1435 29.3894 28.8666 29.5 28.5778 29.5H21.4222C21.1334 29.5 20.8565 29.3894 20.6523 29.1925C20.4481 28.9956 20.3333 28.7285 20.3333 28.45V27.7325C20.3333 27.6045 20.2806 27.4818 20.1868 27.3913C20.0929 27.3008 19.9657 27.25 19.833 27.25H18.5004C18.3677 27.25 18.2404 27.1992 18.1466 27.1087C18.0527 27.0182 18 26.8955 18 26.7675V26.05C18 25.7715 17.8853 25.5045 17.6811 25.3075C17.4769 25.1106 17.1999 25 16.9111 25H16.167C16.0343 25 15.9071 24.9492 15.8132 24.8587C15.7194 24.7682 15.6667 24.6455 15.6667 24.5175V23.8C15.6667 23.5215 15.5519 23.2545 15.3477 23.0575C15.1435 22.8606 14.8666 22.75 14.5778 22.75H13.8337C13.701 22.75 13.5737 22.6992 13.4799 22.6087C13.386 22.5182 13.3333 22.3955 13.3333 22.2675V21.55C13.3333 21.2715 13.2186 21.0045 13.0144 20.8075C12.8102 20.6106 12.5332 20.5 12.2444 20.5H12.0889C11.8001 20.5 11.5231 20.6106 11.3189 20.8075C11.1147 21.0045 11 21.2715 11 21.55V32.95C11 33.2285 11.1147 33.4956 11.3189 33.6925C11.5231 33.8894 11.8001 34 12.0889 34H37.9111C38.1999 34 38.4769 33.8894 38.6811 33.6925C38.8853 33.4956 39 33.2285 39 32.95V21.55C39 21.2715 38.8853 21.0045 38.6811 20.8075C38.4769 20.6106 38.1999 20.5 37.9111 20.5ZM15.6667 29.9825C15.6667 29.9191 15.6537 29.8564 15.6286 29.7979C15.6034 29.7393 15.5666 29.6861 15.5201 29.6413C15.4736 29.5965 15.4185 29.561 15.3578 29.5367C15.2971 29.5125 15.232 29.5 15.1663 29.5H15.6667V29.9825Z" fill="white"/>
<path d="M37.9111 16H12.0889C11.8001 16 11.5231 16.1106 11.3189 16.3075C11.1147 16.5045 11 16.7715 11 17.05V17.2C11 17.4785 11.1147 17.7455 11.3189 17.9425C11.5231 18.1394 11.8001 18.25 12.0889 18.25H12.833C12.9657 18.25 13.0929 18.3008 13.1868 18.3913C13.2806 18.4818 13.3333 18.6045 13.3333 18.7325V19.45C13.3333 19.7285 13.4481 19.9955 13.6523 20.1925C13.8565 20.3894 14.1334 20.5 14.4222 20.5H15.1663C15.299 20.5 15.4263 20.5508 15.5201 20.6413C15.614 20.7318 15.6667 20.8545 15.6667 20.9825V21.7C15.6667 21.9785 15.7814 22.2455 15.9856 22.4425C16.1898 22.6394 16.4668 22.75 16.7556 22.75H17.4996C17.5653 22.75 17.6304 22.7625 17.6911 22.7867C17.7518 22.811 17.807 22.8465 17.8534 22.8913C17.8999 22.9361 17.9368 22.9893 17.9619 23.0479C17.9871 23.1064 18 23.1691 18 23.2325V23.95C18 24.2285 18.1147 24.4956 18.3189 24.6925C18.5231 24.8894 18.8001 25 19.0889 25H19.833C19.9657 25 20.0929 25.0508 20.1868 25.1413C20.2806 25.2318 20.3333 25.3545 20.3333 25.4825V26.2C20.3333 26.4785 20.4481 26.7456 20.6523 26.9425C20.8565 27.1394 21.1334 27.25 21.4222 27.25H28.5778C28.8666 27.25 29.1435 27.1394 29.3477 26.9425C29.5519 26.7456 29.6667 26.4785 29.6667 26.2V25.4825C29.6667 25.3545 29.7194 25.2318 29.8132 25.1413C29.9071 25.0508 30.0343 25 30.167 25H30.9111C31.1999 25 31.4769 24.8894 31.6811 24.6925C31.8853 24.4956 32 24.2285 32 23.95V23.2325C32 23.1691 32.0129 23.1064 32.0381 23.0479C32.0632 22.9893 32.1001 22.9361 32.1466 22.8913C32.193 22.8465 32.2482 22.811 32.3089 22.7867C32.3696 22.7625 32.4347 22.75 32.5004 22.75H33.2444C33.5332 22.75 33.8102 22.6394 34.0144 22.4425C34.2186 22.2455 34.3333 21.9785 34.3333 21.7V20.9825C34.3333 20.8545 34.386 20.7318 34.4799 20.6413C34.5737 20.5508 34.701 20.5 34.8337 20.5H35.5778C35.8666 20.5 36.1435 20.3894 36.3477 20.1925C36.5519 19.9955 36.6667 19.7285 36.6667 19.45V18.7325C36.6667 18.6045 36.7194 18.4818 36.8132 18.3913C36.9071 18.3008 37.0343 18.25 37.167 18.25H37.9111C38.1999 18.25 38.4769 18.1394 38.6811 17.9425C38.8853 17.7455 39 17.4785 39 17.2V17.05C39 16.7715 38.8853 16.5045 38.6811 16.3075C38.4769 16.1106 38.1999 16 37.9111 16ZM22.6667 18.25V18.7325C22.6667 18.6045 22.614 18.4818 22.5201 18.3913C22.4263 18.3008 22.299 18.25 22.1663 18.25H22.6667Z" fill="white"/>
</g>
<defs>
<clipPath id="clip0_2312_814">
<rect width="28" height="18" fill="white" transform="translate(11 16)"/>
</clipPath>
<clipPath id="clip1_2312_814">
<rect width="28" height="18" fill="white" transform="translate(11 16)"/>
</clipPath>
</defs>
</svg>
