<svg width="280" height="151" viewBox="0 0 280 151" fill="none" xmlns="http://www.w3.org/2000/svg">
<path d="M209.717 98H199.482C197.007 98 195 100.007 195 102.482V112.717C195 115.193 197.007 117.199 199.482 117.199H209.717C212.193 117.199 214.199 115.193 214.199 112.717V102.482C214.199 100.007 212.193 98 209.717 98Z" fill="white" stroke="#242427" stroke-width="1.28568" stroke-miterlimit="10"/>
<path d="M171.346 20H108.652C100.495 20 93.8828 26.6122 93.8828 34.7689V97.4629C93.8828 105.619 100.495 112.232 108.652 112.232H171.346C179.502 112.232 186.115 105.619 186.115 97.4629V34.7689C186.115 26.6122 179.502 20 171.346 20Z" fill="#D9D9D9" stroke="#242427" stroke-width="1.73787" stroke-miterlimit="10"/>
<path d="M120.155 37.0098C120.155 42.2179 115.933 46.4398 110.725 46.4398C105.517 46.4398 101.295 42.2179 101.295 37.0098C101.295 31.8018 105.517 27.5799 110.725 27.5799C115.933 27.5799 120.155 31.8018 120.155 37.0098Z" fill="white" stroke="#242427" stroke-width="1.73787"/>
<path d="M105.715 86.2812H102.424C100.941 86.2812 99.7383 87.4835 99.7383 88.9665V98.4877C99.7383 99.9707 100.941 101.173 102.424 101.173H105.715C107.198 101.173 108.4 99.9707 108.4 98.4877V88.9665C108.4 87.4835 107.198 86.2812 105.715 86.2812Z" fill="#242427"/>
<path d="M115.984 86.2812H112.693C111.21 86.2812 110.008 87.4835 110.008 88.9665V98.4877C110.008 99.9707 111.21 101.173 112.693 101.173H115.984C117.467 101.173 118.669 99.9707 118.669 98.4877V88.9665C118.669 87.4835 117.467 86.2812 115.984 86.2812Z" fill="#242427"/>
<path d="M126.25 86.2812H122.959C121.476 86.2812 120.273 87.4835 120.273 88.9665V98.4877C120.273 99.9707 121.476 101.173 122.959 101.173H126.25C127.733 101.173 128.935 99.9707 128.935 98.4877V88.9665C128.935 87.4835 127.733 86.2812 126.25 86.2812Z" fill="#242427"/>
<path d="M136.515 86.2812H133.224C131.741 86.2812 130.539 87.4835 130.539 88.9665V98.4877C130.539 99.9707 131.741 101.173 133.224 101.173H136.515C137.998 101.173 139.201 99.9707 139.201 98.4877V88.9665C139.201 87.4835 137.998 86.2812 136.515 86.2812Z" fill="#242427"/>
<path d="M146.777 86.2812H143.486C142.003 86.2812 140.801 87.4835 140.801 88.9665V98.4877C140.801 99.9707 142.003 101.173 143.486 101.173H146.777C148.26 101.173 149.462 99.9707 149.462 98.4877V88.9665C149.462 87.4835 148.26 86.2812 146.777 86.2812Z" fill="#242427"/>
<path d="M157.043 86.2812H153.752C152.269 86.2812 151.066 87.4835 151.066 88.9665V98.4877C151.066 99.9707 152.269 101.173 153.752 101.173H157.043C158.526 101.173 159.728 99.9707 159.728 98.4877V88.9665C159.728 87.4835 158.526 86.2812 157.043 86.2812Z" fill="#242427"/>
<path d="M167.312 86.2812H164.021C162.538 86.2812 161.336 87.4835 161.336 88.9665V98.4877C161.336 99.9707 162.538 101.173 164.021 101.173H167.312C168.795 101.173 169.998 99.9707 169.998 98.4877V88.9665C169.998 87.4835 168.795 86.2812 167.312 86.2812Z" fill="#242427"/>
<path d="M177.578 86.2812H174.287C172.804 86.2812 171.602 87.4835 171.602 88.9665V98.4877C171.602 99.9707 172.804 101.173 174.287 101.173H177.578C179.061 101.173 180.263 99.9707 180.263 98.4877V88.9665C180.263 87.4835 179.061 86.2812 177.578 86.2812Z" fill="#242427"/>
<path d="M123.035 44.2969L126.498 48.423" stroke="#242427" stroke-width="1.73787" stroke-linecap="round" stroke-linejoin="round"/>
<path d="M120.273 50.1992L125.341 52.0412" stroke="#242427" stroke-width="1.73787" stroke-linecap="round" stroke-linejoin="round"/>
<path d="M156.963 44.2969L153.5 48.423" stroke="#242427" stroke-width="1.73787" stroke-linecap="round" stroke-linejoin="round"/>
<path d="M159.736 50.1992L154.668 52.0412" stroke="#242427" stroke-width="1.73787" stroke-linecap="round" stroke-linejoin="round"/>
<path d="M154.78 47.2578H151.374C151.947 48.4203 152.275 49.8121 152.275 51.3266C152.275 55.3217 149.933 58.5555 147.052 58.5555C144.17 58.5555 141.828 55.3136 141.828 51.3266C141.828 49.8203 142.164 48.4203 142.729 47.2578H140.551C140.216 48.5186 140.027 49.8858 140.027 51.3266C140.027 57.5403 143.441 62.5752 147.666 62.5752C151.89 62.5752 155.304 57.5403 155.304 51.3266C155.304 49.8939 155.116 48.5268 154.78 47.2578Z" fill="white"/>
<path d="M141.828 51.3266C141.828 55.3217 144.17 58.5555 147.051 58.5555C149.933 58.5555 152.274 55.3136 152.274 51.3266C152.274 49.8203 151.939 48.4203 151.374 47.2578H142.729C142.164 48.4203 141.828 49.8121 141.828 51.3266Z" fill="#242427"/>
<path d="M125.336 47.0651C125.36 46.975 125.385 46.885 125.418 46.7949C125.393 46.885 125.36 46.975 125.336 47.0651Z" fill="white"/>
<path d="M139.514 47.2617H137.009C137.582 48.4242 137.91 49.816 137.91 51.3305C137.91 55.3257 135.568 58.5594 132.686 58.5594C129.805 58.5594 127.463 55.3175 127.463 51.3305C127.463 49.8242 127.799 48.4242 128.364 47.2617H125.286C124.95 48.5225 124.762 49.8897 124.762 51.3305C124.762 57.5443 128.176 62.5791 132.392 62.5791C136.608 62.5791 140.03 57.5443 140.03 51.3305C140.03 49.8978 139.842 48.5307 139.506 47.2617H139.514Z" fill="white"/>
<path d="M127.465 51.3305C127.465 55.3257 129.806 58.5594 132.688 58.5594C135.57 58.5594 137.911 55.3175 137.911 51.3305C137.911 49.8242 137.575 48.4242 137.011 47.2617H128.365C127.792 48.4242 127.465 49.816 127.465 51.3305Z" fill="#242427"/>
<path d="M139.696 77.7976C146.45 77.7976 151.927 73.7779 151.935 68.8168C151.935 63.8556 146.458 59.8359 139.704 59.8359C132.95 59.8359 127.465 63.8556 127.465 68.8168C127.465 73.7779 132.942 77.7976 139.696 77.7976Z" fill="white" stroke="#242427" stroke-width="1.73787" stroke-miterlimit="10"/>
<path d="M138.046 69.16L134.641 67.9238H144.522L141.116 69.16C140.126 69.5202 139.037 69.5202 138.046 69.16Z" fill="#242427" stroke="#242427" stroke-width="1.73787" stroke-linecap="round" stroke-linejoin="round"/>
<path d="M127.465 69.0199C130.952 71.304 134.62 66.2773 139.589 66.2773C144.559 66.2773 146.777 71.3122 152.614 69.0199" stroke="#242427" stroke-width="1.73787"/>
<path d="M168.143 23.3717C168.194 23.0614 168.64 23.0614 168.691 23.3717L168.876 24.4963C169.378 27.541 171.688 29.9704 174.704 30.6241C174.967 30.6812 174.967 31.0569 174.704 31.114C171.688 31.7677 169.378 34.1972 168.876 37.2418L168.691 38.3664C168.64 38.6767 168.194 38.6767 168.143 38.3664L167.958 37.2418C167.456 34.1972 165.146 31.7677 162.13 31.114C161.867 31.0569 161.867 30.6812 162.13 30.6241C165.146 29.9704 167.456 27.541 167.958 24.4963L168.143 23.3717Z" fill="#EFEFEF" stroke="#242427" stroke-width="1.85229" stroke-linejoin="round"/>
<path d="M187.376 7.52379C187.418 7.25308 187.808 7.25308 187.85 7.52379L187.991 8.43057C188.359 10.7925 190.128 12.6924 192.458 13.2271C192.659 13.2733 192.659 13.5604 192.458 13.6067C190.128 14.1413 188.359 16.0412 187.991 18.4032L187.85 19.31C187.808 19.5807 187.418 19.5807 187.376 19.31L187.235 18.4032C186.868 16.0412 185.098 14.1413 182.769 13.6067C182.567 13.5604 182.567 13.2733 182.769 13.2271C185.098 12.6924 186.868 10.7925 187.235 8.43057L187.376 7.52379Z" fill="#EFEFEF" stroke="#242427" stroke-width="1.85229" stroke-linejoin="round"/>
<path d="M208.279 55.8175C208.326 55.5021 208.781 55.5021 208.828 55.8175L209.068 57.4145C209.537 60.5295 211.852 63.047 214.916 63.7746C215.18 63.8372 215.18 64.2125 214.916 64.2751C211.852 65.0027 209.537 67.5202 209.068 70.6351L208.828 72.2322C208.781 72.5476 208.326 72.5476 208.279 72.2322L208.039 70.6351C207.57 67.5202 205.256 65.0027 202.191 64.2751C201.927 64.2125 201.927 63.8372 202.191 63.7746C205.256 63.047 207.57 60.5295 208.039 57.4145L208.279 55.8175Z" fill="#EFEFEF" stroke="#242427" stroke-width="1.85229" stroke-linejoin="round"/>
<path d="M216.201 47.5318C216.237 47.2933 216.58 47.2933 216.616 47.5318L216.745 48.3941C217.046 50.4136 218.544 52.0475 220.53 52.5227C220.7 52.5635 220.7 52.8063 220.53 52.8472C218.544 53.3223 217.046 54.9563 216.745 56.9757L216.616 57.838C216.58 58.0765 216.237 58.0765 216.201 57.838L216.072 56.9757C215.771 54.9563 214.273 53.3223 212.287 52.8472C212.117 52.8063 212.117 52.5635 212.287 52.5227C214.273 52.0475 215.771 50.4136 216.072 48.3941L216.201 47.5318Z" fill="#EFEFEF" stroke="#242427" stroke-width="1.85229" stroke-linejoin="round"/>
<path d="M193.568 39.2166C193.597 39.0411 193.85 39.0411 193.879 39.2166L193.963 39.723C194.231 41.3305 195.453 42.6112 197.047 42.953C197.186 42.9829 197.186 43.1818 197.047 43.2118C195.453 43.5535 194.231 44.8342 193.963 46.4417L193.879 46.9481C193.85 47.1237 193.597 47.1237 193.568 46.9481L193.484 46.4417C193.216 44.8342 191.994 43.5535 190.4 43.2118C190.261 43.1818 190.261 42.9829 190.4 42.953C191.994 42.6112 193.216 41.3305 193.484 39.723L193.568 39.2166Z" fill="#EFEFEF" stroke="#242427" stroke-width="1.85229" stroke-linejoin="round"/>
</svg>
