<svg width="19" height="24" viewBox="0 0 19 24" fill="none" xmlns="http://www.w3.org/2000/svg">
<path d="M0.719219 21.3904L3.84922 15.1504L9.38922 17.1304L5.93922 24.0004L4.27922 20.9804L0.699219 21.3704H0.709221L0.719219 21.3904Z" fill="#A3815A"/>
<path d="M18.2091 21.3904L15.0791 15.1504L9.53906 17.1304L12.9891 24.0004L14.6491 20.9804L18.2291 21.3704H18.2191L18.2091 21.3904Z" fill="#A3815A"/>
<path d="M9.35 18.69C14.51 18.69 18.7 14.51 18.7 9.34C18.7 4.17 14.51 0 9.35 0C4.19 0 0 4.18 0 9.35C0 14.52 4.18 18.7 9.35 18.7V18.69Z" fill="#FFC98D"/>
<path d="M9.36828 13.42C7.97828 13.42 7.05828 12.86 6.58828 12.04C6.51828 11.92 6.48828 11.74 6.48828 11.57C6.48828 11.07 6.89828 10.66 7.40828 10.66C7.78828 10.66 8.09828 10.9 8.24828 11.23C8.47828 11.74 8.83828 11.96 9.35828 11.96C10.0483 11.96 10.4883 11.54 10.4883 10.95C10.4883 10.29 9.98828 10.03 9.30828 10.03H9.12828C8.66828 10.03 8.37828 9.68 8.37828 9.28C8.37828 8.88 8.66828 8.54 9.12828 8.54H9.30828C9.85828 8.54 10.3183 8.28 10.3183 7.63C10.3183 7.05 9.89828 6.73 9.36828 6.73C8.88828 6.73 8.54828 6.95 8.34828 7.37C8.21828 7.67 7.90828 7.9 7.55828 7.9C7.06828 7.9 6.67828 7.51 6.67828 7.03C6.67828 6.86 6.72828 6.72 6.79828 6.58C7.26828 5.77 8.15828 5.25 9.45828 5.25C11.1583 5.25 12.1583 6.18 12.1583 7.34C12.1583 8.26 11.6183 8.83 10.8583 9.09V9.12C11.8083 9.34 12.3683 10.07 12.3683 11.03C12.3683 12.35 11.2083 13.4 9.34828 13.4L9.36828 13.42Z" fill="#856848"/>
</svg>
