<svg width="267" height="357" viewBox="0 0 267 357" fill="none" xmlns="http://www.w3.org/2000/svg">
<path d="M90.1469 1.87109H17.9965C8.60958 1.87109 1 9.48069 1 18.8676V91.018C1 100.405 8.60958 108.015 17.9965 108.015H90.1469C99.5338 108.015 107.143 100.405 107.143 91.018V18.8676C107.143 9.48069 99.5338 1.87109 90.1469 1.87109Z" fill="#D9D9D9" stroke="#242427" stroke-width="2" stroke-miterlimit="10"/>
<path d="M243.767 126.99H58.1338C46.1556 126.99 36.4453 136.7 36.4453 148.679V334.312C36.4453 346.29 46.1556 356 58.1338 356H243.767C255.745 356 265.455 346.29 265.455 334.312V148.679C265.455 136.7 255.745 126.99 243.767 126.99Z" fill="white" stroke="#242427" stroke-width="2" stroke-miterlimit="10"/>
<path d="M144.558 74.9062H128.636C124.786 74.9062 121.664 78.0277 121.664 81.8782V97.8007C121.664 101.651 124.786 104.773 128.636 104.773H144.558C148.409 104.773 151.53 101.651 151.53 97.8007V81.8782C151.53 78.0277 148.409 74.9062 144.558 74.9062Z" fill="white" stroke="#242427" stroke-width="2" stroke-miterlimit="10"/>
<path d="M31.2359 21.448C31.2359 27.4416 26.3772 32.3004 20.3836 32.3004C14.39 32.3004 9.53125 27.4416 9.53125 21.448C9.53125 15.4545 14.39 10.5957 20.3836 10.5957C26.3772 10.5957 31.2359 15.4545 31.2359 21.448Z" fill="white" stroke="#242427" stroke-width="2"/>
<path d="M14.616 78.1494H10.8286C9.12184 78.1494 7.73828 79.533 7.73828 81.2397V92.197C7.73828 93.9037 9.12184 95.2873 10.8286 95.2873H14.616C16.3227 95.2873 17.7063 93.9037 17.7063 92.197V81.2397C17.7063 79.533 16.3227 78.1494 14.616 78.1494Z" fill="#242427"/>
<path d="M26.4324 78.1494H22.645C20.9382 78.1494 19.5547 79.533 19.5547 81.2397V92.197C19.5547 93.9037 20.9382 95.2873 22.645 95.2873H26.4324C28.1391 95.2873 29.5227 93.9037 29.5227 92.197V81.2397C29.5227 79.533 28.1391 78.1494 26.4324 78.1494Z" fill="#242427"/>
<path d="M38.245 78.1494H34.4575C32.7507 78.1494 31.3672 79.533 31.3672 81.2397V92.197C31.3672 93.9037 32.7507 95.2873 34.4575 95.2873H38.245C39.9517 95.2873 41.3352 93.9037 41.3352 92.197V81.2397C41.3352 79.533 39.9517 78.1494 38.245 78.1494Z" fill="#242427"/>
<path d="M50.0613 78.1494H46.2739C44.5672 78.1494 43.1836 79.533 43.1836 81.2397V92.197C43.1836 93.9037 44.5672 95.2873 46.2739 95.2873H50.0613C51.768 95.2873 53.1516 93.9037 53.1516 92.197V81.2397C53.1516 79.533 51.768 78.1494 50.0613 78.1494Z" fill="#242427"/>
<path d="M61.8738 78.1494H58.0864C56.3797 78.1494 54.9961 79.533 54.9961 81.2397V92.197C54.9961 93.9037 56.3797 95.2873 58.0864 95.2873H61.8738C63.5805 95.2873 64.9641 93.9037 64.9641 92.197V81.2397C64.9641 79.533 63.5805 78.1494 61.8738 78.1494Z" fill="#242427"/>
<path d="M73.6863 78.1494H69.8989C68.1922 78.1494 66.8086 79.533 66.8086 81.2397V92.197C66.8086 93.9037 68.1922 95.2873 69.8989 95.2873H73.6863C75.393 95.2873 76.7766 93.9037 76.7766 92.197V81.2397C76.7766 79.533 75.393 78.1494 73.6863 78.1494Z" fill="#242427"/>
<path d="M85.5028 78.1494H81.7153C80.0086 78.1494 78.625 79.533 78.625 81.2397V92.197C78.625 93.9037 80.0086 95.2873 81.7153 95.2873H85.5028C87.2095 95.2873 88.593 93.9037 88.593 92.197V81.2397C88.593 79.533 87.2095 78.1494 85.5028 78.1494Z" fill="#242427"/>
<path d="M97.3191 78.1494H93.5317C91.825 78.1494 90.4414 79.533 90.4414 81.2397V92.197C90.4414 93.9037 91.825 95.2873 93.5317 95.2873H97.3191C99.0259 95.2873 100.409 93.9037 100.409 92.197V81.2397C100.409 79.533 99.0259 78.1494 97.3191 78.1494Z" fill="#242427"/>
<path d="M72.3153 313.659H63.4684C60.362 313.659 57.8438 316.177 57.8438 319.284V336.205C57.8438 339.311 60.362 341.83 63.4684 341.83H72.3153C75.4217 341.83 77.94 339.311 77.94 336.205V319.284C77.94 316.177 75.4217 313.659 72.3153 313.659Z" fill="#242427"/>
<path d="M96.1512 313.659H87.3044C84.1979 313.659 81.6797 316.177 81.6797 319.284V336.205C81.6797 339.311 84.1979 341.83 87.3044 341.83H96.1512C99.2576 341.83 101.776 339.311 101.776 336.205V319.284C101.776 316.177 99.2576 313.659 96.1512 313.659Z" fill="#242427"/>
<path d="M119.979 313.659H111.132C108.026 313.659 105.508 316.177 105.508 319.284V336.205C105.508 339.311 108.026 341.83 111.132 341.83H119.979C123.086 341.83 125.604 339.311 125.604 336.205V319.284C125.604 316.177 123.086 313.659 119.979 313.659Z" fill="#242427"/>
<path d="M143.807 313.659H134.961C131.854 313.659 129.336 316.177 129.336 319.284V336.205C129.336 339.311 131.854 341.83 134.961 341.83H143.807C146.914 341.83 149.432 339.311 149.432 336.205V319.284C149.432 316.177 146.914 313.659 143.807 313.659Z" fill="#242427"/>
<path d="M167.636 313.659H158.789C155.682 313.659 153.164 316.177 153.164 319.284V336.205C153.164 339.311 155.682 341.83 158.789 341.83H167.636C170.742 341.83 173.26 339.311 173.26 336.205V319.284C173.26 316.177 170.742 313.659 167.636 313.659Z" fill="#242427"/>
<path d="M191.464 313.659H182.617C179.51 313.659 176.992 316.177 176.992 319.284V336.205C176.992 339.311 179.51 341.83 182.617 341.83H191.464C194.57 341.83 197.088 339.311 197.088 336.205V319.284C197.088 316.177 194.57 313.659 191.464 313.659Z" fill="#242427"/>
<path d="M215.3 313.659H206.453C203.346 313.659 200.828 316.177 200.828 319.284V336.205C200.828 339.311 203.346 341.83 206.453 341.83H215.3C218.406 341.83 220.924 339.311 220.924 336.205V319.284C220.924 316.177 218.406 313.659 215.3 313.659Z" fill="#242427"/>
<path d="M239.124 313.659H230.277C227.171 313.659 224.652 316.177 224.652 319.284V336.205C224.652 339.311 227.171 341.83 230.277 341.83H239.124C242.23 341.83 244.749 339.311 244.749 336.205V319.284C244.749 316.177 242.23 313.659 239.124 313.659Z" fill="#242427"/>
<path d="M84.1563 158.947C84.1563 168.526 76.3913 176.291 66.8125 176.291C57.2338 176.291 49.4688 168.526 49.4688 158.947C49.4688 149.369 57.2338 141.604 66.8125 141.604C76.3913 141.604 84.1563 149.369 84.1563 158.947Z" fill="#D9D9D9" stroke="#242427" stroke-width="2"/>
<path d="M173.264 294.957C212.748 294.957 244.755 288.49 244.755 280.514C244.755 272.537 212.748 266.07 173.264 266.07C133.781 266.07 101.773 272.537 101.773 280.514C101.773 288.49 133.781 294.957 173.264 294.957Z" fill="white"/>
<path d="M163.705 233.123C145.53 233.161 102.983 234.612 98.6959 258.392C97.4145 265.515 100.966 272.873 106.337 277.734C111.707 282.596 118.641 285.328 125.585 287.382C151.315 294.985 179.392 294.411 204.792 285.752C210.775 283.717 216.739 281.154 221.336 276.811C230.117 268.52 230.438 253.229 220.724 245.437C216.447 242.008 211.114 240.199 205.829 238.739C192.13 234.951 177.912 233.076 163.695 233.114L163.705 233.123ZM163.686 250.497C154.208 250.497 146.52 249.394 146.52 248.028C146.52 246.662 154.208 245.56 163.686 245.56C173.164 245.56 180.852 246.662 180.852 248.028C180.852 249.394 173.164 250.497 163.686 250.497Z" fill="#242427" stroke="white" stroke-width="2" stroke-miterlimit="10" stroke-linecap="round"/>
<path d="M150.823 246.162C145.265 239.03 115.719 234.376 104.215 247.905L150.823 246.162Z" fill="#242427"/>
<path d="M150.823 246.162C145.265 239.03 115.719 234.376 104.215 247.905" stroke="white" stroke-width="2" stroke-linejoin="round"/>
<path d="M150.53 249.518C136.783 246.531 116.31 254.662 124.526 285.96L150.53 249.518Z" fill="#242427"/>
<path d="M150.53 249.518C136.783 246.531 116.31 254.662 124.526 285.96" stroke="white" stroke-width="2" stroke-miterlimit="10" stroke-linecap="round"/>
<path d="M164.545 244.09C164.545 244.09 160.691 239.041 164.545 234.48V244.09Z" fill="#242427"/>
<path d="M164.545 244.09C164.545 244.09 160.691 239.041 164.545 234.48" stroke="white" stroke-width="2" stroke-miterlimit="10" stroke-linecap="round"/>
<path d="M180.852 247.765C180.852 247.765 216.804 230.947 227.093 255.698L180.852 247.765Z" fill="#242427"/>
<path d="M180.852 247.765C180.852 247.765 216.804 230.947 227.093 255.698" stroke="white" stroke-width="2" stroke-miterlimit="10" stroke-linecap="round"/>
<path d="M178.07 249.555C178.07 249.555 210.801 250.987 206.778 284.754L178.07 249.555Z" fill="#242427"/>
<path d="M178.07 249.555C178.07 249.555 210.801 250.987 206.778 284.754" stroke="white" stroke-width="2" stroke-miterlimit="10" stroke-linecap="round"/>
<path d="M102.275 241.604L157.005 240.501C157.202 243.045 155.318 245.269 152.784 245.495L99.6555 250.243C93.6822 254.313 87.5393 248.293 84.8353 239.446C82.1408 230.599 83.554 221.828 87.9916 219.859C92.4291 217.89 102.265 223.929 102.275 241.594" fill="white"/>
<path d="M102.275 241.604L157.005 240.501C157.202 243.045 155.318 245.269 152.784 245.495L99.6555 250.243C93.6822 254.313 87.5393 248.293 84.8353 239.446C82.1408 230.599 83.554 221.828 87.9916 219.859C92.4291 217.89 102.265 223.929 102.275 241.594" stroke="#242427" stroke-width="2" stroke-linecap="round" stroke-linejoin="round"/>
<path d="M96.4911 247.352C98.9596 240.304 96.6136 226.803 88.8125 223.713" stroke="#242427" stroke-width="2" stroke-linecap="round" stroke-linejoin="round"/>
<path fill-rule="evenodd" clip-rule="evenodd" d="M176.867 172.591C179.025 167.55 178.111 162.189 174.437 159.957C170.753 157.705 165.533 159.363 162.038 163.622C160.964 161.021 159.164 159.288 157.073 159.222C153.568 159.109 150.581 163.678 150.393 169.416C150.346 170.782 150.478 172.082 150.723 173.288C133.707 179.045 121.224 194.873 120.621 213.886C119.839 238.363 139.049 258.836 163.527 259.609C188.004 260.39 208.477 241.18 209.249 216.703C209.909 195.872 196.087 177.942 176.858 172.591H176.867Z" fill="#242427" stroke="white" stroke-width="2" stroke-miterlimit="10" stroke-linejoin="round"/>
<path d="M145.038 220.838C150.738 221.893 155.986 219.359 156.768 215.176C157.55 210.992 153.555 206.743 147.855 205.679C142.155 204.623 136.907 207.158 136.125 211.341C135.343 215.524 139.338 219.773 145.038 220.838Z" fill="white" stroke="#242427" stroke-width="2" stroke-miterlimit="10"/>
<path d="M136.086 211.511C138.649 213.98 140.938 210.183 145.102 210.955C149.267 211.728 150.925 217.616 156.832 213.81" stroke="#242427" stroke-width="2"/>
<path d="M142.552 213.753C141.921 213.253 141.384 212.518 140.875 211.793C143.457 212.321 146.424 212.255 148.883 213.234C147.724 214.488 144.955 214.582 143.664 214.309C143.259 214.224 142.891 214.026 142.552 213.753Z" fill="#242427" stroke="#242427" stroke-miterlimit="10"/>
<path d="M161.557 198.539C162.531 193.295 160.438 188.509 156.882 187.849C153.327 187.188 149.655 190.904 148.681 196.148C147.707 201.392 149.8 206.178 153.356 206.838C156.911 207.498 160.583 203.783 161.557 198.539Z" fill="white"/>
<path d="M159.285 191.829C160.463 191.792 162.978 190.868 163.6 187.533" stroke="white" stroke-width="2" stroke-linecap="round" stroke-linejoin="round"/>
<path d="M161.547 194.25C162.715 194.41 165.353 193.949 166.54 190.773" stroke="white" stroke-width="2" stroke-linecap="round" stroke-linejoin="round"/>
<path d="M148.595 196.674C149.514 191.726 147.592 187.221 144.303 186.61C141.013 185.999 137.602 189.514 136.683 194.461C135.764 199.409 137.686 203.914 140.976 204.525C144.265 205.136 147.677 201.621 148.595 196.674Z" fill="white"/>
<path d="M141.603 189.446C140.595 189.013 138.73 187.355 139.314 184.208" stroke="white" stroke-width="2" stroke-linecap="round" stroke-linejoin="round"/>
<path d="M138.832 190.822C137.768 190.577 136.213 190.125 136.251 186.922" stroke="white" stroke-width="2" stroke-linecap="round" stroke-linejoin="round"/>
<path d="M145.499 195.573C146.09 192.391 144.744 189.473 142.493 189.055C140.242 188.637 137.938 190.877 137.347 194.06C136.756 197.242 138.102 200.16 140.353 200.578C142.604 200.996 144.908 198.755 145.499 195.573Z" fill="#242427"/>
<path d="M152.615 250.007L146.999 244.948L137.861 265.421V265.374C136.871 267.965 135.194 269.915 132.914 270.735C127.271 272.77 120.11 267.268 116.935 258.449C113.751 249.631 115.758 240.821 121.401 238.786C127.045 236.751 134.205 242.254 137.38 251.072L143.466 240.869C144.795 238.645 147.876 238.315 149.647 240.209L156.581 247.633" fill="white"/>
<path d="M152.615 250.007L146.999 244.948L137.861 265.421V265.374C136.871 267.965 135.194 269.915 132.914 270.735C127.271 272.77 120.11 267.268 116.935 258.449C113.751 249.631 115.758 240.821 121.401 238.786C127.045 236.751 134.205 242.254 137.38 251.072L143.466 240.869C144.795 238.645 147.876 238.315 149.647 240.209L156.581 247.633" stroke="#242427" stroke-width="2" stroke-linecap="round" stroke-linejoin="round"/>
<path d="M134.496 263.847C135.758 256.479 131.208 243.562 122.992 241.81" stroke="#242427" stroke-width="2" stroke-linecap="round" stroke-linejoin="round"/>
<path d="M147.719 243.383L146.117 246.925" stroke="#242427" stroke-width="2" stroke-linecap="round" stroke-linejoin="round"/>
<path fill-rule="evenodd" clip-rule="evenodd" d="M138.105 256.847C138.105 256.847 138.557 255.622 137.719 252.089L138.105 256.847Z" fill="white"/>
<path d="M138.105 256.847C138.105 256.847 138.557 255.622 137.719 252.089" stroke="#242427" stroke-width="2" stroke-linecap="round" stroke-linejoin="round"/>
<path d="M157.712 197.854C158.338 194.483 156.913 191.391 154.529 190.948C152.145 190.505 149.705 192.88 149.079 196.251C148.453 199.622 149.878 202.714 152.262 203.157C154.646 203.6 157.086 201.226 157.712 197.854Z" fill="#242427"/>
<path d="M34.543 29.834L38.5283 34.5825" stroke="#242427" stroke-width="2" stroke-linecap="round" stroke-linejoin="round"/>
<path d="M31.3672 36.6279L37.1991 38.7478" stroke="#242427" stroke-width="2" stroke-linecap="round" stroke-linejoin="round"/>
<path d="M73.5947 29.834L69.6094 34.5825" stroke="#242427" stroke-width="2" stroke-linecap="round" stroke-linejoin="round"/>
<path d="M76.7812 36.6279L70.9492 38.7478" stroke="#242427" stroke-width="2" stroke-linecap="round" stroke-linejoin="round"/>
<path d="M71.0793 33.2441H67.1599C67.8194 34.582 68.1962 36.1837 68.1962 37.9267C68.1962 42.5244 65.5017 46.2459 62.1853 46.2459C58.8689 46.2459 56.1743 42.515 56.1743 37.9267C56.1743 36.1931 56.5606 34.582 57.2107 33.2441H54.7046C54.3183 34.6951 54.1016 36.2685 54.1016 37.9267C54.1016 45.0776 58.0304 50.8719 62.8919 50.8719C67.7534 50.8719 71.6822 45.0776 71.6822 37.9267C71.6822 36.2779 71.4655 34.7045 71.0793 33.2441Z" fill="white"/>
<path d="M56.1719 37.9267C56.1719 42.5244 58.8664 46.2459 62.1828 46.2459C65.4992 46.2459 68.1938 42.515 68.1938 37.9267C68.1938 36.1931 67.8075 34.582 67.1574 33.2441H57.2083C56.5582 34.582 56.1719 36.1837 56.1719 37.9267Z" fill="#242427"/>
<path d="M37.1914 33.0189C37.2197 32.9153 37.2479 32.8116 37.2856 32.708C37.2573 32.8116 37.2197 32.9153 37.1914 33.0189Z" fill="white"/>
<path d="M53.5089 33.2451H50.6259C51.2854 34.583 51.6623 36.1846 51.6623 37.9276C51.6623 42.5254 48.9677 46.2469 45.6513 46.2469C42.3349 46.2469 39.6404 42.5159 39.6404 37.9276C39.6404 36.1941 40.0266 34.583 40.6767 33.2451H37.1342C36.748 34.696 36.5312 36.2694 36.5312 37.9276C36.5312 45.0786 40.4601 50.8729 45.3122 50.8729C50.1643 50.8729 54.1025 45.0786 54.1025 37.9276C54.1025 36.2789 53.8858 34.7055 53.4995 33.2451H53.5089Z" fill="white"/>
<path d="M39.6406 37.9276C39.6406 42.5254 42.3352 46.2469 45.6516 46.2469C48.968 46.2469 51.6626 42.5159 51.6626 37.9276C51.6626 36.1941 51.2763 34.583 50.6262 33.2451H40.677C40.0175 34.583 39.6406 36.1846 39.6406 37.9276Z" fill="#242427"/>
<path d="M53.7165 68.3877C61.4892 68.3877 67.7923 63.7617 67.8017 58.0523C67.8017 52.3428 61.4987 47.7168 53.7259 47.7168C45.9531 47.7168 39.6406 52.3428 39.6406 58.0523C39.6406 63.7617 45.9437 68.3877 53.7165 68.3877Z" fill="white" stroke="#242427" stroke-width="2" stroke-miterlimit="10"/>
<path d="M51.8217 58.4471L47.9023 57.0244H59.2742L55.3548 58.4471C54.2148 58.8616 52.9617 58.8616 51.8217 58.4471Z" fill="#242427" stroke="#242427" stroke-width="2" stroke-linecap="round" stroke-linejoin="round"/>
<path d="M39.6406 58.2871C43.6542 60.9157 47.8751 55.1309 53.594 55.1309C59.3129 55.1309 61.8661 60.9251 68.5837 58.2871" stroke="#242427" stroke-width="2"/>
<path d="M173.587 50.7769C173.642 50.4419 174.124 50.4419 174.179 50.7769L174.379 51.9912C174.921 55.2786 177.415 57.9018 180.671 58.6076C180.956 58.6693 180.956 59.075 180.671 59.1367C177.415 59.8425 174.921 62.4656 174.379 65.7531L174.179 66.9674C174.124 67.3024 173.642 67.3024 173.587 66.9674L173.387 65.7531C172.846 62.4656 170.351 59.8425 167.095 59.1367C166.811 59.075 166.811 58.6693 167.095 58.6076C170.351 57.9018 172.846 55.2786 173.387 51.9912L173.587 50.7769Z" fill="#EFEFEF" stroke="#242427" stroke-width="2" stroke-linejoin="round"/>
<path d="M194.352 33.6658C194.398 33.3735 194.819 33.3735 194.864 33.6658L195.017 34.6449C195.413 37.1952 197.324 39.2466 199.839 39.8239C200.057 39.8738 200.057 40.1839 199.839 40.2338C197.324 40.8111 195.413 42.8625 195.017 45.4128L194.864 46.3919C194.819 46.6842 194.398 46.6842 194.352 46.3919L194.2 45.4128C193.803 42.8625 191.893 40.8111 189.378 40.2338C189.16 40.1839 189.16 39.8738 189.378 39.8239C191.893 39.2466 193.803 37.1952 194.2 34.6449L194.352 33.6658Z" fill="#EFEFEF" stroke="#242427" stroke-width="2" stroke-linejoin="round"/>
<path d="M216.927 85.8118C216.978 85.4713 217.469 85.4713 217.52 85.8118L217.779 87.5362C218.285 90.8996 220.784 93.6178 224.093 94.4035C224.378 94.4711 224.378 94.8763 224.093 94.9439C220.784 95.7295 218.285 98.4478 217.779 101.811L217.52 103.536C217.469 103.876 216.978 103.876 216.927 103.536L216.667 101.811C216.161 98.4478 213.662 95.7295 210.353 94.9439C210.068 94.8763 210.068 94.4711 210.353 94.4035C213.662 93.6178 216.161 90.8996 216.667 87.5362L216.927 85.8118Z" fill="#EFEFEF" stroke="#242427" stroke-width="2" stroke-linejoin="round"/>
<path d="M225.477 76.8615C225.516 76.604 225.887 76.604 225.925 76.8615L226.064 77.7926C226.39 79.9731 228.007 81.7373 230.151 82.2504C230.335 82.2945 230.335 82.5566 230.151 82.6007C228.007 83.1138 226.39 84.878 226.064 87.0585L225.925 87.9896C225.887 88.2471 225.516 88.2471 225.477 87.9896L225.338 87.0585C225.013 84.878 223.396 83.1138 221.252 82.6007C221.067 82.5566 221.067 82.2945 221.252 82.2504C223.396 81.7373 225.013 79.9731 225.338 77.7926L225.477 76.8615Z" fill="#EFEFEF" stroke="#242427" stroke-width="2" stroke-linejoin="round"/>
<path d="M201.041 67.8877C201.072 67.6982 201.345 67.6982 201.376 67.8877L201.467 68.4345C201.756 70.1702 203.076 71.553 204.797 71.922C204.947 71.9543 204.947 72.1692 204.797 72.2015C203.076 72.5704 201.756 73.9533 201.467 75.689L201.376 76.2358C201.345 76.4253 201.072 76.4253 201.041 76.2358L200.95 75.689C200.661 73.9533 199.341 72.5704 197.62 72.2015C197.47 72.1692 197.47 71.9543 197.62 71.922C199.341 71.553 200.661 70.1702 200.95 68.4345L201.041 67.8877Z" fill="#EFEFEF" stroke="#242427" stroke-width="2" stroke-linejoin="round"/>
</svg>
