<svg width="287" height="316" viewBox="0 0 287 316" fill="none" xmlns="http://www.w3.org/2000/svg">
<path d="M234.309 178.371C234.697 179.777 235.045 181.17 235.366 182.535" stroke="#242427" stroke-width="2" stroke-linecap="round" stroke-linejoin="round"/>
<path d="M245 169.5L250 171M250 171L247 175.5M250 171L253.5 175.5M250 171L255 169.5M250 171V166" stroke="#242427" stroke-width="2" stroke-linecap="round" stroke-linejoin="round"/>
<path d="M260 178.5L265 180M265 180L262 184.5M265 180L268.5 184.5M265 180L270 178.5M265 180V175" stroke="#242427" stroke-width="2" stroke-linecap="round" stroke-linejoin="round"/>
<path d="M255 152.158L262.5 154.368M262.5 154.368L258 161M262.5 154.368L267.75 161M262.5 154.368L270 152.158M262.5 154.368V147" stroke="#242427" stroke-width="2" stroke-linecap="round" stroke-linejoin="round"/>
<path d="M44.7025 81.9342C51.6984 81.9342 57.3698 76.2628 57.3698 69.2669C57.3698 62.2709 51.6984 56.5996 44.7025 56.5996C37.7065 56.5996 32.0352 62.2709 32.0352 69.2669C32.0352 76.2628 37.7065 81.9342 44.7025 81.9342Z" fill="white" stroke="#242427" stroke-width="2" stroke-linecap="round" stroke-linejoin="round"/>
<path d="M46.6445 88.9824V106.015" stroke="#242427" stroke-width="2" stroke-linecap="round" stroke-linejoin="round"/>
<path d="M35.2907 90.1445L32.0234 101.5" stroke="#242427" stroke-width="2" stroke-linecap="round" stroke-linejoin="round"/>
<path d="M25.5138 80.0469L12.8867 90.1432" stroke="#242427" stroke-width="2" stroke-linecap="round" stroke-linejoin="round"/>
<path d="M12.2578 63.9531L23.6128 69.2691" stroke="#242427" stroke-width="2" stroke-linecap="round" stroke-linejoin="round"/>
<path d="M24.5664 46.918L32.0248 56.5858" stroke="#242427" stroke-width="2" stroke-linecap="round" stroke-linejoin="round"/>
<path d="M46.6447 36.502L44.7031 49.1291" stroke="#242427" stroke-width="2" stroke-linecap="round" stroke-linejoin="round"/>
<path d="M62.4192 45.9688L57.3711 51.7534" stroke="#242427" stroke-width="2" stroke-linecap="round" stroke-linejoin="round"/>
<path d="M79.1395 58.9043L64.3164 64.2738" stroke="#242427" stroke-width="2" stroke-linecap="round" stroke-linejoin="round"/>
<path d="M78.5128 79.7259L66.207 76.2578" stroke="#242427" stroke-width="2" stroke-linecap="round" stroke-linejoin="round"/>
<path d="M66.2087 95.8216L57.3711 89.1934" stroke="#242427" stroke-width="2" stroke-linecap="round" stroke-linejoin="round"/>
<path d="M247.92 101.035C244.75 102.203 241.331 102.856 237.763 102.856C221.457 102.856 208.246 89.6451 208.246 73.3389C208.246 57.0327 221.457 43.8223 237.763 43.8223C242.747 43.8223 247.429 45.0772 251.542 47.2606C240.774 51.5055 233.069 61.8395 232.668 74.0261H232.638V75.0261C232.638 86.2128 238.808 95.9322 247.92 101.035Z" fill="white" stroke="#242427" stroke-width="2"/>
<path d="M5.40025 14.0454C5.30652 15.3041 4.23529 16.0941 2.80252 16.0941C1.36975 16.0941 0.32523 15.2237 0.218107 13.9651C-0.0630905 10.5773 -0.0630611 6.15847 0.164575 3.11886C0.298479 1.15048 1.91872 0.440786 3.35149 0.280102C5.19936 0.0658563 7.67654 0.0256852 9.51102 0.320273C11.8008 0.668423 13.3675 2.16814 13.3675 5.5559C13.3675 9.11774 11.8142 11.0861 9.51102 11.3405C8.17199 11.4744 6.24385 11.5548 5.40025 11.2602C5.4806 12.0101 5.4806 13.2018 5.40025 14.032V14.0454ZM5.76174 4.1767C6.56516 5.22115 6.60536 6.18525 5.78854 7.2297C6.47145 6.42628 7.26145 6.42628 7.93097 7.2297C7.12755 6.18525 7.12755 5.22115 7.93097 4.1767C7.26145 4.98012 6.43126 4.98012 5.76174 4.1767Z" fill="#242427"/>
<path d="M25.9265 12.9892C25.431 14.0739 24.882 15.0915 23.5028 15.1183C22.1236 15.1049 21.5746 14.0739 21.0792 12.9892L18.8564 8.12853C19.0706 8.95873 19.5125 10.6727 19.9945 11.5565C19.9812 12.1456 19.9142 13.4043 19.8607 14.0605C19.7402 15.3192 18.6957 16.1092 17.2897 16.1092C15.8837 16.1092 14.7723 15.2388 14.6919 13.9801C14.4777 10.0835 14.4777 6.14676 14.6919 2.25016C14.7723 0.991467 16.0444 0.121094 17.4906 0.121094C19.6732 0.121094 20.5034 0.924515 20.9988 2.16982L23.5162 8.53024L26.0336 2.16982C26.5291 0.924515 27.3459 0.121094 29.5419 0.121094C30.9747 0.121094 32.2602 0.991467 32.3405 2.25016C32.5547 6.14676 32.5547 10.0835 32.3405 13.9801C32.2602 15.2388 31.3763 16.1092 29.9436 16.1092C28.5108 16.1092 27.2923 15.3192 27.1718 14.0605C27.1182 13.4177 27.0513 12.159 27.0379 11.5565C27.5333 10.6727 27.9618 8.95873 28.176 8.12853L25.9533 12.9892H25.9265Z" fill="#242427"/>
<path d="M42.5033 5.28977C41.74 5.45046 40.9634 5.57097 40.2002 5.62453C39.1155 5.70487 38.3656 4.99519 38.138 3.73649C37.83 2.02253 38.754 1.01825 39.9055 0.589756C40.8161 0.295168 41.8874 0.121094 43.1327 0.121094C44.7797 0.121094 45.8107 0.911125 45.8911 2.51797C46.0919 6.361 46.0919 10.2174 45.8911 14.0471C45.8375 15.4798 44.6859 16.0958 43.2531 16.0958C41.8204 16.0958 40.6822 15.4798 40.6019 14.0471C40.4412 11.1414 40.4412 8.50346 40.6019 5.9459C41.3249 5.85217 42.0614 5.6647 42.5033 5.28977Z" fill="#242427"/>
<path d="M50.34 15.9613C48.9608 15.9613 48.1172 15.0106 48.1172 13.5377V13.4038C48.1172 12.2656 48.6528 11.422 49.5098 10.6319C51.1434 9.19918 53.2859 7.69946 54.6116 6.06583C55.0802 5.47666 54.8526 4.82053 54.1831 4.82053C53.393 4.82053 53.0984 5.10173 52.844 5.65073C52.3486 6.77552 50.4605 6.98977 49.4428 6.45415C48.2645 5.8382 47.7958 4.49916 48.385 3.22708C49.4295 0.910545 51.8531 0 54.9329 0C58.0127 0 60.5167 2.02194 60.5167 5.02139C60.5167 7.71285 57.611 10.3507 54.2768 12.4396C55.1873 12.1049 55.897 11.7567 56.5264 11.3015H58.709C60.2623 11.3015 60.8782 12.3459 60.8782 13.618C60.8782 14.8901 60.2623 15.9613 58.709 15.9613H50.34Z" fill="#242427"/>
<path d="M64.3422 6.45589C62.9496 6.45589 61.9453 5.57213 61.9453 4.15275C61.9453 2.73337 62.9496 1.84961 64.3422 1.84961C65.7348 1.84961 66.7391 2.73337 66.7391 4.15275C66.7391 5.57213 65.7348 6.45589 64.3422 6.45589ZM64.3422 14.4767C62.9496 14.4767 61.9453 13.593 61.9453 12.1736C61.9453 10.7542 62.9496 9.87044 64.3422 9.87044C65.7348 9.87044 66.7391 10.7542 66.7391 12.1736C66.7391 13.593 65.7348 14.4767 64.3422 14.4767Z" fill="#242427"/>
<path d="M67.918 8.10117C67.918 3.58862 70.1274 0 74.5462 0C78.965 0 81.2013 3.60201 81.2013 8.10117C81.2013 12.6003 78.9918 16.2023 74.5462 16.2023C70.1006 16.2023 67.918 12.6003 67.918 8.10117ZM75.3497 6.2533C74.8542 6.86926 74.2249 6.86926 73.7562 6.2533C74.2651 7.04333 74.2517 9.14562 73.7562 9.94904C74.2517 9.35986 74.8542 9.35986 75.3764 9.94904C74.881 9.11884 74.881 7.04333 75.3631 6.2533H75.3497Z" fill="#242427"/>
<path d="M82.1797 8.10117C82.1797 3.58862 84.3891 0 88.8079 0C93.2268 0 95.4629 3.60201 95.4629 8.10117C95.4629 12.6003 93.2535 16.2023 88.8079 16.2023C84.3623 16.2023 82.1797 12.6003 82.1797 8.10117ZM89.6247 6.2533C89.1293 6.86926 88.4999 6.86926 88.0313 6.2533C88.5401 7.04333 88.5267 9.14562 88.0313 9.94904C88.5267 9.35986 89.1293 9.35986 89.6515 9.94904C89.1561 9.11884 89.1561 7.04333 89.6381 6.2533H89.6247Z" fill="#242427"/>
<path d="M185.059 14.0454C184.965 15.3041 183.894 16.0941 182.461 16.0941C181.028 16.0941 179.984 15.2237 179.89 13.9651C179.609 10.5773 179.609 6.15847 179.836 3.11886C179.97 1.15048 181.591 0.440786 183.023 0.280102C184.871 0.0658563 187.348 0.0256852 189.183 0.320273C191.459 0.668423 193.039 2.16814 193.039 5.5559C193.039 9.11774 191.486 11.0861 189.183 11.3405C187.844 11.4744 185.916 11.5548 185.072 11.2602C185.152 12.0101 185.152 13.2018 185.072 14.032L185.059 14.0454ZM185.42 4.1767C186.224 5.22115 186.264 6.18525 185.434 7.2297C186.13 6.42628 186.907 6.42628 187.576 7.2297C186.773 6.18525 186.773 5.22115 187.576 4.1767C186.907 4.98012 186.076 4.98012 185.407 4.1767H185.42Z" fill="#242427"/>
<path d="M205.584 12.9892C205.089 14.0739 204.54 15.0915 203.161 15.1183C201.781 15.1049 201.232 14.0739 200.737 12.9892L198.514 8.12853C198.728 8.95873 199.157 10.6727 199.652 11.5565C199.639 12.1456 199.572 13.4043 199.519 14.0605C199.398 15.3192 198.354 16.1092 196.934 16.1092C195.515 16.1092 194.417 15.2388 194.336 13.9801C194.122 10.0835 194.122 6.14676 194.336 2.25016C194.417 0.991467 195.689 0.121094 197.135 0.121094C199.318 0.121094 200.148 0.924515 200.643 2.16982L203.161 8.53024L205.678 2.16982C206.174 0.924515 207.004 0.121094 209.186 0.121094C210.619 0.121094 211.905 0.991467 211.985 2.25016C212.199 6.14676 212.199 10.0835 211.985 13.9801C211.905 15.2388 211.021 16.1092 209.588 16.1092C208.155 16.1092 206.937 15.3192 206.816 14.0605C206.763 13.4177 206.696 12.159 206.682 11.5565C207.178 10.6727 207.606 8.95873 207.821 8.12853L205.598 12.9892H205.584Z" fill="#242427"/>
<path d="M220.234 15.9613C218.855 15.9613 218.012 15.0106 218.012 13.5377V13.4038C218.012 12.2656 218.547 11.422 219.404 10.6319C221.038 9.19918 223.18 7.69946 224.506 6.06583C224.975 5.47666 224.747 4.82053 224.078 4.82053C223.288 4.82053 222.993 5.10173 222.739 5.65073C222.243 6.77552 220.355 6.98977 219.337 6.45415C218.159 5.8382 217.69 4.49916 218.28 3.22708C219.324 0.910545 221.748 0 224.827 0C227.907 0 230.411 2.02194 230.411 5.02139C230.411 7.71285 227.505 10.3507 224.171 12.4396C225.082 12.1049 225.792 11.7567 226.421 11.3015H228.603C230.157 11.3015 230.773 12.3459 230.773 13.618C230.773 14.8901 230.157 15.9613 228.603 15.9613H220.234Z" fill="#242427"/>
<path d="M237.601 9.7214C236.891 9.7214 236.436 9.05189 236.436 7.9137C236.436 6.85587 236.824 6.32025 237.454 6.32025H237.869C238.512 6.32025 238.739 6.02566 238.739 5.1419C238.739 4.56611 238.378 4.05728 238.056 4.05728C237.601 4.05728 237.333 4.21796 237.226 4.7268C237.106 5.31597 236.302 5.70429 234.575 5.74447C232.727 5.78464 231.736 4.95443 231.736 3.69574C231.736 1.44616 234.039 0 238.11 0C242.582 0 244.47 1.9416 244.47 4.83392C244.47 6.70857 243.854 7.59234 243.091 8.11456C243.854 8.61 244.658 9.70801 244.658 11.355C244.658 14.4214 241.859 16.1889 238.083 16.1889C233.718 16.1889 231.723 14.7964 231.723 12.4932C231.723 11.3149 232.606 10.6052 234.615 10.4713C236.249 10.3508 237.119 10.9265 237.213 11.4755C237.306 12.0245 237.628 12.1451 238.003 12.1451C238.431 12.1451 238.726 11.7701 238.726 10.9265C238.726 10.0829 238.431 9.70801 237.896 9.70801H237.574L237.601 9.7214Z" fill="#242427"/>
<path d="M248.245 6.45589C246.852 6.45589 245.848 5.57213 245.848 4.15275C245.848 2.73337 246.852 1.84961 248.245 1.84961C249.637 1.84961 250.641 2.73337 250.641 4.15275C250.641 5.57213 249.637 6.45589 248.245 6.45589ZM248.245 14.4767C246.852 14.4767 245.848 13.593 245.848 12.1736C245.848 10.7542 246.852 9.87044 248.245 9.87044C249.637 9.87044 250.641 10.7542 250.641 12.1736C250.641 13.593 249.637 14.4767 248.245 14.4767Z" fill="#242427"/>
<path d="M251.824 8.10117C251.824 3.58862 254.034 0 258.452 0C262.871 0 265.107 3.60201 265.107 8.10117C265.107 12.6003 262.898 16.2023 258.452 16.2023C254.007 16.2023 251.824 12.6003 251.824 8.10117ZM259.269 6.2533C258.774 6.86926 258.144 6.86926 257.676 6.2533C258.185 7.04333 258.171 9.14562 257.676 9.94904C258.171 9.35986 258.774 9.35986 259.296 9.94904C258.801 9.11884 258.801 7.04333 259.283 6.2533H259.269Z" fill="#242427"/>
<path d="M266.082 8.10117C266.082 3.58862 268.291 0 272.71 0C277.129 0 279.365 3.60201 279.365 8.10117C279.365 12.6003 277.156 16.2023 272.71 16.2023C268.265 16.2023 266.082 12.6003 266.082 8.10117ZM273.527 6.2533C273.032 6.86926 272.402 6.86926 271.934 6.2533C272.442 7.04333 272.429 9.14562 271.934 9.94904C272.429 9.35986 273.032 9.35986 273.554 9.94904C273.058 9.11884 273.058 7.04333 273.54 6.2533H273.527Z" fill="#242427"/>
<path d="M125.685 315.864C161.515 315.864 190.561 308.43 190.561 299.26C190.561 290.09 161.515 282.656 125.685 282.656C89.8547 282.656 60.8086 290.09 60.8086 299.26C60.8086 308.43 89.8547 315.864 125.685 315.864Z" fill="white"/>
<path fill-rule="evenodd" clip-rule="evenodd" d="M104.699 267.991C109.881 274.311 121.812 278.69 128.32 274.111C137.358 267.737 138.416 255.833 135.216 246.018L129.418 247.116C129.418 247.116 131.386 266.92 121.022 266.746C114.635 266.639 109.519 262.983 104.739 259.917C102.342 258.377 99.1152 258.511 96.5978 259.823C85.4169 265.675 81.1855 294.089 97.3075 296.312C109.667 298.026 111.488 281.301 109.078 272.838" fill="white"/>
<path d="M104.699 267.991C109.881 274.311 121.812 278.69 128.32 274.111C137.358 267.737 138.416 255.833 135.216 246.018L129.418 247.116C129.418 247.116 131.386 266.92 121.022 266.746C114.635 266.639 109.519 262.983 104.739 259.917C102.342 258.377 99.1152 258.511 96.5978 259.823C85.4169 265.675 81.1855 294.089 97.3075 296.312C109.667 298.026 111.488 281.301 109.078 272.838" stroke="#242427" stroke-width="2" stroke-miterlimit="10" stroke-linecap="round"/>
<path d="M147.632 297.892C152.466 303.502 164.236 301.28 173.93 292.924C183.625 284.568 187.575 273.254 182.741 267.656C177.907 262.059 166.137 264.269 156.443 272.624C153.872 274.834 151.716 277.257 150.015 279.721C149.614 280.176 149.198 280.632 148.797 281.114L113.46 252.057C111.21 254.333 111.223 258.002 113.46 260.265L147.618 297.892H147.632Z" fill="white" stroke="#242427" stroke-width="2" stroke-linecap="round" stroke-linejoin="round"/>
<path d="M153.855 290.233C155.744 281.569 166.509 269.384 176.324 271.125" stroke="#242427" stroke-width="2" stroke-linecap="round" stroke-linejoin="round"/>
<path fill-rule="evenodd" clip-rule="evenodd" d="M147.016 285.733C147.016 285.733 147.511 283.229 150.015 279.721L147.016 285.733Z" fill="white"/>
<path d="M147.016 285.733C147.016 285.733 147.511 283.229 150.015 279.721" stroke="#242427" stroke-width="2" stroke-linecap="round" stroke-linejoin="round"/>
<path fill-rule="evenodd" clip-rule="evenodd" d="M193.96 203.598C195.339 192.792 184.091 182.214 168.036 178.264C176.365 168.422 178.588 156.973 172.482 149.689C166.59 142.659 154.659 141.521 142.648 145.913C138.939 137.343 132.003 131.17 123.406 130.058C113.202 128.746 103.494 134.892 97.8839 144.962C88.8856 141.748 79.4856 142.244 72.5896 147.145C64.1804 153.13 61.73 164.057 65.1445 175.01C56.5747 178.933 50.5088 185.883 49.4242 194.413C47.8977 206.504 56.7756 218.047 70.4203 223.336C66.189 230.714 65.5596 237.971 69.5767 242.779C74.5713 248.751 85.3506 249.3 96.6922 245.028C100.602 255.339 109.373 263.078 120.366 264.511C133.596 266.225 145.982 258.311 151.486 245.858C159.372 249.755 167.045 250.411 172.053 246.849C178.614 242.163 178.775 231.584 173.352 220.524C184.627 218.18 192.848 211.9 193.906 203.585H193.946L193.96 203.598Z" fill="#242427" stroke="#F5F378" stroke-width="2" stroke-miterlimit="10" stroke-linecap="round"/>
<path d="M115.749 188.496C120.742 187.896 124.073 181.446 123.189 174.089C122.305 166.732 117.541 161.254 112.548 161.853C107.555 162.453 104.224 168.904 105.108 176.261C105.992 183.618 110.756 189.096 115.749 188.496Z" fill="white"/>
<path d="M133.827 186.33C138.82 185.73 142.151 179.28 141.267 171.923C140.383 164.566 135.619 159.088 130.626 159.687C125.633 160.287 122.302 166.738 123.186 174.095C124.07 181.452 128.834 186.93 133.827 186.33Z" fill="white"/>
<path d="M116.966 183.365C120.38 182.955 122.687 178.79 122.119 174.061C121.551 169.332 118.323 165.832 114.909 166.242C111.494 166.652 109.187 170.818 109.755 175.546C110.323 180.275 113.551 183.776 116.966 183.365Z" fill="#242427"/>
<path d="M133.975 181.483C137.125 181.105 139.218 176.965 138.65 172.236C138.082 167.508 135.068 163.981 131.918 164.36C128.768 164.738 126.675 168.878 127.243 173.607C127.811 178.335 130.825 181.862 133.975 181.483Z" fill="#242427"/>
<path d="M119.111 171.279C118.631 169.278 117.068 167.939 115.621 168.286C114.173 168.634 113.389 170.537 113.87 172.538C114.351 174.538 115.914 175.878 117.361 175.531C118.808 175.183 119.592 173.279 119.111 171.279Z" fill="white"/>
<path d="M116.502 178.065C116.276 177.124 115.544 176.493 114.867 176.656C114.189 176.819 113.824 177.713 114.05 178.654C114.276 179.595 115.008 180.226 115.685 180.063C116.362 179.9 116.728 179.006 116.502 178.065Z" fill="white"/>
<path d="M135.899 169.623C135.418 167.622 133.855 166.282 132.408 166.63C130.96 166.978 130.177 168.881 130.657 170.882C131.138 172.882 132.701 174.222 134.148 173.874C135.595 173.527 136.379 171.623 135.899 169.623Z" fill="white"/>
<path d="M133.289 176.407C133.063 175.466 132.331 174.835 131.654 174.998C130.977 175.16 130.611 176.055 130.837 176.996C131.063 177.937 131.795 178.567 132.472 178.405C133.149 178.242 133.515 177.347 133.289 176.407Z" fill="white"/>
<path d="M126.549 205.431C134.543 204.467 140.461 198.937 139.752 193.059C139.042 187.18 131.998 183.203 123.991 184.167C115.997 185.132 110.078 190.662 110.788 196.54C111.498 202.419 118.541 206.395 126.549 205.431Z" fill="white" stroke="#242427" stroke-width="2" stroke-miterlimit="10"/>
<path d="M110.82 196.77C115.266 198.98 118.895 192.499 124.786 191.789C130.678 191.079 134.012 196.73 140.587 193.182" stroke="#242427" stroke-width="2"/>
<path d="M125.078 198.797C122.554 198.908 120.783 197.254 119.524 195.064L119.172 194.453L130.862 193.047L128.591 196.73C127.895 197.859 126.403 198.738 125.078 198.797Z" fill="#242427" stroke="#242427" stroke-width="2" stroke-linecap="round" stroke-linejoin="round"/>
<path d="M229.555 218.331C229.555 218.331 179.984 211.395 174.454 212.238C161.8 214.153 154.007 211.314 152.159 203.414C150.472 196.223 155.078 188.229 164.572 184.212C169.714 182.03 208.747 146.84 208.747 146.84" fill="white"/>
<path d="M229.555 218.331C229.555 218.331 179.984 211.395 174.454 212.238C161.8 214.153 154.007 211.314 152.159 203.414C150.472 196.223 155.078 188.229 164.572 184.212C169.714 182.03 208.747 146.84 208.747 146.84" stroke="#242427" stroke-width="2" stroke-miterlimit="10" stroke-linecap="round"/>
<path d="M235.369 182.551C239.574 200.628 238.101 215.96 231.673 217.728C224.764 219.629 214.721 205.1 209.271 185.269C203.808 165.438 205 147.83 211.909 145.915C216.85 144.549 223.371 151.579 228.701 162.934" fill="#D9D9D9"/>
<path d="M235.369 182.551C239.574 200.628 238.101 215.96 231.673 217.728C224.764 219.629 214.721 205.1 209.271 185.269C203.808 165.438 205 147.83 211.909 145.915C216.85 144.549 223.371 151.579 228.701 162.934" stroke="#242427" stroke-width="2" stroke-linecap="round" stroke-linejoin="round"/>
<path d="M231.452 184.212C234.545 198.018 234.452 209.092 230.943 210.056C226.953 211.154 220.057 198.754 215.545 182.365C211.032 165.975 210.617 151.794 214.607 150.696C217.58 149.88 222.173 156.548 226.176 166.778" stroke="#242427" stroke-width="2" stroke-linecap="round" stroke-linejoin="round"/>
<path d="M229.953 180.06C229.672 173.82 224.383 168.986 218.143 169.268C216.242 169.348 214.501 169.95 212.961 170.848C213.577 174.45 214.434 178.346 215.545 182.377C216.469 185.738 217.5 188.911 218.572 191.844C218.772 191.844 218.96 191.884 219.161 191.87C225.401 191.589 230.235 186.3 229.953 180.06Z" fill="#242427"/>
<path d="M170.021 180.381C170.021 180.381 166.888 199.931 178.886 212.29" stroke="#242427" stroke-width="2" stroke-miterlimit="10" stroke-linecap="round"/>
<path d="M170.422 212.705C170.422 212.705 172.605 228.747 172.605 229.925C172.605 231.103 172.43 233.969 182.205 232.791C191.967 231.612 191.445 228.747 190.695 226.725C189.945 224.703 183.719 222.092 185.566 212.705" fill="white"/>
<path d="M170.422 212.705C170.422 212.705 172.605 228.747 172.605 229.925C172.605 231.103 172.43 233.969 182.205 232.791C191.967 231.612 191.445 228.747 190.695 226.725C189.945 224.703 183.719 222.092 185.566 212.705" stroke="#242427" stroke-width="2" stroke-miterlimit="10" stroke-linecap="round"/>
<path d="M232.5 148L257.5 116.5" stroke="#242427" stroke-width="2" stroke-linecap="round" stroke-linejoin="round"/>
<path d="M245 201.509L285.081 204.782" stroke="#242427" stroke-width="2" stroke-linecap="round" stroke-linejoin="round"/>
</svg>
