<svg width="375" height="454" viewBox="0 0 375 454" fill="none" xmlns="http://www.w3.org/2000/svg">
<g clip-path="url(#clip0_2655_68703)">
<rect width="375" height="454" fill="#242427"/>
<circle cx="187.943" cy="241.576" r="153.943" fill="#353538" stroke="#3F3F43" stroke-width="10"/>
<rect y="412.552" width="375" height="83.0131" fill="#242427"/>
<rect width="375" height="77.5517" transform="matrix(1 0 0 -1 0 412.552)" fill="url(#paint0_linear_2655_68703)"/>
<rect y="445.935" width="375" height="70.0646" fill="#242427"/>
<path fill-rule="evenodd" clip-rule="evenodd" d="M46.4263 65.175C24.7848 81.841 20.5506 112.867 37.029 134.735C38.2296 136.328 39.5073 137.829 40.8529 139.236L120.006 79.59C119.06 77.9701 118.013 76.387 116.864 74.8486L116.601 74.4987C100.089 52.782 69.2047 48.3673 47.2777 64.5334L46.4263 65.175Z" fill="#353538"/>
<path fill-rule="evenodd" clip-rule="evenodd" d="M327.742 64.8239C305.732 48.2384 274.444 52.6356 257.859 74.6453C256.659 76.2375 255.569 77.8784 254.587 79.5587L333.742 139.206C335.011 137.878 336.22 136.467 337.36 134.973L337.764 134.439C354.112 112.444 349.662 81.3422 327.742 64.8239Z" fill="#353538"/>
<path d="M345.433 328.219L278.551 315.918L278.705 315.08C279.122 312.8 278.618 310.448 277.302 308.54C275.987 306.632 273.969 305.324 271.69 304.902L252.191 301.316C249.912 300.899 247.56 301.404 245.652 302.719C243.744 304.034 242.435 306.053 242.014 308.331L241.86 309.17L241.021 309.016C238.742 308.599 236.39 309.103 234.482 310.418C232.573 311.734 231.265 313.752 230.844 316.031L218.582 382.704C218.165 384.983 218.669 387.335 219.984 389.243C221.3 391.151 223.318 392.46 225.597 392.881L330.009 412.084C332.289 412.501 334.641 411.997 336.549 410.682C338.457 409.366 339.765 407.348 340.186 405.069L352.448 338.396C352.866 336.117 352.361 333.765 351.046 331.857C349.731 329.948 347.712 328.64 345.433 328.219Z" fill="#3FD960"/>
<path d="M322.321 347.812L321.692 347.696C319.26 347.249 316.927 348.858 316.479 351.29L316.364 351.919C315.916 354.35 317.525 356.684 319.957 357.131L320.586 357.247C323.017 357.694 325.351 356.086 325.798 353.654L325.914 353.025C326.361 350.593 324.753 348.259 322.321 347.812Z" fill="#242427"/>
<path d="M344.662 332.407L275.609 319.707C275.344 319.658 275.09 319.557 274.863 319.41C274.637 319.264 274.441 319.074 274.288 318.851C274.134 318.629 274.026 318.378 273.97 318.114C273.913 317.85 273.909 317.577 273.958 317.311L274.512 314.303C274.618 313.725 274.609 313.131 274.486 312.556C274.363 311.981 274.128 311.436 273.795 310.952C273.461 310.468 273.035 310.055 272.542 309.735C272.048 309.416 271.497 309.196 270.918 309.09L251.42 305.504C250.252 305.289 249.047 305.547 248.069 306.221C247.092 306.895 246.422 307.929 246.207 309.097L245.654 312.106C245.555 312.642 245.247 313.118 244.798 313.427C244.349 313.737 243.795 313.856 243.258 313.757L240.25 313.204C239.672 313.097 239.078 313.106 238.503 313.229C237.928 313.352 237.383 313.587 236.899 313.921C236.415 314.254 236.002 314.68 235.682 315.173C235.363 315.667 235.143 316.219 235.037 316.797L222.775 383.47C222.56 384.637 222.818 385.842 223.492 386.82C224.166 387.798 225.2 388.467 226.368 388.682L330.78 407.885C331.948 408.1 333.153 407.842 334.131 407.168C335.108 406.495 335.778 405.46 335.993 404.292L348.255 337.619C348.361 337.041 348.353 336.448 348.23 335.873C348.107 335.298 347.872 334.753 347.538 334.269C347.204 333.785 346.779 333.371 346.285 333.052C345.792 332.732 345.24 332.513 344.662 332.407ZM304.097 354.208C304.633 354.307 305.109 354.615 305.418 355.064C305.728 355.513 305.846 356.067 305.748 356.603L303.021 371.427C302.923 371.963 302.615 372.439 302.166 372.748C301.717 373.058 301.163 373.176 300.626 373.078L297.617 372.524C297.039 372.418 296.446 372.427 295.871 372.55C295.296 372.673 294.751 372.908 294.267 373.241C293.783 373.575 293.369 374.001 293.05 374.494C292.73 374.988 292.511 375.539 292.405 376.117L291.851 379.126C291.753 379.663 291.445 380.138 290.996 380.448C290.546 380.757 289.993 380.876 289.456 380.777L274.633 378.051C274.096 377.952 273.621 377.645 273.311 377.195C273.002 376.746 272.883 376.192 272.982 375.656L273.535 372.647C273.641 372.069 273.633 371.475 273.51 370.9C273.387 370.326 273.152 369.781 272.818 369.297C272.484 368.812 272.059 368.399 271.565 368.079C271.072 367.76 270.52 367.541 269.942 367.434L266.933 366.881C266.397 366.782 265.921 366.474 265.612 366.025C265.302 365.576 265.183 365.022 265.282 364.486L268.008 349.662C268.107 349.126 268.415 348.65 268.864 348.341C269.313 348.031 269.867 347.913 270.404 348.011L273.412 348.565C273.991 348.671 274.584 348.662 275.159 348.539C275.734 348.416 276.279 348.181 276.763 347.848C277.247 347.514 277.661 347.088 277.98 346.595C278.3 346.101 278.519 345.55 278.625 344.971L279.178 341.963C279.277 341.426 279.585 340.951 280.034 340.641C280.483 340.332 281.037 340.213 281.574 340.312L296.397 343.038C296.934 343.137 297.409 343.444 297.719 343.894C298.028 344.343 298.147 344.897 298.048 345.433L297.495 348.442C297.388 349.02 297.397 349.614 297.52 350.189C297.643 350.763 297.878 351.308 298.212 351.792C298.545 352.276 298.971 352.69 299.465 353.01C299.958 353.329 300.51 353.548 301.088 353.655L304.097 354.208ZM265.842 386.188L235.158 380.545C234.622 380.446 234.146 380.138 233.837 379.689C233.527 379.24 233.408 378.686 233.507 378.15L243.174 325.587C243.273 325.051 243.581 324.575 244.03 324.265C244.479 323.956 245.033 323.837 245.57 323.936L279.263 330.133C279.799 330.231 280.275 330.539 280.584 330.988C280.894 331.438 281.012 331.991 280.914 332.528L279.923 337.916C279.824 338.453 279.516 338.928 279.067 339.238C278.618 339.548 278.064 339.666 277.527 339.567L274.519 339.014C273.351 338.799 272.146 339.057 271.168 339.731C270.191 340.405 269.521 341.44 269.306 342.607L268.753 345.616C268.704 345.882 268.603 346.135 268.456 346.362C268.309 346.589 268.119 346.784 267.897 346.938C267.674 347.091 267.424 347.199 267.16 347.255C266.896 347.312 266.623 347.316 266.357 347.267L263.349 346.714C262.181 346.499 260.976 346.757 259.998 347.431C259.02 348.105 258.351 349.139 258.136 350.307L256.285 360.371C256.07 361.538 256.328 362.744 257.002 363.721C257.676 364.699 258.71 365.369 259.878 365.583L262.887 366.137C263.423 366.235 263.899 366.543 264.208 366.992C264.518 367.442 264.637 367.996 264.538 368.532L263.985 371.541C263.77 372.708 264.028 373.914 264.702 374.891C265.375 375.869 266.41 376.539 267.578 376.753L270.586 377.307C270.852 377.356 271.106 377.456 271.332 377.603C271.559 377.75 271.755 377.94 271.908 378.163C272.061 378.385 272.169 378.635 272.226 378.9C272.282 379.164 272.286 379.436 272.238 379.702L271.247 385.091C271.198 385.356 271.097 385.61 270.95 385.836C270.803 386.063 270.613 386.259 270.391 386.412C270.168 386.565 269.918 386.673 269.654 386.73C269.39 386.787 269.117 386.791 268.851 386.742L265.842 386.188ZM322.451 396.6L291.767 390.956C291.231 390.858 290.755 390.55 290.446 390.101C290.136 389.651 290.017 389.098 290.116 388.561L291.107 383.173C291.206 382.636 291.514 382.161 291.963 381.851C292.412 381.541 292.966 381.423 293.503 381.521L296.511 382.075C297.679 382.29 298.884 382.032 299.862 381.358C300.839 380.684 301.509 379.649 301.724 378.482L302.277 375.473C302.326 375.207 302.427 374.954 302.574 374.727C302.72 374.5 302.911 374.305 303.133 374.151C303.355 373.998 303.606 373.89 303.87 373.833C304.134 373.777 304.407 373.773 304.673 373.822L307.681 374.375C308.849 374.59 310.054 374.332 311.032 373.658C312.009 372.984 312.679 371.95 312.894 370.782L314.745 360.718C314.96 359.551 314.702 358.345 314.028 357.368C313.354 356.39 312.319 355.72 311.152 355.506L308.143 354.952C307.877 354.903 307.624 354.803 307.397 354.656C307.17 354.509 306.975 354.319 306.821 354.096C306.668 353.874 306.56 353.624 306.504 353.359C306.447 353.095 306.443 352.823 306.492 352.557L307.045 349.548C307.26 348.38 307.002 347.175 306.328 346.198C305.654 345.22 304.62 344.55 303.452 344.335L300.443 343.782C299.907 343.683 299.431 343.376 299.122 342.926C298.812 342.477 298.694 341.923 298.792 341.387L299.783 335.998C299.882 335.462 300.19 334.986 300.639 334.677C301.088 334.367 301.642 334.249 302.179 334.347L335.871 340.544C336.408 340.643 336.884 340.951 337.193 341.4C337.503 341.849 337.621 342.403 337.523 342.939L327.856 395.502C327.757 396.038 327.449 396.514 327 396.823C326.551 397.133 325.997 397.252 325.46 397.153L322.451 396.6Z" fill="#242427"/>
<rect x="183.684" y="18.4766" width="8.59285" height="33.5121" fill="#353538"/>
<rect x="146.734" y="28.7871" width="8.59285" height="33.5121" transform="rotate(-20 146.734 28.7871)" fill="#353538"/>
<rect width="8.59285" height="33.5121" transform="matrix(0.939693 0.34202 0.34202 -0.939693 209.461 58.0039)" fill="#353538"/>
<g opacity="0.6">
<path d="M211.486 262.299C199.226 262.299 192.122 251.986 192.16 233.882C192.122 215.93 199.302 205.465 211.486 205.465C223.632 205.465 230.813 215.93 230.813 233.882C230.813 251.986 223.747 262.299 211.486 262.299ZM198.806 233.882C198.844 248.205 203.465 256.188 211.486 256.188C219.469 256.188 224.129 248.205 224.091 233.882C224.129 219.559 219.431 211.462 211.486 211.423C203.542 211.462 198.844 219.559 198.806 233.882ZM257.858 262.299C245.597 262.299 238.493 251.986 238.531 233.882C238.493 215.93 245.674 205.465 257.858 205.465C270.004 205.465 277.185 215.93 277.185 233.882C277.185 251.986 270.119 262.299 257.858 262.299ZM245.177 233.882C245.216 248.205 249.837 256.188 257.858 256.188C265.841 256.188 270.501 248.205 270.462 233.882C270.501 219.559 265.803 211.462 257.858 211.423C249.914 211.462 245.216 219.559 245.177 233.882Z" fill="#B2B2B4"/>
<path d="M117.767 206.229V261.535H110.816V213.41H110.51L97.0655 222.347V215.396L110.816 206.229H117.767ZM132.284 261.535L132.208 256.493L151.076 236.632C157.607 229.681 160.739 225.937 160.778 220.819C160.739 215.128 156.003 211.462 149.777 211.423C143.17 211.462 139.045 215.625 139.007 221.812H132.513C132.437 212.035 140 205.465 150.007 205.465C160.052 205.465 167.156 212.225 167.194 220.819C167.156 227.007 164.292 231.819 154.514 241.903L141.833 254.966V255.424H168.187V261.535H132.284Z" fill="#B2B2B4"/>
</g>
<rect x="177.652" y="213.273" width="7.3416" height="7.3416" rx="1.63147" fill="#6D6D70"/>
<rect x="177.652" y="245.088" width="7.3416" height="7.3416" rx="1.63147" fill="#6D6D70"/>
</g>
<defs>
<linearGradient id="paint0_linear_2655_68703" x1="187.5" y1="0" x2="187.5" y2="77.5517" gradientUnits="userSpaceOnUse">
<stop stop-color="#242427"/>
<stop offset="1" stop-color="#242427" stop-opacity="0"/>
</linearGradient>
<clipPath id="clip0_2655_68703">
<rect width="375" height="454" fill="white"/>
</clipPath>
</defs>
</svg>
