<svg width="375" height="454" viewBox="0 0 375 454" fill="none" xmlns="http://www.w3.org/2000/svg">
<g clip-path="url(#clip0_2655_68704)">
<rect width="375" height="454" fill="#242427"/>
<rect x="32.9531" y="39" width="310.045" height="510.773" rx="46.8182" fill="#353538"/>
<rect x="32.9531" y="39" width="310.045" height="510.773" rx="46.8182" stroke="#3F3F43" stroke-width="10"/>
<path d="M353.189 355.557L352.492 355.481L352.568 354.784C352.772 352.889 352.216 350.991 351.023 349.505C349.829 348.019 348.095 347.068 346.2 346.859L345.503 346.783L345.579 346.086C345.783 344.191 345.227 342.293 344.033 340.807C342.84 339.322 341.105 338.37 339.211 338.161L338.514 338.085L338.59 337.388C338.794 335.493 338.238 333.595 337.044 332.109C335.851 330.624 334.116 329.672 332.222 329.463L292.482 325.135C290.587 324.93 288.688 325.485 287.202 326.679C285.716 327.873 284.765 329.608 284.557 331.502L284.481 332.2L283.784 332.124C281.889 331.919 279.99 332.475 278.504 333.668C277.018 334.862 276.067 336.597 275.859 338.492L275.783 339.189L275.086 339.113C273.191 338.908 271.292 339.464 269.806 340.658C268.32 341.851 267.369 343.586 267.161 345.481L267.085 346.178L266.388 346.102C264.493 345.897 262.594 346.453 261.108 347.647C259.623 348.841 258.671 350.575 258.463 352.47L254.134 392.21C253.93 394.105 254.485 396.004 255.679 397.49C256.873 398.975 258.608 399.927 260.502 400.135L261.199 400.211L261.123 400.908C260.919 402.803 261.474 404.702 262.668 406.188C263.862 407.673 265.597 408.625 267.491 408.833L268.188 408.909L268.112 409.606C267.908 411.501 268.463 413.4 269.657 414.886C270.851 416.371 272.586 417.323 274.48 417.531L275.178 417.607L275.102 418.304C274.897 420.199 275.453 422.098 276.646 423.583C277.84 425.069 279.575 426.02 281.469 426.229L321.21 430.557C323.105 430.762 325.003 430.206 326.489 429.012C327.974 427.818 328.926 426.084 329.135 424.19L329.211 423.492L329.908 423.568C331.803 423.772 333.701 423.217 335.187 422.023C336.672 420.829 337.624 419.095 337.833 417.201L337.908 416.503L338.606 416.579C340.5 416.783 342.399 416.228 343.885 415.034C345.37 413.84 346.322 412.106 346.53 410.211L346.606 409.514L347.304 409.59C349.198 409.794 351.097 409.238 352.582 408.045C354.068 406.851 355.02 405.117 355.228 403.222L359.557 363.482C359.761 361.587 359.205 359.689 358.012 358.203C356.818 356.717 355.084 355.766 353.189 355.557Z" fill="#3FD960"/>
<path d="M352.809 359.043L350.308 358.77C349.861 358.722 349.453 358.498 349.172 358.148C348.891 357.798 348.76 357.351 348.809 356.905L349.081 354.404C349.187 353.433 348.903 352.46 348.291 351.699C347.679 350.938 346.79 350.45 345.82 350.345L343.318 350.072C342.872 350.024 342.464 349.8 342.183 349.45C341.902 349.1 341.771 348.653 341.82 348.207L342.092 345.706C342.144 345.225 342.102 344.739 341.966 344.275C341.83 343.811 341.605 343.378 341.302 343.001C340.999 342.624 340.625 342.31 340.201 342.078C339.777 341.846 339.311 341.699 338.831 341.647L336.329 341.374C335.883 341.326 335.475 341.102 335.194 340.752C334.913 340.402 334.782 339.955 334.831 339.509L335.103 337.008C335.209 336.037 334.925 335.064 334.313 334.303C333.701 333.542 332.812 333.055 331.841 332.949L292.101 328.62C291.13 328.514 290.157 328.799 289.396 329.41C288.635 330.022 288.148 330.911 288.042 331.882L287.769 334.383C287.721 334.829 287.497 335.238 287.147 335.519C286.798 335.8 286.35 335.93 285.904 335.882L283.403 335.609C282.922 335.557 282.436 335.6 281.972 335.735C281.508 335.871 281.075 336.096 280.698 336.399C280.321 336.702 280.008 337.076 279.775 337.5C279.543 337.924 279.396 338.39 279.344 338.871L279.072 341.372C279.023 341.818 278.799 342.227 278.449 342.508C278.1 342.789 277.652 342.919 277.206 342.871L274.705 342.598C273.734 342.493 272.761 342.777 272 343.388C271.239 344 270.752 344.889 270.646 345.86L270.374 348.361C270.325 348.807 270.101 349.216 269.752 349.497C269.402 349.778 268.955 349.908 268.509 349.86L266.007 349.587C265.527 349.535 265.04 349.578 264.576 349.714C264.112 349.849 263.679 350.075 263.302 350.378C262.925 350.68 262.612 351.055 262.38 351.479C262.147 351.903 262.001 352.368 261.948 352.849L257.619 392.589C257.567 393.07 257.61 393.556 257.746 394.021C257.881 394.485 258.107 394.918 258.41 395.294C258.712 395.671 259.087 395.985 259.511 396.217C259.935 396.45 260.4 396.596 260.881 396.648L263.382 396.921C263.828 396.969 264.237 397.193 264.518 397.543C264.799 397.893 264.93 398.34 264.881 398.786L264.609 401.287C264.503 402.258 264.787 403.231 265.399 403.992C266.01 404.754 266.899 405.241 267.87 405.346L270.371 405.619C270.817 405.667 271.226 405.891 271.507 406.241C271.788 406.591 271.919 407.038 271.87 407.484L271.598 409.985C271.492 410.956 271.776 411.929 272.388 412.69C272.999 413.451 273.888 413.938 274.859 414.044L277.36 414.317C277.807 414.365 278.215 414.589 278.496 414.939C278.777 415.289 278.908 415.736 278.859 416.182L278.587 418.683C278.534 419.164 278.577 419.65 278.713 420.114C278.848 420.578 279.074 421.011 279.377 421.388C279.68 421.765 280.054 422.079 280.478 422.311C280.902 422.543 281.368 422.69 281.848 422.742L321.589 427.071C322.069 427.123 322.556 427.081 323.02 426.945C323.484 426.809 323.917 426.584 324.294 426.281C324.671 425.978 324.984 425.604 325.217 425.18C325.449 424.756 325.595 424.29 325.648 423.809L325.92 421.308C325.969 420.862 326.193 420.454 326.542 420.173C326.892 419.891 327.339 419.761 327.785 419.809L330.287 420.082C331.257 420.188 332.23 419.903 332.992 419.292C333.753 418.68 334.24 417.791 334.346 416.82L334.618 414.319C334.667 413.873 334.891 413.464 335.24 413.183C335.59 412.902 336.037 412.772 336.483 412.82L338.985 413.093C339.955 413.198 340.928 412.914 341.69 412.303C342.451 411.691 342.938 410.802 343.044 409.831L343.316 407.33C343.365 406.884 343.588 406.475 343.938 406.194C344.288 405.913 344.735 405.783 345.181 405.831L347.682 406.104C348.653 406.209 349.626 405.925 350.387 405.314C351.149 404.702 351.636 403.813 351.741 402.842L356.07 363.102C356.176 362.131 355.892 361.158 355.28 360.397C354.669 359.635 353.78 359.148 352.809 359.043ZM339.316 405.192C338.345 405.087 337.372 405.371 336.611 405.982C335.85 406.594 335.363 407.483 335.257 408.454L334.985 410.955C334.936 411.401 334.712 411.81 334.362 412.091C334.013 412.372 333.565 412.502 333.119 412.454L330.618 412.181C330.137 412.129 329.651 412.172 329.187 412.307C328.723 412.443 328.29 412.669 327.913 412.972C327.536 413.274 327.223 413.649 326.99 414.073C326.758 414.497 326.612 414.962 326.559 415.443L326.287 417.944C326.238 418.39 326.014 418.799 325.665 419.08C325.315 419.361 324.868 419.492 324.422 419.443L280.724 414.683C280.278 414.635 279.87 414.411 279.589 414.061C279.308 413.711 279.177 413.264 279.226 412.818L279.498 410.317C279.55 409.836 279.508 409.35 279.372 408.886C279.237 408.422 279.011 407.989 278.708 407.612C278.405 407.235 278.031 406.921 277.607 406.689C277.183 406.457 276.717 406.31 276.237 406.258L273.735 405.985C273.289 405.937 272.881 405.713 272.6 405.363C272.319 405.013 272.188 404.566 272.237 404.12L272.509 401.619C272.615 400.648 272.331 399.675 271.719 398.914C271.107 398.153 270.218 397.666 269.247 397.56L266.746 397.287C266.3 397.239 265.892 397.015 265.611 396.665C265.329 396.315 265.199 395.868 265.247 395.422L270.007 351.725C270.056 351.279 270.28 350.871 270.63 350.589C270.979 350.308 271.426 350.178 271.873 350.226L274.374 350.499C275.345 350.605 276.318 350.32 277.079 349.709C277.84 349.097 278.327 348.208 278.433 347.237L278.705 344.736C278.754 344.29 278.978 343.881 279.327 343.6C279.677 343.319 280.124 343.189 280.57 343.237L283.072 343.51C283.552 343.562 284.039 343.519 284.503 343.384C284.967 343.248 285.4 343.022 285.777 342.72C286.154 342.417 286.467 342.043 286.699 341.618C286.932 341.194 287.078 340.729 287.131 340.248L287.403 337.747C287.452 337.301 287.675 336.892 288.025 336.611C288.375 336.33 288.822 336.199 289.268 336.248L332.965 341.008C333.411 341.057 333.82 341.28 334.101 341.63C334.382 341.98 334.513 342.427 334.464 342.873L334.192 345.374C334.086 346.345 334.37 347.318 334.982 348.079C335.593 348.841 336.482 349.328 337.453 349.433L339.954 349.706C340.401 349.754 340.809 349.978 341.09 350.328C341.371 350.678 341.502 351.125 341.453 351.571L341.181 354.072C341.075 355.043 341.359 356.016 341.971 356.777C342.583 357.538 343.472 358.026 344.442 358.131L346.944 358.404C347.39 358.452 347.798 358.676 348.079 359.026C348.36 359.376 348.491 359.823 348.442 360.269L343.682 403.966C343.634 404.412 343.41 404.821 343.06 405.102C342.71 405.383 342.263 405.513 341.817 405.465L339.316 405.192Z" fill="#242427"/>
<path d="M336.267 365.179L280.84 359.141C279.869 359.035 278.896 359.319 278.135 359.931C277.374 360.543 276.887 361.432 276.781 362.402L276.724 362.925C276.672 363.406 276.715 363.892 276.85 364.356C276.986 364.821 277.211 365.254 277.514 365.63C277.817 366.007 278.191 366.321 278.615 366.553C279.039 366.786 279.505 366.932 279.986 366.984L282.487 367.257C282.933 367.305 283.341 367.529 283.623 367.879C283.904 368.229 284.034 368.676 283.986 369.122L283.713 371.623C283.607 372.594 283.892 373.567 284.503 374.328C285.115 375.09 286.004 375.577 286.975 375.682L295.341 376.594C295.822 376.646 296.308 376.603 296.772 376.468C297.236 376.332 297.669 376.106 298.046 375.804C298.423 375.501 298.737 375.126 298.969 374.702C299.201 374.278 299.348 373.813 299.4 373.332L299.673 370.831C299.721 370.385 299.945 369.976 300.295 369.695C300.645 369.414 301.092 369.283 301.538 369.332L313.861 370.674C314.082 370.698 314.296 370.766 314.491 370.873C314.685 370.979 314.857 371.123 314.997 371.297C315.136 371.47 315.239 371.669 315.302 371.882C315.364 372.095 315.384 372.319 315.36 372.54L315.087 375.041C314.981 376.012 315.266 376.985 315.877 377.746C316.489 378.507 317.378 378.994 318.349 379.1L326.715 380.011C327.686 380.117 328.659 379.833 329.42 379.221C330.181 378.609 330.668 377.72 330.774 376.75L331.047 374.248C331.095 373.802 331.319 373.394 331.669 373.113C332.019 372.832 332.466 372.701 332.912 372.75L335.413 373.022C335.894 373.074 336.38 373.032 336.844 372.896C337.308 372.76 337.741 372.535 338.118 372.232C338.495 371.929 338.809 371.555 339.041 371.131C339.273 370.707 339.42 370.241 339.472 369.76L339.529 369.238C339.635 368.267 339.351 367.294 338.739 366.533C338.127 365.771 337.238 365.284 336.267 365.179Z" fill="#242427"/>
<path d="M318.018 386.999L317.496 386.942C316.525 386.837 315.552 387.121 314.79 387.732C314.029 388.344 313.542 389.233 313.437 390.204L313.164 392.705C313.115 393.151 312.892 393.56 312.542 393.841C312.192 394.122 311.745 394.252 311.299 394.204L293.111 392.223C292.63 392.17 292.144 392.213 291.68 392.349C291.215 392.484 290.783 392.71 290.406 393.013C290.029 393.316 289.715 393.69 289.483 394.114C289.251 394.538 289.104 395.004 289.052 395.484L288.995 396.007C288.889 396.978 289.173 397.951 289.785 398.712C290.396 399.473 291.285 399.96 292.256 400.066L308.466 401.832C309.437 401.938 310.41 401.653 311.171 401.042C311.932 400.43 312.419 399.541 312.525 398.57L312.798 396.069C312.846 395.623 313.07 395.215 313.42 394.933C313.77 394.652 314.217 394.522 314.663 394.57L317.164 394.843C318.135 394.949 319.108 394.664 319.869 394.053C320.63 393.441 321.117 392.552 321.223 391.581L321.28 391.058C321.332 390.578 321.29 390.091 321.154 389.627C321.018 389.163 320.793 388.73 320.49 388.353C320.187 387.976 319.813 387.663 319.389 387.431C318.965 387.198 318.499 387.052 318.018 386.999Z" fill="#242427"/>
<rect y="452.56" width="375" height="50.9085" fill="#242427"/>
<rect x="62" y="111.5" width="35" height="35" rx="8" fill="#515155"/>
<path d="M129.987 108.613V127H126.665V111.836H126.557L122.257 114.584V111.558L126.818 108.613H129.987ZM134.169 127L134.16 124.603L140.651 118.345C142.509 116.487 143.479 115.392 143.488 113.856C143.479 112.133 142.123 111.055 140.319 111.055C138.433 111.055 137.212 112.24 137.221 114.108H134.079C134.061 110.624 136.674 108.362 140.364 108.362C144.107 108.362 146.639 110.606 146.648 113.686C146.639 115.769 145.643 117.448 142.024 120.859L138.766 124.1V124.235H146.926V127H134.169ZM151.546 124.782C150.46 124.782 149.562 123.903 149.58 122.816C149.562 121.739 150.46 120.868 151.546 120.868C152.605 120.868 153.503 121.739 153.512 122.816C153.503 123.903 152.605 124.782 151.546 124.782ZM149.58 113.704C149.562 112.626 150.46 111.756 151.546 111.756C152.605 111.756 153.503 112.626 153.512 113.704C153.503 114.79 152.605 115.67 151.546 115.67C150.46 115.67 149.562 114.79 149.58 113.704ZM163.088 127.35C158.653 127.341 156.014 123.849 156.023 117.825C156.023 111.818 158.68 108.362 163.088 108.362C167.487 108.362 170.154 111.827 170.154 117.825C170.145 123.867 167.514 127.35 163.088 127.35ZM159.353 117.825C159.353 122.242 160.781 124.549 163.088 124.549C165.386 124.549 166.814 122.242 166.814 117.825C166.805 113.434 165.378 111.118 163.088 111.118C160.79 111.118 159.362 113.434 159.353 117.825ZM179.394 127.35C174.959 127.341 172.319 123.849 172.328 117.825C172.328 111.818 174.985 108.362 179.394 108.362C183.793 108.362 186.459 111.827 186.459 117.825C186.45 123.867 183.82 127.35 179.394 127.35ZM175.659 117.825C175.659 122.242 177.086 124.549 179.394 124.549C181.692 124.549 183.119 122.242 183.119 117.825C183.11 113.434 181.683 111.118 179.394 111.118C177.095 111.118 175.668 113.434 175.659 117.825ZM132.53 138.271V143.785H134.624V145.227H132.53V152.359H130.79V138.271H132.53ZM121.398 148.503C124.834 146.779 126.691 144.381 127.033 141.166H122.149V139.735H128.801C128.79 143.884 127.072 147.53 122.376 149.84L121.398 148.503ZM146.71 138.807V140.193H142.628C142.865 141.398 144.583 142.497 147.263 142.757L146.628 144.133C144.081 143.851 142.186 142.829 141.418 141.387C140.655 142.823 138.782 143.851 136.235 144.133L135.617 142.757C138.263 142.497 139.981 141.392 140.224 140.193H136.175V138.807H146.71ZM134.998 146.619V145.221H140.556V143.271H142.28V145.221H147.882V146.619H134.998ZM136.423 149.144V147.757H146.296V152.381H144.55V149.144H136.423ZM160.708 138.271V152.381H159.04V138.271H160.708ZM148.67 144.37C148.664 141.265 149.868 139.337 151.719 139.343C153.426 139.337 154.592 140.945 154.791 143.586H156.156V138.514H157.808V151.707H156.156V144.983H154.802C154.642 147.746 153.46 149.431 151.719 149.431C149.868 149.431 148.664 147.492 148.67 144.37ZM150.277 144.37C150.266 146.58 150.813 147.773 151.719 147.768C152.647 147.773 153.211 146.58 153.211 144.37C153.211 142.171 152.647 140.972 151.719 140.978C150.813 140.972 150.266 142.171 150.277 144.37ZM174.231 138.271V152.381H172.59V138.271H174.231ZM161.943 148.177C164.866 146.442 166.209 144.238 166.468 141.398H162.662V139.989H168.198C168.192 141.348 168.026 142.635 167.645 143.829H169.606V138.613H171.242V151.724H169.606V145.215H167.076C166.253 146.834 164.927 148.249 162.932 149.409L161.943 148.177ZM183.493 140.884C183.488 142.414 184.377 143.95 186.234 144.652L185.311 145.983C184.051 145.503 183.178 144.602 182.67 143.503C182.151 144.768 181.234 145.851 179.891 146.414L178.952 145.072C180.897 144.221 181.803 142.453 181.803 140.884V139.144H183.493V140.884ZM181.554 149.773C181.543 148.144 183.41 147.171 186.388 147.171C189.344 147.171 191.223 148.144 191.228 149.773C191.223 151.398 189.344 152.376 186.388 152.37C183.41 152.376 181.543 151.398 181.554 149.773ZM183.283 149.773C183.278 150.602 184.433 151.055 186.388 151.044C188.322 151.055 189.477 150.602 189.488 149.773C189.477 148.939 188.322 148.481 186.388 148.486C184.433 148.481 183.278 148.939 183.283 149.773ZM186.477 146.497V138.541H188.09V141.845H189.504V138.282H191.156V146.939H189.504V143.26H188.09V146.497H186.477ZM204.32 138.901V140.298H200.22C200.381 141.652 202.104 142.939 204.834 143.243L204.187 144.635C201.651 144.315 199.784 143.193 199.027 141.663C198.27 143.193 196.419 144.315 193.889 144.635L193.254 143.243C195.977 142.939 197.684 141.646 197.85 140.298H193.784V138.901H204.32ZM192.607 147.122V145.713H198.165V143.619H199.889V145.713H205.491V147.122H192.607ZM194.193 152.116V148.072H195.939V150.707H204.021V152.116H194.193ZM217.892 138.282V148.602H216.152V138.282H217.892ZM206.146 145.271C208.439 144.459 209.61 142.464 209.61 140.442V139.061H211.406V140.442C211.395 142.409 212.55 144.265 214.793 145.017L213.903 146.392C212.29 145.829 211.146 144.702 210.516 143.265C209.887 144.807 208.721 146.044 207.063 146.641L206.146 145.271ZM208.55 152.116V147.613H210.301V150.707H218.29V152.116H208.55ZM231.188 139.558V140.917C231.183 142.674 231.183 144.641 230.636 147.591L228.879 147.403C229.431 144.663 229.437 142.657 229.442 140.956H221.006V139.558H231.188ZM219.663 150.569V149.144H224.415V144.232H226.139V149.144H232.531V150.569H219.663ZM247.832 138.238V141.42H249.815V142.823H247.832V145.939H246.086V138.238H247.832ZM236.699 140.735V139.398H240.031V138.16H241.76V139.398H245.081V140.735H236.699ZM237.429 143.486C237.423 142.077 238.799 141.182 240.898 141.177C242.981 141.182 244.335 142.077 244.34 143.486C244.335 144.928 242.981 145.796 240.898 145.796C238.799 145.796 237.423 144.928 237.429 143.486ZM238.589 147.823V146.558H247.832V149.978H240.324V150.972H248.274V152.265H238.611V148.768H246.097V147.823H238.589ZM239.114 143.486C239.103 144.177 239.793 144.541 240.898 144.541C241.987 144.541 242.683 144.177 242.694 143.486C242.683 142.812 241.987 142.414 240.898 142.414C239.793 142.414 239.103 142.812 239.114 143.486ZM259.05 141.663C259.039 144.249 260.404 146.845 262.697 147.829L261.664 149.221C260.045 148.47 258.851 146.972 258.194 145.127C257.553 147.116 256.338 148.746 254.625 149.547L253.564 148.099C255.907 147.083 257.282 144.381 257.293 141.663V139.403H259.05V141.663ZM263.713 152.414V138.271H265.465V152.414H263.713ZM278.385 138.271V142.331H280.358V143.773H278.385V148.453H276.623V138.271H278.385ZM267.186 145.613C270.424 144.674 272.341 142.917 272.639 140.762H267.788V139.337H274.545C274.54 143.094 272.092 145.768 267.916 146.994L267.186 145.613ZM269.313 152.116V147.414H271.065V150.707H278.916V152.116H269.313ZM283.681 139.685L283.504 147.68H281.736L281.554 139.685H283.681ZM281.411 149.912C281.399 149.249 281.952 148.713 282.62 148.713C283.272 148.713 283.825 149.249 283.83 149.912C283.825 150.58 283.272 151.122 282.62 151.122C281.952 151.122 281.399 150.58 281.411 149.912Z" fill="#B2B2B4"/>
<rect x="62" y="232.5" width="35" height="35" rx="8" fill="#515155"/>
<path d="M122.523 249V246.613L129.023 240.342C130.877 238.488 131.842 237.396 131.842 235.848C131.842 234.134 130.483 233.055 128.693 233.055C126.802 233.055 125.583 234.235 125.596 236.102H122.447C122.435 232.623 125.05 230.363 128.719 230.363C132.477 230.363 135.003 232.61 135.016 235.695C135.003 237.765 134.013 239.44 130.395 242.855L127.119 246.105V246.232H135.295V249H122.523ZM137.153 245.572V242.932L145.1 230.617H149.214V242.855H151.626V245.572H149.214V249H146.065V245.572H137.153ZM140.53 242.855H146.116V234.375H145.913L140.53 242.729V242.855ZM155.998 246.791C154.906 246.791 154.004 245.902 154.017 244.811C154.004 243.744 154.906 242.868 155.998 242.855C157.051 242.868 157.953 243.744 157.953 244.811C157.953 245.902 157.051 246.791 155.998 246.791ZM154.017 235.695C154.004 234.629 154.906 233.753 155.998 233.74C157.051 233.753 157.953 234.629 157.953 235.695C157.953 236.787 157.051 237.676 155.998 237.676C154.906 237.676 154.004 236.787 154.017 235.695ZM167.53 249.254C163.099 249.254 160.458 245.826 160.471 239.809C160.458 233.816 163.124 230.363 167.53 230.363C171.935 230.363 174.588 233.816 174.588 239.809C174.588 245.839 171.948 249.254 167.53 249.254ZM163.797 239.809C163.797 244.227 165.219 246.474 167.53 246.486C169.828 246.474 171.262 244.227 171.262 239.809C171.249 235.429 169.828 233.118 167.53 233.105C165.232 233.118 163.81 235.429 163.797 239.809ZM183.835 249.254C179.404 249.254 176.764 245.826 176.777 239.809C176.764 233.816 179.43 230.363 183.835 230.363C188.24 230.363 190.894 233.816 190.894 239.809C190.894 245.839 188.253 249.254 183.835 249.254ZM180.103 239.809C180.103 244.227 181.525 246.474 183.835 246.486C186.133 246.474 187.568 244.227 187.568 239.809C187.555 235.429 186.133 233.118 183.835 233.105C181.537 233.118 180.115 235.429 180.103 239.809ZM125.875 262.891C125.883 264.414 126.773 265.953 128.625 266.656L127.703 267.984C126.445 267.508 125.57 266.602 125.062 265.508C124.547 266.766 123.625 267.844 122.281 268.406L121.344 267.078C123.289 266.219 124.195 264.453 124.203 262.891V261.141H125.875V262.891ZM123.938 271.766C123.93 270.141 125.805 269.172 128.781 269.172C131.734 269.172 133.617 270.141 133.625 271.766C133.617 273.398 131.734 274.375 128.781 274.375C125.805 274.375 123.93 273.398 123.938 271.766ZM125.672 271.766C125.664 272.602 126.82 273.055 128.781 273.047C130.711 273.055 131.867 272.602 131.875 271.766C131.867 270.938 130.711 270.484 128.781 270.484C126.82 270.484 125.664 270.938 125.672 271.766ZM128.859 268.5V260.547H130.484V263.844H131.891V260.281H133.547V268.938H131.891V265.266H130.484V268.5H128.859ZM146.716 260.906V262.297H142.614C142.77 263.656 144.505 264.938 147.231 265.25L146.575 266.641C144.044 266.312 142.177 265.195 141.419 263.664C140.661 265.188 138.809 266.312 136.278 266.641L135.637 265.25C138.364 264.938 140.067 263.648 140.231 262.297H136.169V260.906H146.716ZM134.997 269.125V267.703H140.559V265.625H142.278V267.703H147.872V269.125H134.997ZM136.591 274.109V270.078H138.325V272.703H146.419V274.109H136.591ZM160.291 260.281V270.594H158.541V260.281H160.291ZM148.541 267.266C150.83 266.461 152.002 264.469 151.994 262.438V261.062H153.791V262.438C153.783 264.406 154.939 266.266 157.181 267.016L156.291 268.391C154.681 267.828 153.533 266.703 152.908 265.258C152.283 266.805 151.111 268.039 149.447 268.641L148.541 267.266ZM150.947 274.109V269.609H152.697V272.703H160.681V274.109H150.947ZM173.584 261.562V262.922C173.569 264.68 173.569 266.641 173.022 269.594L171.272 269.406C171.827 266.656 171.827 264.648 171.834 262.953H163.397V261.562H173.584ZM162.053 272.562V271.141H166.803V266.234H168.522V271.141H174.928V272.562H162.053ZM191.953 265.562V266.938H179.078V265.562H182.664C183.094 264.102 183.203 263 183.234 262.172H180.281V260.781H184.953V261.391C184.945 262.234 184.945 263.656 184.438 265.562H188.281C188.664 264.117 188.734 263.047 188.758 262.172H185.812V260.781H190.453V261.594C190.445 262.547 190.445 263.852 190.023 265.562H191.953ZM180.656 274.219V268.094H190.422V269.406H182.406V270.5H190.078V271.734H182.406V272.891H190.516V274.219H180.656ZM205.762 265.719V267.141H203.669V274.359H201.934V260.266H203.669V265.719H205.762ZM193.106 270.875V261.641H194.825V269.438C196.708 269.406 198.708 269.242 200.841 268.797L201.028 270.266C198.645 270.742 196.387 270.867 194.294 270.875H193.106ZM217.572 264.266V265.641H207.791V260.781H209.509V264.266H217.572ZM206.119 268.656V267.281H219.025V268.656H206.119ZM207.666 274.062V269.906H209.4V272.656H217.666V274.062H207.666ZM228.503 263.656C228.488 266.25 229.855 268.844 232.144 269.828L231.113 271.219C229.488 270.469 228.3 268.977 227.644 267.133C226.995 269.117 225.777 270.742 224.066 271.547L223.003 270.094C225.355 269.078 226.73 266.383 226.738 263.656V261.406H228.503V263.656ZM233.159 274.406V260.266H234.909V274.406H233.159ZM247.828 260.266V264.328H249.797V265.781H247.828V270.453H246.062V260.266H247.828ZM236.641 267.609C239.875 266.672 241.789 264.914 242.086 262.766H237.234V261.344H243.984C243.992 265.094 241.539 267.773 237.359 268.984L236.641 267.609ZM238.75 274.109V269.406H240.516V272.703H248.359V274.109H238.75ZM253.122 261.688L252.95 269.672H251.184L250.997 261.688H253.122ZM250.856 271.906C250.848 271.25 251.403 270.711 252.075 270.703C252.723 270.711 253.278 271.25 253.278 271.906C253.278 272.578 252.723 273.125 252.075 273.125C251.403 273.125 250.848 272.578 250.856 271.906Z" fill="#B2B2B4"/>
<g clip-path="url(#clip1_2655_68704)">
<path d="M99.1361 233.76H95.1491C94.323 233.76 93.652 234.436 93.652 235.268V239.286C93.652 240.119 92.981 240.795 92.1549 240.795H88.1679C87.3418 240.795 86.6708 241.471 86.6708 242.304V246.322C86.6708 247.154 85.9998 247.83 85.1737 247.83H81.1867C80.3606 247.83 79.6896 248.507 79.6896 249.339V253.357C79.6896 254.189 79.0187 254.866 78.1926 254.866H74.2055C73.3794 254.866 72.7085 254.189 72.7085 253.357V249.339C72.7085 248.507 72.0375 247.83 71.2114 247.83H67.2244C66.3982 247.83 65.7273 247.154 65.7273 246.322V242.304C65.7273 241.471 65.0563 240.795 64.2302 240.795H60.2432C59.4171 240.795 58.7461 241.471 58.7461 242.304V246.322C58.7461 247.154 59.4171 247.83 60.2432 247.83H64.2302C65.0563 247.83 65.7273 248.507 65.7273 249.339V253.357C65.7273 254.189 66.3982 254.866 67.2244 254.866H71.2114C72.0375 254.866 72.7085 255.542 72.7085 256.374V260.392C72.7085 261.225 73.3794 261.901 74.2055 261.901H78.1926C79.0187 261.901 79.6896 261.225 79.6896 260.392V256.374C79.6896 255.542 80.3606 254.866 81.1867 254.866H85.1737C85.9998 254.866 86.6708 254.189 86.6708 253.357V247.83H92.1549C92.981 247.83 93.652 247.154 93.652 246.322V242.304C93.652 241.471 94.323 240.795 95.1491 240.795H99.1361C99.9622 240.795 100.633 240.119 100.633 239.286V235.268C100.633 234.436 99.9622 233.76 99.1361 233.76Z" fill="#242427"/>
<path d="M74.2047 263.659C72.4168 263.659 70.9624 262.193 70.9624 260.391V256.624H67.2236C65.4356 256.624 63.9812 255.158 63.9812 253.356V249.588H60.2424C58.4544 249.588 57 248.123 57 246.321V242.303C57 240.501 58.4544 239.035 60.2424 239.035H64.2294C66.0174 239.035 67.4718 240.501 67.4718 242.303V246.071H71.2106C72.9985 246.071 74.453 247.536 74.453 249.338V253.106H77.9435V249.338C77.9435 247.536 79.398 246.071 81.1859 246.071H84.9247V242.303C84.9247 240.501 86.3791 239.035 88.1671 239.035H91.9059V235.268C91.9059 233.466 93.3603 232 95.1483 232H99.1353C100.923 232 102.378 233.466 102.378 235.268V239.285C102.378 241.087 100.923 242.553 99.1353 242.553H95.3965V246.321C95.3965 248.123 93.9421 249.588 92.1541 249.588H88.4153V253.356C88.4153 255.158 86.9609 256.624 85.1729 256.624H81.4341V260.391C81.4341 262.193 79.9797 263.659 78.1918 263.659H74.2047Z" fill="#3FD960"/>
<path d="M99.1361 233.76H95.1491C94.323 233.76 93.652 234.436 93.652 235.268V239.286C93.652 240.119 92.981 240.795 92.1549 240.795H88.1679C87.3418 240.795 86.6708 241.471 86.6708 242.304V246.322C86.6708 247.154 85.9998 247.83 85.1737 247.83H81.1867C80.3606 247.83 79.6896 248.507 79.6896 249.339V253.357C79.6896 254.189 79.0187 254.866 78.1926 254.866H74.2055C73.3794 254.866 72.7085 254.189 72.7085 253.357V249.339C72.7085 248.507 72.0375 247.83 71.2114 247.83H67.2244C66.3982 247.83 65.7273 247.154 65.7273 246.322V242.304C65.7273 241.471 65.0563 240.795 64.2302 240.795H60.2432C59.4171 240.795 58.7461 241.471 58.7461 242.304V246.322C58.7461 247.154 59.4171 247.83 60.2432 247.83H64.2302C65.0563 247.83 65.7273 248.507 65.7273 249.339V253.357C65.7273 254.189 66.3982 254.866 67.2244 254.866H71.2114C72.0375 254.866 72.7085 255.542 72.7085 256.374V260.392C72.7085 261.225 73.3794 261.901 74.2055 261.901H78.1926C79.0187 261.901 79.6896 261.225 79.6896 260.392V256.374C79.6896 255.542 80.3606 254.866 81.1867 254.866H85.1737C85.9998 254.866 86.6708 254.189 86.6708 253.357V247.83H92.1549C92.981 247.83 93.652 247.154 93.652 246.322V242.304C93.652 241.471 94.323 240.795 95.1491 240.795H99.1361C99.9622 240.795 100.633 240.119 100.633 239.286V235.268C100.633 234.436 99.9622 233.76 99.1361 233.76Z" fill="#3FD960"/>
<path d="M99.1361 233.76H95.1491C94.323 233.76 93.652 234.436 93.652 235.268V239.286C93.652 240.119 92.981 240.795 92.1549 240.795H88.1679C87.3418 240.795 86.6708 241.471 86.6708 242.304V246.322C86.6708 247.154 85.9998 247.83 85.1737 247.83H81.1867C80.3606 247.83 79.6896 248.507 79.6896 249.339V253.357C79.6896 254.189 79.0187 254.866 78.1926 254.866H74.2055C73.3794 254.866 72.7085 254.189 72.7085 253.357V249.339C72.7085 248.507 72.0375 247.83 71.2114 247.83H67.2244C66.3982 247.83 65.7273 247.154 65.7273 246.322V242.304C65.7273 241.471 65.0563 240.795 64.2302 240.795H60.2432C59.4171 240.795 58.7461 241.471 58.7461 242.304V246.322C58.7461 247.154 59.4171 247.83 60.2432 247.83H64.2302C65.0563 247.83 65.7273 248.507 65.7273 249.339V253.357C65.7273 254.189 66.3982 254.866 67.2244 254.866H71.2114C72.0375 254.866 72.7085 255.542 72.7085 256.374V260.392C72.7085 261.225 73.3794 261.901 74.2055 261.901H78.1926C79.0187 261.901 79.6896 261.225 79.6896 260.392V256.374C79.6896 255.542 80.3606 254.866 81.1867 254.866H85.1737C85.9998 254.866 86.6708 254.189 86.6708 253.357V247.83H92.1549C92.981 247.83 93.652 247.154 93.652 246.322V242.304C93.652 241.471 94.323 240.795 95.1491 240.795H99.1361C99.9622 240.795 100.633 240.119 100.633 239.286V235.268C100.633 234.436 99.9622 233.76 99.1361 233.76Z" fill="#242427"/>
</g>
<g clip-path="url(#clip2_2655_68704)">
<path d="M99.7572 112.76H95.7702C94.9441 112.76 94.2731 113.436 94.2731 114.268V118.286C94.2731 119.119 93.6021 119.795 92.776 119.795H88.789C87.9629 119.795 87.2919 120.471 87.2919 121.304V125.322C87.2919 126.154 86.6209 126.83 85.7948 126.83H81.8078C80.9817 126.83 80.3107 127.507 80.3107 128.339V132.357C80.3107 133.189 79.6398 133.866 78.8137 133.866H74.8266C74.0005 133.866 73.3295 133.189 73.3295 132.357V128.339C73.3295 127.507 72.6586 126.83 71.8325 126.83H67.8454C67.0193 126.83 66.3484 126.154 66.3484 125.322V121.304C66.3484 120.471 65.6774 119.795 64.8513 119.795H60.8643C60.0382 119.795 59.3672 120.471 59.3672 121.304V125.322C59.3672 126.154 60.0382 126.83 60.8643 126.83H64.8513C65.6774 126.83 66.3484 127.507 66.3484 128.339V132.357C66.3484 133.189 67.0193 133.866 67.8454 133.866H71.8325C72.6586 133.866 73.3295 134.542 73.3295 135.374V139.392C73.3295 140.225 74.0005 140.901 74.8266 140.901H78.8137C79.6398 140.901 80.3107 140.225 80.3107 139.392V135.374C80.3107 134.542 80.9817 133.866 81.8078 133.866H85.7948C86.6209 133.866 87.2919 133.189 87.2919 132.357V126.83H92.776C93.6021 126.83 94.2731 126.154 94.2731 125.322V121.304C94.2731 120.471 94.9441 119.795 95.7702 119.795H99.7572C100.583 119.795 101.254 119.119 101.254 118.286V114.268C101.254 113.436 100.583 112.76 99.7572 112.76Z" fill="#242427"/>
<path d="M74.8258 142.659C73.0379 142.659 71.5835 141.193 71.5835 139.391V135.624H67.8446C66.0567 135.624 64.6023 134.158 64.6023 132.356V128.588H60.8635C59.0755 128.588 57.6211 127.123 57.6211 125.321V121.303C57.6211 119.501 59.0755 118.035 60.8635 118.035H64.8505C66.6385 118.035 68.0929 119.501 68.0929 121.303V125.071H71.8317C73.6196 125.071 75.074 126.536 75.074 128.338V132.106H78.5646V128.338C78.5646 126.536 80.0191 125.071 81.807 125.071H85.5458V121.303C85.5458 119.501 87.0002 118.035 88.7882 118.035H92.527V114.268C92.527 112.466 93.9814 111 95.7694 111H99.7564C101.544 111 102.999 112.466 102.999 114.268V118.285C102.999 120.087 101.544 121.553 99.7564 121.553H96.0176V125.321C96.0176 127.123 94.5632 128.588 92.7752 128.588H89.0364V132.356C89.0364 134.158 87.582 135.624 85.794 135.624H82.0552V139.391C82.0552 141.193 80.6008 142.659 78.8129 142.659H74.8258Z" fill="#3FD960"/>
<path d="M99.7572 112.76H95.7702C94.9441 112.76 94.2731 113.436 94.2731 114.268V118.286C94.2731 119.119 93.6021 119.795 92.776 119.795H88.789C87.9629 119.795 87.2919 120.471 87.2919 121.304V125.322C87.2919 126.154 86.6209 126.83 85.7948 126.83H81.8078C80.9817 126.83 80.3107 127.507 80.3107 128.339V132.357C80.3107 133.189 79.6398 133.866 78.8137 133.866H74.8266C74.0005 133.866 73.3295 133.189 73.3295 132.357V128.339C73.3295 127.507 72.6586 126.83 71.8325 126.83H67.8454C67.0193 126.83 66.3484 126.154 66.3484 125.322V121.304C66.3484 120.471 65.6774 119.795 64.8513 119.795H60.8643C60.0382 119.795 59.3672 120.471 59.3672 121.304V125.322C59.3672 126.154 60.0382 126.83 60.8643 126.83H64.8513C65.6774 126.83 66.3484 127.507 66.3484 128.339V132.357C66.3484 133.189 67.0193 133.866 67.8454 133.866H71.8325C72.6586 133.866 73.3295 134.542 73.3295 135.374V139.392C73.3295 140.225 74.0005 140.901 74.8266 140.901H78.8137C79.6398 140.901 80.3107 140.225 80.3107 139.392V135.374C80.3107 134.542 80.9817 133.866 81.8078 133.866H85.7948C86.6209 133.866 87.2919 133.189 87.2919 132.357V126.83H92.776C93.6021 126.83 94.2731 126.154 94.2731 125.322V121.304C94.2731 120.471 94.9441 119.795 95.7702 119.795H99.7572C100.583 119.795 101.254 119.119 101.254 118.286V114.268C101.254 113.436 100.583 112.76 99.7572 112.76Z" fill="#3FD960"/>
<path d="M99.7572 112.76H95.7702C94.9441 112.76 94.2731 113.436 94.2731 114.268V118.286C94.2731 119.119 93.6021 119.795 92.776 119.795H88.789C87.9629 119.795 87.2919 120.471 87.2919 121.304V125.322C87.2919 126.154 86.6209 126.83 85.7948 126.83H81.8078C80.9817 126.83 80.3107 127.507 80.3107 128.339V132.357C80.3107 133.189 79.6398 133.866 78.8137 133.866H74.8266C74.0005 133.866 73.3295 133.189 73.3295 132.357V128.339C73.3295 127.507 72.6586 126.83 71.8325 126.83H67.8454C67.0193 126.83 66.3484 126.154 66.3484 125.322V121.304C66.3484 120.471 65.6774 119.795 64.8513 119.795H60.8643C60.0382 119.795 59.3672 120.471 59.3672 121.304V125.322C59.3672 126.154 60.0382 126.83 60.8643 126.83H64.8513C65.6774 126.83 66.3484 127.507 66.3484 128.339V132.357C66.3484 133.189 67.0193 133.866 67.8454 133.866H71.8325C72.6586 133.866 73.3295 134.542 73.3295 135.374V139.392C73.3295 140.225 74.0005 140.901 74.8266 140.901H78.8137C79.6398 140.901 80.3107 140.225 80.3107 139.392V135.374C80.3107 134.542 80.9817 133.866 81.8078 133.866H85.7948C86.6209 133.866 87.2919 133.189 87.2919 132.357V126.83H92.776C93.6021 126.83 94.2731 126.154 94.2731 125.322V121.304C94.2731 120.471 94.9441 119.795 95.7702 119.795H99.7572C100.583 119.795 101.254 119.119 101.254 118.286V114.268C101.254 113.436 100.583 112.76 99.7572 112.76Z" fill="#242427"/>
</g>
<rect width="375" height="62" transform="matrix(1 0 0 -1 0 454)" fill="url(#paint0_linear_2655_68704)"/>
</g>
<defs>
<linearGradient id="paint0_linear_2655_68704" x1="187.5" y1="0" x2="187.5" y2="62" gradientUnits="userSpaceOnUse">
<stop stop-color="#242427"/>
<stop offset="1" stop-color="#242427" stop-opacity="0"/>
</linearGradient>
<clipPath id="clip0_2655_68704">
<rect width="375" height="454" fill="white"/>
</clipPath>
<clipPath id="clip1_2655_68704">
<rect width="45.3777" height="31.6588" fill="white" transform="translate(57 232)"/>
</clipPath>
<clipPath id="clip2_2655_68704">
<rect width="45.3777" height="31.6588" fill="white" transform="translate(57.6211 111)"/>
</clipPath>
</defs>
</svg>
