<svg width="267" height="357" viewBox="0 0 267 357" fill="none" xmlns="http://www.w3.org/2000/svg">
<path d="M90.1469 1.87109H17.9965C8.60958 1.87109 1 9.48069 1 18.8676V91.018C1 100.405 8.60958 108.015 17.9965 108.015H90.1469C99.5338 108.015 107.143 100.405 107.143 91.018V18.8676C107.143 9.48069 99.5338 1.87109 90.1469 1.87109Z" fill="#D9D9D9" stroke="#242427" stroke-width="2" stroke-miterlimit="10"/>
<path d="M243.767 126.99H58.1338C46.1556 126.99 36.4453 136.7 36.4453 148.679V334.312C36.4453 346.29 46.1556 356 58.1338 356H243.767C255.745 356 265.455 346.29 265.455 334.312V148.679C265.455 136.7 255.745 126.99 243.767 126.99Z" fill="white" stroke="#242427" stroke-width="2" stroke-miterlimit="10"/>
<path d="M144.557 74.9062H128.634C124.784 74.9062 121.662 78.0277 121.662 81.8782V97.8007C121.662 101.651 124.784 104.773 128.634 104.773H144.557C148.407 104.773 151.528 101.651 151.528 97.8007V81.8782C151.528 78.0277 148.407 74.9062 144.557 74.9062Z" fill="white" stroke="#242427" stroke-width="2" stroke-miterlimit="10"/>
<path d="M31.234 21.448C31.234 27.4416 26.3752 32.3004 20.3816 32.3004C14.388 32.3004 9.5293 27.4416 9.5293 21.448C9.5293 15.4545 14.388 10.5957 20.3816 10.5957C26.3752 10.5957 31.234 15.4545 31.234 21.448Z" fill="white" stroke="#242427" stroke-width="2"/>
<path d="M14.616 78.1484H10.8286C9.12184 78.1484 7.73828 79.532 7.73828 81.2387V92.196C7.73828 93.9027 9.12184 95.2863 10.8286 95.2863H14.616C16.3227 95.2863 17.7063 93.9027 17.7063 92.196V81.2387C17.7063 79.532 16.3227 78.1484 14.616 78.1484Z" fill="#242427"/>
<path d="M26.4305 78.1484H22.643C20.9363 78.1484 19.5527 79.532 19.5527 81.2387V92.196C19.5527 93.9027 20.9363 95.2863 22.643 95.2863H26.4305C28.1372 95.2863 29.5207 93.9027 29.5207 92.196V81.2387C29.5207 79.532 28.1372 78.1484 26.4305 78.1484Z" fill="#242427"/>
<path d="M38.243 78.1484H34.4555C32.7488 78.1484 31.3652 79.532 31.3652 81.2387V92.196C31.3652 93.9027 32.7488 95.2863 34.4555 95.2863H38.243C39.9497 95.2863 41.3333 93.9027 41.3333 92.196V81.2387C41.3333 79.532 39.9497 78.1484 38.243 78.1484Z" fill="#242427"/>
<path d="M50.0613 78.1484H46.2739C44.5672 78.1484 43.1836 79.532 43.1836 81.2387V92.196C43.1836 93.9027 44.5672 95.2863 46.2739 95.2863H50.0613C51.768 95.2863 53.1516 93.9027 53.1516 92.196V81.2387C53.1516 79.532 51.768 78.1484 50.0613 78.1484Z" fill="#242427"/>
<path d="M61.8738 78.1484H58.0864C56.3797 78.1484 54.9961 79.532 54.9961 81.2387V92.196C54.9961 93.9027 56.3797 95.2863 58.0864 95.2863H61.8738C63.5805 95.2863 64.9641 93.9027 64.9641 92.196V81.2387C64.9641 79.532 63.5805 78.1484 61.8738 78.1484Z" fill="#242427"/>
<path d="M73.6883 78.1484H69.9008C68.1941 78.1484 66.8105 79.532 66.8105 81.2387V92.196C66.8105 93.9027 68.1941 95.2863 69.9008 95.2863H73.6883C75.395 95.2863 76.7786 93.9027 76.7786 92.196V81.2387C76.7786 79.532 75.395 78.1484 73.6883 78.1484Z" fill="#242427"/>
<path d="M85.5028 78.1484H81.7153C80.0086 78.1484 78.625 79.532 78.625 81.2387V92.196C78.625 93.9027 80.0086 95.2863 81.7153 95.2863H85.5028C87.2095 95.2863 88.593 93.9027 88.593 92.196V81.2387C88.593 79.532 87.2095 78.1484 85.5028 78.1484Z" fill="#242427"/>
<path d="M97.3191 78.1484H93.5317C91.825 78.1484 90.4414 79.532 90.4414 81.2387V92.196C90.4414 93.9027 91.825 95.2863 93.5317 95.2863H97.3191C99.0259 95.2863 100.409 93.9027 100.409 92.196V81.2387C100.409 79.532 99.0259 78.1484 97.3191 78.1484Z" fill="#242427"/>
<path d="M72.3133 313.66H63.4665C60.3601 313.66 57.8418 316.178 57.8418 319.285V336.206C57.8418 339.312 60.3601 341.831 63.4665 341.831H72.3133C75.4198 341.831 77.938 339.312 77.938 336.206V319.285C77.938 316.178 75.4198 313.66 72.3133 313.66Z" fill="#242427"/>
<path d="M96.1512 313.66H87.3044C84.1979 313.66 81.6797 316.178 81.6797 319.285V336.206C81.6797 339.312 84.1979 341.831 87.3044 341.831H96.1512C99.2576 341.831 101.776 339.312 101.776 336.206V319.285C101.776 316.178 99.2576 313.66 96.1512 313.66Z" fill="#242427"/>
<path d="M119.977 313.66H111.131C108.024 313.66 105.506 316.178 105.506 319.285V336.206C105.506 339.312 108.024 341.831 111.131 341.831H119.977C123.084 341.831 125.602 339.312 125.602 336.206V319.285C125.602 316.178 123.084 313.66 119.977 313.66Z" fill="#242427"/>
<path d="M143.804 313.66H134.957C131.85 313.66 129.332 316.178 129.332 319.285V336.206C129.332 339.312 131.85 341.831 134.957 341.831H143.804C146.91 341.831 149.428 339.312 149.428 336.206V319.285C149.428 316.178 146.91 313.66 143.804 313.66Z" fill="#242427"/>
<path d="M167.634 313.66H158.787C155.68 313.66 153.162 316.178 153.162 319.285V336.206C153.162 339.312 155.68 341.831 158.787 341.831H167.634C170.74 341.831 173.258 339.312 173.258 336.206V319.285C173.258 316.178 170.74 313.66 167.634 313.66Z" fill="#242427"/>
<path d="M191.46 313.66H182.613C179.507 313.66 176.988 316.178 176.988 319.285V336.206C176.988 339.312 179.507 341.831 182.613 341.831H191.46C194.566 341.831 197.085 339.312 197.085 336.206V319.285C197.085 316.178 194.566 313.66 191.46 313.66Z" fill="#242427"/>
<path d="M215.296 313.66H206.449C203.342 313.66 200.824 316.178 200.824 319.285V336.206C200.824 339.312 203.342 341.831 206.449 341.831H215.296C218.402 341.831 220.92 339.312 220.92 336.206V319.285C220.92 316.178 218.402 313.66 215.296 313.66Z" fill="#242427"/>
<path d="M239.122 313.66H230.275C227.169 313.66 224.65 316.178 224.65 319.285V336.206C224.65 339.312 227.169 341.831 230.275 341.831H239.122C242.228 341.831 244.747 339.312 244.747 336.206V319.285C244.747 316.178 242.228 313.66 239.122 313.66Z" fill="#242427"/>
<path d="M84.1563 158.947C84.1563 168.526 76.3913 176.291 66.8125 176.291C57.2338 176.291 49.4688 168.526 49.4688 158.947C49.4688 149.369 57.2338 141.604 66.8125 141.604C76.3913 141.604 84.1563 149.369 84.1563 158.947Z" fill="#D9D9D9" stroke="#242427" stroke-width="2"/>
<path d="M173.266 294.957C212.75 294.957 244.757 288.49 244.757 280.514C244.757 272.537 212.75 266.07 173.266 266.07C133.783 266.07 101.775 272.537 101.775 280.514C101.775 288.49 133.783 294.957 173.266 294.957Z" fill="white"/>
<path d="M163.705 233.123C145.53 233.161 102.983 234.612 98.6959 258.392C97.4145 265.515 100.966 272.873 106.337 277.734C111.707 282.596 118.641 285.328 125.585 287.382C151.315 294.985 179.392 294.411 204.792 285.752C210.775 283.717 216.739 281.154 221.336 276.811C230.117 268.52 230.438 253.229 220.724 245.437C216.447 242.008 211.114 240.199 205.829 238.739C192.13 234.951 177.912 233.076 163.695 233.114L163.705 233.123ZM163.686 250.497C154.208 250.497 146.52 249.394 146.52 248.028C146.52 246.662 154.208 245.56 163.686 245.56C173.164 245.56 180.852 246.662 180.852 248.028C180.852 249.394 173.164 250.497 163.686 250.497Z" fill="#242427" stroke="white" stroke-width="2" stroke-miterlimit="10" stroke-linecap="round"/>
<path d="M150.823 246.162C145.265 239.03 115.719 234.376 104.215 247.905L150.823 246.162Z" fill="#242427"/>
<path d="M150.823 246.162C145.265 239.03 115.719 234.376 104.215 247.905" stroke="white" stroke-width="2" stroke-linejoin="round"/>
<path d="M150.531 249.517C136.785 246.53 116.312 254.661 124.528 285.959L150.531 249.517Z" fill="#242427"/>
<path d="M150.531 249.517C136.785 246.53 116.312 254.661 124.528 285.959" stroke="white" stroke-width="2" stroke-miterlimit="10" stroke-linecap="round"/>
<path d="M164.545 244.09C164.545 244.09 160.691 239.041 164.545 234.48V244.09Z" fill="#242427"/>
<path d="M164.545 244.09C164.545 244.09 160.691 239.041 164.545 234.48" stroke="white" stroke-width="2" stroke-miterlimit="10" stroke-linecap="round"/>
<path d="M180.85 247.765C180.85 247.765 216.802 230.947 227.091 255.698L180.85 247.765Z" fill="#242427"/>
<path d="M180.85 247.765C180.85 247.765 216.802 230.947 227.091 255.698" stroke="white" stroke-width="2" stroke-miterlimit="10" stroke-linecap="round"/>
<path d="M178.072 249.555C178.072 249.555 210.803 250.987 206.78 284.754L178.072 249.555Z" fill="#242427"/>
<path d="M178.072 249.555C178.072 249.555 210.803 250.987 206.78 284.754" stroke="white" stroke-width="2" stroke-miterlimit="10" stroke-linecap="round"/>
<path d="M102.275 241.604L157.005 240.501C157.202 243.045 155.318 245.269 152.784 245.495L99.6555 250.243C93.6822 254.313 87.5393 248.293 84.8353 239.446C82.1408 230.599 83.554 221.828 87.9916 219.859C92.4291 217.89 102.265 223.929 102.275 241.594" fill="white"/>
<path d="M102.275 241.604L157.005 240.501C157.202 243.045 155.318 245.269 152.784 245.495L99.6555 250.243C93.6822 254.313 87.5393 248.293 84.8353 239.446C82.1408 230.599 83.554 221.828 87.9916 219.859C92.4291 217.89 102.265 223.929 102.275 241.594" stroke="#242427" stroke-width="2" stroke-linecap="round" stroke-linejoin="round"/>
<path d="M96.4911 247.352C98.9596 240.304 96.6136 226.803 88.8125 223.713" stroke="#242427" stroke-width="2" stroke-linecap="round" stroke-linejoin="round"/>
<path fill-rule="evenodd" clip-rule="evenodd" d="M176.866 172.59C179.023 167.549 178.109 162.189 174.435 159.956C170.751 157.704 165.531 159.362 162.036 163.621C160.962 161.02 159.162 159.287 157.071 159.221C153.566 159.108 150.579 163.677 150.391 169.415C150.344 170.781 150.476 172.081 150.721 173.287C133.705 179.044 121.222 194.872 120.619 213.885C119.837 238.362 139.047 258.835 163.525 259.608C188.002 260.39 208.475 241.179 209.247 216.702C209.907 195.871 196.086 177.941 176.856 172.59H176.866Z" fill="#242427" stroke="white" stroke-width="2" stroke-miterlimit="10" stroke-linejoin="round"/>
<path d="M145.038 220.836C150.738 221.891 155.986 219.357 156.768 215.174C157.55 210.99 153.555 206.741 147.855 205.677C142.155 204.621 136.907 207.156 136.125 211.339C135.343 215.522 139.338 219.771 145.038 220.836Z" fill="white" stroke="#242427" stroke-width="2" stroke-miterlimit="10"/>
<path d="M136.086 211.509C138.649 213.978 140.938 210.181 145.102 210.953C149.267 211.726 150.925 217.614 156.832 213.808" stroke="#242427" stroke-width="2"/>
<path d="M142.552 213.751C141.921 213.251 141.384 212.516 140.875 211.791C143.457 212.319 146.424 212.253 148.883 213.233C147.724 214.486 144.955 214.58 143.664 214.307C143.259 214.222 142.891 214.024 142.552 213.751Z" fill="#242427" stroke="#242427" stroke-miterlimit="10"/>
<path d="M161.557 198.537C162.531 193.293 160.438 188.507 156.882 187.847C153.327 187.186 149.655 190.902 148.681 196.146C147.707 201.39 149.8 206.176 153.356 206.836C156.911 207.496 160.583 203.781 161.557 198.537Z" fill="white"/>
<path d="M159.283 191.827C160.461 191.79 162.976 190.866 163.598 187.531" stroke="white" stroke-width="2" stroke-linecap="round" stroke-linejoin="round"/>
<path d="M161.547 194.25C162.715 194.41 165.353 193.949 166.54 190.773" stroke="white" stroke-width="2" stroke-linecap="round" stroke-linejoin="round"/>
<path d="M148.595 196.673C149.514 191.726 147.592 187.22 144.303 186.609C141.013 185.998 137.602 189.513 136.683 194.46C135.764 199.408 137.686 203.913 140.976 204.524C144.265 205.135 147.677 201.62 148.595 196.673Z" fill="white"/>
<path d="M141.601 189.445C140.593 189.012 138.728 187.354 139.312 184.207" stroke="white" stroke-width="2" stroke-linecap="round" stroke-linejoin="round"/>
<path d="M138.83 190.822C137.766 190.577 136.211 190.125 136.249 186.922" stroke="white" stroke-width="2" stroke-linecap="round" stroke-linejoin="round"/>
<path d="M145.499 195.572C146.09 192.39 144.744 189.472 142.493 189.054C140.242 188.636 137.938 190.876 137.347 194.059C136.756 197.241 138.102 200.159 140.353 200.577C142.604 200.995 144.908 198.754 145.499 195.572Z" fill="#242427"/>
<path d="M152.615 250.007L146.999 244.948L137.861 265.421V265.374C136.871 267.965 135.194 269.915 132.914 270.735C127.271 272.77 120.11 267.268 116.935 258.449C113.751 249.631 115.758 240.821 121.401 238.786C127.045 236.751 134.205 242.254 137.38 251.072L143.466 240.869C144.795 238.645 147.876 238.315 149.647 240.209L156.581 247.633" fill="white"/>
<path d="M152.615 250.007L146.999 244.948L137.861 265.421V265.374C136.871 267.965 135.194 269.915 132.914 270.735C127.271 272.77 120.11 267.268 116.935 258.449C113.751 249.631 115.758 240.821 121.401 238.786C127.045 236.751 134.205 242.254 137.38 251.072L143.466 240.869C144.795 238.645 147.876 238.315 149.647 240.209L156.581 247.633" stroke="#242427" stroke-width="2" stroke-linecap="round" stroke-linejoin="round"/>
<path d="M134.496 263.846C135.758 256.478 131.208 243.561 122.992 241.809" stroke="#242427" stroke-width="2" stroke-linecap="round" stroke-linejoin="round"/>
<path d="M147.717 243.383L146.115 246.925" stroke="#242427" stroke-width="2" stroke-linecap="round" stroke-linejoin="round"/>
<path fill-rule="evenodd" clip-rule="evenodd" d="M138.107 256.848C138.107 256.848 138.559 255.623 137.721 252.09L138.107 256.848Z" fill="white"/>
<path d="M138.107 256.848C138.107 256.848 138.559 255.623 137.721 252.09" stroke="#242427" stroke-width="2" stroke-linecap="round" stroke-linejoin="round"/>
<path d="M157.714 197.854C158.34 194.483 156.915 191.391 154.531 190.948C152.147 190.505 149.707 192.88 149.081 196.251C148.455 199.622 149.88 202.714 152.264 203.157C154.648 203.6 157.088 201.226 157.714 197.854Z" fill="#242427"/>
<path d="M34.541 29.834L38.5263 34.5825" stroke="#242427" stroke-width="2" stroke-linecap="round" stroke-linejoin="round"/>
<path d="M31.3652 36.627L37.1972 38.7468" stroke="#242427" stroke-width="2" stroke-linecap="round" stroke-linejoin="round"/>
<path d="M73.5928 29.834L69.6074 34.5825" stroke="#242427" stroke-width="2" stroke-linecap="round" stroke-linejoin="round"/>
<path d="M76.7792 36.627L70.9473 38.7468" stroke="#242427" stroke-width="2" stroke-linecap="round" stroke-linejoin="round"/>
<path d="M71.0773 33.2441H67.1579C67.8174 34.582 68.1943 36.1837 68.1943 37.9267C68.1943 42.5244 65.4997 46.2459 62.1833 46.2459C58.8669 46.2459 56.1724 42.515 56.1724 37.9267C56.1724 36.1931 56.5587 34.582 57.2087 33.2441H54.7026C54.3163 34.6951 54.0996 36.2685 54.0996 37.9267C54.0996 45.0776 58.0284 50.8719 62.89 50.8719C67.7515 50.8719 71.6803 45.0776 71.6803 37.9267C71.6803 36.2779 71.4636 34.7045 71.0773 33.2441Z" fill="white"/>
<path d="M56.1719 37.9267C56.1719 42.5244 58.8664 46.2459 62.1828 46.2459C65.4992 46.2459 68.1938 42.515 68.1938 37.9267C68.1938 36.1931 67.8075 34.582 67.1574 33.2441H57.2083C56.5582 34.582 56.1719 36.1837 56.1719 37.9267Z" fill="#242427"/>
<path d="M37.1875 33.0179C37.2158 32.9143 37.244 32.8107 37.2817 32.707C37.2534 32.8107 37.2158 32.9143 37.1875 33.0179Z" fill="white"/>
<path d="M53.507 33.2441H50.624C51.2835 34.582 51.6603 36.1837 51.6603 37.9267C51.6603 42.5244 48.9658 46.2459 45.6494 46.2459C42.333 46.2459 39.6384 42.515 39.6384 37.9267C39.6384 36.1931 40.0247 34.582 40.6748 33.2441H37.1323C36.746 34.6951 36.5293 36.2685 36.5293 37.9267C36.5293 45.0776 40.4581 50.8719 45.3102 50.8719C50.1623 50.8719 54.1005 45.0776 54.1005 37.9267C54.1005 36.2779 53.8838 34.7045 53.4976 33.2441H53.507Z" fill="white"/>
<path d="M39.6387 37.9267C39.6387 42.5244 42.3332 46.2459 45.6496 46.2459C48.966 46.2459 51.6606 42.515 51.6606 37.9267C51.6606 36.1931 51.2743 34.582 50.6242 33.2441H40.6751C40.0155 34.582 39.6387 36.1837 39.6387 37.9267Z" fill="#242427"/>
<path d="M53.7145 68.3877C61.4873 68.3877 67.7903 63.7617 67.7998 58.0523C67.7998 52.3428 61.4967 47.7168 53.7239 47.7168C45.9511 47.7168 39.6387 52.3428 39.6387 58.0523C39.6387 63.7617 45.9417 68.3877 53.7145 68.3877Z" fill="white" stroke="#242427" stroke-width="2" stroke-miterlimit="10"/>
<path d="M51.8198 58.4461L47.9004 57.0234H59.2722L55.3529 58.4461C54.2128 58.8606 52.9598 58.8606 51.8198 58.4461Z" fill="#242427" stroke="#242427" stroke-width="2" stroke-linecap="round" stroke-linejoin="round"/>
<path d="M39.6387 58.2871C43.6523 60.9157 47.8731 55.1309 53.592 55.1309C59.3109 55.1309 61.8642 60.9251 68.5817 58.2871" stroke="#242427" stroke-width="2"/>
<path d="M173.589 50.7759C173.644 50.4409 174.126 50.4409 174.181 50.7759L174.381 51.9903C174.923 55.2777 177.417 57.9008 180.673 58.6066C180.958 58.6683 180.958 59.074 180.673 59.1357C177.417 59.8415 174.923 62.4647 174.381 65.7521L174.181 66.9664C174.126 67.3014 173.644 67.3014 173.589 66.9664L173.389 65.7521C172.848 62.4647 170.353 59.8415 167.097 59.1357C166.813 59.074 166.813 58.6683 167.097 58.6066C170.353 57.9008 172.848 55.2777 173.389 51.9903L173.589 50.7759Z" fill="#EFEFEF" stroke="#242427" stroke-width="2" stroke-linejoin="round"/>
<path d="M194.356 33.6648C194.402 33.3725 194.823 33.3725 194.868 33.6648L195.021 34.6439C195.417 37.1942 197.328 39.2456 199.843 39.8229C200.061 39.8729 200.061 40.1829 199.843 40.2328C197.328 40.8101 195.417 42.8615 195.021 45.4118L194.868 46.3909C194.823 46.6832 194.402 46.6832 194.356 46.3909L194.204 45.4118C193.807 42.8615 191.897 40.8101 189.381 40.2328C189.164 40.1829 189.164 39.8729 189.381 39.8229C191.897 39.2456 193.807 37.1942 194.204 34.6439L194.356 33.6648Z" fill="#EFEFEF" stroke="#242427" stroke-width="2" stroke-linejoin="round"/>
<path d="M216.928 85.8108C216.98 85.4703 217.471 85.4703 217.522 85.8108L217.781 87.5353C218.287 90.8986 220.786 93.6168 224.095 94.4025C224.38 94.4701 224.38 94.8753 224.095 94.9429C220.786 95.7285 218.287 98.4468 217.781 101.81L217.522 103.535C217.471 103.875 216.98 103.875 216.928 103.535L216.669 101.81C216.163 98.4468 213.664 95.7285 210.355 94.9429C210.07 94.8753 210.07 94.4701 210.355 94.4025C213.664 93.6168 216.163 90.8986 216.669 87.5353L216.928 85.8108Z" fill="#EFEFEF" stroke="#242427" stroke-width="2" stroke-linejoin="round"/>
<path d="M225.479 76.8615C225.518 76.604 225.889 76.604 225.927 76.8615L226.066 77.7926C226.392 79.9731 228.009 81.7373 230.153 82.2504C230.337 82.2945 230.337 82.5566 230.153 82.6007C228.009 83.1138 226.392 84.878 226.066 87.0585L225.927 87.9896C225.889 88.2471 225.518 88.2471 225.479 87.9896L225.34 87.0585C225.015 84.878 223.398 83.1138 221.254 82.6007C221.069 82.5566 221.069 82.2945 221.254 82.2504C223.398 81.7373 225.015 79.9731 225.34 77.7926L225.479 76.8615Z" fill="#EFEFEF" stroke="#242427" stroke-width="2" stroke-linejoin="round"/>
<path d="M201.041 67.8867C201.072 67.6972 201.345 67.6972 201.376 67.8867L201.467 68.4335C201.756 70.1692 203.076 71.5521 204.797 71.9211C204.947 71.9534 204.947 72.1682 204.797 72.2005C203.076 72.5695 201.756 73.9523 201.467 75.688L201.376 76.2348C201.345 76.4243 201.072 76.4243 201.041 76.2348L200.95 75.688C200.661 73.9523 199.341 72.5695 197.62 72.2005C197.47 72.1682 197.47 71.9534 197.62 71.9211C199.341 71.5521 200.661 70.1692 200.95 68.4335L201.041 67.8867Z" fill="#EFEFEF" stroke="#242427" stroke-width="2" stroke-linejoin="round"/>
</svg>
