<svg width="308" height="310" viewBox="0 0 308 310" fill="none" xmlns="http://www.w3.org/2000/svg">
<path d="M87.5001 304C131.407 304 167 296.389 167 287C167 277.611 131.407 270 87.5001 270C43.5934 270 8 277.611 8 287C8 296.389 43.5934 304 87.5001 304Z" fill="white"/>
<path d="M129.371 140.39C121.779 138.104 115.937 132.935 113.054 126.724C107.219 130.31 99.4956 131.395 91.9034 129.109C78.9159 125.198 70.9208 112.769 74.415 101.165C77.9088 89.561 91.4372 83.6128 104.425 87.5233C112.017 89.8093 117.858 94.9772 120.742 101.189C126.576 97.602 134.301 96.519 141.893 98.8048C154.88 102.715 162.875 115.144 159.382 126.748C155.887 138.353 142.359 144.301 129.371 140.39ZM128.603 76.2265C112.133 71.2675 95.9664 71.1095 83.1601 74.8128C70.3422 78.5195 61.0222 86.042 57.9159 96.3589C54.8095 106.676 58.4266 118.094 67.0669 128.261C75.6995 138.42 89.2655 147.214 105.736 152.173C122.205 157.132 138.371 157.29 151.177 153.587C163.995 149.88 173.315 142.357 176.421 132.041C179.528 121.724 175.911 110.306 167.27 100.138C158.638 89.9797 145.072 81.1854 128.603 76.2265Z" fill="#D9D9D9" stroke="#242427" stroke-width="2"/>
<path d="M106.111 275.74L105.154 275.452L105.442 274.495L109.317 261.624L109.606 260.667L110.563 260.955L123.079 264.724L124.861 258.805L107.856 253.684L106.898 253.396L107.186 252.438L111.062 239.568L111.35 238.611L112.308 238.899L129.313 244.019L131.853 235.584L93.3494 223.99L77.7517 275.793L116.255 287.387L118.627 279.509L106.111 275.74Z" fill="#D9D9D9" stroke="#242427" stroke-width="2"/>
<path d="M115.742 75.884C119.299 78.4954 122.071 81.853 123.797 85.5834C127.212 83.4755 131.264 82.2122 135.557 81.9561L141.068 63.6547C142.449 59.0656 139.321 53.8307 133.713 52.1423C128.104 50.4533 122.605 53.0906 121.223 57.6796L115.742 75.884Z" fill="#EFEFEF" stroke="#242427" stroke-width="2"/>
<path d="M120.538 137.042C116.871 134.158 114.052 130.441 112.327 126.308C108.517 128.861 103.993 130.411 99.2207 130.743L55.3489 276.45C53.716 281.873 57.0663 287.789 63.004 289.577C68.94 291.365 75.0002 288.282 76.6331 282.858L120.538 137.042Z" fill="white" stroke="#242427" stroke-width="2"/>
<mask id="mask0_6332_157128" style="mask-type:luminance" maskUnits="userSpaceOnUse" x="55" y="124" width="65" height="165">
<path d="M118.281 135.772C115.318 133.137 113.097 129.703 111.781 125.852C108.479 128.396 104.626 130.046 100.598 130.567L57.105 275.015C55.4439 280.531 58.1825 286.056 62.9722 287.499C67.7605 288.94 73.0945 285.846 74.7556 280.329L118.281 135.772Z" fill="white" stroke="white" stroke-width="2"/>
</mask>
<g mask="url(#mask0_6332_157128)">
<path d="M122.243 156.53C119.304 153.793 117.133 150.203 115.877 146.161C112.52 148.902 108.621 150.712 104.557 151.331L58.2525 305.115C56.4588 311.073 59.1751 316.864 63.9116 318.29C68.6482 319.717 74.1107 316.388 75.9045 310.43L122.243 156.53Z" fill="#D9D9D9" stroke="#242427" stroke-width="2"/>
</g>
<path d="M128.233 140.125C120.453 137.782 114.645 132.024 111.932 124.994C105.787 129.357 97.7665 130.951 89.986 128.608C76.6075 124.58 69.028 110.47 73.0563 97.0915C77.0841 83.7144 91.1942 76.1351 104.573 80.1633C112.353 82.5059 118.16 88.2622 120.874 95.294C127.018 90.9293 135.04 89.3368 142.82 91.6795C156.199 95.7077 163.778 109.818 159.75 123.195C155.722 136.573 141.612 144.153 128.233 140.125ZM130.134 65.7095C113.346 60.6548 96.6627 61.1464 83.2734 65.9807C69.8841 70.8151 59.8518 79.96 56.1674 92.1965C52.483 104.433 55.7983 117.597 64.2924 129.02C72.7865 140.444 86.4248 150.065 103.212 155.12C119.999 160.174 136.682 159.682 150.071 154.848C163.461 150.014 173.493 140.869 177.177 128.632C180.862 116.396 177.546 103.232 169.052 91.8086C160.559 80.3852 146.921 70.764 130.134 65.7095Z" fill="white" stroke="#242427" stroke-width="2"/>
<path d="M39.2019 246.274L24.2145 249.323C23.9047 249.382 23.608 249.496 23.3386 249.66L10.2105 257.503C9.71046 257.801 9.31779 258.249 9.0891 258.784L3.6997 271.241C3.55368 271.587 3.47868 271.959 3.47918 272.335C3.47968 272.71 3.55565 273.082 3.70259 273.428C3.84954 273.774 4.06445 274.086 4.33457 274.347C4.60469 274.608 4.92452 274.812 5.27506 274.948L36.1625 286.621C36.803 286.857 37.5076 286.851 38.1442 286.605C38.7808 286.359 39.3057 285.888 39.6204 285.283L54.6023 255.834C54.7692 255.499 54.8671 255.133 54.8903 254.759C54.9134 254.385 54.8614 254.01 54.7371 253.656C54.6129 253.303 54.4191 252.978 54.1671 252.7C53.9151 252.423 53.61 252.199 53.2699 252.041L40.8969 246.464C40.3669 246.22 39.7727 246.154 39.2019 246.274Z" fill="white" stroke="#242427" stroke-width="2" stroke-linecap="round" stroke-linejoin="round"/>
<path d="M26.8504 257.402C35.6631 253.985 42.0888 249.362 41.2024 247.076C40.316 244.789 32.4533 245.706 23.6405 249.123C14.8277 252.539 8.40214 257.162 9.28852 259.449C10.1749 261.735 18.0376 260.818 26.8504 257.402Z" fill="white" stroke="#242427" stroke-width="2" stroke-linecap="round" stroke-linejoin="round"/>
<path d="M38.8472 263.157L28.5433 258.264C28.3206 258.153 28.0775 258.09 27.8292 258.079C27.5809 258.067 27.333 258.107 27.101 258.197C26.869 258.286 26.6582 258.422 26.4817 258.597C26.3053 258.773 26.1671 258.982 26.076 259.214L21.7595 269.784C21.3824 270.698 21.3826 271.724 21.7602 272.638L40.7477 265.28C40.5883 264.817 40.338 264.391 40.0116 264.027C39.6853 263.662 39.2894 263.367 38.8472 263.157Z" fill="#D9D9D9" stroke="#242427" stroke-width="2" stroke-linecap="round" stroke-linejoin="round"/>
<path d="M21.8214 272.627C22.0693 273.194 22.4317 273.703 22.8857 274.123L36.3518 286.68C36.9446 286.865 37.5829 286.842 38.1606 286.614C38.7361 286.387 39.2204 285.977 39.5383 285.446L41.0343 267.088C41.0774 266.48 41.0012 265.869 40.8099 265.29L21.8214 272.627Z" fill="#EFEFEF" stroke="#242427" stroke-width="2" stroke-linecap="round" stroke-linejoin="round"/>
<path d="M53.4721 258.072L39.545 285.422L41.6469 264.939L53.3972 254.602C53.4518 254.551 53.5213 254.518 53.5956 254.509C53.6699 254.499 53.7453 254.513 53.811 254.549C53.8768 254.585 53.9294 254.641 53.9615 254.709C53.9935 254.777 54.0033 254.853 53.9895 254.926L53.4721 258.072Z" fill="#D9D9D9" stroke="#242427" stroke-width="2" stroke-linecap="round" stroke-linejoin="round"/>
<path d="M7.57814 275.863L36.2968 286.686L20.9152 272.961L5.16789 273.208C5.10176 273.208 5.03744 273.229 4.98389 273.268C4.93034 273.307 4.89022 273.361 4.86914 273.424C4.84805 273.487 4.84705 273.554 4.86626 273.618C4.88547 273.681 4.92395 273.737 4.97632 273.777L7.57814 275.863Z" fill="#D9D9D9" stroke="#242427" stroke-width="2" stroke-linecap="round" stroke-linejoin="round"/>
<path d="M225 304C265.869 304 299 296.613 299 287.5C299 278.387 265.869 271 225 271C184.131 271 151 278.387 151 287.5C151 296.613 184.131 304 225 304Z" fill="white"/>
<path fill-rule="evenodd" clip-rule="evenodd" d="M182.896 256.466C188.013 262.708 199.785 267.036 206.208 262.501C215.124 256.208 216.171 244.462 213.018 234.783L207.293 235.869C207.293 235.869 209.231 255.42 199.01 255.252C192.704 255.148 187.665 251.543 182.935 248.506C180.57 246.994 177.392 247.111 174.898 248.416C163.862 254.192 159.688 282.233 175.595 284.429C187.794 286.122 189.59 269.621 187.225 261.26" fill="white"/>
<path d="M182.896 256.466C188.013 262.708 199.785 267.036 206.208 262.501C215.124 256.208 216.171 244.462 213.018 234.783L207.293 235.869C207.293 235.869 209.231 255.42 199.01 255.252C192.704 255.148 187.665 251.543 182.935 248.506C180.57 246.994 177.392 247.111 174.898 248.416C163.862 254.192 159.688 282.233 175.595 284.429C187.794 286.122 189.59 269.621 187.225 261.26" stroke="#242427" stroke-width="2" stroke-miterlimit="10" stroke-linecap="round"/>
<path d="M225.254 285.979C230.022 291.51 241.639 289.326 251.214 281.082C260.789 272.837 264.679 261.673 259.91 256.142C255.142 250.612 243.525 252.795 233.95 261.04C231.417 263.224 229.285 265.614 227.605 268.043C227.205 268.483 226.804 268.948 226.404 269.413L191.527 240.739C189.305 242.988 189.318 246.606 191.527 248.841L225.241 285.979H225.254Z" fill="white" stroke="#242427" stroke-width="2" stroke-linecap="round" stroke-linejoin="round"/>
<path d="M232.709 280.992C234.57 272.438 245.205 260.42 254.883 262.126" stroke="#242427" stroke-width="2" stroke-linecap="round" stroke-linejoin="round"/>
<path fill-rule="evenodd" clip-rule="evenodd" d="M224.658 273.976C224.658 273.976 225.149 271.508 227.617 268.045L224.658 273.976Z" fill="#B2B2B4"/>
<path d="M224.658 273.976C224.658 273.976 225.149 271.508 227.617 268.045" stroke="#242427" stroke-width="2" stroke-linecap="round" stroke-linejoin="round"/>
<path d="M189.646 120.252L189.645 120.251C186.464 118.44 183.048 117.654 180.071 117.889C177.101 118.125 174.454 119.399 173.072 121.827L173.071 121.829C171.882 123.924 171.908 126.397 172.781 128.747C173.503 130.693 174.818 132.598 176.588 134.251C155.787 145.407 142.457 168.137 144.477 193.176C147.196 226.898 176.74 252.014 210.448 249.295C244.17 246.576 269.287 217.032 266.567 183.324C263.848 149.615 234.304 124.485 200.596 127.205L200.593 127.205C199.296 127.314 198.008 127.459 196.729 127.641C195.457 124.823 192.953 122.142 189.646 120.252Z" fill="#242427" stroke="#242427" stroke-width="2" stroke-miterlimit="10"/>
<path d="M186.13 201.17C194.051 200.537 200.098 195.291 199.633 189.476C199.168 183.661 192.358 179.461 184.437 180.094C176.516 180.741 170.468 185.974 170.933 191.789C171.399 197.604 178.208 201.803 186.13 201.17Z" fill="white" stroke="#242427" stroke-width="2" stroke-miterlimit="10"/>
<path d="M170.943 192.023C175.246 194.375 179.071 188.12 184.912 187.655C190.753 187.19 193.815 192.876 200.444 189.645" stroke="#242427" stroke-width="2"/>
<path d="M183.39 191.182L179.281 190.057L190.872 189.127L186.996 190.897C185.871 191.414 184.592 191.518 183.39 191.182Z" fill="#242427" stroke="#242427" stroke-width="2" stroke-linecap="round" stroke-linejoin="round"/>
<path d="M184.257 165.26C183.986 166.772 183.896 168.4 184.025 170.08C184.619 177.368 189.103 182.951 194.039 182.55C198.976 182.149 202.516 175.921 201.935 168.633C201.793 166.953 201.444 165.364 200.94 163.917" fill="white"/>
<path d="M187.796 169.784C188.171 174.474 191.221 178.041 194.606 177.769C197.992 177.498 200.421 173.479 200.046 168.789C199.904 167.018 199.387 165.416 198.599 164.111L188.468 164.925C187.913 166.333 187.654 168.013 187.796 169.784Z" fill="#242427"/>
<path d="M166.381 166.476C166.407 166.36 166.42 166.256 166.446 166.153C166.42 166.256 166.394 166.373 166.381 166.476Z" fill="white"/>
<path d="M169.949 166.425L166.343 166.722C166.072 168.234 165.982 169.862 166.111 171.542C166.705 178.83 171.189 184.412 176.125 184.011C181.061 183.611 184.602 177.382 184.021 170.094C183.878 168.415 183.53 166.825 183.026 165.378L180.08 165.611" fill="white"/>
<path d="M171.24 171.116C171.614 175.807 174.664 179.373 178.05 179.102C181.435 178.831 183.865 174.812 183.49 170.121C183.348 168.351 182.831 166.748 182.043 165.443L171.912 166.257C171.356 167.666 171.097 169.346 171.24 171.116Z" fill="#242427"/>
<path d="M163.422 163.452L167.88 167.962" stroke="white" stroke-width="2" stroke-linecap="round" stroke-linejoin="round"/>
<path d="M160.736 170.638L166.849 172.318" stroke="white" stroke-width="2" stroke-linecap="round" stroke-linejoin="round"/>
<path d="M204.516 160.131L200.846 165.3" stroke="white" stroke-width="2" stroke-linecap="round" stroke-linejoin="round"/>
<path d="M208.304 166.799L202.541 169.435" stroke="white" stroke-width="2" stroke-linecap="round" stroke-linejoin="round"/>
<path d="M294.125 141.977L291.489 142.209C288.194 142.494 285.196 140.323 284.447 137.105C283.568 133.384 280.105 130.877 276.293 131.213L256.509 132.957C252.697 133.293 249.725 136.369 249.519 140.194C249.338 143.489 246.766 146.151 243.471 146.448L233.043 147.365C228.443 147.766 225.057 151.823 225.458 156.424L228.559 191.558C228.96 196.159 233.017 199.544 237.617 199.144L298.713 193.755C303.313 193.355 306.698 189.297 306.298 184.71L303.197 149.575C302.796 144.975 298.739 141.589 294.138 141.99L294.125 141.977Z" fill="#D9D9D9" stroke="#242427" stroke-width="2" stroke-linecap="round" stroke-linejoin="round"/>
<path d="M278.204 183.742C287.256 178.953 290.712 167.732 285.923 158.68C281.134 149.628 269.914 146.171 260.861 150.96C251.809 155.749 248.353 166.97 253.142 176.022C257.931 185.074 269.151 188.531 278.204 183.742Z" fill="#08005C" stroke="#242427" stroke-width="2" stroke-linecap="round" stroke-linejoin="round"/>
<path d="M278.204 183.742C287.256 178.953 290.712 167.732 285.923 158.68C281.134 149.628 269.914 146.171 260.861 150.96C251.809 155.749 248.353 166.97 253.142 176.022C257.931 185.074 269.151 188.531 278.204 183.742Z" fill="#EFEFEF" stroke="#242427" stroke-width="2" stroke-linecap="round" stroke-linejoin="round"/>
<path d="M275.38 178.435C281.531 175.196 283.891 167.585 280.653 161.435C277.414 155.284 269.803 152.924 263.652 156.162C257.502 159.401 255.141 167.012 258.38 173.163C261.618 179.313 269.23 181.674 275.38 178.435Z" fill="#242427"/>
<path d="M294.782 155.106C296.688 155.106 298.232 153.562 298.232 151.656C298.232 149.751 296.688 148.206 294.782 148.206C292.877 148.206 291.332 149.751 291.332 151.656C291.332 153.562 292.877 155.106 294.782 155.106Z" fill="#D9D9D9" stroke="#242427" stroke-width="2" stroke-linecap="round" stroke-linejoin="round"/>
<path d="M240.73 152.961L244.194 192.257" stroke="#242427" stroke-width="2" stroke-linecap="round" stroke-linejoin="round"/>
<path d="M233.029 147.353L240.175 146.719L239.955 144.212C239.826 142.817 238.598 141.77 237.19 141.899L234.14 142.171C232.745 142.3 231.698 143.528 231.827 144.936L232.06 147.508C232.37 147.443 232.693 147.391 233.016 147.365L233.029 147.353Z" fill="#EFEFEF" stroke="#242427" stroke-width="2" stroke-linecap="round" stroke-linejoin="round"/>
<path d="M283.712 1.97293C283.763 1.63241 284.254 1.63241 284.305 1.97294L284.564 3.69736C285.07 7.0607 287.569 9.77895 290.879 10.5646C291.163 10.6322 291.163 11.0374 290.879 11.105C287.569 11.8907 285.07 14.6089 284.564 17.9722L284.305 19.6967C284.254 20.0372 283.763 20.0372 283.712 19.6967L283.452 17.9722C282.947 14.6089 280.447 11.8907 277.138 11.105C276.853 11.0374 276.853 10.6322 277.138 10.5646C280.447 9.77895 282.947 7.0607 283.452 3.69736L283.712 1.97293Z" fill="#EFEFEF" stroke="#242427" stroke-width="2" stroke-linejoin="round"/>
<path d="M288.711 117.401C288.711 117.401 301.503 108.256 306.67 105.949" stroke="#242427" stroke-width="2" stroke-linecap="round" stroke-linejoin="round"/>
<path d="M284 104.775C284 104.775 287.371 98.0338 293.2 94" stroke="#242427" stroke-width="2" stroke-linecap="round" stroke-linejoin="round"/>
<path d="M261.218 66.0959C258.19 66.0959 256.543 64.1304 256.543 60.6242V42.1905C256.543 41.553 256.597 40.703 256.756 39.9062C255.853 41.4468 254.206 42.3499 252.665 42.6155C249.425 43.0936 247.938 40.6499 247.938 38.3656C247.938 36.1876 249.478 34.7001 252.347 33.7439C254.1 33.2658 255.906 32.0971 256.809 30.5034C258.084 28.6972 259.146 27.1035 261.537 27.1035C264.353 27.1035 265.999 28.9097 265.999 32.2033V60.6242C265.999 64.1304 264.299 66.0959 261.218 66.0959Z" fill="#121212"/>
<path d="M234.023 63.2273C231.261 63.2273 229.72 61.4211 229.72 58.2868V53.3995H225.151C222.23 53.3995 220.477 51.912 220.477 49.3621C220.477 46.8122 222.23 45.3248 225.151 45.3248H229.72V40.3843C229.72 37.3032 231.261 35.4438 234.023 35.4438C236.732 35.4438 238.22 37.3032 238.22 40.3843V45.3248H242.788C245.71 45.3248 247.463 46.8122 247.463 49.3621C247.463 51.912 245.71 53.3995 242.788 53.3995H238.22V58.2868C238.22 61.4211 236.732 63.2273 234.023 63.2273Z" fill="#121212"/>
</svg>
