<svg width="28" height="28" viewBox="0 0 28 28" fill="none" xmlns="http://www.w3.org/2000/svg">
<rect width="28" height="28" rx="14" fill="white"/>
<path d="M8.16602 21.5007H19.8327C21.216 21.5007 22.3327 20.384 22.3327 19.0007V11.9173C22.3327 10.534 21.216 9.41732 19.8327 9.41732H18.4494C18.2827 9.41732 18.1244 9.31732 18.066 9.15899L17.966 8.90898C17.5827 7.95898 16.666 7.33398 15.641 7.33398H12.3577C11.3327 7.33398 10.416 7.95898 10.0327 8.90898L9.93268 9.15899C9.86602 9.31732 9.71602 9.41732 9.54935 9.41732H8.16602C6.78268 9.41732 5.66602 10.534 5.66602 11.9173V19.0007C5.66602 20.384 6.78268 21.5007 8.16602 21.5007ZM18.166 11.5007C18.6243 11.5007 18.9993 11.8757 18.9993 12.334C18.9993 12.7923 18.6243 13.1673 18.166 13.1673C17.7077 13.1673 17.3327 12.7923 17.3327 12.334C17.3327 11.8757 17.7077 11.5007 18.166 11.5007ZM13.9993 12.1257C15.841 12.1257 17.3327 13.6173 17.3327 15.459C17.3327 17.3007 15.841 18.7923 13.9993 18.7923C12.1577 18.7923 10.666 17.3007 10.666 15.459C10.666 13.6173 12.1577 12.1257 13.9993 12.1257Z" fill="#3F3F43"/>
<path d="M13.9993 17.5423C15.1499 17.5423 16.0827 16.6096 16.0827 15.459C16.0827 14.3084 15.1499 13.3757 13.9993 13.3757C12.8488 13.3757 11.916 14.3084 11.916 15.459C11.916 16.6096 12.8488 17.5423 13.9993 17.5423Z" fill="#3F3F43"/>
</svg>
