<svg width="41" height="40" viewBox="0 0 41 40" fill="none" xmlns="http://www.w3.org/2000/svg">
<circle cx="20.5" cy="20" r="20" fill="#353538"/>
<path d="M13.5 28H27.5C29.16 28 30.5 26.66 30.5 25V16.5C30.5 14.84 29.16 13.5 27.5 13.5H25.84C25.64 13.5 25.45 13.38 25.38 13.19L25.26 12.89C24.8 11.75 23.7 11 22.47 11H18.53C17.3 11 16.2 11.75 15.74 12.89L15.62 13.19C15.54 13.38 15.36 13.5 15.16 13.5H13.5C11.84 13.5 10.5 14.84 10.5 16.5V25C10.5 26.66 11.84 28 13.5 28ZM25.5 16C26.05 16 26.5 16.45 26.5 17C26.5 17.55 26.05 18 25.5 18C24.95 18 24.5 17.55 24.5 17C24.5 16.45 24.95 16 25.5 16ZM20.5 16.75C22.71 16.75 24.5 18.54 24.5 20.75C24.5 22.96 22.71 24.75 20.5 24.75C18.29 24.75 16.5 22.96 16.5 20.75C16.5 18.54 18.29 16.75 20.5 16.75Z" fill="#E8E8E8"/>
<path d="M20.5 23.25C21.8807 23.25 23 22.1307 23 20.75C23 19.3693 21.8807 18.25 20.5 18.25C19.1193 18.25 18 19.3693 18 20.75C18 22.1307 19.1193 23.25 20.5 23.25Z" fill="#E8E8E8"/>
</svg>
