<svg width="40" height="40" viewBox="0 0 40 40" fill="none" xmlns="http://www.w3.org/2000/svg">
<path d="M20 40C31.0457 40 40 31.0457 40 20C40 8.95431 31.0457 0 20 0C8.95431 0 0 8.95431 0 20C0 31.0457 8.95431 40 20 40Z" fill="#353538"/>
<path d="M15.2109 23.4806C17.8439 23.4806 19.9784 20.3999 19.9784 16.5997C19.9784 12.7995 17.8439 9.71875 15.2109 9.71875C12.5778 9.71875 10.4434 12.7995 10.4434 16.5997C10.4434 20.3999 12.5778 23.4806 15.2109 23.4806Z" fill="#515155"/>
<path d="M24.7558 23.4806C27.3888 23.4806 29.5233 20.3999 29.5233 16.5997C29.5233 12.7995 27.3888 9.71875 24.7558 9.71875C22.1228 9.71875 19.9883 12.7995 19.9883 16.5997C19.9883 20.3999 22.1228 23.4806 24.7558 23.4806Z" fill="#515155"/>
<path d="M25.793 19.9626C24.677 20.3555 23.3163 20.3267 22.3275 19.6367C21.7108 19.2055 21.3192 18.6784 21.1038 18.1034C21.0353 17.9213 20.9864 17.7392 20.9668 17.5571L28.4068 15.9375C28.7397 17.6625 27.4377 19.378 25.793 19.9626Z" fill="#3F3F43"/>
<path d="M14.1622 19.9626C15.2782 20.3555 16.6389 20.3267 17.6277 19.6367C18.2444 19.2055 18.636 18.6784 18.8513 18.1034C18.9199 17.9213 18.9688 17.7392 18.9884 17.5571L11.5484 15.9375C11.2155 17.6625 12.5175 19.378 14.1622 19.9626Z" fill="#3F3F43"/>
<path d="M34.8806 11.6509C34.0247 9.2878 32.4374 7.2684 30.3965 5.82905C32.8762 4.5992 35.3085 2.70933 36.1142 0.685223C36.189 0.497108 36.4832 0.488513 36.5377 0.683514C37.5426 4.28023 36.873 8.96056 34.8806 11.6509Z" fill="#353538"/>
<path d="M10.0955 5.82905C8.0546 7.2684 6.47458 9.2878 5.61141 11.6509C3.61213 8.96061 2.94858 4.2741 3.95412 0.682575C4.00869 0.487666 4.30266 0.496364 4.37748 0.684433C5.18279 2.70883 7.61546 4.59904 10.0955 5.82905Z" fill="#353538"/>
<path d="M37.3953 8.09252C37.3274 7.78232 36.9882 7.57552 36.6625 7.65307C35.4139 7.91157 34.5861 8.45441 34.2061 9.26868C33.799 10.1346 33.9347 11.1816 34.6404 12.3965C34.7489 12.5904 34.9661 12.7067 35.1832 12.7067C35.2782 12.7067 35.3868 12.6808 35.4818 12.6291C35.7804 12.474 35.8889 12.1251 35.7261 11.8407C35.3868 11.2333 35.0339 10.3931 35.3325 9.75982C35.5496 9.30745 36.0925 8.98433 36.9475 8.80338C37.2732 8.73876 37.4903 8.41564 37.4089 8.10544L37.3953 8.09252Z" fill="#515155"/>
<path d="M32.2649 10.0333C31.3964 9.72308 30.4057 9.89111 29.3336 10.5503C29.0486 10.7183 28.9672 11.0802 29.1436 11.3516C29.32 11.623 29.7 11.7006 29.985 11.5326C30.7178 11.0931 31.3421 10.9509 31.8307 11.119C32.5092 11.3645 32.9028 12.1917 33.1064 12.8509C33.1878 13.1094 33.4321 13.2645 33.6899 13.2645C33.7442 13.2645 33.8121 13.2645 33.8664 13.2386C34.1921 13.1482 34.3821 12.825 34.2871 12.5148C33.8799 11.1836 33.2013 10.3435 32.2649 10.0074V10.0333Z" fill="#515155"/>
<path d="M33.5916 7.87442C33.8766 7.97782 34.1616 8.02952 34.4737 8.02952C35.1116 8.02952 35.8037 7.80979 36.5366 7.35743C36.8216 7.1894 36.903 6.82751 36.7265 6.55609C36.5501 6.28467 36.1701 6.20712 35.8851 6.37514C35.1523 6.81458 34.528 6.95676 34.0394 6.78873C33.3609 6.54316 32.9674 5.71597 32.7638 5.05681C32.6688 4.74661 32.3295 4.56566 32.0038 4.65614C31.6781 4.74661 31.4881 5.06973 31.5831 5.37993C31.9902 6.71118 32.6688 7.5513 33.6052 7.88734L33.5916 7.87442Z" fill="#515155"/>
<path d="M29.1817 10.2395C30.4302 9.98101 31.258 9.43817 31.638 8.62391C32.0452 7.75794 31.9094 6.71103 31.2037 5.4961C31.0409 5.21175 30.6745 5.10835 30.3759 5.26345C30.0774 5.41855 29.9688 5.76752 30.1317 6.05186C30.4709 6.65933 30.8237 7.49945 30.5252 8.13276C30.308 8.58513 29.7652 8.90825 28.9102 9.0892C28.5845 9.15382 28.3674 9.47694 28.4488 9.78714C28.5167 10.0586 28.761 10.2395 29.0459 10.2395C29.0867 10.2395 29.1409 10.2395 29.1817 10.2266V10.2395Z" fill="#515155"/>
<path d="M19.9701 23.2985C19.9701 23.2985 19.9604 23.2985 19.9506 23.2985H19.9799C19.9799 23.2985 19.9701 23.2985 19.9604 23.2985C23.4063 23.3083 24.9236 26.4214 26.9403 25.2369C26.9403 25.139 26.9599 25.0509 26.9599 24.953C26.9599 21.8986 23.837 19.4219 19.9799 19.4219C16.1229 19.4219 13 21.8986 13 24.953C13 25.0509 13.0098 25.1487 13.0196 25.2466C15.0166 26.3822 16.534 23.2985 19.9604 23.2887L19.9701 23.2985Z" fill="#515155"/>
<path d="M19.9701 23.2969C16.5437 23.2969 15.0264 26.3904 13.0293 25.2548C13.2251 28.1721 16.2598 30.4922 19.9896 30.4922C23.7195 30.4922 26.764 28.1623 26.95 25.2352C24.9334 26.4295 23.4258 23.3067 19.9701 23.2969Z" fill="#3F3F43"/>
<path d="M17.0526 24.08C17.0135 24.1877 16.9939 24.3052 17.0331 24.4227C17.3757 25.6072 18.5504 26.4099 19.9601 26.4099C21.3698 26.4099 22.5446 25.617 22.8872 24.4227C22.9264 24.2954 22.9068 24.1779 22.8578 24.0605C22.0551 23.6395 21.1251 23.2969 19.9797 23.2969C18.8148 23.2969 17.875 23.6591 17.0624 24.08H17.0526Z" fill="#353538"/>
</svg>
