<svg width="335" height="220" viewBox="0 0 335 220" fill="none" xmlns="http://www.w3.org/2000/svg">
<path d="M214.538 196.592C270.197 196.592 315.318 192.432 315.318 187.302C315.318 182.171 270.197 178.012 214.538 178.012C158.879 178.012 113.758 182.171 113.758 187.302C113.758 192.432 158.879 196.592 214.538 196.592Z" fill="white"/>
<path d="M271.999 206.271C288.822 206.271 302.459 204.842 302.459 203.081C302.459 201.319 288.822 199.891 271.999 199.891C255.176 199.891 241.539 201.319 241.539 203.081C241.539 204.842 255.176 206.271 271.999 206.271Z" fill="white"/>
<path d="M126.43 147.719V187.299H155.99H185.54H243.54V147.719H126.43Z" fill="white" stroke="#242427" stroke-width="2" stroke-miterlimit="10" stroke-linecap="round"/>
<path d="M243.537 119.002C243.537 102.252 256.768 88.6719 273.098 88.6719H155.997C139.667 88.6719 126.438 102.252 126.438 119.002V147.752H243.537V119.002Z" fill="white" stroke="#242427" stroke-width="2" stroke-miterlimit="10" stroke-linecap="round"/>
<path d="M243.537 119.002C243.537 102.252 256.768 88.6719 273.098 88.6719H155.997C139.667 88.6719 126.438 102.252 126.438 119.002V147.752H243.537V119.002Z" fill="#242427" stroke="#242427" stroke-width="2" stroke-miterlimit="10"/>
<path d="M273.099 147.719H243.539V187.299H273.099H302.659V147.719H273.099Z" fill="#D9D9D9" stroke="#242427" stroke-width="2" stroke-miterlimit="10" stroke-linecap="round"/>
<path d="M273.099 88.6406C256.769 88.6406 243.539 102.221 243.539 118.971V147.721H302.659V119.001C302.659 102.221 289.419 88.6406 273.099 88.6406Z" fill="#D9D9D9" stroke="#242427" stroke-width="2" stroke-miterlimit="10" stroke-linecap="round"/>
<path d="M273.102 104.371C271.264 104.395 269.448 104.78 267.758 105.505C266.069 106.231 264.539 107.282 263.255 108.599C261.972 109.915 260.961 111.472 260.279 113.18C259.597 114.887 259.259 116.713 259.282 118.551V132.001H286.922V118.551C286.946 116.713 286.608 114.887 285.926 113.18C285.244 111.472 284.233 109.915 282.95 108.599C281.666 107.282 280.136 106.231 278.446 105.505C276.757 104.78 274.941 104.395 273.102 104.371Z" fill="#242427" stroke="#242427" stroke-width="2" stroke-miterlimit="10"/>
<path d="M273.101 158.262H259.281V176.762H273.101H286.921V158.262H273.101Z" fill="#242427" stroke="#242427" stroke-width="2" stroke-miterlimit="10"/>
<path d="M302.66 147.719H126.43V152.499H302.66V147.719Z" fill="white" stroke="#242427" stroke-width="2" stroke-miterlimit="10" stroke-linecap="round"/>
<path d="M141.859 152.5V176.76H163.779H185.689H228.679V152.5H141.859Z" fill="#242427" stroke="#242427" stroke-width="2" stroke-miterlimit="10"/>
<path d="M190.673 119.002C190.673 102.252 203.903 88.6719 220.223 88.6719H204.363C188.043 88.6719 174.812 102.252 174.812 119.002V187.302H190.673V119.002Z" fill="white" stroke="#242427" stroke-width="2" stroke-miterlimit="10" stroke-linecap="round"/>
<path d="M142.287 119.002C142.287 102.252 155.518 88.6719 171.848 88.6719H155.997C139.667 88.6719 126.438 102.252 126.438 119.002V187.302H142.298V119.002H142.287Z" fill="white" stroke="#242427" stroke-width="2" stroke-miterlimit="10" stroke-linecap="round"/>
<path d="M243.59 131.988H126.43V147.718H243.59V131.988Z" fill="white" stroke="#242427" stroke-width="2" stroke-miterlimit="10" stroke-linecap="round"/>
<path d="M243.54 119.002C243.54 102.252 256.77 88.6719 273.1 88.6719H257.24C240.91 88.6719 227.68 102.252 227.68 119.002V187.302H243.54V119.002Z" fill="white" stroke="#242427" stroke-width="2" stroke-miterlimit="10" stroke-linecap="round"/>
<path d="M243.59 147.719H126.43V152.499H243.59V147.719Z" fill="white" stroke="#242427" stroke-width="2" stroke-miterlimit="10" stroke-linecap="round"/>
<path d="M198.868 127.93H170.758V156.78H198.868V127.93Z" fill="white" stroke="#242427" stroke-width="2" stroke-miterlimit="10" stroke-linecap="round"/>
<path d="M195.661 127.93H167.551V156.78H195.661V127.93Z" fill="white" stroke="#242427" stroke-width="2" stroke-miterlimit="10" stroke-linecap="round"/>
<path fill-rule="evenodd" clip-rule="evenodd" d="M185.331 142.902C186.397 141.945 187.07 140.538 187.07 138.97C187.07 136.087 184.796 133.75 181.99 133.75C179.185 133.75 176.91 136.087 176.91 138.97C176.91 140.539 177.584 141.947 178.651 142.904L177.281 151.879H186.701L185.331 142.902Z" fill="#242427"/>
<path d="M185.331 142.902L184.663 142.158L184.261 142.519L184.343 143.053L185.331 142.902ZM178.651 142.904L179.639 143.055L179.721 142.52L179.319 142.159L178.651 142.904ZM177.281 151.879L176.293 151.728L176.117 152.879H177.281V151.879ZM186.701 151.879V152.879H187.865L187.69 151.728L186.701 151.879ZM186 143.646C187.271 142.504 188.07 140.829 188.07 138.97H186.07C186.07 140.248 185.523 141.386 184.663 142.158L186 143.646ZM188.07 138.97C188.07 135.561 185.374 132.75 181.99 132.75V134.75C184.218 134.75 186.07 136.614 186.07 138.97H188.07ZM181.99 132.75C178.607 132.75 175.91 135.561 175.91 138.97H177.91C177.91 136.614 179.762 134.75 181.99 134.75V132.75ZM175.91 138.97C175.91 140.83 176.71 142.506 177.983 143.648L179.319 142.159C178.458 141.388 177.91 140.248 177.91 138.97H175.91ZM178.27 152.03L179.639 143.055L177.662 142.753L176.293 151.728L178.27 152.03ZM186.701 150.879H177.281V152.879H186.701V150.879ZM184.343 143.053L185.713 152.03L187.69 151.728L186.32 142.751L184.343 143.053Z" fill="#242427"/>
<path d="M274.401 162.339L261.071 171.829C260.794 172.022 260.553 172.262 260.361 172.539L250.931 185.909C250.571 186.418 250.382 187.027 250.391 187.649L250.531 202.169C250.538 202.571 250.627 202.967 250.79 203.334C250.954 203.702 251.19 204.032 251.483 204.306C251.777 204.58 252.123 204.793 252.501 204.931C252.878 205.069 253.28 205.129 253.681 205.109L288.951 203.109C289.68 203.062 290.366 202.75 290.882 202.233C291.397 201.716 291.706 201.028 291.751 200.299L293.611 164.999C293.628 164.599 293.565 164.199 293.425 163.823C293.286 163.447 293.072 163.103 292.797 162.811C292.522 162.52 292.191 162.286 291.824 162.124C291.457 161.962 291.062 161.876 290.661 161.869L276.141 161.789C275.517 161.781 274.907 161.974 274.401 162.339Z" fill="white" stroke="#242427" stroke-width="2" stroke-linecap="round" stroke-linejoin="round"/>
<path d="M267.157 178.578C274.29 171.41 278.565 164.099 276.706 162.249C274.846 160.398 267.556 164.709 260.423 171.877C253.29 179.045 249.015 186.356 250.875 188.206C252.734 190.056 260.024 185.746 267.157 178.578Z" fill="white" stroke="#242427" stroke-width="2" stroke-linecap="round" stroke-linejoin="round"/>
<path d="M268.852 195.651L284.222 180.211" stroke="#242427" stroke-width="2" stroke-linecap="round" stroke-linejoin="round"/>
<path d="M281.389 178.999L269.189 178.689C268.924 178.678 268.658 178.722 268.411 178.818C268.163 178.915 267.938 179.062 267.75 179.25C267.562 179.438 267.415 179.663 267.318 179.911C267.222 180.158 267.178 180.424 267.189 180.689L267.559 192.899C267.587 193.957 268.033 194.96 268.799 195.689L284.169 180.249C283.812 179.866 283.383 179.558 282.905 179.344C282.428 179.129 281.913 179.012 281.389 178.999Z" fill="#D9D9D9" stroke="#242427" stroke-width="2" stroke-linecap="round" stroke-linejoin="round"/>
<path d="M268.852 195.65C269.34 196.097 269.915 196.437 270.542 196.65L289.162 203.08C289.822 203.004 290.436 202.704 290.902 202.23C291.366 201.759 291.661 201.147 291.742 200.49L285.232 181.89C285.01 181.277 284.67 180.713 284.232 180.23L268.852 195.65Z" fill="#EFEFEF" stroke="#242427" stroke-width="2" stroke-linecap="round" stroke-linejoin="round"/>
<path d="M293.471 167.678L291.731 200.468L284.891 179.528L291.891 164.318C291.922 164.245 291.975 164.182 292.044 164.141C292.113 164.099 292.192 164.081 292.272 164.087C292.352 164.094 292.428 164.126 292.489 164.178C292.549 164.23 292.592 164.3 292.611 164.378L293.471 167.678Z" fill="#D9D9D9" stroke="#242427" stroke-width="2" stroke-linecap="round" stroke-linejoin="round"/>
<path d="M256.331 205.001L289.111 203.111L268.111 196.371L252.821 203.451C252.756 203.48 252.703 203.529 252.667 203.59C252.632 203.651 252.616 203.722 252.623 203.792C252.629 203.863 252.658 203.93 252.704 203.983C252.75 204.037 252.812 204.074 252.881 204.091L256.331 205.001Z" fill="#D9D9D9" stroke="#242427" stroke-width="2" stroke-linecap="round" stroke-linejoin="round"/>
</svg>
