<svg width="32" height="32" viewBox="0 0 32 32" fill="none" xmlns="http://www.w3.org/2000/svg">
<path fill-rule="evenodd" clip-rule="evenodd" d="M20.5006 5.19987C20.2642 5.19975 20.0302 5.24633 19.8119 5.33694C19.5936 5.42756 19.3954 5.56041 19.2286 5.72787L10.2286 14.7279C10.0614 14.895 9.92874 15.0935 9.83825 15.3119C9.74775 15.5303 9.70117 15.7644 9.70117 16.0009C9.70117 16.2373 9.74775 16.4714 9.83825 16.6898C9.92874 16.9083 10.0614 17.1067 10.2286 17.2739L19.2286 26.2739C19.3944 26.4468 19.5931 26.5849 19.8131 26.6801C20.033 26.7753 20.2697 26.8256 20.5093 26.828C20.7489 26.8305 20.9866 26.7851 21.2084 26.6945C21.4303 26.6039 21.6318 26.4699 21.8012 26.3004C21.9705 26.1309 22.1044 25.9293 22.1948 25.7074C22.2852 25.4855 22.3304 25.2477 22.3278 25.0081C22.3251 24.7685 22.2746 24.5319 22.1793 24.312C22.084 24.0922 21.9457 23.8936 21.7726 23.7279L14.0466 15.9999L21.7726 8.27387C22.0247 8.02225 22.1965 7.70148 22.2662 7.35219C22.3359 7.00289 22.3004 6.64076 22.1642 6.31164C22.028 5.98251 21.7973 5.70119 21.5011 5.50329C21.205 5.30538 20.8568 5.19979 20.5006 5.19987Z" fill="#B2B2B4"/>
</svg>
