<svg width="42" height="42" viewBox="0 0 42 42" fill="none" xmlns="http://www.w3.org/2000/svg">
<path d="M39.031 9.77586H38.7414V9.48621C38.7414 7.84875 37.4099 6.51724 35.7724 6.51724H35.4828V6.22759C35.4828 4.59013 34.1512 3.25862 32.5138 3.25862H32.2241V2.96897C32.2241 1.33151 30.8926 0 29.2552 0H12.7448C11.1074 0 9.77586 1.33151 9.77586 2.96897V3.25862H9.48621C7.84875 3.25862 6.51724 4.59013 6.51724 6.22759V6.51724H6.22759C4.59013 6.51724 3.25862 7.84875 3.25862 9.48621V9.77586H2.96897C1.33151 9.77586 0 11.1074 0 12.7448V29.2552C0 30.8926 1.33151 32.2241 2.96897 32.2241H3.25862V32.5138C3.25862 34.1512 4.59013 35.4828 6.22759 35.4828H6.51724V35.7724C6.51724 37.4099 7.84875 38.7414 9.48621 38.7414H9.77586V39.031C9.77586 40.6685 11.1074 42 12.7448 42H29.2552C30.8926 42 32.2241 40.6685 32.2241 39.031V38.7414H32.5138C34.1512 38.7414 35.4828 37.4099 35.4828 35.7724V35.4828H35.7724C37.4099 35.4828 38.7414 34.1512 38.7414 32.5138V32.2241H39.031C40.6685 32.2241 42 30.8926 42 29.2552V12.7448C42 11.1074 40.6685 9.77586 39.031 9.77586Z" fill="#CAED64"/>
<path d="M39.0339 11.229H37.9948C37.6092 11.229 37.296 10.9158 37.296 10.5302V9.49106C37.296 8.65106 36.6153 7.97037 35.7753 7.97037H34.7362C34.3506 7.97037 34.0374 7.65718 34.0374 7.27157V6.23244C34.0374 5.39244 33.3567 4.71175 32.5167 4.71175H31.4776C31.0919 4.71175 30.7788 4.39856 30.7788 4.01295V2.97381C30.7788 2.13381 30.0981 1.45312 29.2581 1.45312H12.7477C11.9077 1.45312 11.227 2.13381 11.227 2.97381V4.01295C11.227 4.39856 10.9138 4.71175 10.5282 4.71175H9.4891C8.6491 4.71175 7.96841 5.39244 7.96841 6.23244V7.27157C7.96841 7.65718 7.65522 7.97037 7.26962 7.97037H6.23048C5.39048 7.97037 4.70979 8.65106 4.70979 9.49106V10.5302C4.70979 10.9158 4.3966 11.229 4.011 11.229H2.97186C2.13186 11.229 1.45117 11.9097 1.45117 12.7497V29.26C1.45117 30.1 2.13186 30.7807 2.97186 30.7807H4.011C4.3966 30.7807 4.70979 31.0939 4.70979 31.4795V32.5186C4.70979 33.3586 5.39048 34.0393 6.23048 34.0393H7.26962C7.65522 34.0393 7.96841 34.3525 7.96841 34.7381V35.7773C7.96841 36.6173 8.6491 37.298 9.4891 37.298H10.5282C10.9138 37.298 11.227 37.6111 11.227 37.9967V39.0359C11.227 39.8759 11.9077 40.5566 12.7477 40.5566H29.2581C30.0981 40.5566 30.7788 39.8759 30.7788 39.0359V37.9967C30.7788 37.6111 31.0919 37.298 31.4776 37.298H32.5167C33.3567 37.298 34.0374 36.6173 34.0374 35.7773V34.7381C34.0374 34.3525 34.3506 34.0393 34.7362 34.0393H35.7753C36.6153 34.0393 37.296 33.3586 37.296 32.5186V31.4795C37.296 31.0939 37.6092 30.7807 37.9948 30.7807H39.0339C39.8739 30.7807 40.5546 30.1 40.5546 29.26V12.7497C40.5546 11.9097 39.8739 11.229 39.0339 11.229ZM35.5581 30.7807C34.7181 30.7807 34.0374 31.4614 34.0374 32.3014V33.3405C34.0374 33.7261 33.7242 34.0393 33.3386 34.0393H32.2994C31.4594 34.0393 30.7788 34.72 30.7788 35.56V36.5992C30.7788 36.9848 30.4656 37.298 30.08 37.298H11.9258C11.5402 37.298 11.227 36.9848 11.227 36.5992V35.56C11.227 34.72 10.5463 34.0393 9.70634 34.0393H8.66721C8.2816 34.0393 7.96841 33.7261 7.96841 33.3405V32.3014C7.96841 31.4614 7.28772 30.7807 6.44772 30.7807H5.40859C5.02298 30.7807 4.70979 30.4675 4.70979 30.0819V11.9278C4.70979 11.5422 5.02298 11.229 5.40859 11.229H6.44772C7.28772 11.229 7.96841 10.5483 7.96841 9.7083V8.66916C7.96841 8.28356 8.2816 7.97037 8.66721 7.97037H9.70634C10.5463 7.97037 11.227 7.28968 11.227 6.44968V5.41054C11.227 5.02494 11.5402 4.71175 11.9258 4.71175H30.08C30.4656 4.71175 30.7788 5.02494 30.7788 5.41054V6.44968C30.7788 7.28968 31.4594 7.97037 32.2994 7.97037H33.3386C33.7242 7.97037 34.0374 8.28356 34.0374 8.66916V9.7083C34.0374 10.5483 34.7181 11.229 35.5581 11.229H36.5972C36.9828 11.229 37.296 11.5422 37.296 11.9278V30.0819C37.296 30.4675 36.9828 30.7807 36.5972 30.7807H35.5581Z" fill="#242427"/>
<path d="M32.513 14.4852H31.4738C31.0882 14.4852 30.7751 14.172 30.7751 13.7864V12.7473C30.7751 11.9073 30.0944 11.2266 29.2544 11.2266H29.0371C28.1971 11.2266 27.5164 11.9073 27.5164 12.7473V13.7864C27.5164 14.172 27.2032 14.4852 26.8176 14.4852H25.7785C24.9385 14.4852 24.2578 15.1659 24.2578 16.0059V16.2231C24.2578 17.0631 24.9385 17.7438 25.7785 17.7438H25.9957C26.8357 17.7438 27.5164 17.0631 27.5164 16.2231V15.184C27.5164 14.7984 27.8296 14.4852 28.2152 14.4852H30.0763C30.4619 14.4852 30.7751 14.7984 30.7751 15.184V16.2231C30.7751 17.0631 31.4557 17.7438 32.2957 17.7438H32.513C33.353 17.7438 34.0337 17.0631 34.0337 16.2231V16.0059C34.0337 15.1659 33.353 14.4852 32.513 14.4852Z" fill="#242427"/>
<path d="M29.2576 21.0039H29.0404C28.2004 21.0039 27.5197 21.6846 27.5197 22.5246V26.8224C27.5197 27.208 27.2065 27.5211 26.8209 27.5211H15.184C14.7984 27.5211 14.4852 27.208 14.4852 26.8224V22.5246C14.4852 21.6846 13.8045 21.0039 12.9645 21.0039H12.7473C11.9073 21.0039 11.2266 21.6846 11.2266 22.5246V26.0005C11.2266 26.8405 11.9073 27.5211 12.7473 27.5211H13.7864C14.172 27.5211 14.4852 27.8343 14.4852 28.2199V29.2591C14.4852 30.0991 15.1659 30.7798 16.0059 30.7798H25.999C26.839 30.7798 27.5197 30.0991 27.5197 29.2591V28.2199C27.5197 27.8343 27.8329 27.5211 28.2185 27.5211H29.2576C30.0976 27.5211 30.7783 26.8405 30.7783 26.0005V22.5246C30.7783 21.6846 30.0976 21.0039 29.2576 21.0039Z" fill="#242427"/>
<path d="M11.2293 16.0059V15.184C11.2293 14.7984 11.5425 14.4852 11.9281 14.4852H13.7892C14.1748 14.4852 14.4879 14.7984 14.4879 15.184V16.2231C14.4879 17.0631 15.1686 17.7438 16.0086 17.7438H16.2259C17.0659 17.7438 17.7466 17.0631 17.7466 16.2231V16.0059C17.7466 15.1659 17.0659 14.4852 16.2259 14.4852H15.1867C14.8011 14.4852 14.4879 14.172 14.4879 13.7864V12.7473C14.4879 11.9073 13.8073 11.2266 12.9673 11.2266H12.75C11.91 11.2266 11.2293 11.9073 11.2293 12.7473V13.7864C11.2293 14.172 10.9161 14.4852 10.5305 14.4852H9.49139C8.65139 14.4852 7.9707 15.1659 7.9707 16.0059V16.2231C7.9707 17.0631 8.65139 17.7438 9.49139 17.7438H9.70863C10.5486 17.7438 11.2293 17.0631 11.2293 16.2231V16.0059Z" fill="#242427"/>
</svg>
