<svg width="259" height="199" viewBox="0 0 259 199" fill="none" xmlns="http://www.w3.org/2000/svg">
<path d="M69.3191 39.7645C63.7908 39.5602 58.0342 39.0675 53.6115 36.4356C43.8649 31.0515 44.7903 17.4471 51.4603 9.94788C57.3852 2.72507 66.9395 0.874291 76.2534 1.00649C85.1107 1.05456 94.1603 2.53277 99.8087 9.07057C104.88 15.0315 107.693 25.3189 102.513 31.8928C98.8112 36.4356 92.3455 37.2528 85.9159 38.2022" fill="white"/>
<path d="M69.3191 39.7645C63.7908 39.5602 58.0342 39.0675 53.6115 36.4356C43.8649 31.0515 44.7903 17.4471 51.4603 9.94788C57.3852 2.72507 66.9395 0.874291 76.2534 1.00649C85.1107 1.05456 94.1603 2.53277 99.8087 9.07057C104.88 15.0315 107.693 25.3189 102.513 31.8928C98.8112 36.4356 92.3455 37.2528 85.9159 38.2022" stroke="#242427" stroke-width="1.8578" stroke-miterlimit="10"/>
<path d="M85.1277 26.5586H69.252V45.8234H85.1277V26.5586Z" fill="#D9D9D9" stroke="#242427" stroke-width="1.8578" stroke-miterlimit="10"/>
<path d="M92.3023 12.1836H62.1011C60.3355 12.1836 58.9043 13.6148 58.9043 15.3804V27.3864C58.9043 29.1519 60.3355 30.5831 62.1011 30.5831H92.3023C94.0679 30.5831 95.4991 29.1519 95.4991 27.3864V15.3804C95.4991 13.6148 94.0679 12.1836 92.3023 12.1836Z" fill="#EFEFEF" stroke="#242427" stroke-width="1.8578" stroke-miterlimit="10"/>
<path d="M66.0312 12.75V29.8156" stroke="#242427" stroke-width="1.8578" stroke-miterlimit="10"/>
<path d="M73.4492 12.75V29.8156" stroke="#242427" stroke-width="1.8578" stroke-miterlimit="10"/>
<path d="M80.875 12.75V29.8156" stroke="#242427" stroke-width="1.8578" stroke-miterlimit="10"/>
<path d="M88.2891 12.75V29.8156" stroke="#242427" stroke-width="1.8578" stroke-miterlimit="10"/>
<path d="M77.1916 198.174C119.823 198.174 154.383 194.434 154.383 189.821C154.383 185.208 119.823 181.469 77.1916 181.469C34.5599 181.469 0 185.208 0 189.821C0 194.434 34.5599 198.174 77.1916 198.174Z" fill="white"/>
<path d="M77.1886 192.334C118.108 192.334 151.28 159.163 151.28 118.243C151.28 77.324 118.108 44.1523 77.1886 44.1523C36.2693 44.1523 3.09766 77.324 3.09766 118.243C3.09766 159.163 36.2693 192.334 77.1886 192.334Z" fill="white" stroke="#242427" stroke-width="1.8578" stroke-miterlimit="10"/>
<path d="M77.1949 179.8C111.191 179.8 138.751 152.24 138.751 118.244C138.751 84.2471 111.191 56.6875 77.1949 56.6875C43.1983 56.6875 15.6387 84.2471 15.6387 118.244C15.6387 152.24 43.1983 179.8 77.1949 179.8Z" fill="#242427" stroke="#242427" stroke-width="1.8578" stroke-miterlimit="10"/>
<path d="M70.3538 69.7041C69.6087 69.8604 68.8515 69.9685 68.1064 70.0286C67.0488 70.1007 66.3157 69.4157 66.0874 68.1778C65.7749 66.5073 66.6883 65.5219 67.818 65.1012C68.7073 64.8128 69.7649 64.6445 70.9667 64.6445C72.5771 64.6445 73.5746 65.4137 73.6587 66.9881C73.851 70.7377 73.851 74.4993 73.6587 78.2489C73.5986 79.655 72.481 80.2439 71.0869 80.2439C69.6928 80.2439 68.5631 79.643 68.491 78.2489C68.3348 75.4006 68.3348 72.8288 68.491 70.3291C69.2001 70.2329 69.9091 70.0647 70.3538 69.6921V69.7041Z" fill="white"/>
<path d="M77.9967 80.1105C76.6507 80.1105 75.8215 79.1851 75.8215 77.7429V77.6107C75.8215 76.4931 76.3383 75.6638 77.1795 74.9067C78.7779 73.5006 80.869 72.0464 82.155 70.448C82.6116 69.8711 82.3833 69.2342 81.7343 69.2342C80.9652 69.2342 80.6767 69.4986 80.4244 70.0394C79.9437 71.133 78.0929 71.3494 77.0954 70.8326C75.9417 70.2317 75.485 68.9337 76.0618 67.6839C77.0834 65.4125 79.4389 64.5352 82.4674 64.5352C85.496 64.5352 87.9236 66.5181 87.9236 69.4385C87.9236 72.0704 85.0753 74.6423 81.8305 76.6854C82.7198 76.3609 83.4048 76.0124 84.0178 75.5677H86.157C87.6712 75.5677 88.2721 76.5892 88.2721 77.8391C88.2721 79.089 87.6712 80.1225 86.157 80.1225H77.9847L77.9967 80.1105Z" fill="white"/>
<path d="M124.838 40.7559C124.838 40.7559 135.967 32.8 140.461 30.793" stroke="#242427" stroke-width="1.8578" stroke-linecap="round" stroke-linejoin="round"/>
<path d="M120.74 29.7725C120.74 29.7725 123.673 23.9077 128.744 20.3984" stroke="#242427" stroke-width="1.8578" stroke-linecap="round" stroke-linejoin="round"/>
<path d="M21.2191 40.7559C21.2191 40.7559 10.0904 32.8 5.5957 30.793" stroke="#242427" stroke-width="1.8578" stroke-linecap="round" stroke-linejoin="round"/>
<path d="M25.3302 29.7725C25.3302 29.7725 22.3978 23.9077 17.3262 20.3984" stroke="#242427" stroke-width="1.8578" stroke-linecap="round" stroke-linejoin="round"/>
<path d="M100.793 75.685C100.541 75.685 100.276 75.6249 100.048 75.4807C99.5674 75.2043 99.291 74.6995 99.291 74.1827C99.291 73.9303 99.3511 73.666 99.4953 73.4376L99.9159 72.7045C100.337 71.9834 101.25 71.7431 101.971 72.1517C102.452 72.4281 102.716 72.9329 102.716 73.4496C102.716 73.702 102.656 73.9664 102.512 74.1948L102.091 74.9278C101.815 75.4086 101.31 75.673 100.793 75.673V75.685Z" fill="white"/>
<path d="M118.076 92.9542C117.56 92.9542 117.055 92.6898 116.779 92.2091C116.646 91.9688 116.574 91.7164 116.574 91.464C116.574 90.9472 116.839 90.4425 117.319 90.1661L118.04 89.7454C118.761 89.3368 119.675 89.5772 120.095 90.2983C120.228 90.5386 120.3 90.791 120.3 91.0434C120.3 91.5601 120.035 92.0649 119.543 92.3413L118.822 92.762C118.593 92.8942 118.329 92.9663 118.076 92.9663V92.9542Z" fill="white"/>
<path d="M125.202 116.56H124.397C123.568 116.56 122.895 115.887 122.895 115.058C122.895 114.229 123.568 113.556 124.397 113.556H124.817C124.938 113.52 125.07 113.508 125.214 113.508C126.043 113.508 126.716 114.193 126.716 115.022C126.716 115.022 126.716 115.058 126.716 115.082C126.716 115.923 126.043 116.56 125.214 116.56H125.202Z" fill="white"/>
<path d="M118.761 140.559C118.509 140.559 118.244 140.499 118.016 140.355L117.331 139.958C116.85 139.682 116.586 139.177 116.586 138.661C116.586 138.408 116.646 138.144 116.79 137.915C117.199 137.194 118.124 136.954 118.833 137.363L119.518 137.759C119.999 138.036 120.275 138.54 120.275 139.057C120.275 139.31 120.215 139.574 120.071 139.802C119.795 140.283 119.29 140.559 118.773 140.559H118.761Z" fill="white"/>
<path d="M101.19 158.119C100.673 158.119 100.168 157.854 99.8919 157.373L99.4953 156.688C99.3631 156.46 99.291 156.196 99.291 155.943C99.291 155.426 99.5554 154.922 100.048 154.645C100.769 154.225 101.683 154.477 102.091 155.198L102.488 155.883C102.62 156.124 102.692 156.376 102.692 156.628C102.692 157.145 102.428 157.65 101.947 157.926C101.707 158.058 101.454 158.131 101.202 158.131L101.19 158.119Z" fill="white"/>
<path d="M77.1898 164.535C76.3605 164.535 75.6875 163.862 75.6875 163.033V162.264C75.6875 161.435 76.3605 160.762 77.1898 160.762C78.019 160.762 78.692 161.435 78.692 162.264V163.033C78.692 163.862 78.019 164.535 77.1898 164.535Z" fill="white"/>
<path d="M53.2042 158.117C52.9518 158.117 52.6995 158.057 52.4591 157.925C52.387 157.889 52.3269 157.841 52.2788 157.805C52.2668 157.793 52.2428 157.781 52.2307 157.769C51.6779 157.312 51.5097 156.519 51.8702 155.882C51.9183 155.798 51.9664 155.725 52.0144 155.665L52.2788 155.197C52.6995 154.476 53.6128 154.235 54.3219 154.644C54.8026 154.92 55.079 155.425 55.079 155.942C55.079 156.194 55.0189 156.459 54.8747 156.687L54.4781 157.372C54.2858 157.708 53.9734 157.937 53.6369 158.057C53.6128 158.057 53.5888 158.069 53.5647 158.081C53.5647 158.081 53.5407 158.081 53.5287 158.081C53.4205 158.105 53.3003 158.117 53.1922 158.117H53.2042Z" fill="white"/>
<path d="M35.6213 140.559C35.1046 140.559 34.5998 140.295 34.3234 139.814C34.2873 139.754 34.2753 139.718 34.2513 139.67C33.9148 138.961 34.1672 138.108 34.8642 137.723C34.9603 137.663 35.0565 137.627 35.1406 137.603L35.5612 137.363C36.2823 136.954 37.1957 137.194 37.6043 137.915C37.7365 138.144 37.8086 138.408 37.8086 138.661C37.8086 139.177 37.5442 139.682 37.0635 139.958L36.3785 140.355C36.1381 140.487 35.8857 140.559 35.6334 140.559H35.6213Z" fill="white"/>
<path d="M29.9852 116.56H29.18C28.3507 116.56 27.6777 115.887 27.6777 115.058V115.022C27.6777 114.193 28.3507 113.52 29.18 113.52C29.3002 113.52 29.4083 113.532 29.5165 113.556H29.9852C30.8144 113.556 31.4874 114.229 31.4874 115.058C31.4874 115.887 30.8144 116.56 29.9852 116.56Z" fill="white"/>
<path d="M36.3185 92.9541C36.0661 92.9541 35.8017 92.8941 35.5734 92.7498L34.8523 92.3292C34.2875 92.0047 34.011 91.3678 34.1312 90.7669C34.1793 90.5626 34.2274 90.4184 34.3115 90.2862L34.3235 90.2621C34.6961 89.6252 35.4772 89.3608 36.1502 89.6252C36.2223 89.6492 36.2824 89.6853 36.3545 89.7213C36.4627 89.7814 36.5468 89.8415 36.631 89.9136L37.0756 90.166C37.5563 90.4424 37.8207 90.9472 37.8207 91.4639C37.8207 91.7163 37.7607 91.9807 37.6164 92.209C37.34 92.6898 36.8353 92.9541 36.3185 92.9541Z" fill="white"/>
<path d="M53.5918 75.6858C53.075 75.6858 52.5703 75.4214 52.2939 74.9407L51.8732 74.2076C51.4646 73.4985 51.705 72.5851 52.402 72.1645C52.5703 72.0684 52.7626 71.9963 52.9549 71.9602C53.5558 71.8641 54.1687 72.1405 54.4932 72.7053C54.5292 72.7774 54.5653 72.8495 54.5893 72.9096L54.8898 73.4384C55.022 73.6788 55.0941 73.9311 55.0941 74.1835C55.0941 74.7003 54.8297 75.2051 54.3369 75.4815C54.1086 75.6137 53.8442 75.6858 53.5918 75.6858Z" fill="white"/>
<path d="M77.2272 112.051H77.1671C75.5409 112.051 74.2227 113.369 74.2227 114.995V115.055C74.2227 116.681 75.5409 118 77.1671 118H77.2272C78.8533 118 80.1716 116.681 80.1716 115.055V114.995C80.1716 113.369 78.8533 112.051 77.2272 112.051Z" fill="white"/>
<path d="M77.1914 89.543V115.021" stroke="white" stroke-width="1.8578" stroke-miterlimit="10" stroke-linecap="round"/>
<path d="M193.974 198.497C227.048 198.497 253.859 195.011 253.859 190.71C253.859 186.409 227.048 182.922 193.974 182.922C160.9 182.922 134.088 186.409 134.088 190.71C134.088 195.011 160.9 198.497 193.974 198.497Z" fill="white"/>
<path d="M192.268 191.024L189.936 140.02H185.862L182.365 182.107C163.809 175.437 150.926 182.107 150.926 191.024H192.268Z" fill="white" stroke="#242427" stroke-width="1.8578" stroke-linecap="round" stroke-linejoin="round"/>
<path d="M181.463 181.723C182.917 182.324 184.383 182.924 185.837 184.114" stroke="#242427" stroke-width="1.8578" stroke-linecap="round" stroke-linejoin="round"/>
<path d="M196.809 191.024L199.14 140.02H203.214L206.711 182.107C225.267 175.437 238.151 182.107 238.151 191.024H196.809Z" fill="white" stroke="#242427" stroke-width="1.8578" stroke-linecap="round" stroke-linejoin="round"/>
<path d="M207.627 181.723C206.172 182.324 204.706 182.924 203.252 184.114" stroke="#242427" stroke-width="1.8578" stroke-linecap="round" stroke-linejoin="round"/>
<path fill-rule="evenodd" clip-rule="evenodd" d="M194.19 160.078C213.96 160.078 231.338 149.802 241.252 134.299C252.622 129.047 259.532 115.275 257.044 101.562C255.662 93.9427 251.636 87.7895 246.252 84.0039C238.152 63.1646 217.889 48.3945 194.19 48.3945C170.491 48.3945 151.069 62.5638 142.645 82.7179C136.239 86.2993 131.36 93.0053 129.798 101.562C127.154 116.092 135.073 130.694 147.668 135.14C157.679 150.175 174.769 160.078 194.178 160.078H194.19Z" fill="#242427" stroke="#F5F378" stroke-width="1.8578" stroke-miterlimit="10"/>
<path d="M185.057 95.4704C189.657 95.4704 193.385 89.9768 193.385 83.2001C193.385 76.4233 189.657 70.9297 185.057 70.9297C180.457 70.9297 176.729 76.4233 176.729 83.2001C176.729 89.9768 180.457 95.4704 185.057 95.4704Z" fill="white"/>
<path d="M201.711 95.4704C206.311 95.4704 210.04 89.9768 210.04 83.2001C210.04 76.4233 206.311 70.9297 201.711 70.9297C197.112 70.9297 193.383 76.4233 193.383 83.2001C193.383 89.9768 197.112 95.4704 201.711 95.4704Z" fill="white"/>
<path d="M185.935 91.084C189.081 91.084 191.631 87.5543 191.631 83.2002C191.631 78.8461 189.081 75.3164 185.935 75.3164C182.789 75.3164 180.238 78.8461 180.238 83.2002C180.238 87.5543 182.789 91.084 185.935 91.084Z" fill="#242427"/>
<path d="M200.391 91.084C203.298 91.084 205.655 87.5543 205.655 83.2002C205.655 78.8461 203.298 75.3164 200.391 75.3164C197.484 75.3164 195.127 78.8461 195.127 83.2002C195.127 87.5543 197.484 91.084 200.391 91.084Z" fill="#242427"/>
<path d="M193.012 112.078C200.379 112.078 206.364 107.691 206.364 102.283C206.364 96.8749 200.391 92.4883 193.024 92.4883C185.657 92.4883 179.684 96.8749 179.672 102.283C179.672 107.691 185.645 112.078 193.012 112.078Z" fill="white" stroke="#242427" stroke-width="1.8578" stroke-miterlimit="10"/>
<path d="M179.672 102.496C183.47 104.996 187.472 99.5039 192.892 99.5039C198.312 99.5039 200.727 104.996 207.097 102.496" stroke="#242427" stroke-width="1.8578"/>
<path d="M190.953 102.547L187.504 101.297H198.284L194.835 102.547C193.585 103.003 192.215 103.003 190.953 102.547Z" stroke="#242427" stroke-width="1.8578" stroke-linecap="round" stroke-linejoin="round"/>
<path fill-rule="evenodd" clip-rule="evenodd" d="M193.936 78.7654H209.463C208.261 74.1745 205.232 70.9297 201.699 70.9297C198.166 70.9297 195.137 74.1866 193.936 78.7654Z" fill="white"/>
<path fill-rule="evenodd" clip-rule="evenodd" d="M177.289 78.7654H192.816C191.615 74.1745 188.586 70.9297 185.053 70.9297C181.519 70.9297 178.491 74.1866 177.289 78.7654Z" fill="white"/>
</svg>
