<svg width="40" height="40" viewBox="0 0 40 40" fill="none" xmlns="http://www.w3.org/2000/svg">
<circle cx="20" cy="20" r="20" fill="#353538"/>
<path d="M13 28H27C28.66 28 30 26.66 30 25V16.5C30 14.84 28.66 13.5 27 13.5H25.34C25.14 13.5 24.95 13.38 24.88 13.19L24.76 12.89C24.3 11.75 23.2 11 21.97 11H18.03C16.8 11 15.7 11.75 15.24 12.89L15.12 13.19C15.04 13.38 14.86 13.5 14.66 13.5H13C11.34 13.5 10 14.84 10 16.5V25C10 26.66 11.34 28 13 28ZM25 16C25.55 16 26 16.45 26 17C26 17.55 25.55 18 25 18C24.45 18 24 17.55 24 17C24 16.45 24.45 16 25 16ZM20 16.75C22.21 16.75 24 18.54 24 20.75C24 22.96 22.21 24.75 20 24.75C17.79 24.75 16 22.96 16 20.75C16 18.54 17.79 16.75 20 16.75Z" fill="#E8E8E8"/>
<path d="M20 23.25C21.3807 23.25 22.5 22.1307 22.5 20.75C22.5 19.3693 21.3807 18.25 20 18.25C18.6193 18.25 17.5 19.3693 17.5 20.75C17.5 22.1307 18.6193 23.25 20 23.25Z" fill="#E8E8E8"/>
</svg>
