<svg width="376" height="540" viewBox="0 0 376 540" fill="none" xmlns="http://www.w3.org/2000/svg">
<g clip-path="url(#clip0_4116_64725)">
<path d="M43.1841 520.764C40.8879 517.782 39.7569 514.064 40.0028 510.308V443.564C39.753 439.807 40.8844 436.089 43.1841 433.108C44.3685 431.846 45.8177 430.863 47.4277 430.228C49.0376 429.594 50.7682 429.324 52.4948 429.439H82.8872C93.3644 429.439 101.89 431.432 108.465 435.42C111.628 437.272 114.218 439.96 115.95 443.19C117.683 446.419 118.491 450.064 118.285 453.723C118.443 458.617 116.806 463.399 113.683 467.169C110.324 470.95 105.88 473.602 100.957 474.762C106.468 475.614 111.564 478.199 115.507 482.143C117.377 484.069 118.84 486.351 119.809 488.854C120.778 491.358 121.234 494.03 121.148 496.713C121.333 502.227 119.643 507.64 116.355 512.069C112.794 516.481 107.992 519.724 102.569 521.379C95.7125 523.544 88.5488 524.575 81.3602 524.433H52.4948C50.7682 524.548 49.0376 524.278 47.4277 523.644C45.8177 523.009 44.3685 522.026 43.1841 520.764ZM87.7228 465.621C89.3011 465.118 90.6764 464.122 91.6465 462.779C92.598 461.35 93.0799 459.66 93.0251 457.944C93.1105 456.725 92.8893 455.504 92.3818 454.393C91.8742 453.281 91.0965 452.314 90.1194 451.581C87.3924 449.974 84.2415 449.235 81.0844 449.46H64.287V466.427H81.1057C83.339 466.508 85.5698 466.207 87.7016 465.536L87.7228 465.621ZM92.1343 501.91C93.2245 501.085 94.0921 500.001 94.6587 498.757C95.2252 497.513 95.4729 496.147 95.3793 494.783C95.5029 493.413 95.2758 492.035 94.7192 490.777C94.1626 489.519 93.2949 488.423 92.1979 487.594C89.0979 485.934 85.5869 485.198 82.0813 485.473H64.287V504.2H82.0601C85.5756 504.461 89.0862 503.632 92.1131 501.825L92.1343 501.91Z" fill="#242427"/>
<path d="M130.095 447.764C128.943 446.743 128.02 445.489 127.388 444.085C126.756 442.681 126.43 441.159 126.43 439.619C126.43 438.08 126.756 436.558 127.388 435.154C128.02 433.75 128.943 432.496 130.095 431.475C132.651 429.268 135.947 428.109 139.321 428.23C142.612 428.113 145.82 429.276 148.271 431.475C149.397 432.512 150.296 433.771 150.911 435.173C151.526 436.575 151.843 438.089 151.843 439.619C151.843 441.15 151.526 442.664 150.911 444.066C150.296 445.468 149.397 446.727 148.271 447.764C145.792 449.957 142.566 451.118 139.258 451.009C135.902 451.13 132.626 449.97 130.095 447.764ZM130.435 523.331C128.23 520.47 127.144 516.903 127.381 513.299V468.761C127.142 465.182 128.229 461.641 130.435 458.814C132.788 456.631 135.879 455.419 139.088 455.419C142.297 455.419 145.388 456.631 147.741 458.814C149.915 461.686 150.971 465.252 150.71 468.845V513.384C150.94 516.974 149.888 520.529 147.741 523.416C145.433 525.685 142.325 526.957 139.088 526.957C135.851 526.957 132.743 525.685 130.435 523.416V523.331Z" fill="#242427"/>
<path d="M190.815 524.158C187.654 522.385 184.975 519.865 183.01 516.82C182.562 520.074 180.885 523.034 178.323 525.091C176.429 526.309 174.212 526.93 171.96 526.873C170.341 526.977 168.719 526.712 167.216 526.098C165.714 525.485 164.37 524.539 163.286 523.331C161.099 520.358 160.039 516.705 160.295 513.023V440.574C160.061 436.973 161.122 433.407 163.286 430.521C164.346 429.335 165.658 428.403 167.127 427.794C168.595 427.185 170.182 426.913 171.769 427C173.388 426.884 175.012 427.141 176.516 427.751C178.02 428.362 179.364 429.309 180.444 430.521C182.608 433.407 183.669 436.973 183.434 440.574V461.592C183.437 462.188 183.395 462.783 183.307 463.373C183.307 463.903 183.116 464.54 183.031 465.261C185.285 462.09 188.28 459.519 191.754 457.77C195.229 456.022 199.079 455.149 202.968 455.229C208.007 455.22 212.947 456.631 217.22 459.301C221.854 462.262 225.536 466.496 227.825 471.496C230.645 477.62 232.017 484.311 231.833 491.051C232.007 497.761 230.711 504.428 228.037 510.584C225.908 515.541 222.349 519.75 217.816 522.674C213.282 525.599 207.98 527.104 202.586 527C198.482 527.094 194.424 526.114 190.815 524.158ZM201.801 506.788C203.848 505.103 205.413 502.908 206.34 500.425C207.49 497.466 208.045 494.309 207.973 491.136C208.055 487.851 207.501 484.581 206.34 481.507C205.446 479.042 203.872 476.88 201.801 475.271C199.816 473.824 197.406 473.078 194.951 473.15C192.537 473.093 190.172 473.839 188.228 475.271C186.163 476.886 184.591 479.046 183.689 481.507C182.548 484.6 182.009 487.882 182.098 491.178C182.037 494.351 182.591 497.506 183.731 500.467C184.665 502.947 186.229 505.14 188.27 506.83C190.178 508.351 192.553 509.168 194.993 509.142C197.465 509.162 199.869 508.33 201.801 506.788Z" fill="#242427"/>
<path d="M267.466 524.156C264.31 522.383 261.638 519.864 259.682 516.818C259.573 517.998 259.25 519.148 258.728 520.212C258.067 522.211 256.752 523.929 254.995 525.09C253.099 526.305 250.883 526.926 248.632 526.871C247.012 526.985 245.387 526.724 243.883 526.11C242.379 525.496 241.036 524.545 239.958 523.329C237.771 520.357 236.711 516.703 236.967 513.022V440.572C236.733 436.972 237.794 433.406 239.958 430.519C241.018 429.334 242.33 428.402 243.799 427.793C245.267 427.183 246.854 426.912 248.441 426.998C250.059 426.89 251.681 427.151 253.184 427.761C254.686 428.371 256.031 429.314 257.116 430.519C259.28 433.406 260.341 436.972 260.106 440.572V461.59C260.113 462.187 260.063 462.784 259.958 463.372C259.958 463.902 259.788 464.538 259.703 465.259C261.814 462.255 264.605 459.792 267.848 458.07C271.474 456.118 275.544 455.139 279.661 455.228C284.7 455.218 289.64 456.63 293.913 459.3C298.542 462.267 302.222 466.499 304.518 471.495C307.338 477.618 308.71 484.31 308.526 491.049C308.7 497.759 307.404 504.426 304.73 510.583C302.601 515.54 299.042 519.749 294.509 522.673C289.975 525.597 284.673 527.103 279.279 526.998C275.161 527.098 271.088 526.118 267.466 524.156ZM278.473 506.786C280.514 505.096 282.078 502.903 283.012 500.424C284.152 497.462 284.706 494.307 284.645 491.134C284.716 487.85 284.162 484.582 283.012 481.505C282.11 479.044 280.538 476.885 278.473 475.27C276.487 473.825 274.078 473.08 271.623 473.149C269.208 473.089 266.842 473.835 264.899 475.27C262.828 476.878 261.255 479.04 260.361 481.505C259.2 484.579 258.645 487.849 258.728 491.134C258.656 494.308 259.211 497.465 260.361 500.424C261.287 502.907 262.853 505.102 264.899 506.786C266.808 508.308 269.182 509.124 271.623 509.098C274.104 509.136 276.522 508.32 278.473 506.786Z" fill="#242427"/>
<path d="M316.525 447.763C315.373 446.742 314.45 445.489 313.818 444.085C313.186 442.681 312.859 441.159 312.859 439.619C312.859 438.079 313.186 436.557 313.818 435.153C314.45 433.75 315.373 432.496 316.525 431.475C319.081 429.268 322.376 428.109 325.751 428.23C329.078 428.085 332.329 429.25 334.807 431.475C335.946 432.517 336.843 433.795 337.437 435.22C338.03 436.645 338.305 438.183 338.243 439.725C338.268 441.263 337.959 442.788 337.337 444.194C336.714 445.6 335.793 446.854 334.637 447.869C332.158 450.063 328.932 451.224 325.624 451.114C322.276 451.191 319.024 449.993 316.525 447.763ZM316.864 523.331C314.66 520.469 313.574 516.903 313.81 513.299V468.76C313.571 465.182 314.659 461.641 316.864 458.813C319.217 456.631 322.308 455.418 325.518 455.418C328.727 455.418 331.818 456.631 334.171 458.813C336.353 461.683 337.416 465.249 337.161 468.845V513.384C337.396 516.978 336.335 520.537 334.171 523.415C331.862 525.685 328.755 526.956 325.518 526.956C322.28 526.956 319.173 525.685 316.864 523.415V523.331Z" fill="#242427"/>
</g>
<path d="M116.683 196.708C110.328 196.473 103.711 195.907 98.6275 192.881C87.4239 186.692 88.4876 171.054 96.1547 162.434C102.965 154.131 113.948 152.004 124.654 152.156C134.835 152.211 145.238 153.91 151.731 161.425C157.56 168.277 160.793 180.103 154.839 187.659C150.584 192.881 143.152 193.821 135.761 194.912" fill="white"/>
<path d="M116.683 196.708C110.328 196.473 103.711 195.907 98.6275 192.881C87.4239 186.692 88.4876 171.054 96.1547 162.434C102.965 154.131 113.948 152.004 124.654 152.156C134.835 152.211 145.238 153.91 151.731 161.425C157.56 168.277 160.793 180.103 154.839 187.659C150.584 192.881 143.152 193.821 135.761 194.912" stroke="#242427" stroke-width="2" stroke-miterlimit="10"/>
<path d="M134.851 181.525H116.602V203.67H134.851V181.525Z" fill="#D9D9D9" stroke="#242427" stroke-width="2" stroke-miterlimit="10"/>
<path d="M143.098 165.002H108.382C106.352 165.002 104.707 166.647 104.707 168.677V182.477C104.707 184.507 106.352 186.152 108.382 186.152H143.098C145.127 186.152 146.772 184.507 146.772 182.477V168.677C146.772 166.647 145.127 165.002 143.098 165.002Z" fill="#EFEFEF" stroke="#242427" stroke-width="2" stroke-miterlimit="10"/>
<path d="M112.898 165.652V185.269" stroke="#242427" stroke-width="2" stroke-miterlimit="10"/>
<path d="M121.426 165.652V185.269" stroke="#242427" stroke-width="2" stroke-miterlimit="10"/>
<path d="M129.961 165.652V185.269" stroke="#242427" stroke-width="2" stroke-miterlimit="10"/>
<path d="M138.484 165.652V185.269" stroke="#242427" stroke-width="2" stroke-miterlimit="10"/>
<path d="M125.731 378.798C174.736 378.798 214.462 374.499 214.462 369.197C214.462 363.894 174.736 359.596 125.731 359.596C76.7262 359.596 37 363.894 37 369.197C37 374.499 76.7262 378.798 125.731 378.798Z" fill="white"/>
<path d="M125.729 202.752C79.2452 202.752 41.5625 240.435 41.5625 286.919C41.5625 333.403 79.2452 371.085 125.729 371.085C165.079 371.085 198.122 344.082 207.337 307.595C207.136 307.303 206.937 307.009 206.74 306.713C192.263 301.602 183.159 284.818 186.198 268.116C187.905 258.764 193.06 251.334 199.893 247.087C185.687 220.693 157.803 202.752 125.729 202.752Z" fill="white"/>
<path d="M200.822 248.865C194.561 252.809 189.768 259.699 188.165 268.474C185.28 284.329 193.965 300.082 207.406 304.828L207.945 305.018C209.223 299.188 209.896 293.132 209.896 286.919C209.896 273.224 206.625 260.293 200.822 248.865Z" fill="white"/>
<path d="M190.684 256.369C179.209 232.016 154.44 215.16 125.735 215.16C86.1038 215.16 53.9766 247.287 53.9766 286.918C53.9766 326.549 86.1038 358.676 125.735 358.676C160.828 358.676 190.038 333.485 196.266 300.199C188.212 292.489 183.984 280.281 186.198 268.116C186.998 263.736 188.554 259.777 190.684 256.369Z" fill="#242427"/>
<path d="M191.687 258.596L191.688 258.598C190.047 261.515 188.832 264.832 188.167 268.474C186.157 279.519 189.762 290.514 196.677 297.773L196.677 297.774C189.761 290.515 186.156 279.52 188.165 268.474C188.831 264.832 190.046 261.514 191.687 258.596Z" fill="#242427"/>
<path d="M117.87 231.121C117.013 231.3 116.143 231.425 115.287 231.494C114.071 231.577 113.228 230.789 112.966 229.366C112.607 227.446 113.657 226.313 114.955 225.83C115.977 225.498 117.193 225.305 118.575 225.305C120.426 225.305 121.572 226.189 121.669 227.999C121.89 232.309 121.89 236.633 121.669 240.943C121.6 242.559 120.315 243.236 118.713 243.236C117.11 243.236 115.812 242.545 115.729 240.943C115.549 237.669 115.549 234.712 115.729 231.839C116.544 231.728 117.359 231.535 117.87 231.107V231.121Z" fill="white"/>
<path d="M126.655 243.083C125.108 243.083 124.155 242.02 124.155 240.362V240.21C124.155 238.925 124.749 237.972 125.716 237.102C127.553 235.485 129.957 233.814 131.435 231.976C131.96 231.313 131.698 230.581 130.952 230.581C130.067 230.581 129.736 230.885 129.446 231.507C128.893 232.764 126.766 233.013 125.619 232.419C124.293 231.728 123.768 230.236 124.431 228.799C125.605 226.188 128.313 225.18 131.794 225.18C135.276 225.18 138.066 227.459 138.066 230.816C138.066 233.841 134.792 236.798 131.062 239.146C132.084 238.773 132.872 238.373 133.576 237.861H136.035C137.776 237.861 138.467 239.036 138.467 240.472C138.467 241.909 137.776 243.097 136.035 243.097H126.641L126.655 243.083Z" fill="white"/>
<path d="M180.5 197.851C180.5 197.851 193.292 188.705 198.459 186.398" stroke="#242427" stroke-width="2" stroke-linecap="round" stroke-linejoin="round"/>
<path d="M175.789 185.225C175.789 185.225 179.16 178.483 184.99 174.449" stroke="#242427" stroke-width="2" stroke-linecap="round" stroke-linejoin="round"/>
<path d="M61.3925 197.851C61.3925 197.851 48.6002 188.705 43.4336 186.398" stroke="#242427" stroke-width="2" stroke-linecap="round" stroke-linejoin="round"/>
<path d="M66.1185 185.225C66.1185 185.225 62.7477 178.483 56.918 174.449" stroke="#242427" stroke-width="2" stroke-linecap="round" stroke-linejoin="round"/>
<path d="M152.864 237.999C152.573 237.999 152.27 237.93 152.007 237.764C151.454 237.446 151.137 236.866 151.137 236.272C151.137 235.982 151.206 235.678 151.372 235.415L151.855 234.573C152.339 233.744 153.388 233.468 154.217 233.937C154.77 234.255 155.074 234.835 155.074 235.429C155.074 235.719 155.005 236.023 154.839 236.286L154.356 237.128C154.038 237.681 153.458 237.985 152.864 237.985V237.999Z" fill="white"/>
<path d="M172.727 257.85C172.133 257.85 171.553 257.546 171.235 256.994C171.083 256.718 171 256.427 171 256.137C171 255.543 171.304 254.963 171.857 254.645L172.685 254.162C173.514 253.692 174.564 253.968 175.048 254.797C175.2 255.074 175.283 255.364 175.283 255.654C175.283 256.248 174.979 256.828 174.412 257.146L173.583 257.629C173.321 257.781 173.017 257.864 172.727 257.864V257.85Z" fill="white"/>
<path d="M180.922 284.984H179.996C179.043 284.984 178.27 284.21 178.27 283.257C178.27 282.303 179.043 281.53 179.996 281.53H180.48C180.618 281.488 180.77 281.475 180.936 281.475C181.889 281.475 182.663 282.262 182.663 283.215C182.663 283.215 182.663 283.257 182.663 283.284C182.663 284.251 181.889 284.984 180.936 284.984H180.922Z" fill="white"/>
<path d="M173.516 312.569C173.226 312.569 172.922 312.5 172.66 312.334L171.872 311.878C171.32 311.56 171.016 310.98 171.016 310.386C171.016 310.096 171.085 309.792 171.25 309.53C171.72 308.701 172.784 308.425 173.599 308.894L174.386 309.35C174.939 309.668 175.257 310.248 175.257 310.842C175.257 311.132 175.188 311.436 175.022 311.699C174.704 312.251 174.124 312.569 173.53 312.569H173.516Z" fill="white"/>
<path d="M153.319 332.754C152.725 332.754 152.145 332.45 151.827 331.898L151.372 331.11C151.22 330.848 151.137 330.544 151.137 330.254C151.137 329.66 151.441 329.079 152.007 328.762C152.836 328.278 153.886 328.568 154.356 329.397L154.811 330.185C154.963 330.461 155.046 330.751 155.046 331.041C155.046 331.635 154.742 332.215 154.19 332.533C153.913 332.685 153.623 332.768 153.333 332.768L153.319 332.754Z" fill="white"/>
<path d="M125.731 340.131C124.778 340.131 124.004 339.357 124.004 338.404V337.52C124.004 336.567 124.778 335.793 125.731 335.793C126.684 335.793 127.458 336.567 127.458 337.52V338.404C127.458 339.357 126.684 340.131 125.731 340.131Z" fill="white"/>
<path d="M98.1587 332.754C97.8686 332.754 97.5785 332.685 97.3022 332.533C97.2193 332.491 97.1502 332.436 97.0949 332.395C97.0811 332.381 97.0535 332.367 97.0397 332.353C96.4042 331.828 96.2108 330.917 96.6253 330.184C96.6805 330.088 96.7358 330.005 96.791 329.936L97.0949 329.397C97.5785 328.568 98.6284 328.292 99.4434 328.761C99.996 329.079 100.314 329.659 100.314 330.253C100.314 330.544 100.245 330.847 100.079 331.11L99.623 331.897C99.402 332.284 99.0428 332.547 98.656 332.685C98.6284 332.685 98.6007 332.699 98.5731 332.712C98.5731 332.712 98.5455 332.712 98.5317 332.712C98.4073 332.74 98.2692 332.754 98.1449 332.754H98.1587Z" fill="white"/>
<path d="M77.9478 312.569C77.3538 312.569 76.7736 312.265 76.4559 311.712C76.4144 311.643 76.4006 311.602 76.373 311.547C75.9862 310.732 76.2763 309.751 77.0775 309.309C77.188 309.24 77.2986 309.198 77.3953 309.171L77.8788 308.894C78.7076 308.425 79.7576 308.701 80.2272 309.53C80.3792 309.792 80.4621 310.096 80.4621 310.386C80.4621 310.98 80.1582 311.56 79.6056 311.878L78.8182 312.334C78.5419 312.486 78.2518 312.569 77.9617 312.569H77.9478Z" fill="white"/>
<path d="M71.4688 284.983H70.5432C69.59 284.983 68.8164 284.21 68.8164 283.257V283.215C68.8164 282.262 69.59 281.488 70.5432 281.488C70.6814 281.488 70.8057 281.502 70.93 281.53H71.4688C72.422 281.53 73.1956 282.303 73.1956 283.257C73.1956 284.21 72.422 284.983 71.4688 284.983Z" fill="white"/>
<path d="M78.7492 257.85C78.4591 257.85 78.1552 257.781 77.8927 257.615L77.0638 257.131C76.4146 256.758 76.0968 256.026 76.235 255.336C76.2902 255.101 76.3455 254.935 76.4422 254.783L76.456 254.755C76.8843 254.023 77.7822 253.719 78.5558 254.023C78.6387 254.051 78.7078 254.092 78.7907 254.134C78.915 254.203 79.0117 254.272 79.1084 254.355L79.6195 254.645C80.1721 254.963 80.476 255.543 80.476 256.137C80.476 256.427 80.407 256.731 80.2412 256.993C79.9235 257.546 79.3432 257.85 78.7492 257.85Z" fill="white"/>
<path d="M98.6031 237.999C98.0091 237.999 97.4289 237.696 97.1112 237.143L96.6277 236.3C96.158 235.485 96.4343 234.435 97.2355 233.952C97.4289 233.841 97.6499 233.758 97.871 233.717C98.5617 233.606 99.2662 233.924 99.6392 234.573C99.6807 234.656 99.7221 234.739 99.7498 234.808L100.095 235.416C100.247 235.692 100.33 235.982 100.33 236.273C100.33 236.867 100.026 237.447 99.4596 237.765C99.1972 237.917 98.8933 237.999 98.6031 237.999Z" fill="white"/>
<path d="M125.774 279.801H125.705C123.836 279.801 122.32 281.316 122.32 283.185V283.254C122.32 285.124 123.836 286.639 125.705 286.639H125.774C127.643 286.639 129.159 285.124 129.159 283.254V283.185C129.159 281.316 127.643 279.801 125.774 279.801Z" fill="white"/>
<path d="M125.73 253.928V283.215" stroke="white" stroke-width="2" stroke-miterlimit="10" stroke-linecap="round"/>
<path d="M259.967 379.169C297.985 379.169 328.805 375.161 328.805 370.217C328.805 365.274 297.985 361.266 259.967 361.266C221.949 361.266 191.129 365.274 191.129 370.217C191.129 375.161 221.949 379.169 259.967 379.169Z" fill="white"/>
<path d="M258.006 370.578L255.326 311.949H250.643L246.623 360.328C225.294 352.661 210.484 360.328 210.484 370.578H258.006Z" fill="white"/>
<path d="M263.227 370.578L265.907 311.949H270.59L274.61 360.328C295.939 352.661 310.749 360.328 310.749 370.578H263.227Z" fill="white"/>
<path d="M125.731 202.752C79.2472 202.752 41.5645 240.435 41.5645 286.919C41.5645 333.403 79.2472 371.085 125.731 371.085C165.081 371.085 198.124 344.082 207.339 307.595C207.831 308.307 208.336 309.008 208.855 309.699C198.865 346.233 165.434 373.085 125.731 373.085C78.1426 373.085 39.5645 334.507 39.5645 286.919C39.5645 239.33 78.1426 200.752 125.731 200.752C158.335 200.752 186.709 218.86 201.346 245.568C201.218 245.862 201.092 246.158 200.968 246.454C200.606 246.657 200.248 246.868 199.895 247.087C185.689 220.693 157.805 202.752 125.731 202.752Z" fill="#242427"/>
<path d="M207.947 305.018L208.037 305.05L208.407 305.605C208.763 306.14 209.127 306.669 209.499 307.192C209.499 307.192 209.5 307.191 209.5 307.191C209.128 306.668 208.764 306.139 208.408 305.605L208.038 305.05L207.947 305.018C207.947 305.018 207.947 305.018 207.947 305.018Z" fill="#242427"/>
<path d="M202.552 247.849C202.552 247.85 202.553 247.85 202.553 247.851L202.548 247.863L201.945 248.2C201.567 248.412 201.193 248.633 200.825 248.866C200.825 248.865 200.825 248.866 200.825 248.866C201.193 248.634 201.566 248.411 201.944 248.2L202.546 247.863L202.552 247.849Z" fill="#242427"/>
<path d="M318.912 249.569C324.647 253.601 329 260.202 330.5 268.473C333.212 283.423 325.642 298.311 313.477 303.931L312.946 304.176L312.63 304.669C301.586 321.939 282.233 333.379 260.218 333.379H260.204C238.591 333.379 219.559 322.354 208.406 305.605L208.036 305.05L207.407 304.828C193.966 300.082 185.282 284.329 188.167 268.474C189.863 259.183 195.137 252.005 201.943 248.2L202.546 247.863L202.812 247.226C212.2 224.767 233.82 209 260.218 209C286.608 209 309.176 225.446 318.198 248.657L318.417 249.221L318.912 249.569Z" fill="#242427"/>
<path fill-rule="evenodd" clip-rule="evenodd" d="M244.66 359.485C244.871 358.975 245.456 358.732 245.966 358.943C245.992 358.954 246.017 358.964 246.043 358.975C247.685 359.653 249.473 360.392 251.246 361.842C251.674 362.192 251.737 362.822 251.387 363.25C251.037 363.677 250.407 363.74 249.98 363.39C248.437 362.128 246.883 361.486 245.203 360.791C244.692 360.58 244.449 359.996 244.66 359.485Z" fill="#242427"/>
<path d="M247.793 334.162L245.733 358.942C235.437 355.48 226.609 355.527 220.223 357.773C213.592 360.105 209.484 364.881 209.484 370.561C209.484 371.113 209.932 371.561 210.484 371.561H258.006C258.28 371.561 258.541 371.449 258.729 371.251C258.918 371.054 259.018 370.788 259.005 370.515L257.396 335.301C256.724 335.272 256.055 335.233 255.388 335.183L256.96 369.561H211.538C211.984 365.386 215.229 361.65 220.887 359.66C226.986 357.515 235.777 357.474 246.285 361.251C246.578 361.357 246.903 361.32 247.164 361.151C247.426 360.983 247.594 360.703 247.62 360.393L249.77 334.517C249.107 334.409 248.448 334.291 247.793 334.162Z" fill="#242427"/>
<path d="M249.718 260.739C255.005 260.739 259.291 254.424 259.291 246.634C259.291 238.844 255.005 232.529 249.718 232.529C244.431 232.529 240.145 238.844 240.145 246.634C240.145 254.424 244.431 260.739 249.718 260.739Z" fill="white"/>
<path d="M268.863 260.739C274.15 260.739 278.436 254.424 278.436 246.634C278.436 238.844 274.15 232.529 268.863 232.529C263.575 232.529 259.289 238.844 259.289 246.634C259.289 254.424 263.575 260.739 268.863 260.739Z" fill="white"/>
<path d="M250.728 255.697C254.344 255.697 257.276 251.64 257.276 246.635C257.276 241.63 254.344 237.572 250.728 237.572C247.111 237.572 244.18 241.63 244.18 246.635C244.18 251.64 247.111 255.697 250.728 255.697Z" fill="#242427"/>
<path d="M267.344 255.697C270.685 255.697 273.395 251.64 273.395 246.635C273.395 241.63 270.685 237.572 267.344 237.572C264.002 237.572 261.293 241.63 261.293 246.635C261.293 251.64 264.002 255.697 267.344 255.697Z" fill="#242427"/>
<path d="M258.862 279.83C267.33 279.83 274.209 274.788 274.209 268.571C274.209 262.355 267.344 257.312 258.875 257.312C250.407 257.312 243.541 262.355 243.527 268.571C243.527 274.788 250.393 279.83 258.862 279.83Z" fill="white"/>
<path fill-rule="evenodd" clip-rule="evenodd" d="M247.439 259.805C250.405 257.628 254.45 256.312 258.875 256.312C263.3 256.312 267.346 257.628 270.31 259.805C273.273 261.98 275.209 265.068 275.209 268.571C275.209 272.075 273.269 275.163 270.302 277.338C267.335 279.514 263.286 280.83 258.862 280.83C254.437 280.83 250.391 279.514 247.427 277.338C244.464 275.162 242.527 272.074 242.527 268.571L242.527 268.569C242.535 265.067 244.475 261.98 247.439 259.805ZM244.527 268.572C244.528 271.286 246.024 273.827 248.611 275.726C251.197 277.625 254.818 278.83 258.862 278.83C262.905 278.83 266.53 277.625 269.12 275.726C271.71 273.826 273.209 271.284 273.209 268.571C273.209 265.858 271.713 263.316 269.126 261.417C266.54 259.518 262.919 258.312 258.875 258.312C254.832 258.312 251.211 259.518 248.623 261.417C246.034 263.316 244.534 265.858 244.527 268.572Z" fill="#242427"/>
<path fill-rule="evenodd" clip-rule="evenodd" d="M250.867 269.073C248.443 270.268 245.685 271.437 242.977 269.654L244.076 267.983C245.733 269.074 247.458 268.523 249.983 267.279C250.266 267.14 250.557 266.993 250.857 266.841C253.067 265.723 255.722 264.379 258.722 264.379C261.571 264.379 263.814 265.6 265.774 266.668C266.171 266.884 266.556 267.094 266.932 267.286C268.089 267.876 269.199 268.337 270.421 268.503C271.627 268.666 273.002 268.549 274.686 267.888L275.417 269.75C273.44 270.525 271.722 270.697 270.153 270.484C268.6 270.274 267.254 269.695 266.023 269.067C265.562 268.832 265.12 268.593 264.689 268.36C262.745 267.311 261.018 266.379 258.722 266.379C256.234 266.379 254.033 267.485 251.78 268.617C251.477 268.77 251.173 268.923 250.867 269.073Z" fill="#242427"/>
<path fill-rule="evenodd" clip-rule="evenodd" d="M251.546 267.265C251.63 266.786 252.046 266.438 252.531 266.438H264.923C265.409 266.438 265.824 266.786 265.908 267.265C265.992 267.743 265.72 268.212 265.264 268.378L261.301 269.813C261.301 269.814 261.301 269.814 261.3 269.814C259.641 270.42 257.825 270.419 256.156 269.815L252.191 268.378C251.734 268.212 251.462 267.743 251.546 267.265Z" fill="#242427"/>
<path fill-rule="evenodd" clip-rule="evenodd" d="M259.926 241.536H277.774C276.393 236.259 272.911 232.529 268.85 232.529C264.789 232.529 261.307 236.273 259.926 241.536Z" fill="white"/>
<path fill-rule="evenodd" clip-rule="evenodd" d="M240.789 241.536H258.637C257.256 236.259 253.775 232.529 249.713 232.529C245.652 232.529 242.171 236.273 240.789 241.536Z" fill="white"/>
<path d="M262.228 370.515L263.839 335.26C264.511 335.223 265.181 335.175 265.848 335.117L264.273 369.561H309.695C309.249 365.386 306.004 361.649 300.346 359.66C294.247 357.515 285.456 357.474 274.948 361.251L274.945 361.252C273.676 361.801 272.467 362.408 271.266 363.391C270.839 363.74 270.209 363.677 269.859 363.25C269.509 362.822 269.572 362.192 270 361.843C271.194 360.865 272.395 360.211 273.554 359.681L271.452 334.381C272.114 334.264 272.772 334.137 273.427 334L275.494 358.881C275.569 358.869 275.644 358.865 275.718 358.869C285.92 355.48 294.669 355.543 301.01 357.773C307.641 360.105 311.749 364.881 311.749 370.561C311.749 371.113 311.301 371.561 310.749 371.561H263.227C262.953 371.561 262.692 371.449 262.503 371.251C262.315 371.054 262.215 370.788 262.228 370.515Z" fill="#242427"/>
<path d="M245.695 111.593C246.529 111.593 248.595 110.993 250.195 108.593" stroke="#242427" stroke-width="2" stroke-linecap="round" stroke-linejoin="round"/>
<path d="M284.493 84.5302L285.077 83.7184L284.493 84.5302L287.208 86.4835L286.189 89.6694C285.806 90.8689 287.181 91.8585 288.197 91.1135L290.893 89.1349L293.609 91.0882C294.631 91.8237 295.997 90.8213 295.602 89.6254L294.554 86.4492L297.251 84.4706C298.266 83.7256 297.735 82.1165 296.475 82.1224L293.131 82.1381L292.082 78.9618C291.687 77.766 289.993 77.7739 289.61 78.9734L288.591 82.1593L285.246 82.1749C283.987 82.1808 283.471 83.7947 284.493 84.5302ZM290.481 88.8378L290.481 88.8382C290.481 88.8381 290.481 88.838 290.481 88.8378L290.889 88.2696L290.481 88.8378Z" fill="#D9D9D9" stroke="#242427" stroke-width="2"/>
<path d="M294.195 102.093L299.195 103.593M299.195 103.593L296.195 108.093M299.195 103.593L302.695 108.093M299.195 103.593L304.195 102.093M299.195 103.593V98.5928" stroke="#242427" stroke-width="2" stroke-linecap="round" stroke-linejoin="round"/>
<path d="M272.195 89.5401L276.195 90.8033M276.195 90.8033L273.795 94.5928M276.195 90.8033L278.995 94.5928M276.195 90.8033L280.195 89.5401M276.195 90.8033V86.5928" stroke="#242427" stroke-width="2" stroke-linecap="round" stroke-linejoin="round"/>
<path d="M242.195 52.0928L247.195 53.5928M247.195 53.5928L244.195 58.0928M247.195 53.5928L250.695 58.0928M247.195 53.5928L252.195 52.0928M247.195 53.5928V48.5928" stroke="#242427" stroke-width="2" stroke-linecap="round" stroke-linejoin="round"/>
<path d="M266.195 117.593V110.593L273.695 114.093V121.093L266.195 117.593Z" fill="#D9D9D9" stroke="#242427" stroke-width="2" stroke-linecap="round" stroke-linejoin="round"/>
<path d="M224.054 63.3147L220.391 69.2793L215.832 62.3715L219.496 56.4069L224.054 63.3147Z" fill="#D9D9D9" stroke="#242427" stroke-width="2" stroke-linecap="round" stroke-linejoin="round"/>
<path d="M256.826 90.9901C257.905 81.5502 265.424 61.3411 275.003 64.4226C279.054 65.7257 274.659 72.0634 272.379 70.3902C269.097 70.1937 267.249 60.0491 279.871 56.5928" stroke="#242427" stroke-width="2" stroke-linecap="round" stroke-linejoin="round"/>
<path d="M240.195 71.0928C241.029 72.2594 244.095 74.8928 249.695 76.0928" stroke="#242427" stroke-width="2" stroke-linecap="round" stroke-linejoin="round"/>
<path d="M248.195 87.5928C248.529 89.4261 248.695 93.3928 246.695 94.5928" stroke="#242427" stroke-width="2" stroke-linecap="round" stroke-linejoin="round"/>
<path d="M231.695 52.0928C232.029 54.9261 233.495 61.9928 236.695 67.5928" stroke="#242427" stroke-width="2" stroke-linecap="round" stroke-linejoin="round"/>
<path d="M284.414 58.6183L285.494 46.7383L289.5 49.0004L292.514 55.3783L284.414 58.6183Z" fill="white" stroke="#242427" stroke-width="2" stroke-linecap="round" stroke-linejoin="round"/>
<path d="M328.695 26.7578L274.695 39.7178L289.275 48.3578L296.835 64.5578L328.695 26.7578Z" fill="white" stroke="#242427" stroke-width="2" stroke-linecap="round" stroke-linejoin="round"/>
<path d="M289.273 48.3579C291.973 46.3779 298.021 42.3099 300.613 41.8779" stroke="#242427" stroke-width="2" stroke-linecap="round" stroke-linejoin="round"/>
<path d="M304.446 38.7778C309.707 36.1172 320.994 29.6684 328.152 26.7579" stroke="#242427" stroke-width="2" stroke-linecap="round" stroke-linejoin="round"/>
<defs>
<clipPath id="clip0_4116_64725">
<rect width="300" height="102" fill="white" transform="translate(39 426)"/>
</clipPath>
</defs>
</svg>
