<svg width="375" height="812" viewBox="0 0 375 812" fill="none" xmlns="http://www.w3.org/2000/svg">
<g clip-path="url(#clip0_4003_92078)">
<rect width="375" height="812" fill="#F5F378"/>
<path fill-rule="evenodd" clip-rule="evenodd" d="M121 801.5C121 800.119 122.119 799 123.5 799H252.5C253.881 799 255 800.119 255 801.5C255 802.881 253.881 804 252.5 804H123.5C122.119 804 121 802.881 121 801.5Z" fill="#677089"/>
<g clip-path="url(#clip1_4003_92078)">
<path opacity="0.35" d="M336.5 20.0006C336.5 18.804 337.47 17.834 338.667 17.834H355.333C356.53 17.834 357.5 18.804 357.5 20.0007V26.0007C357.5 27.1973 356.53 28.1673 355.333 28.1673H338.667C337.47 28.1673 336.5 27.1973 336.5 26.0007V20.0006Z" stroke="white"/>
<path opacity="0.4" d="M359 21.001V25.001C359.805 24.6622 360.328 23.8741 360.328 23.001C360.328 22.1278 359.805 21.3398 359 21.001Z" fill="white"/>
<path d="M338 20.6673C338 19.9309 338.597 19.334 339.333 19.334H354.667C355.403 19.334 356 19.9309 356 20.6673V25.334C356 26.0704 355.403 26.6673 354.667 26.6673H339.333C338.597 26.6673 338 26.0704 338 25.334V20.6673Z" fill="white"/>
<path fill-rule="evenodd" clip-rule="evenodd" d="M323.33 19.6084C325.546 19.6085 327.677 20.4599 329.283 21.9867C329.404 22.1046 329.597 22.1031 329.716 21.9834L330.872 20.8167C330.933 20.756 330.966 20.6737 330.966 20.5882C330.965 20.5026 330.931 20.4207 330.87 20.3607C326.655 16.3212 320.005 16.3212 315.79 20.3607C315.729 20.4207 315.694 20.5025 315.693 20.5881C315.693 20.6737 315.726 20.7559 315.787 20.8167L316.943 21.9834C317.062 22.1033 317.255 22.1048 317.376 21.9867C318.982 20.4598 321.114 19.6084 323.33 19.6084ZM323.33 23.404C324.547 23.404 325.721 23.8565 326.624 24.6737C326.746 24.7897 326.938 24.7872 327.057 24.668L328.212 23.5014C328.273 23.4402 328.307 23.3572 328.306 23.2709C328.305 23.1846 328.269 23.1023 328.207 23.0424C325.459 20.486 321.203 20.486 318.455 23.0424C318.393 23.1023 318.357 23.1847 318.357 23.271C318.356 23.3573 318.39 23.4403 318.451 23.5014L319.605 24.668C319.724 24.7872 319.916 24.7897 320.038 24.6737C320.94 23.857 322.113 23.4046 323.33 23.404ZM325.643 25.9579C325.645 26.0444 325.611 26.1278 325.549 26.1884L323.552 28.204C323.493 28.2633 323.413 28.2966 323.33 28.2966C323.247 28.2966 323.167 28.2633 323.108 28.204L321.111 26.1884C321.049 26.1277 321.015 26.0443 321.017 25.9578C321.019 25.8713 321.056 25.7894 321.12 25.7314C322.396 24.6525 324.264 24.6525 325.54 25.7314C325.604 25.7894 325.641 25.8714 325.643 25.9579Z" fill="white"/>
<path fill-rule="evenodd" clip-rule="evenodd" d="M309.667 17.667H308.667C308.114 17.667 307.667 18.1147 307.667 18.667V27.3337C307.667 27.8859 308.114 28.3337 308.667 28.3337H309.667C310.219 28.3337 310.667 27.8859 310.667 27.3337V18.667C310.667 18.1147 310.219 17.667 309.667 17.667ZM304 20.0003H305C305.552 20.0003 306 20.448 306 21.0003V27.3337C306 27.8859 305.552 28.3337 305 28.3337H304C303.448 28.3337 303 27.8859 303 27.3337V21.0003C303 20.448 303.448 20.0003 304 20.0003ZM300.333 22.3337H299.333C298.781 22.3337 298.333 22.7814 298.333 23.3337V27.3337C298.333 27.8859 298.781 28.3337 299.333 28.3337H300.333C300.885 28.3337 301.333 27.8859 301.333 27.3337V23.3337C301.333 22.7814 300.885 22.3337 300.333 22.3337ZM295.667 24.3337H294.667C294.114 24.3337 293.667 24.7814 293.667 25.3337V27.3337C293.667 27.8859 294.114 28.3337 294.667 28.3337H295.667C296.219 28.3337 296.667 27.8859 296.667 27.3337V25.3337C296.667 24.7814 296.219 24.3337 295.667 24.3337Z" fill="white"/>
<path d="M37.3208 28.2568C40.0088 28.2568 41.6055 26.1548 41.6055 22.5952C41.6055 21.2549 41.3491 20.127 40.8584 19.2554C40.1479 17.9004 38.9248 17.168 37.3794 17.168C35.0796 17.168 33.4536 18.7134 33.4536 20.8813C33.4536 22.9175 34.9185 24.397 36.9326 24.397C38.1704 24.397 39.1738 23.8184 39.6719 22.8149H39.6938C39.6938 22.8149 39.7231 22.8149 39.7305 22.8149C39.7451 22.8149 39.7964 22.8149 39.7964 22.8149C39.7964 25.2319 38.8809 26.6748 37.3354 26.6748C36.4272 26.6748 35.7241 26.1768 35.4824 25.3784H33.6001C33.915 27.1143 35.3872 28.2568 37.3208 28.2568ZM37.3867 22.8955C36.1709 22.8955 35.3066 22.0312 35.3066 20.8228C35.3066 19.6436 36.2148 18.7427 37.394 18.7427C38.5732 18.7427 39.4814 19.6582 39.4814 20.8521C39.4814 22.0312 38.5952 22.8955 37.3867 22.8955Z" fill="white"/>
<path d="M44.6966 28.1543C45.3924 28.1543 45.8685 27.6562 45.8685 26.9971C45.8685 26.3306 45.3924 25.8398 44.6966 25.8398C44.0081 25.8398 43.5247 26.3306 43.5247 26.9971C43.5247 27.6562 44.0081 28.1543 44.6966 28.1543ZM44.6966 22.6611C45.3924 22.6611 45.8685 22.1704 45.8685 21.5112C45.8685 20.8447 45.3924 20.354 44.6966 20.354C44.0081 20.354 43.5247 20.8447 43.5247 21.5112C43.5247 22.1704 44.0081 22.6611 44.6966 22.6611Z" fill="white"/>
<path d="M52.7242 28.0005H54.5333V26.0303H55.9615V24.4336H54.5333V17.4316H51.8673C49.9996 20.2441 48.5128 22.5952 47.5606 24.3457V26.0303H52.7242V28.0005ZM49.3111 24.3677C50.5416 22.1997 51.6402 20.4639 52.651 18.9697H52.7535V24.4775H49.3111V24.3677Z" fill="white"/>
<path d="M59.9901 28.0005H61.8798V17.4316H59.9975L57.2362 19.3652V21.1816L59.8656 19.3359H59.9901V28.0005Z" fill="white"/>
</g>
<g clip-path="url(#clip2_4003_92078)">
<path d="M42.1822 758.764C39.8859 755.782 38.755 752.064 39.0008 748.308V681.564C38.751 677.807 39.8824 674.089 42.1822 671.108C43.3665 669.846 44.8158 668.863 46.4257 668.228C48.0357 667.594 49.7662 667.324 51.4929 667.439H81.8853C92.3625 667.439 100.888 669.432 107.463 673.42C110.626 675.272 113.216 677.96 114.948 681.19C116.681 684.419 117.489 688.064 117.283 691.723C117.441 696.617 115.804 701.399 112.681 705.169C109.322 708.95 104.878 711.602 99.9552 712.762C105.466 713.614 110.562 716.199 114.505 720.143C116.375 722.069 117.838 724.351 118.807 726.854C119.776 729.358 120.232 732.03 120.146 734.713C120.331 740.227 118.641 745.64 115.353 750.069C111.792 754.481 106.99 757.724 101.567 759.379C94.7105 761.544 87.5469 762.575 80.3582 762.433H51.4929C49.7662 762.548 48.0357 762.278 46.4257 761.644C44.8158 761.009 43.3665 760.026 42.1822 758.764ZM86.7209 703.621C88.2992 703.118 89.6744 702.122 90.6445 700.779C91.596 699.35 92.0779 697.66 92.0231 695.944C92.1085 694.725 91.8874 693.504 91.3798 692.393C90.8723 691.281 90.0945 690.314 89.1175 689.581C86.3905 687.974 83.2395 687.235 80.0825 687.46H63.285V704.427H80.1037C82.3371 704.508 84.5678 704.207 86.6997 703.536L86.7209 703.621ZM91.1323 739.91C92.2226 739.085 93.0902 738.001 93.6567 736.757C94.2233 735.513 94.4709 734.147 94.3773 732.783C94.501 731.413 94.2738 730.035 93.7172 728.777C93.1606 727.519 92.293 726.423 91.196 725.594C88.0959 723.934 84.585 723.198 81.0793 723.473H63.285V742.2H81.0581C84.5737 742.461 88.0842 741.632 91.1111 739.825L91.1323 739.91Z" fill="#242427"/>
<path d="M129.095 685.764C127.943 684.743 127.02 683.489 126.388 682.085C125.756 680.681 125.43 679.159 125.43 677.619C125.43 676.08 125.756 674.558 126.388 673.154C127.02 671.75 127.943 670.496 129.095 669.475C131.651 667.268 134.947 666.109 138.321 666.23C141.612 666.113 144.82 667.276 147.271 669.475C148.397 670.512 149.296 671.771 149.911 673.173C150.526 674.575 150.843 676.089 150.843 677.619C150.843 679.15 150.526 680.664 149.911 682.066C149.296 683.468 148.397 684.727 147.271 685.764C144.792 687.957 141.566 689.118 138.258 689.009C134.902 689.13 131.626 687.97 129.095 685.764ZM129.435 761.331C127.23 758.47 126.144 754.903 126.381 751.299V706.761C126.142 703.182 127.229 699.641 129.435 696.814C131.788 694.631 134.879 693.419 138.088 693.419C141.297 693.419 144.388 694.631 146.741 696.814C148.915 699.686 149.971 703.252 149.71 706.845V751.384C149.94 754.974 148.888 758.529 146.741 761.416C144.433 763.685 141.325 764.957 138.088 764.957C134.851 764.957 131.743 763.685 129.435 761.416V761.331Z" fill="#242427"/>
<path d="M189.817 762.158C186.656 760.385 183.977 757.865 182.012 754.82C181.564 758.074 179.887 761.034 177.325 763.091C175.43 764.309 173.214 764.93 170.962 764.873C169.343 764.977 167.721 764.712 166.218 764.098C164.716 763.485 163.372 762.539 162.288 761.331C160.101 758.358 159.041 754.705 159.297 751.023V678.574C159.063 674.973 160.124 671.407 162.288 668.521C163.348 667.335 164.66 666.403 166.129 665.794C167.597 665.185 169.184 664.913 170.771 665C172.39 664.884 174.014 665.141 175.518 665.751C177.022 666.362 178.366 667.309 179.446 668.521C181.61 671.407 182.671 674.973 182.436 678.574V699.592C182.439 700.188 182.397 700.783 182.309 701.373C182.309 701.903 182.118 702.54 182.033 703.261C184.287 700.09 187.282 697.519 190.756 695.77C194.231 694.022 198.081 693.149 201.97 693.229C207.009 693.22 211.948 694.631 216.222 697.301C220.856 700.262 224.538 704.496 226.827 709.496C229.647 715.62 231.019 722.311 230.835 729.051C231.008 735.761 229.713 742.428 227.039 748.584C224.91 753.541 221.351 757.75 216.818 760.674C212.284 763.599 206.982 765.104 201.588 765C197.484 765.094 193.426 764.114 189.817 762.158ZM200.803 744.788C202.85 743.103 204.415 740.908 205.342 738.425C206.492 735.466 207.047 732.309 206.975 729.136C207.057 725.851 206.503 722.581 205.342 719.507C204.448 717.042 202.874 714.88 200.803 713.271C198.818 711.824 196.408 711.078 193.953 711.15C191.539 711.093 189.174 711.839 187.23 713.271C185.165 714.886 183.593 717.046 182.691 719.507C181.55 722.6 181.01 725.882 181.1 729.178C181.039 732.351 181.593 735.506 182.733 738.467C183.667 740.947 185.231 743.14 187.272 744.83C189.18 746.351 191.555 747.168 193.995 747.142C196.467 747.162 198.871 746.33 200.803 744.788Z" fill="#242427"/>
<path d="M266.464 762.156C263.308 760.383 260.636 757.864 258.68 754.818C258.571 755.998 258.248 757.148 257.726 758.212C257.065 760.211 255.75 761.929 253.993 763.09C252.097 764.305 249.881 764.926 247.63 764.871C246.01 764.985 244.385 764.724 242.881 764.11C241.377 763.496 240.034 762.545 238.956 761.329C236.769 758.357 235.709 754.703 235.965 751.022V678.572C235.731 674.972 236.792 671.406 238.956 668.519C240.016 667.334 241.328 666.402 242.797 665.793C244.265 665.183 245.852 664.912 247.439 664.998C249.057 664.89 250.679 665.151 252.182 665.761C253.684 666.371 255.029 667.314 256.114 668.519C258.278 671.406 259.339 674.972 259.104 678.572V699.59C259.111 700.187 259.061 700.784 258.956 701.372C258.956 701.902 258.786 702.538 258.701 703.259C260.812 700.255 263.603 697.792 266.846 696.07C270.472 694.118 274.542 693.139 278.659 693.228C283.698 693.218 288.638 694.63 292.911 697.3C297.54 700.267 301.22 704.499 303.516 709.495C306.336 715.618 307.708 722.31 307.524 729.049C307.698 735.759 306.402 742.426 303.728 748.583C301.599 753.54 298.04 757.749 293.507 760.673C288.973 763.597 283.671 765.103 278.277 764.998C274.159 765.098 270.086 764.118 266.464 762.156ZM277.471 744.786C279.512 743.096 281.076 740.903 282.01 738.424C283.15 735.462 283.704 732.307 283.643 729.134C283.714 725.85 283.16 722.582 282.01 719.505C281.108 717.044 279.536 714.885 277.471 713.27C275.485 711.825 273.076 711.08 270.621 711.149C268.206 711.089 265.84 711.835 263.898 713.27C261.826 714.878 260.253 717.04 259.359 719.505C258.198 722.579 257.643 725.849 257.726 729.134C257.654 732.308 258.209 735.465 259.359 738.424C260.285 740.907 261.851 743.102 263.898 744.786C265.806 746.308 268.18 747.124 270.621 747.098C273.102 747.136 275.521 746.32 277.471 744.786Z" fill="#242427"/>
<path d="M315.523 685.763C314.371 684.742 313.448 683.489 312.816 682.085C312.184 680.681 311.857 679.159 311.857 677.619C311.857 676.079 312.184 674.557 312.816 673.153C313.448 671.75 314.371 670.496 315.523 669.475C318.079 667.268 321.374 666.109 324.749 666.23C328.076 666.085 331.327 667.25 333.805 669.475C334.944 670.517 335.841 671.795 336.435 673.22C337.028 674.645 337.303 676.183 337.241 677.725C337.267 679.263 336.957 680.788 336.335 682.194C335.712 683.6 334.791 684.854 333.635 685.869C331.156 688.063 327.93 689.224 324.622 689.114C321.274 689.191 318.022 687.993 315.523 685.763ZM315.862 761.331C313.658 758.469 312.572 754.903 312.808 751.299V706.76C312.569 703.182 313.657 699.641 315.862 696.813C318.215 694.631 321.306 693.418 324.516 693.418C327.725 693.418 330.816 694.631 333.169 696.813C335.351 699.683 336.414 703.249 336.159 706.845V751.384C336.394 754.978 335.333 758.537 333.169 761.415C330.86 763.685 327.753 764.956 324.516 764.956C321.278 764.956 318.171 763.685 315.862 761.415V761.331Z" fill="#242427"/>
</g>
<path d="M115.683 434.708C109.328 434.473 102.711 433.907 97.6275 430.881C86.4239 424.692 87.4876 409.054 95.1547 400.434C101.965 392.131 112.948 390.004 123.654 390.156C133.835 390.211 144.238 391.91 150.731 399.425C156.56 406.277 159.793 418.103 153.839 425.659C149.584 430.881 142.152 431.821 134.761 432.912" fill="white"/>
<path d="M115.683 434.708C109.328 434.473 102.711 433.907 97.6275 430.881C86.4239 424.692 87.4876 409.054 95.1547 400.434C101.965 392.131 112.948 390.004 123.654 390.156C133.835 390.211 144.238 391.91 150.731 399.425C156.56 406.277 159.793 418.103 153.839 425.659C149.584 430.881 142.152 431.821 134.761 432.912" stroke="#242427" stroke-width="2" stroke-miterlimit="10"/>
<path d="M133.851 419.525H115.602V441.67H133.851V419.525Z" fill="#D9D9D9" stroke="#242427" stroke-width="2" stroke-miterlimit="10"/>
<path d="M142.098 403.002H107.382C105.352 403.002 103.707 404.647 103.707 406.677V420.477C103.707 422.507 105.352 424.152 107.382 424.152H142.098C144.127 424.152 145.772 422.507 145.772 420.477V406.677C145.772 404.647 144.127 403.002 142.098 403.002Z" fill="#EFEFEF" stroke="#242427" stroke-width="2" stroke-miterlimit="10"/>
<path d="M111.898 403.652V423.269" stroke="#242427" stroke-width="2" stroke-miterlimit="10"/>
<path d="M120.426 403.652V423.269" stroke="#242427" stroke-width="2" stroke-miterlimit="10"/>
<path d="M128.961 403.652V423.269" stroke="#242427" stroke-width="2" stroke-miterlimit="10"/>
<path d="M137.484 403.652V423.269" stroke="#242427" stroke-width="2" stroke-miterlimit="10"/>
<path d="M124.731 616.798C173.736 616.798 213.462 612.499 213.462 607.197C213.462 601.894 173.736 597.596 124.731 597.596C75.7262 597.596 36 601.894 36 607.197C36 612.499 75.7262 616.798 124.731 616.798Z" fill="white"/>
<path d="M124.729 610.085C171.765 610.085 209.896 571.955 209.896 524.919C209.896 477.882 171.765 439.752 124.729 439.752C77.6929 439.752 39.5625 477.882 39.5625 524.919C39.5625 571.955 77.6929 610.085 124.729 610.085Z" fill="white"/>
<path fill-rule="evenodd" clip-rule="evenodd" d="M40.5625 524.919C40.5625 478.435 78.2452 440.752 124.729 440.752C171.213 440.752 208.896 478.435 208.896 524.919C208.896 571.403 171.213 609.085 124.729 609.085C78.2452 609.085 40.5625 571.403 40.5625 524.919ZM124.729 438.752C77.1407 438.752 38.5625 477.33 38.5625 524.919C38.5625 572.507 77.1407 611.085 124.729 611.085C172.318 611.085 210.896 572.507 210.896 524.919C210.896 477.33 172.318 438.752 124.729 438.752ZM52.9766 524.918C52.9766 485.287 85.1038 453.16 124.735 453.16C164.366 453.16 196.493 485.287 196.493 524.918C196.493 564.549 164.366 596.676 124.735 596.676C85.1038 596.676 52.9766 564.549 52.9766 524.918Z" fill="#242427"/>
<path d="M116.87 469.121C116.013 469.3 115.143 469.425 114.287 469.494C113.071 469.577 112.228 468.789 111.966 467.366C111.607 465.446 112.657 464.313 113.955 463.83C114.977 463.498 116.193 463.305 117.575 463.305C119.426 463.305 120.572 464.189 120.669 465.999C120.89 470.309 120.89 474.633 120.669 478.943C120.6 480.559 119.315 481.236 117.713 481.236C116.11 481.236 114.812 480.545 114.729 478.943C114.549 475.669 114.549 472.712 114.729 469.839C115.544 469.728 116.359 469.535 116.87 469.107V469.121Z" fill="white"/>
<path d="M125.655 481.083C124.108 481.083 123.155 480.02 123.155 478.362V478.21C123.155 476.925 123.749 475.972 124.716 475.102C126.553 473.485 128.957 471.814 130.435 469.976C130.96 469.313 130.698 468.581 129.952 468.581C129.067 468.581 128.736 468.885 128.446 469.507C127.893 470.764 125.766 471.013 124.619 470.419C123.293 469.728 122.768 468.236 123.431 466.799C124.605 464.188 127.313 463.18 130.794 463.18C134.276 463.18 137.066 465.459 137.066 468.816C137.066 471.841 133.792 474.798 130.062 477.146C131.084 476.773 131.872 476.373 132.576 475.861H135.035C136.776 475.861 137.467 477.036 137.467 478.472C137.467 479.909 136.776 481.097 135.035 481.097H125.641L125.655 481.083Z" fill="white"/>
<path d="M179.5 435.851C179.5 435.851 192.292 426.705 197.459 424.398" stroke="#242427" stroke-width="2" stroke-linecap="round" stroke-linejoin="round"/>
<path d="M174.789 423.225C174.789 423.225 178.16 416.483 183.99 412.449" stroke="#242427" stroke-width="2" stroke-linecap="round" stroke-linejoin="round"/>
<path d="M60.3925 435.851C60.3925 435.851 47.6002 426.705 42.4336 424.398" stroke="#242427" stroke-width="2" stroke-linecap="round" stroke-linejoin="round"/>
<path d="M65.1185 423.225C65.1185 423.225 61.7477 416.483 55.918 412.449" stroke="#242427" stroke-width="2" stroke-linecap="round" stroke-linejoin="round"/>
<path d="M151.864 475.999C151.573 475.999 151.27 475.93 151.007 475.764C150.454 475.446 150.137 474.866 150.137 474.272C150.137 473.982 150.206 473.678 150.372 473.415L150.855 472.573C151.339 471.744 152.388 471.468 153.217 471.937C153.77 472.255 154.074 472.835 154.074 473.429C154.074 473.719 154.005 474.023 153.839 474.286L153.356 475.128C153.038 475.681 152.458 475.985 151.864 475.985V475.999Z" fill="white"/>
<path d="M171.727 495.85C171.133 495.85 170.553 495.546 170.235 494.994C170.083 494.718 170 494.427 170 494.137C170 493.543 170.304 492.963 170.857 492.645L171.685 492.162C172.514 491.692 173.564 491.968 174.048 492.797C174.2 493.074 174.283 493.364 174.283 493.654C174.283 494.248 173.979 494.828 173.412 495.146L172.583 495.629C172.321 495.781 172.017 495.864 171.727 495.864V495.85Z" fill="white"/>
<path d="M179.922 522.984H178.996C178.043 522.984 177.27 522.21 177.27 521.257C177.27 520.303 178.043 519.53 178.996 519.53H179.48C179.618 519.488 179.77 519.475 179.936 519.475C180.889 519.475 181.663 520.262 181.663 521.215C181.663 521.215 181.663 521.257 181.663 521.284C181.663 522.251 180.889 522.984 179.936 522.984H179.922Z" fill="white"/>
<path d="M172.516 550.569C172.226 550.569 171.922 550.5 171.66 550.334L170.872 549.878C170.32 549.56 170.016 548.98 170.016 548.386C170.016 548.096 170.085 547.792 170.25 547.53C170.72 546.701 171.784 546.425 172.599 546.894L173.386 547.35C173.939 547.668 174.257 548.248 174.257 548.842C174.257 549.132 174.188 549.436 174.022 549.699C173.704 550.251 173.124 550.569 172.53 550.569H172.516Z" fill="white"/>
<path d="M152.319 570.754C151.725 570.754 151.145 570.45 150.827 569.898L150.372 569.11C150.22 568.848 150.137 568.544 150.137 568.254C150.137 567.66 150.441 567.079 151.007 566.762C151.836 566.278 152.886 566.568 153.356 567.397L153.811 568.185C153.963 568.461 154.046 568.751 154.046 569.041C154.046 569.635 153.742 570.215 153.19 570.533C152.913 570.685 152.623 570.768 152.333 570.768L152.319 570.754Z" fill="white"/>
<path d="M124.731 578.131C123.778 578.131 123.004 577.357 123.004 576.404V575.52C123.004 574.567 123.778 573.793 124.731 573.793C125.684 573.793 126.458 574.567 126.458 575.52V576.404C126.458 577.357 125.684 578.131 124.731 578.131Z" fill="white"/>
<path d="M97.1587 570.754C96.8686 570.754 96.5785 570.685 96.3022 570.533C96.2193 570.491 96.1502 570.436 96.0949 570.395C96.0811 570.381 96.0535 570.367 96.0397 570.353C95.4042 569.828 95.2108 568.917 95.6253 568.184C95.6805 568.088 95.7358 568.005 95.791 567.936L96.0949 567.397C96.5785 566.568 97.6284 566.292 98.4434 566.761C98.996 567.079 99.3137 567.659 99.3137 568.253C99.3137 568.544 99.2447 568.847 99.0789 569.11L98.623 569.897C98.402 570.284 98.0428 570.547 97.656 570.685C97.6284 570.685 97.6007 570.699 97.5731 570.712C97.5731 570.712 97.5455 570.712 97.5317 570.712C97.4073 570.74 97.2692 570.754 97.1449 570.754H97.1587Z" fill="white"/>
<path d="M76.9478 550.569C76.3538 550.569 75.7736 550.265 75.4559 549.712C75.4144 549.643 75.4006 549.602 75.373 549.547C74.9862 548.732 75.2763 547.751 76.0775 547.309C76.188 547.24 76.2986 547.198 76.3953 547.171L76.8788 546.894C77.7076 546.425 78.7576 546.701 79.2272 547.53C79.3792 547.792 79.4621 548.096 79.4621 548.386C79.4621 548.98 79.1582 549.56 78.6056 549.878L77.8182 550.334C77.5419 550.486 77.2518 550.569 76.9617 550.569H76.9478Z" fill="white"/>
<path d="M70.4688 522.983H69.5432C68.59 522.983 67.8164 522.21 67.8164 521.257V521.215C67.8164 520.262 68.59 519.488 69.5432 519.488C69.6814 519.488 69.8057 519.502 69.93 519.53H70.4688C71.422 519.53 72.1956 520.303 72.1956 521.257C72.1956 522.21 71.422 522.983 70.4688 522.983Z" fill="white"/>
<path d="M77.7492 495.85C77.4591 495.85 77.1552 495.781 76.8927 495.615L76.0638 495.131C75.4146 494.758 75.0968 494.026 75.235 493.336C75.2902 493.101 75.3455 492.935 75.4422 492.783L75.456 492.755C75.8843 492.023 76.7822 491.719 77.5558 492.023C77.6387 492.051 77.7078 492.092 77.7907 492.134C77.915 492.203 78.0117 492.272 78.1084 492.355L78.6195 492.645C79.1721 492.963 79.476 493.543 79.476 494.137C79.476 494.427 79.407 494.731 79.2412 494.993C78.9235 495.546 78.3432 495.85 77.7492 495.85Z" fill="white"/>
<path d="M97.6031 475.999C97.0091 475.999 96.4289 475.696 96.1112 475.143L95.6277 474.3C95.158 473.485 95.4343 472.435 96.2355 471.952C96.4289 471.841 96.6499 471.758 96.871 471.717C97.5617 471.606 98.2662 471.924 98.6392 472.573C98.6807 472.656 98.7221 472.739 98.7498 472.808L99.0951 473.416C99.2471 473.692 99.33 473.982 99.33 474.273C99.33 474.867 99.026 475.447 98.4596 475.765C98.1972 475.917 97.8933 475.999 97.6031 475.999Z" fill="white"/>
<path d="M124.774 517.801H124.705C122.836 517.801 121.32 519.316 121.32 521.185V521.254C121.32 523.124 122.836 524.639 124.705 524.639H124.774C126.643 524.639 128.159 523.124 128.159 521.254V521.185C128.159 519.316 126.643 517.801 124.774 517.801Z" fill="white"/>
<path d="M124.73 491.928V521.215" stroke="white" stroke-width="2" stroke-miterlimit="10" stroke-linecap="round"/>
<path d="M258.967 617.169C296.985 617.169 327.805 613.161 327.805 608.217C327.805 603.274 296.985 599.266 258.967 599.266C220.949 599.266 190.129 603.274 190.129 608.217C190.129 613.161 220.949 617.169 258.967 617.169Z" fill="white"/>
<path d="M257.006 608.578L254.326 549.949H249.643L245.623 598.328C224.294 590.661 209.484 598.328 209.484 608.578H257.006Z" fill="white" stroke="#242427" stroke-width="2" stroke-linecap="round" stroke-linejoin="round"/>
<path d="M244.586 597.885C246.257 598.575 247.943 599.266 249.614 600.634" stroke="#242427" stroke-width="2" stroke-linecap="round" stroke-linejoin="round"/>
<path d="M262.227 608.578L264.907 549.949H269.59L273.61 598.328C294.939 590.661 309.749 598.328 309.749 608.578H262.227Z" fill="white" stroke="#242427" stroke-width="2" stroke-linecap="round" stroke-linejoin="round"/>
<path d="M274.661 597.885C272.99 598.575 271.304 599.266 269.633 600.634" stroke="#242427" stroke-width="2" stroke-linecap="round" stroke-linejoin="round"/>
<path d="M200.887 484.84C210.423 462.027 232.395 446 259.215 446C286.032 446 308.961 462.712 318.128 486.295L318.238 486.577L318.485 486.751C324.447 490.943 328.937 497.78 330.482 506.294C333.268 521.65 325.511 537.01 312.894 542.839L312.628 542.961L312.471 543.208C301.25 560.753 281.585 572.379 259.215 572.379H259.202C237.24 572.379 217.902 561.175 206.572 544.159L206.387 543.882L206.072 543.77C192.113 538.842 183.219 522.574 186.181 506.295C187.927 496.732 193.368 489.288 200.453 485.327L200.754 485.159L200.887 484.84Z" fill="#242427"/>
<path d="M330.482 506.294C328.937 497.78 324.447 490.943 318.485 486.751L318.238 486.577L318.128 486.295C308.961 462.712 286.032 446 259.215 446C232.395 446 210.423 462.027 200.887 484.84L200.754 485.159L200.453 485.327C193.368 489.288 187.927 496.732 186.181 506.295C183.219 522.574 192.113 538.842 206.072 543.77L206.387 543.882L206.572 544.159C217.902 561.175 237.24 572.379 259.202 572.379H259.215C281.585 572.379 301.25 560.753 312.471 543.208L312.628 542.961L312.894 542.839C325.511 537.01 333.268 521.65 330.482 506.294ZM330.482 506.294L331.466 506.116" stroke="#F5F378" stroke-width="2" stroke-miterlimit="10"/>
<path d="M248.718 498.739C254.005 498.739 258.291 492.424 258.291 484.634C258.291 476.844 254.005 470.529 248.718 470.529C243.431 470.529 239.145 476.844 239.145 484.634C239.145 492.424 243.431 498.739 248.718 498.739Z" fill="white"/>
<path d="M267.863 498.739C273.15 498.739 277.436 492.424 277.436 484.634C277.436 476.844 273.15 470.529 267.863 470.529C262.575 470.529 258.289 476.844 258.289 484.634C258.289 492.424 262.575 498.739 267.863 498.739Z" fill="white"/>
<path d="M249.728 493.697C253.344 493.697 256.276 489.64 256.276 484.635C256.276 479.63 253.344 475.572 249.728 475.572C246.111 475.572 243.18 479.63 243.18 484.635C243.18 489.64 246.111 493.697 249.728 493.697Z" fill="#242427"/>
<path d="M266.344 493.697C269.685 493.697 272.395 489.64 272.395 484.635C272.395 479.63 269.685 475.572 266.344 475.572C263.002 475.572 260.293 479.63 260.293 484.635C260.293 489.64 263.002 493.697 266.344 493.697Z" fill="#242427"/>
<path d="M257.862 517.83C266.33 517.83 273.209 512.788 273.209 506.571C273.209 500.355 266.344 495.312 257.875 495.312C249.407 495.312 242.541 500.355 242.527 506.571C242.527 512.788 249.393 517.83 257.862 517.83Z" fill="white" stroke="#242427" stroke-width="2" stroke-miterlimit="10"/>
<path d="M242.527 506.819C246.893 509.692 251.493 503.379 257.723 503.379C263.954 503.379 266.73 509.692 274.052 506.819" stroke="#242427" stroke-width="2"/>
<path d="M255.496 506.874L251.531 505.438H263.923L259.958 506.874C258.521 507.399 256.947 507.399 255.496 506.874Z" stroke="#242427" stroke-width="2" stroke-linecap="round" stroke-linejoin="round"/>
<path fill-rule="evenodd" clip-rule="evenodd" d="M258.926 479.536H276.774C275.393 474.259 271.911 470.529 267.85 470.529C263.789 470.529 260.307 474.273 258.926 479.536Z" fill="white"/>
<path fill-rule="evenodd" clip-rule="evenodd" d="M239.789 479.536H257.637C256.256 474.259 252.775 470.529 248.713 470.529C244.652 470.529 241.171 474.273 239.789 479.536Z" fill="white"/>
<path d="M244.693 349.593C245.527 349.593 247.593 348.993 249.193 346.593" stroke="#242427" stroke-width="2" stroke-linecap="round" stroke-linejoin="round"/>
<path d="M283.491 322.53L284.075 321.718L283.491 322.53L286.206 324.484L285.187 327.669C284.804 328.869 286.179 329.858 287.195 329.114L289.891 327.135L292.607 329.088C293.629 329.824 294.995 328.821 294.6 327.625L293.552 324.449L296.249 322.471C297.264 321.726 296.733 320.117 295.473 320.122L292.129 320.138L291.08 316.962C290.686 315.766 288.991 315.774 288.608 316.973L287.589 320.159L284.244 320.175C282.985 320.181 282.469 321.795 283.491 322.53ZM289.479 326.838L289.479 326.838C289.479 326.838 289.479 326.838 289.479 326.838L289.887 326.27L289.479 326.838Z" fill="#D9D9D9" stroke="#242427" stroke-width="2"/>
<path d="M293.193 340.093L298.193 341.593M298.193 341.593L295.193 346.093M298.193 341.593L301.693 346.093M298.193 341.593L303.193 340.093M298.193 341.593V336.593" stroke="#242427" stroke-width="2" stroke-linecap="round" stroke-linejoin="round"/>
<path d="M271.193 327.54L275.193 328.803M275.193 328.803L272.793 332.593M275.193 328.803L277.993 332.593M275.193 328.803L279.193 327.54M275.193 328.803V324.593" stroke="#242427" stroke-width="2" stroke-linecap="round" stroke-linejoin="round"/>
<path d="M241.193 290.093L246.193 291.593M246.193 291.593L243.193 296.093M246.193 291.593L249.693 296.093M246.193 291.593L251.193 290.093M246.193 291.593V286.593" stroke="#242427" stroke-width="2" stroke-linecap="round" stroke-linejoin="round"/>
<path d="M265.193 355.593V348.593L272.693 352.093V359.093L265.193 355.593Z" fill="#D9D9D9" stroke="#242427" stroke-width="2" stroke-linecap="round" stroke-linejoin="round"/>
<path d="M223.054 301.315L219.391 307.279L214.832 300.372L218.496 294.407L223.054 301.315Z" fill="#D9D9D9" stroke="#242427" stroke-width="2" stroke-linecap="round" stroke-linejoin="round"/>
<path d="M255.824 328.99C256.903 319.55 264.422 299.341 274.001 302.423C278.052 303.726 273.657 310.063 271.377 308.39C268.095 308.194 266.247 298.049 278.869 294.593" stroke="#242427" stroke-width="2" stroke-linecap="round" stroke-linejoin="round"/>
<path d="M239.193 309.093C240.027 310.259 243.093 312.893 248.693 314.093" stroke="#242427" stroke-width="2" stroke-linecap="round" stroke-linejoin="round"/>
<path d="M247.193 325.593C247.527 327.426 247.693 331.393 245.693 332.593" stroke="#242427" stroke-width="2" stroke-linecap="round" stroke-linejoin="round"/>
<path d="M230.693 290.093C231.027 292.926 232.493 299.993 235.693 305.593" stroke="#242427" stroke-width="2" stroke-linecap="round" stroke-linejoin="round"/>
<path d="M283.414 296.618L284.494 284.738L288.5 287L291.514 293.378L283.414 296.618Z" fill="white" stroke="#242427" stroke-width="2" stroke-linecap="round" stroke-linejoin="round"/>
<path d="M327.693 264.758L273.693 277.718L288.273 286.358L295.833 302.558L327.693 264.758Z" fill="white" stroke="#242427" stroke-width="2" stroke-linecap="round" stroke-linejoin="round"/>
<path d="M288.273 286.358C290.973 284.378 297.021 280.31 299.613 279.878" stroke="#242427" stroke-width="2" stroke-linecap="round" stroke-linejoin="round"/>
<path d="M303.446 276.778C308.707 274.117 319.994 267.668 327.152 264.758" stroke="#242427" stroke-width="2" stroke-linecap="round" stroke-linejoin="round"/>
</g>
<defs>
<clipPath id="clip0_4003_92078">
<rect width="375" height="812" fill="white"/>
</clipPath>
<clipPath id="clip1_4003_92078">
<rect width="375" height="44" fill="white"/>
</clipPath>
<clipPath id="clip2_4003_92078">
<rect width="300" height="102" fill="white" transform="translate(38 664)"/>
</clipPath>
</defs>
</svg>
