<svg width="48" height="48" viewBox="0 0 48 48" fill="none" xmlns="http://www.w3.org/2000/svg">
<rect width="48" height="48" rx="24" fill="#353538"/>
<path d="M11.2287 23.8504C11.0131 24.1626 10.95 24.4377 11.0392 24.6756C11.1358 24.9135 11.3849 25.0324 11.7863 25.0324H13.2472C13.3958 26.3706 13.7787 27.6233 14.3958 28.7905C15.0128 29.9577 15.8083 30.9799 16.7822 31.8571C17.7561 32.7344 18.8601 33.4221 20.0942 33.9202C21.3283 34.4183 22.6367 34.6673 24.0195 34.6673C25.603 34.6673 27.0861 34.3402 28.4689 33.686C29.8517 33.0318 31.0338 32.1545 32.0151 31.0542C32.2381 30.8163 32.3422 30.5598 32.3273 30.2848C32.3199 30.0097 32.2121 29.7867 32.0039 29.6157C31.7883 29.4373 31.5504 29.3629 31.2902 29.3927C31.0375 29.415 30.8033 29.5376 30.5877 29.7607C29.7848 30.6602 28.8146 31.3739 27.6772 31.9017C26.5471 32.4296 25.3279 32.6935 24.0195 32.6935C22.8895 32.6935 21.8264 32.4965 20.8302 32.1025C19.834 31.7159 18.9418 31.1732 18.1538 30.4744C17.3732 29.7755 16.7301 28.9652 16.2246 28.0433C15.7265 27.1215 15.4068 26.1178 15.2656 25.0324H16.8379C17.2319 25.0324 17.4773 24.9135 17.5739 24.6756C17.6706 24.4377 17.6111 24.1663 17.3955 23.8615L14.9422 20.4046C14.7638 20.1444 14.5519 20.0143 14.3065 20.0143C14.0686 20.0143 13.8568 20.1444 13.6709 20.4046L11.2287 23.8504ZM16.0462 16.6019C15.8157 16.8398 15.7042 17.0963 15.7116 17.3714C15.7265 17.6464 15.838 17.8695 16.0462 18.0405C16.2543 18.2115 16.4885 18.2858 16.7487 18.2635C17.0089 18.2412 17.2468 18.1185 17.4624 17.8955C18.2653 17.0034 19.2318 16.2971 20.3618 15.7767C21.4918 15.2489 22.711 14.985 24.0195 14.985C25.1495 14.985 26.2126 15.1783 27.2088 15.5648C28.205 15.9514 29.0934 16.4941 29.874 17.193C30.662 17.8843 31.3051 18.6947 31.8032 19.624C32.3087 20.5533 32.6321 21.5569 32.7734 22.6349H31.201C30.8144 22.6349 30.5691 22.7538 30.465 22.9917C30.3609 23.2296 30.4204 23.501 30.6435 23.8058L33.0856 27.2627C33.264 27.5155 33.4759 27.6456 33.7213 27.653C33.9666 27.653 34.1785 27.5229 34.3569 27.2627L36.8102 23.8169C37.0332 23.5047 37.0927 23.2296 36.9886 22.9917C36.892 22.7538 36.6467 22.6349 36.2526 22.6349H34.7806C34.632 21.2967 34.2491 20.044 33.632 18.8768C33.0224 17.7096 32.2307 16.6874 31.2568 15.8102C30.2829 14.9329 29.1789 14.2452 27.9448 13.7471C26.7107 13.249 25.4023 13 24.0195 13C22.4434 13 20.964 13.3271 19.5812 13.9813C18.2058 14.6281 17.0275 15.5016 16.0462 16.6019Z" fill="#E8E8E8"/>
</svg>
