<svg width="48" height="48" viewBox="0 0 48 48" fill="none" xmlns="http://www.w3.org/2000/svg">
<rect width="48" height="48" rx="24" fill="#353538"/>
<path d="M15.0168 24.3275V23.1492C15.0168 19.8942 17.6651 17.2459 20.9201 17.2459H29.7751L29.1218 17.8992C28.8588 18.1622 28.711 18.5189 28.711 18.8909C28.711 19.2628 28.8588 19.6195 29.1218 19.8825C29.3848 20.1455 29.7415 20.2933 30.1135 20.2933C30.4854 20.2933 30.8421 20.1455 31.1051 19.8825L34.1501 16.8375C34.4068 16.5692 34.5585 16.2192 34.5585 15.8459C34.5585 15.4725 34.4068 15.1225 34.1501 14.8542L31.1051 11.8092C30.9749 11.679 30.8203 11.5757 30.6502 11.5052C30.48 11.4347 30.2976 11.3984 30.1135 11.3984C29.9293 11.3984 29.7469 11.4347 29.5768 11.5052C29.4066 11.5757 29.252 11.679 29.1218 11.8092C28.8588 12.0722 28.711 12.4289 28.711 12.8009C28.711 13.1728 28.8588 13.5295 29.1218 13.7925L29.7751 14.4459H20.9201C16.1251 14.4459 12.2168 18.3542 12.2168 23.1492V24.3275C12.2168 25.0975 12.8468 25.7275 13.6168 25.7275C14.3868 25.7275 15.0168 25.1092 15.0168 24.3275ZM34.3835 22.0642C33.6135 22.0642 32.9835 22.6942 32.9835 23.4642V24.6425C32.9835 27.8975 30.3351 30.5459 27.0801 30.5459H18.2251L18.8785 29.8925C19.1415 29.6295 19.2892 29.2728 19.2892 28.9009C19.2892 28.5289 19.1415 28.1722 18.8785 27.9092C18.6155 27.6462 18.2587 27.4984 17.8868 27.4984C17.5149 27.4984 17.1581 27.6462 16.8951 27.9092L13.8501 30.9542C13.5818 31.2109 13.4418 31.5725 13.4418 31.9459C13.4418 32.3192 13.5935 32.6692 13.8501 32.9375L16.8951 35.9825C17.1584 36.245 17.515 36.3924 17.8868 36.3924C18.2586 36.3924 18.6152 36.245 18.8785 35.9825C19.4268 35.4342 19.4268 34.5475 18.8785 33.9992L18.2251 33.3459H27.0801C31.8751 33.3459 35.7835 29.4375 35.7835 24.6425V23.4642C35.7835 22.6825 35.1535 22.0642 34.3835 22.0642Z" fill="#B2B2B4"/>
</svg>
