<svg width="24" height="24" viewBox="0 0 24 24" fill="none" xmlns="http://www.w3.org/2000/svg">
<path d="M10.4994 19.5C10.6269 19.5 10.7544 19.497 10.8804 19.4925C10.4564 18.2893 10.3825 16.9905 10.6674 15.747C9.90092 15.7721 9.13824 15.6286 8.43325 15.3266C7.72827 15.0247 7.09817 14.5716 6.58744 13.9995C6.46733 13.8498 6.40918 13.6598 6.42495 13.4685C6.44071 13.2773 6.52919 13.0993 6.67218 12.9713C6.81517 12.8433 7.00179 12.775 7.19362 12.7804C7.38546 12.7859 7.56791 12.8646 7.70343 13.0005C8.13822 13.4885 8.69332 13.854 9.31339 14.0606C9.93346 14.2672 10.5968 14.3077 11.2374 14.178C11.9808 12.7221 13.2273 11.5854 14.7454 10.979C16.2635 10.3727 17.9501 10.3378 19.4919 10.881C19.568 9.08638 19.1053 7.31005 18.1634 5.78058C17.2214 4.25111 15.8434 3.03847 14.2066 2.29871C12.5697 1.55894 10.749 1.32589 8.97861 1.62953C7.20822 1.93317 5.56919 2.75962 4.27241 4.00254C2.97563 5.24546 2.08043 6.84798 1.702 8.6039C1.32358 10.3598 1.47923 12.1888 2.14893 13.8555C2.81864 15.5223 3.97176 16.9505 5.45992 17.9564C6.94808 18.9623 8.7032 19.4999 10.4994 19.5ZM7.87443 10.125C7.57607 10.125 7.28992 10.0065 7.07894 9.7955C6.86796 9.58452 6.74944 9.29837 6.74944 9.00001C6.74944 8.70164 6.86796 8.41549 7.07894 8.20451C7.28992 7.99353 7.57607 7.87501 7.87443 7.87501C8.1728 7.87501 8.45895 7.99353 8.66993 8.20451C8.88091 8.41549 8.99943 8.70164 8.99943 9.00001C8.99943 9.29837 8.88091 9.58452 8.66993 9.7955C8.45895 10.0065 8.1728 10.125 7.87443 10.125ZM13.1244 10.125C12.8261 10.125 12.5399 10.0065 12.3289 9.7955C12.118 9.58452 11.9994 9.29837 11.9994 9.00001C11.9994 8.70164 12.118 8.41549 12.3289 8.20451C12.5399 7.99353 12.8261 7.87501 13.1244 7.87501C13.4228 7.87501 13.709 7.99353 13.9199 8.20451C14.1309 8.41549 14.2494 8.70164 14.2494 9.00001C14.2494 9.29837 14.1309 9.58452 13.9199 9.7955C13.709 10.0065 13.4228 10.125 13.1244 10.125ZM22.4994 17.25C22.4994 18.6424 21.9463 19.9778 20.9617 20.9623C19.9772 21.9469 18.6418 22.5 17.2494 22.5C15.857 22.5 14.5217 21.9469 13.5371 20.9623C12.5526 19.9778 11.9994 18.6424 11.9994 17.25C11.9994 15.8576 12.5526 14.5223 13.5371 13.5377C14.5217 12.5531 15.857 12 17.2494 12C18.6418 12 19.9772 12.5531 20.9617 13.5377C21.9463 14.5223 22.4994 15.8576 22.4994 17.25ZM17.9994 14.25C17.9994 14.0511 17.9204 13.8603 17.7798 13.7197C17.6391 13.579 17.4483 13.5 17.2494 13.5C17.0505 13.5 16.8598 13.579 16.7191 13.7197C16.5785 13.8603 16.4994 14.0511 16.4994 14.25V16.5H14.2494C14.0505 16.5 13.8598 16.579 13.7191 16.7197C13.5785 16.8603 13.4994 17.0511 13.4994 17.25C13.4994 17.4489 13.5785 17.6397 13.7191 17.7803C13.8598 17.921 14.0505 18 14.2494 18H16.4994V20.25C16.4994 20.4489 16.5785 20.6397 16.7191 20.7803C16.8598 20.921 17.0505 21 17.2494 21C17.4483 21 17.6391 20.921 17.7798 20.7803C17.9204 20.6397 17.9994 20.4489 17.9994 20.25V18H20.2494C20.4483 18 20.6391 17.921 20.7798 17.7803C20.9204 17.6397 20.9994 17.4489 20.9994 17.25C20.9994 17.0511 20.9204 16.8603 20.7798 16.7197C20.6391 16.579 20.4483 16.5 20.2494 16.5H17.9994V14.25Z" fill="#B2B2B4"/>
</svg>
