<svg width="297" height="355" viewBox="0 0 297 355" fill="none" xmlns="http://www.w3.org/2000/svg">
<path d="M79.6831 171.708C73.3284 171.473 66.7112 170.907 61.6275 167.881C50.4239 161.692 51.4876 146.054 59.1547 137.434C65.9653 129.131 76.9478 127.004 87.6541 127.156C97.8354 127.211 108.238 128.91 114.731 136.425C120.56 143.277 123.793 155.103 117.839 162.659C113.584 167.881 106.152 168.821 98.761 169.912" fill="white"/>
<path d="M79.6831 171.708C73.3284 171.473 66.7112 170.907 61.6275 167.881C50.4239 161.692 51.4876 146.054 59.1547 137.434C65.9653 129.131 76.9478 127.004 87.6541 127.156C97.8354 127.211 108.238 128.91 114.731 136.425C120.56 143.277 123.793 155.103 117.839 162.659C113.584 167.881 106.152 168.821 98.761 169.912" stroke="#242427" stroke-width="2" stroke-miterlimit="10"/>
<path d="M97.8506 156.525H79.6016V178.67H97.8506V156.525Z" fill="#D9D9D9" stroke="#242427" stroke-width="2" stroke-miterlimit="10"/>
<path d="M106.098 140.002H71.3817C69.3522 140.002 67.707 141.647 67.707 143.677V157.477C67.707 159.507 69.3522 161.152 71.3817 161.152H106.098C108.127 161.152 109.772 159.507 109.772 157.477V143.677C109.772 141.647 108.127 140.002 106.098 140.002Z" fill="#EFEFEF" stroke="#242427" stroke-width="2" stroke-miterlimit="10"/>
<path d="M75.8984 140.652V160.269" stroke="#242427" stroke-width="2" stroke-miterlimit="10"/>
<path d="M84.4258 140.652V160.269" stroke="#242427" stroke-width="2" stroke-miterlimit="10"/>
<path d="M92.9609 140.652V160.269" stroke="#242427" stroke-width="2" stroke-miterlimit="10"/>
<path d="M101.484 140.652V160.269" stroke="#242427" stroke-width="2" stroke-miterlimit="10"/>
<path d="M88.7309 353.798C137.736 353.798 177.462 349.499 177.462 344.197C177.462 338.894 137.736 334.596 88.7309 334.596C39.7262 334.596 0 338.894 0 344.197C0 349.499 39.7262 353.798 88.7309 353.798Z" fill="white"/>
<path d="M88.7292 177.752C42.2452 177.752 4.5625 215.435 4.5625 261.919C4.5625 308.403 42.2452 346.085 88.7292 346.085C128.079 346.085 161.122 319.082 170.337 282.595C170.136 282.303 169.937 282.009 169.74 281.713C155.263 276.602 146.159 259.818 149.198 243.116C150.905 233.764 156.06 226.334 162.893 222.087C148.687 195.693 120.803 177.752 88.7292 177.752Z" fill="white"/>
<path d="M163.822 223.865C157.561 227.809 152.768 234.699 151.165 243.474C148.28 259.329 156.965 275.082 170.406 279.828L170.945 280.018C172.223 274.188 172.896 268.132 172.896 261.919C172.896 248.224 169.625 235.293 163.822 223.865Z" fill="white"/>
<path d="M153.684 231.369C142.209 207.016 117.44 190.16 88.7347 190.16C49.1038 190.16 16.9766 222.287 16.9766 261.918C16.9766 301.549 49.1038 333.676 88.7347 333.676C123.828 333.676 153.038 308.485 159.266 275.199C151.212 267.489 146.984 255.281 149.198 243.116C149.998 238.736 151.554 234.777 153.684 231.369Z" fill="#242427"/>
<path d="M154.687 233.596L154.688 233.598C153.047 236.515 151.832 239.832 151.167 243.474C149.157 254.519 152.762 265.514 159.677 272.773L159.677 272.774C152.761 265.515 149.156 254.52 151.165 243.474C151.831 239.832 153.046 236.514 154.687 233.596Z" fill="#242427"/>
<path d="M143.5 172.851C143.5 172.851 156.292 163.705 161.459 161.398" stroke="#242427" stroke-width="2" stroke-linecap="round" stroke-linejoin="round"/>
<path d="M138.789 160.225C138.789 160.225 142.16 153.483 147.99 149.449" stroke="#242427" stroke-width="2" stroke-linecap="round" stroke-linejoin="round"/>
<path d="M24.3925 172.851C24.3925 172.851 11.6002 163.705 6.43359 161.398" stroke="#242427" stroke-width="2" stroke-linecap="round" stroke-linejoin="round"/>
<path d="M29.1185 160.225C29.1185 160.225 25.7477 153.483 19.918 149.449" stroke="#242427" stroke-width="2" stroke-linecap="round" stroke-linejoin="round"/>
<path d="M115.864 212.999C115.573 212.999 115.27 212.93 115.007 212.764C114.454 212.446 114.137 211.866 114.137 211.272C114.137 210.982 114.206 210.678 114.372 210.415L114.855 209.573C115.339 208.744 116.388 208.468 117.217 208.937C117.77 209.255 118.074 209.835 118.074 210.429C118.074 210.719 118.005 211.023 117.839 211.286L117.356 212.128C117.038 212.681 116.458 212.985 115.864 212.985V212.999Z" fill="white"/>
<path d="M135.727 232.85C135.133 232.85 134.553 232.546 134.235 231.994C134.083 231.718 134 231.427 134 231.137C134 230.543 134.304 229.963 134.857 229.645L135.685 229.162C136.514 228.692 137.564 228.968 138.048 229.797C138.2 230.074 138.283 230.364 138.283 230.654C138.283 231.248 137.979 231.828 137.412 232.146L136.583 232.629C136.321 232.781 136.017 232.864 135.727 232.864V232.85Z" fill="white"/>
<path d="M143.922 259.984H142.996C142.043 259.984 141.27 259.21 141.27 258.257C141.27 257.303 142.043 256.53 142.996 256.53H143.48C143.618 256.488 143.77 256.475 143.936 256.475C144.889 256.475 145.663 257.262 145.663 258.215C145.663 258.215 145.663 258.257 145.663 258.284C145.663 259.251 144.889 259.984 143.936 259.984H143.922Z" fill="white"/>
<path d="M136.516 287.569C136.226 287.569 135.922 287.5 135.66 287.334L134.872 286.878C134.32 286.56 134.016 285.98 134.016 285.386C134.016 285.096 134.085 284.792 134.25 284.53C134.72 283.701 135.784 283.425 136.599 283.894L137.386 284.35C137.939 284.668 138.257 285.248 138.257 285.842C138.257 286.132 138.188 286.436 138.022 286.699C137.704 287.251 137.124 287.569 136.53 287.569H136.516Z" fill="white"/>
<path d="M116.319 307.754C115.725 307.754 115.145 307.45 114.827 306.898L114.372 306.11C114.22 305.848 114.137 305.544 114.137 305.254C114.137 304.66 114.441 304.079 115.007 303.762C115.836 303.278 116.886 303.568 117.356 304.397L117.811 305.185C117.963 305.461 118.046 305.751 118.046 306.041C118.046 306.635 117.742 307.215 117.19 307.533C116.913 307.685 116.623 307.768 116.333 307.768L116.319 307.754Z" fill="white"/>
<path d="M88.7307 315.131C87.7775 315.131 87.0039 314.357 87.0039 313.404V312.52C87.0039 311.567 87.7775 310.793 88.7307 310.793C89.6839 310.793 90.4575 311.567 90.4575 312.52V313.404C90.4575 314.357 89.6839 315.131 88.7307 315.131Z" fill="white"/>
<path d="M88.7307 206.338C87.7775 206.338 87.0039 205.564 87.0039 204.611V203.727C87.0039 202.774 87.7775 202 88.7307 202C89.6839 202 90.4575 202.774 90.4575 203.727V204.611C90.4575 205.564 89.6839 206.338 88.7307 206.338Z" fill="white"/>
<path d="M61.1587 307.754C60.8686 307.754 60.5785 307.685 60.3022 307.533C60.2193 307.491 60.1502 307.436 60.0949 307.395C60.0811 307.381 60.0535 307.367 60.0397 307.353C59.4042 306.828 59.2108 305.917 59.6253 305.184C59.6805 305.088 59.7358 305.005 59.791 304.936L60.0949 304.397C60.5785 303.568 61.6284 303.292 62.4434 303.761C62.996 304.079 63.3137 304.659 63.3137 305.253C63.3137 305.544 63.2447 305.847 63.0789 306.11L62.623 306.897C62.402 307.284 62.0428 307.547 61.656 307.685C61.6284 307.685 61.6007 307.699 61.5731 307.712C61.5731 307.712 61.5455 307.712 61.5317 307.712C61.4073 307.74 61.2692 307.754 61.1449 307.754H61.1587Z" fill="white"/>
<path d="M40.9478 287.569C40.3538 287.569 39.7736 287.265 39.4559 286.712C39.4144 286.643 39.4006 286.602 39.373 286.547C38.9862 285.732 39.2763 284.751 40.0775 284.309C40.188 284.24 40.2986 284.198 40.3953 284.171L40.8788 283.894C41.7076 283.425 42.7576 283.701 43.2272 284.53C43.3792 284.792 43.4621 285.096 43.4621 285.386C43.4621 285.98 43.1582 286.56 42.6056 286.878L41.8182 287.334C41.5419 287.486 41.2518 287.569 40.9617 287.569H40.9478Z" fill="white"/>
<path d="M34.4688 259.983H33.5432C32.59 259.983 31.8164 259.21 31.8164 258.257V258.215C31.8164 257.262 32.59 256.488 33.5432 256.488C33.6814 256.488 33.8057 256.502 33.93 256.53H34.4688C35.422 256.53 36.1956 257.303 36.1956 258.257C36.1956 259.21 35.422 259.983 34.4688 259.983Z" fill="white"/>
<path d="M61.6031 212.999C61.0091 212.999 60.4289 212.696 60.1112 212.143L59.6277 211.3C59.158 210.485 59.4343 209.435 60.2355 208.952C60.4289 208.841 60.6499 208.758 60.871 208.717C61.5617 208.606 62.2662 208.924 62.6392 209.573C62.6807 209.656 62.7221 209.739 62.7498 209.808L63.0951 210.416C63.2471 210.692 63.33 210.982 63.33 211.273C63.33 211.867 63.026 212.447 62.4596 212.765C62.1972 212.917 61.8933 212.999 61.6031 212.999Z" fill="white"/>
<path d="M88.774 254.801H88.7049C86.8356 254.801 85.3203 256.316 85.3203 258.185V258.254C85.3203 260.124 86.8356 261.639 88.7049 261.639H88.774C90.6432 261.639 92.1585 260.124 92.1585 258.254V258.185C92.1585 256.316 90.6432 254.801 88.774 254.801Z" fill="white"/>
<path d="M65 244L88.7305 258.215" stroke="white" stroke-width="3" stroke-miterlimit="10" stroke-linecap="round"/>
<path d="M89 217L89 258" stroke="white" stroke-width="2" stroke-miterlimit="10" stroke-linecap="round"/>
<path d="M222.967 354.169C260.985 354.169 291.805 350.161 291.805 345.217C291.805 340.274 260.985 336.266 222.967 336.266C184.949 336.266 154.129 340.274 154.129 345.217C154.129 350.161 184.949 354.169 222.967 354.169Z" fill="white"/>
<path d="M221.006 345.578L218.326 286.949H213.643L209.623 335.328C188.294 327.661 173.484 335.328 173.484 345.578H221.006Z" fill="white"/>
<path d="M226.227 345.578L228.907 286.949H233.59L237.61 335.328C258.939 327.661 273.749 335.328 273.749 345.578H226.227Z" fill="white"/>
<path d="M88.7331 177.752C42.2491 177.752 4.56641 215.435 4.56641 261.919C4.56641 308.403 42.2491 346.085 88.7331 346.085C128.083 346.085 161.126 319.082 170.341 282.595C170.833 283.307 171.338 284.008 171.857 284.699C161.867 321.233 128.436 348.085 88.7331 348.085C41.1446 348.085 2.56641 309.507 2.56641 261.919C2.56641 214.33 41.1446 175.752 88.7331 175.752C121.337 175.752 149.711 193.86 164.348 220.568C164.22 220.862 164.094 221.158 163.969 221.454C163.608 221.657 163.25 221.868 162.897 222.087C148.691 195.693 120.807 177.752 88.7331 177.752Z" fill="#242427"/>
<path d="M170.949 280.018L171.039 280.05L171.409 280.605C171.765 281.14 172.129 281.669 172.501 282.192C172.501 282.192 172.502 282.191 172.502 282.191C172.13 281.668 171.766 281.139 171.41 280.605L171.04 280.05L170.949 280.018C170.949 280.018 170.949 280.018 170.949 280.018Z" fill="#242427"/>
<path d="M165.554 222.849C165.554 222.85 165.555 222.85 165.555 222.851L165.55 222.863L164.947 223.2C164.569 223.412 164.195 223.633 163.827 223.866C163.827 223.865 163.827 223.866 163.827 223.866C164.195 223.634 164.568 223.411 164.945 223.2L165.548 222.863L165.554 222.849Z" fill="#242427"/>
<path d="M281.912 224.569C287.647 228.601 292 235.202 293.5 243.473C296.212 258.423 288.642 273.311 276.477 278.931L275.946 279.176L275.63 279.669C264.586 296.939 245.233 308.379 223.218 308.379H223.204C201.591 308.379 182.559 297.354 171.406 280.605L171.036 280.05L170.407 279.828C156.966 275.082 148.282 259.329 151.167 243.474C152.863 234.183 158.137 227.005 164.943 223.2L165.546 222.863L165.812 222.226C175.2 199.767 196.82 184 223.218 184C249.608 184 272.176 200.446 281.198 223.657L281.417 224.221L281.912 224.569Z" fill="#242427"/>
<path fill-rule="evenodd" clip-rule="evenodd" d="M207.66 334.485C207.871 333.975 208.456 333.732 208.966 333.943C208.992 333.954 209.017 333.964 209.043 333.975C210.685 334.653 212.473 335.392 214.246 336.842C214.674 337.192 214.737 337.822 214.387 338.25C214.037 338.677 213.407 338.74 212.98 338.39C211.437 337.128 209.883 336.486 208.203 335.791C207.692 335.58 207.449 334.996 207.66 334.485Z" fill="#242427"/>
<path d="M210.793 309.162L208.733 333.942C198.437 330.48 189.609 330.527 183.223 332.773C176.592 335.105 172.484 339.881 172.484 345.561C172.484 346.113 172.932 346.561 173.484 346.561H221.006C221.28 346.561 221.541 346.449 221.729 346.251C221.918 346.054 222.018 345.788 222.005 345.515L220.396 310.301C219.724 310.272 219.055 310.233 218.388 310.183L219.96 344.561H174.538C174.984 340.386 178.229 336.65 183.887 334.66C189.986 332.515 198.777 332.474 209.285 336.251C209.578 336.357 209.903 336.32 210.164 336.151C210.426 335.983 210.594 335.703 210.62 335.393L212.77 309.517C212.107 309.409 211.448 309.291 210.793 309.162Z" fill="#242427"/>
<path d="M212.718 235.739C218.005 235.739 222.291 229.424 222.291 221.634C222.291 213.844 218.005 207.529 212.718 207.529C207.431 207.529 203.145 213.844 203.145 221.634C203.145 229.424 207.431 235.739 212.718 235.739Z" fill="white"/>
<path d="M231.863 235.739C237.15 235.739 241.436 229.424 241.436 221.634C241.436 213.844 237.15 207.529 231.863 207.529C226.575 207.529 222.289 213.844 222.289 221.634C222.289 229.424 226.575 235.739 231.863 235.739Z" fill="white"/>
<path d="M213.728 230.697C217.344 230.697 220.276 226.64 220.276 221.635C220.276 216.63 217.344 212.572 213.728 212.572C210.111 212.572 207.18 216.63 207.18 221.635C207.18 226.64 210.111 230.697 213.728 230.697Z" fill="#242427"/>
<path d="M230.344 230.697C233.685 230.697 236.395 226.64 236.395 221.635C236.395 216.63 233.685 212.572 230.344 212.572C227.002 212.572 224.293 216.63 224.293 221.635C224.293 226.64 227.002 230.697 230.344 230.697Z" fill="#242427"/>
<path d="M221.862 254.83C230.33 254.83 237.209 249.788 237.209 243.571C237.209 237.355 230.344 232.312 221.875 232.312C213.407 232.312 206.541 237.355 206.527 243.571C206.527 249.788 213.393 254.83 221.862 254.83Z" fill="white"/>
<path fill-rule="evenodd" clip-rule="evenodd" d="M210.439 234.805C213.405 232.628 217.45 231.312 221.875 231.312C226.3 231.312 230.346 232.628 233.31 234.805C236.273 236.98 238.209 240.068 238.209 243.571C238.209 247.075 236.269 250.163 233.302 252.338C230.335 254.514 226.286 255.83 221.862 255.83C217.437 255.83 213.391 254.514 210.427 252.338C207.464 250.162 205.527 247.074 205.527 243.571L205.527 243.569C205.535 240.067 207.475 236.98 210.439 234.805ZM207.527 243.572C207.528 246.286 209.024 248.827 211.611 250.726C214.197 252.625 217.818 253.83 221.862 253.83C225.905 253.83 229.53 252.625 232.12 250.726C234.71 248.826 236.209 246.284 236.209 243.571C236.209 240.858 234.713 238.316 232.126 236.417C229.54 234.518 225.919 233.312 221.875 233.312C217.832 233.312 214.211 234.518 211.623 236.417C209.034 238.316 207.534 240.858 207.527 243.572Z" fill="#242427"/>
<path fill-rule="evenodd" clip-rule="evenodd" d="M213.871 244.073C211.447 245.268 208.689 246.437 205.98 244.654L207.08 242.983C208.737 244.074 210.462 243.523 212.987 242.279C213.27 242.14 213.561 241.993 213.861 241.841C216.071 240.723 218.726 239.379 221.726 239.379C224.575 239.379 226.818 240.6 228.778 241.668C229.175 241.884 229.56 242.094 229.936 242.286C231.093 242.876 232.203 243.337 233.425 243.503C234.631 243.666 236.006 243.549 237.69 242.888L238.42 244.75C236.444 245.525 234.726 245.697 233.157 245.484C231.604 245.274 230.258 244.695 229.027 244.067C228.566 243.832 228.124 243.593 227.692 243.36C225.749 242.311 224.022 241.379 221.726 241.379C219.238 241.379 217.037 242.485 214.784 243.617C214.481 243.77 214.177 243.923 213.871 244.073Z" fill="#242427"/>
<path fill-rule="evenodd" clip-rule="evenodd" d="M214.546 242.265C214.63 241.786 215.046 241.438 215.531 241.438H227.923C228.409 241.438 228.824 241.786 228.908 242.265C228.992 242.743 228.72 243.212 228.264 243.378L224.301 244.813C224.301 244.814 224.301 244.814 224.3 244.814C222.641 245.42 220.825 245.419 219.156 244.815L215.191 243.378C214.734 243.212 214.462 242.743 214.546 242.265Z" fill="#242427"/>
<path fill-rule="evenodd" clip-rule="evenodd" d="M222.926 216.536H240.774C239.393 211.259 235.911 207.529 231.85 207.529C227.789 207.529 224.307 211.273 222.926 216.536Z" fill="white"/>
<path fill-rule="evenodd" clip-rule="evenodd" d="M203.789 216.536H221.637C220.256 211.259 216.775 207.529 212.713 207.529C208.652 207.529 205.171 211.273 203.789 216.536Z" fill="white"/>
<path d="M225.228 345.515L226.839 310.26C227.511 310.223 228.181 310.175 228.848 310.117L227.273 344.561H272.695C272.249 340.386 269.004 336.649 263.346 334.66C257.247 332.515 248.456 332.474 237.948 336.251L237.945 336.252C236.676 336.801 235.467 337.408 234.266 338.391C233.839 338.74 233.209 338.677 232.859 338.25C232.509 337.822 232.572 337.192 233 336.843C234.194 335.865 235.395 335.211 236.554 334.681L234.452 309.381C235.114 309.264 235.772 309.137 236.427 309L238.494 333.881C238.569 333.869 238.644 333.865 238.718 333.869C248.92 330.48 257.669 330.543 264.01 332.773C270.641 335.105 274.749 339.881 274.749 345.561C274.749 346.113 274.301 346.561 273.749 346.561H226.227C225.953 346.561 225.692 346.449 225.503 346.251C225.315 346.054 225.215 345.788 225.228 345.515Z" fill="#242427"/>
<path d="M208.695 86.5928C209.529 86.5928 211.595 85.9928 213.195 83.5928" stroke="black" stroke-width="2" stroke-linecap="round" stroke-linejoin="round"/>
<path d="M247.493 59.5302L248.077 58.7184L247.493 59.5302L250.208 61.4835L249.189 64.6694C248.806 65.8689 250.181 66.8585 251.197 66.1135L253.893 64.1349L256.609 66.0882C257.631 66.8237 258.997 65.8213 258.602 64.6254L257.554 61.4492L260.251 59.4706C261.266 58.7256 260.735 57.1165 259.475 57.1224L256.131 57.1381L255.082 53.9618C254.687 52.766 252.993 52.7739 252.61 53.9734L251.591 57.1593L248.246 57.1749C246.987 57.1808 246.471 58.7947 247.493 59.5302ZM253.481 63.8378L253.481 63.8382C253.481 63.8381 253.481 63.838 253.481 63.8378L253.889 63.2696L253.481 63.8378Z" fill="#D9D9D9" stroke="black" stroke-width="2"/>
<path d="M257.195 77.0928L262.195 78.5928M262.195 78.5928L259.195 83.0928M262.195 78.5928L265.695 83.0928M262.195 78.5928L267.195 77.0928M262.195 78.5928V73.5928" stroke="black" stroke-width="2" stroke-linecap="round" stroke-linejoin="round"/>
<path d="M235.195 64.5401L239.195 65.8033M239.195 65.8033L236.795 69.5928M239.195 65.8033L241.995 69.5928M239.195 65.8033L243.195 64.5401M239.195 65.8033V61.5928" stroke="black" stroke-width="2" stroke-linecap="round" stroke-linejoin="round"/>
<path d="M205.195 27.0928L210.195 28.5928M210.195 28.5928L207.195 33.0928M210.195 28.5928L213.695 33.0928M210.195 28.5928L215.195 27.0928M210.195 28.5928V23.5928" stroke="black" stroke-width="2" stroke-linecap="round" stroke-linejoin="round"/>
<path d="M229.195 92.5928V85.5928L236.695 89.0928V96.0928L229.195 92.5928Z" fill="#D9D9D9" stroke="black" stroke-width="2" stroke-linecap="round" stroke-linejoin="round"/>
<path d="M187.054 38.3147L183.391 44.2793L178.832 37.3715L182.496 31.4069L187.054 38.3147Z" fill="#D9D9D9" stroke="black" stroke-width="2" stroke-linecap="round" stroke-linejoin="round"/>
<path d="M219.826 65.9901C220.905 56.5502 228.424 36.3411 238.003 39.4226C242.054 40.7257 237.659 47.0634 235.379 45.3902C232.097 45.1937 230.249 35.0491 242.871 31.5928" stroke="black" stroke-width="2" stroke-linecap="round" stroke-linejoin="round"/>
<path d="M203.195 46.0928C204.029 47.2594 207.095 49.8928 212.695 51.0928" stroke="black" stroke-width="2" stroke-linecap="round" stroke-linejoin="round"/>
<path d="M211.195 62.5928C211.529 64.4261 211.695 68.3928 209.695 69.5928" stroke="black" stroke-width="2" stroke-linecap="round" stroke-linejoin="round"/>
<path d="M194.695 27.0928C195.029 29.9261 196.495 36.9928 199.695 42.5928" stroke="black" stroke-width="2" stroke-linecap="round" stroke-linejoin="round"/>
<path d="M247.414 33.6183L248.494 21.7383L252.5 24.0004L255.514 30.3783L247.414 33.6183Z" fill="white" stroke="black" stroke-width="2" stroke-linecap="round" stroke-linejoin="round"/>
<path d="M291.695 1.75781L237.695 14.7178L252.275 23.3578L259.835 39.5578L291.695 1.75781Z" fill="white" stroke="black" stroke-width="2" stroke-linecap="round" stroke-linejoin="round"/>
<path d="M252.273 23.3579C254.973 21.3779 261.021 17.3099 263.613 16.8779" stroke="black" stroke-width="2" stroke-linecap="round" stroke-linejoin="round"/>
<path d="M267.446 13.7778C272.707 11.1172 283.994 4.66837 291.152 1.7579" stroke="black" stroke-width="2" stroke-linecap="round" stroke-linejoin="round"/>
<path d="M51.1253 241.712C49.6053 241.712 48.2773 241.36 47.1413 240.656C46.0213 239.952 45.1493 238.936 44.5253 237.608C43.9173 236.28 43.6133 234.696 43.6133 232.856C43.6133 231.016 43.9173 229.432 44.5253 228.104C45.1493 226.776 46.0213 225.76 47.1413 225.056C48.2773 224.352 49.6053 224 51.1253 224C52.6453 224 53.9733 224.352 55.1093 225.056C56.2453 225.76 57.1173 226.776 57.7253 228.104C58.3493 229.432 58.6613 231.016 58.6613 232.856C58.6613 234.696 58.3493 236.28 57.7253 237.608C57.1173 238.936 56.2453 239.952 55.1093 240.656C53.9733 241.36 52.6453 241.712 51.1253 241.712ZM51.1253 237.56C51.6213 237.56 52.0533 237.416 52.4213 237.128C52.8053 236.824 53.1013 236.328 53.3093 235.64C53.5333 234.936 53.6453 234.008 53.6453 232.856C53.6453 231.16 53.4133 229.952 52.9493 229.232C52.5013 228.512 51.8933 228.152 51.1253 228.152C50.6293 228.152 50.1973 228.304 49.8293 228.608C49.4613 228.896 49.1653 229.392 48.9413 230.096C48.7333 230.784 48.6293 231.704 48.6293 232.856C48.6293 234.552 48.8533 235.76 49.3013 236.48C49.7653 237.2 50.3733 237.56 51.1253 237.56Z" fill="white"/>
<path d="M39.24 241.712C38.456 241.712 37.848 241.464 37.416 240.968C37 240.472 36.792 239.768 36.792 238.856V231.584C36.792 231.52 36.792 231.456 36.792 231.392C36.792 231.12 36.824 230.864 36.888 230.624C36.712 230.928 36.464 231.16 36.144 231.32C35.824 231.464 35.488 231.536 35.136 231.536C34.688 231.536 34.304 231.432 33.984 231.224C33.664 231.016 33.416 230.744 33.24 230.408C33.08 230.056 33 229.68 33 229.28C33 228.704 33.192 228.224 33.576 227.84C33.976 227.44 34.536 227.112 35.256 226.856C35.576 226.744 35.88 226.6 36.168 226.424C36.472 226.248 36.728 226.04 36.936 225.8C37.048 225.656 37.16 225.512 37.272 225.368C37.64 224.888 37.96 224.544 38.232 224.336C38.52 224.112 38.912 224 39.408 224C40.16 224 40.736 224.232 41.136 224.696C41.536 225.16 41.736 225.816 41.736 226.664V238.856C41.736 239.768 41.52 240.472 41.088 240.968C40.656 241.464 40.04 241.712 39.24 241.712Z" fill="white"/>
<path d="M60.7164 242.009C60.4171 241.471 60.8127 240.81 61.4284 240.82L67.4784 240.917C68.0942 240.927 68.4683 241.6 68.1519 242.128L65.0428 247.319C64.7263 247.847 63.9566 247.835 63.6573 247.297L60.7164 242.009Z" fill="white"/>
</svg>
