<svg width="297" height="355" viewBox="0 0 297 355" fill="none" xmlns="http://www.w3.org/2000/svg">
<path d="M79.6831 171.708C73.3284 171.473 66.7112 170.907 61.6275 167.881C50.4239 161.692 51.4876 146.054 59.1547 137.434C65.9653 129.131 76.9478 127.004 87.6541 127.156C97.8354 127.211 108.238 128.91 114.731 136.425C120.56 143.277 123.793 155.103 117.839 162.659C113.584 167.881 106.152 168.821 98.761 169.912" fill="white"/>
<path d="M79.6831 171.708C73.3284 171.473 66.7112 170.907 61.6275 167.881C50.4239 161.692 51.4876 146.054 59.1547 137.434C65.9653 129.131 76.9478 127.004 87.6541 127.156C97.8354 127.211 108.238 128.91 114.731 136.425C120.56 143.277 123.793 155.103 117.839 162.659C113.584 167.881 106.152 168.821 98.761 169.912" stroke="#242427" stroke-width="2" stroke-miterlimit="10"/>
<path d="M97.8506 156.525H79.6016V178.67H97.8506V156.525Z" fill="#D9D9D9" stroke="#242427" stroke-width="2" stroke-miterlimit="10"/>
<path d="M106.098 140.002H71.3817C69.3522 140.002 67.707 141.647 67.707 143.677V157.477C67.707 159.507 69.3522 161.152 71.3817 161.152H106.098C108.127 161.152 109.772 159.507 109.772 157.477V143.677C109.772 141.647 108.127 140.002 106.098 140.002Z" fill="#EFEFEF" stroke="#242427" stroke-width="2" stroke-miterlimit="10"/>
<path d="M75.8984 140.652V160.269" stroke="#242427" stroke-width="2" stroke-miterlimit="10"/>
<path d="M84.4258 140.652V160.269" stroke="#242427" stroke-width="2" stroke-miterlimit="10"/>
<path d="M92.9609 140.652V160.269" stroke="#242427" stroke-width="2" stroke-miterlimit="10"/>
<path d="M101.484 140.652V160.269" stroke="#242427" stroke-width="2" stroke-miterlimit="10"/>
<path d="M88.7309 353.798C137.736 353.798 177.462 349.499 177.462 344.197C177.462 338.894 137.736 334.596 88.7309 334.596C39.7262 334.596 0 338.894 0 344.197C0 349.499 39.7262 353.798 88.7309 353.798Z" fill="white"/>
<path d="M88.7292 347.085C135.765 347.085 173.896 308.955 173.896 261.919C173.896 214.882 135.765 176.752 88.7292 176.752C41.6929 176.752 3.5625 214.882 3.5625 261.919C3.5625 308.955 41.6929 347.085 88.7292 347.085Z" fill="white"/>
<path fill-rule="evenodd" clip-rule="evenodd" d="M4.5625 261.919C4.5625 215.435 42.2452 177.752 88.7292 177.752C135.213 177.752 172.896 215.435 172.896 261.919C172.896 308.403 135.213 346.085 88.7292 346.085C42.2452 346.085 4.5625 308.403 4.5625 261.919ZM88.7292 175.752C41.1407 175.752 2.5625 214.33 2.5625 261.919C2.5625 309.507 41.1407 348.085 88.7292 348.085C136.318 348.085 174.896 309.507 174.896 261.919C174.896 214.33 136.318 175.752 88.7292 175.752ZM16.9766 261.918C16.9766 222.287 49.1038 190.16 88.7347 190.16C128.366 190.16 160.493 222.287 160.493 261.918C160.493 301.549 128.366 333.676 88.7347 333.676C49.1038 333.676 16.9766 301.549 16.9766 261.918Z" fill="#242427"/>
<path d="M80.87 206.121C80.0135 206.3 79.1432 206.425 78.2867 206.494C77.071 206.577 76.2283 205.789 75.9658 204.366C75.6066 202.446 76.6565 201.313 77.9551 200.83C78.9774 200.498 80.1931 200.305 81.5745 200.305C83.4257 200.305 84.5723 201.189 84.669 202.999C84.89 207.309 84.89 211.633 84.669 215.943C84.5999 217.559 83.3152 218.236 81.7127 218.236C80.1102 218.236 78.8116 217.545 78.7287 215.943C78.5491 212.669 78.5491 209.712 78.7287 206.839C79.5438 206.728 80.3588 206.535 80.87 206.107V206.121Z" fill="white"/>
<path d="M89.6553 218.083C88.1081 218.083 87.1549 217.02 87.1549 215.362V215.21C87.1549 213.925 87.7489 212.972 88.7159 212.102C90.5532 210.485 92.957 208.814 94.4351 206.976C94.9601 206.313 94.6976 205.581 93.9516 205.581C93.0675 205.581 92.7359 205.885 92.4458 206.507C91.8932 207.764 89.7658 208.013 88.6192 207.419C87.293 206.728 86.768 205.236 87.4311 203.799C88.6054 201.188 91.313 200.18 94.7943 200.18C98.2756 200.18 101.066 202.459 101.066 205.816C101.066 208.841 97.7921 211.798 94.0621 214.146C95.0844 213.773 95.8718 213.373 96.5764 212.861H99.0354C100.776 212.861 101.467 214.036 101.467 215.472C101.467 216.909 100.776 218.097 99.0354 218.097H89.6415L89.6553 218.083Z" fill="white"/>
<path d="M143.5 172.851C143.5 172.851 156.292 163.705 161.459 161.398" stroke="#242427" stroke-width="2" stroke-linecap="round" stroke-linejoin="round"/>
<path d="M138.789 160.225C138.789 160.225 142.16 153.483 147.99 149.449" stroke="#242427" stroke-width="2" stroke-linecap="round" stroke-linejoin="round"/>
<path d="M24.3925 172.851C24.3925 172.851 11.6002 163.705 6.43359 161.398" stroke="#242427" stroke-width="2" stroke-linecap="round" stroke-linejoin="round"/>
<path d="M29.1185 160.225C29.1185 160.225 25.7477 153.483 19.918 149.449" stroke="#242427" stroke-width="2" stroke-linecap="round" stroke-linejoin="round"/>
<path d="M115.864 212.999C115.573 212.999 115.27 212.93 115.007 212.764C114.454 212.446 114.137 211.866 114.137 211.272C114.137 210.982 114.206 210.678 114.372 210.415L114.855 209.573C115.339 208.744 116.388 208.468 117.217 208.937C117.77 209.255 118.074 209.835 118.074 210.429C118.074 210.719 118.005 211.023 117.839 211.286L117.356 212.128C117.038 212.681 116.458 212.985 115.864 212.985V212.999Z" fill="white"/>
<path d="M135.727 232.85C135.133 232.85 134.553 232.546 134.235 231.994C134.083 231.718 134 231.427 134 231.137C134 230.543 134.304 229.963 134.857 229.645L135.685 229.162C136.514 228.692 137.564 228.968 138.048 229.797C138.2 230.074 138.283 230.364 138.283 230.654C138.283 231.248 137.979 231.828 137.412 232.146L136.583 232.629C136.321 232.781 136.017 232.864 135.727 232.864V232.85Z" fill="white"/>
<path d="M143.922 259.984H142.996C142.043 259.984 141.27 259.21 141.27 258.257C141.27 257.303 142.043 256.53 142.996 256.53H143.48C143.618 256.488 143.77 256.475 143.936 256.475C144.889 256.475 145.663 257.262 145.663 258.215C145.663 258.215 145.663 258.257 145.663 258.284C145.663 259.251 144.889 259.984 143.936 259.984H143.922Z" fill="white"/>
<path d="M136.516 287.569C136.226 287.569 135.922 287.5 135.66 287.334L134.872 286.878C134.32 286.56 134.016 285.98 134.016 285.386C134.016 285.096 134.085 284.792 134.25 284.53C134.72 283.701 135.784 283.425 136.599 283.894L137.386 284.35C137.939 284.668 138.257 285.248 138.257 285.842C138.257 286.132 138.188 286.436 138.022 286.699C137.704 287.251 137.124 287.569 136.53 287.569H136.516Z" fill="white"/>
<path d="M116.319 307.754C115.725 307.754 115.145 307.45 114.827 306.898L114.372 306.11C114.22 305.848 114.137 305.544 114.137 305.254C114.137 304.66 114.441 304.079 115.007 303.762C115.836 303.278 116.886 303.568 117.356 304.397L117.811 305.185C117.963 305.461 118.046 305.751 118.046 306.041C118.046 306.635 117.742 307.215 117.19 307.533C116.913 307.685 116.623 307.768 116.333 307.768L116.319 307.754Z" fill="white"/>
<path d="M88.7307 315.131C87.7775 315.131 87.0039 314.357 87.0039 313.404V312.52C87.0039 311.567 87.7775 310.793 88.7307 310.793C89.6839 310.793 90.4575 311.567 90.4575 312.52V313.404C90.4575 314.357 89.6839 315.131 88.7307 315.131Z" fill="white"/>
<path d="M61.1587 307.754C60.8686 307.754 60.5785 307.685 60.3022 307.533C60.2193 307.491 60.1502 307.436 60.0949 307.395C60.0811 307.381 60.0535 307.367 60.0397 307.353C59.4042 306.828 59.2108 305.917 59.6253 305.184C59.6805 305.088 59.7358 305.005 59.791 304.936L60.0949 304.397C60.5785 303.568 61.6284 303.292 62.4434 303.761C62.996 304.079 63.3137 304.659 63.3137 305.253C63.3137 305.544 63.2447 305.847 63.0789 306.11L62.623 306.897C62.402 307.284 62.0428 307.547 61.656 307.685C61.6284 307.685 61.6007 307.699 61.5731 307.712C61.5731 307.712 61.5455 307.712 61.5317 307.712C61.4073 307.74 61.2692 307.754 61.1449 307.754H61.1587Z" fill="white"/>
<path d="M40.9478 287.569C40.3538 287.569 39.7736 287.265 39.4559 286.712C39.4144 286.643 39.4006 286.602 39.373 286.547C38.9862 285.732 39.2763 284.751 40.0775 284.309C40.188 284.24 40.2986 284.198 40.3953 284.171L40.8788 283.894C41.7076 283.425 42.7576 283.701 43.2272 284.53C43.3792 284.792 43.4621 285.096 43.4621 285.386C43.4621 285.98 43.1582 286.56 42.6056 286.878L41.8182 287.334C41.5419 287.486 41.2518 287.569 40.9617 287.569H40.9478Z" fill="white"/>
<path d="M34.4688 259.983H33.5432C32.59 259.983 31.8164 259.21 31.8164 258.257V258.215C31.8164 257.262 32.59 256.488 33.5432 256.488C33.6814 256.488 33.8057 256.502 33.93 256.53H34.4688C35.422 256.53 36.1956 257.303 36.1956 258.257C36.1956 259.21 35.422 259.983 34.4688 259.983Z" fill="white"/>
<path d="M41.7492 232.85C41.4591 232.85 41.1552 232.781 40.8927 232.615L40.0638 232.131C39.4146 231.758 39.0968 231.026 39.235 230.336C39.2902 230.101 39.3455 229.935 39.4422 229.783L39.456 229.755C39.8843 229.023 40.7822 228.719 41.5558 229.023C41.6387 229.051 41.7078 229.092 41.7907 229.134C41.915 229.203 42.0117 229.272 42.1084 229.355L42.6195 229.645C43.1721 229.963 43.476 230.543 43.476 231.137C43.476 231.427 43.407 231.731 43.2412 231.993C42.9235 232.546 42.3432 232.85 41.7492 232.85Z" fill="white"/>
<path d="M61.6031 212.999C61.0091 212.999 60.4289 212.696 60.1112 212.143L59.6277 211.3C59.158 210.485 59.4343 209.435 60.2355 208.952C60.4289 208.841 60.6499 208.758 60.871 208.717C61.5617 208.606 62.2662 208.924 62.6392 209.573C62.6807 209.656 62.7221 209.739 62.7498 209.808L63.0951 210.416C63.2471 210.692 63.33 210.982 63.33 211.273C63.33 211.867 63.026 212.447 62.4596 212.765C62.1972 212.917 61.8933 212.999 61.6031 212.999Z" fill="white"/>
<path d="M88.774 254.801H88.7049C86.8356 254.801 85.3203 256.316 85.3203 258.185V258.254C85.3203 260.124 86.8356 261.639 88.7049 261.639H88.774C90.6432 261.639 92.1585 260.124 92.1585 258.254V258.185C92.1585 256.316 90.6432 254.801 88.774 254.801Z" fill="white"/>
<path d="M88.7305 228.928V258.215" stroke="white" stroke-width="2" stroke-miterlimit="10" stroke-linecap="round"/>
<path d="M222.967 354.169C260.985 354.169 291.805 350.161 291.805 345.217C291.805 340.274 260.985 336.266 222.967 336.266C184.949 336.266 154.129 340.274 154.129 345.217C154.129 350.161 184.949 354.169 222.967 354.169Z" fill="white"/>
<path d="M221.006 345.578L218.326 286.949H213.643L209.623 335.328C188.294 327.661 173.484 335.328 173.484 345.578H221.006Z" fill="white" stroke="#242427" stroke-width="2" stroke-linecap="round" stroke-linejoin="round"/>
<path d="M208.586 334.885C210.257 335.575 211.943 336.266 213.614 337.634" stroke="#242427" stroke-width="2" stroke-linecap="round" stroke-linejoin="round"/>
<path d="M226.227 345.578L228.907 286.949H233.59L237.61 335.328C258.939 327.661 273.749 335.328 273.749 345.578H226.227Z" fill="white" stroke="#242427" stroke-width="2" stroke-linecap="round" stroke-linejoin="round"/>
<path d="M238.661 334.885C236.99 335.575 235.304 336.266 233.633 337.634" stroke="#242427" stroke-width="2" stroke-linecap="round" stroke-linejoin="round"/>
<path d="M164.887 221.84C174.423 199.027 196.395 183 223.215 183C250.031 183 272.961 199.712 282.127 223.295L282.237 223.577L282.484 223.751C288.446 227.943 292.937 234.78 294.481 243.294C297.267 258.65 289.51 274.01 276.893 279.839L276.628 279.961L276.47 280.208C265.249 297.753 245.585 309.379 223.215 309.379H223.201C201.239 309.379 181.901 298.175 170.571 281.159L170.386 280.882L170.072 280.77C156.113 275.842 147.218 259.574 150.18 243.295C151.926 233.732 157.368 226.288 164.452 222.327L164.754 222.159L164.887 221.84Z" fill="#242427"/>
<path d="M294.481 243.294C292.937 234.78 288.446 227.943 282.484 223.751L282.237 223.577L282.127 223.295C272.961 199.712 250.031 183 223.215 183C196.395 183 174.423 199.027 164.887 221.84L164.754 222.159L164.452 222.327C157.368 226.288 151.926 233.732 150.18 243.295C147.218 259.574 156.113 275.842 170.072 280.77L170.386 280.882L170.571 281.159C181.901 298.175 201.239 309.379 223.201 309.379H223.215C245.585 309.379 265.249 297.753 276.47 280.208L276.628 279.961L276.893 279.839C289.51 274.01 297.267 258.65 294.481 243.294ZM294.481 243.294L295.465 243.116" stroke="#F5F378" stroke-width="2" stroke-miterlimit="10"/>
<path d="M212.718 235.739C218.005 235.739 222.291 229.424 222.291 221.634C222.291 213.844 218.005 207.529 212.718 207.529C207.431 207.529 203.145 213.844 203.145 221.634C203.145 229.424 207.431 235.739 212.718 235.739Z" fill="white"/>
<path d="M231.863 235.739C237.15 235.739 241.436 229.424 241.436 221.634C241.436 213.844 237.15 207.529 231.863 207.529C226.575 207.529 222.289 213.844 222.289 221.634C222.289 229.424 226.575 235.739 231.863 235.739Z" fill="white"/>
<path d="M213.728 230.697C217.344 230.697 220.276 226.64 220.276 221.635C220.276 216.63 217.344 212.572 213.728 212.572C210.111 212.572 207.18 216.63 207.18 221.635C207.18 226.64 210.111 230.697 213.728 230.697Z" fill="#242427"/>
<path d="M230.344 230.697C233.685 230.697 236.395 226.64 236.395 221.635C236.395 216.63 233.685 212.572 230.344 212.572C227.002 212.572 224.293 216.63 224.293 221.635C224.293 226.64 227.002 230.697 230.344 230.697Z" fill="#242427"/>
<path d="M221.862 254.83C230.33 254.83 237.209 249.788 237.209 243.571C237.209 237.355 230.344 232.312 221.875 232.312C213.407 232.312 206.541 237.355 206.527 243.571C206.527 249.788 213.393 254.83 221.862 254.83Z" fill="white" stroke="#242427" stroke-width="2" stroke-miterlimit="10"/>
<path d="M206.527 243.819C210.893 246.692 215.493 240.379 221.723 240.379C227.954 240.379 230.73 246.692 238.052 243.819" stroke="#242427" stroke-width="2"/>
<path d="M219.496 243.874L215.531 242.438H227.923L223.958 243.874C222.521 244.399 220.947 244.399 219.496 243.874Z" stroke="#242427" stroke-width="2" stroke-linecap="round" stroke-linejoin="round"/>
<path fill-rule="evenodd" clip-rule="evenodd" d="M222.926 216.536H240.774C239.393 211.259 235.911 207.529 231.85 207.529C227.789 207.529 224.307 211.273 222.926 216.536Z" fill="white"/>
<path fill-rule="evenodd" clip-rule="evenodd" d="M203.789 216.536H221.637C220.256 211.259 216.775 207.529 212.713 207.529C208.652 207.529 205.171 211.273 203.789 216.536Z" fill="white"/>
<path d="M208.693 86.5938C209.527 86.5938 211.593 85.9938 213.193 83.5938" stroke="black" stroke-width="2" stroke-linecap="round" stroke-linejoin="round"/>
<path d="M247.491 59.5292L248.075 58.7175L247.491 59.5292L250.206 61.4826L249.187 64.6684C248.804 65.868 250.179 66.8575 251.195 66.1125L253.891 64.1339L256.607 66.0872C257.629 66.8227 258.995 65.8203 258.6 64.6244L257.552 61.4482L260.249 59.4696C261.264 58.7246 260.733 57.1156 259.473 57.1215L256.129 57.1371L255.08 53.9609C254.686 52.765 252.991 52.7729 252.608 53.9724L251.589 57.1583L248.244 57.1739C246.985 57.1798 246.469 58.7938 247.491 59.5292ZM253.479 63.8369L253.479 63.8372C253.479 63.8371 253.479 63.837 253.479 63.8369L253.887 63.2686L253.479 63.8369Z" fill="#D9D9D9" stroke="black" stroke-width="2"/>
<path d="M257.193 77.0938L262.193 78.5938M262.193 78.5938L259.193 83.0938M262.193 78.5938L265.693 83.0938M262.193 78.5938L267.193 77.0938M262.193 78.5938V73.5938" stroke="black" stroke-width="2" stroke-linecap="round" stroke-linejoin="round"/>
<path d="M235.193 64.5411L239.193 65.8043M239.193 65.8043L236.793 69.5938M239.193 65.8043L241.993 69.5938M239.193 65.8043L243.193 64.5411M239.193 65.8043V61.5938" stroke="black" stroke-width="2" stroke-linecap="round" stroke-linejoin="round"/>
<path d="M205.193 27.0938L210.193 28.5938M210.193 28.5938L207.193 33.0938M210.193 28.5938L213.693 33.0938M210.193 28.5938L215.193 27.0938M210.193 28.5938V23.5938" stroke="black" stroke-width="2" stroke-linecap="round" stroke-linejoin="round"/>
<path d="M229.193 92.5938V85.5938L236.693 89.0938V96.0938L229.193 92.5938Z" fill="#D9D9D9" stroke="black" stroke-width="2" stroke-linecap="round" stroke-linejoin="round"/>
<path d="M187.054 38.3147L183.391 44.2793L178.832 37.3715L182.496 31.4069L187.054 38.3147Z" fill="#D9D9D9" stroke="black" stroke-width="2" stroke-linecap="round" stroke-linejoin="round"/>
<path d="M219.824 65.9901C220.903 56.5502 228.422 36.3411 238.001 39.4226C242.052 40.7257 237.657 47.0634 235.377 45.3902C232.095 45.1937 230.247 35.0491 242.869 31.5928" stroke="black" stroke-width="2" stroke-linecap="round" stroke-linejoin="round"/>
<path d="M203.193 46.0938C204.027 47.2604 207.093 49.8937 212.693 51.0938" stroke="black" stroke-width="2" stroke-linecap="round" stroke-linejoin="round"/>
<path d="M211.193 62.5938C211.527 64.4271 211.693 68.3937 209.693 69.5938" stroke="black" stroke-width="2" stroke-linecap="round" stroke-linejoin="round"/>
<path d="M194.693 27.0938C195.027 29.9271 196.493 36.9938 199.693 42.5938" stroke="black" stroke-width="2" stroke-linecap="round" stroke-linejoin="round"/>
<path d="M247.414 33.6183L248.494 21.7383L252.5 24.0004L255.514 30.3783L247.414 33.6183Z" fill="white" stroke="black" stroke-width="2" stroke-linecap="round" stroke-linejoin="round"/>
<path d="M291.693 1.75781L237.693 14.7178L252.273 23.3578L259.833 39.5578L291.693 1.75781Z" fill="white" stroke="black" stroke-width="2" stroke-linecap="round" stroke-linejoin="round"/>
<path d="M252.273 23.357C254.973 21.377 261.021 17.309 263.613 16.877" stroke="black" stroke-width="2" stroke-linecap="round" stroke-linejoin="round"/>
<path d="M267.446 13.7778C272.707 11.1172 283.994 4.66837 291.152 1.7579" stroke="black" stroke-width="2" stroke-linecap="round" stroke-linejoin="round"/>
</svg>
