<svg width="16" height="26" viewBox="0 0 16 26" fill="none" xmlns="http://www.w3.org/2000/svg">
<path d="M5.61223 17.7769C5.64518 13.5911 6.83171 12.3057 8.90812 11.0203C10.3254 10.1304 11.38 9.00977 11.38 7.36182C11.38 5.51611 9.96281 4.32959 8.15007 4.32959C6.50212 4.32959 4.92009 5.38428 4.82121 7.59253H0.701337C0.800214 3.17603 4.12907 0.901855 8.18303 0.901855C12.6325 0.901855 15.6977 3.37378 15.6977 7.2959C15.6977 9.96558 14.3464 11.7124 12.204 12.9978C10.2924 14.1514 9.50139 15.3049 9.46843 17.7769V18.0735H5.61223V17.7769ZM7.65568 25.3574C6.23845 25.3574 5.08488 24.2039 5.08488 22.7866C5.08488 21.4023 6.23845 20.2488 7.65568 20.2488C9.007 20.2488 10.1935 21.4023 10.1935 22.7866C10.1935 24.2039 9.007 25.3574 7.65568 25.3574Z" fill="#8C8C8E"/>
</svg>
