<svg width="40" height="40" viewBox="0 0 40 40" fill="none" xmlns="http://www.w3.org/2000/svg">
<path d="M15.2519 23.4562C17.8849 23.4562 20.0194 20.3093 20.0194 16.4273C20.0194 12.5454 17.8849 9.39844 15.2519 9.39844C12.6189 9.39844 10.4844 12.5454 10.4844 16.4273C10.4844 20.3093 12.6189 23.4562 15.2519 23.4562Z" fill="#515155"/>
<path d="M24.7968 23.4562C27.4298 23.4562 29.5643 20.3093 29.5643 16.4273C29.5643 12.5454 27.4298 9.39844 24.7968 9.39844C22.1638 9.39844 20.0293 12.5454 20.0293 16.4273C20.0293 20.3093 22.1638 23.4562 24.7968 23.4562Z" fill="#515155"/>
<path d="M24.2305 21.2042C25.9984 21.2042 27.4316 18.9558 27.4316 16.1822C27.4316 13.4086 25.9984 11.1602 24.2305 11.1602C22.4625 11.1602 21.0293 13.4086 21.0293 16.1822C21.0293 18.9558 22.4625 21.2042 24.2305 21.2042Z" fill="#46464E"/>
<path d="M15.8301 21.2042C17.598 21.2042 19.0313 18.9558 19.0313 16.1822C19.0313 13.4086 17.598 11.1602 15.8301 11.1602C14.0621 11.1602 12.6289 13.4086 12.6289 16.1822C12.6289 18.9558 14.0621 21.2042 15.8301 21.2042Z" fill="#46464E"/>
<path d="M20 40C31.0457 40 40 31.0457 40 20C40 8.95431 31.0457 0 20 0C8.95431 0 0 8.95431 0 20C0 31.0457 8.95431 40 20 40Z" fill="#353538"/>
<path d="M35.2522 1.30941C35.1837 1.11362 34.9977 0.976562 34.7823 0.976562C34.5669 0.976562 34.3809 1.11362 34.3124 1.30941L34.0089 2.19046C33.6174 3.34563 32.7167 4.24626 31.5616 4.63785L30.6805 4.94132C30.4847 5.00985 30.3477 5.19585 30.3477 5.41122C30.3477 5.62659 30.4847 5.81259 30.6805 5.88111L31.5616 6.18459C32.7167 6.57617 33.6174 7.47681 34.0089 8.63197L34.3124 9.51303C34.3809 9.70882 34.5669 9.84587 34.7823 9.84587C34.9977 9.84587 35.1837 9.70882 35.2522 9.51303L35.5557 8.63197C35.9473 7.47681 36.8479 6.57617 38.0031 6.18459L38.8841 5.88111C39.0799 5.81259 39.217 5.62659 39.217 5.41122C39.217 5.19585 39.0799 5.00985 38.8841 4.94132L38.0031 4.63785C36.8479 4.24626 35.9473 3.34563 35.5557 2.19046L35.2522 1.30941Z" fill="#515155"/>
<path d="M19.851 23.0876C19.851 23.0876 19.8412 23.0876 19.8314 23.0876H19.8608C19.8608 23.0876 19.851 23.0876 19.8412 23.0876C23.2871 23.0974 24.8045 26.2104 26.8211 25.0259C26.8211 24.928 26.8407 24.8399 26.8407 24.742C26.8407 21.6877 23.7179 19.2109 19.8608 19.2109C16.0037 19.2109 12.8809 21.6877 12.8809 24.742C12.8809 24.8399 12.8906 24.9378 12.9004 25.0357C14.8975 26.1713 16.4149 23.0876 19.8412 23.0778L19.851 23.0876Z" fill="#515155"/>
<path d="M19.8509 23.0859C16.4246 23.0859 14.9072 26.1794 12.9102 25.0438C13.1059 27.9611 16.1407 30.2812 19.8705 30.2812C23.6003 30.2812 26.6449 27.9513 26.8309 25.0243C24.8142 26.2186 23.3066 23.0957 19.8509 23.0859Z" fill="#3F3F43"/>
<path d="M16.9335 23.8691C16.8943 23.9768 16.8748 24.0943 16.9139 24.2117C17.2566 25.3963 18.4313 26.199 19.841 26.199C21.2507 26.199 22.4254 25.4061 22.7681 24.2117C22.8072 24.0845 22.7876 23.967 22.7387 23.8495C21.9359 23.4286 21.0059 23.0859 19.8606 23.0859C18.6956 23.0859 17.7558 23.4481 16.9433 23.8691H16.9335Z" fill="#353538"/>
<path d="M32.8911 10.4177C29.5039 9.4681 25.6273 10.1142 22.8079 12.0134C22.6512 12.1211 22.4946 12.2287 22.3478 12.3462C22.2107 12.4539 22.0737 12.5518 21.917 12.6399C21.3199 12.9923 20.6542 13.1587 19.9689 13.1881C19.2836 13.1587 18.618 12.9923 18.0208 12.6399C17.874 12.5518 17.7271 12.4539 17.5901 12.3462C17.4432 12.2287 17.2866 12.1211 17.13 12.0134C14.3106 10.1142 10.4339 9.4681 7.04674 10.4177C6.57684 12.6399 6.58663 15.0285 7.75159 17.0354C8.91654 19.0423 11.4422 20.5303 13.9484 20.1583C14.0756 20.1387 14.2127 20.1191 14.3399 20.0897C14.4672 20.0604 14.5945 20.031 14.7217 19.9918C14.8294 19.9625 14.9273 19.9331 15.0252 19.9037C16.8852 19.2772 17.7565 17.8186 18.8725 16.4284C18.9606 16.311 19.0585 16.1935 19.1564 16.0858C19.7242 15.4984 20.2234 15.4984 20.7912 16.0858C20.8891 16.1935 20.987 16.3012 21.0751 16.4284C22.1911 17.8186 23.0624 19.2772 24.9224 19.9037C25.0203 19.9331 25.128 19.9625 25.2259 19.9918C25.3531 20.031 25.4706 20.0604 25.6077 20.0897C25.7447 20.1191 25.8622 20.1387 25.9993 20.1583C28.5054 20.5303 31.0311 19.0423 32.196 17.0354C33.361 15.0285 33.3708 12.6301 32.9009 10.4177H32.8911Z" fill="#515155"/>
<path d="M31.0923 12.1809L22.5852 16.2925C22.4873 15.3723 22.644 14.4814 23.0062 13.6982L28.8016 10.8984C29.6729 11.1138 30.4658 11.5641 31.0923 12.1809Z" fill="#515155"/>
<path d="M17.3956 13.7863L9.52481 17.8979C8.80038 17.056 8.23259 16.6449 8.16406 15.8617L15.1048 12.5039C15.9761 12.7193 16.769 13.1696 17.3956 13.7863Z" fill="#515155"/>
</svg>
