<svg width="19" height="24" viewBox="0 0 19 24" fill="none" xmlns="http://www.w3.org/2000/svg">
<path d="M0.681863 21.3536L3.85789 15.0215L9.48086 17.029L5.97525 24.0003L4.29734 20.9441L0.671875 21.3436H0.681863V21.3536Z" fill="#58A366"/>
<path d="M18.4357 21.3536L15.2597 15.0215L9.63672 17.029L13.1423 24.0003L14.8302 20.9441L18.4557 21.3436H18.4457L18.4357 21.3536Z" fill="#58A366"/>
<path fill-rule="evenodd" clip-rule="evenodd" d="M6.09238 0C7.201 0 8.24969 0.299625 9.13858 0.818976C10.0375 0.299625 11.0762 0 12.1748 0C15.5306 0 18.2672 2.73658 18.2672 6.09238C18.2672 7.19101 17.9775 8.21973 17.4682 9.1186C17.9775 10.0075 18.2672 11.0462 18.2672 12.1348C18.2672 15.4906 15.5306 18.2272 12.1748 18.2272C11.0662 18.2272 10.0175 17.9276 9.13858 17.4082C8.2397 17.9276 7.201 18.2272 6.09238 18.2272C2.73658 18.2272 0 15.4906 0 12.1348C0 11.0362 0.289639 10.0075 0.799002 9.1186C0.289639 8.22971 0 7.19101 0 6.09238C0 2.73658 2.73658 0 6.09238 0Z" fill="#7FEC93"/>
<path d="M11.1557 13.1628H6.92103C6.41166 13.1628 5.99219 12.7533 5.99219 12.234C5.99219 11.9643 6.12202 11.7046 6.31179 11.5349L8.79868 9.32761C9.63763 8.57855 9.93726 8.0592 9.93726 7.47992C9.93726 6.90065 9.56772 6.5411 8.9385 6.5411C8.20941 6.5411 8.0596 6.99053 7.88982 7.4999C7.69006 8.09915 7.2606 8.16906 7.0209 8.16906C6.74125 8.16906 6.17196 8.07917 6.17196 7.3401C6.17196 6.69091 6.77121 5.04297 9.11828 5.04297C10.7762 5.04297 11.8349 5.92187 11.8349 7.39003C11.8349 8.59852 11.1557 9.4175 9.97721 10.4462L8.75873 11.5149V11.5448H11.1857C11.6251 11.5448 11.9847 11.9044 11.9847 12.3438C11.9847 12.7833 11.6251 13.1428 11.1857 13.1428L11.1557 13.1628Z" fill="#3E814A"/>
</svg>
