<svg width="20" height="20" viewBox="0 0 20 20" fill="none" xmlns="http://www.w3.org/2000/svg">
<circle cx="10" cy="10" r="10" fill="#353538"/>
<path d="M15.9603 8.61985C15.8697 8.20598 15.4172 7.93007 14.9827 8.03354C13.3172 8.37843 12.2129 9.10269 11.706 10.1891C11.1629 11.3445 11.3439 12.7413 12.2852 14.3622C12.4301 14.6209 12.7198 14.7761 13.0094 14.7761C13.1362 14.7761 13.281 14.7416 13.4077 14.6726C13.806 14.4657 13.9508 14.0001 13.7336 13.6207C13.281 12.8102 12.8103 11.6894 13.2085 10.8444C13.4982 10.2408 14.2223 9.80971 15.3629 9.56829C15.7974 9.48207 16.087 9.05096 15.9784 8.63709L15.9603 8.61985Z" fill="#DCC1FF"/>
<path d="M9.11575 11.2047C7.95712 10.7908 6.63561 11.015 5.20543 11.8944C4.82526 12.1186 4.71661 12.6015 4.95196 12.9636C5.1873 13.3257 5.69419 13.4292 6.07437 13.205C7.05196 12.6187 7.88475 12.429 8.53648 12.6532C9.44166 12.9808 9.96666 14.0845 10.2382 14.9639C10.3468 15.3088 10.6727 15.5158 11.0167 15.5158C11.0891 15.5158 11.1796 15.5158 11.252 15.4813C11.6865 15.3606 11.9399 14.9295 11.8132 14.5156C11.2701 12.7394 10.3649 11.6185 9.11575 11.1702V11.2047Z" fill="#DCC1FF"/>
<path d="M10.8839 8.32498C11.2641 8.46293 11.6442 8.53191 12.0606 8.53191C12.9115 8.53191 13.8348 8.23876 14.8124 7.6352C15.1926 7.41102 15.3012 6.92818 15.0658 6.56605C14.8305 6.20392 14.3236 6.10045 13.9434 6.32463C12.9658 6.91094 12.133 7.10063 11.4813 6.87645C10.5761 6.5488 10.0512 5.44516 9.7796 4.5657C9.65288 4.15183 9.20024 3.91041 8.76575 4.03112C8.33127 4.15183 8.07782 4.58294 8.20454 4.99681C8.74765 6.77298 9.65287 7.89387 10.902 8.34222L10.8839 8.32498Z" fill="#DCC1FF"/>
<path d="M5.00051 11.4813C6.66604 11.1364 7.77035 10.4122 8.27725 9.32576C8.82036 8.17039 8.63931 6.77359 7.69793 5.15261C7.48068 4.77324 6.99191 4.63528 6.59364 4.84221C6.19536 5.04915 6.05054 5.51475 6.26779 5.89412C6.72037 6.70461 7.19103 7.8255 6.79275 8.67048C6.50309 9.27403 5.77895 9.70514 4.63842 9.94656C4.20394 10.0328 3.91429 10.4639 4.02291 10.8778C4.11342 11.2399 4.43929 11.4813 4.81947 11.4813C4.87378 11.4813 4.9462 11.4813 5.00051 11.4641V11.4813Z" fill="#DCC1FF"/>
</svg>
