<svg width="210" height="243" viewBox="0 0 210 243" fill="none" xmlns="http://www.w3.org/2000/svg">
<g clip-path="url(#clip0_4878_90729)">
<path d="M117.43 243.017C168.287 243.017 209.515 232.686 209.515 219.943C209.515 207.2 168.287 196.869 117.43 196.869C66.572 196.869 25.3438 207.2 25.3438 219.943C25.3438 232.686 66.572 243.017 117.43 243.017Z" fill="white"/>
<path d="M200.034 30.1006C194.787 24.1023 188.871 18.724 182.4 14.0707C176.876 9.94089 170.774 6.64691 164.289 4.29471C158.593 2.33623 144.532 -2.09094 145.059 8.14584C145.586 18.3826 158.56 26.8913 165.705 31.9439C172.555 36.8812 183.388 46.3116 192.526 45.1101C195.506 44.7481 195.671 41.6375 194.897 39.3499C193.25 34.61 189.562 30.9399 185.66 27.8294C179.353 22.8281 172.304 18.8412 164.767 16.0127C160.226 14.0786 155.277 13.2983 150.36 13.7415C146.458 14.3011 142.128 17.0331 142.276 20.95C142.276 23.501 144.203 25.6241 146.047 27.418C153.916 34.9971 163.32 40.8002 173.625 44.4354C175.765 45.176 178.251 45.8014 180.211 44.6164C181.185 43.8635 181.883 42.8096 182.196 41.6189C182.508 40.4282 182.418 39.1675 181.939 38.0333C179.025 29.9031 167.994 25.5089 160.322 23.7808C152.649 22.0527 139.395 25.5747 143.659 35.8279C146.176 41.1739 149.915 45.8533 154.575 49.4879C156.78 51.4627 159.37 52.9589 162.182 53.8822C166.117 54.9355 170.101 53.767 167.566 49.3398C165.793 46.5774 163.253 44.3924 160.256 43.0529C150.114 38.3131 141.552 45.7026 137.008 54.4582" stroke="white" stroke-width="2" stroke-linecap="round" stroke-linejoin="round"/>
<path fill-rule="evenodd" clip-rule="evenodd" d="M183.716 145.125C185.955 131.613 172.306 117.805 152.318 112.094C163.251 100.129 166.56 85.8438 159.233 76.4135C152.154 67.2959 137.22 65.3209 121.925 70.2912C117.661 59.3467 109.231 51.2659 98.4796 49.4885C85.7196 47.3489 73.2231 54.6233 65.7153 66.9996C54.5359 62.556 42.665 62.737 33.8236 68.6454C22.9735 75.7716 19.3843 89.3823 23.1711 103.306C12.2222 107.832 4.26989 116.274 2.50819 126.939C0.0220578 142.064 10.6416 156.975 27.5506 164.265C21.8869 173.334 20.7673 182.369 25.5914 188.656C31.6009 196.391 45.1018 197.576 59.5576 192.738C63.9865 205.904 74.6555 216.009 88.4198 218.313C104.884 221.078 120.888 211.73 128.379 196.325C138.11 201.592 147.741 202.777 154.179 198.531C162.658 192.951 163.333 179.654 157.044 165.516C171.318 163.097 181.954 155.642 183.667 145.191L183.716 145.125Z" fill="#242427" stroke="white" stroke-width="2" stroke-miterlimit="10" stroke-linecap="round"/>
<path d="M126.216 127.219C132.53 126.937 137.31 119.163 136.894 109.856C136.478 100.549 131.022 93.2323 124.709 93.5145C118.395 93.7967 113.615 101.571 114.031 110.878C114.447 120.185 119.903 127.502 126.216 127.219Z" fill="white"/>
<path d="M118.437 150.342C108.361 151.346 99.585 146.145 98.8605 138.821C98.1361 131.498 105.693 124.618 115.786 123.614C125.879 122.61 134.638 127.811 135.362 135.135C136.087 142.459 128.53 149.305 118.437 150.342Z" fill="white" stroke="#242427" stroke-width="2" stroke-miterlimit="10"/>
<path d="M135.394 135.415C130.454 139.332 124.313 132.37 116.904 133.094C109.495 133.818 106.927 141.669 97.8711 139.118" stroke="#242427" stroke-width="2"/>
<path d="M119.621 137.176L124.56 134.822L109.824 136.287L115.093 137.637C116.61 138.01 118.21 137.847 119.621 137.176Z" fill="#242427" stroke="#242427" stroke-width="2" stroke-linecap="round" stroke-linejoin="round"/>
<path d="M134.784 190.977L143.938 181.432L162.477 215.993C163.3 218.034 164.559 219.87 166.166 221.374C167.772 222.878 169.688 224.013 171.78 224.699C181.872 227.514 193.644 217.03 198.123 201.247C202.601 185.464 197.942 170.405 187.849 167.574C177.756 164.744 165.968 175.244 161.506 191.01L149.586 174.026C148.982 173.162 148.186 172.452 147.26 171.949C146.334 171.447 145.304 171.167 144.251 171.132C143.198 171.097 142.152 171.307 141.194 171.747C140.237 172.186 139.395 172.843 138.735 173.664L127.605 187.472" fill="white"/>
<path d="M134.784 190.977L143.938 181.432L162.477 215.993C163.3 218.034 164.559 219.87 166.166 221.374C167.772 222.878 169.688 224.013 171.78 224.699C181.872 227.514 193.644 217.03 198.123 201.247C202.601 185.464 197.942 170.405 187.849 167.574C177.756 164.744 165.968 175.244 161.506 191.01L149.586 174.026C148.982 173.162 148.186 172.452 147.26 171.949C146.334 171.447 145.304 171.167 144.251 171.132C143.198 171.097 142.152 171.307 141.194 171.747C140.237 172.186 139.395 172.843 138.735 173.664L127.605 187.472" stroke="#242427" stroke-width="2" stroke-linecap="round" stroke-linejoin="round"/>
<path d="M168.06 212.767C164.915 200.095 171.204 177.004 185.298 172.906" stroke="#242427" stroke-width="2" stroke-linecap="round" stroke-linejoin="round"/>
<path d="M142.406 178.799L145.633 184.773" stroke="#242427" stroke-width="2" stroke-linecap="round" stroke-linejoin="round"/>
<path fill-rule="evenodd" clip-rule="evenodd" d="M160.862 201.048C160.862 201.048 159.924 198.958 160.945 192.688L160.862 201.048Z" fill="white"/>
<path d="M160.862 201.048C160.862 201.048 159.924 198.958 160.945 192.688" stroke="#242427" stroke-width="2" stroke-linecap="round" stroke-linejoin="round"/>
<path d="M98.7424 193.939L106.711 184.064C107.372 183.243 108.216 182.587 109.174 182.147C110.133 181.708 111.181 181.498 112.235 181.533C113.289 181.568 114.32 181.848 115.248 182.35C116.175 182.852 116.973 183.563 117.578 184.426L129.482 201.361C133.91 185.595 145.666 175.029 155.825 177.926C165.983 180.822 170.527 195.832 166.115 211.598C161.703 227.365 149.914 237.931 139.772 235.051C137.681 234.364 135.765 233.229 134.158 231.725C132.551 230.222 131.292 228.385 130.469 226.344L111.93 191.783L104.867 199.14C104.265 199.771 103.476 200.191 102.616 200.34C101.756 200.488 100.871 200.356 100.092 199.963C99.5764 199.685 99.126 199.301 98.7719 198.834C98.4178 198.368 98.1683 197.831 98.0402 197.259C97.9121 196.688 97.9085 196.096 98.0297 195.523C98.1509 194.95 98.3939 194.41 98.7424 193.939Z" fill="white" stroke="#242427" stroke-width="2" stroke-linecap="round" stroke-linejoin="round"/>
<path d="M136.134 223.3C132.989 210.628 139.278 187.537 153.372 183.439" stroke="#242427" stroke-width="2" stroke-linecap="round" stroke-linejoin="round"/>
<path d="M110.484 189.33L113.728 195.304" stroke="#242427" stroke-width="2" stroke-linecap="round" stroke-linejoin="round"/>
<path fill-rule="evenodd" clip-rule="evenodd" d="M128.956 211.581C128.956 211.581 128.001 209.491 128.956 203.221V211.581Z" fill="white"/>
<path d="M128.956 211.581C128.956 211.581 128.001 209.491 128.956 203.221" stroke="#242427" stroke-width="2" stroke-linecap="round" stroke-linejoin="round"/>
<path d="M139.509 113.608C130.147 119.851 121.02 119.138 112.129 111.469" stroke="#242427" stroke-width="2" stroke-miterlimit="10"/>
<path d="M103.333 128.241C109.647 127.959 114.427 120.185 114.011 110.878C113.595 101.57 108.139 94.2538 101.826 94.536C95.5125 94.8181 90.732 102.592 91.1483 111.899C91.5646 121.207 97.0201 128.523 103.333 128.241Z" fill="white"/>
<path d="M88.3711 115.237C97.9973 121.085 107.08 119.988 115.62 111.945" stroke="#242427" stroke-width="2" stroke-miterlimit="10"/>
<path d="M117.112 150.986C127.592 150.677 135.907 144.291 135.683 136.723C135.46 129.155 126.783 123.27 116.303 123.579C105.824 123.888 97.5092 130.274 97.7326 137.842C97.956 145.41 106.633 151.295 117.112 150.986Z" fill="white" stroke="#242427" stroke-width="2" stroke-miterlimit="10"/>
<path d="M99.8789 143.923C102.266 141.653 104.862 139.614 107.634 137.834C110.572 135.602 114.016 134.132 117.661 133.555C122.913 133.061 128.033 135.76 132.479 138.821C133.354 139.399 134.18 140.048 134.948 140.763" fill="white"/>
<path d="M99.8789 143.923C102.266 141.653 104.862 139.614 107.634 137.834C110.572 135.602 114.016 134.132 117.661 133.555C122.913 133.061 128.033 135.76 132.479 138.821C133.354 139.399 134.18 140.048 134.948 140.763" stroke="#242427" stroke-width="2" stroke-miterlimit="10"/>
</g>
<defs>
<clipPath id="clip0_4878_90729">
<rect width="209" height="243" fill="white" transform="translate(0.5)"/>
</clipPath>
</defs>
</svg>
