<svg width="20" height="20" viewBox="0 0 20 20" fill="none" xmlns="http://www.w3.org/2000/svg">
<circle cx="10" cy="10" r="10" fill="#353538"/>
<path d="M14.5 5.5L5.08999 8.06256C4.36692 8.26125 3.89337 8.96939 4.02067 9.7081C4.41784 12.0414 7.96187 15.5872 10.2889 15.9795C11.0273 16.1068 11.735 15.628 11.9336 14.9096L14.5 5.5Z" fill="#FF99B1"/>
<path d="M12.4947 3.75966L12.0019 4.0004C11.949 4.02208 11.8899 4.02427 11.8355 4.00655C11.7812 3.98884 11.7352 3.95243 11.7062 3.9041L11.4598 3.42263C11.4377 3.37099 11.4354 3.31323 11.4535 3.26009C11.4717 3.20695 11.5089 3.16206 11.5584 3.13375L12.0512 2.89302C12.104 2.87134 12.1632 2.86915 12.2175 2.88686C12.2719 2.90457 12.3179 2.94098 12.3469 2.98931L12.5932 3.47078C12.619 3.52192 12.6231 3.58092 12.6047 3.63499C12.5862 3.68906 12.5467 3.73386 12.4947 3.75966Z" fill="#8CD5FE"/>
<path d="M16.0912 11.2218L16.239 10.6922C16.248 10.6669 16.2512 10.64 16.2484 10.6133C16.2455 10.5867 16.2368 10.561 16.2227 10.538C16.2086 10.5151 16.1895 10.4954 16.1668 10.4805C16.144 10.4655 16.1182 10.4556 16.0912 10.4514L15.5491 10.307C15.5232 10.2982 15.4957 10.2951 15.4684 10.2978C15.4412 10.3006 15.4149 10.3092 15.3914 10.3229C15.3679 10.3367 15.3477 10.3554 15.3324 10.3776C15.3171 10.3998 15.307 10.425 15.3027 10.4514L15.1549 10.9329C15.1459 10.9582 15.1427 10.9851 15.1455 11.0117C15.1483 11.0384 15.1571 11.0641 15.1712 11.087C15.1853 11.11 15.2044 11.1296 15.2271 11.1446C15.2498 11.1596 15.2756 11.1695 15.3027 11.1736L15.8448 11.3181C15.9433 11.4144 16.0419 11.3662 16.0912 11.2218Z" fill="#FFC98D"/>
<path d="M14.9552 5.78071C15.0429 5.78071 15.1287 5.75529 15.2016 5.70768C15.2746 5.66007 15.3314 5.59239 15.365 5.51321C15.3985 5.43403 15.4073 5.3469 15.3902 5.26285C15.3731 5.17879 15.3309 5.10158 15.2688 5.04098C15.2068 4.98038 15.1278 4.93911 15.0417 4.92239C14.9557 4.90567 14.8665 4.91425 14.7855 4.94705C14.7045 4.97984 14.6352 5.03538 14.5865 5.10664C14.5377 5.1779 14.5117 5.26168 14.5117 5.34738C14.5117 5.46231 14.5584 5.57253 14.6416 5.65379C14.7248 5.73505 14.8376 5.78071 14.9552 5.78071Z" fill="#7FEC93"/>
<path d="M6.08999 7.65961C6.17771 7.65961 6.26345 7.6342 6.33639 7.58659C6.40932 7.53897 6.46617 7.4713 6.49973 7.39212C6.5333 7.31294 6.54208 7.22581 6.52497 7.14175C6.50786 7.0577 6.46562 6.98049 6.40359 6.91989C6.34157 6.85928 6.26254 6.81801 6.17651 6.8013C6.09048 6.78458 6.00131 6.79316 5.92027 6.82595C5.83923 6.85875 5.76996 6.91429 5.72123 6.98555C5.6725 7.05681 5.64648 7.14059 5.64648 7.22629C5.64648 7.34122 5.69321 7.45143 5.77638 7.5327C5.85956 7.61396 5.97236 7.65961 6.08999 7.65961Z" fill="#FFC98D"/>
<path d="M12.294 13.3405C12.4012 13.3405 12.506 13.3094 12.5952 13.2512C12.6843 13.193 12.7538 13.1103 12.7948 13.0135C12.8358 12.9168 12.8466 12.8103 12.8257 12.7075C12.8047 12.6048 12.7531 12.5104 12.6773 12.4364C12.6015 12.3623 12.5049 12.3119 12.3998 12.2914C12.2946 12.271 12.1856 12.2815 12.0866 12.3216C11.9875 12.3616 11.9029 12.4295 11.8433 12.5166C11.7837 12.6037 11.752 12.7061 11.752 12.8109C11.752 12.8804 11.766 12.9493 11.7932 13.0135C11.8205 13.0778 11.8604 13.1362 11.9107 13.1854C11.9611 13.2345 12.0208 13.2736 12.0866 13.3002C12.1523 13.3268 12.2228 13.3405 12.294 13.3405Z" fill="#F5F378"/>
</svg>
