<svg width="19" height="20" viewBox="0 0 19 20" fill="none" xmlns="http://www.w3.org/2000/svg">
<path fill-rule="evenodd" clip-rule="evenodd" d="M5.21864 7.32668L8.43289 4.11147V12.9099C8.43289 13.1896 8.544 13.4579 8.74179 13.6557C8.93957 13.8535 9.20782 13.9646 9.48753 13.9646C9.76724 13.9646 10.0355 13.8535 10.2333 13.6557C10.4311 13.4579 10.5422 13.1896 10.5422 12.9099V4.11243L13.7574 7.32668C13.8549 7.42505 13.971 7.50313 14.0989 7.55641C14.2268 7.60969 14.364 7.63713 14.5025 7.63713C14.641 7.63713 14.7782 7.60969 14.9061 7.55641C15.034 7.50313 15.15 7.42505 15.2476 7.32668C15.3455 7.22878 15.4232 7.11255 15.4762 6.98462C15.5292 6.85669 15.5565 6.71957 15.5565 6.58109C15.5565 6.44262 15.5292 6.3055 15.4762 6.17757C15.4232 6.04964 15.3455 5.9334 15.2476 5.83551L10.2326 0.82055C10.0345 0.623974 9.76666 0.513672 9.48753 0.513672C9.20841 0.513672 8.94059 0.623974 8.74243 0.82055L3.72747 5.83551C3.54156 6.0356 3.44048 6.29999 3.44549 6.57308C3.4505 6.84616 3.56122 7.10666 3.75435 7.29979C3.94748 7.49293 4.20799 7.60364 4.48107 7.60866C4.75416 7.61367 5.01855 7.51259 5.21864 7.32668Z" fill="#B2B2B4"/>
<path fill-rule="evenodd" clip-rule="evenodd" d="M17.5304 11.0478C16.9487 11.0478 16.4753 11.5203 16.4753 12.102V16.1337C16.4753 16.8208 15.9166 17.3795 15.2304 17.3795H3.74479C3.05767 17.3795 2.49896 16.8208 2.49896 16.1337V12.101C2.49896 11.8215 2.38789 11.5533 2.1902 11.3556C1.99251 11.1579 1.72437 11.0469 1.44479 11.0469C1.16521 11.0469 0.897078 11.1579 0.699383 11.3556C0.501689 11.5533 0.390625 11.8215 0.390625 12.101V16.1337C0.390625 17.9833 1.89521 19.4879 3.74479 19.4879H15.2304C17.079 19.4879 18.5846 17.9833 18.5846 16.1337V12.101C18.5846 11.8215 18.4735 11.5533 18.2758 11.3556C18.0781 11.1579 17.81 11.0469 17.5304 11.0469" fill="#B2B2B4"/>
</svg>
