<svg width="21" height="27" viewBox="0 0 21 27" fill="none" xmlns="http://www.w3.org/2000/svg">
<path d="M0.767096 24.0228L4.34013 16.8992L10.666 19.1576L6.72215 27.0003L4.83451 23.5621L0.755859 24.0115H0.767096V24.0228Z" fill="#515155"/>
<path d="M20.7407 24.0228L17.1676 16.8992L10.8418 19.1576L14.7856 27.0003L16.6845 23.5621L20.7631 24.0115H20.7519L20.7407 24.0228Z" fill="#515155"/>
<path fill-rule="evenodd" clip-rule="evenodd" d="M6.85393 0C8.10112 0 9.2809 0.337079 10.2809 0.921348C11.2921 0.337079 12.4607 0 13.6966 0C17.4719 0 20.5506 3.07865 20.5506 6.85393C20.5506 8.08989 20.2247 9.24719 19.6517 10.2584C20.2247 11.2584 20.5506 12.427 20.5506 13.6517C20.5506 17.427 17.4719 20.5056 13.6966 20.5056C12.4494 20.5056 11.2697 20.1685 10.2809 19.5843C9.26966 20.1685 8.10112 20.5056 6.85393 20.5056C3.07865 20.5056 0 17.427 0 13.6517C0 12.4157 0.325844 11.2584 0.898878 10.2584C0.325844 9.25843 0 8.08989 0 6.85393C0 3.07865 3.07865 0 6.85393 0Z" fill="#7B7B7E"/>
<path d="M12.5512 14.8091H7.78713C7.2141 14.8091 6.74219 14.3485 6.74219 13.7642C6.74219 13.4608 6.88825 13.1687 7.10174 12.9777L9.89949 10.4945C10.8433 9.65184 11.1804 9.06757 11.1804 8.41589C11.1804 7.7642 10.7647 7.35971 10.0568 7.35971C9.23657 7.35971 9.06803 7.86533 8.87702 8.43836C8.6523 9.11252 8.16915 9.19117 7.89949 9.19117C7.58488 9.19117 6.94444 9.09005 6.94444 8.25859C6.94444 7.52825 7.61859 5.67432 10.259 5.67432C12.1242 5.67432 13.3152 6.66308 13.3152 8.31477C13.3152 9.67432 12.5512 10.5957 11.2253 11.753L9.85455 12.9552V12.9889H12.5849C13.0793 12.9889 13.4838 13.3934 13.4838 13.8878C13.4838 14.3822 13.0793 14.7867 12.5849 14.7867L12.5512 14.8091Z" fill="#D3D3D3"/>
</svg>
