<svg width="20" height="20" viewBox="0 0 20 20" fill="none" xmlns="http://www.w3.org/2000/svg">
<circle cx="10" cy="10" r="10" fill="#353538"/>
<path d="M10.6358 4.45033C10.543 4.18543 10.2914 4 10 4C9.7086 4 9.45695 4.18543 9.36424 4.45033L8.95364 5.64238C8.42384 7.2053 7.20529 8.42384 5.64238 8.95364L4.45033 9.36424C4.18543 9.45695 4 9.70861 4 10C4 10.2914 4.18543 10.543 4.45033 10.6358L5.64238 11.0464C7.20529 11.5762 8.42384 12.7947 8.95364 14.3576L9.36424 15.5497C9.45695 15.8146 9.7086 16 10 16C10.2914 16 10.543 15.8146 10.6358 15.5497L11.0464 14.3576C11.5762 12.7947 12.7947 11.5762 14.3576 11.0464L15.5497 10.6358C15.8146 10.543 16 10.2914 16 10C16 9.70861 15.8146 9.45695 15.5497 9.36424L14.3576 8.95364C12.7947 8.42384 11.5762 7.2053 11.0464 5.64238L10.6358 4.45033Z" fill="#7FEC93"/>
</svg>
