<svg width="28" height="18" viewBox="0 0 28 18" fill="none" xmlns="http://www.w3.org/2000/svg">
<g clip-path="url(#clip0_2309_6806)">
<path d="M26.9111 4.5H26.7556C26.4668 4.5 26.1898 4.61062 25.9856 4.80754C25.7814 5.00445 25.6667 5.27152 25.6667 5.55V6.2675C25.6667 6.39547 25.614 6.51819 25.5201 6.60868C25.4263 6.69917 25.299 6.75 25.1663 6.75H24.4222C24.1334 6.75 23.8565 6.86062 23.6523 7.05754C23.4481 7.25445 23.3333 7.52152 23.3333 7.8V8.5175C23.3333 8.64547 23.2806 8.76819 23.1868 8.85868C23.0929 8.94917 22.9657 9 22.833 9H22.0889C21.8001 9 21.5231 9.11062 21.3189 9.30754C21.1147 9.50445 21 9.77152 21 10.05V10.7675C21 10.8955 20.9473 11.0182 20.8534 11.1087C20.7596 11.1992 20.6323 11.25 20.4996 11.25H19.167C19.0343 11.25 18.9071 11.3008 18.8132 11.3913C18.7194 11.4818 18.6667 11.6045 18.6667 11.7325V12.45C18.6667 12.7285 18.5519 12.9956 18.3477 13.1925C18.1435 13.3894 17.8666 13.5 17.5778 13.5H10.4222C10.1334 13.5 9.85647 13.3894 9.65226 13.1925C9.44806 12.9956 9.33333 12.7285 9.33333 12.45V11.7325C9.33333 11.6045 9.28062 11.4818 9.18678 11.3913C9.09294 11.3008 8.96567 11.25 8.83296 11.25H7.50037C7.36766 11.25 7.24039 11.1992 7.14655 11.1087C7.05272 11.0182 7 10.8955 7 10.7675V10.05C7 9.77152 6.88527 9.50445 6.68107 9.30754C6.47686 9.11062 6.1999 9 5.91111 9H5.16704C5.03433 9 4.90706 8.94917 4.81322 8.85868C4.71938 8.76819 4.66667 8.64547 4.66667 8.5175V7.8C4.66667 7.52152 4.55194 7.25445 4.34774 7.05754C4.14353 6.86062 3.86657 6.75 3.57777 6.75H2.8337C2.701 6.75 2.57372 6.69917 2.47989 6.60868C2.38605 6.51819 2.33333 6.39547 2.33333 6.2675V5.55C2.33333 5.27152 2.21861 5.00445 2.0144 4.80754C1.8102 4.61062 1.53323 4.5 1.24444 4.5H1.08889C0.800101 4.5 0.523138 4.61062 0.318931 4.80754C0.114725 5.00445 0 5.27152 0 5.55V16.95C0 17.2285 0.114725 17.4956 0.318931 17.6925C0.523138 17.8894 0.800101 18 1.08889 18H26.9111C27.1999 18 27.4769 17.8894 27.6811 17.6925C27.8853 17.4956 28 17.2285 28 16.95V5.55C28 5.27152 27.8853 5.00445 27.6811 4.80754C27.4769 4.61062 27.1999 4.5 26.9111 4.5ZM4.66667 13.9825C4.66667 13.9191 4.65372 13.8564 4.62858 13.7979C4.60343 13.7393 4.56658 13.6861 4.52011 13.6413C4.47365 13.5965 4.41849 13.561 4.35778 13.5367C4.29708 13.5125 4.23201 13.5 4.1663 13.5H4.66667V13.9825Z" fill="white"/>
<path d="M26.9111 0H1.08889C0.800101 0 0.523138 0.110624 0.318931 0.307537C0.114725 0.50445 0 0.771522 0 1.05V1.2C0 1.47848 0.114725 1.74555 0.318931 1.94246C0.523138 2.13938 0.800101 2.25 1.08889 2.25H1.83296C1.96567 2.25 2.09294 2.30083 2.18678 2.39132C2.28062 2.48181 2.33333 2.60453 2.33333 2.7325V3.45C2.33333 3.72848 2.44806 3.99555 2.65226 4.19246C2.85647 4.38938 3.13343 4.5 3.42223 4.5H4.1663C4.299 4.5 4.42628 4.55083 4.52011 4.64132C4.61395 4.73181 4.66667 4.85453 4.66667 4.9825V5.7C4.66667 5.97848 4.78139 6.24555 4.9856 6.44246C5.1898 6.63938 5.46677 6.75 5.75556 6.75H6.49963C6.56534 6.75 6.63041 6.76248 6.69112 6.78673C6.75182 6.81098 6.80698 6.84652 6.85345 6.89132C6.89991 6.93613 6.93677 6.98932 6.96191 7.04786C6.98706 7.10639 7 7.16914 7 7.2325V7.95C7 8.22848 7.11472 8.49555 7.31893 8.69246C7.52314 8.88938 7.8001 9 8.08889 9H8.83296C8.96567 9 9.09294 9.05083 9.18678 9.14132C9.28062 9.23181 9.33333 9.35453 9.33333 9.4825V10.2C9.33333 10.4785 9.44806 10.7456 9.65226 10.9425C9.85647 11.1394 10.1334 11.25 10.4222 11.25H17.5778C17.8666 11.25 18.1435 11.1394 18.3477 10.9425C18.5519 10.7456 18.6667 10.4785 18.6667 10.2V9.4825C18.6667 9.35453 18.7194 9.23181 18.8132 9.14132C18.9071 9.05083 19.0343 9 19.167 9H19.9111C20.1999 9 20.4769 8.88938 20.6811 8.69246C20.8853 8.49555 21 8.22848 21 7.95V7.2325C21 7.16914 21.0129 7.10639 21.0381 7.04786C21.0632 6.98932 21.1001 6.93613 21.1466 6.89132C21.193 6.84652 21.2482 6.81098 21.3089 6.78673C21.3696 6.76248 21.4347 6.75 21.5004 6.75H22.2444C22.5332 6.75 22.8102 6.63938 23.0144 6.44246C23.2186 6.24555 23.3333 5.97848 23.3333 5.7V4.9825C23.3333 4.85453 23.386 4.73181 23.4799 4.64132C23.5737 4.55083 23.701 4.5 23.8337 4.5H24.5778C24.8666 4.5 25.1435 4.38938 25.3477 4.19246C25.5519 3.99555 25.6667 3.72848 25.6667 3.45V2.7325C25.6667 2.60453 25.7194 2.48181 25.8132 2.39132C25.9071 2.30083 26.0343 2.25 26.167 2.25H26.9111C27.1999 2.25 27.4769 2.13938 27.6811 1.94246C27.8853 1.74555 28 1.47848 28 1.2V1.05C28 0.771522 27.8853 0.50445 27.6811 0.307537C27.4769 0.110624 27.1999 0 26.9111 0ZM11.6667 2.25V2.7325C11.6667 2.60453 11.614 2.48181 11.5201 2.39132C11.4263 2.30083 11.299 2.25 11.1663 2.25H11.6667Z" fill="white"/>
</g>
<defs>
<clipPath id="clip0_2309_6806">
<rect width="28" height="18" fill="white"/>
</clipPath>
</defs>
</svg>
