<svg width="26" height="26" viewBox="0 0 26 26" fill="none" xmlns="http://www.w3.org/2000/svg">
<path fill-rule="evenodd" clip-rule="evenodd" d="M24.0917 11.4001H14.7583V2.0668C14.7583 1.64245 14.5898 1.23548 14.2897 0.935426C13.9896 0.635368 13.5827 0.466797 13.1583 0.466797C12.734 0.466797 12.327 0.635368 12.027 0.935426C11.7269 1.23548 11.5583 1.64245 11.5583 2.0668V11.4001H2.225C1.80065 11.4001 1.39369 11.5687 1.09363 11.8688C0.793571 12.1688 0.625 12.5758 0.625 13.0001C0.625 13.4245 0.793571 13.8314 1.09363 14.1315C1.39369 14.4316 1.80065 14.6001 2.225 14.6001H11.5583V23.9335C11.5583 24.3578 11.7269 24.7648 12.027 25.0648C12.327 25.3649 12.734 25.5335 13.1583 25.5335C13.5827 25.5335 13.9896 25.3649 14.2897 25.0648C14.5898 24.7648 14.7583 24.3578 14.7583 23.9335V14.6001H24.0917C24.516 14.6001 24.923 14.4316 25.223 14.1315C25.5231 13.8314 25.6917 13.4245 25.6917 13.0001C25.6917 12.5758 25.5231 12.1688 25.223 11.8688C24.923 11.5687 24.516 11.4001 24.0917 11.4001Z" fill="#B2B2B4"/>
</svg>
