<svg width="24" height="24" viewBox="0 0 24 24" fill="none" xmlns="http://www.w3.org/2000/svg">
<path d="M19.5 10.4994C19.4999 8.7032 18.9623 6.94808 17.9564 5.45992C16.9505 3.97176 15.5223 2.81864 13.8555 2.14893C12.1888 1.47923 10.3598 1.32358 8.6039 1.702C6.84798 2.08043 5.24546 2.97563 4.00254 4.27241C2.75962 5.56919 1.93317 7.20822 1.62953 8.97861C1.32589 10.749 1.55894 12.5697 2.29871 14.2066C3.03847 15.8434 4.25111 17.2214 5.78058 18.1634C7.31005 19.1053 9.08638 19.568 10.881 19.4919C10.7109 19.0091 10.5967 18.5083 10.5405 17.9994H10.5C9.01665 17.9994 7.5666 17.5596 6.33323 16.7355C5.09986 15.9113 4.13857 14.74 3.57091 13.3696C3.00325 11.9991 2.85473 10.4911 3.14412 9.03626C3.43351 7.5814 4.14781 6.24503 5.1967 5.19613C6.2456 4.14724 7.58197 3.43293 9.03683 3.14355C10.4917 2.85416 11.9997 3.00268 13.3701 3.57034C14.7406 4.138 15.9119 5.09929 16.736 6.33266C17.5601 7.56603 18 9.01608 18 10.4994V10.5399C18.5175 10.5984 19.017 10.7139 19.4925 10.8804C19.497 10.7544 19.5 10.6269 19.5 10.4994ZM10.668 15.7464C10.794 15.1944 10.986 14.6679 11.238 14.1774C10.5974 14.3071 9.93403 14.2666 9.31396 14.06C8.69389 13.8534 8.13879 13.4879 7.70401 12.9999C7.56934 12.8603 7.38578 12.7782 7.1919 12.771C6.99801 12.7638 6.80888 12.832 6.66423 12.9614C6.51958 13.0907 6.43067 13.271 6.41618 13.4645C6.40169 13.658 6.46274 13.8495 6.58651 13.9989C7.09723 14.5711 7.72734 15.0241 8.43232 15.3261C9.13731 15.628 9.90149 15.7715 10.668 15.7464ZM9.00001 8.99943C9.00001 9.2978 8.88148 9.58395 8.6705 9.79493C8.45952 10.0059 8.17337 10.1244 7.87501 10.1244C7.57664 10.1244 7.29049 10.0059 7.07951 9.79493C6.86853 9.58395 6.75001 9.2978 6.75001 8.99943C6.75001 8.70107 6.86853 8.41492 7.07951 8.20394C7.29049 7.99296 7.57664 7.87443 7.87501 7.87443C8.17337 7.87443 8.45952 7.99296 8.6705 8.20394C8.88148 8.41492 9.00001 8.70107 9.00001 8.99943ZM13.125 10.1244C13.4234 10.1244 13.7095 10.0059 13.9205 9.79493C14.1315 9.58395 14.25 9.2978 14.25 8.99943C14.25 8.70107 14.1315 8.41492 13.9205 8.20394C13.7095 7.99296 13.4234 7.87443 13.125 7.87443C12.8266 7.87443 12.5405 7.99296 12.3295 8.20394C12.1185 8.41492 12 8.70107 12 8.99943C12 9.2978 12.1185 9.58395 12.3295 9.79493C12.5405 10.0059 12.8266 10.1244 13.125 10.1244ZM22.5 17.2494C22.5 18.6418 21.9469 19.9772 20.9623 20.9617C19.9778 21.9463 18.6424 22.4994 17.25 22.4994C15.8576 22.4994 14.5223 21.9463 13.5377 20.9617C12.5531 19.9772 12 18.6418 12 17.2494C12 15.857 12.5531 14.5217 13.5377 13.5371C14.5223 12.5526 15.8576 11.9994 17.25 11.9994C18.6424 11.9994 19.9778 12.5526 20.9623 13.5371C21.9469 14.5217 22.5 15.857 22.5 17.2494ZM18 14.2494C18 14.0505 17.921 13.8598 17.7803 13.7191C17.6397 13.5785 17.4489 13.4994 17.25 13.4994C17.0511 13.4994 16.8603 13.5785 16.7197 13.7191C16.579 13.8598 16.5 14.0505 16.5 14.2494V16.4994H14.25C14.0511 16.4994 13.8603 16.5785 13.7197 16.7191C13.579 16.8598 13.5 17.0505 13.5 17.2494C13.5 17.4483 13.579 17.6391 13.7197 17.7798C13.8603 17.9204 14.0511 17.9994 14.25 17.9994H16.5V20.2494C16.5 20.4483 16.579 20.6391 16.7197 20.7798C16.8603 20.9204 17.0511 20.9994 17.25 20.9994C17.4489 20.9994 17.6397 20.9204 17.7803 20.7798C17.921 20.6391 18 20.4483 18 20.2494V17.9994H20.25C20.4489 17.9994 20.6397 17.9204 20.7803 17.7798C20.921 17.6391 21 17.4483 21 17.2494C21 17.0505 20.921 16.8598 20.7803 16.7191C20.6397 16.5785 20.4489 16.4994 20.25 16.4994H18V14.2494Z" fill="#B2B2B4"/>
</svg>
