<svg width="24" height="24" viewBox="0 0 24 24" fill="none" xmlns="http://www.w3.org/2000/svg">
<path d="M12 2C6.48 2 2 6.47 2 12C2 17.53 6.48 22 12 22C17.52 22 22 17.53 22 12C22 6.47 17.53 2 12 2ZM13.77 12.71L16.53 15.47L15.47 16.53L12.71 13.77C12.32 13.38 11.69 13.38 11.3 13.77L8.54 16.53L7.48 15.47L10.24 12.71C10.63 12.32 10.63 11.69 10.24 11.3L7.48 8.54L8.54 7.48L11.3 10.24C11.69 10.63 12.32 10.63 12.71 10.24L15.47 7.48L16.53 8.54L13.77 11.3C13.38 11.69 13.38 12.32 13.77 12.71Z" fill="#B2B2B4"/>
</svg>
