<svg width="280" height="151" viewBox="0 0 280 151" fill="none" xmlns="http://www.w3.org/2000/svg">
<path d="M130.146 51.3491C126.355 52.4332 122.515 51.8832 119.581 50.1117C118.027 53.1664 115.059 55.6635 111.268 56.7475C104.633 58.645 97.7388 55.532 96.0242 49.5363C94.3098 43.5411 98.5158 37.2539 105.151 35.3565C108.942 34.2724 112.781 34.8221 115.715 36.5938C117.269 33.5387 120.238 31.0421 124.029 29.9581C130.664 28.0606 137.558 31.1736 139.272 37.1687C140.987 43.1644 136.781 49.4517 130.146 51.3491ZM112.42 24.469C104.158 26.8317 97.3302 31.1281 92.961 36.1269C88.586 41.1323 86.7362 46.7578 88.1942 51.8564C89.6523 56.9551 94.1966 60.752 100.556 62.6876C106.908 64.6206 114.975 64.6575 123.237 62.2948C131.499 59.9321 138.327 55.6358 142.696 50.6371C147.071 45.6317 148.921 40.0062 147.463 34.9076C146.004 29.8089 141.46 26.0119 135.1 24.0764C128.749 22.1433 120.682 22.1064 112.42 24.469Z" fill="#D9D9D9" stroke="#242427" stroke-width="1.46"/>
<path d="M157.032 114.8L156.33 115L156.129 114.299L154.275 107.814L154.074 107.112L154.776 106.912L160.862 105.171L160.135 102.628L151.787 105.015L151.085 105.216L150.884 104.514L149.03 98.0294L148.829 97.3275L149.531 97.1268L157.879 94.7394L156.789 90.9282L137.829 96.3503L145.167 122.011L164.128 116.589L163.118 113.059L157.032 114.8Z" fill="#D9D9D9" stroke="#242427" stroke-width="1.46"/>
<path d="M107.01 27.3762C109.106 27.5314 111.086 28.1546 112.772 29.1766C113.64 27.4609 114.945 25.9184 116.584 24.6932L113.99 15.6245C113.372 13.4609 110.779 12.1337 108.046 12.9154C105.311 13.6973 103.812 16.1946 104.431 18.3582L107.01 27.3762Z" fill="#EFEFEF" stroke="#242427" stroke-width="1.46"/>
<path d="M124.54 52.5201C122.466 52.2483 120.501 51.4755 118.81 50.2953C117.977 52.2393 116.672 53.97 114.997 55.3112L135.951 128.584C136.706 131.224 139.457 132.752 142.098 131.997C144.737 131.242 146.265 128.49 145.51 125.85L124.54 52.5201Z" fill="white" stroke="#242427" stroke-width="1.46"/>
<mask id="mask0_6181_32292" style="mask-type:luminance" maskUnits="userSpaceOnUse" x="114" y="48" width="32" height="84">
<path d="M123.427 52.5327C121.679 52.193 120.014 51.4008 118.557 50.2542C117.909 52.0429 116.878 53.6294 115.524 54.8548L136.298 127.502C137.076 130.22 139.521 131.699 141.612 131.101C143.702 130.504 144.995 127.955 144.218 125.237L123.427 52.5327Z" fill="white" stroke="white" stroke-width="1.46"/>
</mask>
<g mask="url(#mask0_6181_32292)">
<path d="M130.473 60.2917C128.708 59.9053 127.024 59.0413 125.544 57.8091C124.924 59.6841 123.914 61.3431 122.57 62.6171L144.691 139.972C145.536 142.926 148.05 144.507 150.104 143.92C152.157 143.332 153.456 140.661 152.611 137.707L130.473 60.2917Z" fill="#D9D9D9" stroke="#242427" stroke-width="1.46"/>
</g>
<path d="M129.592 51.5464C125.701 52.659 121.72 51.8585 118.644 49.7124C117.168 53.1602 114.212 55.9444 110.322 57.0571C103.46 59.0193 96.3069 55.0477 94.3447 48.186C92.3826 41.3249 96.3543 34.1721 103.216 32.2099C107.107 31.0972 111.087 31.8973 114.163 34.0438C115.639 30.5954 118.596 27.8118 122.486 26.6992C129.348 24.737 136.501 28.7085 138.463 35.5695C140.425 42.4313 136.454 49.5841 129.592 51.5464ZM110.213 19.6146C101.797 22.0213 94.9305 26.7273 90.6216 32.3568C86.3127 37.9862 84.5873 44.4944 86.3259 50.5741C88.0645 56.6539 92.9699 61.2658 99.6037 63.766C106.237 66.2662 114.554 66.6304 122.97 64.2237C131.385 61.8172 138.252 57.1111 142.56 51.4817C146.869 45.8523 148.595 39.3442 146.856 33.2644C145.117 27.1847 140.212 22.5727 133.578 20.0725C126.945 17.5723 118.628 17.208 110.213 19.6146Z" fill="white" stroke="#242427" stroke-width="1.46"/>
<path d="M62.5734 78.1511C62.4336 77.5426 63.1542 77.1107 63.6249 77.5209L65.5797 79.224C65.7902 79.4074 66.0949 79.4344 66.3344 79.2909L68.5583 77.9581C69.0938 77.6371 69.7272 78.189 69.4826 78.7634L68.4668 81.1488C68.3575 81.4057 68.4259 81.7039 68.6365 81.8873L70.5912 83.5904C71.062 84.0006 70.7329 84.7735 70.1109 84.7184L67.5284 84.4895C67.2503 84.4648 66.9879 84.6221 66.8785 84.879L65.8628 87.2644C65.6182 87.8388 64.7814 87.7647 64.6416 87.1562L64.0613 84.6293C63.9988 84.3572 63.7681 84.1562 63.49 84.1316L60.9075 83.9027C60.2856 83.8476 60.0975 83.0288 60.6331 82.7079L62.8569 81.3751C63.0964 81.2315 63.2162 80.9501 63.1537 80.678L62.5734 78.1511Z" fill="white"/>
<path d="M67.0856 108.62L70.0176 105.491M70.0176 105.491L72.2294 109.344M70.0176 105.491L74.6071 104.564M70.0176 105.491L70.7435 101.266M70.0176 105.491L66.3407 103.662" stroke="#EFEFEF" stroke-width="1.46" stroke-linecap="round" stroke-linejoin="round"/>
<path d="M109.615 91.6336L110.955 97.2246L104.295 95.8647L102.955 90.2737L109.615 91.6336Z" fill="#D9D9D9"/>
<path d="M101.041 112.088C94.4935 107.841 82.3826 94.9194 88.1525 89.0026C90.5926 86.5005 93.6456 92.0505 91.581 93.1155C90.2359 95.4572 82.1 93.1048 84.1753 82.5589" stroke="#EFEFEF" stroke-width="1.46" stroke-linecap="round" stroke-linejoin="round"/>
<path d="M63.2441 116.341C65.4497 117.132 71.1828 118.639 76.4715 118.334" stroke="#EFEFEF" stroke-width="1.46" stroke-linecap="round" stroke-linejoin="round"/>
<path d="M209.827 69.8789L196.674 61.3752C196.405 61.1965 196.106 61.0676 195.791 60.9945L180.564 57.3316C179.985 57.1912 179.376 57.2384 178.825 57.4662L165.958 62.7231C165.603 62.8719 165.282 63.0904 165.013 63.3657C164.744 63.641 164.534 63.9675 164.394 64.3258C164.254 64.6841 164.187 65.0669 164.198 65.4515C164.208 65.8361 164.296 66.2146 164.456 66.5645L178.702 97.2333C179.002 97.8649 179.521 98.3655 180.164 98.6412C180.806 98.9169 181.527 98.9488 182.191 98.7309L214.251 87.9081C214.614 87.782 214.947 87.5845 215.232 87.3273C215.517 87.0701 215.748 86.7584 215.91 86.4106C216.072 86.0628 216.163 85.686 216.178 85.3024C216.192 84.9189 216.129 84.5364 215.993 84.1775L210.932 71.2324C210.718 70.6745 210.331 70.2 209.827 69.8789Z" fill="white" stroke="#242427" stroke-width="1.46" stroke-linecap="round" stroke-linejoin="round"/>
<path d="M192.817 69.1759C201.715 72.9877 209.73 74.2065 210.718 71.8982C211.707 69.5899 205.296 64.6287 196.398 60.8169C187.5 57.0051 179.485 55.7863 178.497 58.0945C177.508 60.4028 183.919 65.3641 192.817 69.1759Z" fill="white" stroke="#242427" stroke-width="1.46" stroke-linecap="round" stroke-linejoin="round"/>
<path d="M197.475 81.9831L193.438 71.0206C193.355 70.7803 193.222 70.56 193.048 70.3737C192.875 70.1873 192.665 70.0391 192.431 69.9383C192.197 69.8375 191.945 69.7863 191.691 69.7881C191.436 69.7898 191.185 69.8444 190.952 69.9484L180.221 74.5933C179.291 74.9922 178.556 75.7434 178.178 76.6826L197.346 84.898C197.56 84.4453 197.682 83.9542 197.704 83.4536C197.727 82.9531 197.649 82.4531 197.475 81.9831Z" fill="#D9D9D9" stroke="#242427" stroke-width="1.46" stroke-linecap="round" stroke-linejoin="round"/>
<path d="M178.23 76.7171C178.006 77.3093 177.906 77.9415 177.938 78.574L178.799 97.4109C179.1 97.971 179.584 98.4112 180.17 98.6583C180.754 98.9046 181.402 98.9511 182.015 98.7905L196.26 86.4248C196.727 86.0106 197.109 85.5091 197.384 84.9484L178.23 76.7171Z" fill="#EFEFEF" stroke="#242427" stroke-width="1.46" stroke-linecap="round" stroke-linejoin="round"/>
<path d="M211.821 88.7365L182.037 98.7788L198.247 85.2924L214.252 86.1433C214.329 86.1448 214.403 86.1706 214.464 86.2169C214.525 86.2633 214.57 86.3277 214.592 86.4011C214.615 86.4746 214.613 86.5532 214.588 86.6257C214.563 86.6982 214.516 86.761 214.453 86.805L211.821 88.7365Z" fill="#D9D9D9" stroke="#242427" stroke-width="1.46" stroke-linecap="round" stroke-linejoin="round"/>
<path d="M165.486 68.8846L178.754 97.3772L177.327 76.3135L165.624 65.2143C165.575 65.1673 165.513 65.1367 165.446 65.1267C165.379 65.1168 165.31 65.128 165.25 65.1587C165.19 65.1895 165.141 65.2383 165.109 65.2984C165.078 65.3585 165.066 65.4268 165.076 65.4939L165.486 68.8846Z" fill="#D9D9D9" stroke="#242427" stroke-width="1.46" stroke-linecap="round" stroke-linejoin="round"/>
</svg>
