<svg width="193" height="66" viewBox="0 0 193 66" fill="none" xmlns="http://www.w3.org/2000/svg">
<path d="M2.67888 61.3176C1.20793 59.3876 0.483443 56.9824 0.640952 54.552V11.3644C0.480918 8.93365 1.20567 6.52758 2.67888 4.59877C3.43754 3.78239 4.36593 3.14604 5.39724 2.73552C6.42856 2.325 7.53714 2.15051 8.64321 2.22462H28.1122C34.8238 2.22462 40.2854 3.51462 44.4971 6.09462C46.5229 7.29296 48.1821 9.0327 49.292 11.1223C50.4018 13.2119 50.9193 15.5703 50.7875 17.9379C50.8887 21.1043 49.8401 24.1989 47.8393 26.6386C45.6877 29.0849 42.8408 30.8007 39.6876 31.5515C43.2178 32.1025 46.4824 33.7753 49.0077 36.3273C50.2057 37.5734 51.143 39.0503 51.7639 40.6701C52.3848 42.2898 52.6765 44.0192 52.6217 45.7553C52.7399 49.3226 51.6576 52.8251 49.5512 55.691C47.27 58.5458 44.1939 60.6444 40.7202 61.7156C36.3279 63.116 31.739 63.7835 27.134 63.6918H8.64321C7.53714 63.7659 6.42856 63.5914 5.39724 63.1809C4.36593 62.7703 3.43754 62.134 2.67888 61.3176ZM31.2099 25.6368C32.2209 25.3112 33.1018 24.6666 33.7233 23.7978C34.3328 22.8731 34.6415 21.7793 34.6064 20.6689C34.6611 19.8802 34.5194 19.0903 34.1943 18.3712C33.8692 17.652 33.371 17.0266 32.7451 16.5519C30.9982 15.5123 28.9797 15.0337 26.9574 15.1795H16.1971V26.1582H26.971C28.4016 26.2106 29.8306 26.0157 31.1963 25.5819L31.2099 25.6368ZM34.0358 49.1175C34.7342 48.5838 35.2899 47.8828 35.6529 47.0777C36.0158 46.2727 36.1744 45.389 36.1145 44.5064C36.1937 43.62 36.0482 42.7278 35.6916 41.9139C35.3351 41.1 34.7793 40.3911 34.0765 39.8542C32.0907 38.7803 29.8416 38.304 27.5959 38.4819H16.1971V50.5996H27.5823C29.8344 50.7686 32.0832 50.2318 34.0222 49.0626L34.0358 49.1175Z" fill="white"/>
<path d="M58.3545 14.0823C57.6163 13.4218 57.0252 12.6104 56.6204 11.702C56.2157 10.7936 56.0063 9.80874 56.0063 8.81254C56.0063 7.81634 56.2157 6.83148 56.6204 5.92305C57.0252 5.01463 57.6163 4.20332 58.3545 3.54275C59.9917 2.11479 62.1028 1.36477 64.2645 1.44307C66.3726 1.36729 68.4277 2.11991 69.9979 3.54275C70.7192 4.21365 71.2949 5.02835 71.6887 5.93539C72.0825 6.84243 72.2859 7.8221 72.2859 8.81254C72.2859 9.80297 72.0825 10.7826 71.6887 11.6897C71.2949 12.5967 70.7192 13.4114 69.9979 14.0823C68.4093 15.5015 66.3433 16.2528 64.2237 16.182C62.0743 16.2608 59.9757 15.5101 58.3545 14.0823ZM58.5719 62.9788C57.1597 61.1275 56.4642 58.8197 56.6155 56.4877V27.6685C56.4624 25.3531 57.1589 23.0619 58.5719 21.2322C60.0792 19.8201 62.0592 19.0355 64.115 19.0355C66.1709 19.0355 68.1508 19.8201 69.6582 21.2322C71.051 23.0911 71.727 25.3982 71.5603 27.7234V56.5426C71.7074 58.8655 71.0334 61.1659 69.6582 63.0337C68.1794 64.5021 66.1887 65.325 64.115 65.325C62.0414 65.325 60.0507 64.5021 58.5719 63.0337V62.9788Z" fill="white"/>
<path d="M97.2524 63.5134C95.2275 62.3661 93.511 60.736 92.2527 58.7651C91.9659 60.8713 90.8914 62.7865 89.2501 64.1173C88.0365 64.9053 86.6165 65.3069 85.1743 65.27C84.1368 65.3373 83.0977 65.166 82.1352 64.769C81.1727 64.3721 80.3119 63.7598 79.6175 62.9782C78.2165 61.0547 77.5375 58.6909 77.7019 56.3086V9.42947C77.5517 7.09977 78.2311 4.7926 79.6175 2.92458C80.2963 2.15764 81.1372 1.5547 82.0779 1.16037C83.0186 0.766042 84.035 0.590417 85.052 0.646492C86.089 0.571353 87.1293 0.737668 88.0927 1.13263C89.0561 1.52758 89.9169 2.14064 90.6087 2.92458C91.9951 4.7926 92.6745 7.09977 92.5244 9.42947V23.0294C92.5263 23.4152 92.499 23.8005 92.4429 24.1821C92.4429 24.5252 92.3206 24.9369 92.2662 25.4035C93.7099 23.352 95.6282 21.6881 97.8541 20.5567C100.08 19.4253 102.546 18.8608 105.037 18.9124C108.265 18.9065 111.43 19.8197 114.167 21.5472C117.136 23.4629 119.494 26.2027 120.96 29.4382C122.767 33.4006 123.646 37.7303 123.528 42.0912C123.639 46.433 122.809 50.7468 121.096 54.7304C119.732 57.9378 117.453 60.6615 114.549 62.5536C111.644 64.4457 108.248 65.4201 104.793 65.3524C102.164 65.4134 99.5643 64.7794 97.2524 63.5134ZM104.29 52.274C105.601 51.184 106.604 49.7638 107.197 48.1569C107.934 46.2423 108.29 44.1997 108.244 42.1461C108.296 40.0205 107.941 37.9048 107.197 35.9157C106.625 34.3205 105.617 32.9217 104.29 31.881C103.018 30.9444 101.475 30.4616 99.9017 30.5086C98.3552 30.4716 96.8404 30.9543 95.5949 31.881C94.2724 32.9259 93.2654 34.3233 92.6874 35.9157C91.9568 37.9172 91.611 40.0411 91.6685 42.1735C91.6291 44.2266 91.9844 46.2679 92.7146 48.1844C93.3126 49.7888 94.3148 51.2079 95.622 52.3014C96.8445 53.2858 98.3656 53.8141 99.9289 53.7973C101.513 53.81 103.052 53.2721 104.29 52.274Z" fill="white"/>
<path d="M146.351 63.5132C144.33 62.3659 142.618 60.7355 141.365 58.7649C141.295 59.5283 141.088 60.2724 140.754 60.9607C140.33 62.2542 139.488 63.366 138.362 64.1171C137.148 64.9035 135.729 65.305 134.287 65.2698C133.248 65.3433 132.207 65.1748 131.244 64.7775C130.281 64.3801 129.42 63.7644 128.73 62.978C127.329 61.0545 126.65 58.6907 126.814 56.3084V9.42927C126.664 7.09956 127.343 4.7924 128.73 2.92438C129.409 2.15744 130.25 1.5545 131.19 1.16017C132.131 0.765841 133.147 0.590216 134.164 0.646291C135.201 0.576307 136.24 0.744989 137.202 1.13961C138.165 1.53424 139.026 2.14451 139.721 2.92438C141.107 4.7924 141.787 7.09956 141.637 9.42927V23.0292C141.641 23.4156 141.609 23.8016 141.542 24.1819C141.542 24.525 141.433 24.9367 141.379 25.4033C142.731 23.4595 144.518 21.8655 146.596 20.7511C148.919 19.4882 151.526 18.8546 154.163 18.9122C157.391 18.9063 160.555 19.8195 163.293 21.547C166.258 23.4669 168.616 26.2055 170.086 29.438C171.893 33.4004 172.772 37.7301 172.654 42.091C172.765 46.4328 171.935 50.7466 170.222 54.7303C168.858 57.9376 166.579 60.6613 163.674 62.5534C160.77 64.4455 157.374 65.4199 153.919 65.3522C151.28 65.4167 148.672 64.7827 146.351 63.5132ZM153.402 52.2738C154.71 51.1803 155.712 49.7612 156.31 48.1567C157.04 46.2403 157.395 44.199 157.356 42.1459C157.401 40.0209 157.046 37.9065 156.31 35.9155C155.732 34.3231 154.725 32.9257 153.402 31.8808C152.13 30.9461 150.587 30.4635 149.014 30.5084C147.467 30.4693 145.952 30.9522 144.707 31.8808C143.38 32.9215 142.372 34.3203 141.8 35.9155C141.056 37.9046 140.701 40.0203 140.754 42.1459C140.708 44.1995 141.063 46.2421 141.8 48.1567C142.393 49.7636 143.396 51.1838 144.707 52.2738C145.93 53.2581 147.451 53.7864 149.014 53.7696C150.603 53.7942 152.153 53.2661 153.402 52.2738Z" fill="white"/>
<path d="M177.778 14.0817C177.04 13.4211 176.449 12.6098 176.044 11.7013C175.639 10.7929 175.43 9.80806 175.43 8.81186C175.43 7.81566 175.639 6.8308 176.044 5.92238C176.449 5.01395 177.04 4.20264 177.778 3.54207C179.415 2.11411 181.526 1.36409 183.688 1.44239C185.819 1.34856 187.902 2.10238 189.489 3.54207C190.219 4.21646 190.793 5.04357 191.174 5.96563C191.554 6.88769 191.73 7.88247 191.69 8.88048C191.706 9.8755 191.508 10.8622 191.11 11.7722C190.711 12.6821 190.121 13.4936 189.38 14.1503C187.792 15.5695 185.726 16.3208 183.606 16.2499C181.462 16.2994 179.378 15.5244 177.778 14.0817ZM177.995 62.9782C176.583 61.1269 175.888 58.8191 176.039 56.487V27.6678C175.886 25.3525 176.582 23.0612 177.995 21.2315C179.503 19.8194 181.483 19.0348 183.538 19.0348C185.594 19.0348 187.574 19.8194 189.082 21.2315C190.479 23.0886 191.16 25.3958 190.997 27.7227V56.5419C191.148 58.8674 190.468 61.1704 189.082 63.0331C187.603 64.5015 185.612 65.3243 183.538 65.3243C181.465 65.3243 179.474 64.5015 177.995 63.0331V62.9782Z" fill="white"/>
</svg>
