<svg width="137" height="180" viewBox="0 0 137 180" fill="none" xmlns="http://www.w3.org/2000/svg">
<g clip-path="url(#clip0_2811_25589)">
<path d="M133.004 25.7143H130.274C129.787 25.7143 129.32 25.5206 128.975 25.1759C128.631 24.8312 128.438 24.3636 128.438 23.8761V12.5714C128.438 11.5105 128.016 10.4931 127.267 9.74296C126.518 8.99281 125.501 8.57143 124.442 8.57143H121.711C121.224 8.57143 120.757 8.37775 120.413 8.03304C120.068 7.68833 119.875 7.22078 119.875 6.73328V3.99995C119.875 2.93909 119.454 1.92167 118.705 1.17153C117.955 0.421381 116.939 0 115.879 0H98.1833C97.1236 0 96.1072 0.421381 95.3579 1.17153C94.6085 1.92167 94.1875 2.93909 94.1875 3.99995V6.73328C94.1875 7.22078 93.994 7.68833 93.6497 8.03304C93.3053 8.37775 92.8383 8.57143 92.3513 8.57143H89.6208C88.5611 8.57143 87.5447 8.99281 86.7954 9.74296C86.046 10.4931 85.625 11.5105 85.625 12.5714V15.3047C85.625 15.7922 85.4315 16.2598 85.0872 16.6045C84.7428 16.9492 84.2758 17.1429 83.7888 17.1429H78.8987C78.4117 17.1429 77.9447 16.9492 77.6003 16.6045C77.256 16.2598 77.0625 15.7922 77.0625 15.3047V12.5714C77.0625 11.5105 76.6415 10.4931 75.8921 9.74296C75.1428 8.99281 74.1264 8.57143 73.0667 8.57143H70.3362C69.8492 8.57143 69.3822 8.37775 69.0378 8.03304C68.6935 7.68833 68.5 7.22078 68.5 6.73328V3.99995C68.5 2.93909 68.079 1.92167 67.3296 1.17153C66.5803 0.421381 65.5639 0 64.5042 0H29.6833C28.6236 0 27.6072 0.421381 26.8579 1.17153C26.1085 1.92167 25.6875 2.93909 25.6875 3.99995V6.73328C25.6875 7.22078 25.494 7.68833 25.1497 8.03304C24.8053 8.37775 24.3383 8.57143 23.8513 8.57143H21.1208C20.5961 8.57143 20.0765 8.67489 19.5917 8.87591C19.1069 9.07693 18.6664 9.37152 18.2954 9.74296C17.9243 10.1144 17.63 10.5554 17.4292 11.0407C17.2284 11.526 17.125 12.0461 17.125 12.5714V15.3047C17.125 15.7922 16.9315 16.2598 16.5872 16.6045C16.2428 16.9492 15.7758 17.1429 15.2888 17.1429H12.5583C11.4986 17.1429 10.4822 17.5642 9.73286 18.3144C8.9835 19.0645 8.5625 20.0819 8.5625 21.1428V21.7143C8.5625 22.7752 8.9835 23.7926 9.73286 24.5428C10.4822 25.2929 11.4986 25.7143 12.5583 25.7143H15.2888C15.7758 25.7143 16.2428 25.908 16.5872 26.2527C16.9315 26.5974 17.125 27.0649 17.125 27.5524V32.4476C17.125 32.9351 16.9315 33.4026 16.5872 33.7473C16.2428 34.092 15.7758 34.2857 15.2888 34.2857H12.5583C11.4986 34.2857 10.4822 34.7071 9.73286 35.4572C8.9835 36.2074 8.5625 37.2248 8.5625 38.2857V41.019C8.5625 41.5065 8.36902 41.974 8.02467 42.3188C7.68032 42.6635 7.21331 42.8571 6.72633 42.8571H3.99585C2.93608 42.8571 1.91973 43.2785 1.17036 44.0287C0.421 44.7788 0 45.7962 0 46.8571V64.5715C0 65.6323 0.421 66.6498 1.17036 67.3999C1.91973 68.15 2.93608 68.5714 3.99585 68.5714H4.56666C5.62642 68.5714 6.64277 68.15 7.39214 67.3999C8.1415 66.6498 8.5625 65.6323 8.5625 64.5715V61.8381C8.5625 61.3507 8.75598 60.8831 9.10033 60.5384C9.44468 60.1937 9.91169 60 10.3987 60H13.1292C14.1889 60 15.2053 59.5786 15.9546 58.8285C16.704 58.0783 17.125 57.0609 17.125 56V53.2667C17.125 52.7792 17.3185 52.3117 17.6628 51.967C18.0072 51.6222 18.4742 51.4286 18.9612 51.4286H21.6917C22.7514 51.4286 23.7678 51.0072 24.5171 50.257C25.2665 49.5069 25.6875 48.4895 25.6875 47.4286V44.6953C25.6875 44.2078 25.881 43.7402 26.2253 43.3955C26.5697 43.0508 27.0367 42.8571 27.5237 42.8571H30.2542C30.7789 42.8571 31.2985 42.7537 31.7833 42.5527C32.2681 42.3516 32.7086 42.0571 33.0796 41.6856C33.4507 41.3142 33.745 40.8731 33.9458 40.3878C34.1466 39.9025 34.25 39.3825 34.25 38.8572V36.1239C34.25 35.6364 34.4435 35.1688 34.7878 34.8241C35.1322 34.4794 35.5992 34.2857 36.0862 34.2857H49.5388C50.0258 34.2857 50.4928 34.4794 50.8372 34.8241C51.1815 35.1688 51.375 35.6364 51.375 36.1239V41.019C51.375 41.5065 51.1815 41.974 50.8372 42.3188C50.4928 42.6635 50.0258 42.8571 49.5388 42.8571H46.8083C45.7486 42.8571 44.7322 43.2785 43.9829 44.0287C43.2335 44.7788 42.8125 45.7962 42.8125 46.8571V49.5904C42.8125 50.0779 42.619 50.5455 42.2747 50.8902C41.9303 51.2349 41.4633 51.4286 40.9763 51.4286H38.2458C37.1861 51.4286 36.1697 51.85 35.4204 52.6001C34.671 53.3502 34.25 54.3677 34.25 55.4285V66.7333C34.25 67.2208 34.0565 67.6883 33.7122 68.033C33.3678 68.3777 32.9008 68.5714 32.4138 68.5714H29.6833C28.6236 68.5714 27.6072 68.9928 26.8579 69.743C26.1085 70.4931 25.6875 71.5105 25.6875 72.5714V90.2858C25.6875 90.8111 25.7909 91.3311 25.9917 91.8164C26.1925 92.3017 26.4868 92.7428 26.8579 93.1142C27.2289 93.4856 27.6694 93.7802 28.1542 93.9812C28.639 94.1823 29.1586 94.2857 29.6833 94.2857H30.2542C30.7789 94.2857 31.2985 94.1823 31.7833 93.9812C32.2681 93.7802 32.7086 93.4856 33.0796 93.1142C33.4507 92.7428 33.745 92.3017 33.9458 91.8164C34.1466 91.3311 34.25 90.8111 34.25 90.2858V78.981C34.25 78.4935 34.4435 78.026 34.7878 77.6812C35.1322 77.3365 35.5992 77.1429 36.0862 77.1429H38.8167C39.8764 77.1429 40.8928 76.7215 41.6421 75.9713C42.3915 75.2212 42.8125 74.2038 42.8125 73.1429V70.4096C42.8125 69.9221 43.006 69.4545 43.3503 69.1098C43.6947 68.7651 44.1617 68.5714 44.6487 68.5714H47.3792C47.9039 68.5714 48.4235 68.468 48.9083 68.267C49.3931 68.0659 49.8336 67.7713 50.2046 67.3999C50.5757 67.0285 50.87 66.5874 51.0708 66.1021C51.2716 65.6168 51.375 65.0968 51.375 64.5715V53.2667C51.375 52.7792 51.5685 52.3117 51.9128 51.967C52.2572 51.6222 52.7242 51.4286 53.2112 51.4286H66.6638C67.1508 51.4286 67.6178 51.6222 67.9622 51.967C68.3065 52.3117 68.5 52.7792 68.5 53.2667V66.7333C68.5 67.2208 68.3065 67.6883 67.9622 68.033C67.6178 68.3777 67.1508 68.5714 66.6638 68.5714H63.9333C62.8736 68.5714 61.8572 68.9928 61.1079 69.743C60.3585 70.4931 59.9375 71.5105 59.9375 72.5714V83.8761C59.9375 84.3636 59.744 84.8312 59.3997 85.1759C59.0553 85.5206 58.5883 85.7143 58.1013 85.7143H55.3708C54.3111 85.7143 53.2947 86.1357 52.5454 86.8858C51.796 87.636 51.375 88.6534 51.375 89.7142V109.59C51.375 110.078 51.1815 110.545 50.8372 110.89C50.4928 111.235 50.0258 111.429 49.5388 111.429H46.8083C45.7486 111.429 44.7322 111.85 43.9829 112.6C43.2335 113.35 42.8125 114.368 42.8125 115.429V167.429C42.8125 168.489 43.2335 169.507 43.9829 170.257C44.7322 171.007 45.7486 171.429 46.8083 171.429H49.5388C50.0258 171.429 50.4928 171.622 50.8372 171.967C51.1815 172.312 51.375 172.779 51.375 173.267V176C51.375 177.061 51.796 178.078 52.5454 178.828C53.2947 179.579 54.3111 180 55.3708 180H64.5042C65.5639 180 66.5803 179.579 67.3296 178.828C68.079 178.078 68.5 177.061 68.5 176V173.267C68.5 172.779 68.6935 172.312 69.0378 171.967C69.3822 171.622 69.8492 171.429 70.3362 171.429H73.0667C74.1264 171.429 75.1428 171.007 75.8921 170.257C76.6415 169.507 77.0625 168.489 77.0625 167.429V96.1239C77.0625 95.6364 77.256 95.1688 77.6003 94.8241C77.9447 94.4794 78.4117 94.2857 78.8987 94.2857H81.6292C82.6889 94.2857 83.7053 93.8643 84.4546 93.1142C85.204 92.364 85.625 91.3466 85.625 90.2858V70.4096C85.625 69.9221 85.8185 69.4545 86.1628 69.1098C86.5072 68.7651 86.9742 68.5714 87.4612 68.5714H90.1917C90.7164 68.5714 91.236 68.468 91.7208 68.267C92.2056 68.0659 92.6461 67.7713 93.0171 67.3999C93.3882 67.0285 93.6825 66.5874 93.8833 66.1021C94.0842 65.6168 94.1875 65.0968 94.1875 64.5715V61.8381C94.1875 61.3507 94.381 60.8831 94.7253 60.5384C95.0697 60.1937 95.5367 60 96.0237 60H100.914C101.401 60 101.868 60.1937 102.212 60.5384C102.557 60.8831 102.75 61.3507 102.75 61.8381V64.5715C102.75 65.6323 103.171 66.6498 103.92 67.3999C104.67 68.15 105.686 68.5714 106.746 68.5714H109.476C109.963 68.5714 110.43 68.7651 110.775 69.1098C111.119 69.4545 111.312 69.9221 111.312 70.4096V81.7143C111.312 82.7752 111.733 83.7926 112.483 84.5428C113.232 85.2929 114.249 85.7143 115.308 85.7143H115.879C116.939 85.7143 117.955 85.2929 118.705 84.5428C119.454 83.7926 119.875 82.7752 119.875 81.7143V70.4096C119.875 69.9221 120.068 69.4545 120.413 69.1098C120.757 68.7651 121.224 68.5714 121.711 68.5714H124.442C125.501 68.5714 126.518 68.15 127.267 67.3999C128.016 66.6498 128.438 65.6323 128.438 64.5715V46.8571C128.438 45.7962 128.016 44.7788 127.267 44.0287C126.518 43.2785 125.501 42.8571 124.442 42.8571H113.149C112.662 42.8571 112.195 42.6635 111.85 42.3188C111.506 41.974 111.312 41.5065 111.312 41.019V38.2857C111.312 37.7604 111.209 37.2403 111.008 36.755C110.808 36.2697 110.513 35.8287 110.142 35.4572C109.771 35.0858 109.331 34.7912 108.846 34.5902C108.361 34.3892 107.841 34.2857 107.317 34.2857H104.586C104.099 34.2857 103.632 34.092 103.288 33.7473C102.943 33.4026 102.75 32.9351 102.75 32.4476V27.5524C102.75 27.0649 102.943 26.5974 103.288 26.2527C103.632 25.908 104.099 25.7143 104.586 25.7143H126.601C127.088 25.7143 127.555 25.908 127.9 26.2527C128.244 26.5974 128.438 27.0649 128.438 27.5524V30.2858C128.438 30.811 128.541 31.3311 128.742 31.8164C128.942 32.3017 129.237 32.7428 129.608 33.1142C129.979 33.4856 130.419 33.7802 130.904 33.9812C131.389 34.1823 131.909 34.2857 132.433 34.2857H133.004C133.529 34.2857 134.049 34.1823 134.533 33.9812C135.018 33.7802 135.459 33.4856 135.83 33.1142C136.201 32.7428 136.495 32.3017 136.696 31.8164C136.897 31.3311 137 30.811 137 30.2858V29.7142C137 29.189 136.897 28.6689 136.696 28.1836C136.495 27.6983 136.201 27.2572 135.83 26.8858C135.459 26.5144 135.018 26.2198 134.533 26.0188C134.049 25.8177 133.529 25.7143 133.004 25.7143ZM85.625 64.5715V66.7333C85.625 67.2208 85.4315 67.6883 85.0872 68.033C84.7428 68.3777 84.2758 68.5714 83.7888 68.5714H78.8987C78.4117 68.5714 77.9447 68.3777 77.6003 68.033C77.256 67.6883 77.0625 67.2208 77.0625 66.7333V44.6953C77.0625 44.2078 77.256 43.7402 77.6003 43.3955C77.9447 43.0508 78.4117 42.8571 78.8987 42.8571H83.7888C84.2758 42.8571 84.7428 43.0508 85.0872 43.3955C85.4315 43.7402 85.625 44.2078 85.625 44.6953V64.5715ZM92.3513 25.7143C92.8383 25.7143 93.3053 25.908 93.6497 26.2527C93.994 26.5974 94.1875 27.0649 94.1875 27.5524V32.4476C94.1875 32.9351 93.994 33.4026 93.6497 33.7473C93.3053 34.092 92.8383 34.2857 92.3513 34.2857H87.4612C86.9742 34.2857 86.5072 34.092 86.1628 33.7473C85.8185 33.4026 85.625 32.9351 85.625 32.4476V27.5524C85.625 27.0649 85.8185 26.5974 86.1628 26.2527C86.5072 25.908 86.9742 25.7143 87.4612 25.7143H92.3513ZM58.1013 17.1429C58.5883 17.1429 59.0553 17.3365 59.3997 17.6812C59.744 18.026 59.9375 18.4935 59.9375 18.981V23.8761C59.9375 24.3636 59.744 24.8312 59.3997 25.1759C59.0553 25.5206 58.5883 25.7143 58.1013 25.7143H53.2112C52.7242 25.7143 52.2572 25.5206 51.9128 25.1759C51.5685 24.8312 51.375 24.3636 51.375 23.8761V18.981C51.375 18.4935 51.5685 18.026 51.9128 17.6812C52.2572 17.3365 52.7242 17.1429 53.2112 17.1429H58.1013ZM61.7737 34.2857C61.2867 34.2857 60.8197 34.092 60.4753 33.7473C60.131 33.4026 59.9375 32.9351 59.9375 32.4476V27.5524C59.9375 27.0649 60.131 26.5974 60.4753 26.2527C60.8197 25.908 61.2867 25.7143 61.7737 25.7143H66.6638C67.1508 25.7143 67.6178 25.908 67.9622 26.2527C68.3065 26.5974 68.5 27.0649 68.5 27.5524V32.4476C68.5 32.9351 68.3065 33.4026 67.9622 33.7473C67.6178 34.092 67.1508 34.2857 66.6638 34.2857H61.7737ZM73.0667 17.1429H75.2263C75.7133 17.1429 76.1803 17.3365 76.5247 17.6812C76.869 18.026 77.0625 18.4935 77.0625 18.981V23.8761C77.0625 24.3636 76.869 24.8312 76.5247 25.1759C76.1803 25.5206 75.7133 25.7143 75.2263 25.7143H70.3362C69.8492 25.7143 69.3822 25.5206 69.0378 25.1759C68.6935 24.8312 68.5 24.3636 68.5 23.8761V18.981C68.5 18.4935 68.6935 18.026 69.0378 17.6812C69.3822 17.3365 69.8492 17.1429 70.3362 17.1429H73.0667ZM38.2458 25.7143H18.9612C18.4742 25.7143 18.0072 25.5206 17.6628 25.1759C17.3185 24.8312 17.125 24.3636 17.125 23.8761V18.981C17.125 18.4935 17.3185 18.026 17.6628 17.6812C18.0072 17.3365 18.4742 17.1429 18.9612 17.1429H40.9763C41.4633 17.1429 41.9303 17.3365 42.2747 17.6812C42.619 18.026 42.8125 18.4935 42.8125 18.981V23.8761C42.8125 24.3636 42.619 24.8312 42.2747 25.1759C41.9303 25.5206 41.4633 25.7143 40.9763 25.7143H38.2458ZM63.9333 171.429H53.2112C52.7242 171.429 52.2572 171.235 51.9128 170.89C51.5685 170.545 51.375 170.078 51.375 169.59V164.695C51.375 164.208 51.5685 163.74 51.9128 163.396C52.2572 163.051 52.7242 162.857 53.2112 162.857H55.9417C57.0014 162.857 58.0178 162.436 58.7671 161.686C59.5165 160.935 59.9375 159.918 59.9375 158.857V158.286C59.9375 157.225 59.5165 156.207 58.7671 155.457C58.0178 154.707 57.0014 154.286 55.9417 154.286H53.2112C52.97 154.286 52.7313 154.238 52.5085 154.146C52.2857 154.053 52.0833 153.918 51.9128 153.747C51.7423 153.577 51.607 153.374 51.5148 153.151C51.4225 152.928 51.375 152.689 51.375 152.448V147.552C51.375 147.065 51.5685 146.597 51.9128 146.253C52.2572 145.908 52.7242 145.714 53.2112 145.714H55.9417C57.0014 145.714 58.0178 145.293 58.7671 144.543C59.5165 143.793 59.9375 142.775 59.9375 141.714V141.143C59.9375 140.082 59.5165 139.065 58.7671 138.314C58.0178 137.564 57.0014 137.143 55.9417 137.143H53.2112C52.7242 137.143 52.2572 136.949 51.9128 136.604C51.5685 136.26 51.375 135.792 51.375 135.305V130.41C51.375 129.922 51.5685 129.455 51.9128 129.11C52.2572 128.765 52.7242 128.571 53.2112 128.571H55.9417C57.0014 128.571 58.0178 128.15 58.7671 127.4C59.5165 126.65 59.9375 125.632 59.9375 124.571V124C59.9375 122.939 59.5165 121.922 58.7671 121.172C58.0178 120.421 57.0014 120 55.9417 120H53.2112C52.97 120 52.7313 119.952 52.5085 119.86C52.2857 119.768 52.0833 119.632 51.9128 119.462C51.7423 119.291 51.607 119.088 51.5148 118.865C51.4225 118.642 51.375 118.403 51.375 118.162V113.267C51.375 112.779 51.5685 112.312 51.9128 111.967C52.2572 111.622 52.7242 111.429 53.2112 111.429H55.9417C57.0014 111.429 58.0178 111.007 58.7671 110.257C59.5165 109.507 59.9375 108.489 59.9375 107.429V87.5524C59.9375 87.0649 60.131 86.5974 60.4753 86.2527C60.8197 85.908 61.2867 85.7143 61.7737 85.7143H64.5042C65.5639 85.7143 66.5803 85.2929 67.3296 84.5428C68.079 83.7926 68.5 82.7752 68.5 81.7143V70.4096C68.5 69.9221 68.6935 69.4545 69.0378 69.1098C69.3822 68.7651 69.8492 68.5714 70.3362 68.5714H75.2263C75.7133 68.5714 76.1803 68.7651 76.5247 69.1098C76.869 69.4545 77.0625 69.9221 77.0625 70.4096V92.4476C77.0625 92.6889 77.015 92.928 76.9227 93.151C76.8305 93.374 76.6952 93.5766 76.5247 93.7473C76.3542 93.918 76.1518 94.0534 75.929 94.1457C75.7062 94.2381 75.4675 94.2857 75.2263 94.2857H72.4958C71.4361 94.2857 70.4197 94.7071 69.6704 95.4572C68.921 96.2074 68.5 97.2248 68.5 98.2857V169.59C68.5 169.832 68.4525 170.071 68.3602 170.294C68.268 170.517 68.1327 170.719 67.9622 170.89C67.7917 171.061 67.5893 171.196 67.3665 171.289C67.1437 171.381 66.905 171.429 66.6638 171.429H63.9333ZM107.317 42.8571H109.476C109.963 42.8571 110.43 43.0508 110.775 43.3955C111.119 43.7402 111.312 44.2078 111.312 44.6953V58.1619C111.312 58.6493 111.119 59.1169 110.775 59.4616C110.43 59.8063 109.963 60 109.476 60H104.586C104.099 60 103.632 59.8063 103.288 59.4616C102.943 59.1169 102.75 58.6493 102.75 58.1619V55.4285C102.75 54.3677 102.329 53.3502 101.58 52.6001C100.83 51.85 99.8139 51.4286 98.7542 51.4286H96.0237C95.5367 51.4286 95.0697 51.2349 94.7253 50.8902C94.381 50.5455 94.1875 50.0779 94.1875 49.5904V44.6953C94.1875 44.2078 94.381 43.7402 94.7253 43.3955C95.0697 43.0508 95.5367 42.8571 96.0237 42.8571H107.317Z" fill="#3FD960"/>
</g>
<defs>
<clipPath id="clip0_2811_25589">
<rect width="137" height="180" fill="white"/>
</clipPath>
</defs>
</svg>
