<svg width="24" height="24" viewBox="0 0 24 24" fill="none" xmlns="http://www.w3.org/2000/svg">
<g id="Action/Calendar">
<path id="Union" fill-rule="evenodd" clip-rule="evenodd" d="M5.5 3C5.5 2.17157 6.17157 1.5 7 1.5C7.82843 1.5 8.5 2.17157 8.5 3V4H15.5V3C15.5 2.17157 16.1716 1.5 17 1.5C17.8284 1.5 18.5 2.17157 18.5 3V4H19C20.6569 4 22 5.34315 22 7V19C22 20.6569 20.6569 22 19 22H5C3.34315 22 2 20.6569 2 19V7C2 5.34315 3.34315 4 5 4H5.5V3ZM5 6C4.44772 6 4 6.44772 4 7V19C4 19.5523 4.44772 20 5 20H19C19.5523 20 20 19.5523 20 19V7C20 6.44772 19.5523 6 19 6H5ZM8.5 10.5C8.5 11.3284 7.82843 12 7 12C6.17157 12 5.5 11.3284 5.5 10.5C5.5 9.67157 6.17157 9 7 9C7.82843 9 8.5 9.67157 8.5 10.5ZM7 17C7.82843 17 8.5 16.3284 8.5 15.5C8.5 14.6716 7.82843 14 7 14C6.17157 14 5.5 14.6716 5.5 15.5C5.5 16.3284 6.17157 17 7 17ZM13.5 10.5C13.5 11.3284 12.8284 12 12 12C11.1716 12 10.5 11.3284 10.5 10.5C10.5 9.67157 11.1716 9 12 9C12.8284 9 13.5 9.67157 13.5 10.5ZM12 17C12.8284 17 13.5 16.3284 13.5 15.5C13.5 14.6716 12.8284 14 12 14C11.1716 14 10.5 14.6716 10.5 15.5C10.5 16.3284 11.1716 17 12 17ZM18.5 10.5C18.5 11.3284 17.8284 12 17 12C16.1716 12 15.5 11.3284 15.5 10.5C15.5 9.67157 16.1716 9 17 9C17.8284 9 18.5 9.67157 18.5 10.5ZM17 17C17.8284 17 18.5 16.3284 18.5 15.5C18.5 14.6716 17.8284 14 17 14C16.1716 14 15.5 14.6716 15.5 15.5C15.5 16.3284 16.1716 17 17 17Z" fill="white"/>
</g>
</svg>
