<svg width="25" height="24" viewBox="0 0 25 24" fill="none" xmlns="http://www.w3.org/2000/svg">
<path fill-rule="evenodd" clip-rule="evenodd" d="M12.5 22.5C18.2989 22.5 23 17.7989 23 12C23 6.20114 18.2989 1.5 12.5 1.5C6.70114 1.5 2 6.20114 2 12C2 17.7989 6.70114 22.5 12.5 22.5ZM11.6535 15.714C11.8581 15.3596 12.2362 15.1413 12.6454 15.1413C13.278 15.1413 13.7908 15.6542 13.7908 16.2868C13.7908 16.9194 13.278 17.4322 12.6454 17.4322C12.2362 17.4322 11.8581 17.2139 11.6535 16.8595C11.4488 16.5051 11.4488 16.0684 11.6535 15.714ZM11.7863 12.6757C11.7863 13.1502 12.1709 13.5348 12.6454 13.5348C13.1199 13.5348 13.5045 13.1502 13.5045 12.6757V7.90304C13.5045 7.42857 13.1199 7.04395 12.6454 7.04395C12.1709 7.04395 11.7863 7.42857 11.7863 7.90304V12.6757Z" fill="#EB546F"/>
</svg>
