<svg width="25" height="24" viewBox="0 0 25 24" fill="none" xmlns="http://www.w3.org/2000/svg">
<path d="M23 12C23 17.7989 18.2989 22.5 12.5 22.5C6.70114 22.5 2 17.7989 2 12C2 6.20114 6.70114 1.5 12.5 1.5C18.2989 1.5 23 6.20114 23 12Z" fill="#FF991F"/>
<path d="M12.5009 15.1423C12.0917 15.1423 11.7135 15.3606 11.5089 15.715C11.3043 16.0694 11.3043 16.5061 11.5089 16.8605C11.7135 17.2149 12.0917 17.4332 12.5009 17.4332C13.1335 17.4332 13.6463 16.9204 13.6463 16.2878C13.6463 15.6552 13.1335 15.1423 12.5009 15.1423ZM12.5009 13.5358C12.0264 13.5358 11.6418 13.1512 11.6418 12.6767V7.90401C11.6418 7.42954 12.0264 7.04492 12.5009 7.04492C12.9754 7.04492 13.36 7.42954 13.36 7.90401V12.6767C13.36 13.1512 12.9754 13.5358 12.5009 13.5358Z" fill="#242427"/>
</svg>
