<svg width="24" height="24" viewBox="0 0 24 24" fill="none" xmlns="http://www.w3.org/2000/svg">
<path d="M20.3958 3.6042C18.2569 1.46527 14.7986 1.46527 12.6597 3.6042L8.7916 7.47226C8.57171 7.69215 8.37181 7.94203 8.1919 8.19191C7.55222 9.09145 7.22239 10.1409 7.1924 11.1904C7.17241 11.8201 7.26237 12.4398 7.46227 13.0395C7.72214 13.8291 8.16192 14.5787 8.7916 15.2084C9.31898 15.7358 9.93048 16.1299 10.5791 16.3968C10.8098 16.4916 11.0717 16.4265 11.2481 16.2502C11.6416 15.8567 11.4015 15.1345 10.9008 14.8916C10.5227 14.7082 10.1679 14.461 9.85107 14.1489C9.1914 13.4893 8.82159 12.6397 8.73163 11.7701C8.64168 10.9105 8.81159 10.031 9.28136 9.27137C9.44128 9.0115 9.62119 8.75163 9.85107 8.53174L13.7191 4.66367C15.2684 3.11444 17.7871 3.11444 19.3363 4.66367C20.8856 6.21289 20.8856 8.73163 19.3363 10.2809L18.4207 11.1965C18.2804 11.3368 18.2193 11.537 18.245 11.7337C18.3195 12.3053 19.0872 12.649 19.4948 12.2413L20.3958 11.3403C22.5347 9.2014 22.5347 5.74313 20.3958 3.6042Z" fill="#B2B2B4"/>
<path d="M15.2084 8.7916C14.681 8.26423 14.0695 7.87007 13.4209 7.60324C13.1902 7.50835 12.9283 7.57349 12.7519 7.74985C12.3584 8.14333 12.5985 8.8655 13.0992 9.10837C13.4773 9.29177 13.8321 9.53898 14.1489 9.85108C14.8086 10.5107 15.1784 11.3603 15.2684 12.2299C15.3583 13.0895 15.1884 13.969 14.7186 14.7286C14.5587 14.9885 14.3788 15.2484 14.1489 15.4683L10.2809 19.3363C8.73163 20.8856 6.21289 20.8856 4.66367 19.3363C3.11444 17.7871 3.11444 15.2684 4.66367 13.7191L5.57934 12.8035C5.71958 12.6632 5.7807 12.463 5.75504 12.2663C5.68047 11.6947 4.91285 11.351 4.50522 11.7587L3.6042 12.6597C1.46527 14.7986 1.46527 18.2569 3.6042 20.3958C5.74313 22.5347 9.2014 22.5347 11.3403 20.3958L15.2084 16.5277C15.4283 16.3078 15.6282 16.058 15.8081 15.8081C16.4478 14.9085 16.7776 13.8591 16.8076 12.8096C16.8276 12.1799 16.7376 11.5602 16.5377 10.9605C16.2779 10.1709 15.8381 9.42129 15.2084 8.7916Z" fill="#B2B2B4"/>
</svg>
