<svg width="288" height="318" viewBox="0 0 288 318" fill="none" xmlns="http://www.w3.org/2000/svg">
<path d="M235.309 180.371C235.697 181.777 236.045 183.17 236.366 184.535" stroke="#242427" stroke-width="2" stroke-linecap="round" stroke-linejoin="round"/>
<path d="M246 171.5L251 173M251 173L248 177.5M251 173L254.5 177.5M251 173L256 171.5M251 173V168" stroke="#242427" stroke-width="2" stroke-linecap="round" stroke-linejoin="round"/>
<path d="M261 180.5L266 182M266 182L263 186.5M266 182L269.5 186.5M266 182L271 180.5M266 182V177" stroke="#242427" stroke-width="2" stroke-linecap="round" stroke-linejoin="round"/>
<path d="M256 154.158L263.5 156.368M263.5 156.368L259 163M263.5 156.368L268.75 163M263.5 156.368L271 154.158M263.5 156.368V149" stroke="#242427" stroke-width="2" stroke-linecap="round" stroke-linejoin="round"/>
<path d="M45.7025 83.9342C52.6984 83.9342 58.3698 78.2628 58.3698 71.2669C58.3698 64.2709 52.6984 58.5996 45.7025 58.5996C38.7065 58.5996 33.0352 64.2709 33.0352 71.2669C33.0352 78.2628 38.7065 83.9342 45.7025 83.9342Z" fill="white" stroke="#242427" stroke-width="2" stroke-linecap="round" stroke-linejoin="round"/>
<path d="M47.6445 90.9824V108.015" stroke="#242427" stroke-width="2" stroke-linecap="round" stroke-linejoin="round"/>
<path d="M36.2907 92.1445L33.0234 103.5" stroke="#242427" stroke-width="2" stroke-linecap="round" stroke-linejoin="round"/>
<path d="M26.5138 82.0469L13.8867 92.1432" stroke="#242427" stroke-width="2" stroke-linecap="round" stroke-linejoin="round"/>
<path d="M13.2578 65.9531L24.6128 71.2691" stroke="#242427" stroke-width="2" stroke-linecap="round" stroke-linejoin="round"/>
<path d="M25.5664 48.918L33.0248 58.5858" stroke="#242427" stroke-width="2" stroke-linecap="round" stroke-linejoin="round"/>
<path d="M47.6447 38.502L45.7031 51.1291" stroke="#242427" stroke-width="2" stroke-linecap="round" stroke-linejoin="round"/>
<path d="M63.4192 47.9688L58.3711 53.7534" stroke="#242427" stroke-width="2" stroke-linecap="round" stroke-linejoin="round"/>
<path d="M80.1395 60.9043L65.3164 66.2738" stroke="#242427" stroke-width="2" stroke-linecap="round" stroke-linejoin="round"/>
<path d="M79.5128 81.7259L67.207 78.2578" stroke="#242427" stroke-width="2" stroke-linecap="round" stroke-linejoin="round"/>
<path d="M67.2087 97.8216L58.3711 91.1934" stroke="#242427" stroke-width="2" stroke-linecap="round" stroke-linejoin="round"/>
<path d="M248.92 103.035C245.75 104.203 242.331 104.856 238.763 104.856C222.457 104.856 209.246 91.6451 209.246 75.3389C209.246 59.0327 222.457 45.8223 238.763 45.8223C243.747 45.8223 248.429 47.0772 252.542 49.2606C241.774 53.5055 234.069 63.8395 233.668 76.0261H233.638V77.0261C233.638 88.2128 239.808 97.9322 248.92 103.035Z" fill="white" stroke="#242427" stroke-width="2"/>
<path d="M90.1171 16.5646C88.7813 16.5646 87.6143 16.2553 86.616 15.6366C85.6317 15.0179 84.8654 14.1251 84.3171 12.9581C83.7828 11.791 83.5156 10.399 83.5156 8.78206C83.5156 7.16509 83.7828 5.77309 84.3171 4.60606C84.8654 3.43903 85.6317 2.54618 86.616 1.92751C87.6143 1.30885 88.7813 0.999512 90.1171 0.999512C91.4528 0.999512 92.6199 1.30885 93.6182 1.92751C94.6165 2.54618 95.3828 3.43903 95.9171 4.60606C96.4654 5.77309 96.7396 7.16509 96.7396 8.78206C96.7396 10.399 96.4654 11.791 95.9171 12.9581C95.3828 14.1251 94.6165 15.0179 93.6182 15.6366C92.6199 16.2553 91.4528 16.5646 90.1171 16.5646ZM90.1171 12.9159C90.553 12.9159 90.9326 12.7893 91.256 12.5362C91.5934 12.2691 91.8536 11.8332 92.0364 11.2286C92.2332 10.6099 92.3316 9.79442 92.3316 8.78206C92.3316 7.29163 92.1278 6.23006 91.72 5.59733C91.3263 4.9646 90.792 4.64824 90.1171 4.64824C89.6812 4.64824 89.3016 4.78182 88.9782 5.04897C88.6548 5.30206 88.3947 5.73794 88.1978 6.3566C88.015 6.96121 87.9236 7.76969 87.9236 8.78206C87.9236 10.2725 88.1205 11.3341 88.5142 11.9668C88.9219 12.5995 89.4562 12.9159 90.1171 12.9159Z" fill="black"/>
<path d="M75.6542 16.5646C74.3184 16.5646 73.1514 16.2553 72.1531 15.6366C71.1689 15.0179 70.4026 14.1251 69.8542 12.9581C69.3199 11.791 69.0527 10.399 69.0527 8.78206C69.0527 7.16509 69.3199 5.77309 69.8542 4.60606C70.4026 3.43903 71.1689 2.54618 72.1531 1.92751C73.1514 1.30885 74.3184 0.999512 75.6542 0.999512C76.9899 0.999512 78.157 1.30885 79.1553 1.92751C80.1536 2.54618 80.9199 3.43903 81.4542 4.60606C82.0026 5.77309 82.2767 7.16509 82.2767 8.78206C82.2767 10.399 82.0026 11.791 81.4542 12.9581C80.9199 14.1251 80.1536 15.0179 79.1553 15.6366C78.157 16.2553 76.9899 16.5646 75.6542 16.5646ZM75.6542 12.9159C76.0901 12.9159 76.4697 12.7893 76.7931 12.5362C77.1306 12.2691 77.3907 11.8332 77.5735 11.2286C77.7703 10.6099 77.8687 9.79442 77.8687 8.78206C77.8687 7.29163 77.6649 6.23006 77.2571 5.59733C76.8634 4.9646 76.3291 4.64824 75.6542 4.64824C75.2183 4.64824 74.8387 4.78182 74.5153 5.04897C74.1919 5.30206 73.9318 5.73794 73.7349 6.3566C73.5521 6.96121 73.4607 7.76969 73.4607 8.78206C73.4607 10.2725 73.6576 11.3341 74.0513 11.9668C74.459 12.5995 74.9933 12.9159 75.6542 12.9159Z" fill="black"/>
<path d="M65.0758 16.3958C64.2744 16.3958 63.6135 16.1638 63.0933 15.6998C62.5871 15.2358 62.334 14.6452 62.334 13.9282C62.334 13.2111 62.5871 12.6205 63.0933 12.1565C63.6135 11.6925 64.2744 11.4605 65.0758 11.4605C65.8773 11.4605 66.5381 11.6925 67.0583 12.1565C67.5786 12.6205 67.8387 13.2111 67.8387 13.9282C67.8387 14.6312 67.5786 15.2217 67.0583 15.6998C66.5381 16.1638 65.8773 16.3958 65.0758 16.3958ZM65.0758 10.406C64.2744 10.406 63.6135 10.174 63.0933 9.70998C62.5871 9.24598 62.334 8.65543 62.334 7.93834C62.334 7.22125 62.5871 6.6307 63.0933 6.1667C63.6135 5.7027 64.2744 5.4707 65.0758 5.4707C65.8773 5.4707 66.5381 5.7027 67.0583 6.1667C67.5786 6.6307 67.8387 7.22125 67.8387 7.93834C67.8387 8.64137 67.5786 9.23192 67.0583 9.70998C66.5381 10.174 65.8773 10.406 65.0758 10.406Z" fill="black"/>
<path d="M54.5136 16.5646C53.1778 16.5646 52.0108 16.2553 51.0125 15.6366C50.0282 15.0179 49.2619 14.1251 48.7136 12.9581C48.1793 11.791 47.9121 10.399 47.9121 8.78206C47.9121 7.16509 48.1793 5.77309 48.7136 4.60606C49.2619 3.43903 50.0282 2.54618 51.0125 1.92751C52.0108 1.30885 53.1778 0.999512 54.5136 0.999512C55.8493 0.999512 57.0164 1.30885 58.0147 1.92751C59.013 2.54618 59.7793 3.43903 60.3136 4.60606C60.8619 5.77309 61.1361 7.16509 61.1361 8.78206C61.1361 10.399 60.8619 11.791 60.3136 12.9581C59.7793 14.1251 59.013 15.0179 58.0147 15.6366C57.0164 16.2553 55.8493 16.5646 54.5136 16.5646ZM54.5136 12.9159C54.9494 12.9159 55.3291 12.7893 55.6525 12.5362C55.9899 12.2691 56.25 11.8332 56.4328 11.2286C56.6297 10.6099 56.7281 9.79442 56.7281 8.78206C56.7281 7.29163 56.5242 6.23006 56.1165 5.59733C55.7228 4.9646 55.1885 4.64824 54.5136 4.64824C54.0777 4.64824 53.698 4.78182 53.3747 5.04897C53.0513 5.30206 52.7911 5.73794 52.5943 6.3566C52.4115 6.96121 52.3201 7.76969 52.3201 8.78206C52.3201 10.2725 52.517 11.3341 52.9107 11.9668C53.3184 12.5995 53.8527 12.9159 54.5136 12.9159Z" fill="black"/>
<path d="M44.0696 16.5646C43.3806 16.5646 42.8463 16.3467 42.4667 15.9108C42.1011 15.4749 41.9183 14.8562 41.9183 14.0548V7.66424C41.9183 7.608 41.9183 7.55175 41.9183 7.49551C41.9183 7.25648 41.9464 7.03151 42.0027 6.8206C41.848 7.08775 41.6301 7.29163 41.3488 7.43224C41.0676 7.55878 40.7724 7.62206 40.463 7.62206C40.0693 7.62206 39.7319 7.53066 39.4507 7.34788C39.1695 7.16509 38.9515 6.92606 38.7968 6.63078C38.6562 6.32145 38.5859 5.99103 38.5859 5.63951C38.5859 5.13333 38.7547 4.71151 39.0921 4.37406C39.4436 4.02254 39.9358 3.7343 40.5685 3.50933C40.8497 3.41091 41.1168 3.28436 41.3699 3.12969C41.6371 2.97503 41.8621 2.79224 42.0448 2.58133C42.1433 2.45478 42.2417 2.32824 42.3401 2.20169C42.6635 1.77988 42.9447 1.47757 43.1838 1.29478C43.4368 1.09794 43.7813 0.999512 44.2172 0.999512C44.8781 0.999512 45.3842 1.20339 45.7358 1.61115C46.0873 2.01891 46.263 2.59539 46.263 3.3406V14.0548C46.263 14.8562 46.0732 15.4749 45.6936 15.9108C45.3139 16.3467 44.7726 16.5646 44.0696 16.5646Z" fill="black"/>
<path d="M18.0935 16.5646C17.4186 16.5646 16.8983 16.3537 16.5327 15.9319C16.1672 15.496 15.9844 14.8844 15.9844 14.097V4.66933C15.9844 3.58666 16.3218 2.70788 16.9967 2.03297C17.6716 1.344 18.5504 0.999512 19.6331 0.999512C20.5892 0.999512 21.3836 1.26666 22.0164 1.80097C22.6491 2.32121 23.078 3.08751 23.3029 4.09988L24.5895 9.64678C24.6457 9.85769 24.6879 10.0616 24.716 10.2584C24.7582 10.4412 24.7933 10.624 24.8215 10.8068C24.9058 11.2708 24.955 11.5871 24.9691 11.7559C24.9832 11.5871 25.0043 11.4114 25.0324 11.2286C25.0605 11.0458 25.0956 10.863 25.1378 10.6802C25.1659 10.5256 25.1941 10.3639 25.2222 10.1951C25.2503 10.0124 25.2855 9.82957 25.3276 9.64678L26.5087 4.09988C26.7196 3.08751 27.1344 2.32121 27.7531 1.80097C28.3858 1.26666 29.1803 0.999512 30.1364 0.999512C30.8394 0.999512 31.4651 1.15418 32.0135 1.46351C32.5759 1.77285 33.0118 2.20872 33.3211 2.77115C33.6304 3.31951 33.7851 3.95224 33.7851 4.66933V14.097C33.7851 14.8844 33.5953 15.496 33.2156 15.9319C32.8501 16.3537 32.3228 16.5646 31.6338 16.5646C30.9589 16.5646 30.4387 16.3537 30.0731 15.9319C29.7075 15.496 29.5247 14.8844 29.5247 14.097L29.5669 7.76969C29.5669 7.13697 29.6021 6.39878 29.6724 5.55515L27.8796 14.1391C27.725 14.8844 27.3875 15.4749 26.8673 15.9108C26.347 16.3467 25.7143 16.5646 24.9691 16.5646C24.238 16.5646 23.6123 16.3467 23.092 15.9108C22.5718 15.4749 22.2273 14.8844 22.0586 14.1391L20.0971 5.61842C20.1252 5.88557 20.1463 6.15272 20.1604 6.41988C20.1744 6.64485 20.1815 6.87684 20.1815 7.11588C20.1955 7.34085 20.2026 7.56581 20.2026 7.79078L20.2447 14.3079C20.2447 15.0109 20.0549 15.5663 19.6753 15.9741C19.3097 16.3678 18.7824 16.5646 18.0935 16.5646Z" fill="black"/>
<path d="M2.10909 16.5646C1.64509 16.5646 1.22327 16.431 0.843636 16.1639C0.464 15.8967 0.203879 15.503 0.0632727 14.9828C-0.0632727 14.4485 0 13.8228 0.253091 13.1057L3.64873 3.63588C3.95806 2.77818 4.42206 2.12436 5.04073 1.67442C5.67346 1.22448 6.45382 0.999512 7.38182 0.999512C8.32388 0.999512 9.10424 1.22448 9.72291 1.67442C10.3416 2.1103 10.8056 2.76412 11.1149 3.63588L14.5105 13.1057C14.7636 13.8228 14.8199 14.4485 14.6793 14.9828C14.5527 15.503 14.2996 15.8967 13.92 16.1639C13.5404 16.431 13.1185 16.5646 12.6545 16.5646C12.0078 16.5646 11.4875 16.3678 11.0938 15.9741C10.7001 15.5663 10.3556 14.8844 10.0604 13.9282L7.90909 7.11588C7.62788 6.216 7.44509 5.56921 7.36073 5.17551C7.33261 5.3583 7.27636 5.5903 7.192 5.87151C7.1217 6.15272 7.03733 6.448 6.93891 6.75733C6.89673 6.88388 6.85455 7.01042 6.81236 7.13697L4.66109 13.9282C4.36582 14.8844 4.02133 15.5663 3.62764 15.9741C3.248 16.3678 2.74182 16.5646 2.10909 16.5646ZM4.30255 9.73115H10.5455V13.3588H4.30255V9.73115Z" fill="black"/>
<path d="M274.068 16.4005C272.732 16.4005 271.565 16.0912 270.567 15.4725C269.583 14.8539 268.817 13.961 268.268 12.794C267.734 11.627 267.467 10.235 267.467 8.61799C267.467 7.00102 267.734 5.60903 268.268 4.44199C268.817 3.27496 269.583 2.38212 270.567 1.76345C271.565 1.14478 272.732 0.835449 274.068 0.835449C275.404 0.835449 276.571 1.14478 277.569 1.76345C278.568 2.38212 279.334 3.27496 279.868 4.44199C280.417 5.60903 280.691 7.00102 280.691 8.61799C280.691 10.235 280.417 11.627 279.868 12.794C279.334 13.961 278.568 14.8539 277.569 15.4725C276.571 16.0912 275.404 16.4005 274.068 16.4005ZM274.068 12.7518C274.504 12.7518 274.884 12.6253 275.207 12.3722C275.545 12.105 275.805 11.6691 275.988 11.0645C276.184 10.4459 276.283 9.63036 276.283 8.61799C276.283 7.12757 276.079 6.066 275.671 5.43327C275.277 4.80054 274.743 4.48418 274.068 4.48418C273.632 4.48418 273.253 4.61775 272.929 4.8849C272.606 5.13799 272.346 5.57387 272.149 6.19254C271.966 6.79715 271.875 7.60563 271.875 8.61799C271.875 10.1084 272.072 11.17 272.465 11.8027C272.873 12.4355 273.407 12.7518 274.068 12.7518Z" fill="black"/>
<path d="M259.605 16.4005C258.27 16.4005 257.103 16.0912 256.104 15.4725C255.12 14.8539 254.354 13.961 253.805 12.794C253.271 11.627 253.004 10.235 253.004 8.61799C253.004 7.00102 253.271 5.60903 253.805 4.44199C254.354 3.27496 255.12 2.38212 256.104 1.76345C257.103 1.14478 258.27 0.835449 259.605 0.835449C260.941 0.835449 262.108 1.14478 263.106 1.76345C264.105 2.38212 264.871 3.27496 265.405 4.44199C265.954 5.60903 266.228 7.00102 266.228 8.61799C266.228 10.235 265.954 11.627 265.405 12.794C264.871 13.961 264.105 14.8539 263.106 15.4725C262.108 16.0912 260.941 16.4005 259.605 16.4005ZM259.605 12.7518C260.041 12.7518 260.421 12.6253 260.744 12.3722C261.082 12.105 261.342 11.6691 261.525 11.0645C261.721 10.4459 261.82 9.63036 261.82 8.61799C261.82 7.12757 261.616 6.066 261.208 5.43327C260.815 4.80054 260.28 4.48418 259.605 4.48418C259.169 4.48418 258.79 4.61775 258.466 4.8849C258.143 5.13799 257.883 5.57387 257.686 6.19254C257.503 6.79715 257.412 7.60563 257.412 8.61799C257.412 10.1084 257.609 11.17 258.002 11.8027C258.41 12.4355 258.945 12.7518 259.605 12.7518Z" fill="black"/>
<path d="M249.025 16.2317C248.224 16.2317 247.563 15.9997 247.042 15.5357C246.536 15.0717 246.283 14.4812 246.283 13.7641C246.283 13.047 246.536 12.4565 247.042 11.9925C247.563 11.5285 248.224 11.2965 249.025 11.2965C249.826 11.2965 250.487 11.5285 251.008 11.9925C251.528 12.4565 251.788 13.047 251.788 13.7641C251.788 14.4671 251.528 15.0577 251.008 15.5357C250.487 15.9997 249.826 16.2317 249.025 16.2317ZM249.025 10.2419C248.224 10.2419 247.563 10.0099 247.042 9.54591C246.536 9.08191 246.283 8.49137 246.283 7.77428C246.283 7.05719 246.536 6.46664 247.042 6.00264C247.563 5.53864 248.224 5.30664 249.025 5.30664C249.826 5.30664 250.487 5.53864 251.008 6.00264C251.528 6.46664 251.788 7.05719 251.788 7.77428C251.788 8.47731 251.528 9.06785 251.008 9.54591C250.487 10.0099 249.826 10.2419 249.025 10.2419Z" fill="black"/>
<path d="M238.895 16.4005C237.7 16.4005 236.659 16.2178 235.773 15.8522C234.888 15.4866 234.163 14.9453 233.601 14.2282C233.193 13.7079 232.996 13.1455 233.01 12.5409C233.025 11.9363 233.228 11.4301 233.622 11.0224C234.016 10.6005 234.543 10.3896 235.204 10.3896C235.724 10.3896 236.16 10.5232 236.512 10.7904C236.863 11.0575 237.123 11.395 237.292 11.8027C237.433 12.1402 237.643 12.3933 237.925 12.562C238.22 12.7307 238.578 12.8151 239 12.8151C239.338 12.8151 239.633 12.7659 239.886 12.6674C240.139 12.555 240.329 12.4003 240.456 12.2034C240.596 12.0066 240.666 11.7605 240.666 11.4653C240.666 11.17 240.589 10.931 240.434 10.7482C240.294 10.5654 240.09 10.4318 239.823 10.3474C239.556 10.2631 239.232 10.2209 238.853 10.2209C238.332 10.2209 237.911 10.0803 237.587 9.79909C237.264 9.50381 237.102 9.09606 237.102 8.57581C237.102 8.05557 237.257 7.64781 237.566 7.35254C237.889 7.04321 238.29 6.88854 238.768 6.88854C239.106 6.88854 239.401 6.84636 239.654 6.762C239.907 6.67763 240.111 6.55109 240.266 6.38236C240.42 6.19957 240.498 5.96054 240.498 5.66527C240.498 5.27157 240.371 4.96927 240.118 4.75836C239.865 4.53339 239.513 4.4209 239.064 4.4209C238.74 4.4209 238.459 4.47715 238.22 4.58963C237.981 4.70212 237.777 4.87787 237.608 5.1169L237.44 5.3489C237.186 5.70042 236.905 5.9746 236.596 6.17145C236.287 6.3683 235.928 6.46672 235.52 6.46672C234.902 6.46672 234.409 6.26987 234.044 5.87618C233.678 5.48248 233.496 5.00442 233.496 4.44199C233.496 3.86551 233.685 3.33121 234.065 2.83909C234.557 2.20636 235.239 1.71424 236.111 1.36272C236.997 1.01121 237.995 0.835449 239.106 0.835449C240.217 0.835449 241.208 1.01121 242.08 1.36272C242.951 1.70018 243.633 2.20636 244.125 2.88127C244.632 3.54212 244.885 4.32248 244.885 5.22236C244.885 6.03787 244.674 6.72684 244.252 7.28927C243.83 7.85169 243.296 8.25242 242.649 8.49145C243.38 8.73048 243.964 9.13121 244.4 9.69363C244.835 10.2561 245.053 10.945 245.053 11.7605C245.053 12.6745 244.793 13.483 244.273 14.186C243.767 14.889 243.043 15.4374 242.101 15.8311C241.173 16.2107 240.104 16.4005 238.895 16.4005Z" fill="black"/>
<path d="M222.714 15.9998C222.165 15.9998 221.687 15.9014 221.28 15.7045C220.872 15.4936 220.562 15.2054 220.352 14.8398C220.141 14.4742 220.035 14.0454 220.035 13.5533C220.035 12.9768 220.211 12.4214 220.562 11.8871C220.914 11.3387 221.35 10.8396 221.87 10.3896C222.39 9.93969 223.002 9.47569 223.705 8.99763L225.519 7.77436C225.575 7.74624 225.61 7.71812 225.624 7.68999C226.229 7.2963 226.644 6.96587 226.869 6.69872C227.108 6.41751 227.227 6.08006 227.227 5.68636C227.227 5.44733 227.178 5.23642 227.08 5.05363C226.981 4.85678 226.833 4.70212 226.637 4.58963C226.44 4.47715 226.208 4.4209 225.941 4.4209C225.673 4.4209 225.441 4.47012 225.245 4.56854C225.062 4.6529 224.907 4.77945 224.781 4.94818C224.654 5.1169 224.556 5.32781 224.485 5.5809C224.359 6.01678 224.106 6.36127 223.726 6.61436C223.36 6.86745 222.918 6.99399 222.397 6.99399C221.793 6.99399 221.301 6.79715 220.921 6.40345C220.541 6.00975 220.337 5.51763 220.309 4.92709C220.295 4.33654 220.464 3.77412 220.816 3.23981C221.167 2.71957 221.603 2.28369 222.123 1.93218C222.643 1.5666 223.234 1.29242 223.895 1.10963C224.556 0.926844 225.273 0.835449 226.046 0.835449C227.255 0.835449 228.289 1.04636 229.146 1.46818C230.004 1.87593 230.644 2.4243 231.066 3.11327C231.502 3.80224 231.72 4.56151 231.72 5.39109C231.72 6.23472 231.551 6.97993 231.213 7.62672C230.89 8.25945 230.482 8.80078 229.99 9.25072C229.512 9.70066 228.957 10.1225 228.324 10.5162L226.995 11.3598C226.545 11.641 226.229 11.8519 226.046 11.9925C225.877 12.1191 225.758 12.2456 225.688 12.3722H229.969C230.644 12.3722 231.164 12.5268 231.53 12.8362C231.895 13.1455 232.078 13.5884 232.078 14.1649C232.078 14.7554 231.895 15.2124 231.53 15.5358C231.164 15.8451 230.644 15.9998 229.969 15.9998H222.714Z" fill="black"/>
<path d="M199.037 16.4005C198.362 16.4005 197.842 16.1896 197.476 15.7678C197.111 15.3319 196.928 14.7203 196.928 13.9329V4.50527C196.928 3.4226 197.265 2.54381 197.94 1.8689C198.615 1.17993 199.494 0.835449 200.576 0.835449C201.533 0.835449 202.327 1.1026 202.96 1.6369C203.592 2.15715 204.021 2.92345 204.246 3.93581L205.533 9.48272C205.589 9.69363 205.631 9.89751 205.659 10.0944C205.702 10.2771 205.737 10.4599 205.765 10.6427C205.849 11.1067 205.898 11.4231 205.912 11.5918C205.927 11.4231 205.948 11.2473 205.976 11.0645C206.004 10.8818 206.039 10.699 206.081 10.5162C206.109 10.3615 206.137 10.1998 206.166 10.0311C206.194 9.8483 206.229 9.66551 206.271 9.48272L207.452 3.93581C207.663 2.92345 208.078 2.15715 208.696 1.6369C209.329 1.1026 210.124 0.835449 211.08 0.835449C211.783 0.835449 212.408 0.990116 212.957 1.29945C213.519 1.60878 213.955 2.04466 214.264 2.60709C214.574 3.15545 214.728 3.78818 214.728 4.50527V13.9329C214.728 14.7203 214.539 15.3319 214.159 15.7678C213.793 16.1896 213.266 16.4005 212.577 16.4005C211.902 16.4005 211.382 16.1896 211.016 15.7678C210.651 15.3319 210.468 14.7203 210.468 13.9329L210.51 7.60563C210.51 6.9729 210.545 6.23472 210.616 5.39109L208.823 13.9751C208.668 14.7203 208.331 15.3108 207.811 15.7467C207.29 16.1826 206.658 16.4005 205.912 16.4005C205.181 16.4005 204.556 16.1826 204.035 15.7467C203.515 15.3108 203.171 14.7203 203.002 13.9751L201.04 5.45436C201.069 5.72151 201.09 5.98866 201.104 6.25581C201.118 6.48078 201.125 6.71278 201.125 6.95181C201.139 7.17678 201.146 7.40175 201.146 7.62672L201.188 14.1438C201.188 14.8468 200.998 15.4022 200.619 15.81C200.253 16.2037 199.726 16.4005 199.037 16.4005Z" fill="black"/>
<path d="M185.257 16.4007C184.526 16.4007 183.963 16.1757 183.569 15.7258C183.19 15.2618 183 14.608 183 13.7643V3.87269C183 3.02905 183.19 2.38227 183.569 1.93233C183.963 1.46833 184.526 1.23633 185.257 1.23633H189.897C191.022 1.23633 192.02 1.39802 192.892 1.72142C193.777 2.04481 194.48 2.57209 195.001 3.30324C195.521 4.02033 195.781 4.95536 195.781 6.10833C195.781 7.2613 195.521 8.19633 195.001 8.91342C194.48 9.63051 193.777 10.1508 192.892 10.4741C192.02 10.7975 191.022 10.9592 189.897 10.9592H187.556V13.7643C187.556 14.608 187.352 15.2618 186.944 15.7258C186.55 16.1757 185.988 16.4007 185.257 16.4007ZM189.644 7.28942C190.164 7.28942 190.544 7.19099 190.783 6.99415C191.036 6.78324 191.162 6.48797 191.162 6.10833C191.162 5.72869 191.043 5.43342 190.804 5.22251C190.579 5.0116 190.192 4.90615 189.644 4.90615H187.556V7.28942H189.644Z" fill="black"/>
<path d="M126.685 317.864C162.515 317.864 191.561 310.43 191.561 301.26C191.561 292.09 162.515 284.656 126.685 284.656C90.8547 284.656 61.8086 292.09 61.8086 301.26C61.8086 310.43 90.8547 317.864 126.685 317.864Z" fill="white"/>
<path fill-rule="evenodd" clip-rule="evenodd" d="M105.699 269.991C110.881 276.311 122.812 280.69 129.32 276.111C138.358 269.737 139.416 257.833 136.216 248.018L130.418 249.116C130.418 249.116 132.386 268.92 122.022 268.746C115.635 268.639 110.519 264.983 105.739 261.917C103.342 260.377 100.115 260.511 97.5978 261.823C86.4169 267.675 82.1855 296.089 98.3075 298.312C110.667 300.026 112.488 283.301 110.078 274.838" fill="white"/>
<path d="M105.699 269.991C110.881 276.311 122.812 280.69 129.32 276.111C138.358 269.737 139.416 257.833 136.216 248.018L130.418 249.116C130.418 249.116 132.386 268.92 122.022 268.746C115.635 268.639 110.519 264.983 105.739 261.917C103.342 260.377 100.115 260.511 97.5978 261.823C86.4169 267.675 82.1855 296.089 98.3075 298.312C110.667 300.026 112.488 283.301 110.078 274.838" stroke="#242427" stroke-width="2" stroke-miterlimit="10" stroke-linecap="round"/>
<path d="M148.632 299.892C153.466 305.502 165.236 303.28 174.93 294.924C184.625 286.568 188.575 275.254 183.741 269.656C178.907 264.059 167.137 266.269 157.443 274.624C154.872 276.834 152.716 279.257 151.015 281.721C150.614 282.176 150.198 282.632 149.797 283.114L114.46 254.057C112.21 256.333 112.223 260.002 114.46 262.265L148.618 299.892H148.632Z" fill="white" stroke="#242427" stroke-width="2" stroke-linecap="round" stroke-linejoin="round"/>
<path d="M154.855 292.233C156.744 283.569 167.509 271.384 177.324 273.125" stroke="#242427" stroke-width="2" stroke-linecap="round" stroke-linejoin="round"/>
<path fill-rule="evenodd" clip-rule="evenodd" d="M148.016 287.733C148.016 287.733 148.511 285.229 151.015 281.721L148.016 287.733Z" fill="white"/>
<path d="M148.016 287.733C148.016 287.733 148.511 285.229 151.015 281.721" stroke="#242427" stroke-width="2" stroke-linecap="round" stroke-linejoin="round"/>
<path fill-rule="evenodd" clip-rule="evenodd" d="M194.96 205.598C196.339 194.792 185.091 184.214 169.036 180.264C177.365 170.422 179.588 158.973 173.482 151.689C167.59 144.659 155.659 143.521 143.648 147.913C139.939 139.343 133.003 133.17 124.406 132.058C114.202 130.746 104.494 136.892 98.8839 146.962C89.8856 143.748 80.4856 144.244 73.5896 149.145C65.1804 155.13 62.73 166.057 66.1445 177.01C57.5747 180.933 51.5088 187.883 50.4242 196.413C48.8977 208.504 57.7756 220.047 71.4203 225.336C67.189 232.714 66.5596 239.971 70.5767 244.779C75.5713 250.751 86.3506 251.3 97.6922 247.028C101.602 257.339 110.373 265.078 121.366 266.511C134.596 268.225 146.982 260.311 152.486 247.858C160.372 251.755 168.045 252.411 173.053 248.849C179.614 244.163 179.775 233.584 174.352 222.524C185.627 220.18 193.848 213.9 194.906 205.585H194.946L194.96 205.598Z" fill="#242427" stroke="#F5F378" stroke-width="2" stroke-miterlimit="10" stroke-linecap="round"/>
<path d="M116.749 190.496C121.742 189.896 125.073 183.446 124.189 176.089C123.305 168.732 118.541 163.254 113.548 163.853C108.555 164.453 105.224 170.904 106.108 178.261C106.992 185.618 111.756 191.096 116.749 190.496Z" fill="white"/>
<path d="M134.827 188.33C139.82 187.73 143.151 181.28 142.267 173.923C141.383 166.566 136.619 161.088 131.626 161.687C126.633 162.287 123.302 168.738 124.186 176.095C125.07 183.452 129.834 188.93 134.827 188.33Z" fill="white"/>
<path d="M117.966 185.365C121.38 184.955 123.687 180.79 123.119 176.061C122.551 171.332 119.323 167.832 115.909 168.242C112.494 168.652 110.187 172.818 110.755 177.546C111.323 182.275 114.551 185.776 117.966 185.365Z" fill="#242427"/>
<path d="M134.975 183.483C138.125 183.105 140.218 178.965 139.65 174.236C139.082 169.508 136.068 165.981 132.918 166.36C129.768 166.738 127.675 170.878 128.243 175.607C128.811 180.335 131.825 183.862 134.975 183.483Z" fill="#242427"/>
<path d="M120.113 173.28C119.633 171.279 118.07 169.94 116.623 170.287C115.175 170.635 114.391 172.538 114.872 174.539C115.353 176.539 116.915 177.879 118.363 177.532C119.81 177.184 120.594 175.28 120.113 173.28Z" fill="white"/>
<path d="M117.504 180.065C117.278 179.124 116.546 178.493 115.869 178.656C115.191 178.819 114.826 179.713 115.052 180.654C115.278 181.595 116.01 182.226 116.687 182.063C117.364 181.9 117.73 181.006 117.504 180.065Z" fill="white"/>
<path d="M136.899 171.623C136.418 169.622 134.855 168.282 133.408 168.63C131.96 168.978 131.177 170.881 131.657 172.882C132.138 174.882 133.701 176.222 135.148 175.874C136.595 175.527 137.379 173.623 136.899 171.623Z" fill="white"/>
<path d="M134.289 178.407C134.063 177.466 133.331 176.835 132.654 176.998C131.977 177.16 131.611 178.055 131.837 178.996C132.063 179.937 132.795 180.567 133.472 180.405C134.149 180.242 134.515 179.347 134.289 178.407Z" fill="white"/>
<path d="M127.549 207.431C135.543 206.467 141.461 200.937 140.752 195.059C140.042 189.18 132.998 185.203 124.991 186.167C116.997 187.132 111.078 192.662 111.788 198.54C112.498 204.419 119.541 208.395 127.549 207.431Z" fill="white" stroke="#242427" stroke-width="2" stroke-miterlimit="10"/>
<path d="M111.82 198.77C116.266 200.98 119.895 194.499 125.786 193.789C131.678 193.079 135.012 198.73 141.587 195.182" stroke="#242427" stroke-width="2"/>
<path d="M126.078 200.797C123.554 200.908 121.783 199.254 120.524 197.064L120.172 196.453L131.862 195.047L129.591 198.73C128.895 199.859 127.403 200.738 126.078 200.797Z" fill="#242427" stroke="#242427" stroke-width="2" stroke-linecap="round" stroke-linejoin="round"/>
<path d="M230.555 220.331C230.555 220.331 180.984 213.395 175.454 214.238C162.8 216.153 155.007 213.314 153.159 205.414C151.472 198.223 156.078 190.229 165.572 186.212C170.714 184.03 209.747 148.84 209.747 148.84" fill="white"/>
<path d="M230.555 220.331C230.555 220.331 180.984 213.395 175.454 214.238C162.8 216.153 155.007 213.314 153.159 205.414C151.472 198.223 156.078 190.229 165.572 186.212C170.714 184.03 209.747 148.84 209.747 148.84" stroke="#242427" stroke-width="2" stroke-miterlimit="10" stroke-linecap="round"/>
<path d="M236.369 184.551C240.574 202.628 239.101 217.96 232.673 219.728C225.764 221.629 215.721 207.1 210.271 187.269C204.808 167.438 206 149.83 212.909 147.915C217.85 146.549 224.371 153.579 229.701 164.934" fill="#D9D9D9"/>
<path d="M236.369 184.551C240.574 202.628 239.101 217.96 232.673 219.728C225.764 221.629 215.721 207.1 210.271 187.269C204.808 167.438 206 149.83 212.909 147.915C217.85 146.549 224.371 153.579 229.701 164.934" stroke="#242427" stroke-width="2" stroke-linecap="round" stroke-linejoin="round"/>
<path d="M232.452 186.212C235.545 200.018 235.452 211.092 231.943 212.056C227.953 213.154 221.057 200.754 216.545 184.365C212.032 167.975 211.617 153.794 215.607 152.696C218.58 151.88 223.173 158.548 227.176 168.778" stroke="#242427" stroke-width="2" stroke-linecap="round" stroke-linejoin="round"/>
<path d="M230.953 182.06C230.672 175.82 225.383 170.986 219.143 171.268C217.242 171.348 215.501 171.95 213.961 172.848C214.577 176.45 215.434 180.346 216.545 184.377C217.469 187.738 218.5 190.911 219.572 193.844C219.772 193.844 219.96 193.884 220.161 193.87C226.401 193.589 231.235 188.3 230.953 182.06Z" fill="#242427"/>
<path d="M171.021 182.381C171.021 182.381 167.888 201.931 179.886 214.29" stroke="#242427" stroke-width="2" stroke-miterlimit="10" stroke-linecap="round"/>
<path d="M171.422 214.705C171.422 214.705 173.605 230.747 173.605 231.925C173.605 233.103 173.43 235.969 183.205 234.791C192.967 233.612 192.445 230.747 191.695 228.725C190.945 226.703 184.719 224.092 186.566 214.705" fill="white"/>
<path d="M171.422 214.705C171.422 214.705 173.605 230.747 173.605 231.925C173.605 233.103 173.43 235.969 183.205 234.791C192.967 233.612 192.445 230.747 191.695 228.725C190.945 226.703 184.719 224.092 186.566 214.705" stroke="#242427" stroke-width="2" stroke-miterlimit="10" stroke-linecap="round"/>
<path d="M233.5 150L258.5 118.5" stroke="#242427" stroke-width="2" stroke-linecap="round" stroke-linejoin="round"/>
<path d="M246.002 203.509L286.083 206.782" stroke="#242427" stroke-width="2" stroke-linecap="round" stroke-linejoin="round"/>
</svg>
