<svg width="21" height="20" viewBox="0 0 21 20" fill="none" xmlns="http://www.w3.org/2000/svg">
<path d="M4.60982 17.9093L14.7164 14.2998L6.34237 5.99805L2.73289 16.1046C2.64758 16.3631 2.63709 16.6404 2.70262 16.9046C2.76815 17.1688 2.90703 17.4091 3.10324 17.5978C3.29946 17.7865 3.54501 17.9158 3.81158 17.9709C4.07815 18.0261 4.35487 18.0047 4.60982 17.9093Z" fill="#F5F378"/>
<path d="M15.0721 14.0823C15.9456 13.2088 14.7545 10.6027 12.4155 8.2638C10.0766 5.92486 7.47056 4.69763 6.59707 5.6C5.72357 6.50237 6.9147 9.07954 9.25364 11.4185C11.5926 13.7574 14.2131 14.9486 15.0721 14.0823Z" fill="#F5F378"/>
<path d="M15.0721 14.0823C15.9456 13.2088 14.7545 10.6027 12.4155 8.2638C10.0766 5.92486 7.47056 4.69763 6.59707 5.6C5.72357 6.50237 6.9147 9.07954 9.25364 11.4185C11.5926 13.7574 14.2131 14.9486 15.0721 14.0823Z" fill="black" fill-opacity="0.35"/>
<path d="M9.30266 7.22525C9.60496 6.20859 9.57971 5.12259 9.23047 4.12109" stroke="#FFC98D" stroke-width="1.15052" stroke-miterlimit="10" stroke-linecap="round"/>
<path d="M14.6445 8.81316C15.684 8.02575 16.95 7.59529 18.254 7.58594" stroke="#FF99B1" stroke-width="1.15052" stroke-miterlimit="10" stroke-linecap="round"/>
<path d="M11.6836 11.5548C12.9167 11.0434 14.2758 10.9175 15.5818 11.1939C16.0024 11.2709 16.4138 11.3918 16.8091 11.5548" stroke="#DCC1FF" stroke-width="1.15052" stroke-miterlimit="10" stroke-linecap="round"/>
<path d="M11.1797 8.88403C12.5611 7.7994 13.4671 6.22045 13.7063 4.48047" stroke="#7FEC93" stroke-width="1.15052" stroke-miterlimit="10" stroke-linecap="round"/>
<path d="M12.8399 3.32643L12.118 3.68737C12.0405 3.71988 11.9539 3.72316 11.8743 3.69661C11.7946 3.67005 11.7273 3.61546 11.6848 3.543L11.3239 2.8211C11.2914 2.74367 11.2881 2.65706 11.3147 2.57739C11.3412 2.49772 11.3958 2.4304 11.4683 2.38796L12.1902 2.02701C12.2676 1.99451 12.3542 1.99122 12.4339 2.01778C12.5135 2.04434 12.5809 2.09893 12.6233 2.17139L12.9842 2.89329C13.022 2.96996 13.028 3.05842 13.001 3.1395C12.974 3.22058 12.9161 3.28774 12.8399 3.32643Z" fill="#8CD5FE"/>
<path d="M18.1094 14.5157L18.326 13.7216C18.3392 13.6837 18.3438 13.6433 18.3397 13.6034C18.3356 13.5635 18.3227 13.5249 18.3021 13.4905C18.2814 13.4561 18.2535 13.4266 18.2202 13.4042C18.1869 13.3817 18.1491 13.3669 18.1094 13.3606L17.3153 13.1441C17.2774 13.1309 17.2371 13.1262 17.1971 13.1304C17.1572 13.1345 17.1187 13.1473 17.0843 13.168C17.0498 13.1887 17.0204 13.2166 16.9979 13.2499C16.9755 13.2832 16.9606 13.321 16.9544 13.3606L16.7378 14.0825C16.7247 14.1205 16.72 14.1608 16.7241 14.2007C16.7282 14.2407 16.7411 14.2792 16.7617 14.3136C16.7824 14.348 16.8104 14.3775 16.8436 14.4C16.8769 14.4224 16.9147 14.4373 16.9544 14.4435L17.7485 14.6601C17.8929 14.8044 18.0372 14.7322 18.1094 14.5157Z" fill="#FFC98D"/>
<path d="M16.4466 6.35801C16.5751 6.35801 16.7007 6.3199 16.8075 6.24851C16.9144 6.17712 16.9977 6.07565 17.0468 5.95693C17.096 5.83821 17.1089 5.70758 17.0838 5.58155C17.0587 5.45552 16.9969 5.33975 16.906 5.24889C16.8151 5.15803 16.6994 5.09615 16.5733 5.07108C16.4473 5.04601 16.3167 5.05888 16.1979 5.10805C16.0792 5.15722 15.9778 5.2405 15.9064 5.34734C15.835 5.45419 15.7969 5.5798 15.7969 5.7083C15.7969 5.88061 15.8653 6.04587 15.9872 6.16771C16.109 6.28956 16.2743 6.35801 16.4466 6.35801Z" fill="#7FEC93"/>
<path d="M3.4583 9.17441C3.5868 9.17441 3.71241 9.13631 3.81926 9.06492C3.9261 8.99353 4.00938 8.89206 4.05855 8.77334C4.10772 8.65462 4.12059 8.52399 4.09552 8.39795C4.07045 8.27192 4.00857 8.15616 3.91771 8.06529C3.82685 7.97443 3.71108 7.91255 3.58505 7.88748C3.45902 7.86242 3.32839 7.87528 3.20967 7.92446C3.09095 7.97363 2.98948 8.05691 2.91809 8.16375C2.8467 8.27059 2.80859 8.39621 2.80859 8.52471C2.80859 8.69702 2.87704 8.86227 2.99889 8.98412C3.12073 9.10596 3.28599 9.17441 3.4583 9.17441Z" fill="#FFC98D"/>
<path d="M12.548 17.6917C12.705 17.6917 12.8586 17.6451 12.9892 17.5579C13.1197 17.4706 13.2215 17.3466 13.2816 17.2015C13.3417 17.0564 13.3575 16.8967 13.3268 16.7427C13.2962 16.5886 13.2205 16.4472 13.1095 16.3361C12.9984 16.225 12.8569 16.1494 12.7029 16.1188C12.5489 16.0881 12.3892 16.1039 12.2441 16.164C12.099 16.2241 11.975 16.3258 11.8877 16.4564C11.8005 16.587 11.7539 16.7405 11.7539 16.8976C11.7539 17.0019 11.7744 17.1051 11.8144 17.2015C11.8543 17.2978 11.9128 17.3854 11.9865 17.4591C12.0602 17.5328 12.1478 17.5913 12.2441 17.6312C12.3405 17.6711 12.4437 17.6917 12.548 17.6917Z" fill="#FF99B1"/>
</svg>
