<svg width="335" height="220" viewBox="0 0 335 220" fill="none" xmlns="http://www.w3.org/2000/svg">
<path d="M229.5 209C260.704 209 286 202.508 286 194.5C286 186.492 260.704 180 229.5 180C198.296 180 173 186.492 173 194.5C173 202.508 198.296 209 229.5 209Z" fill="white"/>
<path fill-rule="evenodd" clip-rule="evenodd" d="M247.193 167.164C242.657 172.68 232.183 176.498 226.479 172.495C218.557 166.93 217.644 156.552 220.432 148L225.517 148.976C225.517 148.976 223.789 166.247 232.87 166.1C238.475 166.012 242.952 162.82 247.153 160.145C248.235 159.52 249.461 159.185 250.711 159.171C251.962 159.158 253.195 159.466 254.29 160.067C264.107 165.163 267.808 189.941 253.672 191.893C242.873 193.387 241.244 178.802 243.344 171.392" fill="white"/>
<path d="M247.193 167.164C242.657 172.68 232.183 176.498 226.479 172.495C218.557 166.93 217.644 156.552 220.432 148L225.517 148.976C225.517 148.976 223.789 166.247 232.87 166.1C238.475 166.012 242.952 162.82 247.153 160.145C248.235 159.52 249.461 159.185 250.711 159.171C251.962 159.158 253.195 159.466 254.29 160.067C264.107 165.163 267.808 189.941 253.672 191.893C242.873 193.387 241.244 178.802 243.344 171.392" stroke="#242427" stroke-width="2" stroke-miterlimit="10" stroke-linecap="round"/>
<path d="M210.067 193.293C205.905 198.207 195.746 196.242 187.384 188.93C179.021 181.618 175.613 171.663 179.775 166.739C183.937 161.815 194.105 163.791 202.467 171.102C204.565 172.934 206.427 175.027 208.01 177.333C208.358 177.736 208.715 178.139 209.063 178.552L239.548 153C240.478 153.962 241 155.257 241 156.607C241 157.956 240.478 159.252 239.548 160.213L210.067 193.293Z" fill="white" stroke="#242427" stroke-width="2" stroke-linecap="round" stroke-linejoin="round"/>
<path d="M205 187C203.326 179.363 193.739 168.617 185 170.147" stroke="#242427" stroke-width="2" stroke-linecap="round" stroke-linejoin="round"/>
<path fill-rule="evenodd" clip-rule="evenodd" d="M211 183C210.394 181.19 209.375 179.492 208 178L211 183Z" fill="white"/>
<path d="M211 183C210.394 181.19 209.375 179.492 208 178" stroke="#242427" stroke-width="2" stroke-linecap="round" stroke-linejoin="round"/>
<path fill-rule="evenodd" clip-rule="evenodd" d="M236.312 160C227.384 160.012 218.597 157.776 210.764 153.501C202.932 149.226 196.307 143.048 191.503 135.541C180.69 130.566 174.114 117.496 176.481 104.445C177.567 97.7541 181.261 91.7631 186.758 87.7797C190.601 77.9337 197.305 69.4577 206.01 63.4396C214.715 57.4214 225.025 54.1357 235.616 54.0041C246.206 53.8725 256.595 56.9011 265.448 62.7011C274.301 68.501 281.214 76.8078 285.301 86.5553C291.39 89.9564 296.017 96.2727 297.517 104.445C300.03 118.225 292.5 132.082 280.518 136.309C275.681 143.59 269.113 149.563 261.4 153.697C253.687 157.831 245.068 159.996 236.312 160Z" fill="#242427" stroke="#242427" stroke-width="2" stroke-miterlimit="10"/>
<path d="M232 103C236.418 103 240 97.6274 240 91C240 84.3726 236.418 79 232 79C227.582 79 224 84.3726 224 91C224 97.6274 227.582 103 232 103Z" fill="white"/>
<path d="M216 103C220.418 103 224 97.6274 224 91C224 84.3726 220.418 79 216 79C211.582 79 208 84.3726 208 91C208 97.6274 211.582 103 216 103Z" fill="white"/>
<path d="M229.5 98C232.538 98 235 94.6421 235 90.5C235 86.3579 232.538 83 229.5 83C226.462 83 224 86.3579 224 90.5C224 94.6421 226.462 98 229.5 98Z" fill="#242427"/>
<path d="M215 98C217.761 98 220 94.6421 220 90.5C220 86.3579 217.761 83 215 83C212.239 83 210 86.3579 210 90.5C210 94.6421 212.239 98 215 98Z" fill="#242427"/>
<path d="M224.5 118C217.587 118 212 113.966 212 109C212 104.034 217.606 100 224.5 100C231.394 100 237 104.034 237 109C237 113.966 231.423 118 224.5 118Z" fill="white" stroke="#242427" stroke-width="2" stroke-miterlimit="10"/>
<path d="M237 109.284C233.398 112.028 229.602 106 224.466 106C219.33 106 217.039 112.028 211 109.284" stroke="#242427" stroke-width="2"/>
<path d="M225.797 109.577L229 108H219L222.194 109.577C223.358 110.141 224.632 110.141 225.797 109.577Z" fill="#242427" stroke="#242427" stroke-width="2" stroke-linecap="round" stroke-linejoin="round"/>
<path fill-rule="evenodd" clip-rule="evenodd" d="M223 87H209C210.089 82.315 212.811 79 216.005 79C219.198 79 221.911 82.315 223 87Z" fill="white"/>
<path fill-rule="evenodd" clip-rule="evenodd" d="M239 87H224C225.157 82.315 228.084 79 231.495 79C234.906 79 237.833 82.315 239 87Z" fill="white"/>
<path d="M104.944 147.69C104.944 147.69 117.187 137.944 118.383 141.978C119.579 146.012 118.451 152.774 118.451 152.774C118.451 152.774 127.185 149.319 126.832 152.96C126.48 156.601 121.196 164.816 121.196 164.816C121.196 164.816 134.263 161.342 133.988 165.189C133.714 169.036 128.352 177.054 128.352 177.054C130.111 178.072 131.95 178.945 133.851 179.665C135.537 180.126 137.095 181.216 134.968 183.492C132.841 185.769 116.628 202.454 91.4458 196.86C66.2636 191.265 71.4392 162.853 71.4392 162.853C71.4392 162.853 71.204 157.946 75.0955 160.615C78.987 163.285 77.9676 160.772 79.8496 153.53C81.7317 146.287 84.2215 149.388 86.133 150.467C87.7983 151.56 89.3485 152.82 90.7597 154.226C90.7597 154.226 98.0428 141.075 100.886 143.823C103.728 146.571 104.944 147.69 104.944 147.69Z" fill="#EFEFEF" stroke="#242427" stroke-width="2" stroke-miterlimit="10" stroke-linecap="round"/>
<path d="M110 154C110 154 90.9904 196.366 91 199" stroke="#242427" stroke-width="2" stroke-linecap="round" stroke-linejoin="round"/>
<path d="M99 153L105.152 165L118 157.915" stroke="#242427" stroke-width="2" stroke-linecap="round" stroke-linejoin="round"/>
<path d="M85 157L99.9631 176L123 171.719" stroke="#242427" stroke-width="2" stroke-linecap="round" stroke-linejoin="round"/>
<path d="M76 167C76 167 81.371 182.477 94.6674 190C94.6674 190 122.144 186.08 126 183.905" stroke="#242427" stroke-width="2" stroke-linecap="round" stroke-linejoin="round"/>
<path d="M45.9175 141C47.1639 152.513 34.0151 160.33 24.6244 154.593C24.2474 154.416 23.9099 154.162 23.6332 153.844C23.3564 153.527 23.1465 153.154 23.0165 152.749C22.968 152.356 23.0269 151.957 23.1866 151.596C23.3463 151.236 23.6004 150.929 23.9204 150.709C24.5678 150.273 25.3259 150.045 26.0991 150.052C31.2464 149.875 34.8809 155.181 34.4623 160.114C34.0436 165.047 30.5423 169.548 26.6034 172" stroke="#242427" stroke-width="2" stroke-miterlimit="10" stroke-linecap="round"/>
<path d="M290.579 173.133C290.579 173.133 284.715 161.466 295.587 151.472C298.644 148.567 302.311 146.417 306.307 145.187C310.303 143.956 314.522 143.678 318.64 144.374C318.64 144.374 320.257 156.907 316.637 164.321C313.016 171.735 305.688 180.694 290.579 173.133Z" fill="#D9D9D9" stroke="#242427" stroke-width="2" stroke-miterlimit="10" stroke-linecap="round"/>
<path d="M313 149C313 149 289.526 174.402 287 176" stroke="#242427" stroke-width="2" stroke-miterlimit="10" stroke-linecap="round"/>
<path d="M305 151V157L312 156.35" stroke="#242427" stroke-width="2" stroke-miterlimit="10" stroke-linecap="round"/>
<path d="M296 158C296 158 296.523 165.527 297.267 165.642C298.012 165.757 304.137 166.387 308 165.642" stroke="#242427" stroke-width="2" stroke-miterlimit="10" stroke-linecap="round"/>
<path d="M150 112.128C144.211 111.038 136.772 117.105 138.183 123.396C139.003 127.069 144.967 126.262 142.958 122.538C142.574 121.945 142.052 121.441 141.429 121.063C140.806 120.686 140.1 120.444 139.363 120.358C135.565 119.688 130.089 119.603 126.642 120.967C121.673 122.941 119.636 125.644 117 129" stroke="#242427" stroke-width="2" stroke-linecap="round" stroke-linejoin="round"/>
<circle cx="71" cy="134" r="4" fill="white" stroke="#242427" stroke-width="2"/>
<circle cx="155" cy="175" r="4" fill="white" stroke="#242427" stroke-width="2"/>
<circle cx="46" cy="187" r="4" fill="white" stroke="#242427" stroke-width="2"/>
</svg>
