<svg width="42" height="42" viewBox="0 0 42 42" fill="none" xmlns="http://www.w3.org/2000/svg">
<path d="M39.031 9.77586H38.7414V9.48621C38.7414 7.84875 37.4099 6.51724 35.7724 6.51724H35.4828V6.22759C35.4828 4.59013 34.1512 3.25862 32.5138 3.25862H32.2241V2.96897C32.2241 1.33151 30.8926 0 29.2552 0H12.7448C11.1074 0 9.77586 1.33151 9.77586 2.96897V3.25862H9.48621C7.84875 3.25862 6.51724 4.59013 6.51724 6.22759V6.51724H6.22759C4.59013 6.51724 3.25862 7.84875 3.25862 9.48621V9.77586H2.96897C1.33151 9.77586 0 11.1074 0 12.7448V29.2552C0 30.8926 1.33151 32.2241 2.96897 32.2241H3.25862V32.5138C3.25862 34.1512 4.59013 35.4828 6.22759 35.4828H6.51724V35.7724C6.51724 37.4099 7.84875 38.7414 9.48621 38.7414H9.77586V39.031C9.77586 40.6685 11.1074 42 12.7448 42H29.2552C30.8926 42 32.2241 40.6685 32.2241 39.031V38.7414H32.5138C34.1512 38.7414 35.4828 37.4099 35.4828 35.7724V35.4828H35.7724C37.4099 35.4828 38.7414 34.1512 38.7414 32.5138V32.2241H39.031C40.6685 32.2241 42 30.8926 42 29.2552V12.7448C42 11.1074 40.6685 9.77586 39.031 9.77586Z" fill="#515155"/>
<path d="M39.0339 11.227H37.9948C37.6092 11.227 37.296 10.9138 37.296 10.5282V9.4891C37.296 8.6491 36.6153 7.96841 35.7753 7.96841H34.7362C34.3506 7.96841 34.0374 7.65522 34.0374 7.26962V6.23048C34.0374 5.39048 33.3567 4.70979 32.5167 4.70979H31.4776C31.0919 4.70979 30.7788 4.3966 30.7788 4.011V2.97186C30.7788 2.13186 30.0981 1.45117 29.2581 1.45117H12.7477C11.9077 1.45117 11.227 2.13186 11.227 2.97186V4.011C11.227 4.3966 10.9138 4.70979 10.5282 4.70979H9.4891C8.6491 4.70979 7.96841 5.39048 7.96841 6.23048V7.26962C7.96841 7.65522 7.65522 7.96841 7.26962 7.96841H6.23048C5.39048 7.96841 4.70979 8.6491 4.70979 9.4891V10.5282C4.70979 10.9138 4.3966 11.227 4.011 11.227H2.97186C2.13186 11.227 1.45117 11.9077 1.45117 12.7477V29.2581C1.45117 30.0981 2.13186 30.7788 2.97186 30.7788H4.011C4.3966 30.7788 4.70979 31.0919 4.70979 31.4776V32.5167C4.70979 33.3567 5.39048 34.0374 6.23048 34.0374H7.26962C7.65522 34.0374 7.96841 34.3506 7.96841 34.7362V35.7753C7.96841 36.6153 8.6491 37.296 9.4891 37.296H10.5282C10.9138 37.296 11.227 37.6092 11.227 37.9948V39.0339C11.227 39.8739 11.9077 40.5546 12.7477 40.5546H29.2581C30.0981 40.5546 30.7788 39.8739 30.7788 39.0339V37.9948C30.7788 37.6092 31.0919 37.296 31.4776 37.296H32.5167C33.3567 37.296 34.0374 36.6153 34.0374 35.7753V34.7362C34.0374 34.3506 34.3506 34.0374 34.7362 34.0374H35.7753C36.6153 34.0374 37.296 33.3567 37.296 32.5167V31.4776C37.296 31.0919 37.6092 30.7788 37.9948 30.7788H39.0339C39.8739 30.7788 40.5546 30.0981 40.5546 29.2581V12.7477C40.5546 11.9077 39.8739 11.227 39.0339 11.227ZM35.5581 30.7788C34.7181 30.7788 34.0374 31.4594 34.0374 32.2994V33.3386C34.0374 33.7242 33.7242 34.0374 33.3386 34.0374H32.2994C31.4594 34.0374 30.7788 34.7181 30.7788 35.5581V36.5972C30.7788 36.9828 30.4656 37.296 30.08 37.296H11.9258C11.5402 37.296 11.227 36.9828 11.227 36.5972V35.5581C11.227 34.7181 10.5463 34.0374 9.70634 34.0374H8.66721C8.2816 34.0374 7.96841 33.7242 7.96841 33.3386V32.2994C7.96841 31.4594 7.28772 30.7788 6.44772 30.7788H5.40859C5.02298 30.7788 4.70979 30.4656 4.70979 30.08V11.9258C4.70979 11.5402 5.02298 11.227 5.40859 11.227H6.44772C7.28772 11.227 7.96841 10.5463 7.96841 9.70634V8.66721C7.96841 8.2816 8.2816 7.96841 8.66721 7.96841H9.70634C10.5463 7.96841 11.227 7.28772 11.227 6.44772V5.40859C11.227 5.02298 11.5402 4.70979 11.9258 4.70979H30.08C30.4656 4.70979 30.7788 5.02298 30.7788 5.40859V6.44772C30.7788 7.28772 31.4594 7.96841 32.2994 7.96841H33.3386C33.7242 7.96841 34.0374 8.2816 34.0374 8.66721V9.70634C34.0374 10.5463 34.7181 11.227 35.5581 11.227H36.5972C36.9828 11.227 37.296 11.5402 37.296 11.9258V30.08C37.296 30.4656 36.9828 30.7788 36.5972 30.7788H35.5581Z" fill="#242427"/>
<path d="M32.513 14.4852H27.5164V12.7473C27.5164 11.9073 26.8357 11.2266 25.9957 11.2266H25.7785C24.9385 11.2266 24.2578 11.9073 24.2578 12.7473V16.2231C24.2578 17.0631 24.9385 17.7438 25.7785 17.7438H32.513C33.353 17.7438 34.0337 17.0631 34.0337 16.2231V16.0059C34.0337 15.1659 33.353 14.4852 32.513 14.4852Z" fill="#242427"/>
<path d="M32.5172 21.002H32.3C31.4601 21.002 30.7793 21.6828 30.7793 22.5226V22.7399C30.7793 23.5797 31.4601 24.2606 32.3 24.2606H32.5172C33.3571 24.2606 34.0379 23.5797 34.0379 22.7399V22.5226C34.0379 21.6828 33.3571 21.002 32.5172 21.002Z" fill="#242427"/>
<path d="M32.5172 27.5195H32.3C31.4601 27.5195 30.7793 28.2004 30.7793 29.0402V29.2575C30.7793 30.0973 31.4601 30.7782 32.3 30.7782H32.5172C33.3571 30.7782 34.0379 30.0973 34.0379 29.2575V29.0402C34.0379 28.2004 33.3571 27.5195 32.5172 27.5195Z" fill="#242427"/>
<path d="M25.9982 24.2606H24.959C24.5734 24.2606 24.2602 23.9474 24.2602 23.5618V22.5226C24.2602 21.6826 23.5795 21.002 22.7395 21.002H19.2637C18.4237 21.002 17.743 21.6826 17.743 22.5226V23.5618C17.743 23.9474 17.4298 24.2606 17.0442 24.2606H16.0051C15.1651 24.2606 14.4844 24.9413 14.4844 25.7813V25.9985C14.4844 26.8385 15.1651 27.5192 16.0051 27.5192H16.2223C17.0623 27.5192 17.743 26.8385 17.743 25.9985V24.9594C17.743 24.5738 18.0562 24.2606 18.4418 24.2606H22.7395C23.5795 24.2606 24.2602 24.9413 24.2602 25.7813V25.9985C24.2602 26.8385 24.9409 27.5192 25.7809 27.5192H25.9982C26.8382 27.5192 27.5189 26.8385 27.5189 25.9985V25.7813C27.5189 24.9413 26.8382 24.2606 25.9982 24.2606Z" fill="#242427"/>
<path d="M15.1867 17.7438H16.2259C17.0659 17.7438 17.7466 17.0631 17.7466 16.2231V12.7473C17.7466 11.9073 17.0659 11.2266 16.2259 11.2266H16.0086C15.1686 11.2266 14.4879 11.9073 14.4879 12.7473V13.7864C14.4879 14.172 14.1748 14.4852 13.7892 14.4852H9.49139C8.65139 14.4852 7.9707 15.1659 7.9707 16.0059V16.2231C7.9707 17.0631 8.65139 17.7438 9.49139 17.7438H15.1867Z" fill="#242427"/>
<path d="M9.70863 21.002H9.49139C8.65154 21.002 7.9707 21.6828 7.9707 22.5226V22.7399C7.9707 23.5797 8.65154 24.2606 9.49139 24.2606H9.70863C10.5485 24.2606 11.2293 23.5797 11.2293 22.7399V22.5226C11.2293 21.6828 10.5485 21.002 9.70863 21.002Z" fill="#242427"/>
<path d="M9.70863 27.5195H9.49139C8.65154 27.5195 7.9707 28.2004 7.9707 29.0402V29.2575C7.9707 30.0973 8.65154 30.7782 9.49139 30.7782H9.70863C10.5485 30.7782 11.2293 30.0973 11.2293 29.2575V29.0402C11.2293 28.2004 10.5485 27.5195 9.70863 27.5195Z" fill="#242427"/>
</svg>
