<svg width="43" height="43" viewBox="0 0 43 43" fill="none" xmlns="http://www.w3.org/2000/svg">
<circle cx="21.5" cy="21.5" r="21.5" fill="black" fill-opacity="0.3"/>
<path d="M18.4821 13.8873C18.4821 13.3318 18.8808 12.9125 19.437 12.9125C19.9931 12.9125 20.4023 13.3423 20.4023 13.8873L20.4023 19.7049C20.4023 20.7741 19.7832 21.3926 18.7129 21.3926L12.8892 21.3926C12.3226 21.3926 11.9029 20.9943 11.9029 20.4282C11.9029 19.8622 12.3331 19.4743 12.8892 19.4743L13.7602 19.4743L17.4328 19.684L14.5262 16.9272L11.2838 13.6987C11.0949 13.51 11.0005 13.2584 11.0005 12.9754C11.0005 12.3884 11.4412 12.0005 12.0393 12.0005C12.2911 12.0005 12.522 12.0844 12.7004 12.2731L15.9322 15.5226L18.692 18.4261L18.4821 14.7678L18.4821 13.8873Z" fill="white"/>
<path d="M23.9203 30.5052C23.9203 31.0608 23.5215 31.4801 22.9654 31.4801C22.4092 31.4801 22 31.0503 22 30.5052V24.6876C22 23.6184 22.6191 23 23.6894 23H29.5131C30.0797 23 30.4995 23.3983 30.4995 23.9644C30.4995 24.5304 30.0693 24.9182 29.5131 24.9182H28.6422L24.9696 24.7086L27.8762 27.4654L31.1186 30.6939C31.3075 30.8826 31.4019 31.1342 31.4019 31.4172C31.4019 32.0042 30.9612 32.392 30.3631 32.392C30.1112 32.392 29.8804 32.3082 29.702 32.1195L26.4701 28.87L23.7104 25.9665L23.9203 29.6247V30.5052Z" fill="white"/>
</svg>
