<svg width="24" height="24" viewBox="0 0 24 24" fill="none" xmlns="http://www.w3.org/2000/svg">
<g filter="url(#filter0_dd_2806_38150)">
<rect x="2" y="2" width="20" height="20" rx="4" fill="url(#paint0_linear_2806_38150)"/>
</g>
<g filter="url(#filter1_d_2806_38150)">
<path fill-rule="evenodd" clip-rule="evenodd" d="M17.7413 8.25831C17.3964 7.9139 16.8371 7.9139 16.4922 8.25831L10.858 13.8838L7.50785 10.5388C7.16291 10.1944 6.60365 10.1944 6.25871 10.5388C5.91376 10.8832 5.91376 11.4416 6.25871 11.786L10.0061 15.5277C10.0575 15.579 10.1135 15.6226 10.1729 15.6586C10.1954 15.6874 10.2199 15.7152 10.2464 15.7417C10.5914 16.0861 11.1506 16.0861 11.4956 15.7417L17.7413 9.50554C18.0862 9.16113 18.0862 8.60272 17.7413 8.25831Z" fill="white"/>
</g>
<defs>
<filter id="filter0_dd_2806_38150" x="1.8" y="1.8" width="22.2" height="22.2" filterUnits="userSpaceOnUse" color-interpolation-filters="sRGB">
<feFlood flood-opacity="0" result="BackgroundImageFix"/>
<feColorMatrix in="SourceAlpha" type="matrix" values="0 0 0 0 0 0 0 0 0 0 0 0 0 0 0 0 0 0 127 0" result="hardAlpha"/>
<feOffset dx="1" dy="1"/>
<feGaussianBlur stdDeviation="0.5"/>
<feColorMatrix type="matrix" values="0 0 0 0 0 0 0 0 0 0 0 0 0 0 0 0 0 0 0.2 0"/>
<feBlend mode="normal" in2="BackgroundImageFix" result="effect1_dropShadow_2806_38150"/>
<feColorMatrix in="SourceAlpha" type="matrix" values="0 0 0 0 0 0 0 0 0 0 0 0 0 0 0 0 0 0 127 0" result="hardAlpha"/>
<feOffset dx="0.4" dy="0.4"/>
<feGaussianBlur stdDeviation="0.3"/>
<feComposite in2="hardAlpha" operator="out"/>
<feColorMatrix type="matrix" values="0 0 0 0 0 0 0 0 0 0 0 0 0 0 0 0 0 0 0.2 0"/>
<feBlend mode="normal" in2="effect1_dropShadow_2806_38150" result="effect2_dropShadow_2806_38150"/>
<feBlend mode="normal" in="SourceGraphic" in2="effect2_dropShadow_2806_38150" result="shape"/>
</filter>
<filter id="filter1_d_2806_38150" x="5.8" y="7.8" width="13.2" height="9.2" filterUnits="userSpaceOnUse" color-interpolation-filters="sRGB">
<feFlood flood-opacity="0" result="BackgroundImageFix"/>
<feColorMatrix in="SourceAlpha" type="matrix" values="0 0 0 0 0 0 0 0 0 0 0 0 0 0 0 0 0 0 127 0" result="hardAlpha"/>
<feOffset dx="0.4" dy="0.4"/>
<feGaussianBlur stdDeviation="0.3"/>
<feComposite in2="hardAlpha" operator="out"/>
<feColorMatrix type="matrix" values="0 0 0 0 0 0 0 0 0 0 0 0 0 0 0 0 0 0 0.2 0"/>
<feBlend mode="normal" in2="BackgroundImageFix" result="effect1_dropShadow_2806_38150"/>
<feBlend mode="normal" in="SourceGraphic" in2="effect1_dropShadow_2806_38150" result="shape"/>
</filter>
<linearGradient id="paint0_linear_2806_38150" x1="12" y1="2" x2="12" y2="22" gradientUnits="userSpaceOnUse">
<stop stop-color="#5C5C5C"/>
<stop offset="1" stop-color="#292929"/>
</linearGradient>
</defs>
</svg>
