<svg width="46" height="32" viewBox="0 0 46 32" fill="none" xmlns="http://www.w3.org/2000/svg">
<g clip-path="url(#clip0_3681_80996)">
<path d="M42.1361 1.75977L38.1491 1.75977C37.323 1.75977 36.652 2.43594 36.652 3.26845V7.28638C36.652 8.11889 35.981 8.79506 35.1549 8.79506L31.1679 8.79506C30.3418 8.79506 29.6708 9.47123 29.6708 10.3037V14.3217C29.6708 15.1542 28.9998 15.8304 28.1737 15.8304H24.1867C23.3606 15.8304 22.6896 16.5065 22.6896 17.339V21.357C22.6896 22.1895 22.0187 22.8657 21.1926 22.8657H17.2055C16.3794 22.8657 15.7085 22.1895 15.7085 21.357V17.339C15.7085 16.5065 15.0375 15.8304 14.2114 15.8304H10.2244C9.39824 15.8304 8.72727 15.1542 8.72727 14.3217L8.72727 10.3037C8.72727 9.47123 8.05631 8.79506 7.2302 8.79506H3.24317C2.41706 8.79506 1.74609 9.47123 1.74609 10.3037L1.74609 14.3217C1.74609 15.1542 2.41706 15.8304 3.24317 15.8304H7.2302C8.05631 15.8304 8.72727 16.5065 8.72727 17.339L8.72727 21.357C8.72727 22.1895 9.39824 22.8657 10.2244 22.8657H14.2114C15.0375 22.8657 15.7085 23.5418 15.7085 24.3743V28.3923C15.7085 29.2248 16.3794 29.901 17.2055 29.901H21.1926C22.0187 29.901 22.6896 29.2248 22.6896 28.3923V24.3743C22.6896 23.5418 23.3606 22.8657 24.1867 22.8657H28.1737C28.9998 22.8657 29.6708 22.1895 29.6708 21.357V15.8304H35.1549C35.981 15.8304 36.652 15.1542 36.652 14.3217V10.3037C36.652 9.47123 37.323 8.79506 38.1491 8.79506H42.1361C42.9622 8.79506 43.6332 8.11889 43.6332 7.28638V3.26845C43.6332 2.43594 42.9622 1.75977 42.1361 1.75977Z" fill="#242427"/>
<path d="M17.2047 31.6588C15.4168 31.6588 13.9624 30.1932 13.9624 28.3913V24.6235H10.2236C8.43559 24.6235 6.98118 23.1579 6.98118 21.356V17.5882H3.24237C1.45441 17.5882 0 16.1226 0 14.3207L0 10.3028C0 8.50099 1.45441 7.0353 3.24237 7.0353L7.2294 7.0353C9.01736 7.0353 10.4718 8.50099 10.4718 10.3028V14.0706L14.2106 14.0706C15.9985 14.0706 17.453 15.5363 17.453 17.3381V21.1059H20.9435V17.3381C20.9435 15.5363 22.398 14.0706 24.1859 14.0706H27.9247L27.9247 10.3028C27.9247 8.50099 29.3791 7.0353 31.1671 7.0353L34.9059 7.0353V3.26751C34.9059 1.46569 36.3603 0 38.1483 0L42.1353 0C43.9233 0 45.3777 1.46569 45.3777 3.26751V7.28544C45.3777 9.08726 43.9233 10.5529 42.1353 10.5529L38.3965 10.5529V14.3207C38.3965 16.1226 36.9421 17.5882 35.1541 17.5882H31.4153V21.356C31.4153 23.1579 29.9609 24.6235 28.1729 24.6235L24.4341 24.6235V28.3913C24.4341 30.1932 22.9797 31.6588 21.1918 31.6588H17.2047Z" fill="#3FD960"/>
<path d="M42.1361 1.75977L38.1491 1.75977C37.323 1.75977 36.652 2.43594 36.652 3.26845V7.28638C36.652 8.11889 35.981 8.79506 35.1549 8.79506L31.1679 8.79506C30.3418 8.79506 29.6708 9.47123 29.6708 10.3037V14.3217C29.6708 15.1542 28.9998 15.8304 28.1737 15.8304H24.1867C23.3606 15.8304 22.6896 16.5065 22.6896 17.339V21.357C22.6896 22.1895 22.0187 22.8657 21.1926 22.8657H17.2055C16.3794 22.8657 15.7085 22.1895 15.7085 21.357V17.339C15.7085 16.5065 15.0375 15.8304 14.2114 15.8304H10.2244C9.39824 15.8304 8.72727 15.1542 8.72727 14.3217L8.72727 10.3037C8.72727 9.47123 8.05631 8.79506 7.2302 8.79506H3.24317C2.41706 8.79506 1.74609 9.47123 1.74609 10.3037L1.74609 14.3217C1.74609 15.1542 2.41706 15.8304 3.24317 15.8304H7.2302C8.05631 15.8304 8.72727 16.5065 8.72727 17.339L8.72727 21.357C8.72727 22.1895 9.39824 22.8657 10.2244 22.8657H14.2114C15.0375 22.8657 15.7085 23.5418 15.7085 24.3743V28.3923C15.7085 29.2248 16.3794 29.901 17.2055 29.901H21.1926C22.0187 29.901 22.6896 29.2248 22.6896 28.3923V24.3743C22.6896 23.5418 23.3606 22.8657 24.1867 22.8657H28.1737C28.9998 22.8657 29.6708 22.1895 29.6708 21.357V15.8304H35.1549C35.981 15.8304 36.652 15.1542 36.652 14.3217V10.3037C36.652 9.47123 37.323 8.79506 38.1491 8.79506H42.1361C42.9622 8.79506 43.6332 8.11889 43.6332 7.28638V3.26845C43.6332 2.43594 42.9622 1.75977 42.1361 1.75977Z" fill="#3FD960"/>
<path d="M42.1361 1.75977L38.1491 1.75977C37.323 1.75977 36.652 2.43594 36.652 3.26845V7.28638C36.652 8.11889 35.981 8.79506 35.1549 8.79506L31.1679 8.79506C30.3418 8.79506 29.6708 9.47123 29.6708 10.3037V14.3217C29.6708 15.1542 28.9998 15.8304 28.1737 15.8304H24.1867C23.3606 15.8304 22.6896 16.5065 22.6896 17.339V21.357C22.6896 22.1895 22.0187 22.8657 21.1926 22.8657H17.2055C16.3794 22.8657 15.7085 22.1895 15.7085 21.357V17.339C15.7085 16.5065 15.0375 15.8304 14.2114 15.8304H10.2244C9.39824 15.8304 8.72727 15.1542 8.72727 14.3217L8.72727 10.3037C8.72727 9.47123 8.05631 8.79506 7.2302 8.79506H3.24317C2.41706 8.79506 1.74609 9.47123 1.74609 10.3037L1.74609 14.3217C1.74609 15.1542 2.41706 15.8304 3.24317 15.8304H7.2302C8.05631 15.8304 8.72727 16.5065 8.72727 17.339L8.72727 21.357C8.72727 22.1895 9.39824 22.8657 10.2244 22.8657H14.2114C15.0375 22.8657 15.7085 23.5418 15.7085 24.3743V28.3923C15.7085 29.2248 16.3794 29.901 17.2055 29.901H21.1926C22.0187 29.901 22.6896 29.2248 22.6896 28.3923V24.3743C22.6896 23.5418 23.3606 22.8657 24.1867 22.8657H28.1737C28.9998 22.8657 29.6708 22.1895 29.6708 21.357V15.8304H35.1549C35.981 15.8304 36.652 15.1542 36.652 14.3217V10.3037C36.652 9.47123 37.323 8.79506 38.1491 8.79506H42.1361C42.9622 8.79506 43.6332 8.11889 43.6332 7.28638V3.26845C43.6332 2.43594 42.9622 1.75977 42.1361 1.75977Z" fill="#242427"/>
</g>
<defs>
<clipPath id="clip0_3681_80996">
<rect width="45.3777" height="31.6588" fill="white"/>
</clipPath>
</defs>
</svg>
