<svg width="219" height="171" viewBox="0 0 219 171" fill="none" xmlns="http://www.w3.org/2000/svg">
<path d="M76.6668 129.158C101.357 129.158 121.373 124.035 121.373 117.716C121.373 111.397 101.357 106.274 76.6668 106.274C51.9764 106.274 31.9609 111.397 31.9609 117.716C31.9609 124.035 51.9764 129.158 76.6668 129.158Z" fill="#3F3F43"/>
<path fill-rule="evenodd" clip-rule="evenodd" d="M62.2075 96.1697C65.7784 100.525 73.9999 103.542 78.4843 100.386C84.7127 95.9944 85.4416 87.7914 83.2363 81.0278L79.2409 81.7845C79.2409 81.7845 80.5973 95.4315 73.4555 95.3115C69.0541 95.2377 65.5293 92.7187 62.2351 90.6057C60.5835 89.5445 58.3598 89.6368 56.625 90.5411C48.9203 94.5734 46.0045 114.153 57.1141 115.685C65.6308 116.866 66.8857 105.341 65.2248 99.5099" fill="#515155"/>
<path d="M62.2075 96.1697C65.7784 100.525 73.9999 103.542 78.4843 100.386C84.7127 95.9944 85.4416 87.7914 83.2363 81.0278L79.2409 81.7845C79.2409 81.7845 80.5973 95.4315 73.4555 95.3115C69.0541 95.2377 65.5293 92.7187 62.2351 90.6057C60.5835 89.5445 58.3598 89.6368 56.625 90.5411C48.9203 94.5734 46.0045 114.153 57.1141 115.685C65.6308 116.866 66.8857 105.341 65.2248 99.5099" stroke="#242427" stroke-width="2" stroke-miterlimit="10" stroke-linecap="round"/>
<path d="M91.793 116.774C95.124 120.64 103.235 119.108 109.915 113.35C116.596 107.593 119.318 99.7956 115.987 95.9386C112.656 92.0817 104.545 93.6042 97.8645 99.3619C96.0928 100.884 94.6073 102.555 93.4354 104.252C93.1586 104.566 92.8725 104.88 92.5957 105.212L68.2451 85.189C66.6949 86.7576 66.7042 89.2858 68.2451 90.8452L91.7837 116.774H91.793Z" fill="#515155" stroke="#242427" stroke-width="2" stroke-linecap="round" stroke-linejoin="round"/>
<path d="M96.084 111.495C97.385 105.525 104.804 97.1284 111.567 98.328" stroke="#242427" stroke-width="2" stroke-linecap="round" stroke-linejoin="round"/>
<path fill-rule="evenodd" clip-rule="evenodd" d="M91.3672 108.395C91.3672 108.395 91.7086 106.669 93.4341 104.252L91.3672 108.395Z" fill="#515155"/>
<path d="M91.3672 108.395C91.3672 108.395 91.7086 106.669 93.4341 104.252" stroke="#242427" stroke-width="2" stroke-linecap="round" stroke-linejoin="round"/>
<path fill-rule="evenodd" clip-rule="evenodd" d="M123.716 51.7968C124.666 44.3504 116.915 37.061 105.852 34.3389C111.591 27.557 113.123 19.6677 108.915 14.6481C104.855 9.80383 96.634 9.01952 88.3572 12.046C85.8012 6.14063 81.0215 1.88689 75.0976 1.12104C68.0665 0.216771 61.3768 4.45206 57.5106 11.3909C51.3099 9.17638 44.8324 9.51779 40.0804 12.8949C34.2858 17.0195 32.5972 24.5489 34.9501 32.0967C29.0447 34.8003 24.8647 39.5892 24.1173 45.4669C23.0654 53.7991 29.1831 61.7529 38.5856 65.3977C35.6698 70.4818 35.2362 75.483 38.0043 78.7956C41.4461 82.9109 48.874 83.2892 56.6894 80.3457C59.3837 87.4507 65.4276 92.784 73.0031 93.7713C82.1196 94.9524 90.6547 89.4991 94.4471 80.9178C99.8819 83.6029 105.169 84.0551 108.62 81.6006C113.141 78.3711 113.252 71.0816 109.515 63.46C117.284 61.8452 122.95 57.5176 123.679 51.7876H123.707L123.716 51.7968Z" fill="#353538" stroke="#242427" stroke-width="2" stroke-miterlimit="10" stroke-linecap="round"/>
<path d="M9.57383 43.6343L12.5059 40.5061M12.5059 40.5061L14.7177 44.3583M12.5059 40.5061L17.0954 39.5783M12.5059 40.5061L13.2318 36.2805M12.5059 40.5061L8.82898 38.6771" stroke="#515155" stroke-width="1.46" stroke-linecap="round" stroke-linejoin="round"/>
<path d="M80.7771 40.4077C77.3179 40.6137 74.2677 36.6486 73.9642 31.5514C73.6607 26.4542 76.2188 22.1551 79.678 21.9491C83.1372 21.7431 86.1874 25.7083 86.4909 30.8055C86.7944 35.9027 84.2363 40.2018 80.7771 40.4077Z" fill="#8C8C8E"/>
<path d="M68.2556 41.1558C64.7964 41.3617 61.7462 37.3966 61.4427 32.2994C61.1392 27.2022 63.6973 22.9031 67.1565 22.6972C70.6157 22.4912 73.666 26.4563 73.9695 31.5535C74.273 36.6507 71.7148 40.9498 68.2556 41.1558Z" fill="#8C8C8E"/>
<path d="M80.3256 37.0776C77.9602 37.2185 75.8845 34.6769 75.6894 31.4008C75.4944 28.1248 77.2538 25.3549 79.6193 25.214C81.9847 25.0732 84.0605 27.6147 84.2555 30.8908C84.4506 34.1668 82.6911 36.9368 80.3256 37.0776Z" fill="#242427"/>
<path d="M68.5577 37.888C66.3753 38.0179 64.448 35.4675 64.253 32.1914C64.0579 28.9154 65.6689 26.1543 67.8513 26.0243C70.0336 25.8944 71.9609 28.4448 72.1559 31.7209C72.351 34.9969 70.74 37.758 68.5577 37.888Z" fill="#242427"/>
<path d="M77.3745 29.1454C77.4549 27.73 78.3503 26.6297 79.3744 26.6878C80.3985 26.746 81.1635 27.9406 81.0831 29.356C81.0027 30.7715 80.1073 31.8718 79.0832 31.8136C78.0591 31.7555 77.2941 30.5609 77.3745 29.1454Z" fill="#8C8C8E"/>
<path d="M79.9779 33.4237C80.0157 32.758 80.4348 32.2405 80.9139 32.2677C81.393 32.2949 81.7508 32.8566 81.713 33.5222C81.6752 34.1879 81.2561 34.7055 80.777 34.6783C80.2979 34.6511 79.9401 34.0894 79.9779 33.4237Z" fill="#8C8C8E"/>
<path d="M65.7925 30.08C65.8729 28.6645 66.7682 27.5642 67.7923 27.6224C68.8164 27.6806 69.5814 28.8752 69.501 30.2906C69.4206 31.7061 68.5253 32.8064 67.5012 32.7482C66.4771 32.69 65.7121 31.4954 65.7925 30.08Z" fill="#8C8C8E"/>
<path d="M68.392 34.3602C68.4298 33.6946 68.8488 33.177 69.328 33.2042C69.8071 33.2314 70.1649 33.7931 70.1271 34.4588C70.0892 35.1244 69.6702 35.642 69.1911 35.6148C68.7119 35.5876 68.3542 35.0259 68.392 34.3602Z" fill="#8C8C8E"/>
<path d="M75.5338 53.2151C69.9949 53.5423 65.303 50.5186 65.0629 46.4456C64.8228 42.3725 69.1108 38.8115 74.6588 38.4827C80.1977 38.1555 84.8895 41.1792 85.1296 45.2522C85.3697 49.3253 81.0817 52.8863 75.5338 53.2151Z" fill="#8C8C8E" stroke="#353538" stroke-width="2" stroke-miterlimit="10"/>
<path d="M85.1345 45.4131C82.3912 47.4568 79.1353 43.5075 75.0531 43.7493C70.971 43.991 69.4035 48.2318 64.5099 46.6324" stroke="#353538" stroke-width="2"/>
<path d="M75.7146 48.5363C77.4396 48.3022 78.4372 46.9633 79.0227 45.3238L79.1862 44.866L71.0871 45.347L73.0784 47.5656C73.6889 48.2459 74.8089 48.6592 75.7146 48.5363Z" fill="#353538" stroke="#353538" stroke-width="2" stroke-linecap="round" stroke-linejoin="round"/>
<path d="M2.57383 25.6338L5.50589 22.5056M5.50589 22.5056L7.71771 26.3578M5.50589 22.5056L10.0954 21.5778M5.50589 22.5056L6.2318 18.28M5.50589 22.5056L1.82898 20.6766" stroke="#515155" stroke-width="1.46" stroke-linecap="round" stroke-linejoin="round"/>
<path d="M75.6668 131.158C100.357 131.158 120.373 126.035 120.373 119.716C120.373 113.397 100.357 108.274 75.6668 108.274C50.9764 108.274 30.9609 113.397 30.9609 119.716C30.9609 126.035 50.9764 131.158 75.6668 131.158Z" fill="#3F3F43"/>
<path fill-rule="evenodd" clip-rule="evenodd" d="M61.2075 98.1697C64.7784 102.525 72.9999 105.542 77.4843 102.386C83.7127 97.9944 84.4416 89.7914 82.2363 83.0278L78.2409 83.7845C78.2409 83.7845 79.5973 97.4315 72.4555 97.3115C68.0541 97.2377 64.5293 94.7187 61.2351 92.6057C59.5835 91.5445 57.3598 91.6368 55.625 92.5411C47.9203 96.5734 45.0045 116.153 56.1141 117.685C64.6308 118.866 65.8857 107.341 64.2248 101.51" fill="#515155"/>
<path d="M61.2075 98.1697C64.7784 102.525 72.9999 105.542 77.4843 102.386C83.7127 97.9944 84.4416 89.7914 82.2363 83.0278L78.2409 83.7845C78.2409 83.7845 79.5973 97.4315 72.4555 97.3115C68.0541 97.2377 64.5293 94.7187 61.2351 92.6057C59.5835 91.5445 57.3598 91.6368 55.625 92.5411C47.9203 96.5734 45.0045 116.153 56.1141 117.685C64.6308 118.866 65.8857 107.341 64.2248 101.51" stroke="#242427" stroke-width="2" stroke-miterlimit="10" stroke-linecap="round"/>
<path d="M90.793 118.774C94.124 122.64 102.235 121.108 108.915 115.35C115.596 109.593 118.318 101.796 114.987 97.9386C111.656 94.0817 103.545 95.6042 96.8645 101.362C95.0928 102.884 93.6073 104.555 92.4354 106.252C92.1586 106.566 91.8725 106.88 91.5957 107.212L67.2451 87.189C65.6949 88.7576 65.7042 91.2858 67.2451 92.8452L90.7837 118.774H90.793Z" fill="#515155" stroke="#242427" stroke-width="2" stroke-linecap="round" stroke-linejoin="round"/>
<path d="M95.084 113.495C96.385 107.525 103.804 99.1284 110.567 100.328" stroke="#242427" stroke-width="2" stroke-linecap="round" stroke-linejoin="round"/>
<path fill-rule="evenodd" clip-rule="evenodd" d="M90.3672 110.395C90.3672 110.395 90.7086 108.669 92.4341 106.252L90.3672 110.395Z" fill="#515155"/>
<path d="M90.3672 110.395C90.3672 110.395 90.7086 108.669 92.4341 106.252" stroke="#242427" stroke-width="2" stroke-linecap="round" stroke-linejoin="round"/>
<path d="M144.496 90.5874C144.496 73.2285 158.207 59.1548 175.13 59.1548H53.7733C36.8496 59.1548 23.1387 73.2285 23.1387 90.5874V120.383H144.496V90.5874Z" fill="#515155" stroke="#242427" stroke-width="2" stroke-miterlimit="10" stroke-linecap="round"/>
<path d="M144.496 90.5874C144.496 73.2285 158.207 59.1548 175.13 59.1548H53.7733C36.8496 59.1548 23.1387 73.2285 23.1387 90.5874V120.383H144.496V90.5874Z" fill="#2F2F32" stroke="#242427" stroke-width="2" stroke-miterlimit="10"/>
<path d="M89.4153 91.0588C89.4153 73.9063 103.109 60 120 60H103.585C86.6932 60 73 73.9063 73 91.0588V161H89.4153V91.0588Z" fill="#515155"/>
<path d="M39.405 91.0588C39.405 73.9063 53.0982 60 70 60H53.595C36.6932 60 23 73.9063 23 91.0588V161H39.4153V91.0588H39.405Z" fill="#515155"/>
<path d="M144.412 91.0588C144.412 73.9063 158.102 60 175 60H158.588C141.69 60 128 73.9063 128 91.0588V161H144.412V91.0588Z" fill="#515155"/>
<path d="M114.444 171C172.126 171 218.887 166.69 218.887 161.372C218.887 156.055 172.126 151.745 114.444 151.745C56.761 151.745 10 156.055 10 161.372C10 166.69 56.761 171 114.444 171Z" fill="#3F3F43"/>
<path d="M23.1328 120.35V161.368H53.7674H84.3916H144.5V120.35H23.1328Z" fill="#515155" stroke="#242427" stroke-width="2" stroke-miterlimit="10" stroke-linecap="round"/>
<path d="M175 120H144V161H175H206V120H175Z" fill="#353538" stroke="#242427" stroke-width="2" stroke-miterlimit="10" stroke-linecap="round"/>
<path d="M175 59C157.875 59 144 73.0213 144 90.3157V120H206V90.3466C206 73.0213 192.115 59 175 59Z" fill="#353538" stroke="#242427" stroke-width="2" stroke-miterlimit="10" stroke-linecap="round"/>
<path d="M175.136 75.4263C173.231 75.4506 171.349 75.85 169.598 76.6018C167.847 77.3535 166.261 78.4428 164.931 79.8074C163.601 81.172 162.553 82.7853 161.846 84.555C161.14 86.3248 160.789 88.2164 160.814 90.1218V104.061H189.459V90.1218C189.483 88.2164 189.132 86.3248 188.426 84.555C187.719 82.7853 186.671 81.172 185.341 79.8074C184.011 78.4428 182.425 77.3535 180.674 76.6018C178.923 75.85 177.042 75.4506 175.136 75.4263Z" fill="#242427" stroke="#242427" stroke-width="2" stroke-miterlimit="10"/>
<path d="M175 126H161V150H175H189V126H175Z" fill="#242427" stroke="#242427" stroke-width="2" stroke-miterlimit="10"/>
<path d="M39.125 125.307V150.449H61.8419H84.5484H129.101V125.307H39.125Z" fill="#353538" stroke="#353538" stroke-width="2" stroke-miterlimit="10"/>
<path d="M145 104H23V120H145V104Z" fill="#515155"/>
<path d="M145 120H24V125H145V120Z" fill="#8C8C8E" stroke="#353538" stroke-width="2" stroke-miterlimit="10" stroke-linecap="round"/>
<path d="M98.2061 99.8398H69.0742V129.739H98.2061V99.8398Z" fill="#242427" stroke="#242427" stroke-width="2" stroke-miterlimit="10" stroke-linecap="round"/>
<path d="M94.8819 99.8398H65.75V129.739H94.8819V99.8398Z" fill="#8C8C8E" stroke="#242427" stroke-width="2" stroke-miterlimit="10" stroke-linecap="round"/>
<path fill-rule="evenodd" clip-rule="evenodd" d="M84.1747 115.362C85.2802 114.37 85.9786 112.912 85.9786 111.285C85.9786 108.298 83.6215 105.875 80.7139 105.875C77.8063 105.875 75.4492 108.298 75.4492 111.285C75.4492 112.911 76.1471 114.369 77.2519 115.361L75.832 124.666H85.5945L84.1747 115.362Z" fill="#242427"/>
<path d="M84.1747 115.362L83.507 114.618L83.1047 114.979L83.1862 115.513L84.1747 115.362ZM77.2519 115.361L78.2405 115.512L78.322 114.978L77.9199 114.617L77.2519 115.361ZM75.832 124.666L74.8435 124.515L74.6679 125.666H75.832V124.666ZM85.5945 124.666V125.666H86.7586L86.583 124.515L85.5945 124.666ZM84.8425 116.106C86.1542 114.93 86.9786 113.203 86.9786 111.285H84.9786C84.9786 112.621 84.4062 113.811 83.507 114.618L84.8425 116.106ZM86.9786 111.285C86.9786 107.771 84.1992 104.875 80.7139 104.875V106.875C83.0438 106.875 84.9786 108.824 84.9786 111.285H86.9786ZM80.7139 104.875C77.2286 104.875 74.4492 107.771 74.4492 111.285H76.4492C76.4492 108.824 78.384 106.875 80.7139 106.875V104.875ZM74.4492 111.285C74.4492 113.202 75.2731 114.928 76.5839 116.105L77.9199 114.617C77.0212 113.81 76.4492 112.62 76.4492 111.285H74.4492ZM76.8206 124.817L78.2405 115.512L76.2634 115.21L74.8435 124.515L76.8206 124.817ZM85.5945 123.666H75.832V125.666H85.5945V123.666ZM83.1862 115.513L84.6059 124.817L86.583 124.515L85.1633 115.211L83.1862 115.513Z" fill="#242427"/>
<rect x="144" y="104" width="62" height="16" fill="#353538" stroke="#242427" stroke-width="2"/>
<path d="M206 120H144V126H206V120Z" fill="#353538" stroke="#242427" stroke-width="2" stroke-miterlimit="10" stroke-linecap="round"/>
</svg>
