<svg width="48" height="48" viewBox="0 0 48 48" fill="none" xmlns="http://www.w3.org/2000/svg">
<rect width="48" height="48" rx="24" fill="#353538"/>
<path d="M32.5 30.9955C32.5 31.8255 31.83 32.4955 31 32.4955H17C16.17 32.4955 15.5 31.8255 15.5 30.9955V25.7455C15.5 25.3313 15.1642 24.9955 14.75 24.9955C14.3358 24.9955 14 25.3313 14 25.7455V30.9955C14 32.6555 15.34 33.9955 17 33.9955H31C32.66 33.9955 34 32.6555 34 30.9955V25.7455C34 25.3313 33.6642 24.9955 33.25 24.9955C32.8358 24.9955 32.5 25.3313 32.5 25.7455V30.9955Z" fill="#E8E8E8"/>
<path d="M24.75 25.078V14.748C24.75 14.3338 24.4142 13.998 24 13.998C23.5858 13.998 23.25 14.3338 23.25 14.748V25.078L19.06 20.888C18.7673 20.5953 18.2927 20.5953 18 20.888C17.7073 21.1808 17.7073 21.6553 18 21.948L22.41 26.358C23.26 27.208 24.74 27.208 25.59 26.358L30 21.948C30.2927 21.6553 30.2927 21.1808 30 20.888C29.7073 20.5953 29.2327 20.5953 28.94 20.888L24.75 25.078Z" fill="#E8E8E8"/>
</svg>
