<svg width="90" height="74" viewBox="0 0 90 74" fill="none" xmlns="http://www.w3.org/2000/svg">
<ellipse cx="38.9807" cy="61.6872" rx="32.361" ry="10.1137" transform="rotate(3.93783 38.9807 61.6872)" fill="white"/>
<path fill-rule="evenodd" clip-rule="evenodd" d="M64.6686 36.1718C65.4641 31.356 60.6052 26.4398 53.489 24.4046C57.3803 20.1047 58.5628 15.0882 55.9542 11.6913C53.4317 8.45214 48.1142 7.74266 42.6677 9.54143C41.1485 5.64291 38.1457 2.76201 34.3189 2.13137C29.7754 1.37173 25.325 3.96597 22.652 8.37331C18.6603 6.78953 14.4536 6.82537 11.2789 8.93945C7.41619 11.4764 6.14057 16.328 7.48785 21.2872C3.58933 22.8996 0.758604 25.9023 0.127961 29.7077C-0.753507 35.0897 2.99452 40.4071 9.04296 43.0014C7.03637 46.2334 6.62788 49.4511 8.32632 51.6942C10.4762 54.4461 15.2706 54.8689 20.4232 53.1275C21.1446 55.4369 22.482 57.506 24.2914 59.1122C26.1009 60.7183 28.314 61.8008 30.6927 62.2432C36.5835 63.2321 42.2592 59.8997 44.9323 54.4103C48.3937 56.2879 51.8192 56.7035 54.1125 55.1914C57.1295 53.2063 57.3732 48.4765 55.1301 43.4314C60.2111 42.5714 64.0021 39.8983 64.6113 36.1933L64.6686 36.1718Z" fill="#242427"/>
<path d="M44.1727 29.8073C46.423 29.707 48.1214 26.9407 47.9709 23.6227C47.8204 20.3047 45.8855 17.7033 43.6711 17.8036C41.4566 17.9039 39.7224 20.6701 39.8657 23.9882C40.009 27.3062 41.9225 29.9076 44.1727 29.8073Z" fill="white"/>
<path d="M36.0016 30.1738C38.2447 30.0735 39.9503 27.3073 39.7998 23.9892C39.6493 20.6712 37.7072 18.0626 35.4999 18.163C33.2927 18.2633 31.5441 21.0295 31.6946 24.3476C31.8451 27.6656 33.78 30.2742 36.0016 30.1738Z" fill="white"/>
<path d="M43.0899 27.6072C44.6306 27.5427 45.8059 25.7582 45.7056 23.6226C45.6053 21.487 44.2723 19.8173 42.7459 19.8889C41.2194 19.9606 40.037 21.7379 40.1301 23.8735C40.2233 26.009 41.5563 27.6788 43.0899 27.6072Z" fill="#242427"/>
<path d="M35.4008 27.9739C36.834 27.9094 37.8947 26.1321 37.8015 24.0037C37.7083 21.8753 36.4757 20.1912 35.0568 20.2557C33.6378 20.3202 32.5629 22.0975 32.656 24.233C32.7492 26.3686 33.9818 28.0384 35.4008 27.9739Z" fill="#242427"/>
<path d="M35.0153 25.0879C35.6582 25.0867 36.1807 24.3599 36.1824 23.4645C36.1841 22.5691 35.6643 21.8442 35.0214 21.8455C34.3786 21.8467 33.8561 22.5735 33.8544 23.4689C33.8527 24.3642 34.3725 25.0891 35.0153 25.0879Z" fill="white"/>
<path d="M36.5482 26.4355C36.8417 26.4349 37.0803 26.1024 37.0811 25.6928C37.0818 25.2832 36.8445 24.9516 36.551 24.9521C36.2575 24.9527 36.0189 25.2852 36.0181 25.6948C36.0174 26.1044 36.2547 26.4361 36.5482 26.4355Z" fill="white"/>
<path d="M42.1833 25.0879C42.8262 25.0867 43.3487 24.3599 43.3503 23.4645C43.352 22.5691 42.8322 21.8442 42.1894 21.8455C41.5465 21.8467 41.024 22.5735 41.0223 23.4689C41.0207 24.3642 41.5404 25.0891 42.1833 25.0879Z" fill="white"/>
<path d="M43.7142 26.4355C44.0077 26.4349 44.2463 26.1024 44.2471 25.6928C44.2478 25.2832 44.0105 24.9516 43.717 24.9521C43.4235 24.9527 43.1849 25.2852 43.1842 25.6948C43.1834 26.1044 43.4207 26.4361 43.7142 26.4355Z" fill="white"/>
<path d="M41.406 38.0118C37.8228 38.3701 34.691 36.514 34.4331 33.884C34.1751 31.2539 36.8768 28.8245 40.46 28.4662C44.0432 28.1078 47.1749 29.9639 47.4329 32.594C47.6909 35.2241 44.9963 37.6535 41.406 38.0118Z" fill="white" stroke="#242427" stroke-width="1.2" stroke-miterlimit="10"/>
<path d="M47.4689 32.7039C45.7418 34.1372 43.5202 31.6218 40.8829 31.887C38.2457 32.1521 37.2997 34.9398 34.1035 34.0369" stroke="#242427" stroke-width="1.2"/>
<path d="M41.8286 33.3424L43.57 32.5039L38.3242 33.0271L40.2018 33.5072C40.7467 33.6443 41.3223 33.586 41.8286 33.3424Z" fill="#242427" stroke="#242427" stroke-width="1.2" stroke-linecap="round" stroke-linejoin="round"/>
<path d="M47.2049 52.4956L50.4656 49.0988L57.0659 61.3891C57.356 62.117 57.8031 62.7718 58.3754 63.307C58.9477 63.8421 59.6311 64.2444 60.3768 64.485C63.96 65.4955 68.1595 61.7546 69.7361 56.1362C71.3127 50.5177 69.6859 45.1142 66.1027 44.1181C62.5195 43.122 58.32 46.8485 56.7434 52.4598L52.4866 46.4042C52.2718 46.0968 51.9883 45.8436 51.6587 45.6647C51.329 45.4859 50.9623 45.3862 50.5875 45.3737C50.2127 45.3612 49.8401 45.4362 49.4992 45.5926C49.1584 45.7491 48.8587 45.9828 48.6239 46.2752L44.6035 51.22" fill="white"/>
<path d="M47.2049 52.4956L50.4656 49.0988L57.0659 61.3891C57.356 62.117 57.8031 62.7718 58.3754 63.307C58.9477 63.8421 59.6311 64.2444 60.3768 64.485C63.96 65.4955 68.1595 61.7546 69.7361 56.1362C71.3127 50.5177 69.6859 45.1142 66.1027 44.1181C62.5195 43.122 58.32 46.8485 56.7434 52.4598L52.4866 46.4042C52.2718 46.0968 51.9883 45.8436 51.6587 45.6647C51.329 45.4859 50.9623 45.3862 50.5875 45.3737C50.2127 45.3612 49.8401 45.4362 49.4992 45.5926C49.1584 45.7491 48.8587 45.9828 48.6239 46.2752L44.6035 51.22" stroke="#242427" stroke-width="1.2" stroke-linecap="round" stroke-linejoin="round"/>
<path d="M59.0791 60.2663C57.9611 55.7515 60.197 47.5244 65.2135 46.0625" stroke="#242427" stroke-width="1.2" stroke-linecap="round" stroke-linejoin="round"/>
<path d="M34.3888 53.5633L37.2554 50.0374C37.4909 49.7449 37.7913 49.5112 38.1327 49.3548C38.4741 49.1983 38.8472 49.1234 39.2225 49.1359C39.5978 49.1484 39.9651 49.248 40.2953 49.4269C40.6256 49.6057 40.9097 49.8589 41.1252 50.1664L45.3176 56.2363C46.887 50.6179 51.0507 46.877 54.6769 47.8875C58.3031 48.8979 59.9155 54.2656 58.3461 59.884C56.7767 65.5025 52.613 69.2433 48.9796 68.2329C48.2337 67.9906 47.5503 67.5869 46.9781 67.0506C46.4059 66.5143 45.9588 65.8585 45.6687 65.1298L39.0685 52.8466L36.5531 55.4623C36.2993 55.7474 35.9427 55.9201 35.5617 55.9422C35.1807 55.9644 34.8065 55.8343 34.5214 55.5806C34.2363 55.3269 34.0637 54.9703 34.0415 54.5892C34.0193 54.2082 34.1494 53.834 34.4031 53.5489L34.3888 53.5633Z" fill="white" stroke="#242427" stroke-width="1.2" stroke-linecap="round" stroke-linejoin="round"/>
<path d="M47.7055 64.0131C46.5875 59.4982 48.8306 51.2784 53.8471 49.8164" stroke="#242427" stroke-width="1.2" stroke-linecap="round" stroke-linejoin="round"/>
<path d="M45.1536 59.8217C45.1536 59.8217 44.8168 59.1051 45.1536 56.8477" stroke="#242427" stroke-width="1.2" stroke-linecap="round" stroke-linejoin="round"/>
<path fill-rule="evenodd" clip-rule="evenodd" d="M15.3412 24.801L11.8081 18.3512C11.5952 18.2768 11.3694 18.2464 11.1444 18.2616C10.9194 18.2769 10.6998 18.3376 10.4989 18.4401C10.298 18.5426 10.1199 18.6847 9.97542 18.8578C9.83093 19.031 9.72302 19.2316 9.6582 19.4477L12.7254 25.7326L15.3412 24.801Z" fill="#EFEFEF" stroke="#242427" stroke-width="1.2" stroke-linecap="round" stroke-linejoin="round"/>
<path fill-rule="evenodd" clip-rule="evenodd" d="M15.8068 46.4235C15.9529 46.5119 16.1276 46.5401 16.2941 46.5023C16.8702 46.5307 17.4477 46.5139 18.0212 46.4522C19.1963 46.3536 20.2913 45.8163 21.0884 44.9472C22.5862 43.2774 24.0123 40.5614 24.2058 39.0493C24.4709 36.8993 17.1325 25.2038 15.8641 24.0643C15.1474 23.448 11.8652 23.964 11.8652 23.964L15.8068 46.4235Z" fill="#D9D9D9" stroke="#242427" stroke-width="1.2" stroke-miterlimit="10" stroke-linecap="round"/>
<path fill-rule="evenodd" clip-rule="evenodd" d="M8.11678 31.0982C7.94297 29.697 8.13557 28.2748 8.67575 26.9703C8.83392 26.569 9.04092 26.1887 9.29207 25.838C10.0087 24.8276 11.9651 23.122 13.2408 24.2686C14.5164 25.4152 21.8404 37.1251 21.5824 39.2535C21.3245 41.382 17.1894 47.3229 15.8063 46.4199C15.2252 45.9129 14.7523 45.2938 14.416 44.5997C12.2349 41.1759 10.3642 37.564 8.82625 33.8071C8.46878 32.9402 8.23013 32.029 8.11678 31.0982Z" fill="#D9D9D9" stroke="#242427" stroke-width="1.2" stroke-miterlimit="10" stroke-linecap="round"/>
<path d="M71.8165 19.2688L73.6917 19.4382M73.6917 19.4382L73.0037 21.3304M73.6917 19.4382L75.2837 20.8306M73.6917 19.4382L75.3241 18.4999M73.6917 19.4382L73.287 17.5921" stroke="#242427" stroke-width="1.2" stroke-linecap="round" stroke-linejoin="round"/>
<path d="M77.9864 21.0696L79.8617 21.239M79.8617 21.239L79.1736 23.1312M79.8617 21.239L81.4536 22.6313M79.8617 21.239L81.4941 20.3007M79.8617 21.239L79.4569 19.3929" stroke="#242427" stroke-width="1.2" stroke-linecap="round" stroke-linejoin="round"/>
<path d="M73.9067 12.0375L76.8361 12.2245M76.8361 12.2245L75.7029 14.9606M76.8361 12.2245L79.2857 14.1752M76.8361 12.2245L79.4187 10.8291M76.8361 12.2245L76.2579 9.58721" stroke="#242427" stroke-width="1.2" stroke-linecap="round" stroke-linejoin="round"/>
<path d="M66.5266 14.611L73.5207 0.99872" stroke="#242427" stroke-width="1.2" stroke-linecap="round" stroke-linejoin="round"/>
<path d="M74.193 27.4876L89.1699 25.4638" stroke="#242427" stroke-width="1.2" stroke-linecap="round" stroke-linejoin="round"/>
</svg>
