<svg width="13" height="13" viewBox="0 0 13 13" fill="none" xmlns="http://www.w3.org/2000/svg">
<path d="M12.2803 3.41786H11.5517C11.3387 3.41786 11.166 3.24552 11.166 3.03249V2.30329C11.166 2.09048 10.9933 1.91792 10.7803 1.91792H10.0517C9.83873 1.91792 9.66602 1.74536 9.66602 1.53255V0.803339C9.66602 0.590529 9.4933 0.417969 9.2803 0.417969H4.05173C3.83873 0.417969 3.66602 0.590529 3.66602 0.803339V1.53255C3.66602 1.74536 3.4933 1.91792 3.2803 1.91792H2.55173C2.33873 1.91792 2.16602 2.09048 2.16602 2.30329V3.03249C2.16602 3.24552 1.9933 3.41786 1.7803 3.41786H1.05173C0.83873 3.41786 0.666016 3.59042 0.666016 3.80323V9.03271C0.666016 9.24552 0.83873 9.41808 1.05173 9.41808H1.7803C1.9933 9.41808 2.16602 9.59042 2.16602 9.80345V10.5327C2.16602 10.7455 2.33873 10.918 2.55173 10.918H3.2803C3.4933 10.918 3.66602 11.0906 3.66602 11.3034V12.0326C3.66602 12.2454 3.83873 12.418 4.05173 12.418H9.2803C9.4933 12.418 9.66602 12.2454 9.66602 12.0326V11.3034C9.66602 11.0906 9.83873 10.918 10.0517 10.918H10.7803C10.9933 10.918 11.166 10.7455 11.166 10.5327V9.80345C11.166 9.59042 11.3387 9.41808 11.5517 9.41808H12.2803C12.4933 9.41808 12.666 9.24552 12.666 9.03271V3.80323C12.666 3.59042 12.4933 3.41786 12.2803 3.41786ZM6.66602 9.41808H5.55173C5.33873 9.41808 5.16602 9.24552 5.16602 9.03271V8.30329C5.16602 8.09048 4.9933 7.91792 4.7803 7.91792H4.05173C3.83873 7.91792 3.66602 7.74536 3.66602 7.53255V6.80334C3.66602 6.59053 3.83873 6.41797 4.05173 6.41797H4.7803C4.9933 6.41797 5.16602 6.59053 5.16602 6.80334V7.53255C5.16602 7.74536 5.33873 7.91792 5.55173 7.91792H7.7803C7.9933 7.91792 8.16602 7.74536 8.16602 7.53255V6.80334C8.16602 6.59053 8.33873 6.41797 8.55173 6.41797H9.2803C9.4933 6.41797 9.66602 6.59053 9.66602 6.80334V7.53255C9.66602 7.74536 9.4933 7.91792 9.2803 7.91792H8.55173C8.33873 7.91792 8.16602 8.09048 8.16602 8.30329V9.03271C8.16602 9.24552 7.9933 9.41808 7.7803 9.41808H6.66602ZM9.66602 3.80323V4.53265C9.66602 4.74546 9.4933 4.91802 9.2803 4.91802H8.55173C8.33873 4.91802 8.16602 4.74546 8.16602 4.53265V3.80323C8.16602 3.59042 8.33873 3.41786 8.55173 3.41786H9.2803C9.4933 3.41786 9.66602 3.59042 9.66602 3.80323ZM5.16602 3.80323V4.53265C5.16602 4.74546 4.9933 4.91802 4.7803 4.91802H4.05173C3.83873 4.91802 3.66602 4.74546 3.66602 4.53265V3.80323C3.66602 3.59042 3.83873 3.41786 4.05173 3.41786H4.7803C4.9933 3.41786 5.16602 3.59042 5.16602 3.80323Z" fill="#3FD960"/>
</svg>
