<svg width="24" height="24" viewBox="0 0 24 24" fill="none" xmlns="http://www.w3.org/2000/svg">
<path d="M5 21H19C20.66 21 22 19.66 22 18V9.5C22 7.84 20.66 6.5 19 6.5H17.34C17.14 6.5 16.95 6.38 16.88 6.19L16.76 5.89C16.3 4.75 15.2 4 13.97 4H10.03C8.8 4 7.70001 4.75 7.24001 5.89L7.12 6.19C7.04 6.38 6.86 6.5 6.66 6.5H5C3.34 6.5 2 7.84 2 9.5V18C2 19.66 3.34 21 5 21ZM17 9C17.55 9 18 9.45 18 10C18 10.55 17.55 11 17 11C16.45 11 16 10.55 16 10C16 9.45 16.45 9 17 9ZM12 9.75C14.21 9.75 16 11.54 16 13.75C16 15.96 14.21 17.75 12 17.75C9.79 17.75 8 15.96 8 13.75C8 11.54 9.79 9.75 12 9.75Z" fill="#B2B2B4"/>
<path d="M12 16.25C13.3807 16.25 14.5 15.1307 14.5 13.75C14.5 12.3693 13.3807 11.25 12 11.25C10.6193 11.25 9.5 12.3693 9.5 13.75C9.5 15.1307 10.6193 16.25 12 16.25Z" fill="#B2B2B4"/>
</svg>
