<svg width="20" height="20" viewBox="0 0 20 20" fill="none" xmlns="http://www.w3.org/2000/svg">
<path d="M9.64352 1.28347C7.57187 1.2273 1.52399 10.0363 3.86028 15.2229C3.86028 15.2229 5.68262 19.0161 10.3876 19.159C15.0926 19.3018 16.5699 15.6518 16.5699 15.6518C18.5293 11.5647 15.2016 5.83362 14.1658 5.80554C13.5937 5.79003 13.6162 6.8257 13.1581 6.81328C12.7 6.80086 12.5911 6.18332 12.0661 4.71354C11.6927 3.66835 10.4722 1.30594 9.64352 1.28347Z" fill="#FF5E5E"/>
<path d="M9.86355 10.2427C10.1476 9.97859 10.5751 9.97859 10.8591 10.2427C11.7698 11.0893 13.6113 13.0496 13.6113 15.057C13.6113 16.807 12.1947 18.307 10.3613 18.307C8.528 18.307 7.11133 16.8903 7.11133 15.057C7.11133 13.0496 8.9529 11.0893 9.86355 10.2427Z" fill="#FFA3A3"/>
</svg>
