<svg width="53" height="18" viewBox="0 0 53 18" fill="none" xmlns="http://www.w3.org/2000/svg">
<path d="M14.1679 4.695C14.1679 6.719 12.9719 7.731 11.6149 8.191V8.237C13.3399 8.536 14.8119 9.686 14.8119 12.147C14.8119 15.643 12.5809 17 9.17687 17H0.965867V0.554999H8.94687C12.3739 0.554999 14.1679 1.889 14.1679 4.695ZM5.10587 7.202H7.95787C9.10787 7.202 10.0279 6.926 10.0279 5.569C10.0279 4.212 9.10787 3.936 7.95787 3.936H5.10587V7.202ZM5.10587 9.732V13.619H8.07287C9.79787 13.619 10.6719 13.205 10.6719 11.664C10.6719 10.123 9.79787 9.732 8.07287 9.732H5.10587ZM18.0065 3.821C16.9715 3.821 16.1665 3.269 16.1665 2.188C16.1665 1.13 16.9715 0.554999 18.0065 0.554999C19.0415 0.554999 19.8465 1.13 19.8465 2.188C19.8465 3.269 19.0415 3.821 18.0065 3.821ZM16.1665 5.224H19.8465V17H16.1665V5.224ZM28.6647 4.856C31.7927 4.856 33.7937 7.248 33.7937 11.112C33.7937 14.976 31.7927 17.368 28.6647 17.368C26.9627 17.368 25.7207 16.448 25.2607 15.827H25.2147V17H21.5347V0.554999H25.2147V6.397H25.2607C25.7207 5.776 26.9627 4.856 28.6647 4.856ZM27.6987 14.608C29.1937 14.608 30.1137 13.412 30.1137 11.112C30.1137 8.812 29.1937 7.616 27.6987 7.616C26.2037 7.616 25.2837 8.812 25.2837 11.112C25.2837 13.412 26.2037 14.608 27.6987 14.608ZM42.1862 4.856C45.3142 4.856 47.3152 7.248 47.3152 11.112C47.3152 14.976 45.3142 17.368 42.1862 17.368C40.4842 17.368 39.2422 16.448 38.7822 15.827H38.7362V17H35.0562V0.554999H38.7362V6.397H38.7822C39.2422 5.776 40.4842 4.856 42.1862 4.856ZM41.2202 14.608C42.7152 14.608 43.6352 13.412 43.6352 11.112C43.6352 8.812 42.7152 7.616 41.2202 7.616C39.7252 7.616 38.8052 8.812 38.8052 11.112C38.8052 13.412 39.7252 14.608 41.2202 14.608ZM50.4177 3.821C49.3827 3.821 48.5777 3.269 48.5777 2.188C48.5777 1.13 49.3827 0.554999 50.4177 0.554999C51.4527 0.554999 52.2577 1.13 52.2577 2.188C52.2577 3.269 51.4527 3.821 50.4177 3.821ZM48.5777 5.224H52.2577V17H48.5777V5.224Z" fill="#E8E8E8"/>
</svg>
