<svg width="336" height="337" viewBox="0 0 336 337" fill="none" xmlns="http://www.w3.org/2000/svg">
<rect x="0.5" y="1" width="335" height="335" rx="16" fill="#2F2F32"/>
<rect x="0.5" y="1" width="335" height="335" rx="16" stroke="#515155" stroke-dasharray="9 9"/>
<path d="M170.375 144.625V126.5H166.625V144.625C166.625 146 165.5 147.125 164.125 147.125H146V150.875H164.125C165.5 150.875 166.625 152 166.625 153.375V171.5H170.375V153.375C170.375 152 171.5 150.875 172.875 150.875H191V147.125H172.875C171.5 147.125 170.375 146 170.375 144.625Z" fill="#B2B2B4"/>
<path d="M132.955 198.467V200.031C132.955 202 132.955 204.224 132.375 207.625L130.969 207.484C131.602 204.285 131.602 201.947 131.602 200.031V199.609H122.18V198.467H132.955ZM120.633 210.121V208.979H134.871V210.121H120.633ZM150.18 204.531V205.674H143.677V207.625H142.323V205.674H135.872V204.531H150.18ZM137.682 198.203V197.131H148.335V200.699H139.106V202.211H148.669V203.283H137.735V199.662H146.946V198.203H137.682ZM137.788 212.213V206.676H139.159V208.434H146.946V206.676H148.317V212.213H137.788ZM139.159 211.123H146.946V209.488H139.159V211.123ZM160.022 199.908C160.031 201.64 161.235 203.389 163.239 204.145L162.518 205.199C161.015 204.619 159.934 203.503 159.371 202.158C158.8 203.644 157.675 204.971 156.137 205.639L155.381 204.566C157.438 203.67 158.695 201.648 158.704 199.908V197.781H160.022V199.908ZM158.229 209.611C158.211 207.845 160.215 206.808 163.467 206.816C166.702 206.808 168.714 207.845 168.723 209.611C168.714 211.36 166.702 212.389 163.467 212.389C160.215 212.389 158.211 211.36 158.229 209.611ZM159.6 209.611C159.582 210.675 161.068 211.325 163.467 211.316C165.84 211.325 167.334 210.675 167.352 209.611C167.334 208.53 165.84 207.88 163.467 207.871C161.068 207.88 159.582 208.53 159.6 209.611ZM163.942 205.973V197.113H165.243V201.016H167.317V196.814H168.635V206.465H167.317V202.158H165.243V205.973H163.942ZM175.999 199.258C175.982 201.49 177.572 203.45 179.866 204.232L179.093 205.305C177.37 204.663 176.017 203.389 175.34 201.745C174.672 203.617 173.248 205.067 171.359 205.779L170.603 204.654C173.011 203.811 174.611 201.736 174.628 199.311V197.693H175.999V199.258ZM173.152 209.471C173.143 207.59 175.138 206.509 178.39 206.518C181.633 206.509 183.628 207.59 183.628 209.471C183.628 211.334 181.633 212.389 178.39 212.389C175.138 212.389 173.143 211.334 173.152 209.471ZM174.523 209.471C174.514 210.604 175.99 211.29 178.39 211.281C180.78 211.29 182.257 210.604 182.257 209.471C182.257 208.302 180.78 207.607 178.39 207.607C175.99 207.607 174.514 208.302 174.523 209.471ZM178.706 201.297V200.154H182.187V196.797H183.575V206.061H182.187V201.297H178.706ZM197.971 196.797V203.248H200.59V204.391H197.971V212.424H196.6V196.797H197.971ZM185.789 200.453V199.311H189.814V196.99H191.186V199.311H195.088V200.453H185.789ZM186.686 205.34C186.677 203.23 188.294 201.754 190.518 201.754C192.724 201.754 194.332 203.23 194.35 205.34C194.332 207.458 192.724 208.926 190.518 208.926C188.294 208.926 186.677 207.458 186.686 205.34ZM188.004 205.34C187.995 206.764 189.059 207.766 190.518 207.748C191.959 207.766 193.014 206.764 193.031 205.34C193.014 203.925 191.959 202.905 190.518 202.914C189.059 202.905 187.995 203.925 188.004 205.34ZM214.054 196.797V212.424H212.665V196.797H214.054ZM201.327 208.363C205.554 206.359 207.717 203.362 208.024 199.627H202.048V198.502H209.43C209.413 202.993 207.321 206.975 202.083 209.488L201.327 208.363Z" fill="#D3D3D3"/>
</svg>
