<svg width="40" height="40" viewBox="0 0 40 40" fill="none" xmlns="http://www.w3.org/2000/svg">
<path d="M20 40C31.0457 40 40 31.0457 40 20C40 8.95431 31.0457 0 20 0C8.9543 0 0 8.95431 0 20C0 31.0457 8.9543 40 20 40Z" fill="#242427"/>
<path d="M28.089 2.22346C28.089 2.22346 28.089 2.22346 28.089 2.23325C28.4806 2.83041 29.019 3.31988 29.6651 3.65273C29.8022 3.75062 29.9588 3.79957 30.1253 3.79957C30.2917 3.79957 30.4581 3.75062 30.5952 3.65273C31.2021 3.30031 31.721 2.82062 32.1027 2.24304C32.2496 2.03746 32.3377 1.80251 32.3573 1.55777C32.3768 1.30324 32.3377 1.0585 32.2202 0.823555C32.1125 0.598396 31.9363 0.402606 31.7307 0.265552C31.5252 0.11871 31.2804 0.0306038 31.0357 0.00123526C31.0161 0.00123526 31.0063 0.00123526 30.9867 0.00123526C30.7714 0.00123526 30.5658 0.0403935 30.37 0.128499C30.2721 0.177447 30.184 0.226394 30.0959 0.294921C30.0078 0.226394 29.9197 0.177447 29.8218 0.128499C29.6358 0.0403935 29.4204 -0.00855426 29.2148 0.00123526C28.7058 0.00123526 28.2457 0.275342 28.0107 0.706081C27.766 1.14661 27.766 1.70461 28.089 2.22346Z" fill="#FFE6CA"/>
<path d="M36.8453 8.84858C37.1879 8.60384 37.7068 8.24163 38.2158 7.8011C38.7249 7.36057 39.2437 6.80257 39.5766 6.17604C40.5066 4.39434 39.4298 2.45602 37.746 2.44623C37.3935 2.43644 37.0411 2.50496 36.7278 2.6616C36.5027 2.76928 36.3069 2.91613 36.1307 3.10213C35.9545 2.9357 35.7587 2.78886 35.5433 2.68118C35.23 2.52454 34.8972 2.44623 34.5448 2.44623C32.8512 2.44623 31.7743 4.45308 32.7043 6.18583C33.0372 6.81236 33.5658 7.36057 34.0651 7.8011C34.5741 8.25142 35.093 8.61363 35.4356 8.84858C35.6412 8.98563 35.8762 9.05416 36.1209 9.05416C36.3656 9.05416 36.6006 8.98563 36.8062 8.84858H36.8453Z" fill="#FFC98D"/>
<path d="M27.9306 20.5687C27.7055 20.7155 27.4314 20.7938 27.1573 20.7938C26.8832 20.7938 26.6188 20.7155 26.3839 20.5687C25.0427 19.6778 22.4779 17.8961 21.3423 15.811C19.7955 13.0405 21.6556 10.1624 24.0148 10.1624C24.5337 10.1624 25.0427 10.2799 25.5126 10.5051C25.9727 10.7302 26.3839 11.0533 26.6972 11.4546C26.7559 11.5232 26.8244 11.5819 26.9027 11.6211C26.9811 11.6602 27.0692 11.6798 27.1573 11.6798C27.2454 11.6798 27.3335 11.6602 27.4216 11.6211C27.4999 11.5819 27.5684 11.5232 27.6272 11.4546C27.9208 11.0435 28.3222 10.7008 28.7921 10.4757C29.262 10.2505 29.7809 10.1428 30.2997 10.1624C32.6688 10.1624 34.519 12.9329 32.9722 15.811C31.8367 17.8961 29.2718 19.6778 27.9306 20.5687Z" fill="#FF5E5E"/>
<path d="M13.6279 20.5687C13.4027 20.7155 13.1286 20.7938 12.8545 20.7938C12.5804 20.7938 12.3161 20.7155 12.0812 20.5687C10.74 19.6778 8.17514 17.8961 7.03955 15.811C5.49281 13.0405 7.35282 10.1624 9.71209 10.1624C10.2309 10.1624 10.74 10.2799 11.2099 10.5051C11.67 10.7302 12.0812 11.0533 12.3944 11.4546C12.4532 11.5232 12.5217 11.5819 12.6 11.6211C12.6783 11.6602 12.7664 11.6798 12.8545 11.6798C12.9426 11.6798 13.0307 11.6602 13.1188 11.6211C13.1972 11.5819 13.2657 11.5232 13.3244 11.4546C13.6181 11.0435 14.0195 10.7008 14.4894 10.4757C14.9593 10.2505 15.4781 10.1428 15.997 10.1624C18.366 10.1624 20.2163 12.9329 18.6695 15.811C17.5437 17.8961 14.9691 19.6778 13.6279 20.5687Z" fill="#FF5E5E"/>
<path d="M19.9877 23.2985C19.9877 23.2985 19.9779 23.2985 19.9681 23.2985H19.9975C19.9975 23.2985 19.9877 23.2985 19.9779 23.2985C23.4238 23.3083 24.9412 26.4214 26.9579 25.2369C26.9579 25.139 26.9774 25.0509 26.9774 24.953C26.9774 21.8986 23.8546 19.4219 19.9975 19.4219C16.1404 19.4219 13.0176 21.8986 13.0176 24.953C13.0176 25.0509 13.0274 25.1487 13.0372 25.2466C15.0342 26.3822 16.5516 23.2985 19.9779 23.2887L19.9877 23.2985Z" fill="#F5F378"/>
<path d="M19.9877 23.2969C16.5613 23.2969 15.0439 26.3904 13.0469 25.2548C13.2427 28.1721 16.2774 30.4922 20.0072 30.4922C23.737 30.4922 26.7816 28.1623 26.9676 25.2352C24.9509 26.4295 23.4434 23.3067 19.9877 23.2969Z" fill="#F5F378"/>
<path d="M19.9877 23.2969C16.5613 23.2969 15.0439 26.3904 13.0469 25.2548C13.2427 28.1721 16.2774 30.4922 20.0072 30.4922C23.737 30.4922 26.7816 28.1623 26.9676 25.2352C24.9509 26.4295 23.4434 23.3067 19.9877 23.2969Z" fill="black" fill-opacity="0.2"/>
<path d="M17.0702 24.08C17.0311 24.1877 17.0115 24.3052 17.0506 24.4227C17.3933 25.6072 18.568 26.4099 19.9777 26.4099C21.3874 26.4099 22.5621 25.617 22.9048 24.4227C22.9439 24.2954 22.9244 24.1779 22.8754 24.0605C22.0727 23.6395 21.1427 23.2969 19.9973 23.2969C18.8323 23.2969 17.8925 23.6591 17.08 24.08H17.0702Z" fill="#4F4E17"/>
</svg>
