<svg width="335" height="56" viewBox="0 0 335 56" fill="none" xmlns="http://www.w3.org/2000/svg">
<rect width="335" height="56" rx="8" fill="#FEE500"/>
<g clip-path="url(#clip0_1268_66853)">
<path fill-rule="evenodd" clip-rule="evenodd" d="M100 19.5996C95.0292 19.5996 91 22.7126 91 26.5519C91 28.9396 92.5584 31.0446 94.9315 32.2966L93.933 35.9441C93.8448 36.2664 94.2134 36.5233 94.4965 36.3365L98.8733 33.4478C99.2427 33.4835 99.6181 33.5043 100 33.5043C104.97 33.5043 109 30.3914 109 26.5519C109 22.7126 104.97 19.5996 100 19.5996Z" fill="black"/>
</g>
<path d="M125.789 21.7383C125.78 26.5371 124.471 30.6592 118.617 33.5684L117.545 32.0918C120.296 30.7383 121.939 29.1475 122.862 27.2666L117.914 27.7324L117.668 26.0449L123.451 25.6846C123.653 24.9375 123.785 24.1553 123.847 23.3203H118.494V21.7383H125.789ZM128.021 36.0293V20.1738H129.973V26.3965H132.328V27.9961H129.973V36.0293H128.021ZM141.046 21.7383C141.037 26.5371 139.727 30.6592 133.874 33.5684L132.802 32.0918C135.553 30.7383 137.196 29.1475 138.119 27.2666L133.171 27.7324L132.925 26.0449L138.708 25.6846C138.91 24.9375 139.042 24.1553 139.103 23.3203H133.751V21.7383H141.046ZM143.278 36.0293V20.1738H145.229V26.3965H147.585V27.9961H145.229V36.0293H143.278ZM155.265 21.0703C158.675 21.0791 161.198 22.7754 161.189 25.3594C161.198 27.7412 159.15 29.332 156.232 29.6221V32.5312H162.56V34.1309H148.041V32.5312H154.298V29.6221C151.416 29.332 149.368 27.7412 149.377 25.3594C149.368 22.7754 151.881 21.0791 155.265 21.0703ZM151.293 25.3594C151.284 27.0732 152.945 28.1016 155.265 28.1016C157.621 28.1016 159.273 27.0732 159.273 25.3594C159.273 23.6982 157.621 22.6436 155.265 22.6523C152.945 22.6436 151.284 23.6982 151.293 25.3594ZM177.817 32.6016V34.2188H163.297V32.6016H169.555V30.0176H165.02V24.8145H174.161V22.8457H164.985V21.2637H176.094V26.3613H166.971V28.418H176.463V30.0176H171.489V32.6016H177.817ZM196.236 20.1738V36.0645H194.373V20.1738H196.236ZM182.367 31.3184C185.654 29.376 187.166 26.8887 187.465 23.6895H183.211V22.1074H189.398C189.398 22.9072 189.346 23.6895 189.231 24.4453H191.086V20.5605H192.949V35.3086H191.086V30H188.607V28.4004H191.086V26.0449H188.897C188.142 28.6816 186.489 30.9492 183.51 32.707L182.367 31.3184ZM212.266 27.9785V29.5605H197.782V27.9785H204.04V25.7637H205.973V27.9785H212.266ZM198.573 25.1484C201.851 24.7354 204.005 22.9336 204.005 21.0352V20.4375H205.991V21.0352C205.991 22.9775 208.127 24.7354 211.44 25.1484L210.684 26.6777C208.083 26.2822 206 25.1045 204.989 23.4346C203.97 25.0957 201.895 26.2822 199.276 26.6777L198.573 25.1484ZM199.382 32.3555V30.8262H210.491V36.0645H208.54V32.3555H199.382ZM225.484 20.1738V26.502H227.927V28.1191H225.484V36.0645H223.55V20.1738H225.484ZM212.951 24.1816V22.6172H216.713V20.4023H218.664V22.6172H222.32V24.1816H212.951ZM213.689 28.9629C213.671 26.7656 215.377 25.21 217.697 25.2188C219.982 25.21 221.678 26.7656 221.687 28.9629C221.678 31.1514 219.982 32.6895 217.697 32.6895C215.377 32.6895 213.671 31.1514 213.689 28.9629ZM215.552 28.9629C215.544 30.2549 216.449 31.0811 217.697 31.0723C218.919 31.0811 219.806 30.2549 219.824 28.9629C219.806 27.6709 218.919 26.8184 217.697 26.8184C216.449 26.8184 215.544 27.6709 215.552 28.9629ZM241.567 20.1738V36.0645H239.598V20.1738H241.567ZM228.401 31.6875C232.567 29.71 234.483 27.0205 234.834 23.4082H229.209V21.8613H236.821C236.821 26.5898 234.984 30.6064 229.42 33.252L228.401 31.6875Z" fill="black" fill-opacity="0.85"/>
<defs>
<clipPath id="clip0_1268_66853">
<rect width="17.9999" height="18" fill="white" transform="translate(91 19)"/>
</clipPath>
</defs>
</svg>
