<svg width="172" height="172" viewBox="0 0 172 172" fill="none" xmlns="http://www.w3.org/2000/svg">
<path d="M158.999 39.8235H157.819V38.6436C157.819 31.9731 152.395 26.549 145.725 26.549H144.545V25.3691C144.545 18.6986 139.121 13.2745 132.45 13.2745H131.27V12.0946C131.27 5.42411 125.846 0 119.176 0H51.9181C45.2477 0 39.8235 5.42411 39.8235 12.0946V13.2745H38.6436C31.9731 13.2745 26.549 18.6986 26.549 25.3691V26.549H25.3691C18.6986 26.549 13.2745 31.9731 13.2745 38.6436V39.8235H12.0946C5.42411 39.8235 0 45.2477 0 51.9181V119.176C0 125.846 5.42411 131.27 12.0946 131.27H13.2745V132.45C13.2745 139.121 18.6986 144.545 25.3691 144.545H26.549V145.725C26.549 152.395 31.9731 157.819 38.6436 157.819H39.8235V158.999C39.8235 165.67 45.2477 171.094 51.9181 171.094H119.176C125.846 171.094 131.27 165.67 131.27 158.999V157.819H132.45C139.121 157.819 144.545 152.395 144.545 145.725V144.545H145.725C152.395 144.545 157.819 139.121 157.819 132.45V131.27H158.999C165.67 131.27 171.094 125.846 171.094 119.176V51.9181C171.094 45.2477 165.67 39.8235 158.999 39.8235Z" fill="#353538"/>
<path d="M158.998 45.722H154.765C153.194 45.722 151.918 44.4462 151.918 42.8753V38.6422C151.918 35.2204 149.145 32.4475 145.723 32.4475H141.49C139.919 32.4475 138.644 31.1716 138.644 29.6008V25.3677C138.644 21.9459 135.871 19.173 132.449 19.173H128.216C126.645 19.173 125.369 17.8971 125.369 16.3263V12.0932C125.369 8.67134 122.596 5.89844 119.174 5.89844H51.9168C48.4949 5.89844 45.722 8.67134 45.722 12.0932V16.3263C45.722 17.8971 44.4462 19.173 42.8753 19.173H38.6422C35.2204 19.173 32.4475 21.9459 32.4475 25.3677V29.6008C32.4475 31.1716 31.1716 32.4475 29.6008 32.4475H25.3677C21.9459 32.4475 19.173 35.2204 19.173 38.6422V42.8753C19.173 44.4462 17.8971 45.722 16.3263 45.722H12.0932C8.67134 45.722 5.89844 48.4949 5.89844 51.9168V119.174C5.89844 122.596 8.67134 125.369 12.0932 125.369H16.3263C17.8971 125.369 19.173 126.645 19.173 128.216V132.449C19.173 135.871 21.9459 138.644 25.3677 138.644H29.6008C31.1716 138.644 32.4475 139.919 32.4475 141.49V145.723C32.4475 149.145 35.2204 151.918 38.6422 151.918H42.8753C44.4462 151.918 45.722 153.194 45.722 154.765V158.998C45.722 162.42 48.4949 165.193 51.9168 165.193H119.174C122.596 165.193 125.369 162.42 125.369 158.998V154.765C125.369 153.194 126.645 151.918 128.216 151.918H132.449C135.871 151.918 138.644 149.145 138.644 145.723V141.49C138.644 139.919 139.919 138.644 141.49 138.644H145.723C149.145 138.644 151.918 135.871 151.918 132.449V128.216C151.918 126.645 153.194 125.369 154.765 125.369H158.998C162.42 125.369 165.193 122.596 165.193 119.174V51.9168C165.193 48.4949 162.42 45.722 158.998 45.722ZM144.838 125.369C141.416 125.369 138.644 128.142 138.644 131.564V135.797C138.644 137.368 137.368 138.644 135.797 138.644H131.564C128.142 138.644 125.369 141.416 125.369 144.838V149.071C125.369 150.642 124.093 151.918 122.522 151.918H48.5686C46.9978 151.918 45.722 150.642 45.722 149.071V144.838C45.722 141.416 42.9491 138.644 39.5272 138.644H35.2941C33.7233 138.644 32.4475 137.368 32.4475 135.797V131.564C32.4475 128.142 29.6746 125.369 26.2527 125.369H22.0196C20.4488 125.369 19.173 124.093 19.173 122.522V48.5686C19.173 46.9978 20.4488 45.722 22.0196 45.722H26.2527C29.6746 45.722 32.4475 42.9491 32.4475 39.5272V35.2941C32.4475 33.7233 33.7233 32.4475 35.2941 32.4475H39.5272C42.9491 32.4475 45.722 29.6746 45.722 26.2527V22.0196C45.722 20.4488 46.9978 19.173 48.5686 19.173H122.522C124.093 19.173 125.369 20.4488 125.369 22.0196V26.2527C125.369 29.6746 128.142 32.4475 131.564 32.4475H135.797C137.368 32.4475 138.644 33.7233 138.644 35.2941V39.5272C138.644 42.9491 141.416 45.722 144.838 45.722H149.071C150.642 45.722 151.918 46.9978 151.918 48.5686V122.522C151.918 124.093 150.642 125.369 149.071 125.369H144.838Z" fill="#242427"/>
<path d="M105.9 45.7227H105.015C101.593 45.7227 98.8203 48.4956 98.8203 51.9174V66.0769C98.8203 69.4988 101.593 72.2717 105.015 72.2717H105.9C109.322 72.2717 112.095 69.4988 112.095 66.0769V51.9174C112.095 48.4956 109.322 45.7227 105.9 45.7227Z" fill="#242427"/>
<path d="M92.6257 85.5449H78.4663C75.0444 85.5449 72.2715 88.3178 72.2715 91.7397V132.448C72.2715 135.87 75.0444 138.643 78.4663 138.643H92.6257C96.0476 138.643 98.8205 135.87 98.8205 132.448V91.7397C98.8205 88.3178 96.0476 85.5449 92.6257 85.5449Z" fill="#242427"/>
<path d="M72.2706 65.1919V51.9174C72.2706 48.4956 69.4977 45.7227 66.0758 45.7227H65.1909C61.769 45.7227 58.9961 48.4956 58.9961 51.9174V66.0769C58.9961 69.4988 61.769 72.2717 65.1909 72.2717H66.0758C69.4977 72.2717 72.2706 69.4988 72.2706 66.0769V65.1919Z" fill="#242427"/>
</svg>
