<svg width="16" height="16" viewBox="0 0 16 16" fill="none" xmlns="http://www.w3.org/2000/svg">
<g clip-path="url(#clip0_6276_140432)">
<path d="M7.05188 2.22633C5.16868 4.10953 5.14668 7.14073 7.00308 8.99673C8.85908 10.8527 11.8903 10.8307 13.7735 8.94793C15.6567 7.06473 15.6787 4.03353 13.8227 2.17753C11.9667 0.321532 8.93548 0.343532 7.05228 2.22673L7.05188 2.22633ZM10.5635 3.26873C11.1707 2.66153 12.1479 2.65433 12.7463 3.25313C13.3447 3.85193 13.3375 4.82873 12.7307 5.43593C12.1239 6.04313 11.1463 6.05033 10.5479 5.45153C9.94948 4.85313 9.95668 3.87593 10.5635 3.26873Z" fill="#F5F378"/>
<path d="M4.83118 14.0653L3.96838 13.2025C3.73438 12.9685 3.73438 12.5885 3.96838 12.3541C4.20238 12.1197 4.58238 12.1201 4.81678 12.3541L5.67958 13.2169L6.52798 12.3685L5.66518 11.5053C5.43118 11.2713 5.43118 10.8913 5.66518 10.6569C5.89918 10.4225 6.27918 10.4229 6.51358 10.6569L7.37638 11.5197L10.0756 8.82045L7.17798 5.92285L1.40078 11.7009C0.600781 12.5009 0.600781 13.7981 1.40078 14.5985C2.20078 15.3985 3.49798 15.3985 4.29838 14.5985L4.83118 14.0653Z" fill="#F5F378"/>
</g>
<defs>
<clipPath id="clip0_6276_140432">
<rect width="16" height="16" fill="white"/>
</clipPath>
</defs>
</svg>
