<svg width="24" height="24" viewBox="0 0 24 24" fill="none" xmlns="http://www.w3.org/2000/svg">
<path d="M19.2305 2H5.23047C3.57047 2 2.23047 3.34 2.23047 5V6.25H22.2305V5C22.2305 3.34 20.8905 2 19.2305 2Z" fill="#B2B2B4"/>
<path d="M2.23047 19C2.23047 20.66 3.57047 22 5.23047 22H19.2305C20.8905 22 22.2305 20.66 22.2305 19V7.75H2.23047V19ZM18.2305 9.88C18.7805 9.88 19.2305 10.33 19.2305 10.88C19.2305 11.43 18.7805 11.88 18.2305 11.88C17.6805 11.88 17.2305 11.43 17.2305 10.88C17.2305 10.33 17.6805 9.88 18.2305 9.88ZM18.2305 13.88C18.7805 13.88 19.2305 14.33 19.2305 14.88C19.2305 15.43 18.7805 15.88 18.2305 15.88C17.6805 15.88 17.2305 15.43 17.2305 14.88C17.2305 14.33 17.6805 13.88 18.2305 13.88ZM14.2305 9.88C14.7805 9.88 15.2305 10.33 15.2305 10.88C15.2305 11.43 14.7805 11.88 14.2305 11.88C13.6805 11.88 13.2305 11.43 13.2305 10.88C13.2305 10.33 13.6805 9.88 14.2305 9.88ZM14.2305 13.88C14.7805 13.88 15.2305 14.33 15.2305 14.88C15.2305 15.43 14.7805 15.88 14.2305 15.88C13.6805 15.88 13.2305 15.43 13.2305 14.88C13.2305 14.33 13.6805 13.88 14.2305 13.88ZM14.2305 17.88C14.7805 17.88 15.2305 18.33 15.2305 18.88C15.2305 19.43 14.7805 19.88 14.2305 19.88C13.6805 19.88 13.2305 19.43 13.2305 18.88C13.2305 18.33 13.6805 17.88 14.2305 17.88ZM10.2305 9.88C10.7805 9.88 11.2305 10.33 11.2305 10.88C11.2305 11.43 10.7805 11.88 10.2305 11.88C9.68047 11.88 9.23047 11.43 9.23047 10.88C9.23047 10.33 9.68047 9.88 10.2305 9.88ZM10.2305 13.88C10.7805 13.88 11.2305 14.33 11.2305 14.88C11.2305 15.43 10.7805 15.88 10.2305 15.88C9.68047 15.88 9.23047 15.43 9.23047 14.88C9.23047 14.33 9.68047 13.88 10.2305 13.88ZM10.2305 17.88C10.7805 17.88 11.2305 18.33 11.2305 18.88C11.2305 19.43 10.7805 19.88 10.2305 19.88C9.68047 19.88 9.23047 19.43 9.23047 18.88C9.23047 18.33 9.68047 17.88 10.2305 17.88ZM6.23047 13.88C6.78047 13.88 7.23047 14.33 7.23047 14.88C7.23047 15.43 6.78047 15.88 6.23047 15.88C5.68047 15.88 5.23047 15.43 5.23047 14.88C5.23047 14.33 5.68047 13.88 6.23047 13.88ZM6.23047 17.88C6.78047 17.88 7.23047 18.33 7.23047 18.88C7.23047 19.43 6.78047 19.88 6.23047 19.88C5.68047 19.88 5.23047 19.43 5.23047 18.88C5.23047 18.33 5.68047 17.88 6.23047 17.88Z" fill="#B2B2B4"/>
</svg>
