<svg width="43" height="43" viewBox="0 0 43 43" fill="none" xmlns="http://www.w3.org/2000/svg">
<circle cx="21.5" cy="21.5" r="21.5" fill="black" fill-opacity="0.3"/>
<path d="M11.9654 20.4801C12.5215 20.4801 12.9203 20.0608 12.9203 19.5052V18.6247L12.7104 14.9665L15.4701 17.87L18.702 21.1195C18.8804 21.3082 19.1112 21.392 19.3631 21.392C19.9612 21.392 20.4019 21.0042 20.4019 20.4172C20.4019 20.1342 20.3075 19.8826 20.1186 19.6939L16.8762 16.4654L13.9696 13.7086L17.6422 13.9182H18.5131C19.0693 13.9182 19.4995 13.5304 19.4995 12.9644C19.4995 12.3983 19.0797 12 18.5131 12H12.6894C11.6191 12 11 12.6184 11 13.6876V19.5052C11 20.0503 11.4092 20.4801 11.9654 20.4801ZM23.4764 32H29.3001C30.3704 32 31 31.3816 31 30.3124V24.4948C31 23.9497 30.5908 23.5199 30.0241 23.5199C29.4785 23.5199 29.0693 23.9392 29.0693 24.4948V25.3753L29.2896 29.0335L26.5194 26.13L23.298 22.8805C23.1196 22.6918 22.8783 22.608 22.6264 22.608C22.0388 22.608 21.5876 22.9958 21.5876 23.5828C21.5876 23.8658 21.6925 24.1174 21.8814 24.3061L25.1133 27.5346L28.0304 30.2914L24.3578 30.0818H23.4764C22.9203 30.0818 22.49 30.4696 22.49 31.0356C22.49 31.6017 22.9203 32 23.4764 32Z" fill="white"/>
</svg>
