<svg width="22" height="27" viewBox="0 0 22 27" fill="none" xmlns="http://www.w3.org/2000/svg">
<path d="M0.80961 24.0642L4.33086 17.0442L10.5634 19.2717L6.68211 27.0004L4.81461 23.6029L0.787109 24.0417H0.798362L0.80961 24.0642Z" fill="#515155"/>
<path d="M20.4842 24.0642L16.963 17.0442L10.7305 19.2717L14.6117 27.0004L16.4792 23.6029L20.5067 24.0417H20.4955L20.4842 24.0642Z" fill="#515155"/>
<path d="M10.5187 21.0263C16.3237 21.0263 21.0375 16.3238 21.0375 10.5075C21.0375 4.69125 16.3237 0 10.5187 0C4.71375 0 0 4.7025 0 10.5188C0 16.335 4.7025 21.0375 10.5187 21.0375V21.0263Z" fill="#7B7B7E"/>
<path d="M10.5388 15.0975C8.97508 15.0975 7.94008 14.4675 7.41133 13.545C7.33258 13.41 7.29883 13.2075 7.29883 13.0162C7.29883 12.4537 7.76008 11.9925 8.33383 11.9925C8.76133 11.9925 9.11008 12.2625 9.27883 12.6338C9.53758 13.2075 9.94258 13.455 10.5276 13.455C11.3038 13.455 11.7988 12.9825 11.7988 12.3187C11.7988 11.5762 11.2363 11.2837 10.4713 11.2837H10.2688C9.75133 11.2837 9.42508 10.89 9.42508 10.44C9.42508 9.99 9.75133 9.6075 10.2688 9.6075H10.4713C11.0901 9.6075 11.6076 9.315 11.6076 8.58375C11.6076 7.93125 11.1351 7.57125 10.5388 7.57125C9.99883 7.57125 9.61633 7.81875 9.39133 8.29125C9.24508 8.62875 8.89633 8.8875 8.50258 8.8875C7.95133 8.8875 7.51258 8.44875 7.51258 7.90875C7.51258 7.7175 7.56883 7.56 7.64758 7.4025C8.17633 6.49125 9.17758 5.90625 10.6401 5.90625C12.5526 5.90625 13.6776 6.9525 13.6776 8.2575C13.6776 9.2925 13.0701 9.93375 12.2151 10.2263V10.26C13.2838 10.5075 13.9138 11.3287 13.9138 12.4087C13.9138 13.8937 12.6088 15.075 10.5163 15.075L10.5388 15.0975Z" fill="#D3D3D3"/>
</svg>
