<svg width="15" height="16" viewBox="0 0 15 16" fill="none" xmlns="http://www.w3.org/2000/svg">
<g clip-path="url(#clip0_4630_34732)">
<path d="M7.5 0.5C3.36136 0.5 0 3.86136 0 8C0 12.1386 3.36136 15.5 7.5 15.5C11.6386 15.5 15 12.1455 15 8C15 3.85455 11.6455 0.5 7.5 0.5Z" fill="#F5F378"/>
<path d="M9.49226 5C10.0513 5 10.5013 5.45 10.5013 6.00909C10.5013 6.56818 10.0513 7.01818 9.49226 7.01818C8.93317 7.01818 8.48317 6.56818 8.48317 6.00909C8.48317 5.45 8.93317 5 9.49226 5ZM5.65362 5C6.21271 5 6.66271 5.45 6.66271 6.00909C6.66271 6.56818 6.21271 7.01818 5.65362 7.01818C5.09453 7.01818 4.64453 6.56818 4.64453 6.00909C4.64453 5.45 5.09453 5 5.65362 5Z" fill="#191F28"/>
<path d="M7.49884 11.7224C5.68521 11.7224 4.16475 10.6588 3.82384 9.24059C3.74884 8.92013 4.05566 8.62695 4.45112 8.62695H10.5602C10.9557 8.62695 11.2625 8.92013 11.1875 9.24059C10.8398 10.652 9.32612 11.7224 7.51248 11.7224H7.49884Z" fill="#FF5E5E"/>
</g>
<defs>
<clipPath id="clip0_4630_34732">
<rect width="15" height="15" fill="white" transform="translate(0 0.5)"/>
</clipPath>
</defs>
</svg>
