<svg width="24" height="24" viewBox="0 0 24 24" fill="none" xmlns="http://www.w3.org/2000/svg">
<path d="M1.19327 12.0139C1.01111 12.2733 0.957716 12.5018 1.03309 12.6994C1.11475 12.8971 1.32517 12.9959 1.66436 12.9959H2.89864C3.02427 14.1076 3.34776 15.1482 3.86911 16.1179C4.39046 17.0875 5.06256 17.9367 5.88541 18.6655C6.70826 19.3942 7.64104 19.9655 8.68374 20.3793C9.72644 20.7931 10.8319 21 12.0003 21C13.3382 21 14.5913 20.7283 15.7596 20.1848C16.928 19.6413 17.9267 18.9125 18.7558 17.9985C18.9443 17.8008 19.0322 17.5878 19.0196 17.3592C19.0134 17.1307 18.9223 16.9454 18.7464 16.8034C18.5642 16.6552 18.3632 16.5934 18.1434 16.6181C17.9298 16.6366 17.732 16.7385 17.5498 16.9238C16.8714 17.6711 16.0517 18.264 15.0907 18.7025C14.1359 19.141 13.1058 19.3603 12.0003 19.3603C11.0455 19.3603 10.1473 19.1966 9.30559 18.8693C8.46389 18.5481 7.71013 18.0973 7.04431 17.5167C6.38477 16.9362 5.84144 16.263 5.41431 15.4972C4.99346 14.7313 4.72337 13.8976 4.60402 12.9959H5.93252C6.26543 12.9959 6.47271 12.8971 6.55437 12.6994C6.63603 12.5018 6.58578 12.2764 6.40362 12.0232L4.33078 9.15131C4.18003 8.93515 4.00101 8.82707 3.79373 8.82707C3.59273 8.82707 3.41371 8.93515 3.25668 9.15131L1.19327 12.0139ZM5.26356 5.99228C5.06884 6.18991 4.97462 6.40299 4.9809 6.6315C4.99346 6.86001 5.08768 7.04529 5.26356 7.18734C5.43944 7.32939 5.6373 7.39115 5.85714 7.37262C6.07699 7.35409 6.27799 7.25219 6.46015 7.06691C7.13853 6.32578 7.9551 5.73906 8.90986 5.30674C9.86462 4.86825 10.8948 4.649 12.0003 4.649C12.955 4.649 13.8533 4.80957 14.695 5.13073C15.5367 5.45188 16.2873 5.90273 16.9468 6.48327C17.6126 7.05764 18.156 7.73083 18.5768 8.50283C19.0039 9.27483 19.2772 10.1086 19.3965 11.0041H18.068C17.7414 11.0041 17.5341 11.1029 17.4462 11.3006C17.3582 11.4982 17.4085 11.7236 17.5969 11.9768L19.6603 14.8487C19.8111 15.0587 19.9901 15.1668 20.1974 15.1729C20.4047 15.1729 20.5837 15.0648 20.7344 14.8487L22.8073 11.9861C22.9957 11.7267 23.046 11.4982 22.958 11.3006C22.8764 11.1029 22.6691 11.0041 22.3362 11.0041H21.0925C20.9669 9.89243 20.6434 8.85178 20.122 7.88214C19.6069 6.91251 18.938 6.0633 18.1151 5.33453C17.2923 4.60576 16.3595 4.03448 15.3168 3.62069C14.2741 3.2069 13.1686 3 12.0003 3C10.6686 3 9.41865 3.27174 8.25033 3.81523C7.08828 4.35255 6.09269 5.07823 5.26356 5.99228Z" fill="#B2B2B4"/>
</svg>
