<svg width="24" height="24" viewBox="0 0 24 24" fill="none" xmlns="http://www.w3.org/2000/svg">
<path d="M16.066 2H7.934C7.048 2 6.284 2 5.672 2.082C5.017 2.17 4.389 2.369 3.879 2.879C3.369 3.388 3.17 4.017 3.082 4.672C3 5.284 3 6.048 3 6.934V7.95C3 8.21522 3.10536 8.46957 3.29289 8.65711C3.48043 8.84464 3.73478 8.95 4 8.95C4.26522 8.95 4.51957 8.84464 4.70711 8.65711C4.89464 8.46957 5 8.21522 5 7.95V7C5 6.029 5.002 5.4 5.064 4.939C5.123 4.505 5.217 4.369 5.293 4.293C5.369 4.217 5.505 4.123 5.939 4.064C6.401 4.002 7.029 4 8 4H11V20H7C6.44772 20 6 20.4477 6 21C6 21.5523 6.44772 22 7 22H17C17.5523 22 18 21.5523 18 21C18 20.4477 17.5523 20 17 20H13V4H16C16.971 4 17.6 4.002 18.061 4.064C18.495 4.123 18.631 4.217 18.707 4.293C18.783 4.369 18.877 4.505 18.936 4.939C18.998 5.401 19 6.029 19 7V7.95C19 8.21522 19.1054 8.46957 19.2929 8.65711C19.4804 8.84464 19.7348 8.95 20 8.95C20.2652 8.95 20.5196 8.84464 20.7071 8.65711C20.8946 8.46957 21 8.21522 21 7.95V6.934C21 6.048 21 5.284 20.918 4.672C20.83 4.017 20.631 3.389 20.121 2.879C19.612 2.369 18.983 2.17 18.328 2.082C17.716 2 16.952 2 16.066 2Z" fill="#B2B2B4"/>
</svg>
