<svg width="65" height="57" viewBox="0 0 65 57" fill="none" xmlns="http://www.w3.org/2000/svg">
<path d="M21.8008 31.8354L22.8235 20.5859L26.6172 22.728L29.4709 28.7673L21.8008 31.8354Z" fill="white" stroke="#242427" stroke-width="1.6" stroke-linecap="round" stroke-linejoin="round"/>
<path d="M63.7295 1.66406L12.5957 13.9362L26.4018 22.1176L33.5606 37.4577L63.7295 1.66406Z" fill="white" stroke="#242427" stroke-width="1.6" stroke-linecap="round" stroke-linejoin="round"/>
<path d="M26.4004 22.1174C28.9571 20.2425 34.4829 16.7715 37.0705 15.4766" stroke="#242427" stroke-width="1.6" stroke-linecap="round" stroke-linejoin="round"/>
<path d="M40.7681 13.0465C45.7506 10.5272 56.4377 4.42058 63.2165 1.6646" stroke="#242427" stroke-width="1.6" stroke-linecap="round" stroke-linejoin="round"/>
<path d="M57.5013 32.254C57.1745 31.2638 55.7715 31.2704 55.4539 32.2636L54.8622 34.1142L52.9193 34.1233C51.8766 34.1282 51.4493 35.4645 52.2957 36.0734L53.8729 37.2081L53.2811 39.0587C52.9636 40.0519 54.1024 40.8712 54.9431 40.2544L56.5096 39.105L58.0868 40.2397C58.9333 40.8486 60.0644 40.0187 59.7376 39.0285L59.1285 37.1835L60.695 36.0341C61.5357 35.4173 61.096 34.0851 60.0533 34.0899L58.1103 34.099L57.5013 32.254Z" fill="#D9D9D9" stroke="#242427" stroke-width="1.6"/>
<path d="M40.6738 47.0582L44.4531 48.2517M44.4531 48.2517L42.1856 51.8321M44.4531 48.2517L47.0987 51.8321M44.4531 48.2517L48.2324 47.0582M44.4531 48.2517V44.2734" stroke="#242427" stroke-width="1.6" stroke-linecap="round" stroke-linejoin="round"/>
<path d="M3.1287 55.9943C3.85799 49.6159 8.93854 35.9611 15.4107 38.0432C18.1477 38.9236 16.957 42.4711 13.8575 42.4711C10.2581 42.4711 10.1716 35.0881 18.6997 32.7527" stroke="#242427" stroke-width="1.6" stroke-linecap="round" stroke-linejoin="round"/>
</svg>
