<svg width="42" height="44" viewBox="0 0 42 44" fill="none" xmlns="http://www.w3.org/2000/svg">
<path d="M20 44C31.0457 44 40 35.0457 40 24C40 12.9543 31.0457 4 20 4C8.9543 4 0 12.9543 0 24C0 35.0457 8.9543 44 20 44Z" fill="#242427"/>
<path d="M15.2636 25.4015C17.8966 25.4015 20.0311 22.2546 20.0311 18.3726C20.0311 14.4907 17.8966 11.3438 15.2636 11.3438C12.6306 11.3438 10.4961 14.4907 10.4961 18.3726C10.4961 22.2546 12.6306 25.4015 15.2636 25.4015Z" fill="white"/>
<path d="M24.8085 25.4015C27.4415 25.4015 29.576 22.2546 29.576 18.3726C29.576 14.4907 27.4415 11.3438 24.8085 11.3438C22.1755 11.3438 20.041 14.4907 20.041 18.3726C20.041 22.2546 22.1755 25.4015 24.8085 25.4015Z" fill="white"/>
<path d="M12.8809 18.8866V18.8866C14.0282 17.0222 16.7382 17.0222 17.8855 18.8866V18.8866" stroke="#1A1A1A" stroke-width="1.8" stroke-linecap="round"/>
<path d="M21.8184 19.1092V19.1092C22.9657 17.2448 25.6757 17.2448 26.823 19.1092V19.1092" stroke="#1A1A1A" stroke-width="1.8" stroke-linecap="round"/>
<path d="M20.0191 27.1931C20.0191 27.1931 20.0191 27.1931 20.0093 27.1931H20.0288C20.0288 27.1931 20.0288 27.1931 20.0191 27.1931C22.6916 27.2028 23.8663 30.3159 25.4327 29.1314C25.4327 29.0335 25.4424 28.9454 25.4424 28.8475C25.4424 25.7932 23.0244 23.3164 20.0288 23.3164C17.0332 23.3164 14.6152 25.7932 14.6152 28.8475C14.6152 28.9454 14.6152 29.0433 14.625 29.1412C16.1718 30.2768 17.3465 27.1931 20.0093 27.1833L20.0191 27.1931Z" fill="#F5F378"/>
<path d="M20.019 27.1914C17.3563 27.1914 16.1815 30.2849 14.6348 29.1493C14.7914 32.0666 17.1409 34.3867 20.0288 34.3867C22.9167 34.3867 25.2858 32.0568 25.4326 29.1297C23.8663 30.3241 22.7013 27.2012 20.019 27.1914Z" fill="#F5F378"/>
<path d="M20.019 27.1914C17.3563 27.1914 16.1815 30.2849 14.6348 29.1493C14.7914 32.0666 17.1409 34.3867 20.0288 34.3867C22.9167 34.3867 25.2858 32.0568 25.4326 29.1297C23.8663 30.3241 22.7013 27.2012 20.019 27.1914Z" fill="black" fill-opacity="0.2"/>
<path d="M17.7587 27.9746C17.7293 28.0823 17.7098 28.1997 17.7391 28.3172C18.0035 29.5017 18.9139 30.3045 20.0103 30.3045C21.1067 30.3045 22.0172 29.5115 22.2815 28.3172C22.3108 28.1899 22.2913 28.0725 22.2619 27.955C21.6354 27.534 20.9109 27.1914 20.0299 27.1914C19.1292 27.1914 18.395 27.5536 17.7685 27.9746H17.7587Z" fill="#4F4E17"/>
<path d="M22.1895 29.179H33.9464C36.2898 29.179 38.1895 27.2793 38.1895 24.936V24.3516C38.1895 21.9111 35.9117 20.1099 33.5369 20.6725L32.4971 20.9188C31.2837 21.2063 30.4603 22.3344 30.5564 23.5777V23.5777C30.6678 25.018 31.9597 26.0734 33.3933 25.8951L33.7323 25.8529" stroke="#FF99B1" stroke-width="2.5" stroke-linecap="round"/>
<path d="M38.5 3.5L29.09 6.06256C28.3669 6.26125 27.8934 6.96939 28.0207 7.7081C28.4178 10.0414 31.9619 13.5872 34.2889 13.9795C35.0273 14.1068 35.735 13.628 35.9336 12.9096L38.5 3.5Z" fill="#FF99B1"/>
<path d="M36.4947 1.75966L36.0019 2.0004C35.949 2.02208 35.8899 2.02427 35.8355 2.00655C35.7812 1.98884 35.7352 1.95243 35.7062 1.9041L35.4598 1.42263C35.4377 1.37099 35.4354 1.31323 35.4535 1.26009C35.4717 1.20695 35.5089 1.16206 35.5584 1.13375L36.0512 0.893017C36.104 0.871336 36.1632 0.869147 36.2175 0.88686C36.2719 0.904572 36.3179 0.940979 36.3469 0.989311L36.5932 1.47078C36.619 1.52192 36.6231 1.58092 36.6047 1.63499C36.5862 1.68906 36.5467 1.73386 36.4947 1.75966Z" fill="#8CD5FE"/>
<path d="M40.0912 9.22178L40.239 8.69217C40.248 8.66687 40.2512 8.63996 40.2484 8.61333C40.2455 8.5867 40.2368 8.561 40.2227 8.53804C40.2086 8.51508 40.1895 8.49543 40.1668 8.48046C40.144 8.4655 40.1182 8.45559 40.0912 8.45143L39.5491 8.30699C39.5232 8.29821 39.4957 8.29509 39.4684 8.29785C39.4412 8.3006 39.4149 8.30917 39.3914 8.32295C39.3679 8.33672 39.3477 8.35537 39.3324 8.37757C39.3171 8.39977 39.307 8.42498 39.3027 8.45143L39.1549 8.9329C39.1459 8.95819 39.1427 8.98511 39.1455 9.01174C39.1483 9.03837 39.1571 9.06407 39.1712 9.08703C39.1853 9.10998 39.2044 9.12964 39.2271 9.1446C39.2498 9.15957 39.2756 9.16948 39.3027 9.17364L39.8448 9.31808C39.9433 9.41437 40.0419 9.36622 40.0912 9.22178Z" fill="#FFC98D"/>
<path d="M38.9552 3.78071C39.0429 3.78071 39.1287 3.75529 39.2016 3.70768C39.2746 3.66007 39.3314 3.59239 39.365 3.51321C39.3985 3.43403 39.4073 3.3469 39.3902 3.26285C39.3731 3.17879 39.3309 3.10158 39.2688 3.04098C39.2068 2.98038 39.1278 2.93911 39.0417 2.92239C38.9557 2.90567 38.8665 2.91425 38.7855 2.94705C38.7045 2.97984 38.6352 3.03538 38.5865 3.10664C38.5377 3.1779 38.5117 3.26168 38.5117 3.34738C38.5117 3.46231 38.5584 3.57253 38.6416 3.65379C38.7248 3.73505 38.8376 3.78071 38.9552 3.78071Z" fill="#7FEC93"/>
<path d="M30.09 5.65961C30.1777 5.65961 30.2635 5.6342 30.3364 5.58659C30.4093 5.53897 30.4662 5.4713 30.4997 5.39212C30.5333 5.31294 30.5421 5.22581 30.525 5.14175C30.5079 5.0577 30.4656 4.98049 30.4036 4.91989C30.3416 4.85928 30.2625 4.81801 30.1765 4.8013C30.0905 4.78458 30.0013 4.79316 29.9203 4.82595C29.8392 4.85875 29.77 4.91429 29.7212 4.98555C29.6725 5.05681 29.6465 5.14059 29.6465 5.22629C29.6465 5.34122 29.6932 5.45143 29.7764 5.5327C29.8596 5.61396 29.9724 5.65961 30.09 5.65961Z" fill="#FFC98D"/>
<path d="M36.294 11.3405C36.4012 11.3405 36.506 11.3094 36.5952 11.2512C36.6843 11.193 36.7538 11.1103 36.7948 11.0135C36.8358 10.9168 36.8466 10.8103 36.8257 10.7075C36.8047 10.6048 36.7531 10.5104 36.6773 10.4364C36.6015 10.3623 36.5049 10.3119 36.3998 10.2914C36.2946 10.271 36.1856 10.2815 36.0866 10.3216C35.9875 10.3616 35.9029 10.4295 35.8433 10.5166C35.7837 10.6037 35.752 10.7061 35.752 10.8109C35.752 10.8804 35.766 10.9493 35.7932 11.0135C35.8205 11.0778 35.8604 11.1362 35.9107 11.1854C35.9611 11.2345 36.0208 11.2736 36.0866 11.3002C36.1523 11.3268 36.2228 11.3405 36.294 11.3405Z" fill="#F5F378"/>
</svg>
