<svg width="23" height="22" viewBox="0 0 23 22" fill="none" xmlns="http://www.w3.org/2000/svg">
<g id="icon_chat">
<path id="Vector" fill-rule="evenodd" clip-rule="evenodd" d="M16.0085 11.6847C15.8204 11.6895 15.6333 11.6565 15.4581 11.5878C15.2829 11.5191 15.1233 11.416 14.9886 11.2846C14.8539 11.1532 14.7469 10.9962 14.6738 10.8228C14.6007 10.6493 14.5631 10.4631 14.5632 10.2749C14.5633 10.0867 14.601 9.90049 14.6742 9.72713C14.7473 9.55377 14.8545 9.39682 14.9892 9.26551C15.124 9.13421 15.2837 9.03122 15.4589 8.9626C15.6341 8.89399 15.8213 8.86114 16.0094 8.866C16.377 8.87549 16.7263 9.02821 16.9829 9.29158C17.2394 9.55495 17.383 9.90814 17.3829 10.2758C17.3827 10.6435 17.239 10.9966 16.9822 11.2598C16.7255 11.523 16.3761 11.6755 16.0085 11.6847ZM11.504 11.6847C11.3158 11.6895 11.1285 11.6565 10.9532 11.5877C10.778 11.519 10.6182 11.4158 10.4834 11.2843C10.3486 11.1528 10.2415 10.9957 10.1684 10.8222C10.0953 10.6487 10.0577 10.4623 10.0578 10.274C10.0578 10.0857 10.0956 9.89933 10.1688 9.72586C10.242 9.55239 10.3492 9.39533 10.4841 9.26394C10.619 9.13256 10.7788 9.02949 10.9541 8.96083C11.1294 8.89217 11.3167 8.85931 11.5049 8.86417C11.8727 8.87366 12.2223 9.02648 12.479 9.29002C12.7358 9.55356 12.8794 9.90698 12.8793 10.2749C12.8791 10.6428 12.7353 10.9962 12.4784 11.2595C12.2215 11.5229 11.8718 11.6755 11.504 11.6847ZM6.99859 11.6847C6.81049 11.6895 6.62333 11.6565 6.44817 11.5878C6.273 11.5191 6.11336 11.416 5.97867 11.2846C5.84397 11.1532 5.73694 10.9962 5.66388 10.8228C5.59082 10.6493 5.55321 10.4631 5.55328 10.2749C5.55334 10.0867 5.59106 9.90049 5.66424 9.72713C5.73741 9.55377 5.84454 9.39682 5.97932 9.26551C6.11411 9.13421 6.27381 9.03122 6.44902 8.9626C6.62423 8.89399 6.81141 8.86114 6.99951 8.866C7.36707 8.87549 7.71639 9.02821 7.97296 9.29158C8.22953 9.55495 8.37306 9.90814 8.37294 10.2758C8.37282 10.6435 8.22906 10.9966 7.97232 11.2598C7.71558 11.523 7.36616 11.6755 6.99859 11.6847ZM11.4435 1.375C6.09659 1.375 1.74609 5.3295 1.74609 10.1906C1.74609 12.2714 2.62609 15.103 5.07726 16.9308L4.78851 19.9503C4.77767 20.0616 4.79731 20.1737 4.84533 20.2747C4.89335 20.3756 4.96795 20.4616 5.06111 20.5234C5.15427 20.5852 5.2625 20.6205 5.37418 20.6255C5.48587 20.6304 5.5968 20.6049 5.69509 20.5517L8.84018 18.8595C9.23159 18.8998 10.3811 19.0062 11.4435 19.0062C16.7904 19.0062 21.1409 15.0517 21.1409 10.1906C21.1409 5.3295 16.7904 1.375 11.4435 1.375Z" fill="#E8E8E8"/>
</g>
</svg>
