<svg width="24" height="24" viewBox="0 0 24 24" fill="none" xmlns="http://www.w3.org/2000/svg">
<path d="M2.80668 15.09C3.43668 16.33 3.76668 17.59 3.81668 18.88C3.83668 19.41 3.81668 19.96 3.80668 20.45C3.78668 20.9 4.28668 21.17 4.62668 20.88C4.78668 20.74 4.95668 20.6 5.12668 20.47C5.64668 20.08 6.22668 19.81 6.86668 19.66C7.50668 19.51 8.14668 19.52 8.79668 19.68C9.81668 19.97 10.8767 20.13 11.9867 20.18C17.5067 20.18 21.9867 16.35 21.9867 11.6C21.9867 6.85 17.5167 3 11.9967 3C10.4767 3 9.03668 3.28 7.68668 3.85C6.01668 4.53 4.69668 5.5 3.72668 6.76C2.76668 8.01 2.20668 9.38 2.04668 10.86C1.88668 12.34 2.13668 13.75 2.81668 15.09H2.80668Z" fill="#B2B2B4"/>
</svg>
