<svg width="24" height="24" viewBox="0 0 24 24" fill="none" xmlns="http://www.w3.org/2000/svg">
<path d="M21.2488 10.1579L19.6572 9.78754C19.3268 9.70746 19.0766 9.46722 18.9465 9.16692L18.9264 9.12688C18.7963 8.81657 18.8063 8.46622 18.9865 8.17593L19.8474 6.79455C20.0976 6.40416 20.0375 5.88364 19.7072 5.55331L18.466 4.31207C18.1356 3.98174 17.6251 3.92168 17.2347 4.17193L15.8434 5.03279C15.5531 5.21297 15.2027 5.22298 14.8924 5.09285L14.8524 5.07283C14.5421 4.9427 14.3018 4.69245 14.2317 4.36212L13.8614 2.78054C13.7513 2.33009 13.3509 2.00977 12.8904 2.00977H11.1386C10.6782 2.00977 10.2678 2.33009 10.1677 2.78054L9.79731 4.37213C9.71723 4.70246 9.47699 4.95271 9.17669 5.08284L9.13665 5.10286C8.82634 5.23299 8.47599 5.22298 8.1857 5.0428L6.80432 4.18194C6.41393 3.93169 5.89341 3.99175 5.56307 4.32208L4.32183 5.56332C3.9915 5.89365 3.93144 6.40416 4.18169 6.79455L5.04255 8.18594C5.22273 8.47623 5.23274 8.82658 5.10261 9.13689L5.08259 9.17693C4.95246 9.48724 4.70221 9.72748 4.37188 9.79755L2.7903 10.1679C2.33985 10.278 2.01953 10.6784 2.01953 11.1389V12.8906C2.01953 13.3511 2.33985 13.7615 2.7903 13.8616L4.38189 14.232C4.71222 14.3121 4.96247 14.5523 5.0926 14.8526L5.11262 14.8926C5.24275 15.203 5.23274 15.5533 5.05256 15.8436L4.1917 17.225C3.94145 17.6154 4.00151 18.1359 4.33184 18.4662L5.57308 19.7075C5.90342 20.0378 6.41393 20.0979 6.80432 19.8476L8.19571 18.9867C8.486 18.8066 8.83635 18.7966 9.14666 18.9267L9.1867 18.9467C9.49701 19.0768 9.73725 19.3271 9.80732 19.6574L10.1777 21.239C10.2878 21.6894 10.6882 22.0098 11.1487 22.0098H12.9004C13.3609 22.0098 13.7713 21.6894 13.8714 21.239L14.2418 19.6474C14.3218 19.3171 14.5621 19.0668 14.8624 18.9367L14.9024 18.9167C15.2127 18.7865 15.5631 18.7966 15.8534 18.9767L17.2347 19.8376C17.6251 20.0878 18.1457 20.0278 18.476 19.6975L19.7172 18.4562C20.0476 18.1259 20.1076 17.6154 19.8574 17.225L18.9965 15.8336C18.8163 15.5433 18.8063 15.1929 18.9364 14.8826L18.9565 14.8426C19.0866 14.5323 19.3368 14.292 19.6672 14.222L21.2488 13.8516C21.6992 13.7415 22.0195 13.3411 22.0195 12.8806V11.1289C22.0195 10.6684 21.6992 10.258 21.2488 10.1579ZM12.0095 15.7635C9.93745 15.7635 8.25577 14.0818 8.25577 12.0098C8.25577 9.93769 9.93745 8.25601 12.0095 8.25601C14.0816 8.25601 15.7633 9.93769 15.7633 12.0098C15.7633 14.0818 14.0816 15.7635 12.0095 15.7635Z" fill="#B2B2B4"/>
</svg>
