<svg width="430" height="90" viewBox="0 0 430 90" fill="none" xmlns="http://www.w3.org/2000/svg">
<g clip-path="url(#clip0_6075_110084)">
<rect width="430" height="90" fill="#F5F378"/>
<path d="M32.2188 21.9688H33.4844V18.5781H34.9062V28.0469H30.7969V18.5781H32.2188V21.9688ZM33.4844 26.6406V23.3281H32.2188V26.6406H33.4844ZM37.2031 21.9688H38.4219V18.5781H39.8125V28.0469H35.7656V18.5781H37.2031V21.9688ZM38.4219 26.6406V23.3281H37.2031V26.6406H38.4219ZM42.6406 31.3906H40.9688V17.2656H42.6406V31.3906ZM45.7469 21.9688H47.0125V18.5781H48.4344V28.0469H44.325V18.5781H45.7469V21.9688ZM47.0125 26.6406V23.3281H45.7469V26.6406H47.0125ZM50.7312 21.9688H51.95V18.5781H53.3406V28.0469H49.2937V18.5781H50.7312V21.9688ZM51.95 26.6406V23.3281H50.7312V26.6406H51.95ZM56.1687 31.3906H54.4969V17.2656H56.1687V31.3906ZM68.5875 22.7812H70.6812V24.2344H68.5875V31.3594H66.8531V17.2656H68.5875V22.7812ZM64.8531 18.7344C64.8531 23.3698 62.7125 26.7396 58.4312 28.8438L57.4469 27.5C59.1656 26.6458 60.4911 25.612 61.4234 24.3984C62.3609 23.1849 62.9182 21.776 63.0953 20.1719H58.2125V18.7344H64.8531ZM81.6906 19.9688H76.9875V26.5469C78.1437 26.5365 79.1411 26.5 79.9797 26.4375C80.8182 26.375 81.6594 26.2656 82.5031 26.1094L82.6906 27.5156C81.7479 27.7031 80.8104 27.8281 79.8781 27.8906C78.9458 27.9531 77.774 27.9844 76.3625 27.9844H75.2375V18.5469H81.6906V19.9688ZM86.4094 31.4062H84.675V23.6562H80.9406V22.2344H84.675V17.2656H86.4094V31.4062ZM103.184 20.1406H104.716V21.5625H103.184V24.6094H101.481V17.2656H103.184V20.1406ZM93.2469 19.625H94.4031V17.9062H95.825V24.0469H91.825V17.9062H93.2469V19.625ZM94.4031 22.6875V20.9688H93.2469V22.6875H94.4031ZM97.95 19.625H99.075V17.9062H100.513V24.0469H96.5281V17.9062H97.95V19.625ZM99.075 22.6875V20.9688H97.95V22.6875H99.075ZM103.184 28.7656H95.3875V29.8906H103.653V31.2656H93.6688V27.5H101.481V26.5H93.6531V25.1406H103.184V28.7656ZM116.869 31.4062H115.15V17.2656H116.869V31.4062ZM112.525 23.7969H107.666V26.6406C108.858 26.6302 109.952 26.5885 110.947 26.5156C111.947 26.4427 112.968 26.3177 114.009 26.1406L114.166 27.5625C113.046 27.7604 111.944 27.8932 110.861 27.9609C109.778 28.0286 108.53 28.0625 107.119 28.0625H105.884V22.4219H110.759V19.9062H105.869V18.5H112.525V23.7969ZM133.456 19.0156C133.456 19.7656 133.438 20.4219 133.402 20.9844C133.37 21.5469 133.29 22.1615 133.159 22.8281H134.972V24.2188H122.159V22.8281H131.433C131.516 22.3854 131.584 21.9193 131.636 21.4297L123.566 21.7656L123.363 20.4219L131.706 20.2188C131.717 19.9896 131.722 19.6562 131.722 19.2188H123.722V17.8438H133.456V19.0156ZM133.534 28.7969H125.331V29.8594H134.034V31.2188H123.613V27.5312H131.8V26.5625H123.581V25.2344H133.534V28.7969ZM146.512 18.4375C146.512 19.0312 146.721 19.6094 147.137 20.1719C147.559 20.7344 148.148 21.2161 148.903 21.6172C149.664 22.0182 150.533 22.2812 151.512 22.4062L150.825 23.8125C149.637 23.6354 148.585 23.2708 147.669 22.7188C146.752 22.1615 146.062 21.4818 145.598 20.6797C145.135 21.4818 144.447 22.1615 143.536 22.7188C142.624 23.2708 141.58 23.6354 140.403 23.8125L139.716 22.4062C140.684 22.2812 141.546 22.0182 142.302 21.6172C143.057 21.2161 143.643 20.7344 144.059 20.1719C144.476 19.6094 144.684 19.0312 144.684 18.4375V17.7188H146.512V18.4375ZM152.028 26.4688H146.419V31.3906H144.7V26.4688H139.153V25.0312H152.028V26.4688ZM161.194 26.4531C161.194 27.0729 161.34 27.6667 161.631 28.2344C161.928 28.7969 162.366 29.263 162.944 29.6328C163.527 29.237 163.972 28.7526 164.28 28.1797C164.587 27.6016 164.746 27.026 164.756 26.4531V25.875H166.459V26.4531C166.454 26.9583 166.551 27.4375 166.748 27.8906C166.946 28.3438 167.248 28.7448 167.655 29.0938C168.066 29.4427 168.574 29.7135 169.178 29.9062L168.334 31.1719C167.662 30.9479 167.095 30.6224 166.631 30.1953C166.168 29.7682 165.808 29.2656 165.553 28.6875C165.314 29.2708 164.978 29.7891 164.545 30.2422C164.118 30.7005 163.6 31.0521 162.991 31.2969C162.345 31.0625 161.803 30.724 161.366 30.2812C160.928 29.8385 160.592 29.3229 160.358 28.7344C160.103 29.2917 159.746 29.7786 159.287 30.1953C158.834 30.6172 158.287 30.9427 157.647 31.1719L156.787 29.9062C157.376 29.6979 157.873 29.4141 158.28 29.0547C158.686 28.6901 158.991 28.2839 159.194 27.8359C159.397 27.388 159.501 26.9271 159.506 26.4531V25.875H161.194V26.4531ZM167.944 25.2812H166.194V17.2812H167.944V25.2812ZM160.241 18.0312C160.959 18.0312 161.608 18.1745 162.186 18.4609C162.764 18.7422 163.217 19.138 163.545 19.6484C163.873 20.1589 164.037 20.7396 164.037 21.3906C164.037 22.0365 163.873 22.6146 163.545 23.125C163.217 23.6302 162.764 24.026 162.186 24.3125C161.608 24.5938 160.959 24.7344 160.241 24.7344C159.517 24.7344 158.866 24.5938 158.287 24.3125C157.709 24.026 157.254 23.6302 156.92 23.125C156.592 22.6146 156.428 22.0365 156.428 21.3906C156.428 20.7396 156.592 20.1589 156.92 19.6484C157.254 19.138 157.709 18.7422 158.287 18.4609C158.866 18.1745 159.517 18.0312 160.241 18.0312ZM160.241 19.5C159.829 19.5 159.462 19.5781 159.139 19.7344C158.821 19.8906 158.571 20.112 158.389 20.3984C158.212 20.6797 158.126 21.0104 158.131 21.3906C158.126 21.7708 158.212 22.1042 158.389 22.3906C158.571 22.6771 158.821 22.901 159.139 23.0625C159.462 23.2188 159.829 23.2969 160.241 23.2969C160.647 23.2969 161.006 23.2188 161.319 23.0625C161.636 22.9062 161.884 22.6849 162.061 22.3984C162.243 22.1068 162.334 21.7708 162.334 21.3906C162.334 21.0104 162.246 20.6797 162.069 20.3984C161.892 20.112 161.644 19.8906 161.327 19.7344C161.009 19.5781 160.647 19.5 160.241 19.5ZM181.175 25.0625H176.988V28.2969H182.613V29.7188H169.706V28.2969H175.269V25.0625H171.269V18.3125H181.066V19.7031H173.003V23.6875H181.175V25.0625ZM196.125 26.3125H183.219V24.9062H188.812V23.7344H184.859V19.9844H192.797V18.9375H184.812V17.5781H194.531V21.25H186.578V22.375H194.812V23.7344H190.531V24.9062H196.125V26.3125ZM194.609 31.2969H192.859V28.5781H184.656V27.2031H194.609V31.2969ZM37.75 46.8906H43.3594V48.2969H30.4531V46.8906H36.0312V45.4688H37.75V46.8906ZM42.1875 42.9844H38.1406C38.25 43.3229 38.5052 43.6354 38.9062 43.9219C39.3073 44.2083 39.8333 44.4479 40.4844 44.6406C41.1406 44.8281 41.8906 44.9479 42.7344 45L42.1875 46.2969C40.8802 46.1979 39.7656 45.9349 38.8438 45.5078C37.9219 45.0807 37.276 44.5339 36.9062 43.8672C36.5365 44.5339 35.888 45.0807 34.9609 45.5078C34.0391 45.9297 32.9271 46.1927 31.625 46.2969L31.0625 45C31.8854 44.9531 32.6224 44.8359 33.2734 44.6484C33.9297 44.4557 34.4583 44.2161 34.8594 43.9297C35.2656 43.638 35.5286 43.3229 35.6484 42.9844H31.6406V41.6562H42.1875V42.9844ZM42.1406 51.1875H31.6406V49.875H36.0156V48.7344H37.7656V49.875H42.1406V51.1875ZM36.875 51.7031C38.2552 51.7031 39.3203 51.862 40.0703 52.1797C40.8255 52.4974 41.2031 52.9583 41.2031 53.5625C41.2031 54.1719 40.8255 54.6354 40.0703 54.9531C39.3203 55.276 38.2552 55.4375 36.875 55.4375C35.4896 55.4375 34.4271 55.2786 33.6875 54.9609C32.9479 54.6432 32.5781 54.1771 32.5781 53.5625C32.5781 52.9583 32.9479 52.4974 33.6875 52.1797C34.4271 51.862 35.4896 51.7031 36.875 51.7031ZM36.875 52.875C36.0365 52.875 35.4062 52.9297 34.9844 53.0391C34.5677 53.1484 34.3594 53.3229 34.3594 53.5625C34.3594 54.0417 35.1979 54.2812 36.875 54.2812C38.5469 54.2812 39.3906 54.0417 39.4062 53.5625C39.401 53.3229 39.1901 53.1484 38.7734 53.0391C38.3568 52.9297 37.724 52.875 36.875 52.875ZM56.8719 49.9531H43.9969V48.5625H56.8719V49.9531ZM55.4187 55.1094H45.5906V51H47.325V53.7031H55.4187V55.1094ZM50.4187 41.7188C51.4396 41.7188 52.3328 41.8333 53.0984 42.0625C53.8641 42.2917 54.4552 42.6224 54.8719 43.0547C55.2937 43.4818 55.5073 43.9896 55.5125 44.5781C55.5073 45.1719 55.2937 45.6875 54.8719 46.125C54.4552 46.5573 53.8641 46.8906 53.0984 47.125C52.3328 47.3542 51.4396 47.4688 50.4187 47.4688C49.3979 47.4688 48.5021 47.3542 47.7312 47.125C46.9656 46.8906 46.3719 46.5573 45.95 46.125C45.5333 45.6875 45.325 45.1719 45.325 44.5781C45.325 43.9896 45.5333 43.4818 45.95 43.0547C46.3719 42.6224 46.9656 42.2917 47.7312 42.0625C48.5021 41.8333 49.3979 41.7188 50.4187 41.7188ZM50.4187 43.1094C49.3875 43.1094 48.5802 43.2396 47.9969 43.5C47.4187 43.7552 47.1323 44.1146 47.1375 44.5781C47.1323 44.8906 47.2599 45.1589 47.5203 45.3828C47.7859 45.6068 48.1635 45.776 48.6531 45.8906C49.1479 46 49.7365 46.0521 50.4187 46.0469C51.4552 46.0573 52.2625 45.9349 52.8406 45.6797C53.424 45.4193 53.7156 45.0521 53.7156 44.5781C53.7156 44.1094 53.424 43.7474 52.8406 43.4922C52.2625 43.237 51.4552 43.1094 50.4187 43.1094ZM72.85 49.4688H71.1156V46.0469H68.6781V44.625H71.1156V41.2656H72.85V49.4688ZM72.85 55.2188H63.4594V50.0781H72.85V55.2188ZM65.1938 53.8125H71.1469V51.4531H65.1938V53.8125ZM66.2094 43.5938C66.2094 44.1719 66.337 44.7344 66.5922 45.2812C66.8474 45.8281 67.225 46.3203 67.725 46.7578C68.225 47.1953 68.8292 47.5365 69.5375 47.7812L68.6625 49.1562C67.8917 48.8906 67.225 48.5052 66.6625 48C66.1052 47.4948 65.6677 46.901 65.35 46.2188C65.0271 46.974 64.5714 47.6302 63.9828 48.1875C63.3943 48.7396 62.6938 49.151 61.8813 49.4219L60.9906 48.0625C61.7198 47.8177 62.3422 47.4635 62.8578 47C63.3786 46.5365 63.7719 46.0104 64.0375 45.4219C64.3083 44.8281 64.4438 44.2135 64.4438 43.5781V43.4688H61.5063V42.0625H69.1313V43.4688H66.2094V43.5938ZM75.9875 57.2656H74.5031L75.3156 52.8906H77.3L75.9875 57.2656ZM85.6219 42.2969C86.3302 42.2969 86.9604 42.5026 87.5125 42.9141C88.0646 43.3203 88.4969 43.901 88.8094 44.6562C89.1271 45.4062 89.2885 46.2812 89.2938 47.2812C89.2885 48.2917 89.1271 49.1745 88.8094 49.9297C88.4969 50.6849 88.0646 51.2656 87.5125 51.6719C86.9604 52.0781 86.3302 52.2812 85.6219 52.2812C84.9083 52.2812 84.2729 52.0781 83.7156 51.6719C83.1583 51.2604 82.7234 50.6771 82.4109 49.9219C82.0984 49.1667 81.9448 48.2865 81.95 47.2812C81.9448 46.2865 82.0984 45.4115 82.4109 44.6562C82.7234 43.901 83.1583 43.3203 83.7156 42.9141C84.2729 42.5026 84.9083 42.2969 85.6219 42.2969ZM85.6219 43.8594C85.226 43.8594 84.8771 43.9974 84.575 44.2734C84.2729 44.5443 84.0385 44.9375 83.8719 45.4531C83.7052 45.9635 83.6219 46.5729 83.6219 47.2812C83.6219 47.9948 83.7052 48.6094 83.8719 49.125C84.0385 49.6406 84.2729 50.0365 84.575 50.3125C84.8771 50.5833 85.226 50.7188 85.6219 50.7188C86.0229 50.7188 86.3745 50.5833 86.6766 50.3125C86.9786 50.0365 87.2104 49.6406 87.3719 49.125C87.5385 48.6094 87.6219 47.9948 87.6219 47.2812C87.6219 46.5729 87.5385 45.9609 87.3719 45.4453C87.2104 44.9297 86.9786 44.5365 86.6766 44.2656C86.3745 43.9948 86.0229 43.8594 85.6219 43.8594ZM92.8875 46.6875H95.0594V48.1562H92.8875V55.3906H91.1531V41.2656H92.8875V46.6875ZM100.9 42.6406C100.895 43.1562 101.02 43.6406 101.275 44.0938C101.535 44.5469 101.921 44.9427 102.431 45.2812C102.947 45.6146 103.577 45.8646 104.322 46.0312L103.525 47.4062C102.692 47.1979 101.978 46.8828 101.384 46.4609C100.791 46.0339 100.335 45.5208 100.017 44.9219C99.6891 45.5885 99.2203 46.1615 98.6109 46.6406C98.0068 47.1146 97.2802 47.4635 96.4313 47.6875L95.6031 46.3281C96.3479 46.1458 96.9807 45.8698 97.5016 45.5C98.0276 45.1302 98.4234 44.7005 98.6891 44.2109C98.9547 43.7161 99.0875 43.1927 99.0875 42.6406V41.8594H100.9V42.6406ZM107.166 55.375H105.447V41.2812H107.166V55.375ZM95.3688 48.7031C97.1083 48.7031 98.7307 48.6745 100.236 48.6172C101.746 48.5599 103.176 48.4375 104.525 48.25L104.65 49.4844C103.494 49.7083 102.254 49.8698 100.931 49.9688V54.9531H99.1813V50.0703C98.1708 50.1068 96.9729 50.125 95.5875 50.125L95.3688 48.7031ZM121.772 49.6406H116.319V52.2344H114.553V49.6406H108.866V48.25H121.772V49.6406ZM120.35 55.1094H110.444V50.9219H112.194V53.6875H120.35V55.1094ZM115.303 41.5781C116.314 41.5781 117.199 41.6953 117.959 41.9297C118.725 42.1641 119.316 42.5 119.733 42.9375C120.155 43.3698 120.366 43.8802 120.366 44.4688C120.366 45.0573 120.155 45.5677 119.733 46C119.316 46.4323 118.725 46.7656 117.959 47C117.199 47.2292 116.314 47.3438 115.303 47.3438C114.293 47.3438 113.405 47.2292 112.639 47C111.879 46.7656 111.287 46.4323 110.866 46C110.449 45.5677 110.241 45.0573 110.241 44.4688C110.241 43.8802 110.449 43.3698 110.866 42.9375C111.287 42.5 111.879 42.1641 112.639 41.9297C113.405 41.6953 114.293 41.5781 115.303 41.5781ZM115.303 42.9531C114.657 42.9531 114.092 43.013 113.608 43.1328C113.129 43.2526 112.759 43.4271 112.498 43.6562C112.238 43.8802 112.11 44.151 112.116 44.4688C112.11 44.776 112.238 45.0417 112.498 45.2656C112.759 45.4896 113.129 45.6615 113.608 45.7812C114.092 45.8958 114.657 45.9531 115.303 45.9531C115.954 45.9531 116.519 45.8958 116.998 45.7812C117.483 45.6615 117.855 45.4896 118.116 45.2656C118.376 45.0417 118.506 44.776 118.506 44.4688C118.506 44.151 118.376 43.8802 118.116 43.6562C117.855 43.4271 117.483 43.2526 116.998 43.1328C116.519 43.013 115.954 42.9531 115.303 42.9531ZM137.734 49.4688H136V46.0469H133.562V44.625H136V41.2656H137.734V49.4688ZM137.734 55.2188H128.344V50.0781H137.734V55.2188ZM130.078 53.8125H136.031V51.4531H130.078V53.8125ZM131.094 43.5938C131.094 44.1719 131.221 44.7344 131.477 45.2812C131.732 45.8281 132.109 46.3203 132.609 46.7578C133.109 47.1953 133.714 47.5365 134.422 47.7812L133.547 49.1562C132.776 48.8906 132.109 48.5052 131.547 48C130.99 47.4948 130.552 46.901 130.234 46.2188C129.911 46.974 129.456 47.6302 128.867 48.1875C128.279 48.7396 127.578 49.151 126.766 49.4219L125.875 48.0625C126.604 47.8177 127.227 47.4635 127.742 47C128.263 46.5365 128.656 46.0104 128.922 45.4219C129.193 44.8281 129.328 44.2135 129.328 43.5781V43.4688H126.391V42.0625H134.016V43.4688H131.094V43.5938ZM145.856 41.4844C146.929 41.4844 147.843 41.5781 148.598 41.7656C149.359 41.9531 149.94 42.2292 150.341 42.5938C150.742 42.9531 150.945 43.3906 150.95 43.9062C150.945 44.6875 150.499 45.2865 149.614 45.7031C148.729 46.1198 147.476 46.3333 145.856 46.3438C144.231 46.3333 142.976 46.1198 142.091 45.7031C141.205 45.2865 140.762 44.6875 140.762 43.9062C140.762 43.3906 140.963 42.9531 141.364 42.5938C141.765 42.2292 142.346 41.9531 143.106 41.7656C143.867 41.5781 144.783 41.4844 145.856 41.4844ZM145.856 42.7656C144.783 42.7656 143.968 42.8646 143.411 43.0625C142.854 43.2552 142.58 43.5365 142.591 43.9062C142.585 44.2917 142.856 44.5781 143.403 44.7656C143.95 44.9531 144.768 45.0469 145.856 45.0469C146.96 45.0469 147.786 44.9531 148.333 44.7656C148.88 44.5781 149.153 44.2917 149.153 43.9062C149.153 43.5365 148.874 43.2552 148.317 43.0625C147.76 42.8646 146.94 42.7656 145.856 42.7656ZM152.309 48.4844H139.434V47.0938H152.309V48.4844ZM150.7 52.8906H142.669V53.9375H151.091V55.2656H140.966V51.6562H148.997V50.7188H140.95V49.4375H150.7V52.8906ZM167.6 44.1094H169.569V45.5469H167.6V48.3594H165.866V41.2656H167.6V44.1094ZM167.6 52.6719H160.1V53.8438H168.037V55.2188H158.381V51.4062H165.866V50.3125H158.366V48.9688H167.6V52.6719ZM160.366 41.7344C161.079 41.7344 161.72 41.8698 162.287 42.1406C162.855 42.4062 163.301 42.7812 163.623 43.2656C163.946 43.7448 164.11 44.2917 164.116 44.9062C164.11 45.5104 163.946 46.0547 163.623 46.5391C163.301 47.0182 162.853 47.3932 162.28 47.6641C161.712 47.9297 161.074 48.0625 160.366 48.0625C159.652 48.0625 159.009 47.9271 158.436 47.6562C157.868 47.3854 157.42 47.0104 157.092 46.5312C156.769 46.0521 156.61 45.5104 156.616 44.9062C156.61 44.2917 156.769 43.7448 157.092 43.2656C157.415 42.7812 157.863 42.4062 158.436 42.1406C159.009 41.8698 159.652 41.7344 160.366 41.7344ZM160.366 43.1406C159.97 43.1406 159.616 43.2135 159.303 43.3594C158.991 43.5052 158.746 43.7109 158.569 43.9766C158.397 44.2422 158.314 44.5521 158.319 44.9062C158.314 45.2552 158.397 45.5651 158.569 45.8359C158.746 46.1068 158.991 46.3177 159.303 46.4688C159.616 46.6146 159.97 46.6875 160.366 46.6875C160.756 46.6875 161.108 46.6146 161.42 46.4688C161.738 46.3177 161.985 46.1068 162.162 45.8359C162.34 45.5651 162.428 45.2552 162.428 44.9062C162.428 44.5521 162.34 44.2422 162.162 43.9766C161.985 43.7109 161.741 43.5052 161.428 43.3594C161.116 43.2135 160.761 43.1406 160.366 43.1406ZM181.816 55.4062H180.081V49.6094H177.503V48.1875H180.081V45.7656H177.55V44.3438H180.081V41.2656H181.816V55.4062ZM176.753 47.7656H172.222V50.7656C173.238 50.7552 174.165 50.724 175.003 50.6719C175.847 50.6146 176.717 50.5208 177.613 50.3906L177.753 51.8125C176.753 51.9688 175.79 52.0729 174.863 52.125C173.935 52.1771 172.847 52.2031 171.597 52.2031H170.503V46.4062H175.05V43.875H170.456V42.4844H176.753V47.7656ZM196.391 50.5469H190.781V55.375H189.062V50.5469H183.516V49.1406H196.391V50.5469ZM195.203 43.4375H190.961C190.997 43.9531 191.219 44.4505 191.625 44.9297C192.031 45.4036 192.589 45.8099 193.297 46.1484C194.005 46.487 194.812 46.7135 195.719 46.8281L195.094 48.1875C193.896 48.0208 192.846 47.6771 191.945 47.1562C191.049 46.6354 190.385 45.9896 189.953 45.2188C189.521 45.9844 188.857 46.6302 187.961 47.1562C187.065 47.6771 186.026 48.0208 184.844 48.1875L184.188 46.8281C185.089 46.7135 185.891 46.487 186.594 46.1484C187.302 45.8099 187.859 45.4036 188.266 44.9297C188.677 44.4505 188.904 43.9531 188.945 43.4375H184.703V42.0625H195.203V43.4375ZM201.45 44.9688C201.45 45.7604 201.544 46.5286 201.731 47.2734C201.924 48.0182 202.223 48.7005 202.63 49.3203C203.036 49.9401 203.544 50.4427 204.153 50.8281L203.2 52.1562C202.585 51.7865 202.065 51.2917 201.637 50.6719C201.21 50.0469 200.874 49.3307 200.63 48.5234C200.364 49.4036 200.002 50.1849 199.544 50.8672C199.085 51.5495 198.533 52.0885 197.887 52.4844L196.809 51.1875C197.471 50.7865 198.023 50.2604 198.466 49.6094C198.908 48.9583 199.236 48.2422 199.45 47.4609C199.669 46.6797 199.778 45.875 199.778 45.0469V42.5156H201.45V44.9688ZM209.231 55.3906H207.559V41.2656H209.231V55.3906ZM206.294 54.7031H204.653V47.5625H202.637V46.125H204.653V41.5156H206.294V54.7031ZM223.478 53.6719H210.572V52.25H213.556V48.6797C212.983 48.3464 212.538 47.9323 212.22 47.4375C211.908 46.9427 211.754 46.3854 211.759 45.7656C211.754 45.0312 211.976 44.3802 212.423 43.8125C212.871 43.2448 213.494 42.8073 214.291 42.5C215.087 42.1875 215.989 42.0312 216.994 42.0312C218.004 42.0312 218.908 42.1875 219.705 42.5C220.507 42.8073 221.132 43.2448 221.58 43.8125C222.033 44.375 222.259 45.026 222.259 45.7656C222.259 46.3698 222.106 46.9193 221.798 47.4141C221.496 47.9036 221.067 48.3125 220.509 48.6406V52.25H223.478V53.6719ZM216.994 43.4062C216.291 43.4062 215.671 43.5026 215.134 43.6953C214.603 43.8828 214.189 44.1536 213.892 44.5078C213.601 44.862 213.457 45.2812 213.462 45.7656C213.457 46.2448 213.601 46.6615 213.892 47.0156C214.189 47.3698 214.606 47.6432 215.142 47.8359C215.679 48.0286 216.296 48.125 216.994 48.125C217.692 48.125 218.309 48.0286 218.845 47.8359C219.387 47.6432 219.806 47.3698 220.103 47.0156C220.405 46.6615 220.556 46.2448 220.556 45.7656C220.556 45.2865 220.405 44.8698 220.103 44.5156C219.806 44.1562 219.39 43.8828 218.853 43.6953C218.317 43.5026 217.697 43.4062 216.994 43.4062ZM218.744 52.25V49.3047C218.192 49.4245 217.608 49.4844 216.994 49.4844C216.405 49.4844 215.832 49.4271 215.275 49.3125V52.25H218.744ZM226.834 50.6719H225.069L224.881 42.6875H227.006L226.834 50.6719ZM225.959 54.125C225.741 54.125 225.538 54.0703 225.35 53.9609C225.163 53.8516 225.014 53.7031 224.905 53.5156C224.795 53.3281 224.741 53.125 224.741 52.9062C224.741 52.6927 224.795 52.4948 224.905 52.3125C225.014 52.125 225.163 51.9766 225.35 51.8672C225.538 51.7578 225.741 51.7031 225.959 51.7031C226.168 51.7031 226.363 51.7578 226.545 51.8672C226.733 51.9766 226.881 52.125 226.991 52.3125C227.105 52.4948 227.163 52.6927 227.163 52.9062C227.163 53.125 227.105 53.3281 226.991 53.5156C226.881 53.7031 226.733 53.8516 226.545 53.9609C226.363 54.0703 226.168 54.125 225.959 54.125Z" fill="#191F28"/>
<path d="M37.6458 66.403H36.555V75.8375H37.6458V71.0091H39.0726V70.0992H37.6458V66.403ZM36.0536 72.8288C34.6785 72.0688 33.6756 70.6782 33.6756 68.7655V68.264H35.5883V67.3852H30.5842V68.264H32.5538V68.7655C32.5538 70.6575 31.6077 72.1826 30.1034 73.02L30.7858 73.8265C31.9283 73.201 32.8691 71.9499 33.1121 70.947C33.4068 71.9189 34.5544 73.1286 35.4332 73.6146L36.0536 72.8288ZM47.3208 75.8375V66.403H46.2869V75.8375H47.3208ZM45.4597 75.3929V66.5943H44.4413V69.696H43.0869V70.5955H44.4413V75.3929H45.4597ZM44.1467 72.7461C43.0456 72.0688 42.2494 70.6059 42.2494 68.8068V67.3335H41.2052V68.8172C41.2052 70.7558 40.3264 72.2498 39.1839 72.9994L39.8404 73.7386C40.7503 73.17 41.4998 72.1205 41.7325 71.0918C42.0065 72.0792 42.8543 73.0717 43.5212 73.4957L44.1467 72.7461ZM56.1893 75.8375V66.403H55.1089V75.8375H56.1893ZM49.9083 67.8453H52.7774V66.9561H49.9083V67.8453ZM54.0698 69.4841V68.6052H48.5952V69.4841H54.0698ZM53.5942 71.9499C53.5942 70.8075 52.6947 69.939 51.3403 69.939C49.9962 69.939 49.0811 70.8385 49.0811 71.9499C49.0811 73.1028 49.9962 73.9609 51.3403 73.9609C52.6947 73.9609 53.5942 73.0717 53.5942 71.9499ZM52.5138 71.9499C52.5138 72.6065 52.0795 73.0717 51.3403 73.0717C50.6734 73.0717 50.1823 72.6065 50.1823 71.9499C50.1823 71.2831 50.6734 70.8281 51.3403 70.8281C52.0175 70.8281 52.5138 71.2831 52.5138 71.9499ZM68.2502 69.2721V68.3829H66.8751V66.403H65.7843V71.1487H66.8751V69.2721H68.2502ZM64.4609 68.8999C64.4609 67.623 63.4114 66.7442 62.0363 66.7442C60.6716 66.7442 59.6428 67.6437 59.6428 68.8999C59.6428 70.1819 60.7233 70.9781 62.0363 70.9781C63.4114 70.9781 64.4609 70.1509 64.4609 68.8999ZM63.3804 68.8896C63.3804 69.5357 62.848 70.0786 62.0363 70.0786C61.2712 70.0786 60.7026 69.5771 60.7026 68.8896C60.7026 68.1917 61.3023 67.6437 62.0363 67.6437C62.8583 67.6437 63.3804 68.1813 63.3804 68.8896ZM67.1801 75.7289V74.8501H61.8864V74.1005H66.8751V71.707H60.7853V72.5755H65.7843V73.294H60.806V75.7289H67.1801ZM75.9297 66.403H74.8389V75.8375H75.9297V70.9884H77.3875V70.0889H75.9297V66.403ZM68.7078 70.4353C68.7078 72.4255 69.6073 73.7386 71.122 73.7386C72.6367 73.7386 73.5155 72.4255 73.5155 70.4456C73.5155 68.445 72.6367 67.1319 71.122 67.1319C69.6073 67.1319 68.7078 68.445 68.7078 70.4353ZM72.4868 70.4353C72.4868 71.9499 71.9284 72.8598 71.122 72.8598C70.3259 72.8598 69.7779 71.9499 69.7779 70.4353C69.7779 68.9206 70.3259 68.0211 71.122 68.0211C71.9284 68.0211 72.4868 68.9206 72.4868 70.4353ZM85.1084 71.8362V67.0699H84.028V68.5949H79.8044V67.0802H78.724V71.8362H81.3604V73.7696H77.6539V74.6381H86.1785V73.7696H82.4409V71.8362H85.1084ZM84.028 70.9677H79.8044V69.453H84.028V70.9677ZM94.4835 75.8375V66.403H93.4031V75.8375H94.4835ZM87.2203 67.4007V68.2899H90.4254C90.2445 70.2698 88.8384 72.2498 86.6671 73.2423L87.3443 74.0695C90.0687 72.5755 91.5265 70.3215 91.5937 67.4007H87.2203Z" fill="#3182F6"/>
<path fill-rule="evenodd" clip-rule="evenodd" d="M106.255 75.0652C106.115 74.9256 106.115 74.6998 106.255 74.5602L109.456 71.359L101.713 71.3586C101.516 71.3586 101.356 71.1985 101.356 71.0013C101.356 70.804 101.516 70.644 101.713 70.644L109.456 70.6443L106.255 67.4424C106.115 67.3028 106.115 67.0769 106.255 66.9373C106.324 66.8673 106.416 66.8325 106.507 66.8325C106.599 66.8325 106.69 66.8673 106.76 66.9373L110.567 70.7447C110.57 70.7471 110.572 70.7497 110.575 70.7522L110.824 71.0013L106.76 75.0652C106.62 75.2048 106.394 75.2048 106.255 75.0652Z" fill="#3182F6"/>
<path fill-rule="evenodd" clip-rule="evenodd" d="M390.069 82.0192C391.226 75.0329 384.172 67.8934 373.841 64.9406C379.491 58.7541 381.202 51.3678 377.415 46.4918C373.756 41.786 366.038 40.7564 358.132 43.3263C355.928 37.6674 351.571 33.4892 346.015 32.5702C339.42 31.4725 332.961 35.2337 329.081 41.6329C323.311 39.3268 317.201 39.4289 312.598 42.4413C306.99 46.1259 305.135 53.1633 307.092 60.3624C301.433 62.7025 297.323 67.068 296.412 72.5821C295.128 80.3939 300.616 88.1121 309.356 91.8818C306.437 96.5706 305.85 101.276 308.343 104.493C311.449 108.492 318.427 109.105 325.898 106.603C328.187 113.394 333.701 118.636 340.807 119.827C349.359 121.265 357.596 116.423 361.468 108.458C366.497 111.182 371.467 111.794 374.803 109.599C379.177 106.714 379.534 99.8468 376.275 92.5286C383.653 91.2777 389.15 87.3973 390.035 82.0192H390.06H390.069Z" fill="#242427" stroke="#242427" stroke-width="1.34238" stroke-miterlimit="10" stroke-linecap="round"/>
<path d="M336.254 70.6497C339.52 70.6497 342.168 66.7446 342.168 61.9274C342.168 57.1102 339.52 53.2051 336.254 53.2051C332.988 53.2051 330.34 57.1102 330.34 61.9274C330.34 66.7446 332.988 70.6497 336.254 70.6497Z" fill="white"/>
<path d="M348.09 70.6497C351.356 70.6497 354.004 66.7446 354.004 61.9274C354.004 57.1102 351.356 53.2051 348.09 53.2051C344.824 53.2051 342.176 57.1102 342.176 61.9274C342.176 66.7446 344.824 70.6497 348.09 70.6497Z" fill="white"/>
<path d="M336.875 67.5359C339.112 67.5359 340.925 65.0252 340.925 61.9281C340.925 58.831 339.112 56.3203 336.875 56.3203C334.638 56.3203 332.824 58.831 332.824 61.9281C332.824 65.0252 334.638 67.5359 336.875 67.5359Z" fill="#242427"/>
<path d="M347.154 67.5359C349.217 67.5359 350.889 65.0252 350.889 61.9281C350.889 58.831 349.217 56.3203 347.154 56.3203C345.09 56.3203 343.418 58.831 343.418 61.9281C343.418 65.0252 345.09 67.5359 347.154 67.5359Z" fill="#242427"/>
<path d="M341.902 82.4451C347.135 82.4451 351.381 79.3306 351.381 75.4843C351.381 71.6379 347.135 68.5234 341.902 68.5234C336.668 68.5234 332.422 71.6379 332.422 75.4843C332.422 79.3306 336.668 82.4451 341.902 82.4451Z" fill="white" stroke="#242427" stroke-width="1.34238" stroke-miterlimit="10"/>
<path d="M332.422 75.6372C335.119 77.4071 337.97 73.5098 341.816 73.5098C345.663 73.5098 347.382 77.4071 351.909 75.6372" stroke="#242427" stroke-width="1.34238"/>
<path d="M340.638 75.7487L338 74.7871H345.659L343.021 75.7487C342.255 76.0295 341.412 76.0295 340.638 75.7487Z" fill="#242427" stroke="#242427" stroke-width="1.34238" stroke-linecap="round" stroke-linejoin="round"/>
<path d="M341.945 18.964L342.33 14.7363L343.755 15.5413L344.828 17.811L341.945 18.964Z" fill="white" stroke="#242427" stroke-width="0.811595" stroke-linecap="round" stroke-linejoin="round"/>
<path d="M357.701 7.625L338.484 12.237L343.673 15.3116L346.363 21.0765L357.701 7.625Z" fill="white" stroke="#242427" stroke-width="0.811595" stroke-linecap="round" stroke-linejoin="round"/>
<path d="M343.672 15.3121C344.633 14.6075 346.709 13.303 347.682 12.8164" stroke="#242427" stroke-width="0.811595" stroke-linecap="round" stroke-linejoin="round"/>
<path d="M349.072 11.903C350.945 10.9562 354.961 8.66129 357.509 7.62557" stroke="#242427" stroke-width="0.811595" stroke-linecap="round" stroke-linejoin="round"/>
<path d="M356.932 18.7226L356.758 18.1936C356.593 17.6958 355.888 17.6991 355.728 18.1984L355.559 18.729L355.002 18.7316C354.477 18.7341 354.263 19.4058 354.688 19.7119L355.14 20.0373L354.971 20.5679C354.811 21.0672 355.384 21.479 355.806 21.169L356.255 20.8394L356.708 21.1647C357.133 21.4708 357.702 21.0537 357.537 20.5559L357.363 20.0269L357.812 19.6973C358.234 19.3872 358.013 18.7176 357.489 18.72L356.932 18.7226Z" fill="#D9D9D9" stroke="#242427" stroke-width="0.811595"/>
<path d="M350.305 23.6989L351.725 24.1474M351.725 24.1474L350.873 25.4929M351.725 24.1474L352.719 25.4929M351.725 24.1474L353.145 23.6989M351.725 24.1474V22.6523" stroke="#242427" stroke-width="0.811595" stroke-linecap="round" stroke-linejoin="round"/>
<path d="M334.926 28.0436C335.2 25.6466 337.109 20.515 339.541 21.2974C340.57 21.6283 340.123 22.9615 338.958 22.9615C337.605 22.9615 337.573 20.1869 340.777 19.3093" stroke="#242427" stroke-width="0.811595" stroke-linecap="round" stroke-linejoin="round"/>
</g>
<defs>
<clipPath id="clip0_6075_110084">
<rect width="430" height="90" fill="white"/>
</clipPath>
</defs>
</svg>
