<svg width="36" height="41" viewBox="0 0 36 41" fill="none" xmlns="http://www.w3.org/2000/svg">
<g filter="url(#filter0_b_2158_17366)">
<rect width="36" height="41" rx="10" fill="black" fill-opacity="0.2"/>
<path d="M22.066 10.5H13.934C13.048 10.5 12.284 10.5 11.672 10.582C11.017 10.67 10.389 10.869 9.879 11.379C9.369 11.888 9.17 12.517 9.082 13.172C9 13.784 9 14.548 9 15.434V16.45C9 16.7152 9.10536 16.9696 9.29289 17.1571C9.48043 17.3446 9.73478 17.45 10 17.45C10.2652 17.45 10.5196 17.3446 10.7071 17.1571C10.8946 16.9696 11 16.7152 11 16.45V15.5C11 14.529 11.002 13.9 11.064 13.439C11.123 13.005 11.217 12.869 11.293 12.793C11.369 12.717 11.505 12.623 11.939 12.564C12.401 12.502 13.029 12.5 14 12.5H17V28.5H13C12.4477 28.5 12 28.9477 12 29.5C12 30.0523 12.4477 30.5 13 30.5H23C23.5523 30.5 24 30.0523 24 29.5C24 28.9477 23.5523 28.5 23 28.5H19V12.5H22C22.971 12.5 23.6 12.502 24.061 12.564C24.495 12.623 24.631 12.717 24.707 12.793C24.783 12.869 24.877 13.005 24.936 13.439C24.998 13.901 25 14.529 25 15.5V16.45C25 16.7152 25.1054 16.9696 25.2929 17.1571C25.4804 17.3446 25.7348 17.45 26 17.45C26.2652 17.45 26.5196 17.3446 26.7071 17.1571C26.8946 16.9696 27 16.7152 27 16.45V15.434C27 14.548 27 13.784 26.918 13.172C26.83 12.517 26.631 11.889 26.121 11.379C25.612 10.869 24.983 10.67 24.328 10.582C23.716 10.5 22.952 10.5 22.066 10.5Z" fill="#B2B2B4"/>
</g>
<defs>
<filter id="filter0_b_2158_17366" x="-10" y="-10" width="56" height="61" filterUnits="userSpaceOnUse" color-interpolation-filters="sRGB">
<feFlood flood-opacity="0" result="BackgroundImageFix"/>
<feGaussianBlur in="BackgroundImageFix" stdDeviation="5"/>
<feComposite in2="SourceAlpha" operator="in" result="effect1_backgroundBlur_2158_17366"/>
<feBlend mode="normal" in="SourceGraphic" in2="effect1_backgroundBlur_2158_17366" result="shape"/>
</filter>
</defs>
</svg>
