<svg width="24" height="24" viewBox="0 0 24 24" fill="none" xmlns="http://www.w3.org/2000/svg">
<path fill-rule="evenodd" clip-rule="evenodd" d="M19.0659 3.03621L2.04986 8.71221C1.7857 8.80011 1.55121 8.95979 1.37264 9.17338C1.19407 9.38697 1.07847 9.64604 1.03877 9.9216C0.999068 10.1972 1.03684 10.4783 1.14786 10.7336C1.25887 10.9889 1.43875 11.2083 1.66736 11.3672L6.35336 14.6252C6.95036 15.0407 7.75736 14.9687 8.27186 14.4542L11.8719 10.8542C12.0436 10.7012 12.2673 10.6197 12.4972 10.6262C12.7272 10.6328 12.9459 10.727 13.1086 10.8895C13.2713 11.0521 13.3658 11.2707 13.3726 11.5006C13.3795 11.7305 13.2982 11.9543 13.1454 12.1262L9.54536 15.7277C9.29605 15.9762 9.14224 16.3045 9.11097 16.6551C9.0797 17.0057 9.17296 17.3561 9.37436 17.6447L12.6354 22.3352C12.7944 22.5634 13.0137 22.7429 13.2688 22.8536C13.5239 22.9644 13.8048 23.002 14.0801 22.9623C14.3554 22.9227 14.6142 22.8072 14.8276 22.6289C15.0411 22.4506 15.2008 22.2165 15.2889 21.9527L20.9649 4.93521C21.0534 4.67083 21.0665 4.38701 21.0026 4.11561C20.9388 3.84421 20.8006 3.59597 20.6035 3.39874C20.4065 3.20152 20.1583 3.06312 19.887 2.99909C19.6156 2.93505 19.3318 2.94791 19.0674 3.03621" fill="#F5F378"/>
</svg>
