<svg width="48" height="48" viewBox="0 0 48 48" fill="none" xmlns="http://www.w3.org/2000/svg">
<rect width="48" height="48" rx="24" fill="#353538"/>
<path d="M32.0401 21.0049H26.6174L28.1364 12.7461C28.3849 11.3939 26.6722 10.5959 25.7961 11.6564L20.7777 17.7357L29.973 26.9339L33.0667 23.1866C33.7854 22.3174 33.1659 21.0049 32.0401 21.0049Z" fill="#B2B2B4"/>
<path d="M19.7247 19.0113L19.7331 19.0011L28.9284 28.1992L28.9212 28.2079L32.158 31.4447C32.5566 31.8434 32.5566 32.4897 32.1579 32.8884C31.7593 33.2871 31.1129 33.287 30.7143 32.8884L27.6155 29.7895L22.2051 36.3431C21.3301 37.4036 19.6174 36.6056 19.8671 35.2546L21.3837 26.9946H15.9646C14.8364 26.9946 14.2181 25.6821 14.9356 24.8129L18.4191 20.593L14.381 16.5549C13.9824 16.1562 13.9824 15.5098 14.381 15.1112C14.7797 14.7125 15.4261 14.7125 15.8247 15.1112L19.7247 19.0113Z" fill="#B2B2B4"/>
</svg>
