<svg width="60" height="63" viewBox="0 0 60 63" fill="none" xmlns="http://www.w3.org/2000/svg">
<path d="M29.078 40.3199C35.1325 40.3199 40.0407 35.4118 40.0407 29.3572C40.0407 23.3027 35.1325 18.3945 29.078 18.3945C23.0234 18.3945 18.1152 23.3027 18.1152 29.3572C18.1152 35.4118 23.0234 40.3199 29.078 40.3199Z" fill="white" stroke="#242427" stroke-width="2" stroke-linecap="round" stroke-linejoin="round"/>
<path d="M30.7598 46.418V61.1585" stroke="#242427" stroke-width="2" stroke-linecap="round" stroke-linejoin="round"/>
<path d="M20.9331 47.4258L18.1055 57.2528" stroke="#242427" stroke-width="2" stroke-linecap="round" stroke-linejoin="round"/>
<path d="M12.4728 38.6836L1.54492 47.4213" stroke="#242427" stroke-width="2" stroke-linecap="round" stroke-linejoin="round"/>
<path d="M1 24.7578L10.827 29.3584" stroke="#242427" stroke-width="2" stroke-linecap="round" stroke-linejoin="round"/>
<path d="M11.6523 10.0156L18.1071 18.3825" stroke="#242427" stroke-width="2" stroke-linecap="round" stroke-linejoin="round"/>
<path d="M30.7604 1L29.0801 11.9279" stroke="#242427" stroke-width="2" stroke-linecap="round" stroke-linejoin="round"/>
<path d="M44.4118 9.19141L40.043 14.1976" stroke="#242427" stroke-width="2" stroke-linecap="round" stroke-linejoin="round"/>
<path d="M58.8811 20.3867L46.0527 25.0337" stroke="#242427" stroke-width="2" stroke-linecap="round" stroke-linejoin="round"/>
<path d="M58.3393 38.4077L47.6895 35.4062" stroke="#242427" stroke-width="2" stroke-linecap="round" stroke-linejoin="round"/>
<path d="M47.6913 52.3379L40.043 46.6016" stroke="#242427" stroke-width="2" stroke-linecap="round" stroke-linejoin="round"/>
</svg>
