<svg width="20" height="20" viewBox="0 0 20 20" fill="none" xmlns="http://www.w3.org/2000/svg">
<path fill-rule="evenodd" clip-rule="evenodd" d="M7.18787 3.25187C7.33559 3.2518 7.48186 3.28091 7.61829 3.33754C7.75473 3.39418 7.87862 3.47721 7.98287 3.58187L13.6079 9.20687C13.7124 9.31134 13.7953 9.43538 13.8518 9.57189C13.9084 9.70841 13.9375 9.85473 13.9375 10.0025C13.9375 10.1503 13.9084 10.2966 13.8518 10.4331C13.7953 10.5696 13.7124 10.6937 13.6079 10.7981L7.98287 16.4231C7.87922 16.5312 7.75502 16.6175 7.61757 16.677C7.48012 16.7365 7.33218 16.7679 7.18243 16.7695C7.03267 16.771 6.88411 16.7426 6.74546 16.686C6.60681 16.6294 6.48087 16.5457 6.37501 16.4397C6.26915 16.3338 6.18551 16.2078 6.129 16.0691C6.07248 15.9304 6.04422 15.7818 6.04589 15.632C6.04755 15.4823 6.0791 15.3344 6.13868 15.197C6.19826 15.0596 6.28468 14.9354 6.39287 14.8319L11.2216 10.0019L6.39287 5.17312C6.2353 5.01586 6.12794 4.81538 6.08437 4.59707C6.04079 4.37876 6.06297 4.15243 6.14809 3.94673C6.23321 3.74102 6.37744 3.5652 6.56253 3.44151C6.74762 3.31782 6.96525 3.25182 7.18787 3.25187Z" fill="#F5F378"/>
</svg>
