<svg width="24" height="24" viewBox="0 0 24 24" fill="none" xmlns="http://www.w3.org/2000/svg">
<g id="Action/Profile">
<path id="Profile" fill-rule="evenodd" clip-rule="evenodd" d="M12 14C16.8254 14 21 16.17 21 19.0167C21 20.229 19.2011 21.1198 16.6681 21.5987L16.4124 21.6452L15.9343 21.7228L15.4421 21.7912L14.8093 21.8634L14.1596 21.9205L13.8956 21.9392L13.3616 21.969L12.6845 21.9924L11.9995 22L11.7252 21.9986L11.0441 21.984L10.3718 21.9539L9.84226 21.9187L9.58074 21.8974L9.06512 21.8477L8.56058 21.7885L8.31292 21.7553L7.70867 21.6623L7.12793 21.5549L6.65309 21.4521C4.48465 20.9485 3 20.1141 3 19.0167C3 16.227 7.00926 14.0871 11.7113 14.0026L12 14ZM12 16C8.32426 16 5.449 17.4217 5.04791 18.7138L5.041 18.738L5.08721 18.7698C5.45692 19.0051 6.06087 19.2408 6.81828 19.4344L7.07633 19.4974L7.49163 19.5882L8.01304 19.6856L8.57823 19.773L8.79376 19.8021L9.25703 19.8569L9.74268 19.904L9.97489 19.9231L10.4614 19.9559L11.0869 19.9845L11.7355 19.9986L11.9773 20.0001L12.6156 19.9936L13.2499 19.9722L13.7549 19.9441L13.9843 19.9282L14.5827 19.8762L15.1669 19.8102L15.6135 19.7487L16.0545 19.6775L16.2966 19.6335C17.3947 19.4259 18.2659 19.144 18.7982 18.8425L18.8982 18.7831L18.959 18.742L18.9521 18.7138C18.5616 17.4557 15.8254 16.0747 12.2885 16.0029L12 16ZM12 2C15.0376 2 17.5 4.46243 17.5 7.5C17.5 10.4635 15.1562 12.8795 12.2212 12.9956L12 13C8.96243 13 6.5 10.5376 6.5 7.5C6.5 4.53652 8.84378 2.12046 11.7788 2.00437L12 2ZM12 4C10.067 4 8.5 5.567 8.5 7.5C8.5 9.433 10.067 11 12 11C13.933 11 15.5 9.433 15.5 7.5C15.5 5.567 13.933 4 12 4Z" fill="white"/>
</g>
</svg>
