<svg width="335" height="183" viewBox="0 0 335 183" fill="none" xmlns="http://www.w3.org/2000/svg">
<path d="M109.382 182.569C136.748 182.569 158.932 176.888 158.932 169.879C158.932 162.871 136.748 157.189 109.382 157.189C82.0163 157.189 59.832 162.871 59.832 169.879C59.832 176.888 82.0163 182.569 109.382 182.569Z" fill="#3F3F43"/>
<path fill-rule="evenodd" clip-rule="evenodd" d="M93.3608 145.999C97.3208 150.829 106.431 154.179 111.401 150.669C118.301 145.799 119.111 136.709 116.671 129.219L112.241 130.059C112.241 130.059 113.741 145.189 105.831 145.059C100.951 144.979 97.0508 142.189 93.3908 139.839C91.5608 138.669 89.1008 138.759 87.1708 139.769C78.6308 144.239 75.4008 165.939 87.7108 167.639C97.1508 168.949 98.5408 156.179 96.7108 149.709" fill="#515155"/>
<path d="M93.3608 145.999C97.3208 150.829 106.431 154.179 111.401 150.669C118.301 145.799 119.111 136.709 116.671 129.219L112.241 130.059C112.241 130.059 113.741 145.189 105.831 145.059C100.951 144.979 97.0508 142.189 93.3908 139.839C91.5608 138.669 89.1008 138.759 87.1708 139.769C78.6308 144.239 75.4008 165.939 87.7108 167.639C97.1508 168.949 98.5408 156.179 96.7108 149.709" stroke="#242427" stroke-width="2" stroke-miterlimit="10" stroke-linecap="round"/>
<path d="M126.14 168.838C129.83 173.118 138.82 171.428 146.23 165.048C153.64 158.668 156.65 150.028 152.96 145.748C149.27 141.468 140.28 143.158 132.87 149.538C130.91 151.228 129.26 153.078 127.96 154.958C127.65 155.298 127.34 155.658 127.03 156.018L100.04 133.828C98.3202 135.568 98.3302 138.368 100.04 140.098L126.13 168.838H126.14Z" fill="#515155" stroke="#242427" stroke-width="2" stroke-linecap="round" stroke-linejoin="round"/>
<path d="M130.91 162.978C132.35 156.358 140.58 147.058 148.07 148.378" stroke="#242427" stroke-width="2" stroke-linecap="round" stroke-linejoin="round"/>
<path fill-rule="evenodd" clip-rule="evenodd" d="M125.68 159.549C125.68 159.549 126.06 157.639 127.97 154.959L125.68 159.549Z" fill="#C6C863"/>
<path d="M125.68 159.549C125.68 159.549 126.06 157.639 127.97 154.959" stroke="#242427" stroke-width="2" stroke-linecap="round" stroke-linejoin="round"/>
<path fill-rule="evenodd" clip-rule="evenodd" d="M103.172 139.849C119.682 139.849 134.182 131.269 142.472 118.329C151.962 113.949 157.732 102.449 155.662 90.9994C154.502 84.6394 151.142 79.4994 146.642 76.3394C139.872 58.9394 122.962 46.6094 103.172 46.6094C83.3822 46.6094 67.1722 58.4394 60.1422 75.2594C54.7922 78.2494 50.7221 83.8494 49.4221 90.9994C47.2221 103.129 53.8322 115.319 64.3422 119.039C72.7022 131.589 86.9722 139.859 103.182 139.859L103.172 139.849Z" fill="#353538" stroke="#242427" stroke-width="2" stroke-miterlimit="10"/>
<path d="M107.439 90.0892C111.25 89.6314 113.792 84.7039 113.117 79.0834C112.442 73.4629 108.805 69.2777 104.994 69.7355C101.183 70.1933 98.6411 75.1208 99.3163 80.7413C99.9915 86.3618 103.628 90.547 107.439 90.0892Z" fill="#8C8C8E"/>
<path d="M121.244 88.4251C125.055 87.9673 127.597 83.0399 126.922 77.4194C126.247 71.7989 122.61 67.6136 118.799 68.0715C114.988 68.5293 112.446 73.4567 113.121 79.0772C113.796 84.6977 117.433 88.8829 121.244 88.4251Z" fill="#8C8C8E"/>
<path d="M109.372 86.1647C111.982 85.8511 113.746 82.6676 113.312 79.054C112.878 75.4404 110.41 72.7652 107.8 73.0788C105.19 73.3923 103.426 76.5759 103.86 80.1894C104.294 83.803 106.762 86.4782 109.372 86.1647Z" fill="#242427"/>
<path d="M121.364 84.7244C123.771 84.4353 125.371 81.2715 124.937 77.6579C124.503 74.0443 122.199 71.3494 119.792 71.6385C117.385 71.9277 115.785 75.0915 116.22 78.7051C116.654 82.3186 118.957 85.0136 121.364 84.7244Z" fill="#242427"/>
<path d="M115.693 102.999C121.803 102.269 126.323 98.0294 125.783 93.5494C125.243 89.0594 119.853 86.0194 113.743 86.7594C107.633 87.4894 103.113 91.7294 103.653 96.2094C104.193 100.699 109.583 103.739 115.693 102.999Z" fill="#8C8C8E" stroke="#353538" stroke-width="2" stroke-miterlimit="10"/>
<path d="M103.672 96.3903C107.072 98.0803 109.842 93.1304 114.332 92.5904C118.822 92.0504 121.372 96.3603 126.402 93.6603" fill="#353538"/>
<path d="M103.672 96.3903C107.072 98.0803 109.842 93.1304 114.332 92.5904C118.822 92.0504 121.372 96.3603 126.402 93.6603" stroke="#353538" stroke-width="2"/>
<path d="M113.033 95.3091L110.043 94.6091L118.973 93.5391L116.243 94.9191C115.253 95.4191 114.113 95.5591 113.033 95.3091Z" fill="#353538" stroke="#353538" stroke-width="2" stroke-linecap="round" stroke-linejoin="round"/>
<path fill-rule="evenodd" clip-rule="evenodd" d="M113.141 75.2998L126.021 73.7498C124.561 70.0698 121.731 67.6698 118.801 68.0298C115.871 68.3898 113.691 71.3798 113.141 75.2998Z" fill="#8C8C8E"/>
<path fill-rule="evenodd" clip-rule="evenodd" d="M99.3438 76.9502L112.224 75.4002C110.764 71.7202 107.934 69.3202 105.004 69.6802C102.074 70.0402 99.8938 73.0302 99.3438 76.9502Z" fill="#8C8C8E"/>
<path d="M221.663 182.569C249.029 182.569 271.213 176.888 271.213 169.879C271.213 162.871 249.029 157.189 221.663 157.189C194.298 157.189 172.113 162.871 172.113 169.879C172.113 176.888 194.298 182.569 221.663 182.569Z" fill="#3F3F43"/>
<path fill-rule="evenodd" clip-rule="evenodd" d="M197.103 146.001C201.063 150.831 210.173 154.181 215.143 150.671C222.043 145.801 222.853 136.711 220.413 129.221L215.983 130.061C215.983 130.061 217.483 145.191 209.573 145.061C204.693 144.981 200.793 142.191 197.133 139.841C195.303 138.671 192.843 138.761 190.913 139.771C182.373 144.241 179.143 165.941 191.453 167.641C200.893 168.951 202.283 156.181 200.453 149.711" fill="#515155"/>
<path d="M197.103 146.001C201.063 150.831 210.173 154.181 215.143 150.671C222.043 145.801 222.853 136.711 220.413 129.221L215.983 130.061C215.983 130.061 217.483 145.191 209.573 145.061C204.693 144.981 200.793 142.191 197.133 139.841C195.303 138.671 192.843 138.761 190.913 139.771C182.373 144.241 179.143 165.941 191.453 167.641C200.893 168.951 202.283 156.181 200.453 149.711" stroke="#242427" stroke-width="2" stroke-miterlimit="10" stroke-linecap="round"/>
<path d="M229.882 168.84C233.572 173.12 242.562 171.43 249.972 165.05C257.382 158.67 260.392 150.03 256.702 145.75C253.012 141.47 244.022 143.16 236.612 149.54C234.652 151.23 233.002 153.08 231.702 154.96C231.392 155.3 231.082 155.66 230.772 156.02L203.782 133.83C202.062 135.57 202.072 138.37 203.782 140.1L229.872 168.84H229.882Z" fill="#515155" stroke="#242427" stroke-width="2" stroke-linecap="round" stroke-linejoin="round"/>
<path d="M235.652 164.98C237.092 158.36 245.322 149.06 252.812 150.38" stroke="#242427" stroke-width="2" stroke-linecap="round" stroke-linejoin="round"/>
<path fill-rule="evenodd" clip-rule="evenodd" d="M229.422 159.551C229.422 159.551 229.802 157.641 231.712 154.961L229.422 159.551Z" fill="#B2B2B4"/>
<path d="M229.422 159.551C229.422 159.551 229.802 157.641 231.712 154.961" stroke="#242427" stroke-width="2" stroke-linecap="round" stroke-linejoin="round"/>
<path d="M202.438 40.3916L202.437 40.3908C199.941 38.9698 197.253 38.3477 194.898 38.5342C192.55 38.7202 190.42 39.7314 189.303 41.6952L189.302 41.6964C188.341 43.3905 188.369 45.3762 189.062 47.2405C189.604 48.6989 190.561 50.1212 191.839 51.3704C175.822 60.0966 165.583 77.681 167.145 97.0403C169.259 123.261 192.232 142.791 218.442 140.677C244.663 138.562 264.193 115.59 262.079 89.3794C259.964 63.1689 236.992 43.6287 210.781 45.7431L210.778 45.7434C209.827 45.8233 208.881 45.9284 207.942 46.0586C206.915 43.8852 204.971 41.8393 202.438 40.3916Z" fill="#353538" stroke="#242427" stroke-width="2" stroke-miterlimit="10"/>
<path d="M199.604 103.208C205.734 102.718 210.414 98.6585 210.054 94.1585C209.694 89.6585 204.424 86.4085 198.294 86.8985C192.164 87.3985 187.484 91.4485 187.844 95.9485C188.204 100.448 193.474 103.698 199.604 103.208Z" fill="#8C8C8E" stroke="#353538" stroke-width="2" stroke-miterlimit="10"/>
<path d="M187.852 96.1296C191.182 97.9496 194.142 93.1096 198.662 92.7496C203.182 92.3896 205.552 96.7896 210.682 94.2896" stroke="#353538" stroke-width="2"/>
<path d="M197.485 95.4787L194.305 94.6087L203.275 93.8887L200.275 95.2587C199.405 95.6587 198.415 95.7387 197.485 95.4787Z" fill="#353538" stroke="#353538" stroke-width="2" stroke-linecap="round" stroke-linejoin="round"/>
<path d="M198.155 75.4189C197.945 76.5889 197.875 77.8489 197.975 79.1489C198.435 84.7889 201.905 89.1089 205.725 88.7989C209.545 88.4889 212.285 83.6689 211.835 78.0289C211.725 76.7289 211.455 75.4989 211.065 74.3789" fill="#8C8C8E"/>
<path d="M200.893 78.9193C201.183 82.5493 203.543 85.3093 206.163 85.0993C208.783 84.8893 210.663 81.7793 210.373 78.1493C210.263 76.7793 209.863 75.5393 209.253 74.5293L201.413 75.1593C200.983 76.2493 200.783 77.5493 200.893 78.9193Z" fill="#242427"/>
<path d="M184.32 76.3594C184.34 76.2694 184.35 76.1894 184.37 76.1094C184.35 76.1894 184.33 76.2794 184.32 76.3594Z" fill="#B2B2B4"/>
<path d="M187.081 76.3198L184.291 76.5498C184.081 77.7198 184.011 78.9798 184.111 80.2798C184.571 85.9198 188.041 90.2398 191.861 89.9298C195.681 89.6198 198.421 84.7998 197.971 79.1598C197.861 77.8598 197.591 76.6298 197.201 75.5098L194.921 75.6898" fill="#8C8C8E"/>
<path d="M188.081 79.9505C188.371 83.5805 190.731 86.3406 193.351 86.1306C195.971 85.9206 197.851 82.8106 197.561 79.1806C197.451 77.8106 197.051 76.5705 196.441 75.5605L188.601 76.1906C188.171 77.2806 187.971 78.5805 188.081 79.9505Z" fill="#242427"/>
<path d="M182.031 74.0195L185.481 77.5095" stroke="#8C8C8E" stroke-width="2" stroke-linecap="round" stroke-linejoin="round"/>
<path d="M179.953 79.5801L184.683 80.8801" stroke="#8C8C8E" stroke-width="2" stroke-linecap="round" stroke-linejoin="round"/>
<path d="M213.832 71.4492L210.992 75.4492" stroke="#8C8C8E" stroke-width="2" stroke-linecap="round" stroke-linejoin="round"/>
<path d="M216.765 76.6094L212.305 78.6494" stroke="#8C8C8E" stroke-width="2" stroke-linecap="round" stroke-linejoin="round"/>
<path d="M283.181 57.4002L281.141 57.5802C278.591 57.8002 276.271 56.1202 275.691 53.6302C275.011 50.7502 272.33 48.8102 269.38 49.0702L254.07 50.4202C251.12 50.6802 248.821 53.0602 248.661 56.0202C248.521 58.5702 246.53 60.6302 243.98 60.8602L235.911 61.5702C232.351 61.8802 229.731 65.0202 230.041 68.5802L232.441 95.7702C232.751 99.3302 235.89 101.95 239.45 101.64L286.73 97.4702C290.29 97.1602 292.91 94.0202 292.6 90.4702L290.2 63.2802C289.89 59.7202 286.751 57.1002 283.191 57.4102L283.181 57.4002Z" fill="#515155" stroke="#242427" stroke-width="2" stroke-linecap="round" stroke-linejoin="round"/>
<path d="M270.859 89.7209C277.864 86.0149 280.539 77.3316 276.833 70.3262C273.127 63.3208 264.444 60.6461 257.438 64.3521C250.433 68.0582 247.758 76.7415 251.464 83.7469C255.17 90.7523 263.854 93.4269 270.859 89.7209Z" fill="#08005C" stroke="#B2B2B4" stroke-width="2" stroke-linecap="round" stroke-linejoin="round"/>
<path d="M270.859 89.7209C277.864 86.0149 280.539 77.3316 276.833 70.3262C273.127 63.3208 264.444 60.6461 257.438 64.3521C250.433 68.0582 247.758 76.7415 251.464 83.7469C255.17 90.7523 263.854 93.4269 270.859 89.7209Z" fill="#515155" stroke="#242427" stroke-width="2" stroke-linecap="round" stroke-linejoin="round"/>
<path d="M268.675 85.6143C273.435 83.108 275.261 77.2177 272.755 72.458C270.249 67.6983 264.358 65.8716 259.599 68.3779C254.839 70.8842 253.012 76.7745 255.519 81.5342C258.025 86.2939 263.915 88.1206 268.675 85.6143Z" fill="#8C8C8E"/>
<path d="M283.69 67.5607C285.164 67.5607 286.359 66.3653 286.359 64.8907C286.359 63.4161 285.164 62.2207 283.69 62.2207C282.215 62.2207 281.02 63.4161 281.02 64.8907C281.02 66.3653 282.215 67.5607 283.69 67.5607Z" fill="#8C8C8E" stroke="#242427" stroke-width="2" stroke-linecap="round" stroke-linejoin="round"/>
<path d="M241.859 65.9004L244.539 96.3104" stroke="#242427" stroke-width="2" stroke-linecap="round" stroke-linejoin="round"/>
<path d="M235.899 61.5604L241.429 61.0704L241.259 59.1304C241.159 58.0504 240.209 57.2404 239.119 57.3404L236.759 57.5504C235.679 57.6504 234.869 58.6004 234.969 59.6904L235.149 61.6804C235.389 61.6304 235.639 61.5904 235.889 61.5704L235.899 61.5604Z" fill="#515155" stroke="#242427" stroke-width="2" stroke-linecap="round" stroke-linejoin="round"/>
<path d="M281.574 42.6298C281.574 42.6298 290.834 36.0098 294.574 34.3398" stroke="#8C8C8E" stroke-width="2" stroke-linecap="round" stroke-linejoin="round"/>
<path d="M278.164 33.4895C278.164 33.4895 280.604 28.6095 284.824 25.6895" stroke="#8C8C8E" stroke-width="2" stroke-linecap="round" stroke-linejoin="round"/>
<path d="M161.114 14.4094C161.158 14.0585 161.666 14.0585 161.71 14.4094L162.48 20.6415C162.922 24.2168 165.453 27.1842 168.914 28.1841L170.74 28.7118C171.029 28.7953 171.029 29.2047 170.74 29.2882L168.914 29.8159C165.453 30.8158 162.922 33.7832 162.48 37.3585L161.71 43.5906C161.666 43.9415 161.158 43.9415 161.114 43.5906L160.344 37.3585C159.902 33.7832 157.371 30.8158 153.91 29.8159L152.084 29.2882C151.795 29.2047 151.795 28.7953 152.084 28.7118L153.91 28.1841C157.371 27.1842 159.902 24.2168 160.344 20.6415L161.114 14.4094Z" stroke="#515155" stroke-width="2" stroke-linejoin="round"/>
<path d="M161.824 7V1" stroke="#515155" stroke-width="2" stroke-linecap="round" stroke-linejoin="round"/>
<path d="M161 57V51" stroke="#515155" stroke-width="2" stroke-linecap="round" stroke-linejoin="round"/>
<path d="M146.957 29L142 29" stroke="#515155" stroke-width="2" stroke-linecap="round" stroke-linejoin="round"/>
<path d="M154.412 22.994L151 15.8398" stroke="#515155" stroke-width="2" stroke-linecap="round" stroke-linejoin="round"/>
<path d="M154.412 35.6662L151 42.8203" stroke="#515155" stroke-width="2" stroke-linecap="round" stroke-linejoin="round"/>
<path d="M167.412 22.994L170.824 15.8398" stroke="#515155" stroke-width="2" stroke-linecap="round" stroke-linejoin="round"/>
<path d="M167.412 35.6662L170.824 42.8203" stroke="#515155" stroke-width="2" stroke-linecap="round" stroke-linejoin="round"/>
<path d="M179.999 29L175.043 29" stroke="#515155" stroke-width="2" stroke-linecap="round" stroke-linejoin="round"/>
</svg>
