<svg width="32" height="32" viewBox="0 0 32 32" fill="none" xmlns="http://www.w3.org/2000/svg">
<path fill-rule="evenodd" clip-rule="evenodd" d="M18.4194 16.0005L25.9541 23.5352C26.1027 23.6837 26.2207 23.8601 26.3012 24.0543C26.3817 24.2484 26.4231 24.4565 26.4232 24.6667C26.4232 24.8769 26.3819 25.085 26.3015 25.2792C26.2212 25.4734 26.1033 25.6498 25.9548 25.7985C25.8062 25.9471 25.6298 26.0651 25.4356 26.1456C25.2415 26.2261 25.0334 26.2675 24.8232 26.2676C24.6131 26.2676 24.4049 26.2263 24.2107 26.1459C24.0165 26.0656 23.8401 25.9477 23.6914 25.7992L16.1568 18.2632L8.62075 25.7992C8.31723 26.0827 7.91543 26.2371 7.50017 26.23C7.0849 26.2229 6.68865 26.0546 6.39506 25.7609C6.10146 25.4671 5.93349 25.0708 5.92659 24.6555C5.91969 24.2402 6.07441 23.8385 6.35809 23.5352L13.8941 16.0005L6.35809 8.46583C6.13537 8.24156 5.98393 7.95645 5.92282 7.64635C5.86171 7.33624 5.89366 7.01499 6.01465 6.723C6.13563 6.43101 6.34026 6.1813 6.60279 6.0053C6.86531 5.82929 7.17402 5.73484 7.49009 5.73383C7.89942 5.73383 8.30875 5.88982 8.62075 6.20182L16.1568 13.7378L23.6914 6.20182C23.8398 6.05294 24.0161 5.93482 24.2103 5.85422C24.4044 5.77362 24.6125 5.73213 24.8228 5.73213C25.033 5.73213 25.2411 5.77362 25.4352 5.85422C25.6294 5.93482 25.8057 6.05294 25.9541 6.20182C26.1028 6.35042 26.2209 6.52689 26.3014 6.72112C26.3819 6.91536 26.4233 7.12356 26.4233 7.33383C26.4233 7.54409 26.3819 7.75229 26.3014 7.94653C26.2209 8.14077 26.1028 8.31723 25.9541 8.46583L18.4194 16.0005Z" fill="#B2B2B4"/>
</svg>
