<svg width="24" height="24" viewBox="0 0 24 24" fill="none" xmlns="http://www.w3.org/2000/svg">
<path fill-rule="evenodd" clip-rule="evenodd" d="M12 22.5C17.7989 22.5 22.5 17.7989 22.5 12C22.5 6.20114 17.7989 1.5 12 1.5C6.20114 1.5 1.5 6.20114 1.5 12C1.5 17.7989 6.20114 22.5 12 22.5ZM11.1535 15.714C11.3581 15.3596 11.7362 15.1413 12.1454 15.1413C12.778 15.1413 13.2908 15.6542 13.2908 16.2868C13.2908 16.9194 12.778 17.4322 12.1454 17.4322C11.7362 17.4322 11.3581 17.2139 11.1535 16.8595C10.9488 16.5051 10.9488 16.0684 11.1535 15.714ZM11.2863 12.6757C11.2863 13.1502 11.6709 13.5348 12.1454 13.5348C12.6199 13.5348 13.0045 13.1502 13.0045 12.6757V7.90304C13.0045 7.42857 12.6199 7.04395 12.1454 7.04395C11.6709 7.04395 11.2863 7.42857 11.2863 7.90304V12.6757Z" fill="#B2B2B4"/>
</svg>
