<svg width="16" height="16" viewBox="0 0 16 16" fill="none" xmlns="http://www.w3.org/2000/svg">
<g id="icon-paper-plane">
<path id="Vector" fill-rule="evenodd" clip-rule="evenodd" d="M12.7099 2.02414L1.36592 5.80814C1.18982 5.86674 1.03349 5.97319 0.914442 6.11559C0.795395 6.25798 0.718326 6.4307 0.69186 6.6144C0.665394 6.79811 0.690576 6.98555 0.764587 7.15576C0.838598 7.32597 0.958518 7.47222 1.11092 7.57814L4.23492 9.75014C4.63292 10.0271 5.17092 9.97914 5.51392 9.63614L7.91392 7.23614C8.02842 7.13415 8.17757 7.07977 8.33084 7.08415C8.48412 7.08852 8.62992 7.15132 8.73841 7.25968C8.8469 7.36804 8.90987 7.51377 8.91443 7.66704C8.91898 7.82031 8.86478 7.96953 8.76292 8.08414L6.36292 10.4851C6.19671 10.6508 6.09418 10.8697 6.07333 11.1034C6.05248 11.3371 6.11465 11.5707 6.24892 11.7631L8.42292 14.8901C8.52892 15.0423 8.67513 15.1619 8.84521 15.2358C9.01529 15.3096 9.20255 15.3347 9.38607 15.3082C9.56959 15.2818 9.74214 15.2048 9.88444 15.086C10.0267 14.9671 10.1332 14.811 10.1919 14.6351L13.9759 3.29014C14.0349 3.11389 14.0437 2.92468 14.0011 2.74374C13.9586 2.56281 13.8664 2.39731 13.735 2.26583C13.6037 2.13435 13.4382 2.04208 13.2573 1.99939C13.0764 1.9567 12.8872 1.96527 12.7109 2.02414" fill="#8C8C8E"/>
</g>
</svg>
